<svg width="754" height="60" viewBox="0 0 754 60" fill="none" xmlns="http://www.w3.org/2000/svg">
<circle cx="30" cy="30" r="28.5" fill="white" stroke="#FF3E79" stroke-width="3"/>
<path d="M21.332 28.484H26.228C26.228 27.812 26.288 27.14 26.408 26.468C26.552 25.772 26.78 25.148 27.092 24.596C27.404 24.02 27.812 23.564 28.316 23.228C28.844 22.868 29.48 22.688 30.224 22.688C31.328 22.688 32.228 23.036 32.924 23.732C33.644 24.404 34.004 25.352 34.004 26.576C34.004 27.344 33.824 28.028 33.464 28.628C33.128 29.228 32.696 29.768 32.168 30.248C31.664 30.728 31.1 31.172 30.476 31.58C29.852 31.964 29.264 32.348 28.712 32.732C27.632 33.476 26.6 34.208 25.616 34.928C24.656 35.648 23.816 36.44 23.096 37.304C22.376 38.144 21.8 39.104 21.368 40.184C20.96 41.264 20.756 42.536 20.756 44H39.26V39.608H27.344C27.968 38.744 28.688 37.988 29.504 37.34C30.32 36.692 31.16 36.092 32.024 35.54C32.888 34.964 33.74 34.388 34.58 33.812C35.444 33.236 36.212 32.6 36.884 31.904C37.556 31.184 38.096 30.368 38.504 29.456C38.912 28.544 39.116 27.452 39.116 26.18C39.116 24.956 38.876 23.852 38.396 22.868C37.94 21.884 37.316 21.056 36.524 20.384C35.732 19.712 34.808 19.196 33.752 18.836C32.72 18.476 31.628 18.296 30.476 18.296C28.964 18.296 27.62 18.56 26.444 19.088C25.292 19.592 24.332 20.312 23.564 21.248C22.796 22.16 22.22 23.24 21.836 24.488C21.452 25.712 21.284 27.044 21.332 28.484Z" fill="#FF3E79"/>
<line x1="58" y1="31" x2="754" y2="31" stroke="#FF3E79" stroke-width="2"/>
</svg>
