<svg width="754" height="60" viewBox="0 0 754 60" fill="none" xmlns="http://www.w3.org/2000/svg">
<circle cx="30" cy="30" r="28.5" fill="white" stroke="#FF3E79" stroke-width="3"/>
<path d="M28.208 28.988V32.588C28.832 32.588 29.48 32.612 30.152 32.66C30.848 32.684 31.484 32.816 32.06 33.056C32.636 33.272 33.104 33.632 33.464 34.136C33.848 34.64 34.04 35.372 34.04 36.332C34.04 37.556 33.644 38.528 32.852 39.248C32.06 39.944 31.088 40.292 29.936 40.292C29.192 40.292 28.544 40.16 27.992 39.896C27.464 39.632 27.02 39.284 26.66 38.852C26.3 38.396 26.024 37.868 25.832 37.268C25.64 36.644 25.532 35.996 25.508 35.324H20.648C20.624 36.788 20.828 38.084 21.26 39.212C21.716 40.34 22.352 41.3 23.168 42.092C23.984 42.86 24.968 43.448 26.12 43.856C27.296 44.264 28.592 44.468 30.008 44.468C31.232 44.468 32.408 44.288 33.536 43.928C34.664 43.568 35.66 43.04 36.524 42.344C37.388 41.648 38.072 40.784 38.576 39.752C39.104 38.72 39.368 37.544 39.368 36.224C39.368 34.784 38.972 33.548 38.18 32.516C37.388 31.484 36.296 30.812 34.904 30.5V30.428C36.08 30.092 36.956 29.456 37.532 28.52C38.132 27.584 38.432 26.504 38.432 25.28C38.432 24.152 38.18 23.156 37.676 22.292C37.172 21.428 36.512 20.696 35.696 20.096C34.904 19.496 34.004 19.052 32.996 18.764C31.988 18.452 30.98 18.296 29.972 18.296C28.676 18.296 27.5 18.512 26.444 18.944C25.388 19.352 24.476 19.94 23.708 20.708C22.964 21.476 22.376 22.4 21.944 23.48C21.536 24.536 21.308 25.712 21.26 27.008H26.12C26.096 25.712 26.408 24.644 27.056 23.804C27.728 22.94 28.712 22.508 30.008 22.508C30.944 22.508 31.772 22.796 32.492 23.372C33.212 23.948 33.572 24.776 33.572 25.856C33.572 26.576 33.392 27.152 33.032 27.584C32.696 28.016 32.252 28.352 31.7 28.592C31.172 28.808 30.596 28.94 29.972 28.988C29.348 29.036 28.76 29.036 28.208 28.988Z" fill="#FF3E79"/>
<line x1="58" y1="31" x2="754" y2="31" stroke="#FF3E79" stroke-width="2"/>
</svg>
