<svg width="754" height="60" viewBox="0 0 754 60" fill="none" xmlns="http://www.w3.org/2000/svg">
<circle cx="30" cy="30" r="28.5" fill="white" stroke="#FF3E79" stroke-width="3"/>
<path d="M38 23.012V18.8H23.924L21.44 32.732H26.048C26.552 32.036 27.092 31.532 27.668 31.22C28.244 30.884 28.988 30.716 29.9 30.716C30.596 30.716 31.208 30.836 31.736 31.076C32.264 31.316 32.72 31.652 33.104 32.084C33.488 32.516 33.776 33.02 33.968 33.596C34.16 34.172 34.256 34.784 34.256 35.432C34.256 36.056 34.148 36.668 33.932 37.268C33.74 37.844 33.452 38.36 33.068 38.816C32.708 39.248 32.252 39.608 31.7 39.896C31.172 40.16 30.572 40.292 29.9 40.292C28.748 40.292 27.8 39.956 27.056 39.284C26.312 38.588 25.88 37.664 25.76 36.512H20.648C20.672 37.832 20.936 38.996 21.44 40.004C21.968 40.988 22.664 41.816 23.528 42.488C24.392 43.16 25.376 43.664 26.48 44C27.608 44.312 28.784 44.468 30.008 44.468C31.28 44.492 32.48 44.288 33.608 43.856C34.736 43.4 35.72 42.764 36.56 41.948C37.424 41.132 38.108 40.172 38.612 39.068C39.116 37.94 39.368 36.728 39.368 35.432C39.368 34.256 39.188 33.152 38.828 32.12C38.492 31.064 37.988 30.152 37.316 29.384C36.668 28.616 35.864 28.004 34.904 27.548C33.944 27.092 32.84 26.864 31.592 26.864C30.584 26.864 29.684 27.02 28.892 27.332C28.1 27.62 27.356 28.112 26.66 28.808L26.588 28.736L27.596 23.012H38Z" fill="#FF3E79"/>
<line x1="58" y1="31" x2="754" y2="31" stroke="#FF3E79" stroke-width="2"/>
</svg>
