<svg width="18" height="19" viewBox="0 0 18 19" fill="none" xmlns="http://www.w3.org/2000/svg">
<path d="M11.816 11.52L13.832 4.704H12.32L11.768 6.216C11.496 5.496 11.12 4.992 10.64 4.704C10.16 4.4 9.64 4.248 9.08 4.248C8.232 4.248 7.456 4.448 6.752 4.848C6.064 5.248 5.472 5.768 4.976 6.408C4.496 7.048 4.12 7.776 3.848 8.592C3.576 9.408 3.44 10.232 3.44 11.064C3.44 11.592 3.52 12.088 3.68 12.552C3.856 13.016 4.088 13.416 4.376 13.752C4.68 14.088 5.04 14.36 5.456 14.568C5.888 14.76 6.36 14.856 6.872 14.856C7.464 14.856 8.016 14.696 8.528 14.376C9.04 14.04 9.48 13.664 9.848 13.248H9.92C9.952 13.776 10.112 14.168 10.4 14.424C10.688 14.68 11.04 14.808 11.456 14.808C12.016 14.808 12.624 14.64 13.28 14.304C13.936 13.968 14.544 13.496 15.104 12.888C15.664 12.28 16.128 11.552 16.496 10.704C16.88 9.84 17.072 8.888 17.072 7.848C17.072 6.76 16.856 5.768 16.424 4.872C15.992 3.96 15.4 3.184 14.648 2.544C13.912 1.888 13.048 1.376 12.056 1.008C11.064 0.64 10.016 0.456 8.912 0.456C7.696 0.456 6.544 0.688 5.456 1.152C4.384 1.616 3.44 2.256 2.624 3.072C1.824 3.872 1.184 4.816 0.704 5.904C0.24 6.976 0.00800008 8.128 0.00800008 9.36C0.00800008 10.64 0.24 11.832 0.704 12.936C1.168 14.024 1.8 14.976 2.6 15.792C3.416 16.592 4.368 17.224 5.456 17.688C6.56 18.152 7.744 18.384 9.008 18.384C9.776 18.384 10.528 18.288 11.264 18.096C12 17.92 12.688 17.656 13.328 17.304C13.984 16.936 14.584 16.496 15.128 15.984C15.672 15.456 16.136 14.856 16.52 14.184H15.008C14.32 15.064 13.44 15.768 12.368 16.296C11.312 16.824 10.208 17.088 9.056 17.088C8.048 17.088 7.096 16.896 6.2 16.512C5.304 16.112 4.512 15.576 3.824 14.904C3.152 14.216 2.616 13.408 2.216 12.48C1.832 11.552 1.64 10.552 1.64 9.48C1.64 8.424 1.824 7.432 2.192 6.504C2.576 5.576 3.096 4.76 3.752 4.056C4.408 3.352 5.176 2.8 6.056 2.4C6.952 1.984 7.912 1.776 8.936 1.776C9.784 1.776 10.592 1.92 11.36 2.208C12.144 2.496 12.84 2.912 13.448 3.456C14.056 3.984 14.536 4.632 14.888 5.4C15.256 6.168 15.44 7.024 15.44 7.968C15.44 8.608 15.336 9.256 15.128 9.912C14.92 10.568 14.656 11.16 14.336 11.688C14.016 12.216 13.656 12.648 13.256 12.984C12.872 13.32 12.496 13.488 12.128 13.488C11.744 13.488 11.552 13.24 11.552 12.744C11.552 12.568 11.576 12.376 11.624 12.168C11.688 11.944 11.752 11.728 11.816 11.52ZM9.08 5.88C9.336 5.88 9.576 5.944 9.8 6.072C10.04 6.2 10.248 6.368 10.424 6.576C10.616 6.768 10.76 7 10.856 7.272C10.968 7.544 11.024 7.824 11.024 8.112C11.024 8.608 10.928 9.152 10.736 9.744C10.544 10.336 10.28 10.896 9.944 11.424C9.608 11.936 9.216 12.368 8.768 12.72C8.32 13.056 7.832 13.224 7.304 13.224C6.696 13.224 6.2 13.008 5.816 12.576C5.432 12.128 5.24 11.568 5.24 10.896C5.24 10.368 5.336 9.816 5.528 9.24C5.72 8.648 5.984 8.104 6.32 7.608C6.656 7.112 7.056 6.704 7.52 6.384C8 6.048 8.52 5.88 9.08 5.88Z" fill="#475168"/>
</svg>
