<svg width="28" height="33" viewBox="0 0 28 33" fill="none" xmlns="http://www.w3.org/2000/svg">
<path d="M11.0916 6.25089C11.0916 5.42185 11.4108 4.62677 11.9792 4.04055C12.5475 3.45433 13.3183 3.125 14.1221 3.125C14.9258 3.125 15.6966 3.45433 16.265 4.04055C16.8333 4.62677 17.1526 5.42185 17.1526 6.25089C18.8927 7.09961 20.3762 8.42076 21.4439 10.0728C22.5116 11.7247 23.1234 13.6453 23.2136 15.6285V20.3174C23.3277 21.2891 23.6613 22.2196 24.1877 23.034C24.714 23.8484 25.4184 24.5239 26.2442 25.0062H2C2.82572 24.5239 3.53012 23.8484 4.05649 23.034C4.58286 22.2196 4.91649 21.2891 5.03052 20.3174V15.6285C5.12077 13.6453 5.73254 11.7247 6.80027 10.0728C7.86799 8.42076 9.35142 7.09961 11.0916 6.25089" stroke="#3F3D56" stroke-width="2.5" stroke-linecap="round" stroke-linejoin="round"/>
<path d="M9.57629 25.0059V26.5688C9.57629 27.8124 10.0552 29.005 10.9077 29.8843C11.7602 30.7636 12.9165 31.2576 14.1221 31.2576C15.3277 31.2576 16.4839 30.7636 17.3364 29.8843C18.1889 29.005 18.6679 27.8124 18.6679 26.5688V25.0059" stroke="#3F3D56" stroke-width="2.5" stroke-linecap="round" stroke-linejoin="round"/>
<ellipse cx="20.1831" cy="4.68883" rx="4.54578" ry="4.68883" fill="#FE4335"/>
</svg>
