<svg width="16" height="16" viewBox="0 0 16 16" fill="none" xmlns="http://www.w3.org/2000/svg">
<path d="M12.3197 0.382812C10.7262 0.382812 9.36308 1.4246 8.85355 2.81689H2.4211C2.2783 2.81689 2.16146 2.94671 2.16146 3.08626L2.0998 12.18H0.266126C0.123327 12.18 0 12.2838 0 12.4266V13.582C0.00324544 14.6692 0.860041 15.5617 1.94402 15.6104V15.6169H9.94726V15.6104C10.0122 15.6136 10.0381 15.6169 10.0803 15.6169H10.0868C11.2097 15.6136 12.1185 14.7049 12.1185 13.582V7.74346C12.1834 7.74671 12.2515 7.74995 12.3197 7.74995C14.3481 7.74995 16 6.09478 16 4.06638C16 2.03474 14.3481 0.382812 12.3197 0.382812ZM2.04138 15.0976C1.20081 15.0976 0.51927 14.4193 0.516024 13.5788V12.6992H8.03245V13.5755C8.03245 14.1175 8.2499 14.6335 8.63286 15.0165C8.65882 15.0424 8.69452 15.0652 8.72373 15.0976H2.04138ZM11.5992 13.5788C11.5992 14.4161 10.9209 15.0944 10.0836 15.0976H10.0771C9.23651 15.0976 8.55497 14.4161 8.55172 13.5755V12.4266C8.55497 12.3617 8.52901 12.2968 8.48032 12.2481C8.43489 12.2027 8.36998 12.1767 8.30183 12.18H2.61907L2.67748 3.33291H8.71075C8.66531 3.56983 8.6426 3.80999 8.63935 4.0534C8.63935 4.56293 8.74645 5.06922 8.95091 5.53657H6.50385C6.36105 5.53657 6.24422 5.6534 6.24422 5.7962C6.24422 5.939 6.36105 6.05584 6.50385 6.05584H9.23327C9.76876 6.8964 10.6223 7.48383 11.5992 7.67855V13.5788ZM12.3197 7.23068C10.5736 7.23068 9.15862 5.81567 9.15862 4.06963C9.15862 2.32358 10.5736 0.908573 12.3197 0.908573C14.0657 0.908573 15.4807 2.32358 15.4807 4.06963C15.4807 5.81567 14.0657 7.23068 12.3197 7.23068Z" fill="black"/>
<path d="M4.83864 7.26367C4.38104 7.26367 4.00781 7.62391 4.00781 8.06854C4.00781 8.51316 4.38104 8.87341 4.83864 8.87341C5.29625 8.87341 5.66947 8.51316 5.66947 8.06854C5.66947 7.62391 5.29625 7.26367 4.83864 7.26367ZM4.83864 8.35089C4.66664 8.35089 4.52708 8.22432 4.52708 8.06529C4.52708 7.90951 4.66664 7.7797 4.83864 7.7797C5.01065 7.7797 5.1502 7.90627 5.1502 8.06529C5.1502 8.22432 5.01065 8.35089 4.83864 8.35089Z" fill="black"/>
<path d="M6.24414 8.0653C6.24414 8.2081 6.36098 8.32493 6.50378 8.32493H9.96017C10.103 8.32493 10.2198 8.2081 10.2198 8.0653C10.2198 7.9225 10.103 7.80566 9.96017 7.80566H6.50378C6.36098 7.80566 6.24414 7.9225 6.24414 8.0653Z" fill="black"/>
<path d="M4.83864 5.00781C4.38104 5.00781 4.00781 5.36806 4.00781 5.81268C4.00781 6.25731 4.38104 6.61755 4.83864 6.61755C5.29625 6.61755 5.66947 6.25731 5.66947 5.81268C5.66947 5.3713 5.29625 5.00781 4.83864 5.00781ZM4.83864 6.09828C4.66664 6.09828 4.52708 5.97171 4.52708 5.81268C4.52708 5.65365 4.66664 5.52708 4.83864 5.52708C5.01065 5.52708 5.1502 5.65365 5.1502 5.81268C5.1502 5.96846 5.01065 6.09828 4.83864 6.09828Z" fill="black"/>
<path d="M4.83864 9.51562C4.38104 9.51562 4.00781 9.87587 4.00781 10.3205C4.00781 10.7651 4.38104 11.1254 4.83864 11.1254C5.29625 11.1254 5.66947 10.7651 5.66947 10.3205C5.66947 9.87587 5.29625 9.51562 4.83864 9.51562ZM4.83864 10.6028C4.66664 10.6028 4.52708 10.4763 4.52708 10.3172C4.52708 10.1615 4.66664 10.0316 4.83864 10.0316C5.01065 10.0316 5.1502 10.1582 5.1502 10.3172C5.1502 10.4763 5.01065 10.6028 4.83864 10.6028Z" fill="black"/>
<path d="M9.96017 10.0742H6.50378C6.36098 10.0742 6.24414 10.1911 6.24414 10.3339C6.24414 10.4767 6.36098 10.5935 6.50378 10.5935H9.96017C10.103 10.5935 10.2198 10.4767 10.2198 10.3339C10.2198 10.1911 10.103 10.0742 9.96017 10.0742Z" fill="black"/>
<path d="M13.5043 5.48834C13.342 5.59868 13.0662 5.71227 12.7157 5.71227C12.2873 5.71227 11.9043 5.54676 11.6414 5.24168C11.4402 5.01775 11.3071 4.71268 11.2585 4.32972H10.9307V4.07008H11.2325C11.2325 4.04412 11.2325 4.01815 11.2325 3.99219C11.2325 3.90781 11.239 3.82667 11.2422 3.75527H10.9307V3.48915H11.2812C11.3461 3.11917 11.5051 2.81085 11.7161 2.59341C11.9854 2.3143 12.3294 2.15527 12.7643 2.15527C13.0759 2.15527 13.3193 2.24615 13.4686 2.32404L13.3615 2.67454C13.2284 2.59341 13.0077 2.52525 12.7676 2.52525C12.482 2.52525 12.2483 2.62586 12.0698 2.81734C11.9108 2.96988 11.8037 3.21004 11.7518 3.48915H13.2284V3.75527H11.7031C11.6966 3.82343 11.6933 3.90456 11.6933 3.97921C11.6933 4.01166 11.6933 4.03763 11.6933 4.07333H13.2284V4.33296H11.729C11.7712 4.64128 11.8783 4.86846 12.0211 5.02749C12.2159 5.23519 12.482 5.3358 12.7676 5.3358C13.0467 5.3358 13.2933 5.2287 13.4134 5.16055L13.5043 5.48834Z" fill="black"/>
</svg>
