<svg width="82" height="82" viewBox="0 0 82 82" fill="none" xmlns="http://www.w3.org/2000/svg">
<path d="M76.875 23.0112H60.6595C61.8229 22.2169 62.8223 21.4276 63.5192 20.7204C67.65 16.564 67.65 9.79899 63.5192 5.64261C59.5064 1.60411 52.5056 1.59899 48.4876 5.64261C46.2685 7.87199 40.3696 16.9484 41.1845 23.0112H40.8155C41.6253 16.9484 35.7315 7.87199 33.5124 5.64261C29.4944 1.59899 22.4936 1.60411 18.4807 5.64261C14.35 9.79899 14.35 16.564 18.4756 20.7204C19.1777 21.4276 20.1771 22.2169 21.3405 23.0112H5.125C2.30113 23.0112 0 25.3124 0 28.1362V40.9487C0 42.3633 1.148 43.5112 2.5625 43.5112H5.125V74.2613C5.125 77.0851 7.42613 79.3863 10.25 79.3863H71.75C74.5739 79.3863 76.875 77.0851 76.875 74.2613V43.5112H79.4375C80.852 43.5112 82 42.3633 82 40.9487V28.1362C82 25.3124 79.6989 23.0112 76.875 23.0112ZM22.1144 9.25574C23.1548 8.21024 24.5334 7.63624 25.9991 7.63624C27.4597 7.63624 28.8384 8.21024 29.8787 9.25574C33.333 12.7305 36.7668 21.607 35.5726 22.8421C35.5726 22.8421 35.3574 23.0112 34.6245 23.0112C31.0831 23.0112 24.3232 19.3315 22.1144 17.1072C19.967 14.9445 19.967 11.4185 22.1144 9.25574ZM38.4375 74.2613H10.25V43.5112H38.4375V74.2613ZM38.4375 38.3862H5.125V28.1362H34.6245H38.4375V38.3862ZM52.1213 9.25574C54.202 7.16986 57.81 7.17499 59.8856 9.25574C62.033 11.4185 62.033 14.9445 59.8856 17.1072C57.6768 19.3315 50.9169 23.0112 47.3755 23.0112C46.6426 23.0112 46.4274 22.8472 46.4222 22.8421C45.2332 21.607 48.667 12.7305 52.1213 9.25574ZM71.75 74.2613H43.5625V43.5112H71.75V74.2613ZM76.875 38.3862H43.5625V28.1362H47.3755H76.875V38.3862Z" fill="url(#paint0_linear)" fill-opacity="0.9"/>
<defs>
<linearGradient id="paint0_linear" x1="126.686" y1="-20.2919" x2="7.13473" y2="-30.7519" gradientUnits="userSpaceOnUse">
<stop offset="0.145833" stop-color="white"/>
<stop offset="1" stop-color="white"/>
</linearGradient>
</defs>
</svg>
