<svg width="40" height="40" viewBox="0 0 40 40" fill="none" xmlns="http://www.w3.org/2000/svg">
<path d="M37.5 11.2256H29.59C30.1575 10.8381 30.645 10.4531 30.985 10.1081C33 8.0806 33 4.7806 30.985 2.7531C29.0275 0.783096 25.6125 0.780596 23.6525 2.7531C22.57 3.8406 19.6925 8.2681 20.09 11.2256H19.91C20.305 8.2681 17.43 3.8406 16.3475 2.7531C14.3875 0.780596 10.9725 0.783096 9.015 2.7531C7 4.7806 7 8.0806 9.0125 10.1081C9.355 10.4531 9.8425 10.8381 10.41 11.2256H2.5C1.1225 11.2256 0 12.3481 0 13.7256V19.9756C0 20.6656 0.56 21.2256 1.25 21.2256H2.5V36.2256C2.5 37.6031 3.6225 38.7256 5 38.7256H35C36.3775 38.7256 37.5 37.6031 37.5 36.2256V21.2256H38.75C39.44 21.2256 40 20.6656 40 19.9756V13.7256C40 12.3481 38.8775 11.2256 37.5 11.2256ZM10.7875 4.5156C11.295 4.0056 11.9675 3.7256 12.6825 3.7256C13.395 3.7256 14.0675 4.0056 14.575 4.5156C16.26 6.2106 17.935 10.5406 17.3525 11.1431C17.3525 11.1431 17.2475 11.2256 16.89 11.2256C15.1625 11.2256 11.865 9.4306 10.7875 8.3456C9.74 7.2906 9.74 5.5706 10.7875 4.5156ZM18.75 36.2256H5V21.2256H18.75V36.2256ZM18.75 18.7256H2.5V13.7256H16.89H18.75V18.7256ZM25.425 4.5156C26.44 3.4981 28.2 3.5006 29.2125 4.5156C30.26 5.5706 30.26 7.2906 29.2125 8.3456C28.135 9.4306 24.8375 11.2256 23.11 11.2256C22.7525 11.2256 22.6475 11.1456 22.645 11.1431C22.065 10.5406 23.74 6.2106 25.425 4.5156ZM35 36.2256H21.25V21.2256H35V36.2256ZM37.5 18.7256H21.25V13.7256H23.11H37.5V18.7256Z" fill="url(#paint0_linear)" fill-opacity="0.9"/>
<defs>
<linearGradient id="paint0_linear" x1="61.7978" y1="-9.89789" x2="3.48036" y2="-15.0003" gradientUnits="userSpaceOnUse">
<stop offset="0.145833" stop-color="#FF3E79"/>
<stop offset="1" stop-color="#F9357C"/>
</linearGradient>
</defs>
</svg>
