<svg width="18" height="19" viewBox="0 0 18 19" fill="none" xmlns="http://www.w3.org/2000/svg">
<path d="M14.626 2.83533H2.94514C1.87087 2.83533 1 3.64866 1 4.65197V15.5612C1 16.5645 1.87087 17.3779 2.94514 17.3779H14.626C15.7003 17.3779 16.5712 16.5645 16.5712 15.5612V4.65197C16.5712 3.64866 15.7003 2.83533 14.626 2.83533Z" stroke="#FF3E79" stroke-width="2" stroke-linecap="round" stroke-linejoin="round"/>
<path d="M12.9102 1.091V4.73056" stroke="#FF3E79" stroke-width="2" stroke-linecap="round" stroke-linejoin="round"/>
<path d="M5.12402 1.091V4.73056" stroke="#FF3E79" stroke-width="2" stroke-linecap="round" stroke-linejoin="round"/>
<path d="M1 8.36768H16.5779" stroke="#FF3E79" stroke-width="2" stroke-linecap="round" stroke-linejoin="round"/>
<path d="M4.59743 11.3963C4.56625 11.4356 4.53193 11.4717 4.49514 11.5044C4.45835 11.4717 4.42403 11.4356 4.39285 11.3963C4.42403 11.3571 4.45835 11.321 4.49514 11.2882C4.53193 11.321 4.56625 11.3571 4.59743 11.3963Z" fill="#FF3E79" stroke="#FF3E79" stroke-width="2"/>
<path d="M8.80739 11.3963C8.77621 11.4356 8.74189 11.4717 8.7051 11.5044C8.66831 11.4717 8.63399 11.4356 8.60281 11.3963C8.63399 11.3571 8.66831 11.321 8.7051 11.2882C8.74189 11.321 8.77621 11.3571 8.80739 11.3963Z" fill="#FF3E79" stroke="#FF3E79" stroke-width="2"/>
<path d="M13.0164 11.3963C12.9852 11.4356 12.9509 11.4717 12.9141 11.5044C12.8773 11.4717 12.843 11.4356 12.8118 11.3963C12.843 11.3571 12.8773 11.321 12.9141 11.2882C12.9509 11.321 12.9852 11.3571 13.0164 11.3963Z" fill="#FF3E79" stroke="#FF3E79" stroke-width="2"/>
<path d="M4.59743 14.2884C4.56625 14.3277 4.53193 14.3638 4.49514 14.3965C4.45835 14.3638 4.42403 14.3277 4.39285 14.2884C4.42403 14.2492 4.45835 14.2131 4.49514 14.1803C4.53193 14.2131 4.56625 14.2492 4.59743 14.2884Z" fill="#FF3E79" stroke="#FF3E79" stroke-width="2"/>
<path d="M8.80739 14.2884C8.77621 14.3277 8.74189 14.3638 8.7051 14.3965C8.66831 14.3638 8.63399 14.3277 8.60281 14.2884C8.63399 14.2492 8.66831 14.2131 8.7051 14.1803C8.74189 14.2131 8.77621 14.2492 8.80739 14.2884Z" fill="#FF3E79" stroke="#FF3E79" stroke-width="2"/>
<path d="M13.0164 14.2884C12.9852 14.3277 12.9509 14.3638 12.9141 14.3965C12.8773 14.3638 12.843 14.3277 12.8118 14.2884C12.843 14.2492 12.8773 14.2131 12.9141 14.1803C12.9509 14.2131 12.9852 14.2492 13.0164 14.2884Z" fill="#FF3E79" stroke="#FF3E79" stroke-width="2"/>
</svg>
