<svg width="16" height="16" viewBox="0 0 16 16" fill="none" xmlns="http://www.w3.org/2000/svg">
<g clip-path="url(#clip0_2298:3368)">
<path d="M8.25783 12.252V4.54615C8.25783 4.4036 8.14232 4.28809 7.99976 4.28809C7.85721 4.28809 7.7417 4.4036 7.7417 4.54615V12.252C7.7417 12.3945 7.85721 12.5101 7.99976 12.5101C8.14232 12.5101 8.25783 12.3945 8.25783 12.252Z" fill="#333E57"/>
<path d="M15.7419 2.60728C15.1964 2.60728 14.5165 2.37185 13.7967 2.12263C12.8852 1.80697 11.8519 1.44922 10.7804 1.44922C9.54044 1.44922 8.784 1.99257 8.36779 2.44838C8.21213 2.61891 8.09149 2.78978 8.00004 2.94135C7.90858 2.78978 7.78794 2.61891 7.63228 2.44838C7.21603 1.99257 6.45963 1.44922 5.21972 1.44922C4.14813 1.44922 3.11491 1.80697 2.20336 2.12263C1.48349 2.37185 0.803647 2.60728 0.258065 2.60728C0.11551 2.60728 0 2.72278 0 2.86534V13.2599C0 13.4025 0.11551 13.518 0.258065 13.518C0.890495 13.518 1.61022 13.2688 2.37216 13.0049C3.24528 12.7026 4.23491 12.3599 5.21965 12.3599C6.06403 12.3599 6.74749 12.6395 7.25106 13.191C7.34713 13.2962 7.5104 13.3036 7.61566 13.2075C7.72091 13.1114 7.72828 12.9481 7.63217 12.8429C7.21593 12.3871 6.45953 11.8438 5.21965 11.8438C4.14806 11.8438 3.11484 12.2015 2.20329 12.5172C1.59305 12.7285 1.01148 12.9299 0.516129 12.9863V3.1106C1.08356 3.05655 1.712 2.83891 2.37216 2.61034C3.24528 2.30802 4.23491 1.96535 5.21965 1.96535C7.21125 1.96535 7.73234 3.54684 7.75329 3.61331C7.7866 3.72163 7.88666 3.79561 8 3.79561C8.11334 3.79561 8.2134 3.72167 8.24671 3.61331C8.25173 3.59683 8.77602 1.96535 10.7804 1.96535C11.7651 1.96535 12.7547 2.30802 13.6278 2.61034C14.288 2.83895 14.9164 3.05655 15.4839 3.1106V12.9863C14.9885 12.9299 14.407 12.7285 13.7967 12.5172C12.8852 12.2015 11.8519 11.8438 10.7804 11.8438C9.5404 11.8438 8.78397 12.3871 8.36779 12.8429C8.27169 12.9482 8.27909 13.1114 8.38431 13.2075C8.4896 13.3036 8.65283 13.2962 8.7489 13.191C9.25247 12.6396 9.93593 12.3599 10.7804 12.3599C11.7651 12.3599 12.7547 12.7026 13.6278 13.0049C14.3898 13.2688 15.1095 13.518 15.7419 13.518C15.8845 13.518 16 13.4025 16 13.2599V2.86534C16 2.72282 15.8845 2.60728 15.7419 2.60728Z" fill="#333E57"/>
<path d="M15.7419 14.034C15.1964 14.034 14.5165 13.7986 13.7967 13.5494C12.8852 13.2337 11.8519 12.876 10.7804 12.876C9.61586 12.876 8.87787 13.3552 8.44759 13.7911L7.55238 13.7911C7.1221 13.3552 6.38407 12.876 5.21965 12.876C4.14806 12.876 3.11484 13.2337 2.20329 13.5494C1.48349 13.7986 0.803647 14.034 0.258065 14.034C0.11551 14.034 0 14.1495 0 14.2921C0 14.4346 0.11551 14.5502 0.258065 14.5502C0.890495 14.5502 1.61022 14.3009 2.37216 14.0371C3.24528 13.7348 4.23491 13.3921 5.21965 13.3921C6.06403 13.3921 6.74749 13.6717 7.25106 14.2231C7.29996 14.2767 7.36912 14.3072 7.44162 14.3072L8.55831 14.3072C8.63081 14.3072 8.69998 14.2767 8.74887 14.2232C9.25244 13.6717 9.9359 13.3921 10.7803 13.3921C11.7651 13.3921 12.7547 13.7348 13.6278 14.0371C14.3898 14.3009 15.1095 14.5502 15.7419 14.5502C15.8845 14.5502 16 14.4346 16 14.2921C16 14.1495 15.8845 14.034 15.7419 14.034Z" fill="#333E57"/>
</g>
<defs>
<clipPath id="clip0_2298:3368">
<rect width="16" height="16" fill="white"/>
</clipPath>
</defs>
</svg>
