<svg width="46" height="46" viewBox="0 0 46 46" fill="none" xmlns="http://www.w3.org/2000/svg">
<path d="M17.2493 40.25C19.3664 40.25 21.0827 38.5338 21.0827 36.4167C21.0827 34.2996 19.3664 32.5834 17.2493 32.5834C15.1323 32.5834 13.416 34.2996 13.416 36.4167C13.416 38.5338 15.1323 40.25 17.2493 40.25Z" stroke="#FF3E79" stroke-width="2" stroke-linecap="round" stroke-linejoin="round"/>
<path d="M32.5833 40.25C34.7004 40.25 36.4167 38.5338 36.4167 36.4167C36.4167 34.2996 34.7004 32.5834 32.5833 32.5834C30.4662 32.5834 28.75 34.2996 28.75 36.4167C28.75 38.5338 30.4662 40.25 32.5833 40.25Z" stroke="#FF3E79" stroke-width="2" stroke-linecap="round" stroke-linejoin="round"/>
<path d="M5.75 5.75H9.58333L13.4167 28.75C13.8301 29.9258 14.6145 30.9355 15.6515 31.6268C16.6886 32.3182 17.9223 32.6539 19.1667 32.5833H32.5833C33.8277 32.6539 35.0614 32.3182 36.0985 31.6268C37.1355 30.9355 37.9199 29.9258 38.3333 28.75L40.25 15.3333H11.1167" stroke="#FF3E79" stroke-width="2" stroke-linecap="round" stroke-linejoin="round"/>
</svg>
