<svg width="57" height="52" viewBox="0 0 57 52" fill="none" xmlns="http://www.w3.org/2000/svg">
<g clip-path="url(#clip0)">
<path d="M49.3118 18.0241C49.1129 18.0241 48.9141 18.0241 48.7153 17.9574H48.649C47.5885 18.0908 46.7932 19.0908 46.9257 20.2241C46.9257 20.3574 46.992 20.4908 47.0583 20.6241C49.9746 32.4241 42.8827 44.3574 31.1513 47.2908C19.4199 50.2241 7.55597 43.0908 4.57341 31.2908C1.65713 19.4908 8.74899 7.55745 20.4804 4.55745C26.7769 2.95745 33.4711 4.29078 38.7071 8.09078C39.5025 8.82411 40.7618 8.75743 41.4908 7.95743C42.2199 7.15743 42.1536 5.89076 41.3583 5.15743C41.2257 5.09076 41.1595 4.95745 41.0269 4.89078C36.3874 1.62412 30.8199 -0.109207 25.1862 0.0241259C23.3304 0.0907926 21.4083 0.357427 19.5525 0.824093C5.70016 4.29076 -2.71729 18.4241 0.795505 32.3575C4.24202 46.2908 18.3595 54.6907 32.1455 51.2241C45.9978 47.7574 54.349 33.5575 50.9025 19.6908C50.7699 18.8241 50.1734 18.1575 49.3118 18.0241Z" fill="black"/>
<path d="M54.8128 0.958496C54.3488 0.558496 53.686 0.358521 53.0895 0.358521C52.493 0.358521 51.9628 0.625171 51.6314 1.09184C43.7442 9.3585 31.0186 23.5585 22.6674 32.3585L11.5988 22.5585C10.7372 21.7585 9.27906 21.8252 8.48371 22.6919C7.68837 23.5585 7.75464 25.0252 8.61627 25.8252L21.2093 37.0252C22.0709 37.8252 23.4628 37.7585 24.3244 36.8918C32.6093 28.1585 46.5942 12.6919 54.7465 4.02519C55.6744 3.15852 55.6744 1.7585 54.8128 0.958496Z" fill="#FF3E79"/>
</g>
<defs>
<clipPath id="clip0">
<rect width="57" height="52" fill="white"/>
</clipPath>
</defs>
</svg>
