<svg width="310" height="272" viewBox="0 0 310 272" fill="none" xmlns="http://www.w3.org/2000/svg">
<rect width="310" height="271" fill="#F0E3E7"/>
<path d="M172.907 129.233C172.907 129.233 166.679 105.732 180.968 99.9342C195.256 94.1367 208.433 121.152 207.54 133.661C206.646 146.163 198.202 152.88 190.816 147.956C183.423 143.039 172.907 129.233 172.907 129.233Z" fill="#E1BDFF"/>
<path d="M109.114 123.647C113.918 114.369 127.4 88.7097 145.295 102.747C163.184 116.784 139.035 145.296 167.533 156.288C196.031 167.281 211.981 163.787 208.956 196.693C205.932 229.592 155.13 254.556 127.962 236.779C100.794 219.003 86.7241 166.891 109.114 123.647Z" fill="#E1BDFF"/>
<path d="M187.433 197.394H182.212C181.854 194.813 181.642 193.549 181.642 193.549C181.642 193.549 181.146 194.098 180.286 195.045C178.75 196.739 176.063 199.678 173.059 202.914V202.92C166.884 209.598 159.392 217.56 157.81 218.54C155.05 220.26 152.463 231.147 152.8 233.364C152.893 233.96 153.356 237.865 154.031 243.259C155.031 251.26 156.487 262.537 157.843 271.082H181.649C182.331 266.548 183.065 261.24 183.701 255.694C184.621 247.574 185.316 238.95 185.316 231.491C185.316 231.485 185.316 231.478 185.316 231.472C185.911 217.864 187.433 197.394 187.433 197.394Z" fill="#140D57"/>
<path opacity="0.3" d="M183.701 255.701C183.065 261.247 182.331 266.555 181.649 271.088H157.843C156.486 262.544 155.03 251.267 154.031 243.265C154.508 242.028 154.872 241.174 155.063 240.889C156.175 239.221 163.952 226.164 166.46 224.767C168.22 223.794 171.351 210.651 173.058 202.92V202.914C176.063 199.671 178.743 196.732 180.286 195.045C181.139 194.098 181.642 193.549 181.642 193.549C181.642 193.549 182.569 198.983 183.78 210.591C180.663 222.405 176.619 246.918 177.294 254.232C177.757 259.136 180.458 258.474 183.701 255.701Z" fill="#59002B"/>
<path d="M187.433 197.394L179.955 190.187L177.374 191.921C171.569 188.678 156.698 184.74 145.745 183.536C144.329 183.377 142.992 183.271 141.735 183.211C137.704 183.033 134.62 183.383 133.435 184.535C133.435 184.535 132.244 186.037 130.656 188.764C130.57 188.916 130.484 189.062 130.398 189.227C130.245 189.479 130.106 189.737 129.954 190.008C128.922 191.881 127.797 194.191 126.738 196.878C126.612 197.189 126.493 197.507 126.374 197.824C126.36 197.864 126.341 197.904 126.327 197.95C126.202 198.274 126.089 198.599 125.97 198.936C125.937 199.022 125.91 199.102 125.884 199.194C125.752 199.545 125.639 199.909 125.52 200.273C125.381 200.69 125.249 201.107 125.123 201.537C124.99 201.967 124.865 202.398 124.746 202.848C124.646 203.179 124.56 203.523 124.474 203.867C124.322 204.449 124.183 205.045 124.051 205.641C123.951 206.091 123.859 206.534 123.773 206.991C123.673 207.474 123.594 207.957 123.508 208.447C121.8 218.639 129.63 249.877 136.202 271.101H167.195C167.235 270.936 167.274 270.77 167.307 270.605C168.3 266.158 169.392 259.109 170.358 252.147C170.722 249.526 171.067 246.925 171.384 244.476C171.51 243.523 171.695 242.577 171.953 241.65C176.507 225.35 187.433 197.394 187.433 197.394Z" fill="#180F66"/>
<path d="M188.612 164.991C188.585 171.517 185.713 192.086 183.257 199.876C180.504 201.133 177.639 201.795 175.177 201.961C176.811 199.618 179.591 196.335 179.571 193.602C179.538 189.267 180.968 170.762 179.406 165.064C177.996 159.935 170.57 146.017 165.375 137.393C164.793 136.42 164.237 135.514 163.714 134.693C160.444 129.518 157.982 122.297 157.566 118.081C157.334 115.712 157.744 114.302 159.028 114.739C159.028 114.739 160.762 113.27 163.231 112.443C163.323 112.416 163.409 112.383 163.509 112.35C166.116 111.549 169.458 111.536 172.443 114.64C178.777 121.232 187.665 153.932 188.539 163.615C188.585 164.144 188.612 164.607 188.612 164.991Z" fill="#F4BAA1"/>
<path opacity="0.1" d="M180.233 199.724C178.506 201.835 176.441 203.602 174.508 204.959C174.422 204.912 174.349 204.853 174.27 204.8C172.609 203.622 179.604 197.924 179.571 193.595C179.538 189.26 180.968 170.756 179.406 165.058C177.996 159.928 170.57 146.01 165.375 137.387C166.851 135.759 169.055 133.978 169.055 133.978L176.494 129.015C176.494 129.015 179.425 137.579 178.817 146.725C178.208 155.871 182.165 159.518 183.985 167.275C185.799 175.025 184.886 194.019 180.233 199.724Z" fill="#59002B"/>
<path d="M175.143 62.8853C173.317 56.2538 170.643 54.8111 170.643 54.8111C170.292 54.414 170.054 54.1757 169.988 54.1095C167.883 52.2829 160.663 47.1538 147.142 48.1201C130.768 49.2981 107.135 73.9245 119.206 99.7091C131.278 125.494 137.903 139.094 141.609 141.371C145.315 143.648 159.081 135.084 154.925 123.005C150.769 110.927 150.299 93.9579 155.156 90.4767C158.088 88.3721 162.132 89.9274 165.474 82.9385C173.37 79.636 176.871 69.1792 175.143 62.8853Z" fill="#100A45"/>
<path d="M138.2 189.287C138.756 189.717 139.332 190.127 139.941 190.538C139.332 190.134 138.75 189.717 138.2 189.287Z" fill="#DB006A"/>
<path d="M163.303 112.138C161.616 119.524 155.765 119.134 149.339 115.97C144.852 113.766 141.907 110.669 140.345 108.71C141.907 108.392 143.244 107.684 144.203 105.712C144.448 105.202 144.68 104.593 144.872 103.899C146.513 98.0282 147.208 95.5529 147.499 94.5006C149.511 94.4212 151.933 94.3021 152.569 94.1565L158.048 94.633C158.048 94.633 157.201 96.4133 157.347 99.4511C157.446 101.496 157.989 104.11 159.564 107.135C160.411 108.756 161.748 110.424 163.303 112.138Z" fill="#F4BAA1"/>
<path opacity="0.1" d="M157.354 99.451C156.48 100.027 155.262 100.523 153.575 100.808C148.207 101.708 146.751 104.567 144.21 105.719C144.455 105.209 144.686 104.6 144.878 103.905C146.519 98.0347 147.214 95.5595 147.506 94.5072C149.518 94.4278 151.94 94.3087 152.575 94.1631L158.055 94.6396C158.055 94.633 157.201 96.4133 157.354 99.451Z" fill="#59002B"/>
<path d="M202.933 179.551C200.637 197.129 184.124 204.681 168.909 203.529C164.515 203.198 160.577 201.372 157.188 198.612C156.95 198.539 156.725 198.473 156.507 198.4H156.5C156.262 198.327 156.037 198.241 155.805 198.155C151.662 196.593 147.592 194.906 143.985 192.967C140.246 190.941 136.983 188.665 134.607 185.984C134.19 185.514 133.793 185.025 133.442 184.535C134.984 180.789 136.407 177.182 137.506 173.555C137.552 173.403 137.598 173.258 137.638 173.099C137.678 172.94 137.717 172.781 137.75 172.635C137.79 172.477 137.823 172.318 137.843 172.152C137.876 172 137.909 171.835 137.929 171.682C138.452 168.479 137.976 164.905 136.983 161.12C136.903 160.795 136.817 160.484 136.725 160.167C136.639 159.842 136.546 159.531 136.44 159.214C136.156 158.254 135.844 157.268 135.494 156.282C135.156 155.302 134.792 154.316 134.415 153.317C132.555 148.399 130.331 143.317 128.571 138.406C128.372 137.837 128.181 137.274 127.989 136.712C127.201 134.389 126.552 132.112 126.116 129.908C126.109 129.875 126.102 129.842 126.102 129.815C125.844 128.532 125.659 127.274 125.573 126.043C125.361 123.131 125.666 120.398 126.731 117.942C131.079 107.909 136.42 109.537 140.351 108.717C141.913 110.676 144.852 113.773 149.346 115.977C152.33 117.446 155.19 118.326 157.565 118.088C160.233 117.836 162.297 116.189 163.237 112.449C163.27 112.357 163.284 112.251 163.317 112.145C163.383 112.224 163.442 112.297 163.515 112.363C165.176 114.177 167.076 116.05 168.916 117.962C168.916 117.962 168.922 117.969 168.929 117.975C172.595 121.807 176.004 125.871 176.745 130.193C176.811 130.179 176.838 130.16 176.838 130.16C176.838 130.16 178.982 140.094 185.051 146.778C186.646 148.538 188.803 150.431 191.074 152.582C197.414 158.578 204.628 166.606 202.933 179.551Z" fill="#DB006A"/>
<path opacity="0.15" d="M202.933 179.551C200.637 197.129 184.124 204.681 168.909 203.529C164.514 203.198 160.577 201.372 157.188 198.612C156.95 198.539 156.725 198.473 156.506 198.4H156.5C156.261 198.327 156.036 198.241 155.805 198.155C151.662 196.593 147.592 194.906 143.985 192.967C140.245 190.941 136.983 188.665 134.607 185.984C134.19 185.514 133.793 185.025 133.442 184.535C134.984 180.789 136.407 177.182 137.505 173.555C137.552 173.403 137.598 173.258 137.638 173.099C137.677 172.94 137.717 172.781 137.75 172.635C137.79 172.477 137.823 172.318 137.843 172.152C137.876 172 137.909 171.835 137.929 171.682C138.452 168.479 137.975 164.905 136.983 161.12C136.903 160.795 136.817 160.484 136.724 160.167C136.638 159.842 136.546 159.531 136.44 159.214C136.155 158.254 135.844 157.268 135.493 156.282C135.156 155.302 134.792 154.316 134.415 153.317C132.555 148.399 130.331 143.317 128.571 138.406C128.372 137.837 128.18 137.274 127.988 136.712C127.201 134.389 126.552 132.112 126.115 129.908C126.109 129.875 126.102 129.842 126.102 129.815C125.844 128.532 125.659 127.274 125.573 126.043C128.346 121.192 130.748 116.903 130.748 116.903L140.351 123.647C140.351 123.647 135.838 132.403 141.595 144.442C147.353 156.48 148.737 162.013 147.903 172.807C147.075 183.602 183.601 201.802 191.345 179.551C195.322 168.128 193.257 158.836 191.067 152.576C197.414 158.578 204.627 166.606 202.933 179.551Z" fill="#59002B"/>
<path d="M163.303 112.138C161.616 119.524 155.765 119.134 149.339 115.97C144.852 113.766 141.907 110.669 140.345 108.71C141.907 108.392 143.244 107.684 144.203 105.712C144.448 105.202 144.68 104.593 144.872 103.899C146.513 98.0282 147.208 95.5529 147.499 94.5006C149.511 94.4212 151.933 94.3021 152.569 94.1565L158.048 94.633C158.048 94.633 157.201 96.4133 157.347 99.4511C157.446 101.496 157.989 104.11 159.564 107.135C160.411 108.756 161.748 110.424 163.303 112.138Z" fill="#F4BAA1"/>
<path opacity="0.1" d="M157.354 99.451C156.48 100.027 155.262 100.523 153.575 100.808C148.207 101.708 146.751 104.567 144.21 105.719C144.455 105.209 144.686 104.6 144.878 103.905C146.519 98.0347 147.214 95.5595 147.506 94.5072C149.518 94.4278 151.94 94.3087 152.575 94.1631L158.055 94.6396C158.055 94.633 157.201 96.4133 157.354 99.451Z" fill="#59002B"/>
<path d="M143.72 82.6607C143.76 82.5416 144.064 81.7342 144.885 80.6885C144.395 81.7606 143.806 82.5482 143.72 82.6607Z" fill="#F4BAA1"/>
<path d="M156.99 98.4516C152.344 99.3847 149.365 97.8493 147.155 95.6653C143.727 92.2768 142.648 88.2132 142.145 85.8174V85.8108C138.042 84.3415 139.279 73.534 143.773 74.3414C146.764 74.8841 145.692 78.9013 144.885 80.6816C146.156 79.0337 148.671 76.8166 153.363 75.7312C159.015 74.4274 166.348 75.215 170.583 73.7126C170.537 79.7154 166.03 96.6316 156.99 98.4516Z" fill="#F4C3AD"/>
<path d="M141.596 102.747C141.424 102.8 141.251 102.853 141.073 102.899C141.073 102.899 141.271 102.853 141.596 102.747Z" fill="#100A45"/>
<path d="M160.848 74.8842L157.678 71.8332L153.198 70.7875L149.114 75.6717L148.869 75.1687L147.043 75.0099C147.043 75.0099 145.362 77.8624 144.409 80.4633C144.078 81.37 143.945 82.6209 145.163 85.8439C146.354 88.9942 147.764 94.6131 146.302 98.3524C145.17 101.238 142.681 102.376 141.596 102.747C145.99 101.41 148.413 98.6105 148.664 93.6402C148.757 91.7805 148.327 89.709 147.81 87.7368V87.7301C147.049 83.9313 147.724 80.1126 150.034 78.0741C152.344 76.0291 160.848 74.8842 160.848 74.8842Z" fill="#100A45"/>
<path opacity="0.15" d="M181.643 193.549C181.239 194.065 180.782 194.555 180.273 195.005C174.78 199.909 163.509 201.047 155.798 198.155C151.655 196.593 147.592 194.899 143.985 192.96C143.647 193.979 143.27 195.012 142.833 196.057C141.774 198.632 140.398 201.319 138.657 204.198C128.611 220.79 139.14 261.531 156.275 264.463C164.568 265.886 167.652 259.665 170.359 252.127C169.392 259.083 168.3 266.131 167.308 270.585C167.274 270.751 167.235 270.916 167.195 271.082H136.202C129.63 249.857 121.807 218.619 123.508 208.427C123.594 207.937 123.674 207.454 123.773 206.971C123.859 206.514 123.952 206.071 124.051 205.621C124.183 205.025 124.322 204.429 124.474 203.847C124.56 203.503 124.646 203.159 124.746 202.828C124.865 202.378 124.991 201.948 125.123 201.517C125.249 201.087 125.381 200.67 125.52 200.253C125.639 199.889 125.752 199.525 125.884 199.175C125.911 199.082 125.937 199.002 125.97 198.916C126.089 198.579 126.202 198.255 126.327 197.93C126.341 197.884 126.361 197.844 126.374 197.805C126.493 197.487 126.612 197.169 126.738 196.858C127.797 194.171 128.922 191.868 129.954 189.988C130.106 189.724 130.245 189.466 130.398 189.207C130.484 189.049 130.57 188.896 130.656 188.744C132.244 186.017 133.435 184.515 133.435 184.515C134.13 182.827 134.799 181.173 135.421 179.532C137.479 180.736 139.604 181.967 141.735 183.191C152.655 189.432 163.846 195.356 167.46 195.673C171.517 196.031 174.912 193.834 177.473 191.961C178.413 191.272 179.24 190.624 179.948 190.174C180.531 191.259 181.093 192.371 181.643 193.549Z" fill="#59002B"/>
<path d="M174.654 202.834C167.287 206.527 156.103 202.212 142.827 196.064C140.153 194.826 137.4 193.516 134.574 192.179C132.979 191.425 131.443 190.703 129.954 190.002C115.738 183.277 106.665 178.837 102.978 173.794C98.908 168.234 119.299 128.108 123.276 120.239C126.42 114.005 134.11 102.628 140.914 112.019C141.874 113.343 142.059 115.461 141.682 118.121C141.443 119.776 140.98 121.642 140.351 123.654C140.351 123.654 140.351 123.66 140.345 123.674C138.386 129.895 134.785 137.519 130.993 144.706C124.779 156.467 118.048 167.056 117.207 168.386C117.168 168.439 117.135 168.492 117.108 168.532C117.108 168.532 125.454 173.721 135.421 179.565C147.989 186.924 163.144 195.329 167.46 195.707C173.012 196.19 177.307 191.901 179.948 190.2C181.007 189.512 181.788 189.247 182.298 189.843C184.065 191.941 183.502 198.4 174.654 202.834Z" fill="#F4BAA1"/>
<path opacity="0.1" d="M141.682 118.115C141.443 119.769 140.98 121.635 140.351 123.647C140.351 123.647 140.351 123.654 140.345 123.667C138.386 129.888 134.785 137.513 130.993 144.7C124.779 156.461 118.048 167.05 117.207 168.38C117.168 168.433 117.141 168.492 117.108 168.526C114.692 170.908 113.15 167.579 115.897 163.615C120.053 157.619 141.675 118.115 141.682 118.115Z" fill="#59002B"/>
</svg>
