<svg width="310" height="271" viewBox="0 0 310 271" fill="none" xmlns="http://www.w3.org/2000/svg">
<rect width="310" height="271" fill="#F0E3E7"/>
<path d="M106.517 144.273C105.57 144.626 104.627 144.978 103.68 145.331C103.209 145.509 102.733 145.684 102.262 145.862C101.797 146.037 101.332 146.205 100.847 146.289C100.406 146.366 99.9766 146.362 99.5363 146.425C99.0542 146.498 98.5755 146.659 98.1038 146.809C97.129 147.12 96.1577 147.431 95.1828 147.742C94.0718 148.095 92.9642 148.451 91.8531 148.804C91.3465 148.965 91.2242 148.469 91.7308 148.308C93.6769 147.686 95.6231 147.068 97.5692 146.446C98.0304 146.299 98.4951 146.138 98.9633 146.023C99.442 145.904 99.8892 145.855 100.357 145.817C101.322 145.74 102.234 145.331 103.156 144.985C104.236 144.584 105.312 144.178 106.392 143.776C106.601 143.7 106.814 143.787 106.849 143.909C106.891 144.056 106.727 144.196 106.517 144.273Z" fill="#5E5E60"/>
<path d="M107.625 150.964C107.206 151.6 106.395 152.228 105.333 152.354C104.753 152.424 104.229 152.298 103.652 152.361C103.072 152.424 102.52 152.686 101.996 152.892C101.468 153.098 100.934 153.27 100.357 153.333C99.8123 153.388 99.2917 153.357 98.7711 153.326C98.2644 153.294 97.7299 153.252 97.1988 153.326C96.6852 153.395 96.196 153.57 95.7208 153.745C94.5783 154.161 93.4393 154.552 92.3387 154.213C91.9089 154.08 92.419 153.612 92.8488 153.745C93.6734 153.996 94.6377 153.584 95.4693 153.284C95.927 153.116 96.4022 152.952 96.8913 152.857C97.3805 152.763 97.8731 152.749 98.3448 152.767C99.3161 152.801 100.273 152.955 101.276 152.606C101.79 152.428 102.269 152.197 102.789 152.036C103.31 151.876 103.809 151.802 104.333 151.823C104.851 151.844 105.354 151.907 105.874 151.69C106.353 151.495 106.674 151.163 106.888 150.841C107.104 150.513 107.845 150.628 107.625 150.964Z" fill="#5E5E60"/>
<path d="M106.563 147.012C101.835 148.556 97.0905 150.017 92.3317 151.418C91.8251 151.568 91.6819 151.079 92.192 150.929C96.9508 149.524 101.696 148.064 106.423 146.523C106.926 146.359 107.069 146.848 106.563 147.012Z" fill="#5E5E60"/>
<path d="M106.349 155.107C105.686 154.95 104.959 155.467 104.337 155.687C103.46 155.998 102.485 155.946 101.598 155.97C100.591 156.002 99.5852 156.03 98.5789 156.061C98.1352 156.075 97.6565 156.075 97.2197 156.229C96.8389 156.365 96.5244 156.592 96.2135 156.788C95.4168 157.295 94.5084 157.623 93.4882 157.693C92.9711 157.728 93.1038 157.2 93.6209 157.165C94.5573 157.102 95.2666 156.729 95.9724 156.281C96.2903 156.079 96.6362 155.873 97.0311 155.747C97.4888 155.6 97.9674 155.558 98.4356 155.541C99.4384 155.502 100.434 155.481 101.437 155.45C101.926 155.436 102.419 155.422 102.908 155.404C103.369 155.39 103.778 155.348 104.211 155.177C105.008 154.863 105.815 154.388 106.685 154.59C107.132 154.695 106.8 155.212 106.349 155.107Z" fill="#5E5E60"/>
<path d="M108.261 157.647C107.429 157.396 106.388 157.382 105.431 157.731C104.889 157.927 104.424 158.224 103.876 158.409C103.383 158.577 102.87 158.647 102.359 158.664C101.388 158.699 100.445 158.559 99.4559 158.842C98.5789 159.094 97.7963 159.52 96.9822 159.863C96.0423 160.257 95.0465 160.53 94.0507 160.411C93.5651 160.352 93.9005 159.835 94.3862 159.894C95.2282 159.995 96.0738 159.684 96.8459 159.349C97.6845 158.986 98.4881 158.573 99.4035 158.329C100.431 158.053 101.392 158.161 102.398 158.137C102.943 158.123 103.432 158.042 103.935 157.826C104.428 157.612 104.879 157.357 105.413 157.193C106.598 156.833 107.779 156.875 108.778 157.176C109.204 157.312 108.69 157.777 108.261 157.647Z" fill="#5E5E60"/>
<path d="M107.328 161.229C106.563 161.452 105.885 161.372 105.158 161.323C104.84 161.302 104.491 161.288 104.159 161.365C103.781 161.452 103.467 161.666 103.174 161.851C102.45 162.308 101.71 162.64 100.787 162.84C99.8787 163.035 98.9388 163.144 98.0269 163.22C96.9123 163.315 95.8082 163.332 94.7286 163.29C94.229 163.269 94.3582 162.742 94.8614 162.763C96.0528 162.812 97.2687 162.784 98.4986 162.661C99.5747 162.557 100.815 162.42 101.811 161.994C102.716 161.603 103.306 160.935 104.4 160.81C104.879 160.754 105.326 160.796 105.777 160.83C106.168 160.858 106.622 160.904 107.034 160.785C107.248 160.722 107.471 160.736 107.558 160.865C107.632 160.97 107.541 161.166 107.328 161.229Z" fill="#5E5E60"/>
<mask id="mask0_418:36" style="mask-type:alpha" maskUnits="userSpaceOnUse" x="55" y="32" width="207" height="207">
<path d="M174.836 237.218C230.957 228.39 269.295 175.737 260.466 119.616C251.637 63.4952 198.984 25.1573 142.863 33.9862C86.7424 42.8152 48.4046 95.4675 57.2335 151.589C66.0624 207.71 118.715 246.047 174.836 237.218Z" fill="#F1B299"/>
</mask>
<g mask="url(#mask0_418:36)">
<path d="M171.443 87.9899C170.749 82.4666 175.21 77.5618 180.771 77.9179C185.388 78.2116 190.949 80.4172 196.073 87.3151C207.763 103.048 205.907 101.848 216.223 109.634C226.539 117.419 224.539 125.904 236.573 135.707C246.852 144.086 253.243 150.953 247.17 154.92C244.79 156.482 243.415 159.194 243.353 162.043C243.278 165.28 242.528 169.141 239.691 171.009C236.786 172.921 235.118 176.214 235.567 179.657C236.273 185.036 234.624 190.235 222.577 184.037C221.403 183.43 212.574 185.036 209.856 184.674C209.419 184.618 200.397 187.198 199.959 187.179L191.399 186.861C187.007 186.698 183.377 183.374 182.833 179.013L171.443 87.9899Z" fill="black"/>
<path d="M124.688 85.7217C124.688 85.7217 109.048 88.5146 106.018 107.703C102.988 126.891 104.087 122.355 95.5024 132.127C86.9175 141.899 108.567 153.283 101.744 163.055C98.2641 168.047 108.436 173.614 108.105 178.319C107.518 186.598 119.483 186.217 125.275 188.498C129.23 190.053 165.95 176.376 168.3 183.412C172.967 197.37 191.418 180.869 191.418 180.869C191.418 180.869 200.203 182.656 209.862 173.24C219.522 163.817 146.269 80.1421 146.269 80.1421L124.688 85.7217Z" fill="black"/>
<path d="M173.654 80.3234C173.654 80.3234 167.7 65.7527 146.244 65.7527C124.788 65.7527 118.146 88.1086 118.146 88.1086L149.362 106.178L173.654 80.3234Z" fill="black"/>
<path d="M129.211 132.096C131.342 136.857 131.161 144.548 126.643 146.248C122.126 147.947 116.727 141.811 114.597 137.05C112.466 132.289 113.766 128.147 118.289 126.447C122.807 124.742 127.081 127.335 129.211 132.096Z" fill="#CA927B"/>
<path d="M118.146 132.17C118.146 132.17 123.675 130.702 125.744 138.212" stroke="#995342" stroke-width="0.4819" stroke-miterlimit="10" stroke-linecap="round" stroke-linejoin="round"/>
<path d="M186.626 132.096C184.495 136.857 184.676 144.548 189.194 146.248C193.711 147.947 199.109 141.811 201.24 137.05C203.371 132.289 202.071 128.147 197.547 126.447C193.03 124.742 188.756 127.335 186.626 132.096Z" fill="#CA927B"/>
<path d="M197.691 132.17C197.691 132.17 192.161 130.702 190.093 138.212" stroke="#995342" stroke-width="0.4819" stroke-miterlimit="10" stroke-linecap="round" stroke-linejoin="round"/>
<path d="M157.853 150.303C178.895 150.303 195.954 133.93 195.954 113.732C195.954 93.535 178.895 77.1619 157.853 77.1619C136.81 77.1619 119.751 93.535 119.751 113.732C119.751 133.93 136.81 150.303 157.853 150.303Z" fill="black"/>
<path d="M146.887 158.256L142.095 203.899H170.48L165.576 157.788L146.887 158.256Z" fill="#CA927B"/>
<path d="M146.244 166.317L168.3 183.412L165.894 160.456L146.244 166.317Z" fill="#995342"/>
<path d="M157.853 81.4419C140.239 81.4419 124.688 95.0629 124.688 111.87L125.7 132.039C125.7 132.039 126.062 160.631 153.204 169.335C156.209 170.297 159.496 170.297 162.501 169.335C189.643 160.637 190.006 132.039 190.006 132.039L191.018 111.87C191.024 95.0691 175.466 81.4419 157.853 81.4419Z" fill="#CA927B"/>
<path d="M155.953 136.532V141.212L159.396 141.249" stroke="#995342" stroke-width="0.4819" stroke-miterlimit="10" stroke-linecap="round" stroke-linejoin="round"/>
<path d="M150.492 129.671C150.492 129.671 148.205 123.867 142.62 123.598C137.034 123.329 133.697 127.765 133.697 127.765C133.697 127.765 135.116 132.695 141.889 133.02C148.662 133.351 150.492 129.671 150.492 129.671Z" fill="white"/>
<path d="M136.49 128.097C136.34 131.171 138.715 133.782 141.789 133.932C144.863 134.082 147.475 131.708 147.625 128.634C147.775 125.56 145.4 122.948 142.326 122.798C139.252 122.648 136.64 125.023 136.49 128.097Z" fill="black"/>
<path d="M150.492 129.671C150.492 129.671 148.393 123.654 142.62 123.598C136.846 123.542 133.697 127.765 133.697 127.765" stroke="black" stroke-width="0.3755" stroke-miterlimit="10" stroke-linecap="round" stroke-linejoin="round"/>
<path d="M164.938 129.671C164.938 129.671 167.225 123.867 172.811 123.598C178.397 123.329 181.733 127.765 181.733 127.765C181.733 127.765 180.315 132.695 173.542 133.02C166.762 133.351 164.938 129.671 164.938 129.671Z" fill="white"/>
<path d="M178.934 128.097C179.084 131.171 176.71 133.782 173.635 133.932C170.561 134.082 167.95 131.708 167.8 128.634C167.65 125.56 170.024 122.948 173.098 122.798C176.178 122.648 178.79 125.023 178.934 128.097Z" fill="black"/>
<path d="M164.938 129.671C164.938 129.671 167.037 123.654 172.811 123.598C178.584 123.542 181.733 127.765 181.733 127.765" stroke="black" stroke-width="0.3755" stroke-miterlimit="10" stroke-linecap="round" stroke-linejoin="round"/>
<path d="M140.17 106.284C140.17 106.284 134.535 107.009 131.798 108.715C130.117 109.765 130.161 111.702 132.192 112.376C134.06 113.001 138.071 112.589 140.458 112.32C146.3 111.658 150.18 109.484 149.805 107.678C149.318 105.353 143.245 105.728 140.17 106.284Z" fill="black"/>
<path d="M174.379 106.284C174.379 106.284 180.015 107.009 182.752 108.715C184.432 109.765 184.389 111.702 182.358 112.376C180.49 113.001 176.478 112.589 174.092 112.32C168.25 111.658 164.37 109.484 164.744 107.678C165.226 105.353 171.305 105.728 174.379 106.284Z" fill="black"/>
<path d="M148.118 146.891C148.118 146.891 149.099 154.039 156.747 154.039C164.326 154.039 165.376 146.891 165.376 146.891H148.118Z" fill="#DE5A62"/>
<path d="M165.376 146.891C165.376 146.891 157.678 143.286 148.118 146.891C148.118 146.891 157.578 149.728 165.376 146.891Z" fill="#DE5A62"/>
<path d="M148.118 146.841H165.376C165.376 146.841 164.788 151.94 156.747 151.94C149.618 151.94 148.118 146.841 148.118 146.841Z" fill="white"/>
<path d="M173.654 80.3234C173.654 80.3234 172.224 96.2687 155.603 98.7929C138.658 101.373 142.326 112.076 121.745 109.508C121.745 109.508 114.303 97.8619 125.337 85.8342C132.635 77.8741 146.9 71.2386 157.116 72.3507C160.558 72.7256 168.712 79.2487 173.654 80.3234Z" fill="black"/>
<path d="M171.68 82.2979C171.68 82.2979 164.332 92.926 195.954 113.732C195.954 113.732 201.109 106.403 197.685 99.7052C194.273 93.0134 171.68 82.2979 171.68 82.2979Z" fill="black"/>
<path d="M233.337 234.165C231.525 225.342 225.445 218.494 217.691 215.326C217.21 215.033 216.698 214.77 216.148 214.577L155.972 192.639L101.132 214.827C100.264 215.127 99.4201 215.47 98.5891 215.858L98.5079 215.889C98.4704 215.908 98.4329 215.933 98.3954 215.945C91.2913 219.332 85.7929 225.861 84.0872 234.165L83 239.444H234.424L233.337 234.165Z" fill="white"/>
<path d="M116.215 208.717L155.972 192.634L198.553 208.161C198.553 208.161 196.041 227.442 157.259 227.442C118.464 227.442 116.215 208.717 116.215 208.717Z" fill="#CA927B"/>
</g>
</svg>
