<svg width="478" height="445" viewBox="0 0 478 445" fill="none" xmlns="http://www.w3.org/2000/svg">
<g clip-path="url(#clip0)">
<path d="M455.53 0H330.02V130.83H455.53V0Z" fill="#E0E0E0"/>
<path d="M447.03 0H321.52V130.83H447.03V0Z" fill="#EBEBEB"/>
<path d="M430.151 17.59H338.391V113.24H430.151V17.59Z" fill="#FAFAFA"/>
<path d="M338.391 113.88C337.717 114.821 336.949 115.693 336.101 116.48C334.631 118.02 332.561 120.1 330.261 122.38C327.961 124.66 325.831 126.69 324.261 128.13C323.467 128.965 322.589 129.716 321.641 130.37C322.311 129.432 323.075 128.564 323.921 127.78C325.401 126.24 327.461 124.15 329.781 121.87C332.101 119.59 334.221 117.56 335.781 116.11C336.573 115.281 337.448 114.533 338.391 113.88Z" fill="#E0E0E0"/>
<path d="M430.16 113.64C431.1 114.32 431.971 115.09 432.76 115.94C434.3 117.41 436.38 119.47 438.66 121.78C440.94 124.09 442.96 126.21 444.41 127.78C445.248 128.571 445.999 129.449 446.65 130.4C445.712 129.73 444.844 128.966 444.06 128.12C442.52 126.64 440.43 124.57 438.15 122.26C435.87 119.95 433.83 117.82 432.39 116.26C431.553 115.472 430.805 114.593 430.16 113.64Z" fill="#E0E0E0"/>
<path d="M429.91 17.84C430.59 16.8975 431.364 16.0264 432.22 15.24C433.69 13.71 435.76 11.62 438.06 9.33998C440.36 7.05998 442.49 5.03998 444.06 3.58998C444.854 2.75504 445.732 2.00438 446.68 1.34998C446.01 2.2884 445.246 3.15621 444.4 3.93998C442.92 5.47998 440.86 7.56998 438.54 9.84998C436.22 12.13 434.1 14.17 432.54 15.61C431.745 16.444 430.863 17.1915 429.91 17.84Z" fill="#E0E0E0"/>
<path d="M338.14 18.08C337.202 17.402 336.331 16.6352 335.54 15.79C334.01 14.31 331.92 12.25 329.64 9.94C327.36 7.63 325.34 5.51 323.89 3.94C323.054 3.14428 322.303 2.26276 321.65 1.31C322.581 1.99333 323.442 2.7671 324.22 3.62C325.76 5.09 327.85 7.16 330.13 9.47C332.41 11.78 334.45 13.91 335.89 15.47C336.733 16.2555 337.488 17.1307 338.14 18.08Z" fill="#E0E0E0"/>
<path d="M429.91 113.24C429.901 113.087 429.901 112.933 429.91 112.78C429.91 112.46 429.91 112.02 429.91 111.45C429.91 110.26 429.91 108.53 429.91 106.29C429.91 101.77 429.86 95.18 429.83 86.8C429.83 70.05 429.74 46.18 429.68 17.59L429.98 17.89H338.47L338.82 17.55C338.82 52.66 338.82 85.55 338.82 113.2L338.52 112.91L404.8 113.06L423.41 113.14H428.33H429.6H430.04H429.63H428.39H423.53L404.99 113.22L338.52 113.37H338.23V113.07C338.23 85.37 338.23 52.53 338.18 17.42V17.24H338.53H430.04H430.34V17.54C430.27 46.21 430.22 70.15 430.18 86.94C430.18 95.29 430.12 101.86 430.11 106.36C430.11 108.58 430.11 110.29 430.11 111.47C430.11 112.02 430.11 112.47 430.11 112.76C430.11 113.05 429.91 113.24 429.91 113.24Z" fill="#E0E0E0"/>
<path d="M364.42 56.14H369.35C369.35 56.14 373.01 43.46 382.59 45.57C392.17 47.68 393.16 56.14 392.46 60.37C392.373 60.5958 392.342 60.8397 392.372 61.08C392.401 61.3204 392.49 61.5497 392.629 61.7475C392.769 61.9454 392.955 62.1058 393.172 62.2144C393.388 62.323 393.628 62.3765 393.87 62.37C395.87 62.65 410.64 62.37 410.64 62.37C410.64 62.37 414.86 87.45 387.53 85.37C360.2 83.29 369.77 65.08 371.04 63.25C372.31 61.42 364.42 56.14 364.42 56.14Z" fill="#EBEBEB"/>
<path d="M397.101 69.82C394.241 71.69 390.561 71.82 387.191 71.25C385.401 70.93 383.531 70.44 381.791 71C380.788 71.3527 379.931 72.0281 379.354 72.9203C378.777 73.8125 378.512 74.8711 378.601 75.93L378.891 76.66C380.032 78.7257 381.879 80.3118 384.093 81.1285C386.308 81.9451 388.742 81.9379 390.951 81.108C393.161 80.2781 394.998 78.681 396.127 76.6085C397.256 74.536 397.602 72.1264 397.101 69.82Z" fill="#E0E0E0"/>
<path d="M375.86 55.78C375.862 55.941 375.816 56.099 375.728 56.2337C375.64 56.3684 375.513 56.4738 375.365 56.5363C375.216 56.5989 375.053 56.6158 374.895 56.5848C374.737 56.5539 374.591 56.4766 374.477 56.3627C374.364 56.2488 374.286 56.1036 374.255 55.9455C374.224 55.7875 374.241 55.6238 374.304 55.4754C374.366 55.327 374.472 55.2006 374.606 55.1123C374.741 55.0241 374.899 54.978 375.06 54.98C375.272 54.98 375.476 55.0643 375.626 55.2143C375.776 55.3643 375.86 55.5678 375.86 55.78Z" fill="#E0E0E0"/>
<path d="M25.94 313.73H0V339.67H25.94V313.73Z" fill="#EBEBEB"/>
<path d="M56.0103 313.73H30.0703V339.67H56.0103V313.73Z" fill="#EBEBEB"/>
<path d="M86.0806 313.73H60.1406V339.67H86.0806V313.73Z" fill="#EBEBEB"/>
<path d="M116.151 313.73H90.2109V339.67H116.151V313.73Z" fill="#EBEBEB"/>
<path d="M146.219 313.73H120.279V339.67H146.219V313.73Z" fill="#EBEBEB"/>
<path d="M176.29 313.73H150.35V339.67H176.29V313.73Z" fill="#EBEBEB"/>
<path d="M206.37 313.73H180.43V339.67H206.37V313.73Z" fill="#EBEBEB"/>
<path d="M236.44 313.73H210.5V339.67H236.44V313.73Z" fill="#EBEBEB"/>
<path d="M266.51 313.73H240.57V339.67H266.51V313.73Z" fill="#EBEBEB"/>
<path d="M296.581 313.73H270.641V339.67H296.581V313.73Z" fill="#EBEBEB"/>
<path d="M326.651 313.73H300.711V339.67H326.651V313.73Z" fill="#EBEBEB"/>
<path d="M356.719 313.73H330.779V339.67H356.719V313.73Z" fill="#EBEBEB"/>
<path d="M386.79 313.73H360.85V339.67H386.79V313.73Z" fill="#EBEBEB"/>
<path d="M416.86 313.73H390.92V339.67H416.86V313.73Z" fill="#EBEBEB"/>
<path d="M446.93 313.73H420.99V339.67H446.93V313.73Z" fill="#EBEBEB"/>
<path d="M477.001 313.73H451.061V339.67H477.001V313.73Z" fill="#EBEBEB"/>
<path d="M25.94 343.02H0V368.96H25.94V343.02Z" fill="#EBEBEB"/>
<path d="M56.0103 343.02H30.0703V368.96H56.0103V343.02Z" fill="#EBEBEB"/>
<path d="M86.0806 343.02H60.1406V368.96H86.0806V343.02Z" fill="#EBEBEB"/>
<path d="M116.151 343.02H90.2109V368.96H116.151V343.02Z" fill="#EBEBEB"/>
<path d="M146.219 343.02H120.279V368.96H146.219V343.02Z" fill="#EBEBEB"/>
<path d="M176.29 343.02H150.35V368.96H176.29V343.02Z" fill="#EBEBEB"/>
<path d="M206.37 343.02H180.43V368.96H206.37V343.02Z" fill="#EBEBEB"/>
<path d="M236.44 343.02H210.5V368.96H236.44V343.02Z" fill="#EBEBEB"/>
<path d="M266.51 343.02H240.57V368.96H266.51V343.02Z" fill="#EBEBEB"/>
<path d="M296.581 343.02H270.641V368.96H296.581V343.02Z" fill="#EBEBEB"/>
<path d="M326.651 343.02H300.711V368.96H326.651V343.02Z" fill="#EBEBEB"/>
<path d="M356.719 343.02H330.779V368.96H356.719V343.02Z" fill="#EBEBEB"/>
<path d="M386.79 343.02H360.85V368.96H386.79V343.02Z" fill="#EBEBEB"/>
<path d="M416.86 343.02H390.92V368.96H416.86V343.02Z" fill="#EBEBEB"/>
<path d="M446.93 343.02H420.99V368.96H446.93V343.02Z" fill="#EBEBEB"/>
<path d="M477.001 343.02H451.061V368.96H477.001V343.02Z" fill="#EBEBEB"/>
<path d="M25.94 372.31H0V398.25H25.94V372.31Z" fill="#EBEBEB"/>
<path d="M56.0103 372.31H30.0703V398.25H56.0103V372.31Z" fill="#EBEBEB"/>
<path d="M86.0806 372.31H60.1406V398.25H86.0806V372.31Z" fill="#EBEBEB"/>
<path d="M116.151 372.31H90.2109V398.25H116.151V372.31Z" fill="#EBEBEB"/>
<path d="M146.219 372.31H120.279V398.25H146.219V372.31Z" fill="#EBEBEB"/>
<path d="M176.29 372.31H150.35V398.25H176.29V372.31Z" fill="#EBEBEB"/>
<path d="M206.37 372.31H180.43V398.25H206.37V372.31Z" fill="#EBEBEB"/>
<path d="M236.44 372.31H210.5V398.25H236.44V372.31Z" fill="#EBEBEB"/>
<path d="M266.51 372.31H240.57V398.25H266.51V372.31Z" fill="#EBEBEB"/>
<path d="M296.581 372.31H270.641V398.25H296.581V372.31Z" fill="#EBEBEB"/>
<path d="M326.651 372.31H300.711V398.25H326.651V372.31Z" fill="#EBEBEB"/>
<path d="M356.719 372.31H330.779V398.25H356.719V372.31Z" fill="#EBEBEB"/>
<path d="M386.79 372.31H360.85V398.25H386.79V372.31Z" fill="#EBEBEB"/>
<path d="M416.86 372.31H390.92V398.25H416.86V372.31Z" fill="#EBEBEB"/>
<path d="M446.93 372.31H420.99V398.25H446.93V372.31Z" fill="#EBEBEB"/>
<path d="M477.001 372.31H451.061V398.25H477.001V372.31Z" fill="#EBEBEB"/>
<path d="M25.94 401.59H0V427.53H25.94V401.59Z" fill="#EBEBEB"/>
<path d="M56.0103 401.59H30.0703V427.53H56.0103V401.59Z" fill="#EBEBEB"/>
<path d="M86.0806 401.59H60.1406V427.53H86.0806V401.59Z" fill="#EBEBEB"/>
<path d="M116.151 401.59H90.2109V427.53H116.151V401.59Z" fill="#EBEBEB"/>
<path d="M146.219 401.59H120.279V427.53H146.219V401.59Z" fill="#EBEBEB"/>
<path d="M176.29 401.59H150.35V427.53H176.29V401.59Z" fill="#EBEBEB"/>
<path d="M206.37 401.59H180.43V427.53H206.37V401.59Z" fill="#EBEBEB"/>
<path d="M236.44 401.59H210.5V427.53H236.44V401.59Z" fill="#EBEBEB"/>
<path d="M266.51 401.59H240.57V427.53H266.51V401.59Z" fill="#EBEBEB"/>
<path d="M296.581 401.59H270.641V427.53H296.581V401.59Z" fill="#EBEBEB"/>
<path d="M326.651 401.59H300.711V427.53H326.651V401.59Z" fill="#EBEBEB"/>
<path d="M356.719 401.59H330.779V427.53H356.719V401.59Z" fill="#EBEBEB"/>
<path d="M386.79 401.59H360.85V427.53H386.79V401.59Z" fill="#EBEBEB"/>
<path d="M416.86 401.59H390.92V427.53H416.86V401.59Z" fill="#EBEBEB"/>
<path d="M446.93 401.59H420.99V427.53H446.93V401.59Z" fill="#EBEBEB"/>
<path d="M477.001 401.59H451.061V427.53H477.001V401.59Z" fill="#EBEBEB"/>
<path d="M444.719 247.784C449.879 244.225 451.176 237.157 447.617 231.997C444.057 226.837 436.989 225.54 431.829 229.099C426.669 232.659 425.372 239.727 428.931 244.887C432.491 250.047 439.559 251.344 444.719 247.784Z" fill="#F5F5F5"/>
<path d="M428.529 152.64C428.274 151.547 427.748 150.536 426.999 149.7C425.251 147.881 423.11 146.485 420.739 145.62C417.279 144.38 406.419 140.09 403.439 138.9C403.243 138.835 403.029 138.849 402.843 138.939C402.656 139.028 402.512 139.186 402.439 139.38L402.359 139.59C402.284 139.77 402.277 139.973 402.342 140.157C402.407 140.342 402.538 140.496 402.709 140.59L420.099 150.89C420.264 150.99 420.388 151.146 420.446 151.33C420.505 151.514 420.496 151.713 420.419 151.89L420.009 152.74C419.966 152.835 419.905 152.92 419.829 152.991C419.753 153.062 419.663 153.117 419.566 153.153C419.468 153.189 419.364 153.206 419.26 153.202C419.156 153.198 419.054 153.174 418.959 153.13L400.959 145.13C400.782 145.056 400.584 145.047 400.401 145.106C400.217 145.165 400.061 145.287 399.959 145.45L399.709 145.86C399.654 145.952 399.619 146.054 399.604 146.161C399.589 146.267 399.596 146.375 399.624 146.479C399.652 146.582 399.701 146.679 399.767 146.763C399.833 146.848 399.916 146.918 400.009 146.97L417.449 156.73C417.61 156.817 417.736 156.958 417.803 157.128C417.871 157.298 417.877 157.486 417.819 157.66L417.679 158.11C417.646 158.217 417.591 158.316 417.517 158.401C417.444 158.486 417.353 158.554 417.251 158.601C417.149 158.648 417.038 158.673 416.926 158.675C416.814 158.676 416.703 158.654 416.599 158.61L399.099 150.83C398.999 150.785 398.89 150.761 398.78 150.76C398.67 150.759 398.56 150.781 398.459 150.824C398.358 150.867 398.266 150.931 398.191 151.011C398.115 151.091 398.057 151.186 398.019 151.29L397.959 151.45C397.884 151.632 397.88 151.835 397.946 152.02C398.013 152.204 398.146 152.358 398.319 152.45L415.729 162.14C415.903 162.232 416.037 162.385 416.105 162.569C416.174 162.754 416.172 162.957 416.099 163.14L415.899 163.72C415.864 163.824 415.808 163.92 415.734 164.002C415.66 164.083 415.57 164.148 415.469 164.193C415.369 164.238 415.26 164.262 415.15 164.263C415.04 164.265 414.931 164.243 414.829 164.2L396.639 156.52C396.446 156.436 396.227 156.432 396.03 156.509C395.833 156.585 395.675 156.737 395.589 156.93L395.439 157.29C395.366 157.471 395.361 157.672 395.425 157.856C395.49 158.04 395.619 158.195 395.789 158.29L413.449 167.63C413.635 167.726 413.774 167.891 413.838 168.09C413.902 168.288 413.884 168.504 413.789 168.69L413.389 169.5C413.297 169.674 413.145 169.809 412.961 169.879C412.777 169.948 412.574 169.949 412.389 169.88L394.339 161.88C394.242 161.836 394.137 161.812 394.03 161.81C393.923 161.808 393.816 161.828 393.717 161.868C393.618 161.908 393.528 161.968 393.453 162.044C393.378 162.12 393.319 162.21 393.279 162.31C393.206 162.491 393.201 162.692 393.265 162.876C393.33 163.06 393.459 163.215 393.629 163.31L411.359 173.31C411.542 173.411 411.677 173.58 411.737 173.78C411.797 173.98 411.776 174.195 411.679 174.38L411.329 175.06C411.233 175.229 411.079 175.358 410.896 175.424C410.712 175.49 410.512 175.488 410.329 175.42L391.949 167.11C391.847 167.064 391.736 167.039 391.624 167.039C391.511 167.038 391.4 167.061 391.297 167.107C391.195 167.152 391.102 167.218 391.027 167.302C390.951 167.385 390.894 167.483 390.859 167.59C390.801 167.764 390.805 167.953 390.87 168.125C390.936 168.296 391.06 168.44 391.219 168.53L408.659 178.59C408.841 178.695 408.974 178.866 409.032 179.067C409.09 179.269 409.067 179.485 408.969 179.67L408.579 180.37C408.484 180.54 408.329 180.669 408.145 180.732C407.96 180.794 407.759 180.787 407.579 180.71L389.689 172.14C389.503 172.052 389.29 172.039 389.094 172.104C388.899 172.169 388.736 172.308 388.639 172.49L388.489 172.77C388.392 172.954 388.37 173.168 388.428 173.368C388.485 173.568 388.619 173.737 388.799 173.84L405.909 183.75C406.088 183.855 406.22 184.024 406.278 184.223C406.335 184.422 406.314 184.636 406.219 184.82L406.059 185.12C405.964 185.29 405.81 185.42 405.626 185.484C405.442 185.549 405.24 185.544 405.059 185.47L386.889 177.33C386.785 177.284 386.672 177.261 386.558 177.263C386.444 177.264 386.332 177.29 386.229 177.338C386.126 177.386 386.034 177.456 385.96 177.543C385.886 177.629 385.831 177.731 385.799 177.84L385.619 178.42C385.567 178.595 385.576 178.783 385.645 178.952C385.714 179.121 385.839 179.262 385.999 179.35L403.469 189C403.654 189.1 403.791 189.268 403.853 189.468C403.915 189.668 403.895 189.884 403.799 190.07L403.499 190.65C403.403 190.832 403.241 190.971 403.046 191.038C402.851 191.105 402.637 191.095 402.449 191.01L384.369 182.68C384.273 182.634 384.168 182.608 384.06 182.604C383.953 182.599 383.847 182.617 383.746 182.655C383.646 182.694 383.555 182.752 383.478 182.827C383.401 182.901 383.341 182.991 383.299 183.09L383.189 183.35C383.113 183.529 383.105 183.731 383.168 183.915C383.231 184.1 383.359 184.255 383.529 184.35L400.729 194.14C400.913 194.243 401.048 194.414 401.106 194.616C401.164 194.819 401.14 195.035 401.039 195.22L400.699 195.84C400.603 196.009 400.448 196.137 400.265 196.201C400.081 196.265 399.88 196.261 399.699 196.19L381.809 187.85C381.707 187.802 381.595 187.776 381.481 187.775C381.368 187.774 381.255 187.796 381.151 187.842C381.047 187.887 380.954 187.954 380.878 188.038C380.802 188.122 380.744 188.222 380.709 188.33L380.589 188.7C380.534 188.876 380.542 189.067 380.612 189.238C380.681 189.409 380.807 189.551 380.969 189.64L397.969 199.09C398.062 199.141 398.143 199.21 398.208 199.292C398.273 199.375 398.322 199.469 398.351 199.571C398.38 199.672 398.388 199.778 398.376 199.882C398.364 199.987 398.331 200.088 398.279 200.18L398.099 200.51C398.001 200.677 397.846 200.803 397.663 200.865C397.479 200.928 397.279 200.922 397.099 200.85L378.999 192.85C378.804 192.768 378.585 192.765 378.387 192.842C378.189 192.918 378.029 193.068 377.939 193.26L377.749 193.69C377.677 193.872 377.673 194.074 377.739 194.258C377.806 194.443 377.937 194.596 378.109 194.69L395.239 203.69C395.427 203.792 395.567 203.963 395.628 204.167C395.69 204.371 395.669 204.591 395.569 204.78L395.369 205.14C395.277 205.314 395.124 205.447 394.939 205.513C394.754 205.58 394.551 205.575 394.369 205.5L376.949 198.14C376.77 198.065 376.569 198.059 376.385 198.121C376.201 198.184 376.046 198.311 375.949 198.48L375.479 199.29C375.426 199.385 375.392 199.489 375.381 199.597C375.369 199.705 375.379 199.814 375.411 199.918C375.443 200.022 375.495 200.118 375.566 200.201C375.636 200.284 375.722 200.352 375.819 200.4L392.379 208.74C392.475 208.787 392.56 208.854 392.629 208.935C392.698 209.016 392.751 209.11 392.782 209.212C392.814 209.314 392.825 209.421 392.814 209.528C392.803 209.634 392.771 209.737 392.719 209.83L392.479 210.27C392.387 210.444 392.234 210.577 392.049 210.643C391.864 210.71 391.661 210.705 391.479 210.63L373.369 203.08C373.227 203.018 373.068 203 372.915 203.028C372.762 203.057 372.62 203.13 372.509 203.24C372.341 203.359 372.201 203.514 372.099 203.694C371.998 203.873 371.938 204.073 371.924 204.279C371.909 204.485 371.941 204.692 372.016 204.884C372.092 205.076 372.209 205.249 372.359 205.39C373.629 206.78 380.689 208.86 382.219 217.58C383.749 226.3 376.359 236.32 374.119 239.87C371.879 243.42 363.229 255.17 360.119 259.22C358.253 261.572 356.218 263.785 354.029 265.84C353.138 266.675 352.422 267.68 351.923 268.795C351.424 269.91 351.153 271.114 351.124 272.335C351.095 273.556 351.309 274.771 351.755 275.909C352.201 277.046 352.869 278.083 353.719 278.96C354.126 279.369 354.579 279.728 355.069 280.03C358.929 282.41 365.269 284.75 370.999 281.19C376.729 277.63 378.999 270.93 381.999 264.44C384.999 257.95 392.999 237.39 392.999 237.39C392.999 237.39 401.049 218.6 403.299 215.34C405.549 212.08 414.799 193.03 417.639 187.55C420.239 182.55 425.969 168.35 427.019 165.84C428.079 163.06 429.709 157.87 428.529 152.64Z" fill="#E0E0E0"/>
<path d="M85.5806 34.2C84.2752 32.5946 82.4682 31.4745 80.4498 31.0193C78.4314 30.5641 76.3186 30.8003 74.4506 31.69C75.7906 27.25 72.5506 22.16 68.0606 20.97C63.5706 19.78 58.5706 22.14 56.1406 26.14C55.1302 27.8961 54.4972 29.8436 54.2819 31.8582C54.0667 33.8727 54.274 35.91 54.8906 37.84C53.4065 39.0025 52.2461 40.5269 51.5207 42.2669C50.7954 44.0069 50.5294 45.9042 50.7482 47.7766C50.9671 49.649 51.6635 51.4337 52.7706 52.9596C53.8777 54.4854 55.3584 55.7011 57.0706 56.49C63.8006 59.49 72.7806 54.67 73.9206 47.38C75.7125 48.4545 77.8239 48.8681 79.8888 48.5493C81.9538 48.2305 83.8421 47.1993 85.2265 45.6344C86.6109 44.0695 87.4042 42.0695 87.4689 39.9811C87.5336 37.8927 86.8655 35.8475 85.5806 34.2Z" fill="#F5F5F5"/>
<path d="M281.44 28.84C281.674 27.4223 281.425 25.9668 280.732 24.7079C280.039 23.449 278.943 22.46 277.62 21.9C280.55 20.56 281.71 16.54 280.27 13.66C279.478 12.2506 278.266 11.1233 276.804 10.435C275.341 9.7467 273.7 9.53172 272.11 9.82C270.734 10.1013 269.432 10.6663 268.287 11.479C267.142 12.2917 266.179 13.3342 265.46 14.54C264.172 14.298 262.845 14.3919 261.605 14.8124C260.364 15.233 259.253 15.9661 258.379 16.941C257.505 17.9159 256.896 19.0997 256.613 20.3782C256.329 21.6567 256.38 22.9868 256.76 24.24C258.27 29.14 264.92 31.58 269.23 28.82C269.506 30.2364 270.266 31.5126 271.38 32.4302C272.493 33.3477 273.891 33.8495 275.335 33.8495C276.778 33.8495 278.176 33.3477 279.289 32.4302C280.403 31.5126 281.163 30.2364 281.44 28.82V28.84Z" fill="#F5F5F5"/>
<path d="M111.941 166.32C110.737 167.302 109.897 168.659 109.556 170.175C109.215 171.691 109.393 173.277 110.061 174.68C106.731 173.68 102.911 176.1 102.061 179.46C101.682 181.175 101.851 182.966 102.543 184.581C103.236 186.195 104.417 187.552 105.921 188.46C107.237 189.217 108.697 189.69 110.207 189.851C111.718 190.011 113.245 189.854 114.691 189.39C115.558 190.511 116.701 191.389 118.008 191.939C119.315 192.489 120.742 192.692 122.151 192.528C123.559 192.364 124.901 191.838 126.047 191.003C127.193 190.168 128.104 189.051 128.691 187.76C130.971 182.76 127.331 175.97 121.861 175.12C122.665 173.778 122.975 172.196 122.737 170.649C122.499 169.102 121.728 167.688 120.556 166.649C119.385 165.611 117.888 165.015 116.324 164.964C114.76 164.913 113.227 165.41 111.991 166.37L111.941 166.32Z" fill="#F5F5F5"/>
<path d="M149.95 33.71C154.015 33.71 157.31 30.4148 157.31 26.35C157.31 22.2852 154.015 18.99 149.95 18.99C145.885 18.99 142.59 22.2852 142.59 26.35C142.59 30.4148 145.885 33.71 149.95 33.71Z" fill="#F5F5F5"/>
<path d="M461.01 444.01C461.01 444.15 358.57 444.27 232.23 444.27C105.89 444.27 3.42969 444.15 3.42969 444.01C3.42969 443.87 105.85 443.75 232.23 443.75C358.61 443.75 461.01 443.87 461.01 444.01Z" fill="#263238"/>
<path d="M411.44 297.6H399.15V314.23H411.44V297.6Z" fill="#E0E0E0"/>
<path d="M411.45 314.23C411.407 313.811 411.387 313.391 411.39 312.97C411.39 312.1 411.39 310.97 411.33 309.53C411.33 306.53 411.26 302.44 411.21 297.6L411.45 297.83H399.15C399.1 297.83 399.65 297.34 399.41 297.57V302.14C399.41 303.62 399.41 305.07 399.41 306.47C399.41 309.26 399.41 311.86 399.41 314.21L399.19 314L408.07 314.11L410.57 314.16C411.15 314.16 411.47 314.16 411.49 314.16C411.215 314.2 410.938 314.216 410.66 314.21L408.2 314.26L399.2 314.37H398.99V314.15C398.99 311.8 398.99 309.2 398.99 306.41C398.99 305.01 398.99 303.56 398.99 302.08C398.99 301.33 398.99 300.58 398.99 299.82V297.53L399.25 297.27H411.55H411.79V297.51C411.79 302.42 411.71 306.58 411.68 309.6C411.68 311 411.63 312.13 411.61 312.98C411.584 313.4 411.53 313.817 411.45 314.23Z" fill="#263238"/>
<path d="M405.301 352.13C416.855 352.13 426.221 342.764 426.221 331.21C426.221 319.656 416.855 310.29 405.301 310.29C393.747 310.29 384.381 319.656 384.381 331.21C384.381 342.764 393.747 352.13 405.301 352.13Z" fill="#E0E0E0"/>
<path d="M426.222 331.21C426.19 331.099 426.173 330.985 426.172 330.87L426.102 329.87C426.082 329.332 426.018 328.797 425.912 328.27C425.818 327.543 425.667 326.824 425.462 326.12C424.971 324.171 424.189 322.306 423.142 320.59C421.763 318.315 419.964 316.323 417.842 314.72C415.278 312.768 412.291 311.449 409.122 310.87C405.485 310.199 401.736 310.514 398.262 311.78C397.336 312.116 396.434 312.514 395.562 312.97C394.681 313.453 393.836 313.998 393.032 314.6C392.208 315.214 391.427 315.882 390.692 316.6C389.97 317.352 389.302 318.154 388.692 319C387.409 320.726 386.413 322.647 385.742 324.69C384.324 328.907 384.324 333.473 385.742 337.69C386.413 339.733 387.409 341.654 388.692 343.38C389.304 344.223 389.973 345.025 390.692 345.78C391.43 346.498 392.215 347.166 393.042 347.78C393.843 348.386 394.689 348.931 395.572 349.41C396.444 349.866 397.346 350.264 398.272 350.6C401.522 351.787 405.019 352.139 408.441 351.626C411.863 351.112 415.102 349.748 417.862 347.66C419.98 346.055 421.774 344.063 423.152 341.79C424.197 340.072 424.982 338.208 425.482 336.26C425.68 335.555 425.827 334.836 425.922 334.11C426.028 333.583 426.092 333.048 426.112 332.51C426.112 332.1 426.162 331.77 426.182 331.51C426.184 331.395 426.201 331.281 426.232 331.17C426.242 331.283 426.242 331.397 426.232 331.51C426.232 331.76 426.232 332.09 426.232 332.51C426.232 333.05 426.185 333.588 426.092 334.12C426.017 334.856 425.883 335.585 425.692 336.3C425.226 338.281 424.46 340.18 423.422 341.93C420.936 346.168 417.044 349.401 412.421 351.065C407.798 352.73 402.738 352.721 398.122 351.04C397.175 350.701 396.252 350.297 395.362 349.83C394.456 349.341 393.587 348.786 392.762 348.17C391.919 347.556 391.118 346.888 390.362 346.17C389.61 345.401 388.915 344.579 388.282 343.71C386.971 341.943 385.958 339.974 385.282 337.88C384.577 335.722 384.206 333.47 384.182 331.2C384.211 328.931 384.581 326.679 385.282 324.52C385.962 322.428 386.975 320.459 388.282 318.69C388.915 317.825 389.611 317.006 390.362 316.24C391.115 315.52 391.917 314.851 392.762 314.24C393.587 313.624 394.456 313.069 395.362 312.58C396.252 312.113 397.175 311.709 398.122 311.37C402.739 309.701 407.795 309.698 412.415 311.361C417.035 313.025 420.928 316.25 423.422 320.48C424.459 322.231 425.224 324.129 425.692 326.11C425.883 326.825 426.017 327.554 426.092 328.29C426.185 328.822 426.232 329.36 426.232 329.9C426.232 330.32 426.232 330.65 426.232 330.9C426.238 331.003 426.234 331.107 426.222 331.21Z" fill="#263238"/>
<path d="M426.071 439.92C410.731 443.72 396.691 444.21 384.531 439.92V332.37H426.071V439.92Z" fill="#FF3E79"/>
<path d="M411.09 307.39C411.09 307.45 410.55 307.46 409.85 307.01C409.389 306.714 409.01 306.305 408.749 305.822C408.489 305.338 408.356 304.797 408.362 304.248C408.368 303.7 408.513 303.162 408.784 302.684C409.055 302.207 409.442 301.806 409.91 301.52C410.62 301.08 411.16 301.11 411.16 301.16C411.16 301.21 410.7 301.35 410.16 301.82C409.778 302.101 409.466 302.466 409.249 302.888C409.032 303.309 408.916 303.776 408.91 304.25C408.905 304.724 409.009 305.193 409.216 305.62C409.422 306.047 409.725 306.42 410.1 306.71C410.63 307.19 411.11 307.31 411.09 307.39Z" fill="#263238"/>
<path d="M423.331 328.66C423.241 328.66 423.231 327.77 422.981 326.38C422.327 322.739 420.476 319.42 417.721 316.95C416.671 316.01 415.921 315.53 415.971 315.46C416.707 315.736 417.385 316.146 417.971 316.67C420.953 319.067 422.883 322.533 423.351 326.33C423.482 327.102 423.475 327.891 423.331 328.66Z" fill="white"/>
<path d="M398.56 354.7V363.27H397.66V359.32H392.3V363.27H391.4V354.7H392.3V358.52H397.66V354.7H398.56Z" fill="white"/>
<path d="M406.71 360.98H401.94L400.94 363.27H400L403.92 354.7H404.81L408.73 363.27H407.73L406.71 360.98ZM406.38 360.25L404.33 355.65L402.27 360.25H406.38Z" fill="white"/>
<path d="M410.111 354.7H411.021V363.27H410.111V354.7Z" fill="white"/>
<path d="M419.651 363.27L417.701 360.52C417.471 360.52 417.251 360.52 417.011 360.52H414.711V363.24H413.801V354.67H417.011C419.191 354.67 420.511 355.78 420.511 357.61C420.539 358.22 420.355 358.821 419.99 359.311C419.626 359.802 419.103 360.151 418.511 360.3L420.601 363.24L419.651 363.27ZM419.601 357.64C419.601 356.27 418.701 355.49 416.991 355.49H414.711V359.78H416.991C418.701 359.78 419.601 358.99 419.601 357.64Z" fill="white"/>
<path d="M397.9 352.27L398.04 351.98C398.356 352.263 398.767 352.417 399.19 352.41C399.84 352.41 400.12 352.13 400.12 351.79C400.12 350.79 397.98 351.42 397.98 350.13C397.98 349.62 398.38 349.18 399.26 349.18C399.644 349.171 400.02 349.279 400.34 349.49L400.22 349.78C399.922 349.59 399.575 349.489 399.22 349.49C398.59 349.49 398.3 349.77 398.3 350.12C398.3 351.12 400.45 350.5 400.45 351.77C400.45 352.28 400.04 352.72 399.15 352.72C398.694 352.723 398.251 352.563 397.9 352.27Z" fill="white"/>
<path d="M404.011 350.4C404.011 351.14 403.481 351.59 402.591 351.59H401.661V352.69H401.291V349.21H402.591C403.481 349.21 404.011 349.65 404.011 350.4ZM403.651 350.4C403.651 349.84 403.281 349.53 402.581 349.53H401.661V351.27H402.581C403.281 351.27 403.651 350.95 403.651 350.4Z" fill="white"/>
<path d="M407.221 352.69L406.431 351.57H405.221V352.68H404.861V349.2H406.161C407.051 349.2 407.581 349.64 407.581 350.39C407.593 350.636 407.521 350.878 407.378 351.078C407.234 351.277 407.028 351.423 406.791 351.49L407.641 352.68L407.221 352.69ZM407.221 350.4C407.221 349.84 406.861 349.53 406.161 349.53H405.221V351.27H406.151C406.801 351.27 407.161 350.95 407.161 350.4H407.221Z" fill="white"/>
<path d="M410.58 351.76H408.64L408.23 352.69H407.84L409.44 349.21H409.8L411.39 352.69H411L410.58 351.76ZM410.45 351.46L409.62 349.59L408.78 351.46H410.45Z" fill="white"/>
<path d="M412.951 351.49V352.69H412.591V351.49L411.221 349.21H411.611L412.811 351.16L414.001 349.21H414.371L412.951 351.49Z" fill="white"/>
<path d="M426.071 363.27C426.047 363.477 425.993 363.679 425.911 363.87C425.734 364.436 425.506 364.985 425.231 365.51C424.184 367.434 422.833 369.176 421.231 370.67C418.909 372.925 416.316 374.884 413.511 376.5C410.351 378.37 406.511 379.67 402.671 381.26C398.987 382.596 395.499 384.423 392.301 386.69C389.732 388.594 387.649 391.078 386.221 393.94C385.265 395.871 384.717 397.978 384.611 400.13C384.611 401.65 384.721 402.49 384.611 402.5C384.546 402.303 384.505 402.098 384.491 401.89C384.408 401.304 384.365 400.712 384.361 400.12C384.395 397.925 384.899 395.763 385.841 393.78C387.251 390.834 389.35 388.272 391.961 386.31C395.18 383.993 398.703 382.132 402.431 380.78C406.311 379.18 410.101 377.9 413.221 376.08C416.005 374.505 418.591 372.601 420.921 370.41C422.516 368.952 423.888 367.267 424.991 365.41C425.275 364.9 425.526 364.372 425.741 363.83C425.836 363.635 425.946 363.447 426.071 363.27Z" fill="white"/>
<path d="M426.071 371.65C425.987 372.373 425.762 373.073 425.411 373.71C424.44 375.447 423.069 376.928 421.411 378.03C418.994 379.689 416.359 381.004 413.581 381.94C410.481 383.06 406.991 384 403.411 385.19C400.02 386.217 396.802 387.744 393.861 389.72C391.485 391.366 389.448 393.454 387.861 395.87C386.793 397.502 386.021 399.31 385.581 401.21C385.463 401.725 385.373 402.246 385.311 402.77C385.3 402.957 385.267 403.141 385.211 403.32C385.185 403.134 385.185 402.946 385.211 402.76C385.224 402.226 385.284 401.694 385.391 401.17C385.751 399.22 386.481 397.356 387.541 395.68C389.104 393.19 391.143 391.032 393.541 389.33C396.504 387.299 399.762 385.737 403.201 384.7C406.811 383.5 410.301 382.57 413.381 381.49C416.129 380.585 418.745 379.321 421.161 377.73C422.787 376.674 424.154 375.266 425.161 373.61C425.512 372.98 425.817 372.325 426.071 371.65Z" fill="white"/>
<path d="M419.491 417.41C419.479 417.21 419.479 417.01 419.491 416.81C419.491 416.38 419.491 415.81 419.491 415.12C419.491 413.63 419.431 411.53 419.391 408.92L419.561 409.09C413.051 409.15 403.051 409.18 391.871 409.18L392.131 408.92V413.24C392.131 414.66 392.131 416.05 392.131 417.39L391.881 417.14L411.601 417.26L417.421 417.33H419.001H419.571C419.402 417.356 419.23 417.356 419.061 417.33H417.541L411.781 417.4L391.881 417.52H391.631V417.26C391.631 415.92 391.631 414.53 391.631 413.11V408.94C392.151 408.42 391.781 408.8 391.891 408.68C403.071 408.68 413.071 408.68 419.581 408.78H419.751V408.94C419.751 411.59 419.681 413.72 419.661 415.24C419.661 415.92 419.661 416.47 419.661 416.89C419.617 417.067 419.56 417.241 419.491 417.41Z" fill="#263238"/>
<path d="M426.072 439.92C426.072 439.92 426.072 439.74 426.072 439.39C426.072 439.04 426.072 438.51 426.072 437.83C426.072 436.45 426.072 434.44 426.072 431.83C426.072 426.59 426.071 418.98 426.001 409.43C426.001 390.33 425.942 363.43 425.892 332.37L426.142 332.62H384.531L384.792 332.36V332.65C384.792 374.82 384.731 412.9 384.711 439.91L384.591 439.74C390.139 441.634 395.95 442.647 401.811 442.74C406.226 442.831 410.64 442.567 415.012 441.95C418.612 441.46 421.362 440.86 423.232 440.49L425.341 440.02L426.072 439.87L425.371 440.06L423.262 440.59C421.392 440.99 418.642 441.59 415.042 442.15C410.663 442.802 406.238 443.097 401.811 443.03C395.911 442.938 390.06 441.926 384.471 440.03H384.352V439.9C384.352 412.9 384.301 374.81 384.271 332.64V332.14H426.322V332.39C426.322 363.55 426.241 390.46 426.211 409.6C426.211 419.13 426.162 426.72 426.142 431.95C426.142 434.53 426.142 436.53 426.142 437.9C426.142 438.57 426.142 439.08 426.142 439.43C426.127 439.594 426.104 439.758 426.072 439.92Z" fill="#263238"/>
<path d="M425.672 439.38H385.122C383.868 439.38 382.852 440.396 382.852 441.65V441.74C382.852 442.994 383.868 444.01 385.122 444.01H425.672C426.925 444.01 427.942 442.994 427.942 441.74V441.65C427.942 440.396 426.925 439.38 425.672 439.38Z" fill="#E0E0E0"/>
<path d="M425.681 444.01C425.998 443.971 426.308 443.887 426.601 443.76C427.005 443.559 427.34 443.24 427.561 442.846C427.783 442.452 427.88 442 427.841 441.55C427.823 441.232 427.734 440.922 427.582 440.642C427.43 440.361 427.218 440.118 426.961 439.93C426.669 439.711 426.323 439.577 425.961 439.54C425.601 439.54 425.161 439.54 424.731 439.54H418.901L385.121 439.62C384.756 439.62 384.399 439.72 384.087 439.909C383.775 440.097 383.52 440.367 383.351 440.69C383.183 441.011 383.1 441.37 383.109 441.732C383.117 442.094 383.218 442.447 383.401 442.76C383.58 443.071 383.84 443.328 384.154 443.504C384.467 443.68 384.822 443.769 385.181 443.76H396.501L411.681 443.82L421.921 443.9L424.711 443.95H425.431H425.681H425.431H424.711L421.921 444L411.681 444.08L396.501 444.14H387.501H385.221C384.775 444.149 384.335 444.04 383.945 443.824C383.555 443.608 383.23 443.292 383.001 442.91C382.771 442.521 382.644 442.081 382.632 441.629C382.62 441.178 382.722 440.731 382.931 440.33C383.163 439.961 383.487 439.658 383.87 439.449C384.254 439.241 384.684 439.134 385.121 439.14L418.901 439.22H424.731C425.171 439.22 425.561 439.22 425.991 439.22C426.395 439.273 426.778 439.432 427.101 439.68C427.6 440.073 427.929 440.644 428.019 441.274C428.108 441.903 427.951 442.543 427.581 443.06C427.338 443.386 427.014 443.641 426.641 443.8C426.349 443.965 426.015 444.038 425.681 444.01Z" fill="#263238"/>
<path d="M426.071 332.37H384.381V288C384.38 287.363 384.504 286.732 384.746 286.143C384.989 285.554 385.345 285.019 385.794 284.568C386.244 284.116 386.778 283.758 387.366 283.513C387.954 283.268 388.584 283.141 389.221 283.14H421.221C422.505 283.14 423.736 283.65 424.643 284.558C425.551 285.465 426.061 286.696 426.061 287.98L426.071 332.37Z" fill="#F5F5F5"/>
<path d="M426.07 332.37C426.07 332.37 426.07 332.2 426.07 331.9C426.07 331.6 426.07 331.11 426.07 330.53C426.07 329.32 426.07 327.53 426.02 325.33C426.02 320.81 426.02 314.33 425.93 306.33C425.93 302.33 425.93 297.93 425.93 293.22C425.93 292.05 425.93 290.85 425.93 289.63C426.059 288.429 425.909 287.214 425.49 286.08C424.961 284.972 424.016 284.117 422.86 283.7C422.27 283.494 421.645 283.402 421.02 283.43H393.47C391.98 283.43 390.47 283.43 388.97 283.43C388.247 283.471 387.544 283.683 386.918 284.048C386.292 284.413 385.762 284.921 385.37 285.53C384.822 286.412 384.567 287.444 384.64 288.48V298.02C384.64 302.2 384.64 306.27 384.64 310.23C384.64 318.15 384.64 325.59 384.64 332.37L384.42 332.15L414.61 332.27L423.08 332.32H425.33H426.11C426.11 332.32 425.87 332.32 425.38 332.32H423.17L414.75 332.38L384.42 332.49H384.2V332.27C384.2 325.49 384.2 318.05 384.2 310.13V298.02C384.2 295.93 384.2 293.82 384.2 291.69V288.48C384.122 287.34 384.409 286.205 385.02 285.24C385.456 284.564 386.046 284.001 386.741 283.596C387.436 283.191 388.217 282.956 389.02 282.91C390.57 282.91 392.02 282.91 393.55 282.91H402.37H419.04H421.04C421.719 282.89 422.397 282.991 423.04 283.21C423.67 283.439 424.249 283.79 424.743 284.243C425.238 284.696 425.638 285.242 425.92 285.85C426.199 286.443 426.359 287.085 426.39 287.74C426.39 288.38 426.39 288.99 426.39 289.6C426.39 290.83 426.39 292.03 426.39 293.22C426.39 297.96 426.39 302.37 426.39 306.4C426.39 314.4 426.32 320.92 426.29 325.4C426.29 327.62 426.29 329.35 426.29 330.55C426.29 331.12 426.29 331.55 426.29 331.88C426.239 332.053 426.165 332.217 426.07 332.37Z" fill="#263238"/>
<path d="M388.531 330.69C388.381 330.69 388.271 321.54 388.271 310.26C388.271 298.98 388.381 289.82 388.531 289.82C388.681 289.82 388.792 298.97 388.792 310.26C388.792 321.55 388.671 330.69 388.531 330.69Z" fill="white"/>
<path d="M386.93 380.43C386.78 380.43 386.67 371.65 386.67 360.81C386.67 349.97 386.78 341.18 386.93 341.18C387.08 341.18 387.19 349.97 387.19 360.81C387.19 371.65 387.07 380.43 386.93 380.43Z" fill="white"/>
<path d="M385.891 433.46C385.751 433.46 385.631 427.83 385.631 420.89C385.631 413.95 385.751 408.32 385.891 408.32C386.031 408.32 386.151 413.95 386.151 420.89C386.151 427.83 386.041 433.46 385.891 433.46Z" fill="white"/>
<path d="M79.7012 90.22C79.8712 90.05 80.0612 89.89 80.2512 89.73L79.7012 90.22Z" fill="#F5F5F5"/>
<path d="M183.54 103.75C186.027 100.541 187.451 96.6364 187.613 92.5798C187.775 88.5232 186.666 84.5173 184.442 81.1209C182.218 77.7244 178.99 75.1067 175.207 73.633C171.424 72.1593 167.275 71.903 163.34 72.9C162.221 68.6588 159.758 64.8944 156.32 62.1708C152.881 59.4473 148.653 57.9113 144.268 57.7931C139.884 57.6748 135.579 58.9806 131.999 61.5149C128.418 64.0491 125.756 67.6752 124.41 71.85C113.7 68.11 100.54 75.02 97.53 85.96C91.64 84.16 84.4 82.77 80.27 88.46C77.76 90.76 77.86 93.92 78.16 96.68C74.68 97.21 71.23 96.26 67.75 96.79C68.0188 99.3184 69.2343 101.652 71.1522 103.321C73.0701 104.99 75.5486 105.872 78.09 105.79C76.75 110.41 75.86 115.47 77.61 119.94C79.36 124.41 84.68 127.79 89.09 125.88C88.41 131.88 88.59 138.1 91 143.61C93.41 149.12 98.38 153.78 104.35 154.53C110.32 155.28 116.87 151.26 117.81 145.32C119.63 152.1 123.76 158.45 129.81 161.96C135.86 165.47 143.99 165.73 149.81 161.75C155.63 157.77 158.2 149.36 154.81 143.19C157.223 144.068 159.81 144.361 162.357 144.044C164.905 143.727 167.342 142.81 169.466 141.368C171.591 139.926 173.342 138.001 174.577 135.75C175.812 133.499 176.495 130.986 176.57 128.42C176.71 123.31 174.46 118.02 176.21 113.21C177.6 109.43 181.08 106.92 183.54 103.75Z" fill="#F5F5F5"/>
<path d="M82.3613 102.97C82.3613 103.12 81.8013 103.23 81.1113 103.23C80.4213 103.23 79.8613 103.12 79.8613 102.97C79.8613 102.82 80.4213 102.71 81.1113 102.71C81.8013 102.71 82.3613 102.83 82.3613 102.97Z" fill="#263238"/>
<path d="M93.2213 102.97C92.3395 103.23 91.4162 103.318 90.5013 103.23C89.5863 103.318 88.663 103.23 87.7812 102.97C88.6641 102.716 89.5863 102.628 90.5013 102.71C91.4162 102.628 92.3384 102.716 93.2213 102.97Z" fill="#263238"/>
<path d="M104.141 102.97C103.26 103.231 102.336 103.319 101.421 103.23C100.506 103.318 99.5829 103.23 98.7012 102.97C99.584 102.716 100.506 102.628 101.421 102.71C102.336 102.627 103.258 102.715 104.141 102.97Z" fill="#263238"/>
<path d="M115.042 102.97C114.157 103.23 113.23 103.318 112.312 103.23C111.397 103.318 110.474 103.23 109.592 102.97C110.475 102.716 111.397 102.628 112.312 102.71C113.23 102.627 114.156 102.716 115.042 102.97Z" fill="#263238"/>
<path d="M125.93 102.97C125.045 103.23 124.119 103.318 123.2 103.23C122.286 103.318 121.362 103.23 120.48 102.97C122.281 102.623 124.13 102.623 125.93 102.97Z" fill="#263238"/>
<path d="M133.871 102.97C133.871 103.12 133.311 103.23 132.621 103.23C131.931 103.23 131.371 103.12 131.371 102.97C131.371 102.82 131.931 102.71 132.621 102.71C133.311 102.71 133.871 102.83 133.871 102.97Z" fill="#263238"/>
<path d="M81.7414 98.25C81.7414 98.39 81.2914 98.68 80.6414 98.9C79.9914 99.12 79.4114 99.19 79.3714 99.05C79.3314 98.91 79.8214 98.62 80.4714 98.41C81.1214 98.2 81.6914 98.14 81.7414 98.25Z" fill="#263238"/>
<path d="M90.76 95.22C90.1159 95.7037 89.3762 96.0446 88.59 96.22C87.8561 96.5573 87.0577 96.7313 86.25 96.73C86.8911 96.2414 87.632 95.8999 88.42 95.73C89.1572 95.4026 89.9534 95.2291 90.76 95.22Z" fill="#263238"/>
<path d="M99.7815 92.19C99.1344 92.675 98.3911 93.0159 97.6015 93.19C96.8712 93.5275 96.076 93.7015 95.2715 93.7C95.9126 93.2114 96.6535 92.87 97.4415 92.7C98.1787 92.3726 98.9749 92.1991 99.7815 92.19Z" fill="#263238"/>
<path d="M108.801 89.14C108.154 89.6249 107.411 89.9659 106.621 90.14C105.891 90.4774 105.096 90.6515 104.291 90.65C104.932 90.1614 105.673 89.8199 106.461 89.65C107.198 89.3226 107.994 89.149 108.801 89.14Z" fill="#263238"/>
<path d="M117.811 86.14C116.441 86.9719 114.904 87.4909 113.311 87.66C113.952 87.1713 114.693 86.8299 115.481 86.66C116.214 86.3302 117.007 86.1533 117.811 86.14Z" fill="#263238"/>
<path d="M126.83 83.14C125.458 83.9742 123.918 84.4933 122.32 84.66C122.967 84.175 123.711 83.834 124.5 83.66C125.234 83.3302 126.026 83.1533 126.83 83.14Z" fill="#263238"/>
<path d="M135.852 80.07C134.479 80.9042 132.939 81.4234 131.342 81.59C131.987 81.1023 132.731 80.7611 133.522 80.59C134.254 80.2578 135.048 80.0808 135.852 80.07Z" fill="#263238"/>
<path d="M144.871 77.04C144.23 77.5286 143.489 77.87 142.701 78.04C141.968 78.3779 141.169 78.552 140.361 78.55C141.004 78.0639 141.744 77.7227 142.531 77.55C143.268 77.2218 144.065 77.0482 144.871 77.04Z" fill="#263238"/>
<path d="M151.75 74.73C151.8 74.87 151.3 75.16 150.65 75.38C150 75.6 149.43 75.67 149.38 75.53C149.33 75.39 149.83 75.1 150.48 74.88C151.13 74.66 151.71 74.6 151.75 74.73Z" fill="#263238"/>
<path d="M82.5106 108.14C82.4506 108.27 81.9006 108.14 81.2806 107.82C80.6606 107.5 80.2106 107.16 80.2806 107.04C80.3506 106.92 80.9006 107.04 81.5206 107.35C82.1406 107.66 82.5806 108.01 82.5106 108.14Z" fill="#263238"/>
<path d="M91.7606 112.69C90.8983 112.557 90.0718 112.251 89.3306 111.79C88.5169 111.483 87.7724 111.017 87.1406 110.42C87.9996 110.554 88.8227 110.86 89.5606 111.32C90.3745 111.632 91.1212 112.097 91.7606 112.69Z" fill="#263238"/>
<path d="M101.001 117.25C100.142 117.109 99.3195 116.8 98.5809 116.34C97.7628 116.036 97.0145 115.57 96.3809 114.97C97.2426 115.111 98.0682 115.42 98.8109 115.88C99.6246 116.187 100.369 116.652 101.001 117.25Z" fill="#263238"/>
<path d="M110.222 121.8C109.359 121.667 108.533 121.361 107.792 120.9C106.976 120.592 106.228 120.126 105.592 119.53C106.454 119.663 107.281 119.969 108.022 120.43C108.838 120.738 109.585 121.204 110.222 121.8Z" fill="#263238"/>
<path d="M119.491 126.36C118.629 126.219 117.804 125.909 117.061 125.45C116.247 125.143 115.503 124.677 114.871 124.08C115.73 124.221 116.552 124.53 117.291 124.99C118.109 125.294 118.857 125.76 119.491 126.36Z" fill="#263238"/>
<path d="M126.35 129.74C126.29 129.87 125.74 129.74 125.12 129.42C124.5 129.1 124.05 128.76 124.12 128.64C124.19 128.52 124.74 128.64 125.36 128.95C125.98 129.26 126.42 129.61 126.35 129.74Z" fill="#263238"/>
<path d="M75.3813 95.3H62.6113V112.58H75.3813V95.3Z" fill="#E0E0E0"/>
<path d="M75.3808 112.58C75.3697 112.464 75.3697 112.346 75.3808 112.23C75.3808 111.96 75.3808 111.65 75.3808 111.23C75.3808 110.34 75.3808 109.15 75.3108 107.67C75.3108 104.58 75.2408 100.31 75.2008 95.27L75.4308 95.5H62.6608C62.6008 95.5 63.1608 95.01 62.9208 95.24V99.94C62.9208 101.48 62.9208 102.99 62.9208 104.44C62.9208 107.34 62.9208 110.05 62.9208 112.49L62.7108 112.27L71.9308 112.38L74.5308 112.44C74.8649 112.427 75.1996 112.444 75.5308 112.49C75.2444 112.509 74.9571 112.509 74.6708 112.49L72.1208 112.55L62.7608 112.66H62.5508V112.45C62.5508 110.01 62.5508 107.3 62.5508 104.4C62.5508 102.95 62.5508 101.4 62.5508 99.9V95.2L62.8108 94.94H75.5808H75.8208V95.18C75.7708 100.28 75.7308 104.6 75.7008 107.73C75.7008 109.19 75.7008 110.37 75.6408 111.24C75.5873 111.692 75.5004 112.14 75.3808 112.58Z" fill="#263238"/>
<path d="M68.9917 151.94C80.9929 151.94 90.7217 142.211 90.7217 130.21C90.7217 118.209 80.9929 108.48 68.9917 108.48C56.9906 108.48 47.2617 118.209 47.2617 130.21C47.2617 142.211 56.9906 151.94 68.9917 151.94Z" fill="#E0E0E0"/>
<path d="M90.72 130.21C90.7098 130.094 90.7098 129.976 90.72 129.86C90.72 129.6 90.72 129.26 90.64 128.86C90.64 128.63 90.64 128.38 90.64 128.1C90.64 127.82 90.55 127.52 90.5 127.2C90.3975 126.444 90.2438 125.695 90.04 124.96C89.5258 122.936 88.71 121.001 87.62 119.22C84.761 114.489 80.199 111.032 74.871 109.559C69.5429 108.086 63.8531 108.709 58.97 111.3C58.0152 111.787 57.0962 112.342 56.22 112.96C55.3665 113.597 54.5548 114.289 53.79 115.03C53.0344 115.811 52.3328 116.643 51.69 117.52C50.3533 119.314 49.3165 121.314 48.62 123.44C47.14 127.832 47.14 132.588 48.62 136.98C49.3144 139.107 50.3513 141.107 51.69 142.9C52.3328 143.777 53.0344 144.608 53.79 145.39C54.5548 146.131 55.3665 146.823 56.22 147.46C57.8671 148.718 59.7032 149.707 61.66 150.39C65.2722 151.704 69.1691 152.032 72.95 151.34C75.9514 150.773 78.7994 149.58 81.3083 147.838C83.8172 146.096 85.9304 143.844 87.51 141.23C88.6 139.449 89.4158 137.514 89.93 135.49C90.1337 134.758 90.2874 134.013 90.39 133.26C90.39 132.93 90.5 132.63 90.53 132.35C90.56 132.07 90.53 131.82 90.53 131.59C90.53 131.16 90.59 130.82 90.61 130.59C90.5998 130.474 90.5998 130.356 90.61 130.24C90.6209 130.356 90.6209 130.474 90.61 130.59C90.61 130.85 90.61 131.2 90.61 131.59C90.61 131.82 90.61 132.07 90.61 132.35C90.61 132.63 90.53 132.94 90.49 133.27C90.4068 134.033 90.2664 134.788 90.07 135.53C89.5878 137.586 88.7918 139.556 87.71 141.37C85.1246 145.766 81.0824 149.118 76.2842 150.846C71.486 152.574 66.2344 152.568 61.44 150.83C60.4597 150.478 59.5042 150.06 58.58 149.58C57.6392 149.07 56.7368 148.491 55.88 147.85C54.999 147.205 54.1637 146.5 53.38 145.74C52.6046 144.939 51.883 144.087 51.22 143.19C49.8769 141.352 48.8401 139.309 48.15 137.14C46.6297 132.638 46.6297 127.762 48.15 123.26C48.8661 121.102 49.9301 119.075 51.3 117.26C51.9567 116.361 52.6751 115.509 53.45 114.71C54.2362 113.953 55.0714 113.248 55.95 112.6C57.6333 111.313 59.5099 110.3 61.51 109.6C65.2049 108.266 69.1903 107.948 73.05 108.68C76.0971 109.27 78.9849 110.498 81.5236 112.284C84.0623 114.069 86.1945 116.372 87.78 119.04C88.8601 120.855 89.656 122.824 90.14 124.88C90.3373 125.625 90.4777 126.384 90.56 127.15C90.56 127.48 90.66 127.78 90.68 128.06C90.7 128.34 90.68 128.59 90.68 128.82C90.68 129.26 90.68 129.6 90.68 129.82C90.7069 129.948 90.7203 130.079 90.72 130.21Z" fill="#263238"/>
<path d="M90.5699 243.14C74.6399 247.09 60.0499 247.59 47.4199 243.14V131.42H90.5699V243.14Z" fill="#FF3E79"/>
<path d="M75.0115 105.47C75.0115 105.53 74.4515 105.54 73.7215 105.07C73.2437 104.762 72.8521 104.337 72.5832 103.836C72.3142 103.335 72.1769 102.774 72.1838 102.206C72.1908 101.637 72.342 101.08 72.6232 100.585C72.9043 100.091 73.3063 99.6765 73.7915 99.38C74.5315 98.92 75.0915 98.95 75.0915 99C75.0915 99.05 74.6115 99.2 74.0115 99.68C73.612 99.9707 73.2858 100.35 73.0586 100.789C72.8315 101.228 72.7097 101.714 72.7029 102.208C72.6961 102.701 72.8045 103.19 73.0195 103.635C73.2345 104.08 73.5501 104.468 73.9415 104.77C74.5315 105.27 75.0315 105.39 75.0115 105.47Z" fill="#263238"/>
<path d="M87.7204 127.56C87.6304 127.56 87.6204 126.64 87.3704 125.2C87.0301 123.321 86.3849 121.511 85.4604 119.84C84.5204 118.175 83.3184 116.672 81.9004 115.39C80.8104 114.39 80.0304 113.92 80.0804 113.85C80.8404 114.15 81.5387 114.587 82.1404 115.14C83.6693 116.377 84.9487 117.894 85.9104 119.61C86.8668 121.319 87.4847 123.197 87.7304 125.14C87.8779 125.94 87.8745 126.761 87.7204 127.56Z" fill="white"/>
<path d="M61.9905 154.61V163.51H61.0605V159.41H55.5005V163.51H54.5605V154.61H55.5005V158.61H61.0605V154.61H61.9905Z" fill="white"/>
<path d="M70.4614 161.14H65.5114L64.4414 163.52H63.4414L67.5114 154.62H68.4314L72.5014 163.52H71.5014L70.4614 161.14ZM70.1214 160.38L67.9814 155.6L65.8514 160.38H70.1214Z" fill="white"/>
<path d="M73.9902 154.61H74.9302V163.51H73.9902V154.61Z" fill="white"/>
<path d="M83.9001 163.51L81.9001 160.65C81.6637 160.665 81.4265 160.665 81.1901 160.65H78.7701V163.47H77.8301V154.57H81.1601C83.4201 154.57 84.7901 155.72 84.7901 157.62C84.8249 158.245 84.6457 158.862 84.2821 159.371C83.9185 159.88 83.3922 160.25 82.7901 160.42L84.9601 163.47L83.9001 163.51ZM83.8501 157.66C83.8501 156.24 82.9101 155.43 81.1301 155.43H78.7701V159.89H81.1301C82.9101 159.89 83.8501 159.06 83.8501 157.66Z" fill="white"/>
<path d="M61.3105 152.08L61.4605 151.79C61.7887 152.079 62.213 152.236 62.6506 152.23C63.3206 152.23 63.6506 151.94 63.6506 151.59C63.6506 150.59 61.4205 151.2 61.4205 149.87C61.4205 149.34 61.8406 148.87 62.7606 148.87C63.154 148.865 63.5401 148.976 63.8706 149.19L63.7505 149.49C63.4518 149.299 63.1054 149.195 62.7505 149.19C62.0805 149.19 61.7505 149.49 61.7505 149.85C61.7505 150.85 63.9706 150.24 63.9706 151.56C63.9706 152.09 63.5506 152.56 62.6306 152.56C62.147 152.565 61.678 152.394 61.3105 152.08Z" fill="white"/>
<path d="M67.6518 150.14C67.6518 150.91 67.1018 151.37 66.1818 151.37H65.2218V152.51H64.8418V148.9H66.2218C67.1018 148.91 67.6518 149.37 67.6518 150.14ZM67.2718 150.14C67.2718 149.56 66.8918 149.23 66.1718 149.23H65.2218V151.03H66.2218C66.8918 151.04 67.2718 150.71 67.2718 150.14Z" fill="white"/>
<path d="M70.9505 152.52L70.1205 151.36H68.8705V152.51H68.4805V148.9H69.8305C70.7505 148.9 71.3105 149.36 71.3105 150.14C71.3214 150.395 71.2451 150.645 71.0942 150.851C70.9432 151.056 70.7268 151.204 70.4805 151.27L71.3705 152.51L70.9505 152.52ZM70.9505 150.15C70.9505 149.57 70.5705 149.24 69.8405 149.24H68.8905V151.05H69.8405C70.5505 151.05 70.9305 150.71 70.9305 150.14L70.9505 150.15Z" fill="white"/>
<path d="M74.4804 151.55H72.4804L72.0504 152.55H71.6504L73.3004 148.94H73.6804L75.3304 152.55H74.9204L74.4804 151.55ZM74.3404 151.25L73.4704 149.31L72.6104 151.25H74.3404Z" fill="white"/>
<path d="M76.9411 151.27V152.52H76.5711V151.27L75.1211 148.91H75.5311L76.7711 150.91L78.0111 148.91H78.3911L76.9411 151.27Z" fill="white"/>
<path d="M90.5708 163.51C90.5392 163.723 90.4821 163.931 90.4008 164.13C90.2202 164.72 89.9859 165.293 89.7008 165.84C88.6096 167.829 87.2126 169.635 85.5608 171.19C83.1543 173.515 80.4668 175.531 77.5608 177.19C74.2708 179.19 70.3208 180.49 66.3108 182.19C62.4799 183.576 58.8538 185.473 55.5308 187.83C52.8637 189.808 50.7017 192.388 49.2208 195.36C48.2337 197.367 47.6687 199.556 47.5608 201.79C47.5608 203.38 47.6708 204.25 47.5608 204.26C47.4955 204.056 47.4552 203.844 47.4408 203.63C47.354 203.02 47.3072 202.406 47.3008 201.79C47.3334 199.508 47.8587 197.26 48.8408 195.2C50.315 192.142 52.5033 189.484 55.2208 187.45C58.5632 185.044 62.2208 183.109 66.0908 181.7C70.0908 180.05 74.0908 178.7 77.3008 176.83C80.1916 175.187 82.8771 173.206 85.3008 170.93C86.9566 169.418 88.3787 167.669 89.5208 165.74C89.8198 165.208 90.0837 164.657 90.3108 164.09C90.3782 163.889 90.4653 163.694 90.5708 163.51Z" fill="white"/>
<path d="M90.5713 172.21C90.4836 172.962 90.2492 173.689 89.8813 174.35C88.8665 176.153 87.4413 177.691 85.7213 178.84C83.2091 180.555 80.4736 181.918 77.5913 182.89C74.3713 184.06 70.7413 185.03 67.0213 186.27C63.4966 187.332 60.1524 188.92 57.1013 190.98C54.6383 192.692 52.5268 194.862 50.8813 197.37C49.7786 199.065 48.98 200.94 48.5213 202.91C48.394 203.448 48.2938 203.992 48.2213 204.54C48.2116 204.733 48.178 204.925 48.1213 205.11C48.095 204.918 48.095 204.722 48.1213 204.53C48.1382 203.972 48.2018 203.417 48.3113 202.87C48.6908 200.833 49.458 198.888 50.5713 197.14C52.198 194.551 54.3224 192.311 56.8213 190.55C59.888 188.441 63.2607 186.815 66.8213 185.73C70.5713 184.49 74.1913 183.53 77.4013 182.4C80.2556 181.459 82.9726 180.145 85.4813 178.49C87.1841 177.399 88.6168 175.936 89.6713 174.21C90.0271 173.57 90.3282 172.901 90.5713 172.21Z" fill="white"/>
<path d="M83.7407 219.75C83.725 219.54 83.725 219.33 83.7407 219.12C83.7407 218.68 83.7407 218.12 83.7407 217.37C83.7407 215.82 83.7407 213.64 83.6507 210.93L83.8207 211.1C77.0507 211.1 66.6707 211.19 55.0607 211.19L55.3207 210.93V213.17C55.3207 213.92 55.3207 214.67 55.3207 215.4V219.72L55.0707 219.47L75.5507 219.58L81.6007 219.65H83.2407H83.8307C83.6543 219.664 83.4771 219.664 83.3007 219.65H81.7107L75.7107 219.73L55.0507 219.84H54.7207V210.84L54.9807 210.58C66.5907 210.58 76.9807 210.58 83.7407 210.67H83.9107V210.84C83.9107 213.6 83.8407 215.84 83.8207 217.38C83.8207 218.09 83.8207 218.66 83.8207 219.09C83.8136 219.312 83.7869 219.533 83.7407 219.75Z" fill="#263238"/>
<path d="M90.5699 243.14C90.5699 243.14 90.5699 242.95 90.5699 242.58C90.5699 242.21 90.5699 241.67 90.5699 240.97C90.5699 239.53 90.5699 237.44 90.5699 234.73C90.5699 229.29 90.5699 221.39 90.4999 211.47C90.4999 191.63 90.4399 163.73 90.3899 131.47L90.6399 131.72H47.4199L47.6799 131.46V131.76C47.6799 175.56 47.6199 215.12 47.5999 243.17L47.4799 243C53.2465 244.973 59.2861 246.032 65.3799 246.14C69.9646 246.237 74.5496 245.963 79.0899 245.32C82.8199 244.81 85.6799 244.19 87.6199 243.8L89.8099 243.32L90.5699 243.16L89.8499 243.36L87.6499 243.9C85.7099 244.32 82.8499 244.98 79.1099 245.52C74.5625 246.199 69.9671 246.503 65.3699 246.43C59.2447 246.345 53.1708 245.298 47.3699 243.33H47.2499V243.14C47.2499 215.09 47.1999 175.53 47.1699 131.73V131.14H90.8199V131.39C90.8199 163.75 90.7399 191.7 90.7099 211.58C90.7099 221.48 90.7099 229.36 90.6399 234.79C90.6399 237.48 90.6399 239.56 90.6399 240.98C90.6399 241.67 90.6399 242.2 90.6399 242.57C90.6273 242.761 90.6039 242.951 90.5699 243.14Z" fill="#263238"/>
<path d="M90.1109 247.37H48.1109C47.4744 247.37 46.864 247.117 46.4139 246.667C45.9638 246.217 45.7109 245.606 45.7109 244.97C45.7109 244.333 45.9638 243.723 46.4139 243.273C46.864 242.823 47.4744 242.57 48.1109 242.57H90.1109C90.4269 242.569 90.7401 242.63 91.0324 242.75C91.3248 242.87 91.5905 243.046 91.8145 243.269C92.0384 243.492 92.2161 243.757 92.3373 244.049C92.4585 244.341 92.5209 244.654 92.5209 244.97C92.5209 245.286 92.4585 245.599 92.3373 245.891C92.2161 246.183 92.0384 246.448 91.8145 246.671C91.5905 246.894 91.3248 247.07 91.0324 247.19C90.7401 247.31 90.4269 247.371 90.1109 247.37Z" fill="#E0E0E0"/>
<path d="M90.1117 247.37C90.4568 247.344 90.7949 247.259 91.1117 247.12C91.5355 246.918 91.8894 246.594 92.1281 246.189C92.3669 245.785 92.4795 245.319 92.4517 244.85C92.4315 244.518 92.3386 244.195 92.1796 243.903C92.0206 243.611 91.7994 243.357 91.5317 243.16C91.2415 242.932 90.8968 242.784 90.5317 242.73C90.1617 242.73 89.7117 242.73 89.2717 242.73H83.2117L48.1617 242.81C47.8677 242.79 47.5727 242.83 47.295 242.929C47.0174 243.028 46.7629 243.183 46.5476 243.384C46.3322 243.585 46.1605 243.828 46.0431 244.098C45.9257 244.369 45.8651 244.66 45.8651 244.955C45.8651 245.25 45.9257 245.541 46.0431 245.811C46.1605 246.082 46.3322 246.325 46.5476 246.526C46.7629 246.727 47.0174 246.882 47.295 246.981C47.5727 247.079 47.8677 247.12 48.1617 247.1H59.8317L75.5917 247.16L86.2217 247.24L89.1117 247.29H89.8617H90.1117C90.0289 247.303 89.9445 247.303 89.8617 247.29H89.1117H86.2217L75.5917 247.37L59.8317 247.42H50.5217H48.0817C47.6211 247.422 47.1681 247.303 46.7679 247.075C46.3678 246.847 46.0346 246.517 45.8017 246.12C45.5682 245.716 45.4453 245.257 45.4453 244.79C45.4453 244.323 45.5682 243.864 45.8017 243.46C46.0354 243.047 46.3739 242.703 46.7829 242.462C47.192 242.222 47.6572 242.093 48.1317 242.09L83.1817 242.17H89.2417C89.678 242.145 90.1154 242.145 90.5517 242.17C90.9663 242.243 91.3574 242.414 91.6917 242.67C91.9865 242.89 92.229 243.173 92.4019 243.498C92.5747 243.823 92.6737 244.182 92.6917 244.55C92.7212 245.134 92.5402 245.708 92.1817 246.17C91.9201 246.504 91.5752 246.762 91.1817 246.92C90.8841 247.183 90.5081 247.342 90.1117 247.37Z" fill="#263238"/>
<path d="M98.2207 131.86C98.2207 131.86 96.3007 126.69 90.2207 130.62L87.2207 134.9L89.3507 148.84L98.2207 131.86Z" fill="#FFBF9D"/>
<path d="M179.601 178.63L180.951 224.96C181.071 228.89 181.131 233.03 179.241 236.47C176.411 241.62 170.011 243.7 164.141 243.96C158.271 244.22 152.341 243.13 146.531 244.01C151.011 241.79 152.991 236.22 152.461 231.25C151.931 226.28 149.411 221.78 146.881 217.48C144.351 213.18 141.071 208.85 140.881 203.86C139.991 182.54 148.111 178.92 147.511 168.39C147.181 162.39 144.791 156.68 143.241 150.84C141.691 145 141.241 138.29 144.831 133.41C148.831 127.86 157.161 125.89 159.611 119.49C161.851 113.62 157.961 107.34 154.271 102.25L158.871 98.66L170.061 123.21V148.21L179.601 178.63Z" fill="#263238"/>
<path d="M148.222 166.14C147.872 170.14 145.802 174.24 143.322 177.58C139.632 182.58 134.932 187 132.962 192.87C129.962 201.75 133.962 211.27 136.812 220.19C139.662 229.11 141.092 240.13 134.462 246.76C130.922 250.3 125.782 251.76 121.962 254.99C114.772 261.08 113.892 271.87 115.372 281.18C116.852 290.49 120.112 299.69 119.172 309.06C118.232 318.43 110.992 328.23 101.602 327.56C105.503 329.487 109.834 330.381 114.18 330.155C118.526 329.929 122.741 328.592 126.422 326.27C127.643 329.006 127.976 332.056 127.374 334.991C126.771 337.925 125.263 340.597 123.062 342.63C128.114 343.832 133.354 344.021 138.48 343.187C143.606 342.353 148.516 340.511 152.926 337.77C157.337 335.028 161.161 331.44 164.177 327.213C167.194 322.985 169.343 318.202 170.502 313.14L148.222 166.14Z" fill="#263238"/>
<path d="M354.741 287.99C339.741 288.24 326.402 272.99 328.642 258.17C330.142 248.17 337.391 238.63 334.491 228.98C332.571 222.57 326.791 218.44 321.721 213.84C321.171 210.16 319.861 206.5 319.721 202.76C319.411 192.55 327.982 182.88 325.262 173.04C324.262 169.57 322.031 166.68 319.691 163.84C319.502 156.217 317.503 148.749 313.862 142.05C315.172 137.31 316.861 132.57 315.741 127.89C314.141 121.09 307.391 117.04 302.741 111.78C300.156 108.77 298.199 105.273 296.986 101.494C295.774 97.7157 295.33 93.7326 295.681 89.78L293.971 100.39C291.881 106.238 291.071 112.468 291.597 118.657C292.123 124.845 293.973 130.849 297.021 136.26C298.681 139.16 300.711 141.96 302.311 144.89L274.021 170.81C275.771 203.38 277.541 236.11 284.461 267.98C287.951 284.06 293.791 301.3 307.841 309.87C320.651 317.68 338.691 315.57 349.352 305C345.73 304.4 342.339 302.827 339.542 300.45C343.11 300.395 346.555 299.134 349.315 296.871C352.075 294.609 353.987 291.478 354.741 287.99Z" fill="#263238"/>
<path d="M295.75 89.75L296.4 85.75C296.083 87.0652 295.866 88.4023 295.75 89.75Z" fill="#263238"/>
<path d="M161.221 166.61C144.591 152.71 161.721 145.61 166.221 125.41C176.541 79.41 174.881 42.99 231.801 45.76C231.801 45.76 274.671 47.69 288.011 78.3C295.181 94.75 297.521 151.86 300.351 203.3C300.401 204.139 300.57 204.967 300.851 205.76L303.58 213.51C307.169 223.664 309.32 234.27 309.971 245.02L314.3 316.4C314.374 317.562 314.216 318.727 313.838 319.828C313.459 320.93 312.867 321.945 312.095 322.817C311.323 323.688 310.386 324.399 309.338 324.907C308.291 325.416 307.153 325.712 305.99 325.78C286.82 326.89 242.991 324.85 234.551 321.88C199.381 309.55 171.651 282.1 158.001 247.53C157.091 245.21 142.95 240.85 142.34 243.27C142.1 244.41 207.931 205.66 161.221 166.61Z" fill="#263238"/>
<path d="M242.971 64.05L239.341 60.75L201.271 77.14C198.593 77.3479 196.09 78.5536 194.259 80.5184C192.427 82.4832 191.4 85.064 191.381 87.75L194.581 212.92C194.721 221.41 192.381 231.26 197.661 237.92L203.881 246.54C216.551 262.54 245.381 256.43 254.711 238.31C255.277 237.28 255.707 236.181 255.991 235.04C256.214 234.114 256.384 233.176 256.501 232.23C257.421 222.13 257.281 213.4 257.281 213.4C257.711 202.32 257.841 197.78 257.841 197.88C257.841 197.98 281.311 194.64 286.981 164.29C289.801 149.2 288.731 128.55 287.381 108.23C285.511 80.07 265.591 63.51 242.971 64.05Z" fill="#FFBF9D"/>
<path d="M237.531 129.04C237.515 130.06 237.102 131.033 236.379 131.752C235.656 132.471 234.68 132.88 233.661 132.89C233.162 132.915 232.662 132.841 232.193 132.671C231.723 132.501 231.292 132.238 230.925 131.899C230.557 131.56 230.262 131.151 230.055 130.696C229.848 130.241 229.735 129.75 229.721 129.25C229.741 128.233 230.157 127.264 230.879 126.547C231.601 125.83 232.573 125.423 233.591 125.41C234.089 125.383 234.588 125.456 235.058 125.625C235.528 125.794 235.959 126.056 236.326 126.394C236.694 126.732 236.989 127.141 237.196 127.595C237.403 128.05 237.517 128.541 237.531 129.04Z" fill="#263238"/>
<path d="M276.8 129.04C276.782 130.061 276.367 131.034 275.642 131.753C274.917 132.472 273.941 132.88 272.92 132.89C272.422 132.914 271.924 132.839 271.455 132.668C270.986 132.497 270.557 132.235 270.191 131.896C269.825 131.557 269.53 131.148 269.324 130.694C269.118 130.239 269.004 129.749 268.99 129.25C269.008 128.232 269.423 127.261 270.146 126.544C270.868 125.827 271.842 125.42 272.86 125.41C273.359 125.383 273.858 125.456 274.328 125.625C274.797 125.794 275.229 126.056 275.596 126.394C275.963 126.732 276.259 127.141 276.466 127.595C276.673 128.05 276.786 128.541 276.8 129.04Z" fill="#263238"/>
<path d="M283.55 116.32C283.05 116.82 280.15 114.55 275.94 114.44C271.73 114.33 268.59 116.36 268.15 115.83C267.93 115.6 268.45 114.69 269.82 113.75C271.674 112.539 273.857 111.931 276.07 112.01C278.245 112.068 280.346 112.814 282.07 114.14C283.38 115.14 283.79 116.14 283.55 116.32Z" fill="#263238"/>
<path d="M240.911 117.73C240.371 118.18 237.711 115.62 233.541 115.08C229.371 114.54 226.031 116.23 225.651 115.66C225.461 115.41 226.061 114.56 227.531 113.76C229.499 112.748 231.73 112.368 233.921 112.67C236.092 112.949 238.119 113.908 239.711 115.41C240.861 116.57 241.221 117.54 240.911 117.73Z" fill="#263238"/>
<path d="M256.291 147.98C256.291 147.75 258.911 147.37 263.161 146.98C264.241 146.9 265.261 146.71 265.461 145.98C265.661 145.25 265.321 144.04 264.831 142.78L261.881 134.51C257.781 122.75 254.881 113.08 255.321 112.92C255.761 112.76 259.501 122.17 263.601 133.92C264.601 136.82 265.521 139.58 266.421 142.23C266.791 143.46 267.421 144.86 266.861 146.46C266.694 146.833 266.444 147.164 266.13 147.427C265.817 147.69 265.448 147.879 265.051 147.98C264.453 148.127 263.838 148.194 263.221 148.18C258.951 148.28 256.301 148.22 256.291 147.98Z" fill="#263238"/>
<path d="M257.841 197.84C243.48 197.671 229.448 193.517 217.311 185.84C217.311 185.84 227.001 207.22 257.591 205.2L257.841 197.84Z" fill="#FF9A6C"/>
<path d="M254.221 158.08C253.448 157.05 252.426 156.235 251.25 155.71C250.074 155.185 248.784 154.968 247.501 155.08C246.57 155.139 245.661 155.386 244.827 155.805C243.994 156.225 243.254 156.808 242.651 157.52C242.07 158.205 241.713 159.052 241.629 159.946C241.545 160.84 241.738 161.739 242.181 162.52C243.271 164.15 245.631 164.58 247.661 164.07C249.664 163.418 251.52 162.378 253.121 161.01C253.606 160.682 254.026 160.269 254.361 159.79C254.515 159.559 254.597 159.287 254.597 159.01C254.597 158.732 254.515 158.461 254.361 158.23" fill="#FF9A6C"/>
<path d="M243.831 150.56C244.521 150.56 244.401 155.1 248.221 158.45C252.041 161.8 256.921 161.45 256.931 162.07C256.991 162.36 255.831 162.92 253.771 162.92C251.095 162.889 248.516 161.911 246.491 160.16C244.548 158.479 243.332 156.109 243.101 153.55C242.981 151.64 243.521 150.52 243.831 150.56Z" fill="#263238"/>
<path d="M244.56 97.27C244 98.35 239.91 97.27 234.94 97.27C229.97 97.27 225.83 98.04 225.31 96.94C225.09 96.41 225.91 95.44 227.65 94.54C229.957 93.4697 232.477 92.9395 235.019 92.9898C237.561 93.04 240.058 93.6694 242.32 94.83C244.02 95.75 244.81 96.76 244.56 97.27Z" fill="#263238"/>
<path d="M282.531 98.29C281.761 99.22 278.891 98.15 275.411 98.01C271.931 97.87 268.961 98.47 268.301 97.46C268.021 96.96 268.511 96.02 269.821 95.15C271.583 94.1109 273.615 93.6198 275.658 93.7391C277.7 93.8584 279.661 94.5828 281.291 95.82C282.491 96.83 282.871 97.83 282.531 98.29Z" fill="#263238"/>
<path d="M236.11 57.14C233.36 57.72 231.03 59.48 228.8 61.2C226.57 62.92 224.25 64.69 221.5 65.29C213.43 67.05 205.34 58.23 197.62 61.15C195.803 61.9426 194.262 63.2575 193.194 64.9276C192.126 66.5978 191.578 68.5478 191.62 70.53C191.62 70.95 191.65 71.37 191.71 71.79C185.88 69.91 179.87 69.02 174.09 70.79C166.95 72.94 161.49 78.79 157.65 85.2C154.38 90.64 152.04 97.54 154.86 103.2C157.01 107.54 161.8 110.29 163.35 114.88C164.179 117.73 163.995 120.78 162.83 123.51C156.88 128.378 152.615 134.997 150.64 142.427C148.665 149.857 149.082 157.72 151.83 164.9C153.94 170.45 157.46 175.9 156.83 181.76C155.95 190.43 146.47 196.58 146.28 205.29C146.15 211.21 150.41 216.29 154.87 220.16C159.33 224.03 164.4 227.64 166.87 233C169.11 237.74 169 243.36 167.35 248.34C165.556 253.286 162.769 257.812 159.16 261.64C165.16 263.76 171.63 260.05 176.23 255.64C188.4 244 194.33 226.96 195.4 210.15C196.47 193.34 196.82 176.01 192.83 159.65C192.83 159.65 190.45 141.43 195.75 132.23C201.05 123.03 209.26 124.53 213.96 117.77C221.03 107.62 218.73 92.06 218.73 92.06H218.53C222.65 90.26 226.13 86.06 227.83 81.86C234.237 78.6411 239.429 73.4349 242.63 67.02L243.28 60.09C242.16 57.52 238.86 56.55 236.11 57.14Z" fill="#263238"/>
<path d="M253.96 39.03C253.96 39.03 236.11 32.44 231.51 33.28C226.91 34.12 186.35 46.66 186.35 46.66C186.35 46.66 170.92 69.29 170.92 70.14C170.92 70.99 176.12 80.65 176.12 80.65C179.12 79.07 180.83 77.34 180.07 75.33C180.07 75.33 185.93 81.81 190.07 79.72C190.07 79.72 197.6 85.37 197.6 84.72C197.6 84.07 201.99 84.09 198.85 79.07C197.584 76.8486 196.114 74.7496 194.46 72.8L194.25 65.27L197.85 62.14L206.42 59L215.1 62.53C218.519 63.9217 222.26 64.3287 225.899 63.7049C229.538 63.081 232.929 61.4513 235.69 59L241.63 53.8L245.91 50.67L253.96 39.03Z" fill="#FFBF9D"/>
<path d="M190.111 79.7C189.85 79.5303 189.609 79.3324 189.391 79.11L187.491 77.35C186.288 73.63 185.287 69.8479 184.491 66.02C184.391 65.5 184.311 65.02 184.261 64.46C184.225 64.1945 184.225 63.9255 184.261 63.66C184.278 63.3962 184.321 63.1348 184.391 62.88C184.628 61.9314 184.97 61.0123 185.411 60.14C186.189 58.7155 187.057 57.3427 188.011 56.03C188.821 54.91 189.511 54.03 190.011 53.44C190.249 53.1159 190.525 52.8206 190.831 52.56C190.647 52.9156 190.426 53.2508 190.171 53.56C189.731 54.19 189.081 55.1 188.321 56.24C187.419 57.5644 186.594 58.94 185.851 60.36C185.421 61.1828 185.086 62.0517 184.851 62.95C184.679 63.9238 184.72 64.9235 184.971 65.88C185.901 70.5 187.111 74.56 187.821 77.2V77.13L189.601 79C189.795 79.2146 189.966 79.4493 190.111 79.7Z" fill="#FF9A6C"/>
<path d="M177.151 60.47C177.211 60.47 176.751 61.32 176.241 62.74C175.936 63.5652 175.689 64.4106 175.501 65.27C175.373 65.7571 175.3 66.2568 175.281 66.76C175.32 67.2957 175.431 67.8238 175.611 68.33C176.365 70.1326 177.375 71.8168 178.611 73.33C179.15 73.9613 179.645 74.6296 180.091 75.33C179.423 74.8423 178.83 74.2595 178.331 73.6C176.975 72.1091 175.895 70.389 175.141 68.52C174.937 67.9646 174.819 67.3811 174.791 66.79C174.815 66.245 174.902 65.7047 175.051 65.18C175.272 64.306 175.56 63.4502 175.911 62.62C176.178 61.8284 176.6 61.0976 177.151 60.47Z" fill="#FF9A6C"/>
<path d="M238.512 57.5C239.927 58.6329 241.023 60.1149 241.692 61.8C242.515 63.4187 242.895 65.2268 242.792 67.04C242.381 65.3389 241.853 63.6683 241.212 62.04C240.408 60.4717 239.506 58.9554 238.512 57.5Z" fill="#455A64"/>
<path d="M74.6809 114.46C74.6809 114.46 63.7809 107.32 62.2809 106.95C60.7809 106.58 47.2809 110.85 47.2809 110.85L39.0009 126.85C39.0009 126.85 33.7409 131.36 33.3709 136.62C33.0009 141.88 31.4909 164.04 31.4909 164.04L26.9609 185.84H47.2209L47.6009 147.9L50.7909 141.9L56.9909 139.64L63.7509 139.27C63.7509 139.27 68.2609 145.27 74.6509 144.15V141.52L65.6509 133.25L56.6509 130.62L50.8209 131.74L56.6409 127.98L66.4509 128.49C66.4509 128.49 72.9609 136.2 79.3709 132.95V131.33L71.3109 122.95L62.8009 119.14L53.1609 118.33L62.9309 115.49C62.9309 115.49 69.6909 118.19 73.0709 117.49C76.4509 116.79 76.0709 115.49 76.0709 115.49L74.6809 114.46Z" fill="#FFBF9D"/>
<path d="M65.1107 96.66L52.8107 101.39L47.2207 110.85L58.0407 108.28L59.5207 104.28C59.5207 104.28 66.3207 103.69 65.1107 96.66Z" fill="#FFBF9D"/>
<path d="M40.7812 125.73C41.2647 125.206 41.8243 124.757 42.4412 124.4C43.8645 123.462 45.3365 122.601 46.8512 121.82C48.6112 120.88 50.1912 120.03 51.3112 119.38C51.8924 118.985 52.5123 118.65 53.1613 118.38C52.6803 118.903 52.1242 119.351 51.5112 119.71C50.0858 120.65 48.6103 121.511 47.0912 122.29C45.3312 123.23 43.7512 124.08 42.6312 124.73C42.053 125.13 41.4326 125.465 40.7812 125.73Z" fill="#FF9A6C"/>
<path d="M50.4099 131.99C49.8328 132.435 49.201 132.805 48.5299 133.09C46.9503 133.902 45.2685 134.497 43.5299 134.86C41.7918 135.076 40.0366 135.119 38.2899 134.99C36.9699 134.99 36.1999 135.32 36.1699 135.24C36.795 134.835 37.5253 134.623 38.2699 134.63C39.9973 134.641 41.7238 134.547 43.4399 134.35C45.1229 133.983 46.7646 133.447 48.3399 132.75C49.0002 132.422 49.6943 132.167 50.4099 131.99Z" fill="#FF9A6C"/>
<path d="M76.0417 115.52C75.6516 115.364 75.2795 115.166 74.9317 114.93L72.0217 113.14C69.5617 111.66 66.1917 109.52 62.4517 107.29C62.3639 107.221 62.262 107.171 62.1533 107.146C62.0445 107.12 61.9313 107.118 61.8217 107.14C61.5632 107.162 61.3061 107.199 61.0517 107.25C60.5317 107.34 60.0517 107.46 59.5217 107.57C58.5217 107.81 57.5217 108.06 56.6317 108.3L51.7717 109.63L48.4917 110.54C48.0945 110.681 47.6813 110.771 47.2617 110.81C47.6345 110.616 48.0267 110.462 48.4317 110.35C49.1917 110.08 50.2917 109.71 51.6617 109.28C53.0317 108.85 54.6617 108.35 56.5117 107.84C57.4217 107.58 58.3917 107.32 59.4017 107.08C59.9017 106.96 60.4017 106.84 60.9517 106.74C61.2258 106.684 61.503 106.644 61.7817 106.62C61.9438 106.591 62.1097 106.591 62.2717 106.62C62.422 106.666 62.5664 106.73 62.7017 106.81C66.4917 109.07 69.8017 111.24 72.2117 112.81C73.4117 113.6 74.3817 114.25 75.0417 114.7C75.4068 114.932 75.7426 115.207 76.0417 115.52Z" fill="#FF9A6C"/>
<path d="M162.221 228.66C161.011 229.07 149.301 226.66 135.561 230.66C121.821 234.66 53.7309 278.5 53.7309 278.5L48.7309 185.82H26.8809C26.8809 185.82 8.50088 278.41 7.88088 290.28C7.16088 304.28 6.75088 336.2 23.7209 340.65C40.6909 345.1 64.1209 336.13 81.7209 326.03C99.3209 315.93 133.941 297.72 133.941 297.72L162.221 228.66Z" fill="#FFBF9D"/>
<path d="M119.031 272.49C119.378 272.787 119.69 273.122 119.961 273.49C120.531 274.14 121.321 275.12 122.261 276.35C127.159 282.797 131.193 289.857 134.261 297.35C134.841 298.8 135.261 299.97 135.551 300.8C135.723 301.219 135.85 301.655 135.931 302.1C135.697 301.712 135.505 301.3 135.361 300.87C135.031 300.07 134.541 298.92 133.921 297.5C132.303 293.805 130.494 290.197 128.501 286.69C126.498 283.195 124.319 279.804 121.971 276.53C121.061 275.27 120.321 274.26 119.801 273.53C119.516 273.206 119.258 272.858 119.031 272.49Z" fill="#FF9A6C"/>
<path d="M53.1108 267.3C53.1883 267.8 53.2285 268.304 53.2308 268.81C53.2308 269.81 53.3508 271.19 53.4608 272.93C53.6908 276.41 54.1708 281.2 54.6508 286.51C55.1382 291.036 55.3453 295.588 55.2708 300.14C55.2234 301.522 55.0999 302.901 54.9008 304.27C54.8414 304.776 54.7343 305.275 54.5808 305.76C54.5795 305.251 54.6197 304.743 54.7008 304.24C54.7908 303.24 54.8808 301.87 54.9008 300.13C54.9608 296.65 54.6208 291.84 54.1408 286.54C53.6608 281.24 53.2308 276.43 53.1408 272.94C53.0708 271.19 53.0408 269.78 53.0708 268.8C53.0315 268.3 53.0449 267.797 53.1108 267.3Z" fill="#FF9A6C"/>
<path d="M299.62 187.85C301.945 185.298 303.792 182.347 305.07 179.14C306.82 174.31 332.15 106.21 332.15 106.21L326.39 104.88L241 54.44C241 54.44 252.64 39.03 254 39.03C255.36 39.03 358.67 76.08 369 86.03C381.09 97.61 369.88 148.37 362.85 165.03C355.82 181.69 318.95 258.54 318.95 258.54L299.62 187.85Z" fill="#FFBF9D"/>
<path d="M162.222 228.66L193.392 225.95L259.812 223.21L299.642 187.85L318.952 258.53L314.062 296.64L154.592 304.31C154.592 304.31 149.472 300.49 133.952 297.74C118.432 294.99 136.502 255.54 136.502 255.54L162.222 228.66Z" fill="#FFBF9D"/>
<path d="M133.932 297.74C133.932 297.74 138.602 311.06 142.592 324.94C146.682 339.17 156.592 404.15 156.592 404.15L140.762 444.01H314.682L301.432 389.25C301.432 389.25 313.192 343.95 316.362 319.81C318.303 303.596 318.638 287.23 317.362 270.95L275.532 209.25L263.532 219.85C263.532 219.85 274.852 252.62 261.152 270.7C247.452 288.78 224.902 293.25 198.602 276.8C172.302 260.35 183.462 226.8 183.462 226.8L175.402 227.5L133.932 297.74Z" fill="#FF3E79"/>
<path d="M322.341 203.21C322.295 203.42 322.228 203.624 322.141 203.82L321.501 205.51C321.201 206.23 320.851 207.13 320.501 208.19C320.151 209.25 319.681 210.42 319.301 211.77C318.921 213.12 318.431 214.58 318.031 216.18C317.631 217.78 317.231 219.49 316.831 221.3C315.215 229.191 314.627 237.258 315.081 245.3C315.221 247.14 315.321 248.9 315.531 250.54C315.741 252.18 315.921 253.69 316.141 255.08C316.361 256.47 316.611 257.71 316.821 258.8C317.031 259.89 317.231 260.8 317.411 261.6C317.591 262.4 317.701 262.91 317.811 263.36C317.868 263.566 317.901 263.777 317.911 263.99C317.819 263.799 317.752 263.598 317.711 263.39C317.581 262.94 317.421 262.39 317.221 261.65C317.021 260.91 316.751 259.96 316.531 258.86C316.311 257.76 315.991 256.53 315.781 255.14C315.571 253.75 315.281 252.23 315.101 250.59C314.921 248.95 314.751 247.18 314.611 245.32C314.105 237.244 314.694 229.138 316.361 221.22C316.781 219.41 317.151 217.68 317.611 216.09C318.071 214.5 318.501 213.02 318.951 211.68C319.401 210.34 319.841 209.14 320.221 208.14C320.601 207.14 320.971 206.2 321.301 205.48C321.631 204.76 321.841 204.25 322.041 203.83C322.115 203.611 322.215 203.403 322.341 203.21Z" fill="#FF9A6C"/>
<path d="M278.861 336.82C278.665 337.012 278.454 337.19 278.231 337.35L276.361 338.8C275.551 339.43 274.551 340.19 273.361 341.04C272.171 341.89 270.851 342.89 269.361 343.92C266.361 346.02 262.691 348.42 258.561 350.97C254.431 353.52 249.781 356.16 244.821 358.77C239.861 361.38 235.011 363.64 230.571 365.61C226.131 367.58 222.061 369.18 218.571 370.45C216.861 371.11 215.281 371.64 213.901 372.13C212.521 372.62 211.341 373 210.361 373.31L208.101 374.02C207.84 374.112 207.573 374.182 207.301 374.23C207.547 374.102 207.805 373.998 208.071 373.92L210.291 373.12C211.291 372.78 212.441 372.37 213.811 371.85C215.181 371.33 216.741 370.79 218.441 370.11C221.861 368.8 225.901 367.11 230.331 365.17C234.761 363.23 239.571 360.89 244.531 358.31C249.491 355.73 254.111 353.06 258.271 350.56C262.431 348.06 266.081 345.68 269.111 343.61C270.641 342.61 271.991 341.61 273.181 340.8C274.371 339.99 275.401 339.24 276.181 338.64L278.111 337.27C278.344 337.094 278.596 336.943 278.861 336.82Z" fill="#263238"/>
<path d="M195.07 65.42C195.517 65.7137 195.936 66.0485 196.32 66.42C197.11 67.06 198.26 67.97 199.71 69.06C203.508 71.862 207.548 74.3216 211.78 76.41C214.26 77.63 216.69 78.66 218.93 79.5C220.05 79.92 221.13 80.28 222.14 80.61C223.065 80.9369 224.015 81.1878 224.98 81.36C226.367 81.6397 227.808 81.4013 229.03 80.69C229.453 80.4047 229.839 80.0688 230.18 79.69C230.14 79.8209 230.076 79.9431 229.99 80.05C229.758 80.3741 229.474 80.6579 229.15 80.89C227.908 81.7121 226.397 82.0237 224.93 81.76C223.939 81.6141 222.962 81.3832 222.01 81.07C221.01 80.75 219.9 80.4 218.77 79.99C216.309 79.0998 213.899 78.0749 211.55 76.92C207.288 74.8211 203.247 72.2983 199.49 69.39C198.06 68.26 196.94 67.31 196.19 66.62C195.78 66.2564 195.405 65.8546 195.07 65.42Z" fill="#455A64"/>
<path d="M198.631 139.02C198.681 136.75 196.211 131.33 193.971 130.92C187.971 129.82 177.211 130.01 176.691 145.21C175.991 165.99 197.001 162.41 197.051 161.81C197.101 161.21 198.431 146.86 198.631 139.02Z" fill="#FFBF9D"/>
<path d="M190.972 153.73C190.882 153.66 190.602 153.97 189.972 154.23C189.102 154.577 188.132 154.577 187.262 154.23C185.092 153.35 183.372 149.8 183.392 146.06C183.398 144.276 183.804 142.516 184.582 140.91C185.272 139.41 186.282 138.38 187.402 138.22C187.82 138.126 188.259 138.18 188.642 138.373C189.025 138.567 189.329 138.887 189.502 139.28C189.762 139.88 189.612 140.28 189.722 140.28C189.832 140.28 190.182 139.95 190.042 139.09C189.946 138.571 189.674 138.101 189.272 137.76C188.71 137.305 187.991 137.089 187.272 137.16C185.672 137.22 184.172 138.64 183.382 140.26C182.436 142.026 181.938 143.997 181.932 146C181.932 150.2 183.932 154.19 186.932 155.16C187.484 155.341 188.07 155.395 188.647 155.319C189.223 155.243 189.775 155.038 190.262 154.72C190.922 154.23 191.042 153.77 190.972 153.73Z" fill="#FF9A6C"/>
<path d="M198.352 62.14C198.53 62.1119 198.713 62.1119 198.892 62.14C199.403 62.1792 199.911 62.2561 200.412 62.37C202.251 62.8425 203.96 63.7244 205.412 64.95L208.412 67.39C209.512 68.24 210.742 69.09 212.042 69.97C213.397 70.8878 214.87 71.6178 216.422 72.14C218.08 72.6969 219.788 73.0953 221.522 73.33C224.874 73.8008 228.291 73.3047 231.372 71.9C233.873 70.7202 235.925 68.7627 237.222 66.32C238.111 64.6831 238.585 62.8528 238.602 60.99C238.602 59.67 238.392 58.99 238.452 58.99C238.524 59.1561 238.574 59.3309 238.602 59.51C238.72 60.0119 238.787 60.5245 238.802 61.04C238.87 62.9508 238.439 64.8465 237.552 66.54C236.252 69.0988 234.142 71.1557 231.552 72.39C228.395 73.8617 224.88 74.3862 221.432 73.9C219.659 73.666 217.914 73.2573 216.222 72.68C214.649 72.126 213.161 71.3552 211.802 70.39C210.502 69.48 209.282 68.63 208.172 67.75C207.062 66.87 206.112 66 205.172 65.26C203.768 64.029 202.113 63.1179 200.322 62.59C199.092 62.2 198.352 62.14 198.352 62.14Z" fill="#455A64"/>
<path d="M197.641 77.14C197.721 77.06 198.891 78.38 201.161 80.03C202.492 80.9847 203.908 81.8149 205.391 82.51C207.214 83.3389 209.122 83.9692 211.081 84.39C213.057 84.7732 215.067 84.9542 217.081 84.93C217.956 84.9171 218.831 84.8604 219.701 84.76C220.531 84.69 221.281 84.54 221.971 84.43C224.731 83.9 226.361 83.26 226.401 83.36C226.046 83.5693 225.666 83.7338 225.271 83.85C224.217 84.2378 223.138 84.5519 222.041 84.79C221.351 84.93 220.591 85.1 219.761 85.19C218.875 85.313 217.984 85.3864 217.091 85.41C215.048 85.4637 213.006 85.2927 211.001 84.9C208.999 84.4731 207.053 83.8188 205.201 82.95C204.398 82.5642 203.62 82.1301 202.871 81.65C202.205 81.2478 201.564 80.807 200.951 80.33C200.443 79.9424 199.955 79.5285 199.491 79.09C199.136 78.7782 198.802 78.4442 198.491 78.09C198.178 77.8005 197.894 77.4825 197.641 77.14Z" fill="#455A64"/>
<path d="M190.111 79.7C190.479 79.9972 190.814 80.3324 191.111 80.7C191.691 81.39 192.481 82.43 193.391 83.76C194.372 85.3373 195.567 86.771 196.941 88.02C198.704 89.4625 200.655 90.657 202.741 91.57C206.521 93.3103 210.723 93.9215 214.841 93.33C216.525 92.9876 218.165 92.4576 219.731 91.75C219.359 92.0335 218.957 92.275 218.531 92.47C217.381 93.0274 216.165 93.4373 214.911 93.69C210.714 94.4062 206.398 93.8345 202.531 92.05C200.403 91.1124 198.417 89.8804 196.631 88.39C195.238 87.0943 194.042 85.6018 193.081 83.96C192.211 82.62 191.481 81.55 190.951 80.83C190.637 80.4798 190.356 80.1016 190.111 79.7Z" fill="#455A64"/>
<path d="M164.451 192.54C164.451 192.54 164.771 192.2 165.331 191.54C166.137 190.543 166.757 189.408 167.161 188.19C167.788 186.256 168.019 184.215 167.841 182.19C167.624 179.506 166.883 176.89 165.661 174.49C164.172 171.581 162.502 168.769 160.661 166.07C158.489 162.964 156.781 159.558 155.591 155.96C154.99 153.984 154.716 151.924 154.781 149.86C154.865 147.687 155.491 145.57 156.601 143.7C157.791 141.797 159.292 140.107 161.041 138.7C162.761 137.25 164.641 135.97 166.461 134.6C168.291 133.296 169.951 131.767 171.401 130.05C172.776 128.376 173.705 126.38 174.101 124.25C174.281 123.221 174.281 122.169 174.101 121.14C173.876 120.141 173.476 119.19 172.921 118.33C171.758 116.675 170.467 115.114 169.061 113.66C166.717 110.956 165.062 107.724 164.238 104.241C163.415 100.758 163.446 97.1279 164.331 93.66C165.036 91.0195 166.234 88.536 167.861 86.34C169.089 84.6919 170.535 83.2184 172.161 81.96C173.19 81.1737 174.288 80.4809 175.441 79.89C175.841 79.69 176.151 79.56 176.361 79.47L176.681 79.34L176.381 79.52L175.491 79.98C174.342 80.6071 173.248 81.3296 172.221 82.14C170.628 83.4065 169.218 84.8872 168.031 86.54C166.275 88.9429 165.048 91.69 164.429 94.6009C163.81 97.5118 163.814 100.521 164.441 103.43C165.189 107.101 166.881 110.513 169.351 113.33C170.779 114.797 172.093 116.372 173.281 118.04C173.87 118.958 174.29 119.974 174.521 121.04C174.736 122.124 174.756 123.238 174.581 124.33C174.172 126.533 173.212 128.597 171.791 130.33C170.324 132.079 168.644 133.638 166.791 134.97C164.951 136.36 163.081 137.63 161.381 139.06C159.679 140.415 158.216 142.044 157.051 143.88C155.979 145.676 155.374 147.711 155.291 149.8C155.219 151.813 155.483 153.824 156.071 155.75C157.238 159.31 158.923 162.68 161.071 165.75C162.916 168.471 164.586 171.307 166.071 174.24C167.288 176.689 168.015 179.352 168.211 182.08C168.369 184.141 168.107 186.213 167.441 188.17C167.003 189.398 166.342 190.533 165.491 191.52C165.178 191.893 164.83 192.234 164.451 192.54Z" fill="#455A64"/>
<path d="M194.08 124.65C194.299 124.122 194.556 123.61 194.85 123.12C195.605 121.763 196.244 120.344 196.76 118.88C197.582 116.747 197.624 114.392 196.88 112.23C195.96 109.82 193.88 107.76 191.88 105.56C189.856 103.537 188.129 101.237 186.75 98.73C185.635 96.639 185.142 94.2723 185.33 91.91C185.443 90.3168 185.989 88.7848 186.91 87.48C187.161 87.1172 187.449 86.782 187.77 86.48C188 86.29 188.12 86.19 188.13 86.21C188.14 86.23 187.69 86.64 187.13 87.55C186.296 88.8501 185.82 90.3471 185.75 91.89C185.616 94.1743 186.126 96.4504 187.22 98.46C188.609 100.911 190.321 103.165 192.31 105.16C194.31 107.35 196.46 109.46 197.4 112.01C198.167 114.273 198.092 116.737 197.19 118.95C196.633 120.42 195.937 121.833 195.11 123.17C194.82 123.65 194.59 124.01 194.43 124.25C194.333 124.399 194.215 124.534 194.08 124.65Z" fill="#455A64"/>
<path d="M303.511 209.25C315.221 197.55 295.291 194.42 307.831 169.65C315.051 155.37 305.031 130.97 300.701 114.99C295.831 96.99 304.701 76.57 292.791 62.27C285.271 53.27 272.901 47.87 260.071 47.87C247.511 47.87 244.861 52.45 238.721 55.28L243.091 67.89C251.561 67.46 269.091 70.05 274.451 76.62C278.951 82.15 281.011 89.46 278.681 96.19C272.901 112.88 274.231 124.33 282.681 137.32C287.151 144.14 295.291 144.99 299.221 152.14C303.511 159.98 293.561 178.93 293.121 187.86C292.681 196.79 305.571 200.54 303.511 209.25Z" fill="#263238"/>
<path d="M303.511 209.25C303.775 208.078 303.775 206.862 303.511 205.69C303.139 204.283 302.478 202.968 301.571 201.83C300.339 200.264 299.023 198.765 297.631 197.34C295.823 195.576 294.402 193.454 293.461 191.11C293.018 189.722 292.895 188.252 293.101 186.81C293.296 185.264 293.596 183.734 294.001 182.23C294.811 179.11 295.881 175.83 296.951 172.34C298.15 168.678 299.086 164.935 299.751 161.14C300.125 159.104 300.179 157.022 299.911 154.97C299.517 152.848 298.489 150.895 296.961 149.37C293.961 146.04 289.531 144.28 285.831 141.12C284.889 140.333 284.035 139.448 283.281 138.48C282.521 137.48 281.901 136.42 281.231 135.36C279.912 133.185 278.762 130.911 277.791 128.56C276.781 126.135 276.026 123.612 275.541 121.03C275.071 118.367 274.876 115.663 274.961 112.96C275.088 110.189 275.443 107.433 276.021 104.72C276.63 101.948 277.398 99.2137 278.321 96.53C278.799 95.1855 279.134 93.7946 279.321 92.38C279.481 90.9545 279.481 89.5155 279.321 88.09C278.937 85.1839 277.964 82.3867 276.461 79.87C275.728 78.5797 274.849 77.3784 273.841 76.29C272.798 75.2217 271.602 74.315 270.291 73.6C267.593 72.1759 264.732 71.0846 261.771 70.35C258.76 69.5657 255.7 68.9844 252.611 68.61C249.481 68.2094 246.325 68.0589 243.171 68.16H242.971L242.911 67.98L238.541 55.38L238.461 55.15L238.681 55.06C241.231 53.9 243.681 52.06 246.381 50.59C249.52 48.9546 252.968 47.9973 256.501 47.78C259.959 47.5072 263.438 47.6212 266.871 48.12C273.612 49.0723 280.042 51.567 285.661 55.41C288.387 57.2893 290.852 59.5222 292.991 62.05C295.075 64.5586 296.678 67.4299 297.721 70.52C299.771 76.65 299.781 83.05 299.661 89.11C299.541 95.17 299.151 101.11 299.661 106.87C299.884 109.691 300.362 112.486 301.091 115.22C301.831 117.92 302.631 120.55 303.421 123.14C306.591 133.48 309.531 143.21 310.421 152.44C310.943 156.821 310.685 161.259 309.661 165.55C309.511 166.05 309.371 166.55 309.211 167.03C309.051 167.51 308.861 168.03 308.661 168.47C308.241 169.39 307.811 170.29 307.391 171.16C306.576 172.861 305.868 174.611 305.271 176.4C304.726 178.073 304.308 179.784 304.021 181.52C303.793 183.129 303.716 184.756 303.791 186.38C303.99 189.225 304.631 192.022 305.691 194.67C306.581 197.07 307.461 199.24 307.531 201.26C307.603 202.956 307.157 204.634 306.251 206.07C305.705 206.948 305.068 207.766 304.351 208.51L303.621 209.26L304.331 208.47C305.017 207.709 305.63 206.886 306.161 206.01C307.037 204.589 307.462 202.937 307.381 201.27C307.082 199.012 306.448 196.811 305.501 194.74C304.407 192.08 303.733 189.267 303.501 186.4C303.417 184.757 303.491 183.109 303.721 181.48C304 179.728 304.411 178 304.951 176.31C305.546 174.507 306.254 172.744 307.071 171.03C307.491 170.15 307.921 169.25 308.331 168.34C308.521 167.88 308.681 167.4 308.861 166.93C309.041 166.46 309.151 165.93 309.301 165.46C310.301 161.202 310.541 156.801 310.011 152.46C309.121 143.3 306.161 133.59 303.011 123.26C302.211 120.67 301.411 118.03 300.661 115.33C299.917 112.571 299.431 109.749 299.211 106.9C298.711 101.12 299.071 95.16 299.211 89.09C299.351 83.02 299.301 76.69 297.271 70.67C296.256 67.6347 294.683 64.8161 292.631 62.36C290.518 59.8729 288.087 57.6741 285.401 55.82C279.845 52.0271 273.491 49.5635 266.831 48.62C263.433 48.1346 259.993 48.0239 256.571 48.29C253.109 48.5048 249.73 49.4415 246.651 51.04C243.981 52.46 241.541 54.33 238.931 55.52L239.061 55.2C240.561 59.52 242.061 63.81 243.431 67.8L243.171 67.63C246.358 67.5317 249.548 67.6855 252.711 68.09C255.821 68.4662 258.901 69.0542 261.931 69.85C264.935 70.5931 267.836 71.7014 270.571 73.15C271.925 73.8901 273.159 74.8308 274.231 75.94C275.267 77.0509 276.17 78.2793 276.921 79.6C278.455 82.1788 279.445 85.0442 279.831 88.02C280.001 89.4851 280.001 90.9649 279.831 92.43C279.657 93.8762 279.321 95.2983 278.831 96.67C277.919 99.3392 277.154 102.057 276.541 104.81C275.963 107.493 275.609 110.219 275.481 112.96C275.393 115.639 275.581 118.32 276.041 120.96C276.522 123.512 277.262 126.008 278.251 128.41C279.214 130.74 280.354 132.993 281.661 135.15C282.321 136.15 282.941 137.28 283.661 138.23C284.394 139.181 285.229 140.05 286.151 140.82C289.761 143.93 294.251 145.71 297.291 149.12C298.056 149.943 298.726 150.849 299.291 151.82C299.835 152.778 300.195 153.829 300.351 154.92C300.616 157.01 300.559 159.128 300.181 161.2C299.458 165.008 298.469 168.761 297.221 172.43C296.141 175.92 295.051 179.19 294.221 182.3C293.391 185.41 292.721 188.42 293.631 191.04C294.559 193.357 295.951 195.46 297.721 197.22C299.105 198.658 300.413 200.166 301.641 201.74C302.546 202.903 303.2 204.241 303.561 205.67C303.755 206.55 303.792 207.457 303.671 208.35C303.642 208.573 303.599 208.793 303.541 209.01L303.511 209.25Z" fill="#455A64"/>
<path d="M299.29 179.14C299.317 178.992 299.36 178.848 299.42 178.71L299.86 177.49C300.25 176.41 300.86 174.82 301.52 172.77C302.18 170.72 303 168.17 303.7 165.17C304.526 161.78 304.913 158.298 304.85 154.81C304.818 152.784 304.543 150.77 304.03 148.81C303.488 146.687 302.65 144.65 301.54 142.76C299.31 138.76 295.93 135.22 292.54 131.39C290.748 129.442 289.078 127.385 287.54 125.23C285.914 122.978 284.684 120.465 283.9 117.8C283.168 115.001 283.059 112.076 283.58 109.23C284.122 106.332 284.988 103.505 286.16 100.8C288.45 95.32 291.27 90.2 292.59 84.8C293.247 82.1632 293.426 79.4301 293.12 76.73C292.741 74.1547 291.81 71.6918 290.39 69.51C287.666 65.4857 283.85 62.322 279.39 60.39C275.522 58.6937 271.354 57.7827 267.13 57.71C263.644 57.6252 260.158 57.8763 256.72 58.46C253.72 58.95 251.08 59.53 248.96 60.03L244.1 61.22L242.84 61.53C242.697 61.5742 242.55 61.6043 242.4 61.62C242.539 61.5589 242.683 61.512 242.83 61.48L244.08 61.12C245.18 60.81 246.81 60.36 248.92 59.83C251.03 59.3 253.62 58.69 256.67 58.17C260.125 57.5563 263.632 57.2783 267.14 57.34C271.419 57.3935 275.644 58.2977 279.57 60C284.109 61.9524 287.995 65.1618 290.77 69.25C292.236 71.4868 293.198 74.015 293.59 76.66C293.917 79.4227 293.738 82.2218 293.06 84.92C291.73 90.43 288.89 95.57 286.62 101.02C285.459 103.688 284.603 106.479 284.07 109.34C283.561 112.109 283.666 114.956 284.38 117.68C285.137 120.296 286.338 122.761 287.93 124.97C289.449 127.107 291.096 129.151 292.86 131.09C296.25 134.93 299.64 138.53 301.86 142.57C302.98 144.495 303.822 146.569 304.36 148.73C304.869 150.714 305.138 152.752 305.16 154.8C305.204 158.316 304.787 161.822 303.92 165.23C303.19 168.23 302.36 170.78 301.65 172.83C300.94 174.88 300.32 176.46 299.9 177.52L299.41 178.73C299.36 179 299.29 179.14 299.29 179.14Z" fill="#455A64"/>
<path d="M142.592 210.5C146.772 216.32 151.012 222.25 153.342 229.03C155.672 235.81 155.862 243.68 152.152 249.81C150.272 252.91 147.512 255.42 145.802 258.62C142.002 265.76 144.342 274.69 148.302 281.75C152.262 288.81 157.752 295.03 160.742 302.56C163.732 310.09 163.432 319.85 157.142 324.94C168.652 324.3 179.072 314.88 180.852 303.49C182.398 306.238 183.3 309.301 183.491 312.449C183.681 315.596 183.155 318.745 181.952 321.66C187.096 317.5 191.037 312.043 193.37 305.852C195.702 299.661 196.342 292.96 195.222 286.44C193.852 279.05 190.222 271.96 190.702 264.44C191.062 259.11 193.502 254.18 194.762 248.99C199.402 229.75 187.342 209.6 191.172 190.18" fill="#263238"/>
<path d="M174.44 246.96C175.001 246.746 175.54 246.478 176.05 246.16C177.442 245.127 178.432 243.642 178.85 241.96C179.189 240.764 179.33 239.521 179.27 238.28C179.17 236.804 178.86 235.349 178.35 233.96C177.84 232.45 177.15 230.88 176.46 229.19C175.686 227.418 175.119 225.562 174.77 223.66C174.417 221.555 174.369 219.409 174.63 217.29C174.935 215.006 175.43 212.752 176.11 210.55C177.46 205.98 179.48 201.3 180.8 196.15C182.168 190.749 182.264 185.104 181.08 179.66C180.479 176.786 179.521 173.997 178.23 171.36C176.866 168.656 175.238 166.094 173.37 163.71C171.489 161.296 169.816 158.727 168.37 156.03C166.957 153.349 166.418 150.293 166.83 147.29C167.408 144.437 168.705 141.78 170.6 139.57C172.362 137.474 174.231 135.472 176.2 133.57C178.048 131.763 179.682 129.75 181.07 127.57C182.393 125.535 183.168 123.193 183.32 120.77C183.323 118.507 182.655 116.294 181.4 114.41C180.25 112.55 178.87 110.94 177.66 109.31C176.454 107.794 175.477 106.11 174.76 104.31C174.156 102.704 173.786 101.021 173.66 99.31C173.463 96.5456 173.883 93.7719 174.89 91.19C175.521 89.5615 176.405 88.0428 177.51 86.69C177.887 86.2173 178.298 85.7728 178.74 85.36L178.45 85.72C178.26 85.96 177.93 86.27 177.59 86.72C176.531 88.0883 175.685 89.6088 175.08 91.23C174.123 93.7819 173.737 96.5128 173.95 99.23C174.084 100.922 174.461 102.586 175.07 104.17C175.783 105.939 176.754 107.594 177.95 109.08C179.16 110.69 180.56 112.3 181.74 114.19C183.04 116.139 183.736 118.428 183.74 120.77C183.589 123.262 182.797 125.674 181.44 127.77C180.039 129.985 178.392 132.035 176.53 133.88C174.573 135.781 172.717 137.784 170.97 139.88C169.133 142.025 167.874 144.603 167.31 147.37C166.92 150.269 167.449 153.217 168.82 155.8C170.248 158.471 171.904 161.014 173.77 163.4C175.656 165.809 177.301 168.399 178.68 171.13C179.985 173.807 180.952 176.635 181.56 179.55C182.75 185.073 182.64 190.797 181.24 196.27C179.9 201.47 177.86 206.14 176.51 210.68C175.821 212.853 175.319 215.081 175.01 217.34C174.742 219.421 174.775 221.529 175.11 223.6C175.445 225.48 175.995 227.316 176.75 229.07C177.42 230.75 178.1 232.34 178.6 233.87C179.111 235.286 179.414 236.768 179.5 238.27C179.542 239.538 179.38 240.804 179.02 242.02C178.579 243.734 177.536 245.233 176.08 246.24C175.707 246.499 175.295 246.698 174.86 246.83L174.44 246.96Z" fill="#455A64"/>
<path d="M165.002 315.67C166.259 314.55 167.279 313.19 168.002 311.67C169.787 307.46 169.851 302.718 168.182 298.46C167.054 295.54 165.565 292.772 163.752 290.22C161.862 287.41 159.612 284.56 157.532 281.34C155.251 278.021 153.654 274.282 152.832 270.34C152.644 269.294 152.557 268.233 152.572 267.17V266.37L152.662 265.56C152.705 265.023 152.778 264.489 152.882 263.96C153.334 261.807 154.074 259.725 155.082 257.77C157.082 253.77 159.592 250.3 161.592 246.68C162.61 244.934 163.454 243.092 164.112 241.18C164.429 240.256 164.68 239.31 164.862 238.35C164.962 237.88 164.982 237.35 165.042 236.93C165.112 236.463 165.142 235.992 165.132 235.52C165.029 231.923 164.174 228.387 162.622 225.14C161.292 222.03 159.852 219.21 158.792 216.51C157.825 214.083 157.189 211.537 156.902 208.94C156.697 206.972 156.849 204.983 157.352 203.07C157.689 201.866 158.219 200.724 158.922 199.69C159.172 199.35 159.382 199.1 159.522 198.93C159.586 198.842 159.659 198.761 159.742 198.69C158.728 200.008 157.984 201.514 157.552 203.12C157.095 205.014 156.973 206.974 157.192 208.91C157.505 211.475 158.157 213.987 159.132 216.38C160.202 219.04 161.662 221.85 163.022 224.97C164.606 228.262 165.485 231.849 165.602 235.5C165.612 235.988 165.581 236.477 165.512 236.96C165.452 237.44 165.432 237.96 165.332 238.42C165.147 239.403 164.893 240.372 164.572 241.32C163.91 243.264 163.056 245.136 162.022 246.91C160.022 250.56 157.462 254.05 155.532 257.98C154.545 259.894 153.822 261.932 153.382 264.04C153.278 264.555 153.205 265.076 153.162 265.6L153.072 266.38V267.16C153.06 268.192 153.144 269.223 153.322 270.24C154.128 274.124 155.691 277.81 157.922 281.09C159.922 284.28 162.212 287.14 164.102 289.97C165.916 292.565 167.398 295.377 168.512 298.34C170.462 303.87 169.642 308.9 168.172 311.76C167.618 312.87 166.889 313.883 166.012 314.76C165.78 314.987 165.537 315.2 165.282 315.4C165.102 315.61 165.012 315.68 165.002 315.67Z" fill="#455A64"/>
</g>
<defs>
<clipPath id="clip0">
<rect width="477.01" height="444.27" fill="white"/>
</clipPath>
</defs>
</svg>
