<svg width="310" height="271" viewBox="0 0 310 271" fill="none" xmlns="http://www.w3.org/2000/svg">
<rect width="310" height="271" fill="#F0E3E7"/>
<path fill-rule="evenodd" clip-rule="evenodd" d="M172.982 180.402C183.499 168.468 190.617 153.843 189.428 137.455C186 90.2366 118.006 100.624 104.78 124.456C91.5537 148.287 93.1253 208.739 110.219 212.998C117.036 214.697 131.558 210.536 146.338 201.924L137.061 265.371H191.84L172.982 180.402Z" fill="#804F30"/>
<path fill-rule="evenodd" clip-rule="evenodd" d="M213.309 121.737C215.079 120.042 216.044 117.623 216.878 115.326C217.745 112.939 218.588 110.529 219.164 108.045C220.314 103.082 220.325 97.3748 216.662 93.5213C213.725 90.4311 209.318 89.0451 205.251 88.7438C202.541 88.543 199.758 88.9098 197.16 89.7353C194.583 90.5543 192.361 92.1864 189.863 93.1994C189.767 87.8514 188.82 82.2555 186.013 77.689C183.312 73.2954 179.006 70.8298 174.102 70.1775C169.069 69.5081 164.099 70.6467 159.593 73.0023C158.465 73.5922 157.347 74.2103 156.278 74.9097C155.382 75.4955 154.451 76.2009 153.4 76.4391C152.229 76.705 151.648 76.051 150.887 75.2248C149.994 74.2561 148.988 73.403 147.924 72.6466C143.218 69.3029 137.044 67.928 131.592 69.9323C129.08 70.8557 126.638 72.424 124.934 74.585C123.415 76.5114 122.331 79.5671 120.234 80.9092C119.345 81.4789 118.716 80.7241 117.906 80.1662C116.69 79.328 115.529 78.403 114.298 77.5876C112.568 76.442 110.695 75.5851 108.689 75.1365C105.753 74.4799 101.696 74.6338 100.856 78.3512C100.541 79.7475 100.783 81.2409 100.885 82.6478C101.024 84.5796 101.17 86.5108 101.344 88.4398C101.475 89.9044 101.642 91.319 101.928 92.7572C102.08 93.5239 102.558 94.9532 102.218 95.7209C101.793 96.6806 99.831 96.135 98.993 96.1684C97.3378 96.2345 95.6757 96.5151 94.1452 97.1987C92.9591 97.7287 91.7121 98.5081 91.2115 99.8224C90.9037 100.63 90.9848 101.459 91.1302 102.289C91.3045 103.286 91.1052 103.815 90.9749 104.821C88.7519 103.762 81.0482 101.411 80.0789 105.263C79.7562 106.545 80.4911 107.994 81.0518 109.076C82.0352 110.972 83.3245 112.706 84.6425 114.36C87.3918 117.809 90.6741 120.784 94.2055 123.329C90.068 125.107 88.988 130.352 92.5703 133.476C94.152 134.856 96.2786 135.163 98.2737 135.075C99.004 135.043 100.057 134.771 100.631 134.894C100.94 134.96 101.272 135.214 101.7 135.242C104.516 135.428 107.694 134.773 110.447 134.169C115.351 133.092 119.994 130.846 123.786 127.425C124.759 126.548 125.562 126.042 126.871 126.055C128.019 126.067 129.144 126.371 130.291 126.399C133.323 126.474 136.058 125.04 138.874 124.086C139.046 127.764 140.13 131.815 141.686 135.123C142.955 137.821 145.605 138.213 148.209 138.45C156.537 139.208 164.894 138.362 173.232 138.373C165.16 140.137 156.82 140.864 148.82 142.939C145.204 143.877 147.965 146.233 149.511 147.867C152.057 150.556 153.95 153.888 155.263 157.399C159.212 152.424 166.191 149.145 172.374 150.674C179.206 152.362 184.016 161.293 179.648 167.714C177.111 171.442 172.531 172.88 168.72 174.482C171.693 177.47 172.412 181.883 174.202 185.601C175.084 187.434 176.323 189.507 178.297 190.146C179.027 190.382 179.883 190.402 180.459 190.978C181.173 191.69 181.343 192.487 182.254 193.099C185.891 195.543 191.571 195.355 194.794 192.165C197.709 189.281 196.951 184.716 194.517 181.792C198.392 180.23 205.452 178.222 203.912 172.386C212.308 171.847 232.696 158.682 221.426 149.063C227.611 145.683 233.293 137.425 229.32 130.146C226.261 124.54 219.147 122.034 213.309 121.737Z" fill="#22251A"/>
</svg>
