<svg width="311" height="271" viewBox="0 0 311 271" fill="none" xmlns="http://www.w3.org/2000/svg">
<path d="M152.102 249.454C202.138 241.582 236.318 194.639 228.447 144.604C220.575 94.5688 173.632 60.3883 123.597 68.2598C73.5616 76.1313 39.3811 123.074 47.2527 173.109C55.1242 223.145 102.067 257.325 152.102 249.454Z" fill="#F1B299"/>
<path d="M0.5 0H310.5V271H0.5V0Z" fill="#F0E3E7"/>
<path d="M138.987 212.546C134.546 212.113 130.304 209.514 128.264 205.489C124.582 209.965 116.477 210.687 113.409 205.182C108.824 210.037 101.82 205.94 99.8164 200.633C96.3145 202.691 93.2098 198.756 92.1809 195.723C88.5346 195.561 85.1772 192.817 85.8451 188.9C80.466 189.947 78.5887 183.575 80.2133 179.441C74.78 179.694 73.3901 173.43 76.3504 169.73C71.4225 168.683 71.4586 162.925 73.372 159.261C68.1192 157.058 68.2456 150.199 71.928 146.589C67.7943 143.809 70.9713 138.448 73.6247 135.795C69.5633 132.257 72.7402 126.498 75.8811 123.502C70.7907 119.838 75.1951 113.52 78.8414 110.596C73.4623 107.726 77.8666 101.823 81.3865 99.4404C77.271 96.9855 80.7367 91.9493 83.6248 90.036C81.9642 86.6785 85.2855 83.1405 87.8126 81.2452C84.1122 74.3137 91.9282 67.5808 97.6864 64.9273C96.2423 58.9164 104.437 55.9381 108.625 53.5193C112.47 41.8765 130.846 42.6347 138.95 49.2773C152.037 37.0209 182.056 37.0028 184.601 58.5915C188.752 59.837 191.731 65.1078 189.493 69.1151C195.648 70.7577 197.164 78.9347 193.662 83.7001C197.778 86.2453 196.623 92.3284 193.825 95.4692C199.836 96.9674 200.485 104.711 197.471 109.224C200.503 111.733 199.457 116.372 197.525 119.26C201.749 121.192 201.424 127.022 199.168 130.379C203.915 132.979 202.67 139.513 199.781 143.105C202.832 146.463 200.269 151.354 197.615 154.134C202.489 158.629 198.879 166.282 195.16 170.362C198.265 176.066 194.113 182.979 189.366 186.373C190.756 192.853 184.186 198.052 178.554 199.586C172.85 206.68 160.359 211.138 151.803 207.51C148.734 211.138 143.752 213.016 138.987 212.546Z" fill="#22251A"/>
<path d="M121.225 255.778C103.246 256.248 73.8775 255.616 73.697 231.482C73.6067 218.124 73.1194 202.727 82.1267 191.86C103.174 172.33 127.29 167.167 118.499 132.203C117.795 130.398 118.445 126.625 119.853 130.488C124.42 121.679 142.579 124.748 150.521 127.257C160.106 134.315 152.362 149.73 159.438 158.665C188.265 168.033 201.839 171.283 205.287 205.037C213.699 235.543 188.482 244.587 164.023 251.374C164.077 251.356 164.113 251.356 164.167 251.338C163.788 251.41 163.427 251.482 163.048 251.572C163.066 251.572 163.102 251.554 163.12 251.554C149.276 253.702 135.232 255.381 121.225 255.778Z" fill="#CC763F"/>
<path opacity="0.4" d="M120.322 144.712C128.499 153.9 148.861 160.434 156.153 148.9C155.485 140.957 157.092 132.131 150.503 127.275C142.561 124.766 124.402 121.679 119.835 130.506C118.409 126.643 117.759 130.416 118.481 132.221C119.673 136.878 120.232 140.994 120.322 144.712Z" fill="#CC763F"/>
<path d="M136.081 188.286C125.214 180.344 110.81 188.286 98.6977 184.514C98.4089 184.423 98.0479 183.774 98.5894 183.774C108.229 183.629 117.813 181.914 127.416 181.788C127.398 181.788 127.398 181.788 127.38 181.788C129.781 181.03 141.677 187.257 136.081 188.286Z" fill="#BB520E"/>
<path d="M151.261 187.51C151.785 179.207 164.727 179.785 170.792 177.221C173.681 175.633 186.009 173.142 177.092 177.998C168.717 181.77 158.103 181.68 151.261 187.51Z" fill="#BB520E"/>
<path d="M207.164 223.395C207.146 223.287 207.11 223.197 207.074 223.106C207.074 222.745 206.912 222.348 206.478 222.186C198.699 219.063 190.81 214.135 187.02 206.355C184.745 201.68 184.547 196.373 184.096 191.283L182.633 174.766C182.272 170.777 182.489 162.528 176.514 162.745C176.063 162.763 175.558 163.142 175.612 163.647C176.911 174.496 177.886 185.362 178.536 196.265C178.68 198.593 179.204 201.409 178.41 203.666C177.651 205.778 175.503 207.511 173.843 208.937C170.323 211.969 166.243 214.388 161.965 216.157C152.416 220.128 141.947 221.031 131.712 220.633C126.857 220.453 122.001 219.966 117.29 218.774C112.813 217.637 107.849 215.85 104.383 212.691C102.235 210.724 101.82 208.196 101.712 205.417C101.586 202.258 101.477 199.099 101.351 195.94C101.116 189.731 100.882 183.521 100.665 177.312C100.647 176.698 100.105 176.319 99.5278 176.445C98.0657 176.752 96.8021 177.474 95.7912 178.575C95.3941 179.008 95.5205 179.55 95.8635 179.875C97.4519 196.626 95.5385 216.391 89.7984 226.987C87.524 231.193 74.708 233.774 70.8812 236.644C70.7188 236.771 70.6285 236.915 70.5744 237.078C69.9606 236.536 68.7693 237.005 69.0942 237.944C72.1448 246.699 79.2207 253.323 87.4157 257.349C97.3978 262.258 108.716 263.143 119.672 263.035C125.647 262.98 131.64 262.692 137.597 262.421C143.68 262.15 149.781 261.789 155.828 261.103C166.767 259.894 178.5 258.053 187.76 251.681C192.76 248.233 196.785 243.63 200.558 238.919C204.114 234.514 207.941 229.352 207.164 223.395Z" fill="#6B2300"/>
<path d="M174.744 105.379C173.499 102.166 172.632 98.0322 173.733 94.6567C170.376 92.2379 168.174 88.9346 167.181 84.7288C163.481 83.754 159.69 81.263 158.282 77.4543C156.369 76.8045 154.834 75.5048 153.571 73.7539C152.235 71.8947 151.405 70.3062 149.455 69.1149C145.484 66.678 142.289 63.0859 140.141 58.8259C138.372 61.7682 136.242 64.4217 133.3 66.4795C131.711 67.5986 129.942 68.4109 128.372 69.6022C127.072 70.595 125.917 71.7683 124.635 72.7792C122.505 74.4579 120.231 75.3063 117.758 75.2521C116.856 77.4002 115.664 79.4399 113.986 80.9922C112.108 82.7432 110.141 83.1403 107.92 83.4652C107.433 86.4616 106.007 89.2956 103.967 91.3354C103.787 92.7253 103.642 94.1152 103.516 95.5051C103.101 94.9274 102.577 94.4581 101.892 94.1693C100.267 93.4653 98.516 94.1693 97.9204 95.9563C97.6135 96.8589 97.6315 97.8517 97.6315 98.7903C97.6135 99.9997 97.6677 101.227 97.9565 102.4C98.2092 103.447 98.6063 104.458 98.9673 105.451C99.3283 106.426 99.7254 107.382 100.303 108.249C101.061 109.404 102.108 110.325 103.318 110.758C103.263 131.336 121.856 141.192 138.95 142.112C151.459 142.816 161.73 140.722 169.6 126.805C172.741 119.567 174.383 114.765 175.25 106.552C175.087 106.155 174.889 105.776 174.744 105.379Z" fill="#CC763F"/>
<path d="M140.268 111.697C137.831 111.57 132.506 108.465 135.123 106.985C136.134 106.426 137.181 108.574 140.466 108.79C143.823 109.025 143.932 107.509 145.25 108.556C146.062 110.993 142.181 111.787 140.268 111.697Z" fill="#BB520E"/>
<path d="M137.379 127.779C132.325 127.491 130.43 122.256 130.231 120.252C130.123 119.241 130.683 119.205 132.018 121.444C133.174 120.469 133.589 122.346 134.509 122.689C137.073 122.761 139.491 123.917 141.928 123.05C143.986 121.299 145.484 120.559 145.538 121.317C145.647 122.617 142.777 128.086 137.379 127.779Z" fill="#BB520E"/>
<path d="M137.722 121.083C135.972 117.04 129.852 119.079 127.361 116.787C127.361 116.787 127.975 118.159 128.39 118.7C131.026 122.238 134.6 123.411 138.463 123.718C141.206 123.628 145.701 122.671 147.614 120.126C148.39 119.278 149.203 118.087 149.149 117.545C145.268 120.704 140.376 116.949 137.722 121.083Z" fill="#AA460E"/>
<path d="M92.8843 104.873C93.498 104.909 94.2381 104.458 94.1839 103.79C94.1839 103.808 94.1839 103.826 94.1839 103.826C94.1659 103.772 94.1659 103.736 94.1479 103.682C94.1479 103.7 94.1659 103.7 94.1659 103.718C94.184 103.736 94.1839 103.772 94.1839 103.79C94.1839 103.772 94.1839 103.772 94.1839 103.754C94.1839 103.754 94.1839 103.754 94.1839 103.736C94.1298 103.592 94.0395 103.465 93.9132 103.357C93.9312 103.375 93.9493 103.393 93.9673 103.411C93.841 103.303 93.6966 103.213 93.5341 103.158C93.5341 103.158 93.5522 103.158 93.5522 103.176C93.5341 103.176 93.5341 103.176 93.5161 103.158C93.5522 103.158 93.5702 103.176 93.6063 103.195C93.498 103.158 93.3897 103.122 93.2814 103.122C93.2995 103.122 93.3356 103.122 93.3717 103.14C93.2634 103.122 93.1731 103.122 93.0648 103.122C93.1009 103.122 93.119 103.122 93.1551 103.122C92.3608 103.176 91.6388 103.574 90.989 104.025C90.989 104.025 90.989 104.043 91.007 104.043C91.007 104.043 91.007 104.025 90.989 104.025C91.0431 104.115 91.1153 104.205 91.1875 104.278C91.1875 104.278 91.1695 104.278 91.1695 104.259C91.1875 104.278 91.2056 104.296 91.2236 104.296L91.2056 104.278C91.2236 104.296 91.2417 104.296 91.2417 104.314C91.2056 104.296 91.1695 104.26 91.1514 104.223C91.6208 104.639 92.2525 104.855 92.8843 104.873ZM90.3933 111.714C90.9168 111.66 91.4222 111.48 91.8735 111.245C91.8193 111.227 91.7651 111.227 91.729 111.227C91.7471 111.227 91.7652 111.227 91.8013 111.227C91.2778 111.191 90.8085 111.444 90.3933 111.714ZM89.7254 118.249C90.2489 118.141 91.8915 118.231 91.7832 117.635C91.8193 117.653 91.8373 117.671 91.8735 117.689C91.7832 117.635 91.711 117.599 91.6027 117.563C91.6388 117.581 91.6749 117.581 91.693 117.599C91.5666 117.563 91.4222 117.545 91.2958 117.563C91.3319 117.563 91.368 117.563 91.4041 117.563C90.7724 117.599 90.1947 117.906 89.6893 118.267C89.7074 118.249 89.7074 118.249 89.7254 118.249ZM89.563 124.188C90.3933 124.169 91.2236 123.827 91.8735 123.321L91.8554 123.339C92.0359 123.195 91.8373 123.05 91.6749 123.032C91.6929 123.032 91.7291 123.032 91.7471 123.032C91.6569 123.014 91.5485 123.014 91.4583 123.014C91.4763 123.014 91.5125 123.014 91.5305 123.014C90.6821 123.068 89.9781 123.628 89.3644 124.188C89.4185 124.188 89.4908 124.188 89.563 124.188ZM89.7796 132.004C90.0684 131.985 90.3572 131.949 90.646 131.859C90.628 131.859 90.5919 131.877 90.5558 131.877C91.0612 131.715 91.5486 131.462 91.8915 131.065C91.8735 131.083 91.8554 131.119 91.8374 131.137C91.9096 131.047 91.9818 130.939 92.0179 130.83C92.0179 130.848 91.9998 130.866 91.9998 130.884C91.9998 130.884 91.9998 130.902 91.9818 130.902C92.0179 130.794 92.0179 130.668 91.9998 130.541C91.9998 130.577 91.9998 130.596 92.0179 130.632C91.9818 130.433 91.8193 130.289 91.6207 130.253C91.6568 130.253 91.693 130.253 91.711 130.271C90.6641 130.18 89.8698 131.173 89.3644 131.967C89.5088 131.985 89.6532 131.985 89.7796 132.004ZM90.3211 155.83C92.1984 147.834 84.8156 146.444 88.7868 139.152C86.2958 137.906 86.5846 134.783 87.433 132.563C85.5377 130.722 86.0972 127.22 87.2344 125.072C84.942 124.025 85.3571 120.956 86.6207 119.242C84.6171 117.274 86.2777 113.935 87.6135 112.003C85.8264 109.621 87.451 106.065 89.1839 104.079C88.5882 96.4977 97.9927 95.2522 102.541 91.3532C102.578 91.3171 102.614 91.2991 102.65 91.263C102.632 91.263 102.632 91.281 102.614 91.281C102.704 91.2088 102.794 91.1366 102.884 91.0824C102.848 91.1185 102.812 91.1366 102.776 91.1727C103.227 90.8297 103.643 90.4687 104.058 90.0716C104.04 90.1077 104.004 90.1258 103.967 90.1619C104.076 90.0536 104.202 89.9272 104.31 89.8189C104.292 89.8369 104.256 89.8731 104.22 89.8911C104.617 89.494 104.96 89.0608 105.285 88.6276C105.267 88.6456 105.249 88.6817 105.231 88.6997C106.368 87.382 107.09 85.6853 107.614 84.169C107.758 84.151 107.83 84.2954 107.812 84.4037C108.083 94.6926 96.332 96.5879 91.0973 102.527C98.3898 99.4941 94.9601 110.036 89.7435 105.198C88.5702 106.678 87.6496 108.808 88.2091 110.686C88.1911 110.668 88.1911 110.631 88.1731 110.613C88.2453 110.758 88.3355 110.902 88.4438 111.029C93.8229 106.028 96.4223 114.314 89.0756 112.906C88.1911 114.151 86.7831 116.335 87.8481 117.761C94.1118 112.075 96.0973 121.877 88.0287 119.946C87.3788 120.866 86.7651 122.238 87.3788 123.321C87.3608 123.303 87.3427 123.267 87.3247 123.231C87.3608 123.303 87.4149 123.357 87.451 123.411C87.433 123.393 87.433 123.375 87.4149 123.357C87.6135 123.592 87.8842 123.754 88.155 123.881C93.5522 118.393 94.8879 126.534 88.2272 125.415C87.2164 127.112 86.9817 129.494 87.8481 131.281C87.8301 131.263 87.812 131.245 87.794 131.227C87.8481 131.281 87.8842 131.354 87.9384 131.408C92.1984 124.169 96.8555 134.115 88.7687 133.159C88.173 134.729 87.7579 137.094 89.6713 137.924C93.5341 134.278 95.7183 140.343 90.303 139.693C89.8337 140.415 89.5269 141.245 89.2922 142.076C89.3103 142.04 89.3103 142.004 89.3283 141.968C88.859 143.303 89.1297 144.729 89.9059 145.903V145.885C90.3752 146.679 90.8987 147.437 91.35 148.231C91.35 148.213 91.332 148.213 91.332 148.195C92.5052 149.892 92.5594 152.148 91.711 154.007C91.7291 153.989 91.7291 153.953 91.7471 153.917C91.35 154.549 91.2958 156.011 90.3211 155.83Z" fill="#382F2A"/>
<path d="M179.744 93.2489C180.124 93.2309 180.503 93.2128 180.846 93.1045C180.43 92.942 179.979 93.0503 179.6 93.2489C179.654 93.2489 179.708 93.2489 179.744 93.2489ZM182.723 104.134C183.138 104.115 183.625 104.043 183.896 103.7C183.896 103.7 183.896 103.718 183.878 103.718C183.968 103.556 183.698 103.484 183.571 103.484C183.607 103.484 183.643 103.484 183.68 103.502C183.138 103.538 182.615 103.791 182.145 104.079C182.326 104.115 182.524 104.134 182.723 104.134ZM183.337 123.448C183.535 123.466 183.734 123.412 183.896 123.285C183.571 123.159 183.21 123.051 182.849 123.051C182.867 123.051 182.903 123.051 182.921 123.051C182.705 123.051 182.488 123.087 182.272 123.159C182.596 123.303 182.957 123.448 183.337 123.448ZM181.531 133.267C181.604 133.267 181.658 133.267 181.712 133.231C181.802 133.195 181.874 133.123 181.929 133.033C181.513 132.834 181.008 132.834 180.557 132.979C180.864 133.087 181.189 133.249 181.531 133.267ZM180.701 138.917C180.918 138.917 181.134 138.863 181.351 138.791C180.918 138.647 180.43 138.719 179.997 138.845C180.232 138.881 180.466 138.899 180.701 138.917ZM179.907 144.224C180.178 144.224 180.448 144.188 180.665 144.026C180.557 143.99 180.43 143.953 180.304 143.935C180.34 143.935 180.376 143.953 180.412 143.953C179.979 143.881 179.528 144.008 179.131 144.17C179.383 144.224 179.636 144.224 179.907 144.224ZM177.145 160.921C176.676 157.149 172.723 153.177 176.64 149.73C174.871 148.647 174.907 146.3 176.026 144.766C174.564 143.105 175.322 140.542 176.622 139.026C174.889 137.239 175.791 134.278 177.452 132.744C176.315 131.697 175.936 130.072 176.387 128.592C176.387 128.628 176.369 128.646 176.369 128.683C176.911 126.661 178.102 124.82 179.582 123.358C176.17 120.867 177.199 116.155 179.744 113.43C177.073 111.065 177.308 106.877 179.293 104.152C176.441 102.563 175.358 99.1515 176.08 96.0829C171.676 94.711 165.9 89.7651 168.192 84.7289C169.04 84.4401 167.831 86.191 168.192 86.7506C168.192 86.7326 168.192 86.7326 168.192 86.7145C169.456 90.1803 174.113 92.1658 177.488 93.0864C183.95 86.8048 186.152 98.1587 177.308 96.3717C176.459 99.0432 177.56 102.004 180.087 103.285C184.636 98.971 187.849 106.462 181.243 105.072C179.871 107.022 179.456 110.144 181.55 111.751C188.21 107.816 187.795 117.942 181.279 114.531C181.008 114.838 180.737 115.144 180.485 115.469L180.503 115.451C178.697 117.563 178.571 120.722 181.044 122.365C186.712 120.126 185.449 127.184 180.593 124.08C180.448 124.206 180.286 124.332 180.142 124.477C180.142 124.477 180.16 124.477 180.16 124.459C179.654 125 179.239 125.632 178.842 126.264C178.842 126.264 178.842 126.264 178.842 126.246C177.867 127.906 176.82 130.361 178.625 131.841C180.051 130.74 183.896 130.957 183.246 133.412C182.578 135.379 180.376 134.621 179.004 133.935C178.138 134.766 177.38 135.939 177.578 137.184C177.578 137.166 177.56 137.148 177.56 137.13C177.633 137.365 177.777 137.582 177.921 137.78C183.824 134.17 185.196 142.401 178.192 140.109C177.416 140.903 176.802 142.058 177.145 143.177C177.145 143.159 177.127 143.141 177.127 143.123C177.145 143.177 177.181 143.249 177.217 143.304C182.903 139.26 184.474 147.69 177.524 145.632C177.163 146.174 176.73 146.787 176.838 147.473C176.838 147.455 176.838 147.455 176.838 147.437C176.929 147.816 177.217 148.123 177.524 148.358C177.488 148.34 177.47 148.322 177.434 148.286C177.524 148.358 177.614 148.412 177.723 148.466C177.687 148.448 177.669 148.43 177.633 148.412C177.777 148.484 177.903 148.556 178.048 148.611C183.03 146.138 182.38 151.769 177.795 150.253C175.051 152.203 175.99 155.578 177.759 157.853C178.264 158.611 178.517 162.636 177.145 160.921Z" fill="#382F2A"/>
<path d="M158.571 94.0606C156.062 92.8512 153.842 96.7682 156.387 98.1581C158.788 99.4578 161.098 95.2881 158.571 94.0606Z" fill="#2A2521"/>
<path d="M164.365 89.6023C160.213 89.873 155.755 88.5012 151.657 90.4326C149.293 89.2232 149.636 88.2665 151.242 87.6167C154.87 86.1726 160.665 86.299 164.365 89.6023Z" fill="#22251A"/>
<path d="M123.823 93.4832C122.307 90.8297 118.426 93.5193 119.618 96.0284C121.152 99.2053 125.538 96.3352 123.823 93.4832Z" fill="#2A2521"/>
<path d="M114.96 88.5735C119.112 88.8443 123.571 87.4725 127.668 89.4039C130.033 88.1945 129.69 87.2378 128.083 86.588C124.455 85.1259 118.661 85.2522 114.96 88.5735Z" fill="#22251A"/>
</svg>
