<svg width="310" height="271" viewBox="0 0 310 271" fill="none" xmlns="http://www.w3.org/2000/svg">
<rect width="310" height="271" fill="#F0E3E7"/>
<path d="M82.8888 57.1997C82.1954 58.4244 81.5409 59.7722 81.3595 61.295C81.0549 63.8158 82.1954 66.2458 83.7571 67.302C85.3187 68.3518 87.1915 68.2351 88.9281 67.626C92.5764 66.343 95.9135 62.915 97.9807 58.3272C99.2702 55.4695 101.033 51.3677 99.1989 48.8599C93.8853 41.5829 85.3771 52.8127 82.8888 57.1997Z" fill="#D0D1D3"/>
<path d="M21.4777 266.141C21.8147 265.888 16.3326 255.423 34.5608 229.432C37.1788 225.699 40.0818 222.349 42.8423 218.804C46.4322 214.204 50.1129 209.428 51.4931 202.805C52.2642 199.118 52.1087 195.12 50.6572 191.822C47.4496 184.545 40.2503 184.655 34.2239 185.244C27.8476 185.867 20.0456 185.394 17.7193 176.412C16.851 173.075 17.0324 169.407 18.0239 166.135C21.7693 153.804 27.692 139.198 33.6407 128.182C40.8788 114.762 48.6419 101.601 58.3943 91.4335C68.1532 81.2664 80.1736 74.2421 92.5309 74.6827C94.449 74.754 96.4319 75.0262 98.0778 76.3351C100.981 78.6355 102.128 83.6899 101.707 88.1741C101.285 92.6582 99.6071 96.7212 97.9547 100.661C106.307 94.8161 116.099 90.2088 125.235 87.1243C134.372 84.0334 144.183 83.489 153.112 87.5196C157.713 89.5997 162.087 92.9498 165.217 97.907C168.25 102.709 170.012 109.13 169.41 115.351C169.008 119.505 171.069 124.19 174.017 125.596C176.525 126.788 179.318 126.484 181.903 125.609C187.482 123.717 192.394 119.375 197.364 115.494C210.584 105.171 225.027 97.6673 239.99 93.3646C246.373 91.5307 253.17 90.306 259.307 93.2803C268.534 97.745 274.159 111.152 274.632 124.274C275.105 137.396 271.288 150.162 266.376 161.534C261.465 172.907 255.412 183.359 250.753 194.926C248.958 199.39 247.325 204.27 248.031 209.408C248.362 211.845 249.302 214.106 250.773 215.616C253.65 218.565 256.663 217.009 259.404 215.5C264.251 212.83 269.104 210.16 273.952 207.49C275.215 206.797 276.544 206.292 277.904 206.123C287.151 204.983 288.888 218.39 286.212 227.287C284.002 234.622 279.829 240.836 278.429 248.515C277.03 256.194 280.295 261.819 286.328 266.147H21.4777V266.141Z" fill="#D0D1D3"/>
<path d="M249.593 75.4538C250.423 74.3198 251.226 73.0498 251.583 71.5658C252.172 69.097 251.317 66.5503 249.885 65.3256C248.453 64.1009 246.58 64.0037 244.785 64.4119C241.02 65.2673 237.307 68.2999 234.728 72.6221C233.121 75.3178 231.916 78.8234 232.441 81.8885C234.145 91.9195 246.619 79.5233 249.593 75.4538Z" fill="#D0D1D3"/>
<path d="M196.606 71.4751C195.122 74.0347 194.163 76.7369 193.956 79.5038C193.399 86.9688 201.823 92.2889 209.696 90.0727C222.902 86.3532 230.574 74.0995 229.907 62.0532C229.544 55.4695 224.043 51.7111 217.128 54.653C209.547 57.8801 200.89 64.0814 196.606 71.4751Z" fill="#D0D1D3"/>
<path d="M164.245 134.461L162.107 133.975C157.014 133.223 153.229 128.868 153.21 123.717C153.19 118.351 153.145 112.759 153.281 109.072C145.596 108.327 137.911 107.575 130.225 106.83C128.845 106.694 126.959 106.687 125.579 106.551C125.573 111.813 125.774 119.92 126.175 126.672C126.363 129.86 124.264 132.731 121.166 133.521C121.866 140.52 123.603 146.287 128.586 150.434C133.575 154.581 140.341 156.272 146.782 155.579C151.13 155.112 155.484 153.538 158.601 150.44C162.839 146.241 164.699 140.429 164.245 134.461Z" fill="#F4AB7A"/>
<path d="M141.436 141.79C144.112 142.775 147.209 142.509 149.685 141.096" stroke="#AF4E2C" stroke-width="2.9919" stroke-miterlimit="10" stroke-linecap="round" stroke-linejoin="round"/>
<path d="M116.047 96.4814C119.87 106.862 139.245 115.157 150.942 117.93C169.358 122.291 175.177 115.993 175.417 104.361C175.585 96.4231 174.866 88.6082 175.546 79.8797C176.149 72.1296 176.149 63.8093 172.592 57.8347C166.384 47.3954 144.455 42.9502 127.303 54.1476C113.611 63.09 110.396 81.1368 116.047 96.4814Z" fill="#EFB289"/>
<path d="M174.535 77.0544C175.89 81.7848 179.279 84.7073 183.089 88.4722C184.255 89.6191 183.977 91.5696 182.538 92.3407C179.305 94.0774 174.224 96.6694 172.429 96.773" fill="#EFB289"/>
<path d="M161.229 97.9384C165.087 96.4154 166.98 92.0529 165.457 88.1946C163.934 84.3362 159.571 82.4432 155.713 83.9663C151.855 85.4893 149.962 89.8518 151.485 93.7101C153.008 97.5685 157.37 99.4615 161.229 97.9384Z" fill="#ED703B"/>
<path d="M169.973 82.4263C169.973 83.2946 169.267 84.0009 168.399 84.0009C167.531 84.0009 166.824 83.2946 166.824 82.4263C166.824 81.558 167.531 80.8517 168.399 80.8517C169.267 80.8517 169.973 81.558 169.973 82.4263Z" fill="#2C1204"/>
<path d="M162.541 77.6182C162.768 76.8924 163.26 76.3092 163.844 75.8556C164.433 75.4085 165.127 75.0974 165.852 74.9419C166.578 74.7864 167.336 74.7864 168.055 74.9549C168.775 75.1298 169.462 75.4603 169.967 76.0241L167.978 76.2963C167.369 76.387 166.785 76.4906 166.209 76.6138C165.632 76.7369 165.055 76.873 164.466 77.0414C163.863 77.2099 163.26 77.4043 162.541 77.6182Z" fill="#2C1204"/>
<path d="M169.87 104.219C171.049 102.754 172.825 101.789 174.691 101.581" stroke="#AF4E2C" stroke-width="2.9919" stroke-miterlimit="10" stroke-linecap="round" stroke-linejoin="round"/>
<path d="M132.247 80.1972C132.889 78.4411 134.573 77.1192 136.427 76.9054C138.28 76.6915 140.224 77.5987 141.248 79.1604" stroke="#AF4E2C" stroke-width="2.9919" stroke-miterlimit="10" stroke-linecap="round" stroke-linejoin="round"/>
<path d="M136.407 90.3319C137.506 90.3319 138.397 89.4412 138.397 88.3426C138.397 87.2439 137.506 86.3532 136.407 86.3532C135.309 86.3532 134.418 87.2439 134.418 88.3426C134.418 89.4412 135.309 90.3319 136.407 90.3319Z" fill="white"/>
<path d="M161.29 48.7822C158.089 54.7308 143.678 76.8924 143.678 76.8924C140.412 73.2895 136.44 71.9093 132.863 73.8857C130.458 75.2141 129.15 77.9681 128.741 80.6832C128.093 85.0183 131.236 90.1375 135.111 92.8786L128.165 110.77C114.595 101.724 108.77 85.2386 112.671 71.0993C113.74 67.2113 115.217 63.4075 117.382 60.0055C122.08 52.6183 134.8 46.7086 143.516 45.8662C160.156 44.2591 161.29 48.7822 161.29 48.7822Z" fill="#3D1A2B"/>
<path d="M170.174 54.4392C163.532 44.8488 149.101 37.4875 130.108 39.2501C119.339 40.2545 110.701 47.4214 106.586 57.1997C102.581 66.7318 102.134 76.3999 95.7904 84.9211C89.0836 93.9283 88.5911 101.614 89.7186 112.597C91.3451 112.947 93.8594 113.446 96.5226 113.971C97.5141 114.165 100.281 105.009 101.279 105.204C102.206 105.385 101.363 114.911 102.238 115.079C105.821 115.772 108.66 116.31 108.66 116.31L115.127 103.726L113.656 116.096C113.656 116.096 136.433 120.95 143.036 121.637C142.557 112.26 135.118 92.8786 135.118 92.8786C135.118 92.8786 122.676 83.8325 125.002 73.6654C125.475 71.5853 126.901 69.7838 128.566 68.449C129.908 67.3798 131.476 66.641 133.031 65.9218C140.211 62.5846 162.437 56.1694 170.174 54.4392Z" fill="#3D1A2B"/>
<path d="M150.948 63.6473C149.386 68.2286 149.011 82.5494 145.434 86.1005C144.39 81.2988 143.088 76.7758 142.44 71.9028" fill="#3D1A2B"/>
<path d="M132.046 91.5955C138.183 95.7946 143.652 111.347 145.136 121.326" stroke="#3D1A2B" stroke-width="2.9919" stroke-miterlimit="10" stroke-linecap="round" stroke-linejoin="round"/>
<path d="M158.867 45.7106C167.265 45.7106 175.132 51.7565 178.093 58.4762C179.46 61.5737 179.545 66.5568 179.383 70.7558C178.475 71.1576 171.308 71.7408 171.308 71.7408L167.997 63.6019L166.001 72.0454C166.001 72.0454 154.098 72.5378 151.434 72.6934C151.285 70.9632 150.456 61.3339 150.3 59.6038" fill="#3D1A2B"/>
<path d="M159.677 45.6458C165.729 45.9698 171.606 48.7692 175.669 53.2598C179.732 57.7505 181.936 63.8806 181.65 69.9329" stroke="#3D1A2B" stroke-width="2.9919" stroke-miterlimit="10" stroke-linecap="round" stroke-linejoin="round"/>
<path d="M87.1915 111.554C85.1762 105.21 86.6536 98.2181 89.4724 92.1917C92.2912 86.1653 96.3801 80.8322 99.9117 75.2011C103.832 68.9544 107.092 62.293 109.625 55.3658" stroke="#3D1A2B" stroke-width="2.9919" stroke-miterlimit="10" stroke-linecap="round" stroke-linejoin="round"/>
<path d="M81.7418 109.189C80.8411 100.279 84.0358 91.0318 90.2501 84.5842C92.8421 81.8885 95.9006 79.6853 98.6158 77.1062C102.744 73.1794 106.035 68.3842 108.213 63.1224" stroke="#3D1A2B" stroke-width="2.9919" stroke-miterlimit="10" stroke-linecap="round" stroke-linejoin="round"/>
<path d="M170.142 48.9442C174.166 51.1538 178.015 53.7977 181.041 57.2515C184.067 60.7054 186.238 65.0275 186.569 69.6024" stroke="#3D1A2B" stroke-width="2.9919" stroke-miterlimit="10" stroke-linecap="round" stroke-linejoin="round"/>
<path d="M161.517 54.491C162.405 54.9382 163.519 55.301 164.336 54.7373C165.295 54.0763 165.178 52.6183 165.807 51.6398C166.643 50.3374 168.645 50.2661 169.948 51.089C171.257 51.912 172.021 53.357 172.669 54.7632C173.207 55.9231 173.641 57.4848 172.682 58.3402C171.879 59.0594 170.615 58.7614 169.643 58.3013C168.671 57.8412 167.647 57.2321 166.598 57.4589C165.334 57.731 164.641 59.0594 163.643 59.8889C156.819 65.5718 154.143 50.791 161.517 54.491Z" fill="#542D42"/>
<path d="M232.059 266.141C227.886 238.802 220.11 206.078 211.038 179.477C207.175 168.15 202.704 156.648 193.723 147.259C187.424 140.675 177.218 136.657 166.507 134.843C166.099 134.772 165.276 134.642 165.276 134.642C165.276 134.642 164.511 142.114 159.975 147.531C155.789 152.533 152.309 154.335 145.933 155.521C141.961 156.259 130.783 152.294 126.059 147.421C120.233 141.401 121.147 133.495 121.147 133.495C121.147 133.495 120.298 133.696 119.87 133.8C110.066 136.146 100.204 138.828 92.473 144.032C85.2478 148.898 84.8914 226.049 113.429 226.775C136.887 227.371 163.863 225.55 182.13 224.617C189.984 224.215 196.458 230.695 196.049 238.549L194.63 266.147H232.059V266.141Z" fill="#005D38"/>
<path d="M114.511 135.504C114.336 146.604 121.639 157.445 131.988 161.45C135.338 162.746 138.909 163.368 142.486 163.705C144.767 163.919 147.067 164.016 149.341 163.731C155.666 162.927 161.349 159.124 165.36 154.166C169.365 149.209 171.84 143.176 173.544 137.04" stroke="#004224" stroke-width="3" stroke-miterlimit="10"/>
<path d="M146.037 156.272C146.011 158.651 146.147 161.029 146.445 163.394" stroke="#004224" stroke-width="3" stroke-miterlimit="10" stroke-linecap="round" stroke-linejoin="round"/>
<path d="M152.743 155.624C153.877 158.093 153.877 159.726 154.668 162.325" stroke="#004224" stroke-width="3" stroke-miterlimit="10" stroke-linecap="round" stroke-linejoin="round"/>
<path d="M157.973 152.138C159.373 153.823 160.779 155.514 162.178 157.199" stroke="#004224" stroke-width="3" stroke-miterlimit="10" stroke-linecap="round" stroke-linejoin="round"/>
<path d="M161.874 147.92C163.844 148.658 165.781 149.488 167.667 150.408" stroke="#004224" stroke-width="3" stroke-miterlimit="10" stroke-linecap="round" stroke-linejoin="round"/>
<path d="M165.295 139.774C167.524 140.364 169.753 140.954 171.983 141.543" stroke="#004224" stroke-width="3" stroke-miterlimit="10" stroke-linecap="round" stroke-linejoin="round"/>
<path d="M137.716 162.124C138.001 160.296 138.351 158.476 138.766 156.674" stroke="#004224" stroke-width="3" stroke-miterlimit="10" stroke-linecap="round" stroke-linejoin="round"/>
<path d="M129.266 159.551C130.277 157.64 131.282 155.735 132.293 153.823" stroke="#004224" stroke-width="3" stroke-miterlimit="10" stroke-linecap="round" stroke-linejoin="round"/>
<path d="M121.989 153.784C123.557 152.637 125.126 151.484 126.687 150.337" stroke="#004224" stroke-width="3" stroke-miterlimit="10" stroke-linecap="round" stroke-linejoin="round"/>
<path d="M117.356 147.278C119.125 146.39 121.004 145.71 122.935 145.263" stroke="#004224" stroke-width="3" stroke-miterlimit="10" stroke-linecap="round" stroke-linejoin="round"/>
<path d="M115.807 140.079C117.609 139.729 119.41 139.379 121.212 139.029" stroke="#004224" stroke-width="3" stroke-miterlimit="10" stroke-linecap="round" stroke-linejoin="round"/>
<path d="M121.166 134.746C120.739 140.474 123.907 146.105 128.515 149.546C133.115 152.987 137.554 155.093 143.295 155.3C146.542 155.417 151.305 154.484 154.195 153.006C158.31 150.894 160.882 146.688 162.995 142.574C164.2 140.228 165.353 137.688 165.068 135.063" stroke="#004224" stroke-width="3" stroke-miterlimit="10" stroke-linecap="round" stroke-linejoin="round"/>
<path d="M178.774 142.114C184.204 161.398 186.226 181.642 184.722 201.619" stroke="#004224" stroke-width="3" stroke-miterlimit="10" stroke-linecap="round" stroke-linejoin="round"/>
<path d="M115.931 205.631C116.89 200.861 122.411 198.541 127.264 198.185C132.111 197.829 137.23 198.587 141.656 196.578C144.391 195.34 146.639 193.079 147.864 190.344C148.771 188.316 149.05 185.776 147.709 184.007C145.732 181.415 141.105 182.322 139.576 185.206C138.047 188.083 139.207 191.828 141.54 194.103C143.879 196.371 147.125 197.433 150.32 198.075C155.07 199.034 160.39 199.105 164.317 196.267C169.397 192.593 170.343 185.581 171.523 179.425C172.702 173.269 175.579 166.219 181.722 164.969" stroke="#107A4D" stroke-width="3" stroke-miterlimit="10" stroke-linecap="round" stroke-linejoin="round"/>
<path d="M199.711 162.111C197.222 165.293 196.872 169.88 198.466 173.587C200.06 177.294 203.424 180.106 207.234 181.441" stroke="#107A4D" stroke-width="3" stroke-miterlimit="10" stroke-linecap="round" stroke-linejoin="round"/>
<path d="M190.528 154.076C187.301 172.129 195.369 191.712 210.376 202.254" stroke="#107A4D" stroke-width="3" stroke-miterlimit="10" stroke-linecap="round" stroke-linejoin="round"/>
<path d="M187.528 203.751C185.597 212.875 190.762 223.003 199.283 226.794C200.838 227.488 202.529 227.993 204.227 227.844" stroke="#107A4D" stroke-width="3" stroke-miterlimit="10" stroke-linecap="round" stroke-linejoin="round"/>
<path d="M208.925 221.442C205.905 220.632 203.236 218.578 201.674 215.869C200.65 214.087 200.125 211.767 201.214 210.018C202.128 208.553 203.968 207.886 205.698 207.918C207.422 207.95 209.074 208.579 210.688 209.195" stroke="#107A4D" stroke-width="3" stroke-miterlimit="10" stroke-linecap="round" stroke-linejoin="round"/>
<path d="M261.918 151.821C265.353 144.408 271.204 129.691 272.682 122.155C274.029 115.299 273.485 108.696 266.7 106.901C260.868 105.359 255.574 109.228 254.298 112.921C252.354 118.52 250.112 122.343 247.721 125.512C245.835 128.02 244.247 126.769 242.342 130.657C240.975 133.443 238.947 147.498 239.057 150.564C241.74 151.866 257.084 150.337 261.918 151.821Z" fill="#F4AB7A"/>
<path d="M240.975 134.538C241.383 132.296 241.04 127.747 240.884 125.428C240.748 123.419 240.411 121.358 240.832 119.44C241.007 118.656 241.351 117.865 241.979 117.541C242.342 117.354 242.757 117.341 243.159 117.425C244.163 117.632 245.044 118.423 245.673 119.388C246.295 120.354 246.684 121.481 247.021 122.615C247.325 123.652 247.591 124.702 247.811 125.765" fill="#F4AB7A"/>
<path d="M250.928 128.519C253.935 131.713 255.218 136.444 254.24 140.714" stroke="#AF4E2C" stroke-width="2.9919" stroke-miterlimit="10" stroke-linecap="round" stroke-linejoin="round"/>
<path d="M260.758 133.871C257.706 133.307 255.898 130.262 254.091 127.734C252.471 125.473 250.565 123.419 248.427 121.643" stroke="#3D1A2B" stroke-width="2.9919" stroke-miterlimit="10" stroke-linecap="round" stroke-linejoin="round"/>
<path d="M259.138 123.153C265.443 126.166 268.93 132.899 271.988 139.178" stroke="#3D1A2B" stroke-width="2.9919" stroke-miterlimit="10" stroke-linecap="round" stroke-linejoin="round"/>
<path d="M264.011 124.825C267.219 128.519 270.524 132.121 273.919 135.647" stroke="#3D1A2B" stroke-width="2.9919" stroke-miterlimit="10" stroke-linecap="round" stroke-linejoin="round"/>
<path d="M259.437 123.237C260.927 124.721 262.132 126.49 262.968 128.421C263.201 128.953 263.402 129.555 263.182 130.093C262.722 131.201 261.07 130.942 260.026 130.352C258.802 129.659 257.687 128.771 256.734 127.728C255.6 126.49 254.674 124.695 255.419 123.198C255.795 122.44 256.54 121.915 257.324 121.598C260.149 120.444 263.402 121.585 265.981 123.218C268.56 124.851 270.861 126.989 273.699 128.11" stroke="#3D1A2B" stroke-width="2.9919" stroke-miterlimit="10" stroke-linecap="round" stroke-linejoin="round"/>
<path d="M200.157 266.141C206.903 232.05 220.245 185.244 230.419 152.106C232.065 146.734 237.541 143.52 243.042 144.673C248.589 145.84 254.291 146.909 259.767 148.38C265.359 149.877 268.774 155.514 267.543 161.171C259.91 196.26 249.38 233.741 235.836 266.141H200.157Z" fill="#005D38"/>
<path d="M229.635 156.499C242.362 156.234 255.147 160.096 265.593 167.366" stroke="#004224" stroke-width="3" stroke-miterlimit="10" stroke-linecap="round" stroke-linejoin="round"/>
<path d="M235.486 155.767C237.139 151.425 238.467 148.347 241.74 145.043" stroke="#004224" stroke-width="3" stroke-miterlimit="10" stroke-linecap="round" stroke-linejoin="round"/>
<path d="M245.09 157.607C246.243 153.842 247.747 150.181 249.581 146.695" stroke="#004224" stroke-width="3" stroke-miterlimit="10" stroke-linecap="round" stroke-linejoin="round"/>
<path d="M257.395 148.73C256.871 152.449 255.795 156.084 254.207 159.486" stroke="#004224" stroke-width="3" stroke-miterlimit="10" stroke-linecap="round" stroke-linejoin="round"/>
<path d="M262.637 150.868C262.78 155.268 262.028 159.694 260.447 163.802" stroke="#004224" stroke-width="3" stroke-miterlimit="10" stroke-linecap="round" stroke-linejoin="round"/>
<path d="M256.637 200.991C252.458 196.837 250.663 190.428 252.075 184.707C253.488 178.985 258.056 174.151 263.688 172.414" stroke="#107A4D" stroke-width="3" stroke-miterlimit="10" stroke-linecap="round" stroke-linejoin="round"/>
<path d="M253.067 213.776C243.146 208.132 238.344 196.066 238.13 184.655C237.981 176.931 240.1 168.409 246.483 164.055" stroke="#107A4D" stroke-width="3" stroke-miterlimit="10" stroke-linecap="round" stroke-linejoin="round"/>
<path d="M224.516 193.014C228.734 194.2 232.033 198.153 232.441 202.514C232.849 206.881 230.341 211.372 226.415 213.322" stroke="#107A4D" stroke-width="3" stroke-miterlimit="10" stroke-linecap="round" stroke-linejoin="round"/>
<path d="M241.144 242.878C235.96 240.746 233.847 234.499 233.445 228.907C233.29 226.716 233.303 224.474 233.964 222.381C235.953 216.07 244.461 212.882 250.105 216.336" stroke="#107A4D" stroke-width="3" stroke-miterlimit="10" stroke-linecap="round" stroke-linejoin="round"/>
<path d="M209.145 264.1C211.705 249.889 217.841 211.663 220.369 195.891C220.991 192.016 224.574 189.333 228.469 189.839L231.501 190.234C231.501 190.234 223.097 240.785 219.189 264.43L209.145 264.1Z" fill="#8DE39C"/>
<path d="M229.136 190.966C233.614 191.575 238.098 192.178 242.576 192.787" stroke="#8DE39C" stroke-width="3" stroke-miterlimit="10" stroke-linecap="round" stroke-linejoin="round"/>
<path d="M227.296 202.773C231.773 203.382 236.258 203.985 240.735 204.594" stroke="#8DE39C" stroke-width="3" stroke-miterlimit="10" stroke-linecap="round" stroke-linejoin="round"/>
<path d="M226.486 208.443C230.963 209.052 235.447 209.655 239.925 210.264" stroke="#8DE39C" stroke-width="3" stroke-miterlimit="10" stroke-linecap="round" stroke-linejoin="round"/>
<path d="M225.19 215.137C229.667 215.746 234.152 216.349 238.629 216.958" stroke="#8DE39C" stroke-width="3" stroke-miterlimit="10" stroke-linecap="round" stroke-linejoin="round"/>
<path d="M223.356 222.103L237.981 224.086" stroke="#8DE39C" stroke-width="3" stroke-miterlimit="10" stroke-linecap="round" stroke-linejoin="round"/>
<path d="M232.467 200.796C230.452 202.669 230.316 206.207 232.182 208.229" stroke="#3D1A2B" stroke-width="2.9919" stroke-miterlimit="10" stroke-linecap="round" stroke-linejoin="round"/>
<path d="M232.823 211.404C231.339 213.627 229.829 216.556 231.294 218.798C232.817 221.131 236.335 220.833 238.694 222.31C241.48 224.053 242.064 227.967 241.299 231.168" stroke="#3D1A2B" stroke-width="2.9919" stroke-miterlimit="10" stroke-linecap="round" stroke-linejoin="round"/>
<path d="M235.558 213.154C234.936 214.301 234.307 215.467 234.054 216.744C233.802 218.02 233.983 219.452 234.845 220.431C235.94 221.688 237.767 221.895 239.361 222.368C242.692 223.366 245.511 225.958 246.788 229.198" stroke="#3D1A2B" stroke-width="2.9919" stroke-miterlimit="10" stroke-linecap="round" stroke-linejoin="round"/>
<path d="M228.832 217.593C229.726 219.122 228.566 220.988 228.333 222.751C228.054 224.87 229.169 226.891 230.244 228.738" stroke="#3D1A2B" stroke-width="2.9919" stroke-miterlimit="10" stroke-linecap="round" stroke-linejoin="round"/>
<path d="M233.672 196.377C233.244 195.081 232.817 193.74 232.914 192.379C233.011 191.018 233.756 189.606 235.039 189.139C236.381 188.653 238.046 189.463 238.487 190.817" stroke="#3D1A2B" stroke-width="2.9919" stroke-miterlimit="10" stroke-linecap="round" stroke-linejoin="round"/>
<path d="M237.424 196.565C237.8 195.198 238.428 193.902 239.271 192.761C239.932 191.867 241.059 190.986 242.057 191.478" stroke="#3D1A2B" stroke-width="2.9919" stroke-miterlimit="10" stroke-linecap="round" stroke-linejoin="round"/>
<path d="M231.948 219.621C232.558 221.409 232.396 223.353 232.629 225.226C232.862 227.099 233.679 229.127 235.422 229.846" stroke="#3D1A2B" stroke-width="2.9919" stroke-miterlimit="10" stroke-linecap="round" stroke-linejoin="round"/>
<path d="M228.43 196.941C232.907 197.55 237.392 198.153 241.869 198.762" stroke="#8DE39C" stroke-width="3" stroke-miterlimit="10" stroke-linecap="round" stroke-linejoin="round"/>
<path d="M225.319 266.141C225.319 266.141 227.399 252.552 226.829 247.433C226.064 240.551 222.442 240.156 216.027 238.575C209.612 236.994 201.777 240.59 195.291 241.815L192.809 266.141C192.816 266.141 224.535 266.141 225.319 266.141Z" fill="#F4AB7A"/>
<path d="M206.482 238.873C207.48 236.89 208.484 234.907 209.482 232.924C209.962 231.972 210.571 230.916 211.614 230.695C212.709 230.462 213.798 231.33 214.206 232.374C214.614 233.417 214.517 234.577 214.407 235.691C214.213 237.758 214.012 239.819 213.817 241.886" fill="#F4AB7A"/>
<path d="M216.247 256.499C219.539 256.226 222.909 256.972 225.779 258.611" stroke="#AF4E2C" stroke-width="2.9919" stroke-miterlimit="10" stroke-linecap="round" stroke-linejoin="round"/>
<path d="M215.845 246.792C219.623 247.316 222.669 247.964 226.291 249.157" stroke="#AF4E2C" stroke-width="2.9919" stroke-miterlimit="10" stroke-linecap="round" stroke-linejoin="round"/>
<path d="M193.366 266.167C194.358 257.581 195.602 245.56 196.321 235.821C196.684 230.903 193.366 226.47 188.545 225.427C165.392 220.405 135.312 217.133 113.442 217.871C114.045 207.737 116.449 186.521 115.431 176.412C114.414 166.31 111.692 156.208 106.133 147.706C104.428 145.101 102.245 142.515 99.2314 141.751L97.8382 141.2C96.1275 142.062 94.4816 143.008 92.9199 144.058C85.6947 148.924 81.7095 156.123 79.3702 163.232C75.6507 174.533 70.7454 191.245 65.9761 207.944C57.7206 236.845 78.2816 266.167 106.975 266.167H193.366Z" fill="#005D38"/>
<path d="M178.236 258.268C183.277 258.099 188.331 258.144 193.366 258.397" stroke="#004224" stroke-width="3" stroke-miterlimit="10" stroke-linecap="round" stroke-linejoin="round"/>
<path d="M179.545 248.651C184.528 249.61 189.576 250.239 194.65 250.524" stroke="#004224" stroke-width="3" stroke-miterlimit="10" stroke-linecap="round" stroke-linejoin="round"/>
<path d="M180.387 239.268C184.858 239.923 189.336 240.577 193.807 241.232" stroke="#004224" stroke-width="3" stroke-miterlimit="10" stroke-linecap="round" stroke-linejoin="round"/>
<path d="M183.024 230.047C187.327 231.674 191.63 233.3 195.939 234.927" stroke="#004224" stroke-width="3" stroke-miterlimit="10" stroke-linecap="round" stroke-linejoin="round"/>
<path d="M113.688 206.752C108.802 204.179 105.789 198.431 106.469 192.949C107.15 187.467 110.014 183.067 115.38 181.765" stroke="#107A4D" stroke-width="3" stroke-miterlimit="10" stroke-linecap="round" stroke-linejoin="round"/>
<path d="M112.347 213.426C99.1731 212.286 94.2094 193.967 96.5681 183.294C98.4473 174.799 104.409 167.308 112.263 163.562" stroke="#107A4D" stroke-width="3" stroke-miterlimit="10" stroke-linecap="round" stroke-linejoin="round"/>
<path d="M67.7644 218.254C72.5726 216.815 76.493 212.739 77.7436 207.879C78.9942 203.019 77.5233 197.556 74.0046 193.98" stroke="#107A4D" stroke-width="3" stroke-miterlimit="10" stroke-linecap="round" stroke-linejoin="round"/>
<path d="M72.3589 236.242C80.3941 231.058 85.6494 222.187 87.6258 212.83C89.6022 203.473 88.52 193.668 85.8438 184.486C84.6903 180.527 83.2388 176.594 83.0379 172.479" stroke="#107A4D" stroke-width="3" stroke-miterlimit="10" stroke-linecap="round" stroke-linejoin="round"/>
<path d="M83.3813 248.599C90.5482 244.297 99.5878 243.234 107.558 245.768C115.529 248.301 122.3 254.38 125.67 262.032" stroke="#107A4D" stroke-width="3" stroke-miterlimit="10" stroke-linecap="round" stroke-linejoin="round"/>
<path d="M76.7134 243.772C84.6773 238.614 93.8141 235.27 103.236 234.168C114.045 232.898 125.287 234.642 134.904 239.735C144.52 244.828 152.406 253.343 156.119 263.575" stroke="#107A4D" stroke-width="3" stroke-miterlimit="10" stroke-linecap="round" stroke-linejoin="round"/>
<path d="M143.185 220.062C150.948 229.859 168.535 232.205 178.035 223.535" stroke="#107A4D" stroke-width="3" stroke-miterlimit="10" stroke-linecap="round" stroke-linejoin="round"/>
<path d="M133.232 218.416C140.794 234.11 158.478 244.31 175.844 242.988" stroke="#107A4D" stroke-width="3" stroke-miterlimit="10" stroke-linecap="round" stroke-linejoin="round"/>
<path d="M98.7908 141.718C101.81 142.483 103.988 145.068 105.692 147.673C111.252 156.169 113.973 166.271 114.991 176.38C116.008 186.489 113.604 207.698 113.001 217.839C134.871 217.1 164.952 220.379 188.105 225.395C192.926 226.438 196.244 230.87 195.881 235.788C195.155 245.528 193.911 257.548 192.926 266.134" stroke="#004224" stroke-width="3" stroke-miterlimit="10" stroke-linecap="round" stroke-linejoin="round"/>
<path d="M98.7129 147.602C99.1211 147.557 99.4775 147.861 99.7756 148.146C106.495 154.633 111.466 162.921 114.032 171.902" stroke="#004224" stroke-width="3" stroke-miterlimit="10" stroke-linecap="round" stroke-linejoin="round"/>
<path d="M177.86 263.413C178.67 250.518 180.128 237.661 182.227 224.909" stroke="#004224" stroke-width="3" stroke-miterlimit="10" stroke-linecap="round" stroke-linejoin="round"/>
<path d="M99.3674 224.027C103.67 220.45 109.029 218.169 114.589 217.541" stroke="#004224" stroke-width="3" stroke-miterlimit="10" stroke-linecap="round" stroke-linejoin="round"/>
<path d="M106.651 225.084C108.958 222.641 111.265 220.204 113.578 217.761" stroke="#004224" stroke-width="3" stroke-miterlimit="10" stroke-linecap="round" stroke-linejoin="round"/>
<path d="M158.284 29.9642L161.038 37.6819" stroke="#3D1A2B" stroke-width="2.9919" stroke-miterlimit="10" stroke-linecap="round" stroke-linejoin="round"/>
<path d="M167.239 37.6625L168.71 27.3204" stroke="#3D1A2B" stroke-width="2.9919" stroke-miterlimit="10" stroke-linecap="round" stroke-linejoin="round"/>
<path d="M173.149 40.8636L179.778 35.1806" stroke="#3D1A2B" stroke-width="2.9919" stroke-miterlimit="10" stroke-linecap="round" stroke-linejoin="round"/>
<path d="M16.9937 266.951H291.227" stroke="#DFE0DD" stroke-width="3" stroke-miterlimit="10" stroke-linecap="round" stroke-linejoin="round"/>
</svg>
