<svg width="52" height="52" viewBox="0 0 52 52" fill="none" xmlns="http://www.w3.org/2000/svg">
<path d="M22.4278 51.3775C34.8143 51.3775 44.8556 41.3363 44.8556 28.9497C44.8556 16.5632 34.8143 6.52197 22.4278 6.52197C10.0413 6.52197 0 16.5632 0 28.9497C0 41.3363 10.0413 51.3775 22.4278 51.3775Z" fill="#FF3E79"/>
<path d="M44.8565 28.9498C44.8565 41.3359 34.8149 51.3775 22.4288 51.3775C15.7077 51.3775 9.67609 48.4204 5.56641 43.7355C9.51411 47.2004 14.6881 49.3009 20.3521 49.3009C32.7383 49.3009 42.7799 39.2593 42.7799 26.8731C42.7799 21.2091 40.6794 16.0351 37.2145 12.0874C41.8994 16.1971 44.8565 22.2287 44.8565 28.9498Z" fill="#FF3E79"/>
<path d="M22.4286 45.8742C31.7758 45.8742 39.3532 38.2968 39.3532 28.9496C39.3532 19.6023 31.7758 12.0249 22.4286 12.0249C13.0813 12.0249 5.50391 19.6023 5.50391 28.9496C5.50391 38.2968 13.0813 45.8742 22.4286 45.8742Z" fill="#F5F5F5"/>
<path d="M39.3528 28.9497C39.3528 38.2966 31.7752 45.8743 22.4282 45.8743C17.2262 45.8743 12.5724 43.5267 9.4668 39.8344C12.4094 42.3077 16.2066 43.7977 20.3515 43.7977C29.6985 43.7977 37.2762 36.22 37.2762 26.873C37.2762 22.728 35.7862 18.9309 33.3129 15.9883C37.0052 19.0939 39.3528 23.7477 39.3528 28.9497Z" fill="#E6E6E6"/>
<path d="M22.4274 40.3713C28.7354 40.3713 33.849 35.2577 33.849 28.9498C33.849 22.6418 28.7354 17.5282 22.4274 17.5282C16.1195 17.5282 11.0059 22.6418 11.0059 28.9498C11.0059 35.2577 16.1195 40.3713 22.4274 40.3713Z" fill="#FF3E79"/>
<path d="M33.8484 28.9498C33.8484 35.2576 28.7347 40.3714 22.4269 40.3714C18.7439 40.3714 15.467 38.628 13.3789 35.9211C15.3071 37.4101 17.7253 38.2947 20.3502 38.2947C26.658 38.2947 31.7718 33.181 31.7718 26.8732C31.7718 24.2483 30.8871 21.83 29.3982 19.9019C32.1051 21.9899 33.8484 25.2669 33.8484 28.9498Z" fill="#FF3E79"/>
<path d="M22.4279 34.7645C25.6392 34.7645 28.2425 32.1612 28.2425 28.9499C28.2425 25.7385 25.6392 23.1353 22.4279 23.1353C19.2166 23.1353 16.6133 25.7385 16.6133 28.9499C16.6133 32.1612 19.2166 34.7645 22.4279 34.7645Z" fill="#F5F5F5"/>
<path d="M43.6473 36.2272C43.205 37.5168 42.6495 38.7524 41.9912 39.9226L36.9844 37.5874C37.6707 36.4348 38.2231 35.193 38.6208 33.8837L43.6473 36.2272Z" fill="#FF3E79"/>
<path d="M38.6219 33.884C38.2242 35.1933 37.6718 36.4351 36.9855 37.5877L31.959 35.2442C32.7003 34.1259 33.2486 32.8706 33.558 31.5228L38.6219 33.884Z" fill="#E6E6E6"/>
<path d="M33.5603 31.5227C33.2509 32.8705 32.7026 34.1258 31.9613 35.2441L26.7676 32.8227C27.6668 31.8155 28.2212 30.4938 28.2441 29.0432L33.5603 31.5227Z" fill="#FF3E79"/>
<path d="M28.2427 29.0432C28.2199 30.4938 27.6654 31.8156 26.7662 32.8227L21.9017 30.554C20.9506 30.1117 20.5062 29.0235 20.8457 28.0537C20.8685 27.9904 20.8935 27.927 20.9225 27.8637C21.1593 27.357 21.5777 26.9946 22.0657 26.8171C22.5517 26.6406 23.1072 26.6478 23.6128 26.8846L28.2427 29.0432Z" fill="#E6E6E6"/>
<path d="M51.207 9.36316C51.3734 9.39088 51.439 9.59491 51.32 9.71452L49.1232 11.9214L47.7755 13.2753L44.0927 16.9741C43.8561 17.2117 43.5192 17.3204 43.1881 17.2659L37.6953 16.3612L41.8091 12.2806L43.1725 10.9287L45.68 8.44092L51.207 9.36316Z" fill="#50758D"/>
<path d="M49.1264 11.9216L47.7787 13.2756L41.8125 12.2809L43.1758 10.929L49.1264 11.9216Z" fill="#2B597F"/>
<path d="M43.0507 6.04353L40.5556 8.48462L39.1985 9.81264L35.0992 13.8237L34.1837 8.26055C34.1294 7.93057 34.2374 7.59468 34.4737 7.35815L38.1716 3.65642L39.5245 2.30141L41.763 0.0612267C41.8829 -0.0588034 42.0883 0.00785689 42.1149 0.175338L43.0507 6.04353Z" fill="#50758D"/>
<path d="M40.5559 8.48473L39.1988 9.81274L38.1719 3.65653L39.5248 2.30151L40.5559 8.48473Z" fill="#2B597F"/>
<path d="M47.7975 5.70811C47.7975 6.2252 47.6002 6.74436 47.2046 7.13892L24.186 30.1575C23.4446 30.8999 22.2703 30.9456 21.4749 30.2946C21.423 30.252 21.3722 30.2063 21.3234 30.1575C20.9277 29.7619 20.7305 29.2448 20.7305 28.7257C20.7305 28.2086 20.9277 27.6894 21.3234 27.2948L44.3419 4.27626C45.1321 3.48506 46.4144 3.48506 47.2046 4.27626C47.2534 4.32506 47.2991 4.37594 47.3416 4.42786C47.6459 4.79958 47.7975 5.25332 47.7975 5.70811Z" fill="#918291"/>
<path d="M47.7971 5.70799C47.7971 6.22507 47.5999 6.74423 47.2043 7.1388L24.1857 30.1574C23.4443 30.8998 22.27 30.9455 21.4746 30.2944L47.3413 4.42773C47.6455 4.79945 47.7971 5.2532 47.7971 5.70799Z" fill="#7A6E79"/>
</svg>
