<svg width="310" height="271" viewBox="0 0 310 271" fill="none" xmlns="http://www.w3.org/2000/svg">
<rect width="310" height="271" fill="#F0E3E7"/>
<g clip-path="url(#clip0_416:33)">
<path d="M97.9864 134.126C102.622 134.496 105.829 137.198 109.013 139.921C114.7 144.791 120.321 149.758 126.09 154.531C129.718 157.536 132.132 157.359 135.354 153.932C145.953 142.486 157.255 131.711 169.196 121.67C183.2 110.072 197.707 99.0519 214.946 92.4723C219.871 90.5232 225.029 89.2244 230.29 88.6088C231.905 88.4386 234.156 87.7429 234.881 89.7486C235.563 91.6433 233.356 92.3316 232.119 93.1532C212.922 106.022 195.06 120.777 178.801 137.198C166.229 149.842 154.719 163.499 144.388 178.03C143.485 179.345 142.448 180.563 141.293 181.664C133.206 188.992 129.318 187.541 123.601 180.606C113.678 168.542 103.466 156.767 93.2914 144.925C91.5363 142.875 89.8331 140.817 91.0698 138.034C92.388 135.096 95.276 134.533 97.9864 134.126Z" fill="#08B74E"/>
<path d="M76.0149 123.335C76.0149 99.5034 76.0149 75.6691 76.0149 51.8322C76.0149 46.3849 76.474 45.8372 81.8429 46.0297C100.638 46.6884 119.44 46.1111 138.235 46.3405C141.419 46.3775 144.574 45.7706 147.795 46.1629C149.787 46.4071 150.69 47.0584 150.676 49.0642C150.676 55.5698 150.616 62.0829 150.676 68.596C150.676 71.3566 149.024 71.7563 146.803 71.7489C144.581 71.7415 142.574 71.4528 142.581 68.4849C142.581 64.9176 142.47 61.3576 142.581 57.7976C142.648 55.1924 141.722 54.0082 138.96 54.023C121.76 54.0921 104.555 54.0921 87.3451 54.023C84.6347 54.023 83.709 54.9925 83.709 57.7236C83.7683 101.46 83.7683 145.194 83.709 188.925C83.709 191.885 84.9309 192.699 87.6709 192.685C100.453 192.603 113.234 192.64 126.016 192.685C130.659 192.685 131.118 193.314 130.896 197.755C130.785 200.019 129.696 200.767 127.652 200.767C111.561 200.767 95.4613 200.767 79.3621 200.767C76.0593 200.767 76.0223 198.709 76.0297 196.326C76.0297 177.897 76.0297 159.471 76.0297 141.046L76.0149 123.335Z" fill="#08B74E"/>
<path d="M183.074 137.93C184.288 139.411 183.933 140.698 183.933 141.875C183.977 164.365 184.002 186.855 184.007 209.345C184.007 217.486 180.4 221.808 172.306 222.482C163.848 223.152 155.35 223.152 146.891 222.482C139.116 221.89 135.043 217.02 135.043 209.241C135.043 204.201 135.146 199.161 135.043 194.12C134.969 191.286 135.369 188.984 138.553 188.155C138.893 188.014 139.212 187.828 139.501 187.6C140.982 186.778 142.3 184.462 143.759 185.209C145.684 186.201 144.633 188.784 144.662 190.664C144.773 197.17 144.803 203.69 144.662 210.203C144.603 213.534 145.973 214.807 149.283 214.74C156.289 214.6 163.301 214.585 170.307 214.74C173.899 214.829 174.965 213.312 174.95 209.892C174.854 191.086 175.076 172.279 174.839 153.48C174.772 148.566 175.639 144.599 179.66 141.52C180.867 140.61 181.807 139.285 183.074 137.93Z" fill="#FF3E79"/>
<path d="M135.057 130.596C135.057 126.429 135.057 122.255 135.057 118.088C135.102 110.516 139.812 105.609 147.424 105.506C155.637 105.38 163.864 105.402 172.077 105.506C174.691 105.506 177.727 105.395 178.993 108.466C179.489 109.673 174.298 113.529 172.003 113.647C169.707 113.766 167.345 113.706 165.012 113.706C159.739 113.706 154.459 113.847 149.187 113.669C145.684 113.551 144.218 115.15 144.196 118.428C144.196 124.194 143.877 129.974 144.196 135.718C144.544 141.639 139.826 143.859 136.539 147.049C135.109 148.433 135.102 146.161 135.057 145.302C134.991 140.395 135.057 135.488 135.057 130.581V130.596Z" fill="#FF3E79"/>
<path d="M160.036 88.5347C163.605 88.5347 167.167 88.5347 170.729 88.5347C173.402 88.5347 174.846 89.8522 174.957 92.561C174.957 92.6794 174.957 92.8052 174.957 92.9237C175.698 103.648 175.231 104.166 164.464 104.166C159.428 104.166 154.385 104.122 149.35 104.166C146.203 104.166 144.47 102.841 144.425 99.607C144.285 89.3045 143.026 88.1129 154.496 88.5051C156.333 88.5644 158.199 88.5051 160.021 88.5051L160.036 88.5347Z" fill="#FF3E79"/>
<path d="M161.272 73.7398H169.011C171.373 73.7398 172.669 74.887 172.862 77.2554C173.054 79.6237 172.188 81.5703 169.633 81.7479C163.879 82.1402 158.014 82.7322 152.393 81.5036C147.378 80.355 142.179 80.2567 137.124 81.215C135.072 81.6073 133.421 81.5629 132.68 79.2759C131.94 76.9889 133.813 76.2488 135.339 75.5753C136.561 74.9975 137.897 74.6968 139.249 74.6945C146.61 75.0794 153.904 73.2883 161.272 73.7398Z" fill="#FF3E79"/>
<path d="M159.599 87.1655C157.266 87.1655 154.934 87.2099 152.601 87.1655C151.52 87.1655 150.216 87.1655 150.046 85.6853C149.963 85.122 150.099 84.5482 150.427 84.0827C150.755 83.6171 151.25 83.2952 151.809 83.1837C157.004 82.289 162.317 82.3241 167.5 83.2873C168.056 83.4038 168.547 83.7288 168.87 84.1955C169.194 84.6621 169.327 85.235 169.241 85.7963C169.004 87.2765 167.663 87.1433 166.604 87.1729C164.272 87.2173 161.939 87.1729 159.599 87.1655Z" fill="#FF3E79"/>
</g>
<defs>
<clipPath id="clip0_416:33">
<rect width="159" height="177" fill="white" transform="translate(76 46)"/>
</clipPath>
</defs>
</svg>
