<svg width="310" height="271" viewBox="0 0 310 271" fill="none" xmlns="http://www.w3.org/2000/svg">
<rect width="310" height="271" fill="#F0E3E7"/>
<path d="M171.192 78.4387C171.192 78.4387 187.757 71.198 201.68 84.3028C215.604 97.4077 205.773 106.137 218.059 112.626C230.346 119.108 221.371 137.057 235.704 145.221C250.037 153.384 240.578 173.529 225.836 176.394C225.836 176.394 218.759 195.065 203.228 193.264C203.228 193.264 188.858 209.242 160.862 199.099L150.556 194.872L171.192 78.4387Z" fill="black"/>
<path d="M116.644 83.9456C116.644 83.9456 98.0171 86.3493 94.4079 102.892C90.7987 119.435 92.1084 115.528 81.8835 123.945C71.6586 132.369 84.5923 141.894 76.4659 150.318C72.3209 154.62 70.3711 158.14 69.9693 162.195C69.2698 169.332 74.2111 175.702 81.1095 177.659C85.8201 178.999 89.6601 183.456 92.4656 189.521C98.0246 201.555 117.901 196.33 117.901 196.33C117.901 196.33 136.677 207.27 148.182 199.151C159.687 191.032 142.347 79.1383 142.347 79.1383L116.644 83.9456Z" fill="black"/>
<path d="M174.972 79.3541C174.972 79.3541 167.88 62 142.325 62C116.778 62 108.86 88.6265 108.86 88.6265L146.038 110.148L174.972 79.3541Z" fill="black"/>
<path d="M122.039 141.016C124.577 146.687 124.361 155.847 118.98 157.872C113.6 159.896 107.17 152.588 104.633 146.917C102.095 141.247 103.643 136.313 109.031 134.289C114.411 132.257 119.501 135.346 122.039 141.016Z" fill="#CA927B"/>
<path d="M108.86 141.105C108.86 141.105 115.446 139.357 117.909 148.302" stroke="#995342" stroke-width="0.4819" stroke-miterlimit="10" stroke-linecap="round" stroke-linejoin="round"/>
<path d="M190.421 141.016C187.883 146.687 188.099 155.847 193.48 157.872C198.86 159.896 205.29 152.588 207.827 146.917C210.365 141.247 208.817 136.313 203.429 134.289C198.049 132.257 192.959 135.346 190.421 141.016Z" fill="#CA927B"/>
<path d="M203.6 141.105C203.6 141.105 197.014 139.357 194.551 148.302" stroke="#995342" stroke-width="0.4819" stroke-miterlimit="10" stroke-linecap="round" stroke-linejoin="round"/>
<path d="M156.152 162.701C181.214 162.701 201.531 143.2 201.531 119.145C201.531 95.0894 181.214 75.5886 156.152 75.5886C131.089 75.5886 110.772 95.0894 110.772 119.145C110.772 143.2 131.089 162.701 156.152 162.701Z" fill="black"/>
<path d="M143.092 172.175L137.384 226.536H171.192L165.35 171.616L143.092 172.175Z" fill="#CA927B"/>
<path d="M142.325 181.774L168.594 202.135L165.722 174.794L142.325 181.774Z" fill="#995342"/>
<path d="M156.152 80.6861C135.174 80.6861 116.651 96.9091 116.651 116.927L117.857 140.949C117.857 140.949 118.288 175.002 150.615 185.369C154.195 186.515 158.109 186.515 161.688 185.369C194.015 175.01 194.447 140.949 194.447 140.949L195.652 116.927C195.652 96.9165 177.13 80.6861 156.152 80.6861Z" fill="#CA927B"/>
<path d="M148.189 160.201C148.189 160.201 148.568 165.209 155.4 165.209C162.231 165.209 162.611 160.201 162.611 160.201H148.189Z" fill="#DE5A62"/>
<path d="M153.889 146.3V151.874L157.99 151.918" stroke="#995342" stroke-width="0.4819" stroke-miterlimit="10" stroke-linecap="round" stroke-linejoin="round"/>
<path d="M147.385 138.129C147.385 138.129 144.662 131.215 138.009 130.895C131.356 130.575 127.382 135.859 127.382 135.859C127.382 135.859 129.071 141.731 137.138 142.118C145.205 142.512 147.385 138.129 147.385 138.129Z" fill="white"/>
<path d="M130.708 136.253C130.53 139.915 133.358 143.025 137.019 143.204C140.68 143.383 143.791 140.555 143.97 136.893C144.148 133.232 141.32 130.121 137.659 129.943C133.998 129.764 130.887 132.592 130.708 136.253Z" fill="black"/>
<path d="M147.385 138.129C147.385 138.129 144.885 130.962 138.009 130.895C131.133 130.828 127.382 135.859 127.382 135.859" stroke="black" stroke-width="0.3755" stroke-miterlimit="10" stroke-linecap="round" stroke-linejoin="round"/>
<path d="M164.591 138.129C164.591 138.129 167.314 131.215 173.967 130.895C180.62 130.575 184.594 135.859 184.594 135.859C184.594 135.859 182.905 141.731 174.838 142.118C166.764 142.512 164.591 138.129 164.591 138.129Z" fill="white"/>
<path d="M181.26 136.253C181.438 139.915 178.611 143.025 174.949 143.204C171.288 143.383 168.177 140.555 167.999 136.893C167.82 133.232 170.648 130.121 174.309 129.943C177.971 129.764 181.081 132.592 181.26 136.253Z" fill="black"/>
<path d="M164.591 138.129C164.591 138.129 167.091 130.962 173.967 130.895C180.843 130.828 184.594 135.859 184.594 135.859" stroke="black" stroke-width="0.3755" stroke-miterlimit="10" stroke-linecap="round" stroke-linejoin="round"/>
<path d="M135.092 114.591C135.092 114.591 128.379 115.454 125.12 117.485C123.118 118.736 123.17 121.043 125.588 121.846C127.814 122.59 132.591 122.099 135.434 121.779C142.392 120.99 147.013 118.401 146.567 116.25C145.986 113.482 138.753 113.936 135.092 114.591Z" fill="black"/>
<path d="M175.828 114.591C175.828 114.591 182.54 115.454 185.8 117.485C187.801 118.736 187.749 121.043 185.331 121.846C183.106 122.59 178.328 122.099 175.485 121.779C168.527 120.99 163.906 118.401 164.352 116.25C164.933 113.482 172.174 113.936 175.828 114.591Z" fill="black"/>
<path d="M162.618 160.201C162.618 160.201 156.04 156.554 148.189 160.201C148.189 160.201 156.1 163.579 162.618 160.201Z" fill="#DE5A62"/>
<path d="M146.53 159.576C146.53 159.576 154.5 164.197 164.04 159.576" stroke="#995342" stroke-width="0.4819" stroke-miterlimit="10" stroke-linecap="round" stroke-linejoin="round"/>
<path d="M174.972 79.3541C174.972 79.3541 173.268 98.3453 153.473 101.352C133.291 104.425 137.659 117.173 113.146 114.114C113.146 114.114 104.283 100.243 117.425 85.9177C126.117 76.4369 143.106 68.5338 155.274 69.8584C159.367 70.305 169.086 78.0741 174.972 79.3541Z" fill="black"/>
<path d="M172.62 81.7057C172.62 81.7057 163.869 94.364 201.531 119.145C201.531 119.145 207.671 110.416 203.593 102.438C199.522 94.4682 172.62 81.7057 172.62 81.7057Z" fill="black"/>
<path d="M246.055 262.584C243.897 252.076 236.656 243.92 227.421 240.147C226.848 239.798 226.238 239.485 225.583 239.254L153.912 213.126L88.5959 239.552C87.5615 239.909 86.5568 240.318 85.5671 240.78L85.4703 240.817C85.4257 240.839 85.381 240.869 85.3364 240.884C76.8752 244.917 70.3264 252.694 68.2949 262.584L67 268.872H247.35L246.055 262.584Z" fill="white"/>
<path d="M106.553 232.274L153.904 213.119L204.62 231.612C204.62 231.612 201.628 254.577 155.437 254.577C109.247 254.577 106.553 232.274 106.553 232.274Z" fill="#CA927B"/>
</svg>
