<svg width="310" height="279" viewBox="0 0 310 279" fill="none" xmlns="http://www.w3.org/2000/svg">
<rect width="310" height="271" fill="#F0E3E7"/>
<path d="M275.176 158.882C274.396 160.524 272.947 161.22 271.302 161.647C270.146 161.884 269.003 162.187 267.88 162.553C263.482 164.195 262.905 166.44 266.097 169.848C268.595 172.508 271.23 175.036 273.806 177.61C274.665 178.471 275.517 179.37 275.006 180.683C274.573 181.813 273.459 182.03 272.384 182.168C270.647 182.411 268.903 182.647 267.14 182.791C263.377 183.107 262.086 185.503 263.908 188.879C265.718 192.019 267.765 195.015 270.03 197.842C270.889 198.978 271.768 200.344 271.164 201.697C270.45 203.286 268.687 202.636 267.343 202.675C265.586 202.728 263.816 202.616 262.053 202.597C259.044 202.564 258.12 204.232 258.625 206.95C259.28 210.463 261.043 213.517 262.459 216.754C263.154 218.33 264.426 220.077 263.069 221.692C261.712 223.308 259.837 222.303 258.179 221.811L257.163 221.509C251.375 219.736 249.762 221.036 250.418 227.018C250.634 228.988 250.968 230.958 251.25 232.928C251.696 233.657 251.545 234.517 251.755 235.312C252.725 238.956 251.486 240.151 247.632 239.39C239.11 235.607 238.35 236.106 238.37 245.753C238.483 248.219 238.421 250.69 238.186 253.147C237.727 256.397 236.672 256.785 234.011 255.012C232.844 254.23 231.762 253.311 230.681 252.418C227.259 249.601 224.525 250.363 223.47 254.723C222.624 258.118 222.375 261.664 221.602 265.085C220.724 268.966 219.268 269.307 216.489 266.51C215.414 265.427 214.424 264.251 213.336 263.181C210.668 260.554 208.82 260.797 206.873 263.943C206.565 264.435 206.388 265.013 206.099 265.519C204.88 267.699 205.811 271.711 201.38 271.153C198.836 270.831 196.037 272.138 193.815 269.557C192.884 268.48 190.924 268.546 189.882 269.557C188.021 271.422 185.844 271.146 183.642 271.146C168.932 271.146 154.227 271.146 139.526 271.146C137.861 271.146 136.406 271.258 134.859 269.656C133.312 268.053 130.546 268.638 128.573 269.78C125.027 271.836 121.238 270.949 117.534 271.14C115.666 271.238 116.223 270.023 116.4 269.019C117.711 261.093 116.23 259.97 108.305 262.34C105.755 263.109 103.231 264.192 100.439 264.159C97.3449 264.12 96.591 263.141 97.8562 260.291C98.6624 258.479 99.921 256.864 100.177 254.821C100.472 252.418 99.9472 250.967 97.0368 250.455C93.1038 249.758 89.3346 251.151 85.4803 250.77C84.1168 250.632 82.3732 251.256 81.6194 249.772C80.8655 248.288 81.9078 246.869 82.8255 245.635C83.481 244.781 84.1365 243.947 84.7133 243.087C87.178 239.58 86.0243 236.573 81.7767 235.942C78.6499 235.469 75.4642 235.423 72.3375 234.983C70.7511 234.767 68.7977 234.603 68.116 232.876C67.395 231.05 69.3877 230.354 70.2988 229.251C71.1182 228.259 72.2063 227.478 72.9798 226.453C75.1627 223.571 74.3302 220.793 70.9281 219.578C67.5261 218.363 64.2354 217.391 60.9383 216.157C59.6863 215.697 57.9688 215.356 57.9295 213.596C57.8967 212.125 59.2864 211.514 60.3745 210.825C61.4627 210.135 62.341 209.597 63.3702 208.973C67.3032 206.51 67.3032 203.66 63.2915 201.211C61.089 199.898 58.703 198.788 56.4481 197.599C55.7895 197.347 55.1572 197.03 54.5602 196.654C53.4065 195.715 51.6105 194.946 51.8071 193.278C52.0038 191.61 53.7736 190.947 55.2092 190.566C63.2915 188.458 63.3571 184.788 56.8217 179.449C54.9207 177.893 52.81 176.573 51.0008 174.918C48.3133 172.455 48.6869 170.978 52.1218 170.137C53.7081 169.737 55.3599 169.605 56.979 169.349C60.6236 168.772 61.679 166.499 59.8436 163.282C58.0082 160.064 55.3731 157.549 53.1443 154.673C52.1218 153.359 50.7386 152.177 51.8333 150.359C52.928 148.54 54.6586 148.907 56.2908 149.111C57.3144 149.325 58.3659 149.372 59.4044 149.249C63.5078 148.448 64.6484 146.097 62.6426 142.387C61.03 139.418 59.3651 136.477 57.8312 133.469C57.2478 132.333 56.5661 131.046 57.628 129.851C58.6899 128.656 60.0861 129.082 61.3316 129.26C62.7147 129.476 64.0716 129.916 65.4612 130.127C69.0206 130.691 70.9412 128.813 70.2726 125.3C69.5843 121.708 68.1619 118.339 66.8902 114.925C66.3527 113.487 65.7169 111.917 67.0607 110.643C68.4044 109.369 69.7351 110.381 70.9937 110.82C72.5472 111.346 74.0221 112.134 75.5822 112.561C78.5909 113.388 80.0527 112.331 80.3346 109.185C80.6623 105.515 79.8102 101.962 79.2202 98.3569C78.9777 96.8794 78.4074 95.0736 79.9478 94.1345C81.4883 93.1955 83.2712 93.7208 84.792 94.9817C90.2196 99.4733 93.8379 98.4226 94.1198 91.4291C94.2378 88.5135 94.1198 85.5191 94.6049 82.6494C94.795 81.4477 94.8408 79.8126 96.2436 79.3661C97.6464 78.9195 98.6428 79.9899 99.5801 80.8961C100.347 81.6316 101.088 82.3867 101.842 83.1288C105.657 86.8718 108.279 86.2414 109.911 81.0734C110.901 77.9345 111.707 74.7431 112.533 71.5648C112.92 70.1333 113.464 68.7412 115.083 68.5573C116.597 68.3866 117.246 69.7459 117.934 70.8294C119.435 73.1868 120.668 76.1944 123.939 76.0827C127.21 75.9711 127.872 72.7534 129.032 70.4091C129.982 68.5245 130.71 66.5282 131.654 64.637C132.381 63.1595 133.24 61.3536 135.049 61.4324C136.859 61.5112 137.514 63.4025 138.111 64.9259C138.484 65.9109 138.766 66.9616 139.199 67.9006C140.713 70.9147 143.237 71.3087 145.754 69.0761C148.271 66.8434 149.982 63.7768 151.922 60.9859C152.872 59.6135 153.836 57.6632 155.914 57.9718C158.182 58.3067 157.881 60.5985 158.392 62.2007C158.883 63.6323 158.779 65.1952 159.559 66.6004C161.145 69.4504 162.594 69.9691 165.098 67.9729C168.303 65.4119 171.338 62.6407 174.465 59.9812C175.33 59.2457 176.143 58.1031 177.5 58.8649C178.627 59.5215 178.961 60.7035 179.053 61.879C179.184 63.5207 179.02 65.1623 179.178 66.8171C179.486 70.002 181.197 71.2037 184.278 70.3369C187.49 69.4372 190.092 67.3359 192.858 65.576C193.455 65.2017 193.933 64.6304 194.543 64.3152C197.879 62.5816 199.38 63.5469 199.131 67.2702C199.079 68.2079 198.974 69.1418 198.817 70.0676C197.801 75.9777 199.721 77.7572 205.483 75.8989C208.38 74.9598 211.16 73.653 214.005 72.517C215.316 71.9785 216.771 71.4269 217.977 72.517C219.183 73.6071 218.403 74.9204 218.062 76.155C217.474 78.0682 216.993 80.0128 216.62 81.9796C216.24 84.278 217.276 85.4731 219.78 85.4862C223.418 85.539 227.049 85.1241 230.582 84.2517C232.182 83.8445 234.312 83.1748 235.426 85.0397C236.456 86.7667 235.282 88.4084 234.292 89.9056C233.637 90.8775 232.811 91.7968 232.457 92.8737C231.592 95.5004 232.241 97.431 235.197 98.2978C237.76 99.053 240.336 98.6327 242.906 98.7772C244.544 98.8757 246.236 98.659 247.822 98.9742C250.798 99.5586 251.362 101.443 249.395 103.768C248.74 104.576 247.914 105.278 247.186 106.053C243.725 109.757 244.603 112.791 249.48 114.288C252.411 115.187 255.563 114.898 258.428 116.113C259.896 116.737 262.014 116.731 262.282 118.661C262.551 120.592 260.67 121.288 259.379 122.293C252.948 127.158 253.184 129.26 260.532 132.477C263.01 133.561 265.488 134.618 267.939 135.761C269.1 136.299 270.437 136.825 270.28 138.479C270.142 139.944 269.093 140.686 267.834 141.205C266.759 141.651 265.704 142.137 264.636 142.603C261.476 145.269 261.358 147.515 264.636 149.951C266.734 151.642 268.937 153.199 271.23 154.614C272.995 155.541 274.389 157.048 275.176 158.882Z" fill="#E7C983"/>
<path d="M275.176 158.882C271.977 155.422 267.71 153.406 264.033 150.628C260.021 147.614 260.29 144.678 264.688 142.557C262.905 145.578 263.416 148.192 266.458 149.741C269.368 151.219 270.922 154.404 274.219 155.435C275.484 155.848 275.288 157.582 275.176 158.882Z" fill="#FBF7DF"/>
<path d="M247.684 239.39C250.634 239.39 252.627 238.622 251.349 235.016C251.224 234.327 251.209 233.622 251.303 232.928C252.096 233.945 252.54 235.191 252.568 236.481C252.712 237.794 253.223 239.456 251.735 240.342C250.247 241.229 248.831 240.592 247.684 239.39Z" fill="#E4D4AE"/>
<path d="M120.668 198.394L120.72 151.035C121.658 149.275 123.342 149.242 125.001 149.236C146.309 149.17 167.619 149.17 188.932 149.236C189.989 149.19 191.044 149.381 192.019 149.794C193.212 150.451 192.983 151.567 192.983 152.598C192.983 167.767 192.983 182.938 192.983 198.112C192.983 199.143 193.238 200.272 192.131 200.988C190.715 201.73 189.168 201.645 187.647 201.645C167.195 201.645 146.748 201.645 126.305 201.645C124.895 201.741 123.48 201.587 122.123 201.191C120.687 200.751 121.284 199.261 120.668 198.394Z" fill="#DD3738"/>
<path d="M191.967 150.227C169.68 150.258 147.408 150.291 125.151 150.326C123.637 150.326 122.084 150.096 120.72 151.035C120.858 145.578 120.065 140.088 121.677 134.684C122.457 132.057 123.434 129.431 125.4 127.704C128.717 124.762 129.668 121.281 129.13 117.131C130.441 115.818 132.165 116.002 133.784 115.995C149.293 115.96 164.807 115.96 180.325 115.995C181.937 115.995 183.661 115.811 184.946 117.184C184.697 122.529 187.247 126.705 190.525 130.58C191.652 135.262 194.287 139.773 192.222 144.829C191.921 145.571 192.596 146.143 192.753 146.799C193.042 148.06 193.474 149.38 191.967 150.227Z" fill="#EB872F"/>
<path d="M184.94 117.19L129.13 117.131C127.223 117.197 126.089 116.691 126.161 114.36C126.311 109.304 126.259 104.247 126.161 99.191C126.121 97.1488 126.96 96.5643 128.881 96.5643C147.799 96.6081 166.717 96.6081 185.634 96.5643C187.601 96.5643 188.42 97.3064 188.407 99.2567C188.368 104.313 188.315 109.376 188.453 114.426C188.525 117.184 186.677 117.006 184.94 117.19Z" fill="#CA3333"/>
<path d="M120.668 198.394C121.454 198.933 121.264 199.773 121.323 200.535C122.47 201.796 122.333 203.372 122.339 204.889C122.372 210.063 122.293 215.238 122.379 220.412C122.451 224.858 123.178 225.574 127.505 225.62C137.337 225.718 147.216 225.449 157.618 225.817C154.937 220.202 156.629 215.678 160.994 212.283C164.429 209.617 168.415 207.949 173.003 209.045C173.158 209.276 173.263 209.536 173.311 209.81C173.358 210.084 173.347 210.365 173.278 210.634C170.112 212.315 166.723 213.589 163.544 215.231C160.162 216.952 159.395 218.462 160.129 222.284C162.364 225.127 164.062 225.626 167.3 224.326C170.538 223.026 173.678 221.043 176.989 219.644C178.647 219.427 180.089 218.074 181.905 218.665C182.764 219.703 182.101 220.885 182.246 221.995C182.206 223.262 182.842 224.332 183.301 225.462C183.464 225.896 183.533 226.359 183.504 226.821C182.672 228.135 181.354 228.082 180.056 228.023C175.035 227.806 170.014 227.872 164.98 227.642C160.509 227.445 155.901 228.016 151.352 228.029C142.326 228.029 133.299 227.957 124.273 228.075C121.572 228.108 120.51 227.268 120.556 224.451C120.733 215.756 120.661 207.075 120.668 198.394Z" fill="#E18C3D"/>
<path d="M232.903 222.461C230.668 226.828 228.085 227.714 223.936 225.304C221.425 223.86 219.006 222.244 216.541 220.708C212.523 221.095 210.852 220.209 209.396 216.919C209.888 216.216 210.55 216.347 211.232 216.557C215.342 217.831 215.342 217.831 217.21 213.753C217.449 212.812 217.977 211.97 218.718 211.344C219.458 210.805 219.911 209.827 221.005 209.813L221.661 210.326C221.916 210.655 222.043 211.065 222.017 211.481C221.992 211.897 221.816 212.289 221.523 212.585C219.222 215.29 220.868 216.846 223.201 217.838C226.341 219.184 228.858 222.119 232.732 221.666C233.021 221.633 233.139 222.126 232.903 222.461Z" fill="#B43C39"/>
<path d="M181.833 222.428C181.013 221.259 181.656 220.044 181.728 218.849C182.914 216.616 184.697 215.566 187.26 216.052C190.872 217.319 194.687 215.231 198.286 216.708C199.695 218.619 199.505 220.583 198.456 222.572C192.904 223.971 187.358 224.247 181.833 222.428Z" fill="#B9E1F3"/>
<path d="M232.903 222.461C228.472 223.577 225.922 219.683 222.369 218.422C216.699 216.4 220.553 213.169 221.661 210.326C224.558 212 227.593 213.484 230.32 215.402C232.647 217.037 234.515 219.224 232.903 222.461Z" fill="#DA3937"/>
<path d="M187.254 216.052L181.721 218.849C180.148 219.164 178.909 220.543 177.133 220.307C175.166 219.04 174.622 216.84 173.619 214.935C173.082 213.714 172.21 212.558 172.826 211.094L172.865 209.715C172.975 209.592 173.113 209.496 173.266 209.437C173.42 209.377 173.586 209.356 173.75 209.373C173.972 209.437 174.18 209.544 174.36 209.689C175.723 210.726 175.107 213.589 177.388 213.524C179.093 213.471 180.567 212.138 182.062 211.245C184.088 210.03 186.441 209.603 188.466 208.402C188.874 208.157 189.348 208.051 189.821 208.098C190.293 208.146 190.737 208.344 191.088 208.664C192.786 211.554 191.416 213.53 189.122 215.231C188.519 215.474 187.686 215.283 187.254 216.052Z" fill="#B83C3E"/>
<path d="M189.174 215.244C189.777 213.182 192.229 211.534 190.564 208.973C190.443 208.869 190.351 208.736 190.297 208.587C190.243 208.437 190.229 208.276 190.256 208.119C190.715 206.806 191.285 205.565 190.911 204.074C190.739 203.45 190.746 202.791 190.933 202.171C191.12 201.551 191.478 200.998 191.967 200.574C192.957 199.779 192.701 198.657 192.701 197.632C192.701 182.818 192.701 168.008 192.701 153.202C192.701 152.171 192.904 151.055 191.986 150.234C192.196 149.689 192.727 148.822 192.557 148.658C189.935 146.031 192.511 143.536 192.485 141.014C192.452 137.534 191.246 134.06 190.518 130.586C192.437 133.674 193.418 137.253 193.343 140.889C193.343 164.424 193.271 187.953 193.435 211.488C193.461 214.981 192.308 215.94 189.174 215.244Z" fill="#E08C41"/>
<path d="M198.135 222.408C198.187 220.51 198.233 218.613 198.286 216.715L199.007 216.229C199.079 216.321 199.19 216.393 199.236 216.492C201.157 221.358 201.157 221.377 206.689 221.41C209.128 221.41 211.566 221.791 214.011 221.489C214.667 221.41 215.499 221.377 215.322 222.5C215.165 225.613 213.323 227.031 210.432 227.557C206.696 228.246 202.92 227.629 199.184 228.003C198.804 227.894 198.458 227.69 198.179 227.41C197.9 227.129 197.698 226.782 197.591 226.401C197.296 225.009 197.25 223.643 198.135 222.408Z" fill="#B53C3C"/>
<path d="M215.329 222.507C211.219 222.507 207.089 222.218 202.999 222.507C199.669 222.737 198.502 221.541 198.987 218.363C199.036 217.659 199.036 216.953 198.987 216.249L208.649 215.914C209.305 215.756 209.632 216.052 209.606 216.728C210.917 219.768 213.965 219.841 216.522 220.727L215.329 222.507Z" fill="#D63B3A"/>
<path d="M209.626 216.708L208.669 215.894C207.312 214.64 205.483 214.069 204.257 212.558C202.632 210.555 201.891 208.553 203.248 206.149C203.429 205.975 203.653 205.852 203.897 205.792C204.141 205.732 204.396 205.737 204.637 205.808C208.924 208.704 213.415 211.291 217.833 213.983C216.004 219.322 215.558 219.473 209.626 216.708Z" fill="#8FBED3"/>
<path d="M204.572 206.195L203.261 206.149C203.989 202.649 208.734 200.981 212.726 203.247C215.781 204.98 219.144 206.53 221.045 209.813C220.514 210.47 220.389 211.448 219.458 211.737C217.236 207.889 212.976 206.885 209.593 204.678C207.482 203.312 206.217 205.584 204.572 206.195Z" fill="#D0D3C3"/>
<path d="M198.141 226.788L199.19 228.003C193.763 230.282 188.492 230.59 183.53 226.801L182.875 226C183.137 225.77 183.425 225.409 183.747 225.494C188.453 226.814 193.382 225.836 198.141 226.788Z" fill="#CFCA9F"/>
<path d="M191.947 200.574C190.636 202.991 193.54 206.123 190.636 208.277C186.356 204.481 182.114 205.611 177.893 208.395C176.607 209.197 175.133 209.65 173.619 209.708H172.885C169.037 208.71 162.24 211.455 159.591 215.08C156.543 219.256 156.484 220.99 159.198 225.357C159.421 225.711 159.716 226.25 159.598 226.552C159.296 227.307 158.516 227.379 157.802 227.281C147.314 225.862 136.76 226.992 126.239 226.657C122.188 226.532 121.382 225.849 121.362 221.653C121.317 214.614 121.362 207.574 121.362 200.528L191.947 200.574Z" fill="#EB882F"/>
<path d="M172.832 211.094L174.419 214.857C174.746 215.822 174.753 216.774 173.763 217.313C169.778 219.493 165.786 221.679 161.387 222.947C161.046 223.032 160.691 223.045 160.345 222.985C159.998 222.925 159.668 222.794 159.375 222.599C158.28 218.468 159.375 216.144 162.974 214.515C165.202 213.517 167.398 212.44 169.575 211.337C170.682 210.785 171.705 210.312 172.832 211.094Z" fill="#B9E1F1"/>
<path d="M159.401 222.599C164.645 221.555 169.011 218.495 173.822 216.393C174.189 216.236 174.262 215.382 174.478 214.857C175.383 216.673 176.289 218.49 177.198 220.307C174.124 221.922 171.109 223.669 167.949 225.107C163.898 226.946 161.689 226.191 159.401 222.599Z" fill="#8FBDCF"/>
<path d="M198.141 226.788C192.969 228.003 187.889 227.445 182.855 226C182.2 224.91 181.275 223.879 181.832 222.428H198.135C198.439 223.865 198.441 225.35 198.141 226.788Z" fill="#8DBED1"/>
<path d="M204.572 206.195C206.676 202.636 208.013 202.406 211.494 204.79C212.794 205.574 214.145 206.27 215.539 206.871C217.584 207.896 219.426 209.084 219.472 211.737L217.833 213.97C215.919 214.627 214.798 213.005 213.52 212.25C210.426 210.437 207.01 209.012 204.572 206.195Z" fill="#B7E3F9"/>
<path d="M173.632 209.695C176.556 208.139 179.375 206.326 182.423 205.098C185.916 203.7 188.702 205.144 190.649 208.277C190.595 208.505 190.566 208.738 190.564 208.973C186.356 209.432 182.698 211.534 179.42 213.78C176.143 216.025 175.52 214.436 174.688 211.875C174.382 211.127 174.029 210.399 173.632 209.695Z" fill="#DB3836"/>
</svg>
