<svg width="232" height="259" viewBox="0 0 232 259" fill="none" xmlns="http://www.w3.org/2000/svg">
<g opacity="0.75">
<path opacity="0.88" d="M165.163 209.239L189.997 256.741L197.791 255.665L175.92 208.923L165.163 209.239Z" fill="#273137"/>
<path d="M106.629 194.598L132.306 207.008H134.798L138.549 193.735L145.302 187.518L194.179 184.587L212.275 149.448L217.608 144.326C218.684 143.486 220.012 143.03 221.379 143.03L227.772 143.885L227.044 143.03H175.434L169.329 159.408L154.489 168.205L132.82 172.173L107.694 179.075L106.629 194.598Z" fill="#282828"/>
<path d="M106.629 256.741H117.707L144.733 209.825L165.167 209.238L175.924 208.939L176.593 208.919C176.593 208.919 198.772 209.152 199.46 209.388C200.149 209.624 223.938 255.618 223.938 255.618H230.632L206.843 203.392L231.008 150.874C231.326 150.183 231.483 149.43 231.467 148.671C231.45 147.911 231.261 147.165 230.913 146.489L229.892 144.495C229.665 144.054 229.32 143.683 228.895 143.425C228.47 143.166 227.981 143.03 227.483 143.03H219.266L214.577 146.69C212.303 148.468 210.47 150.743 209.221 153.34L194.187 184.579L145.31 187.51L138.557 193.727L134.798 207.008L134.561 207.871L106.629 256.741Z" fill="#363636"/>
<path d="M178.386 48.5022C177.403 46.1933 175.8 44.1991 173.753 42.7393C171.705 41.2795 169.293 40.4107 166.782 40.2286C161.207 39.8347 156.309 42.9353 154.122 46.7806C152.563 49.5384 152.852 52.9936 153.429 59.8883C153.896 65.4789 154.501 66.0423 154.988 71.6171C155.577 78.429 155.874 81.833 154.814 84.7288C152.836 90.1106 149.556 89.2596 144.595 96.9737C140.872 102.765 140.243 107.087 140.092 108.529C139.748 111.646 139.372 115.018 141.303 117.5C144.52 121.637 152.693 121.44 158.28 118.879C165.263 115.672 169.219 108.289 171.988 103.179C174.073 99.3061 175.458 95.5002 179.782 91.7968C182.109 89.8033 182.607 90.1342 184.807 88.3455C191.501 82.8968 193.206 74.6862 193.467 73.3388C194.124 69.9466 195.493 62.8629 191.042 56.437C186.797 50.3224 180.083 48.8293 178.386 48.5022Z" fill="#282828"/>
<path d="M166.01 77.6014V94.3338C166.01 96.1979 166.753 97.9856 168.077 99.3038C169.401 100.622 171.196 101.362 173.068 101.362C174.94 101.362 176.735 100.622 178.059 99.3038C179.382 97.9856 180.126 96.1979 180.126 94.3338V77.6014C180.126 75.7373 179.382 73.9495 178.059 72.6314C176.735 71.3133 174.94 70.5728 173.068 70.5728C171.196 70.5728 169.401 71.3133 168.077 72.6314C166.753 73.9495 166.01 75.7373 166.01 77.6014Z" fill="#FFC1A6"/>
<path d="M177.088 83.9487C177.088 83.9487 171.632 89.6377 166.01 87.5694C166.01 84.5515 166.441 84.8115 166.441 84.8115C166.441 84.8115 175.699 85.501 177.088 83.9487Z" fill="#E89680"/>
<path d="M175.529 51.9537C175.339 56.8088 176.35 61.6359 178.473 66.011C179.189 67.4593 180.03 68.8433 180.985 70.1478C180.767 67.9493 181.879 66.208 183.236 65.9243C184.593 65.6406 185.875 66.9762 186.092 67.2166C187.418 68.6822 187.73 71.1879 186.627 72.5629C185.903 73.4533 184.625 73.8276 183.94 74.0285C183.516 74.1528 183.082 74.2398 182.643 74.2885C179.996 74.6155 177.812 82.7 173.634 85.5012C169.982 87.9518 163.89 86.9747 160.645 84.0356C158.667 82.2588 158.098 79.0596 157.006 72.7362C155.882 66.2119 155.344 62.8867 156.574 60.1288C158.826 55.0977 164.151 53.175 165.674 52.6432C168.834 51.5228 172.242 51.2844 175.529 51.9537Z" fill="#FFC1A6"/>
<path d="M169.033 61.5193C170.647 61.5745 172.265 61.6611 173.883 61.6611" stroke="#1E1D1D" stroke-width="1.5" stroke-miterlimit="10"/>
<path d="M162.71 59.7703H157.685" stroke="#1E1D1D" stroke-width="1.5" stroke-miterlimit="10"/>
<path d="M170.995 67.3033C170.23 67.3033 169.61 66.6859 169.61 65.9243C169.61 65.1628 170.23 64.5454 170.995 64.5454C171.76 64.5454 172.38 65.1628 172.38 65.9243C172.38 66.6859 171.76 67.3033 170.995 67.3033Z" fill="#1E1D1D"/>
<path d="M159.68 67.3033C158.915 67.3033 158.295 66.6859 158.295 65.9243C158.295 65.1628 158.915 64.5454 159.68 64.5454C160.445 64.5454 161.064 65.1628 161.064 65.9243C161.064 66.6859 160.445 67.3033 159.68 67.3033Z" fill="#1E1D1D"/>
<path d="M165.709 64.6594C164.8 66.8657 162.149 70.1752 162.687 71.1522C162.825 71.4004 164.467 71.7353 165.353 72.0268" stroke="#263238" stroke-miterlimit="10"/>
<path d="M167 74.556C167.25 74.5942 167.505 74.5821 167.75 74.5206C167.995 74.459 168.226 74.3491 168.428 74.1975C168.657 74.0123 168.823 73.7523 169.073 73.5907C169.563 73.2755 170.287 73.0628 170.616 73.5474C170.768 73.7956 170.835 74.0868 170.806 74.3763C170.776 74.6659 170.653 74.938 170.453 75.1509C170.058 75.5764 169.425 75.5449 168.843 75.5449C168.459 75.5855 168.07 75.5215 167.72 75.3597C167.483 75.5478 167.267 75.7604 167.075 75.994C166.71 76.358 166.253 76.6179 165.753 76.7465C165.227 76.9002 164.768 76.7465 164.657 76.2107C164.613 75.9499 164.613 75.6836 164.657 75.4227C164.907 73.8271 165.801 74.4063 167 74.556Z" fill="#FF2C68"/>
<path d="M100.528 252.033H85.8068C85.8068 252.033 86.3251 253.416 85.8068 253.329C85.2886 253.242 78.3571 254.708 78.3571 255.299V256.729L100.513 256.509L100.528 252.033Z" fill="#FF3E79"/>
<path d="M121.149 182.937H107.413C107.413 182.937 104.291 222.264 102.665 228.934C101.039 235.604 98.4001 252.841 98.4001 252.841H87.18V186.404C87.18 186.404 85.1029 173.264 91.797 166.827C98.4911 160.389 118.589 160.846 118.589 160.846C118.589 160.846 129.232 172.575 121.149 182.937Z" fill="#FFC1A6"/>
<path d="M120.536 252.033H105.81C105.81 252.033 106.332 253.416 105.81 253.329C105.288 253.242 98.3644 254.708 98.3644 255.299V256.729L120.52 256.509L120.536 252.033Z" fill="#FF3E79"/>
<path d="M141.263 182.937H127.527C127.527 182.937 124.401 222.264 122.779 228.934C121.157 235.604 118.522 252.853 118.522 252.853H107.306V186.404C107.306 186.404 105.225 173.264 111.923 166.827C118.621 160.389 138.711 160.846 138.711 160.846C138.711 160.846 149.346 172.575 141.263 182.937Z" fill="#FFC1A6"/>
<path d="M144.294 138.326C144.294 138.326 140.021 145.784 135.309 145.958C130.597 146.131 129.509 144.059 127.396 139.575C125.284 135.092 120.536 113.876 120.94 109.908C118.51 109.219 116.932 107.15 116.228 106.804C115.523 106.457 113.482 102.139 113.561 101.371C113.64 100.602 114.111 97.1432 114.586 95.2442C115.061 93.3452 115.377 91.6472 116.228 90.7607C117.078 89.8742 117.881 88.0226 117.881 88.0226L118.827 90.0712L118.867 94.6848L120.275 91.8127L120.069 88.0383C120.069 88.0383 119.966 84.7958 120.544 84.7407C121.122 84.6855 121.854 84.3822 121.695 85.769C121.537 87.1558 122.534 92.6006 122.534 92.6006L123.788 91.5093L123.737 88.976L123.527 85.241C123.527 85.241 123.159 83.6297 123.998 83.4602C124.837 83.2908 124.995 84.5516 124.995 84.5516L125.414 90.6465L125.675 92.0845C125.675 92.0845 125.778 93.0025 126.198 92.0845C126.617 91.1665 126.617 88.6332 126.617 88.6332C126.617 88.6332 126.356 86.2693 126.514 85.4144C126.672 84.5594 127.768 84.7249 127.768 84.7249L128.397 86.163L128.924 92.8291L128.556 97.3166C128.831 96.5544 129.279 95.8655 129.865 95.3033C130.858 94.3263 131.958 92.9394 132.168 92.9394C132.377 92.9394 132.694 92.5927 133.477 92.707C134.261 92.8212 134.997 93.4556 134.526 94.0308C134.055 94.606 134.106 94.145 133.529 94.9487C132.951 95.7525 131.487 98.6876 131.487 98.6876C131.477 99.5542 131.406 100.419 131.278 101.276C131.123 101.792 130.858 105.645 130.704 106.398C130.55 107.15 136.148 125.372 136.148 125.372L136.619 127.846L139.345 125.317L144.294 138.326Z" fill="#FFC1A6"/>
<path d="M202.127 144.972C201.336 131.289 200.605 117.311 199.794 103.628C197.051 102.761 193.989 102.328 191.393 103.564C186.804 105.818 185.649 110.408 185.502 111.05C186.12 122.282 184.889 133.507 185.502 144.743C190.428 144.499 197.201 145.2 202.127 144.972Z" fill="#FF3E79"/>
<path d="M100.849 162.623C100.849 162.623 117.699 163.143 120.469 163.017C123.238 162.891 133.758 162.229 135.503 163.017C137.248 163.805 142.197 168.415 142.078 172.89C141.96 177.366 140.816 183.473 140.816 183.473C140.816 183.473 181.808 185.206 185.97 183.701C190.132 182.196 193.352 175.79 193.57 173.268C193.787 170.747 191.255 158.998 191.255 158.998C191.255 158.998 186.29 143.145 186.994 142.325C187.699 141.506 193.004 130.265 193.004 130.265L199.793 103.628C199.793 103.045 199.207 102.019 198.429 100.879C197.65 99.7389 196.56 98.8446 195.287 98.3016C190.793 96.2293 181.309 92.652 181.309 92.652L180.122 92.7702V94.3461C180.122 96.2102 179.379 97.9979 178.055 99.3161C176.731 100.634 174.936 101.375 173.064 101.375C171.192 101.375 169.397 100.634 168.073 99.3161C166.75 97.9979 166.006 96.2102 166.006 94.3461V92.2816C164.143 91.8325 161.041 91.2651 159.676 91.9704L157.67 93.0065L146.699 107.371L139.182 119.805L135.044 126.353L144.143 142.227C144.143 142.227 153.152 130.931 153.271 130.38C153.389 129.828 154.43 134.741 154.43 134.741C154.43 134.741 155.704 142.325 154.311 145.434C152.919 148.542 147.736 153.896 143.574 154.57C139.412 155.244 127.515 157.501 123.353 158.069C119.191 158.636 100.849 162.623 100.849 162.623Z" fill="#FF3E79"/>
<path d="M202.792 149.657C202.606 152.04 201.787 154.452 200.082 156.134C197.665 158.498 193.954 159.006 190.555 158.841C185.887 158.616 181.333 157.406 176.744 156.516C166.576 154.546 156.171 154.132 145.884 153.144C144.488 153.01 142.822 152.667 142.324 151.363C144.778 151.69 147.272 151.568 149.682 151.004C147.075 150.386 144.378 150.236 141.718 150.563C141.323 149.57 142.189 148.455 143.206 148.136C144.223 147.817 145.326 148.049 146.371 148.231C147.415 148.412 148.571 148.53 149.504 148.014L142.711 146.789C142.272 146.71 141.758 146.572 141.596 146.154C141.543 145.941 141.571 145.717 141.673 145.522C141.775 145.328 141.944 145.177 142.15 145.099C142.565 144.952 143.012 144.913 143.447 144.984L151.36 145.619C148.851 145.635 146.402 144.861 144.361 143.408C147.581 142.123 151.135 141.921 154.481 142.833C154.481 141.864 153.575 141.186 152.784 140.627C151.993 140.067 151.146 139.24 151.36 138.298C151.573 137.357 152.942 136.947 153.872 137.341C154.802 137.735 155.455 138.61 156.084 139.405C157.449 141.123 159.083 142.699 161.112 143.538C162.853 144.255 164.768 144.393 166.651 144.488C177.998 144.882 189.257 144.488 200.493 142.77C202.523 142.459 202.321 142.912 202.578 144.858C202.818 146.446 202.889 148.054 202.792 149.657Z" fill="#FFC1A6"/>
<path d="M52.0008 246.974V256.521H72.6133C72.6133 256.521 66.9557 253.873 66.2634 253.069C65.571 252.266 65.9152 247.321 65.9152 247.321L52.0008 246.974Z" fill="#FF3E79"/>
<path d="M3.26688 243.685L0.497452 252.817L20.2158 258.798C20.2158 258.798 15.5553 254.641 15.128 253.653C14.7007 252.664 16.4771 248.054 16.4771 248.054L3.26688 243.685Z" fill="#FF3E79"/>
<path d="M18.629 252.033C18.629 252.033 5.46626 249.618 1.42685 243.523C7.66203 234.784 30.8698 189.48 31.218 187.408C31.5661 185.336 5.581 144.07 4.19628 140.607C2.81157 137.144 -0.306019 128.189 1.42685 123.819L2.34866 122.094L24.5753 120.774C24.5753 120.774 55.581 178.555 55.581 182.869C55.581 187.183 55.9292 190.457 54.0223 194.251C52.1153 198.045 18.629 252.033 18.629 252.033Z" fill="#282828"/>
<path d="M70.1322 251.241H48.4792L62.8565 181.731C62.8565 181.731 33.7577 160.342 25.4415 154.306C17.1254 148.27 11.2383 142.92 8.64298 134.816C7.10063 129.872 7.10063 124.579 8.64298 119.636L46.9204 121.704C46.9204 121.704 80.0032 164.999 81.0437 170.002C82.0842 175.006 82.6025 181.211 81.9102 186.215C81.2178 191.218 70.1322 251.241 70.1322 251.241Z" fill="#282828"/>
<path d="M62.8564 181.731L27.5423 155.421C24.5988 153.226 21.6434 151.087 18.9215 148.641C16.1995 146.194 13.6912 143.558 11.8278 140.473C10.8949 138.939 10.1207 137.314 9.51731 135.623C8.90638 133.94 8.49217 132.193 8.28292 130.415C8.07458 128.639 8.05604 126.845 8.22755 125.065C8.31362 124.176 8.44567 123.292 8.62318 122.417C8.78976 121.553 9.01447 120.702 9.29576 119.868L8.61526 120.317L46.8808 122.681L46.9876 120.731L8.69043 118.954L8.16424 118.93L8.00996 119.403C7.44513 121.208 7.09328 123.072 6.96152 124.958C6.81041 126.827 6.85948 128.706 7.10791 130.565C7.35504 132.422 7.81703 134.246 8.4847 135.998C9.1357 137.749 9.96701 139.428 10.9653 141.009C12.9435 144.161 15.5784 146.864 18.3636 149.283C21.1489 151.702 24.1755 153.829 27.1467 155.98L62.8564 181.731Z" fill="#363636"/>
<path d="M20.4606 142.144C23.2577 144.114 26.9608 144.114 30.387 144.003C31.4799 141.037 32.4045 138.012 33.1564 134.942C33.3183 134.468 33.3183 133.954 33.1564 133.48C32.7885 132.692 31.7203 132.594 30.8459 132.609L18.0156 132.865C16.9355 132.889 15.8594 132.905 14.7794 132.932C13.6993 132.96 13.5687 132.988 14.1345 133.866C15.0088 135.225 15.986 136.522 16.8485 137.893C17.8534 139.48 18.9216 141.052 20.4606 142.144Z" fill="#363636"/>
<path d="M46.177 103.069C49.0894 108.016 53.6081 111.826 58.9876 113.872C61.8005 114.932 65.0447 115.448 67.7627 114.171C69.2147 113.482 70.3897 112.339 71.4737 111.165C75.7624 106.528 79.1015 101.123 82.8363 96.0326C86.5711 90.9423 90.8439 86.053 96.3867 83.0312C97.7635 82.2747 99.2234 81.6326 100.438 80.6437C101.653 79.6548 102.634 78.2207 102.618 76.6566C100.907 78.7285 98.584 80.2116 95.9792 80.8958C94.6024 81.2543 92.9289 81.2898 91.9754 80.2457C90.7133 78.8471 91.6945 76.4517 93.3324 75.518C94.9703 74.5842 96.9604 74.6 98.8396 74.3991C100.719 74.1981 102.796 73.6111 103.718 71.9721C99.8485 70.1125 95.1167 70.9084 91.3582 72.9847C87.5997 75.0609 84.6127 78.2483 81.6969 81.3883L66.2672 98.0104C64.8192 99.5863 62.7065 101.273 60.7996 100.339C59.949 99.9448 59.4109 99.082 58.8926 98.294C57.0529 95.4928 48.3213 83.0903 44.1118 85.9506C42.2602 87.2074 42.7152 90.9896 42.8932 92.8413C43.2389 96.4456 44.3588 99.9337 46.177 103.069Z" fill="#FFC1A6"/>
<path d="M73.9345 92.5655C73.6575 91.7302 72.5775 91.5451 71.6952 91.4978C69.6577 91.3875 67.5925 91.285 65.6064 91.7499C61.3929 92.7349 58.22 96.0837 55.32 99.2947C55.4664 99.338 55.4703 99.1686 55.6127 99.212C55.8903 103.693 56.8082 108.112 58.3387 112.335C59.0943 114.412 60.0557 116.512 61.753 117.93C64.8943 120.558 69.5034 120.14 73.5626 119.545C82.9272 118.17 92.2681 116.63 101.609 115.085C105.929 114.372 110.337 113.632 114.206 111.579C116.805 110.18 119.069 108.238 120.845 105.887C122.62 103.536 123.864 100.83 124.492 97.9551C124.888 96.0089 125.003 93.905 124.152 92.1085C123.301 90.3119 121.276 88.9566 119.329 89.3939C116.956 89.9258 115.864 92.5458 114.764 94.693C113.765 96.6317 112.496 98.4197 110.993 100.004C109.628 101.442 107.551 103.625 105.601 104.243C104.481 104.598 102.958 104.432 101.771 104.535C100.355 104.661 98.9464 104.818 97.534 104.976C94.7131 105.295 91.8922 105.63 89.0556 105.764C86.2731 105.893 83.4849 105.827 80.7117 105.567C79.2399 105.425 77.6218 105.153 76.6881 103.991C75.1056 102.041 76.4586 98.8258 74.9829 96.7929C74.4567 96.068 74.5873 94.7876 74.3222 93.9326C74.5873 93.3338 74.1521 93.2037 73.9345 92.5655Z" fill="#FFC1A6"/>
<path d="M53.6933 89.6616C54.1839 96.7533 54.6152 102.663 54.6152 102.663L75.4531 98.0692L74.7647 63.2137C74.7647 63.2137 72.5452 58.6395 68.9924 57.5049L55.624 88.9761C55.624 88.9761 54.7655 89.2322 53.6933 89.6616Z" fill="#FF3E79"/>
<path d="M0.920769 125.317L44.381 126.105C44.381 126.105 47.3641 95.0788 48.6618 92.8883C49.453 91.5369 51.9218 90.3668 53.6863 89.6616C54.7664 89.2321 55.6091 88.976 55.6091 88.976L68.9775 57.5048L69.0962 57.233C69.0962 57.233 35.3725 51.8354 35.0203 51.8354C34.6682 51.8354 27.167 59.0886 27.167 59.0886C27.167 59.0886 18.0675 72.7716 13.6601 83.4643C9.2528 94.1569 0.920769 125.317 0.920769 125.317Z" fill="#FF3E79"/>
<path d="M4.31572 106.236L39.1788 112.611V126.648L74.2793 171.645L83.1099 165.96L49.5246 126.294L48.8758 114.372L48.7215 111.417L48.0727 99.4361L58.2404 88.5268L57.4927 85.7532L42.4191 93.3767L39.1788 108.525V109.68L4.84586 103.404L4.31572 106.236Z" fill="#363636"/>
<path d="M12.319 116.831C11.4146 115.687 10.7493 114.374 10.362 112.97C9.97469 111.566 9.87332 110.099 10.0638 108.656C10.2498 107.269 10.6771 105.681 11.6701 104.637C12.5722 103.699 13.5098 103.739 14.5701 104.341C15.5315 104.885 16.5799 105.342 16.7738 106.56C17.0033 108.037 15.8282 109.369 14.6769 110.105C11.7295 112 8.06592 111.201 4.89295 110.448C4.27972 110.306 3.79703 109.617 3.19171 109.471C5.96114 110.129 9.00356 110.822 11.7809 109.735C13.7274 108.971 16.8173 105.858 14.0716 104.066L15.7451 105.023C12.9757 103.782 11.8402 108.396 11.7018 110.228C11.4938 112.953 12.3212 115.657 14.0202 117.804C13.6483 117.331 12.6988 117.303 12.319 116.827V116.831Z" fill="#4C4C4C"/>
<path d="M11.3935 108.868C11.2352 103.254 15.1599 98.2818 19.1122 94.6532C21.9845 92.0135 26.3958 88.1643 30.5579 89.2753C32.1602 89.7008 33.6201 90.4573 33.4183 92.4272C33.1413 95.0984 30.3759 97.285 28.4135 98.8215C26.1228 100.614 23.749 102.296 21.4702 104.105C19.1914 105.913 16.865 107.454 13.9176 107.698C13.7633 107.698 12.5329 107.426 12.4973 107.304C10.8791 102.47 5.79922 99.771 4.58463 94.6177C3.67467 90.7843 5.80714 84.8273 10.7525 85.7137C19.9549 87.3685 15.3735 102.34 13.6248 107.966C13.6248 107.993 12.2045 107.572 12.2045 107.572C13.4428 103.585 14.4715 99.4007 14.7366 95.2166C14.9185 92.2775 14.5348 86.746 10.9464 85.761L12.0185 86.0407C6.82389 85.6783 4.93277 91.4698 6.18297 95.6303C7.62307 100.401 12.3865 103.057 13.9294 107.67L12.5091 107.276C17.5732 106.859 21.5335 102.426 25.4305 99.578C27.7212 97.9075 35.8079 91.5486 30.1543 89.1217L30.6766 89.2675L30.1899 89.1374L31.092 89.3699C28.7182 89.0586 26.5105 90.5518 24.6115 91.8008C22.5441 93.1709 20.6395 94.7702 18.9342 96.568C15.6782 99.9917 12.6872 104.294 12.8256 109.199C12.8256 109.069 11.4093 108.971 11.4053 108.805L11.3935 108.868Z" fill="#4C4C4C"/>
<path d="M69.8387 49.3165C64.8978 47.9649 62.7256 40.2238 64.9869 32.0262C67.2481 23.8286 73.0866 18.2789 78.0274 19.6304C82.9683 20.982 85.1405 28.7231 82.8792 36.9207C80.618 45.1182 74.7795 50.668 69.8387 49.3165Z" fill="#FFC1A6"/>
<path d="M74.2664 32.5501C74.7728 32.2901 83.7616 27.6096 85.8743 23.3191C86.2922 22.4716 86.5599 21.5586 86.6656 20.6204C86.7526 19.2651 86.3569 17.8152 85.3679 15.8926C83.722 12.7013 74.8045 5.36936 71.5999 4.86112C68.3952 4.35289 61.986 3.39551 58.2631 5.46391C55.7508 3.82495 55.4937 0.117588 51.5927 1.14982C49.2112 1.72069 47.1548 3.21012 45.8758 5.29056C45.4446 5.89335 45.7928 10.8063 45.8758 11.5943C46.0974 13.5642 48.6453 12.7762 49.4365 13.7493C51.6798 16.5072 44.0994 26.0731 41.8443 28.957C28.6065 45.8785 21.406 55.3143 22.6759 64.9511C22.8381 66.1843 23.7758 72.2595 28.4482 75.1946C32.6657 77.8382 37.6744 76.5026 43.1143 74.9661C50.1447 72.9962 59.8694 70.2383 65.2697 60.7079C65.2697 60.7079 69.1469 53.8881 68.6168 43.1127C68.4941 40.6149 68.3992 38.6765 67.1173 36.7893C66.4764 35.8477 65.8751 35.4143 65.3845 34.1457C65.0561 33.2947 64.3479 31.4745 65.2697 29.6583C66.3775 27.4717 68.9056 27.1486 69.0797 27.1289C69.991 27.0148 70.9156 27.1754 71.7344 27.5899C73.3921 28.4409 74.3535 30.3872 74.2664 32.5501Z" fill="#363636"/>
<path d="M82.1562 22.811C80.6014 22.2239 78.8567 22.2633 77.2148 22.4446C75.5729 22.6258 73.9508 22.9686 72.3723 23.0631C70.8116 23.1573 69.2473 22.9541 67.7631 22.4643C66.2622 21.978 64.8332 21.2943 63.5141 20.4313C62.1629 19.5668 60.8775 18.6041 59.6685 17.5513C58.4223 16.523 57.2235 15.408 55.9693 14.3482C53.4927 12.201 50.9804 10.0932 48.3653 8.0918C50.5611 10.5384 52.8597 12.8826 55.19 15.1835C56.3452 16.3654 57.5281 17.4804 58.7506 18.5993C59.9866 19.7241 61.3094 20.7503 62.707 21.6684C64.145 22.5883 65.7059 23.3018 67.3438 23.788C69.0042 24.2722 70.7478 24.4064 72.4633 24.182C74.1566 23.9772 75.7351 23.4886 77.3177 23.138C78.8925 22.7086 80.5376 22.5974 82.1562 22.811Z" fill="#3F3F3F"/>
<path d="M55.8186 5.84229C54.7187 7.83189 53.7573 9.87272 52.8434 11.9293C52.2858 13.008 51.9572 14.1896 51.8781 15.4003C51.8803 16.0626 52.0246 16.7167 52.3014 17.319C52.5742 17.8929 52.9301 18.4239 53.3577 18.8949C54.1722 19.7548 55.092 20.5093 56.0955 21.1406C57.0598 21.7774 58.0716 22.3398 59.1221 22.8229C61.1995 23.8042 63.43 24.4251 65.7173 24.6588C63.6197 23.8739 61.5911 22.9172 59.6522 21.7985C58.698 21.2444 57.7736 20.6408 56.8828 19.9902C56.0025 19.3798 55.186 18.6829 54.4457 17.9099C53.7605 17.2279 53.34 16.3262 53.2588 15.3648C53.1995 14.4193 53.5595 13.3949 53.8998 12.3312C54.6238 10.2037 55.2765 8.04858 55.8186 5.84229Z" fill="#3F3F3F"/>
<path d="M76.7637 26.7584C74.0161 25.7773 71.1977 25.0055 68.3327 24.4497C66.9006 24.1699 65.4525 23.9493 63.9808 23.7641C63.1744 23.6543 62.3532 23.7675 61.607 24.0911C61.2304 24.2586 60.8768 24.473 60.5546 24.7294C60.2379 24.9948 59.9549 25.2978 59.7119 25.6316C59.2369 26.3095 58.9453 27.0979 58.8653 27.9206L58.6041 30.0639C58.4195 31.4927 58.2138 32.9176 57.9869 34.3386C57.5399 37.1871 57.0335 40.0198 56.4282 42.8368C55.8228 45.6537 55.2413 48.4628 53.8209 50.8188C53.106 51.9918 52.1822 53.0252 51.095 53.8682C49.9991 54.7429 48.7885 55.523 47.5937 56.3779C46.3719 57.221 45.2374 58.1831 44.2071 59.25C43.184 60.3192 42.2757 61.4917 41.497 62.7486C39.9435 65.2404 38.9389 68.0322 38.5495 70.9394C39.8871 65.3206 43.362 60.4379 48.2425 57.3195C49.4294 56.5316 50.7034 55.7909 51.8942 54.8768C53.1278 53.9645 54.1831 52.8349 55.0078 51.5438C55.7883 50.2493 56.3949 48.8585 56.8119 47.4069C57.2511 45.9807 57.5636 44.5506 57.8683 43.1322C58.4498 40.2838 58.9602 37.4156 59.3598 34.5356C59.5576 33.0975 59.7317 31.6516 59.882 30.2018C59.9572 29.4768 60.0284 28.7559 60.0917 28.0309C60.0917 27.834 60.1273 27.7118 60.1471 27.5503C60.1756 27.3983 60.2139 27.2482 60.2618 27.1011C60.3546 26.8047 60.4877 26.5224 60.6575 26.262C60.831 26.0031 61.0356 25.7663 61.2668 25.5567C61.5055 25.3494 61.7717 25.1757 62.058 25.0406C62.6358 24.7629 63.2786 24.6472 63.9175 24.7057C65.3576 24.8082 66.7937 24.9539 68.2259 25.1431C71.0991 25.5275 73.9492 26.0667 76.7637 26.7584Z" fill="#3F3F3F"/>
<path d="M59.1777 19.9744C54.4539 20.6441 50.0782 23.662 47.562 27.854C46.9286 28.9062 46.415 30.0254 46.0309 31.191C45.6794 32.348 45.4006 33.5256 45.1961 34.7171C44.9745 35.8991 44.8005 37.0456 44.5512 38.1684C44.4246 38.7357 44.3099 39.3031 44.1556 39.8586C44.0013 40.4141 43.8628 40.9814 43.6769 41.533C43.0003 43.7608 42.1701 45.9395 41.1923 48.0534C40.2428 50.1888 39.1469 52.2572 38.0272 54.3256C36.9076 56.394 35.7088 58.423 34.5061 60.4559L32.7178 63.5172C32.1551 64.5498 31.461 65.5059 30.6527 66.3617C31.5783 65.6081 32.3886 64.7242 33.0581 63.7378C33.7584 62.7804 34.4349 61.8112 35.1154 60.842C36.4605 58.8958 37.7859 56.9259 39.0203 54.8969C40.2729 52.8699 41.4204 50.7804 42.4583 48.6365C43.4967 46.4707 44.3747 44.2321 45.0853 41.9388C45.7571 39.6457 46.2544 37.3054 46.5729 34.9378C46.7363 33.7967 46.9688 32.6666 47.2692 31.5535C47.5984 30.4641 48.0316 29.4087 48.5629 28.4016C49.6845 26.3675 51.2002 24.5753 53.0223 23.1287C54.8444 21.6821 56.9366 20.61 59.1777 19.9744Z" fill="#3F3F3F"/>
<path d="M120.129 57.8161C116.255 55.8462 116.006 52.3595 114.127 52.5289C112.394 52.6826 110.076 55.8659 109.854 58.2771C109.818 58.6711 109.783 59.6206 109.162 60.0027C108.624 60.3297 108.145 59.9318 107.429 60.117C106.479 60.3613 105.759 61.4683 105.581 62.4178C105.288 63.9938 106.606 64.3877 107.081 67.0156C107.373 68.6152 107.005 69.1431 107.544 69.6592C108.501 70.5772 110.095 69.348 111.239 70.2344C111.935 70.7781 112.01 71.8104 112.165 73.9142C112.335 76.2781 111.951 76.5696 112.279 77.2512C113.419 79.6151 119.978 80.1706 121.861 77.594C123.171 75.8053 121.407 73.6187 122.902 72.0782C124.089 70.8569 125.695 71.7119 127.982 70.5851C128.583 70.2896 130.985 69.0761 131.448 67.0195C132.1 64.1001 128.571 60.637 125.327 59.199C122.89 58.1156 122.36 58.9547 120.129 57.8161Z" fill="#F9B2C9"/>
<path d="M108.612 74.0441C108.73 74.7454 108.964 75.1946 109.403 75.1197C110.914 74.8439 115.409 75.1197 117.039 75.1197C118.669 75.1197 117.371 73.0868 117.039 69.9586C116.858 68.1529 115.985 66.4862 114.602 65.3057L108.774 69.2455C108.744 69.4268 108.724 69.6096 108.715 69.7931C108.592 70.7387 108.394 72.7913 108.612 74.0441Z" fill="#FF3E79"/>
<path d="M90.9268 79.2802C90.9268 79.2802 92.0425 80.4936 94.6338 81.0216C96.8929 78.8901 105.549 75.2734 108.612 74.0441C108.394 72.7913 108.612 70.7386 108.71 69.7812L92.7309 74.903L90.9268 79.2802Z" fill="#282828"/>
<path d="M100.07 102.127L120.642 102.647C120.813 102.651 120.982 102.608 121.131 102.524C121.279 102.439 121.402 102.316 121.485 102.167L127.392 91.4819C127.469 91.342 127.509 91.1847 127.508 91.0251C127.507 90.8654 127.464 90.7087 127.385 90.57C127.305 90.4313 127.192 90.3152 127.054 90.2327C126.917 90.1503 126.761 90.1042 126.601 90.099L106.795 89.7366C106.637 89.7355 106.482 89.7748 106.343 89.8507C106.204 89.9266 106.088 90.0365 106.004 90.17L99.3139 100.701C99.2261 100.839 99.1765 100.998 99.17 101.162C99.1636 101.325 99.2006 101.487 99.2772 101.632C99.3539 101.777 99.4675 101.899 99.6066 101.986C99.7457 102.073 99.9054 102.121 100.07 102.127Z" fill="#282828"/>
<path d="M102.578 100.555L118.744 100.65L123.764 92.0845H108.121L102.578 100.555Z" fill="#DBDBDB"/>
<path d="M89.7871 101.627H117.442C117.809 101.627 118.106 101.923 118.106 102.289V104.243C118.106 104.609 117.809 104.905 117.442 104.905H89.7871C89.42 104.905 89.1224 104.609 89.1224 104.243V102.289C89.1224 101.923 89.42 101.627 89.7871 101.627Z" fill="#282828"/>
</g>
</svg>
