<svg width="30" height="30" viewBox="0 0 30 30" fill="none" xmlns="http://www.w3.org/2000/svg">
<g clip-path="url(#clip0)">
<path d="M21.0793 12.6247L20.8076 13.7233C21.5015 13.8954 21.8327 14.0573 21.9832 14.1546C21.4042 14.5304 18.8259 15.2832 11.887 15.2832C4.94806 15.2832 2.36922 14.5304 1.79073 14.154C1.94301 14.0561 2.28092 13.8919 2.99243 13.717L2.72243 12.6178C1.79699 12.8448 0.566406 13.2512 0.566406 14.1511C0.566406 16.0225 6.72251 16.4153 11.887 16.4153C17.0514 16.4153 23.2075 16.0219 23.2075 14.1511C23.2075 13.2558 21.9928 12.8511 21.0793 12.6247Z" fill="url(#paint0_linear)" fill-opacity="0.9"/>
<path d="M23.2072 14.1506H22.0752V23.207H23.2072V14.1506Z" fill="url(#paint1_linear)" fill-opacity="0.9"/>
<path d="M1.6985 24.2672V14.1512H0.566406V24.3397C0.566406 24.8089 0.566406 26.0548 7.41363 26.4782L7.48324 25.3484C2.80674 25.0585 1.84791 24.4019 1.6985 24.2672Z" fill="url(#paint2_linear)" fill-opacity="0.9"/>
<path d="M18.1135 22.6416C16.223 22.6416 6.79297 22.7503 6.79297 24.9057C6.79297 27.0612 16.223 27.1699 18.1135 27.1699C20.0041 27.1699 29.4341 27.0612 29.4341 24.9057C29.4341 22.7503 20.0041 22.6416 18.1135 22.6416ZM18.1141 26.0378C12.7085 26.0378 8.99657 25.4106 8.07278 24.9057C8.99651 24.4008 12.7085 23.7737 18.1141 23.7737C23.5197 23.7737 27.2312 24.4008 28.1555 24.9057C27.2312 25.4106 23.5197 26.0378 18.1141 26.0378Z" fill="url(#paint3_linear)" fill-opacity="0.9"/>
<path d="M28.301 24.9058V27.6674C27.9648 28.0076 25.5303 28.8679 18.1126 28.8679C10.6948 28.8679 8.25971 28.0081 7.92403 27.6674V24.9058H6.79199V27.7359C6.79199 29.6072 12.9481 30 18.1126 30C23.277 30 29.4331 29.6066 29.4331 27.7359V24.9058H28.301Z" fill="url(#paint4_linear)" fill-opacity="0.9"/>
<path d="M20.7466 17.0674C20.6209 16.9604 20.4551 16.914 20.292 16.9378C17.5253 17.3617 14.7008 17.5485 11.8757 17.4908C9.0722 17.548 6.24885 17.3617 3.48211 16.9378C3.31799 16.9112 3.1527 16.9604 3.0276 17.0674C2.90191 17.1755 2.83008 17.3317 2.83008 17.497V23.0701C2.83008 23.3412 3.0225 23.5744 3.28799 23.6259C5.47852 24.0521 7.71774 24.2678 9.949 24.2678C10.0299 24.2678 10.1115 24.2672 10.1924 24.2661L10.1845 23.1341C8.10487 23.1482 6.01231 22.9688 3.96211 22.6003V18.1524C6.58454 18.518 9.2505 18.6765 11.8752 18.6228C14.5208 18.6743 17.1891 18.5181 19.8109 18.1524V22.615C19.7492 22.6269 19.6847 22.6388 19.6179 22.6507L19.82 23.7652C20.0883 23.7165 20.317 23.6673 20.5094 23.6214C20.7641 23.5597 20.943 23.3322 20.943 23.0707V17.4976C20.943 17.3323 20.8711 17.1755 20.7466 17.0674Z" fill="url(#paint5_linear)" fill-opacity="0.9"/>
<path d="M6.22682 9.62299C4.04198 9.62299 2.26465 11.4003 2.26465 13.5852V15.2833H3.39668V13.5852C3.39668 12.0246 4.66629 10.755 6.22682 10.755H10.189V9.62299H6.22682Z" fill="url(#paint6_linear)" fill-opacity="0.9"/>
<path d="M17.5473 9.62299H15.2832V10.755H17.5473C19.1079 10.755 20.3775 12.0246 20.3775 13.5852V15.2833H21.5095V13.5852C21.5096 11.4003 19.7316 9.62299 17.5473 9.62299Z" fill="url(#paint7_linear)" fill-opacity="0.9"/>
<path d="M14.1818 3.05992C14.1637 3.05083 14.1445 3.04292 14.1252 3.0356L13.4114 2.77128C13.3922 2.76449 13.3724 2.75828 13.352 2.75318C12.212 2.46847 11.17 1.87925 10.3391 1.04944L9.45606 0.166434C9.29364 0.00401209 9.05077 -0.0446794 8.83907 0.0436216C8.62796 0.131337 8.48985 0.337939 8.48985 0.56663V1.41566C8.48985 2.47919 8.90417 3.47939 9.68077 4.25541C10.008 4.58259 10.188 5.0173 10.188 5.50803C10.188 5.90482 9.86534 6.22686 9.46913 6.22686H9.05593C6.87108 6.22686 5.09375 8.00418 5.09375 10.189H6.22578C6.22578 8.6285 7.49539 7.35889 9.05593 7.35889H9.46913C10.4891 7.35889 11.3201 6.52908 11.3201 5.47967C11.3201 4.71496 11.0223 3.99554 10.4574 3.43064C10.0629 3.03671 9.79403 2.53011 9.68142 1.98782C10.6255 2.88326 11.7848 3.52287 13.0476 3.84326L13.7019 4.08607C14.6783 4.58699 15.2834 5.57588 15.2822 6.6751V6.79281H13.5841V7.92485H15.8482C16.1613 7.92485 16.4143 7.67125 16.4143 7.35883V6.67563C16.4154 5.13496 15.5601 3.74933 14.1818 3.05992Z" fill="url(#paint8_linear)" fill-opacity="0.9"/>
<path d="M14.717 6.79285H13.585V7.92488H14.717C15.9656 7.92488 16.9811 8.94031 16.9811 10.189H18.1132C18.1132 8.31599 16.59 6.79285 14.717 6.79285Z" fill="url(#paint9_linear)" fill-opacity="0.9"/>
</g>
<defs>
<linearGradient id="paint0_linear" x1="35.5457" y1="11.4849" x2="8.68997" y2="-1.63169" gradientUnits="userSpaceOnUse">
<stop offset="0.145833" stop-color="#FF3E79"/>
<stop offset="1" stop-color="#F9357C"/>
</linearGradient>
<linearGradient id="paint1_linear" x1="23.8241" y1="11.4488" x2="22.1612" y2="11.4318" gradientUnits="userSpaceOnUse">
<stop offset="0.145833" stop-color="#FF3E79"/>
<stop offset="1" stop-color="#F9357C"/>
</linearGradient>
<linearGradient id="paint2_linear" x1="11.2525" y1="10.4737" x2="1.11246" y2="10.0076" gradientUnits="userSpaceOnUse">
<stop offset="0.145833" stop-color="#FF3E79"/>
<stop offset="1" stop-color="#F9357C"/>
</linearGradient>
<linearGradient id="paint3_linear" x1="41.7723" y1="21.2907" x2="13.2887" y2="9.62417" gradientUnits="userSpaceOnUse">
<stop offset="0.145833" stop-color="#FF3E79"/>
<stop offset="1" stop-color="#F9357C"/>
</linearGradient>
<linearGradient id="paint4_linear" x1="41.7713" y1="23.386" x2="12.4023" y2="12.6933" gradientUnits="userSpaceOnUse">
<stop offset="0.145833" stop-color="#FF3E79"/>
<stop offset="1" stop-color="#F9357C"/>
</linearGradient>
<linearGradient id="paint5_linear" x1="30.8136" y1="14.7418" x2="5.24939" y2="9.57201" gradientUnits="userSpaceOnUse">
<stop offset="0.145833" stop-color="#FF3E79"/>
<stop offset="1" stop-color="#F9357C"/>
</linearGradient>
<linearGradient id="paint6_linear" x1="14.5073" y1="7.93438" x2="3.01683" y2="6.6166" gradientUnits="userSpaceOnUse">
<stop offset="0.145833" stop-color="#FF3E79"/>
<stop offset="1" stop-color="#F9357C"/>
</linearGradient>
<linearGradient id="paint7_linear" x1="24.9025" y1="7.93438" x2="15.8291" y2="7.11678" gradientUnits="userSpaceOnUse">
<stop offset="0.145833" stop-color="#FF3E79"/>
<stop offset="1" stop-color="#F9357C"/>
</linearGradient>
<linearGradient id="paint8_linear" x1="22.5833" y1="-3.03948" x2="6.08903" y2="-4.54073" gradientUnits="userSpaceOnUse">
<stop offset="0.145833" stop-color="#FF3E79"/>
<stop offset="1" stop-color="#F9357C"/>
</linearGradient>
<linearGradient id="paint9_linear" x1="20.5808" y1="5.77969" x2="14.0068" y2="5.06166" gradientUnits="userSpaceOnUse">
<stop offset="0.145833" stop-color="#FF3E79"/>
<stop offset="1" stop-color="#F9357C"/>
</linearGradient>
<clipPath id="clip0">
<rect width="30" height="30" fill="white"/>
</clipPath>
</defs>
</svg>
