<svg width="22" height="20" viewBox="0 0 22 20" fill="none" xmlns="http://www.w3.org/2000/svg">
<path d="M12.9167 5.33333V3.16667C12.9167 2.59203 12.6884 2.04093 12.2821 1.6346C11.8757 1.22827 11.3246 1 10.75 1H3.16667C2.59203 1 2.04093 1.22827 1.6346 1.6346C1.22827 2.04093 1 2.59203 1 3.16667V16.1667C1 16.7413 1.22827 17.2924 1.6346 17.6987C2.04093 18.1051 2.59203 18.3333 3.16667 18.3333H10.75C11.3246 18.3333 11.8757 18.1051 12.2821 17.6987C12.6884 17.2924 12.9167 16.7413 12.9167 16.1667V14" stroke="white" stroke-width="1.5" stroke-linecap="round" stroke-linejoin="round"/>
<path d="M20.4997 9.66675H5.33301H11.9315H20.4997ZM20.4997 9.66675L17.2497 6.41675M20.4997 9.66675L17.2497 12.9167" stroke="white" stroke-width="1.5" stroke-linecap="round" stroke-linejoin="round"/>
</svg>
