<svg width="26" height="24" viewBox="0 0 26 24" fill="none" xmlns="http://www.w3.org/2000/svg">
<path d="M15.6667 6.33333V3.66667C15.6667 2.95942 15.3857 2.28115 14.8856 1.78105C14.3855 1.28095 13.7072 1 13 1H3.66667C2.95942 1 2.28115 1.28095 1.78105 1.78105C1.28095 2.28115 1 2.95942 1 3.66667V19.6667C1 20.3739 1.28095 21.0522 1.78105 21.5523C2.28115 22.0524 2.95942 22.3333 3.66667 22.3333H13C13.7072 22.3333 14.3855 22.0524 14.8856 21.5523C15.3857 21.0522 15.6667 20.3739 15.6667 19.6667V17" stroke="white" stroke-width="1.5" stroke-linecap="round" stroke-linejoin="round"/>
<path d="M24.9997 11.667H6.33301H14.4542H24.9997ZM24.9997 11.667L20.9997 7.66699M24.9997 11.667L20.9997 15.667" stroke="white" stroke-width="1.5" stroke-linecap="round" stroke-linejoin="round"/>
</svg>
