<svg width="38" height="37" viewBox="0 0 38 37" fill="none" xmlns="http://www.w3.org/2000/svg">
<path d="M3.89744 31.1579V3.89474H17.5385V17.5263H31.1795V19.4737C32.5436 19.4737 33.8492 19.7268 35.0769 20.1553V11.6842L23.3846 0H3.89744C1.73436 0 0 1.73316 0 3.89474V31.1579C0 32.1908 0.410621 33.1815 1.14153 33.9119C1.87244 34.6423 2.86377 35.0526 3.89744 35.0526H20.1692C19.7405 33.8258 19.4872 32.5211 19.4872 31.1579H3.89744ZM21.4359 2.92105L32.1538 13.6316H21.4359V2.92105ZM38 27.75L28.7436 37L23.3846 31.1579L25.6451 28.8989L28.7436 31.9953L35.7395 25.0042L38 27.75Z" fill="#FF3E79"/>
</svg>
