<svg width="20" height="20" viewBox="0 0 20 20" fill="none" xmlns="http://www.w3.org/2000/svg">
<g clip-path="url(#clip0_481:2472)">
<path d="M18.4592 12.5635C18.1841 12.5635 17.9611 12.7865 17.9611 13.0616V17.4843C17.9601 18.3092 17.2918 18.9778 16.4668 18.9786H2.49052C1.66553 18.9778 0.99718 18.3092 0.996207 17.4843V4.50419C0.99718 3.6794 1.66553 3.01085 2.49052 3.00988H6.91313C7.18826 3.00988 7.41124 2.7869 7.41124 2.51178C7.41124 2.23685 7.18826 2.01367 6.91313 2.01367H2.49052C1.11567 2.01523 0.00155657 3.12935 0 4.50419V17.4845C0.00155657 18.8593 1.11567 19.9734 2.49052 19.975H16.4668C17.8416 19.9734 18.9558 18.8593 18.9573 17.4845V13.0616C18.9573 12.7865 18.7343 12.5635 18.4592 12.5635Z" fill="#FF3E79"/>
<path d="M18.7602 0.732706C17.8848 -0.142673 16.4656 -0.142673 15.5903 0.732706L6.70377 9.61919C6.64287 9.68009 6.59889 9.75558 6.57593 9.83847L5.40734 14.0574C5.35928 14.2303 5.40811 14.4156 5.53498 14.5426C5.66203 14.6695 5.84726 14.7183 6.02024 14.6705L10.2391 13.5017C10.322 13.4787 10.3975 13.4347 10.4584 13.3738L19.3447 4.48716C20.2187 3.6112 20.2187 2.19316 19.3447 1.3172L18.7602 0.732706ZM7.78909 9.94295L15.062 2.66986L17.4076 5.01542L10.1345 12.2885L7.78909 9.94295ZM7.32056 10.8831L9.19448 12.7572L6.6024 13.4754L7.32056 10.8831ZM18.6404 3.78281L18.1121 4.31107L15.7663 1.96532L16.2948 1.43706C16.781 0.950821 17.5694 0.950821 18.0557 1.43706L18.6404 2.02155C19.1258 2.50837 19.1258 3.29619 18.6404 3.78281Z" fill="#FF3E79"/>
</g>
<defs>
<clipPath id="clip0_481:2472">
<rect width="20" height="20" fill="white"/>
</clipPath>
</defs>
</svg>
