<svg width="35" height="35" viewBox="0 0 35 35" fill="none" xmlns="http://www.w3.org/2000/svg">
<g clip-path="url(#clip0)">
<path d="M34.8159 13.6801C34.7028 13.3336 34.4058 13.0861 34.0451 13.0295L23.2961 11.502L18.4591 1.77843C18.2964 1.45313 17.964 1.24805 17.6034 1.24805C17.2427 1.24805 16.9103 1.45313 16.7477 1.7855L11.9743 11.5374L1.22527 13.1356C0.864608 13.1922 0.567595 13.4397 0.454448 13.7862C0.3413 14.1327 0.440304 14.5146 0.701958 14.7621L8.50207 22.3218L6.69878 33.0284C6.63513 33.389 6.78364 33.7497 7.08065 33.9618C7.2433 34.0821 7.44131 34.1457 7.63932 34.1457C7.7949 34.1457 7.9434 34.1103 8.08484 34.0326L17.6812 28.948L27.3058 33.976C27.4472 34.0467 27.5957 34.0821 27.7442 34.0821C28.2675 34.0821 28.6989 33.6507 28.6989 33.1274C28.6989 33.0496 28.6918 32.9789 28.6706 32.9082L26.8108 22.2652L34.5614 14.6631C34.8372 14.4085 34.9291 14.0267 34.8159 13.6801ZM25.1277 21.254C24.9014 21.4732 24.8024 21.7914 24.859 22.1026L26.4784 31.3877L18.1196 27.0245C17.8438 26.876 17.5114 26.883 17.2286 27.0245L8.89809 31.4372L10.4609 22.1379C10.5104 21.8268 10.4114 21.5156 10.1851 21.2964L3.42457 14.7338L12.7522 13.3478C13.0633 13.2983 13.3321 13.1073 13.4664 12.8245L17.6104 4.35961L21.8111 12.8032C21.9525 13.0861 22.2212 13.277 22.5324 13.3266L31.867 14.656L25.1277 21.254Z" fill="url(#paint0_linear)" fill-opacity="0.9"/>
</g>
<defs>
<linearGradient id="paint0_linear" x1="53.6393" y1="-8.56614" x2="3.39143" y2="-12.8772" gradientUnits="userSpaceOnUse">
<stop offset="0.145833" stop-color="#FF3E79"/>
<stop offset="1" stop-color="#F9357C"/>
</linearGradient>
<clipPath id="clip0">
<rect width="34.455" height="34.455" fill="white" transform="translate(0.408203 0.469482)"/>
</clipPath>
</defs>
</svg>
