<svg width="23" height="20" viewBox="0 0 23 20" fill="none" xmlns="http://www.w3.org/2000/svg">
<!-- <path d="M2.41797 1L20.418 19" stroke="#54514C" stroke-opacity="0.75" stroke-width="1.5" stroke-linecap="round" stroke-linejoin="round"/> -->
<path d="M10.0024 8.58691C9.62714 8.96193 9.4162 9.47067 9.41602 10.0012C9.41583 10.5317 9.6264 11.0406 10.0014 11.4159C10.3764 11.7912 10.8852 12.0021 11.4157 12.0023C11.9463 12.0025 12.4551 11.7919 12.8304 11.4169" stroke="#54514C" stroke-opacity="0.75" stroke-width="1.5" stroke-linecap="round" stroke-linejoin="round"/>
<path d="M16.775 15.3491C15.144 16.4491 13.36 17.0001 11.418 17.0001C7.41797 17.0001 4.08497 14.6671 1.41797 10.0001C2.78697 7.60506 4.33097 5.82506 6.04997 4.65906M8.78097 3.36506C9.63839 3.11978 10.5262 2.9969 11.418 3.00006C15.418 3.00006 18.751 5.33306 21.418 10.0001C20.64 11.3611 19.806 12.5241 18.915 13.4881L8.78097 3.36506Z" stroke="#54514C" stroke-opacity="0.75" stroke-width="1.5" stroke-linecap="round" stroke-linejoin="round"/>
</svg>
