<svg width="10" height="19" viewBox="0 0 10 19" fill="none" xmlns="http://www.w3.org/2000/svg">
<g clip-path="url(#clip0)">
<path d="M0.0085907 10.3427C0.0085907 9.21887 0.0085907 8.09503 0.0085907 6.97219C0.0281079 6.97321 0.0476251 6.97422 0.0671423 6.97422C1.01321 6.97422 1.95928 6.97422 2.90433 6.97422C2.98137 6.97422 2.97623 6.98334 2.97623 6.9043C2.97623 6.10169 2.97726 5.29808 2.97623 4.49547C2.97623 4.2553 2.9865 4.01614 3.01321 3.778C3.03478 3.57937 3.06766 3.38176 3.1108 3.18719C3.18887 2.83859 3.30289 2.50113 3.46211 2.1809C3.75281 1.59516 4.16678 1.1138 4.71532 0.746957C5.09025 0.49665 5.49909 0.320321 5.9336 0.201755C6.1298 0.148045 6.33011 0.10751 6.53144 0.0791349C6.64033 0.0629207 6.74922 0.0538002 6.8581 0.0426529C7.01116 0.0264388 7.16524 0.019345 7.31932 0.0203584C7.60797 0.0223852 7.89662 0.0284655 8.18527 0.0335325C8.30854 0.0355592 8.4318 0.0406262 8.5561 0.0446797C8.62389 0.0467065 8.69169 0.0497467 8.75949 0.0538002C8.88378 0.0608939 9.0091 0.069001 9.1334 0.0760947C9.2279 0.082175 9.32138 0.0862286 9.41588 0.0943357C9.56483 0.106496 9.71377 0.120684 9.86272 0.133858C9.90895 0.137911 9.95517 0.145005 10.0024 0.151085C10.0024 1.15535 10.0024 2.15658 10.0024 3.16186C9.98188 3.16186 9.96442 3.16186 9.94695 3.16186C9.3902 3.16186 8.83345 3.16287 8.27567 3.16186C8.09077 3.16186 7.90689 3.16794 7.72302 3.19327C7.56277 3.21557 7.40664 3.25104 7.25769 3.31083C6.94747 3.43547 6.73278 3.65132 6.61773 3.96345C6.55918 4.12255 6.52631 4.28773 6.51398 4.45595C6.50268 4.61708 6.49857 4.77922 6.49755 4.94035C6.49549 5.35584 6.49652 5.77032 6.49652 6.1858C6.49652 6.428 6.49652 6.67122 6.49652 6.91342C6.49652 6.93166 6.4996 6.9499 6.50166 6.97118C6.63211 6.97118 6.75641 6.97118 6.88173 6.97118C7.00705 6.97118 7.13134 6.97118 7.25666 6.97118C7.38198 6.97118 7.50628 6.97118 7.6316 6.97118C7.75692 6.97118 7.88121 6.97118 8.00653 6.97118C8.13288 6.97118 8.25923 6.97118 8.38558 6.97118C8.5109 6.97118 8.63519 6.97118 8.76051 6.97118C8.88583 6.97118 9.01013 6.97118 9.13545 6.97118C9.26077 6.97118 9.38506 6.97118 9.51039 6.97118C9.63468 6.97219 9.75897 6.96915 9.88635 6.97321C9.75281 7.99673 9.61927 9.01417 9.48676 10.0316C9.47443 10.1228 9.46313 10.214 9.45183 10.3042C9.45081 10.3093 9.44978 10.3154 9.44773 10.3204C9.4467 10.3235 9.44567 10.3255 9.44464 10.3275C9.44362 10.3285 9.44362 10.3306 9.44259 10.3306C9.44156 10.3316 9.44053 10.3326 9.43232 10.3377C8.46057 10.3377 7.48265 10.3377 6.49857 10.3377C6.49755 10.365 6.49652 10.3873 6.49652 10.4106C6.49652 13.2471 6.49652 16.0836 6.49652 18.919C6.49652 18.9352 6.49755 18.9514 6.49652 18.9687C6.49549 18.9788 6.49344 18.9889 6.49241 18.9991C6.43694 19.0072 3.01013 19.0051 2.97418 18.996C2.97418 18.9758 2.97418 18.9545 2.97418 18.9332C2.97418 16.0896 2.97418 13.2471 2.97418 10.4035C2.97418 10.3295 2.97726 10.3377 2.90638 10.3377C1.95826 10.3377 1.0091 10.3377 0.060979 10.3377C0.0445434 10.3407 0.0270807 10.3417 0.0085907 10.3427Z" fill="white"/>
</g>
<defs>
<clipPath id="clip0">
<rect width="10" height="19" fill="white"/>
</clipPath>
</defs>
</svg>
