<svg width="49" height="49" viewBox="0 0 49 49" fill="none" xmlns="http://www.w3.org/2000/svg">
<path d="M45.9375 13.7512H36.2478C36.9429 13.2765 37.5401 12.8049 37.9566 12.3823C40.425 9.89858 40.425 5.85608 37.9566 3.3724C35.5587 0.959146 31.3753 0.956083 28.9743 3.3724C27.6483 4.70458 24.1233 10.1283 24.6103 13.7512H24.3898C24.8736 10.1283 21.3517 4.70458 20.0257 3.3724C17.6247 0.956083 13.4413 0.959146 11.0434 3.3724C8.575 5.85608 8.575 9.89858 11.0403 12.3823C11.4599 12.8049 12.0571 13.2765 12.7522 13.7512H3.0625C1.37506 13.7512 0 15.1263 0 16.8137V24.47C0 25.3152 0.686 26.0012 1.53125 26.0012H3.0625V44.3762C3.0625 46.0636 4.43756 47.4387 6.125 47.4387H42.875C44.5624 47.4387 45.9375 46.0636 45.9375 44.3762V26.0012H47.4688C48.314 26.0012 49 25.3152 49 24.47V16.8137C49 15.1263 47.6249 13.7512 45.9375 13.7512ZM13.2147 5.53146C13.8364 4.90671 14.6602 4.56371 15.5361 4.56371C16.4089 4.56371 17.2327 4.90671 17.8544 5.53146C19.9185 7.60783 21.9704 12.9121 21.2568 13.6501C21.2568 13.6501 21.1282 13.7512 20.6903 13.7512C18.5741 13.7512 14.5346 11.5523 13.2147 10.2232C11.9315 8.93083 11.9315 6.82383 13.2147 5.53146ZM22.9688 44.3762H6.125V26.0012H22.9688V44.3762ZM22.9688 22.9387H3.0625V16.8137H20.6903H22.9688V22.9387ZM31.1456 5.53146C32.389 4.28502 34.545 4.28808 35.7853 5.53146C37.0685 6.82383 37.0685 8.93083 35.7853 10.2232C34.4654 11.5523 30.4259 13.7512 28.3098 13.7512C27.8718 13.7512 27.7432 13.6532 27.7401 13.6501C27.0296 12.9121 29.0815 7.60783 31.1456 5.53146ZM42.875 44.3762H26.0312V26.0012H42.875V44.3762ZM45.9375 22.9387H26.0312V16.8137H28.3098H45.9375V22.9387Z" fill="url(#paint0_linear)" fill-opacity="0.9"/>
<defs>
<linearGradient id="paint0_linear" x1="75.7023" y1="-12.1251" x2="4.26344" y2="-18.3755" gradientUnits="userSpaceOnUse">
<stop offset="0.145833" stop-color="#FF3E79"/>
<stop offset="1" stop-color="#F9357C"/>
</linearGradient>
</defs>
</svg>
