<svg width="96" height="76" viewBox="0 0 96 76" fill="none" xmlns="http://www.w3.org/2000/svg">
<g clip-path="url(#clip0)">
<path d="M91.2375 0H89.5875C88.3233 -4.1601e-06 87.1106 0.481482 86.2155 1.33887C85.3204 2.19626 84.8158 3.35957 84.8125 4.57368V5.58206C84.0663 5.12252 83.199 4.87683 82.3125 4.8738C81.0505 4.87696 79.841 5.35985 78.9486 6.2169C78.0562 7.07394 77.5533 8.23544 77.55 9.44748V10.5399C76.8309 10.1034 76.0029 9.86048 75.1525 9.8364C74.3022 9.81232 73.4607 10.008 72.716 10.403C71.9713 10.798 71.3508 11.3778 70.9192 12.0818C70.4876 12.7859 70.2608 13.5883 70.2625 14.4053V36.0133L52.3375 53.2396C52.1876 53.3897 52.0838 53.5766 52.0375 53.7798L50.3125 61.4386L48 63.6595L45.6875 61.4386L43.9625 53.7798C43.9163 53.5766 43.8125 53.3897 43.6625 53.2396L25.75 36.0253V14.4173C25.7467 13.2053 25.2439 12.0438 24.3515 11.1867C23.4591 10.3297 22.2496 9.84679 20.9875 9.84363C20.1016 9.85058 19.2355 10.096 18.4875 10.5519V9.42347C18.4842 8.21143 17.9814 7.04993 17.089 6.19289C16.1966 5.33584 14.9871 4.85295 13.725 4.84979C12.8385 4.85283 11.9713 5.09851 11.225 5.55805V4.57368C11.2217 3.35957 10.7172 2.19626 9.82206 1.33887C8.92693 0.481482 7.71428 -4.1601e-06 6.45004 0H4.76254C3.50046 0.00316875 2.29101 0.486056 1.39858 1.3431C0.506157 2.20015 0.00333663 3.36164 3.70633e-05 4.57368V39.2905C-0.00395363 40.8517 0.314359 42.3982 0.936571 43.8405C1.55878 45.2829 2.47255 46.5925 3.62504 47.6936L27.6375 70.7541C29.3656 72.4179 31.4194 73.7369 33.6805 74.6352C35.9417 75.5335 38.3656 75.9932 40.8125 75.988H55.1875C57.6345 75.9932 60.0584 75.5335 62.3196 74.6352C64.5807 73.7369 66.6345 72.4179 68.3625 70.7541L92.375 47.6936C93.5275 46.5925 94.4413 45.2829 95.0635 43.8405C95.6857 42.3982 96.004 40.8517 96 39.2905V4.57368C95.9967 3.36164 95.4939 2.20015 94.6015 1.3431C93.7091 0.486056 92.4996 0.00316875 91.2375 0ZM79.7875 9.42347C79.7875 8.78672 80.0509 8.17604 80.5198 7.72579C80.9886 7.27554 81.6245 7.02259 82.2875 7.02259C82.9506 7.02259 83.5865 7.27554 84.0553 7.72579C84.5241 8.17604 84.7875 8.78672 84.7875 9.42347V35.7612L81.75 38.7623L79.85 36.9376V9.42347H79.7875ZM72.5 14.3813C72.5 13.7445 72.7634 13.1339 73.2323 12.6836C73.7011 12.2334 74.337 11.9804 75 11.9804C75.6631 11.9804 76.299 12.2334 76.7678 12.6836C77.2366 13.1339 77.5 13.7445 77.5 14.3813V34.9209C76.6092 34.3703 75.5719 34.0785 74.5125 34.0806C73.8093 34.0755 73.1122 34.2061 72.4625 34.4647L72.5 14.3813ZM20.9875 11.9804C21.6506 11.9804 22.2865 12.2334 22.7553 12.6836C23.2241 13.1339 23.4875 13.7445 23.4875 14.3813V34.4527C22.6745 34.1476 21.798 34.031 20.9292 34.1124C20.0604 34.1937 19.2239 34.4707 18.4875 34.9209V14.3813C18.4859 14.065 18.5493 13.7515 18.6742 13.4588C18.7991 13.1662 18.983 12.9001 19.2153 12.6759C19.4476 12.4516 19.7238 12.2737 20.0279 12.1523C20.3321 12.0309 20.6582 11.9684 20.9875 11.9684V11.9804ZM13.7 7.02259C14.3631 7.02259 14.999 7.27554 15.4678 7.72579C15.9366 8.17604 16.2 8.78672 16.2 9.42347V36.9376L14.3 38.7623L11.175 35.7612V9.42347C11.1734 9.10514 11.2376 8.78967 11.3641 8.49542C11.4905 8.20116 11.6767 7.93399 11.9116 7.70946C12.1466 7.48492 12.4257 7.3075 12.7327 7.18752C13.0398 7.06754 13.3686 7.0074 13.7 7.01058V7.02259ZM29.25 69.2055L5.21254 46.157C4.26844 45.2589 3.5202 44.1891 3.01154 43.0101C2.50288 41.8312 2.244 40.5666 2.25004 39.2905V4.57368C2.25004 3.93693 2.51343 3.32626 2.98227 2.876C3.45111 2.42575 4.08699 2.1728 4.75004 2.1728H6.40004C7.06308 2.1728 7.69896 2.42575 8.1678 2.876C8.63665 3.32626 8.90004 3.93693 8.90004 4.57368V36.2053C8.89769 36.346 8.92531 36.4857 8.9812 36.6157C9.03708 36.7458 9.12006 36.8635 9.22504 36.9616L13.475 41.0431L26.2125 53.2516C26.427 53.4511 26.7139 53.5626 27.0125 53.5626C27.3111 53.5626 27.598 53.4511 27.8125 53.2516C28.0224 53.0491 28.1403 52.7751 28.1403 52.4893C28.1403 52.2036 28.0224 51.9295 27.8125 51.7271L15.9 40.2868L18.1375 38.1621V38.09L18.7 37.5498L19.1375 37.1417C19.7456 36.5662 20.5651 36.2436 21.4188 36.2436C22.2725 36.2436 23.092 36.5662 23.7 37.1417L23.7875 37.2377L41.7875 54.5481L43.5125 62.2069C43.5588 62.4101 43.6626 62.597 43.8125 62.7471L46.875 65.6042V73.7912H40.8125C38.6654 73.7984 36.538 73.3968 34.5534 72.6097C32.5688 71.8226 30.7663 70.6656 29.25 69.2055ZM93.75 39.2905C93.7561 40.5666 93.4972 41.8312 92.9885 43.0101C92.4799 44.1891 91.7316 45.2589 90.7875 46.157L66.75 69.2055C65.2319 70.6706 63.4258 71.8315 61.4366 72.6208C59.4474 73.41 57.3148 73.812 55.1625 73.8032H49.125V65.6042L52.1375 62.7111C52.2875 62.561 52.3913 62.3741 52.4375 62.1709L54.1625 54.5121L72.1625 37.2017L72.25 37.1057C72.8581 36.5302 73.6776 36.2076 74.5313 36.2076C75.385 36.2076 76.2045 36.5302 76.8125 37.1057L77.25 37.5138L77.8125 38.054V38.126L80.05 40.2508L68.1375 51.691C67.9276 51.8935 67.8098 52.1676 67.8098 52.4533C67.8098 52.739 67.9276 53.0131 68.1375 53.2156C68.352 53.4151 68.6389 53.5266 68.9375 53.5266C69.2361 53.5266 69.523 53.4151 69.7375 53.2156L82.4875 41.0431L86.7375 36.9616C86.8425 36.8635 86.9255 36.7458 86.9814 36.6157C87.0373 36.4857 87.0649 36.346 87.0625 36.2053V4.57368C87.0625 3.93693 87.3259 3.32626 87.7948 2.876C88.2636 2.42575 88.8995 2.1728 89.5625 2.1728H91.2125C91.8756 2.1728 92.5115 2.42575 92.9803 2.876C93.4492 3.32626 93.7125 3.93693 93.7125 4.57368L93.75 39.2905Z" fill="url(#paint0_linear)"/>
</g>
<defs>
<linearGradient id="paint0_linear" x1="3.70633e-05" y1="37.994" x2="96" y2="37.994" gradientUnits="userSpaceOnUse">
<stop stop-color="#FF3E79"/>
<stop offset="0.85" stop-color="#FF3E79"/>
</linearGradient>
<clipPath id="clip0">
<rect width="96" height="76" fill="white"/>
</clipPath>
</defs>
</svg>
