<svg width="86" height="76" viewBox="0 0 86 76" fill="none" xmlns="http://www.w3.org/2000/svg">
<g clip-path="url(#clip0)">
<path d="M24.3683 -0.0100098C9.74734 -0.0100098 0 11.9987 0 25.3331C0 37.8584 7.11556 48.7267 15.8102 57.2264C23.6031 64.6288 32.4245 70.8666 42.0013 75.7463C42.2759 75.8866 42.5799 75.9598 42.8883 75.9598C43.1967 75.9598 43.5007 75.8866 43.7753 75.7463C53.352 70.8666 62.1735 64.6288 69.9664 57.2264C78.661 48.7267 85.7766 37.8681 85.7766 25.3331C85.7766 11.989 76.0292 -0.0100098 61.4082 -0.0100098C52.8013 -0.0100098 47.0796 4.38604 42.8883 10.3222C38.6969 4.39579 32.9752 -0.0100098 24.3683 -0.0100098ZM24.3683 3.88893C32.7218 3.88893 37.2933 8.06079 41.2117 14.611C41.4755 15.0556 41.905 15.3772 42.4058 15.5052C42.9067 15.6331 43.4379 15.5569 43.8825 15.2933C44.1635 15.1266 44.3982 14.892 44.5648 14.611C48.4638 8.06079 53.0548 3.88893 61.4082 3.88893C73.9141 3.88893 81.8776 13.841 81.8776 25.3331C81.8776 36.3768 75.5029 46.2898 67.2566 54.4289C59.9914 61.3443 51.788 67.2016 42.8883 71.8279C33.9892 67.2046 25.7858 61.3507 18.5199 54.4386C10.2737 46.2996 3.89894 36.3866 3.89894 25.3331C3.89894 13.8507 11.8625 3.88893 24.3683 3.88893Z" fill="url(#paint0_linear)"/>
</g>
<defs>
<linearGradient id="paint0_linear" x1="0" y1="38.0046" x2="85.7766" y2="38.0046" gradientUnits="userSpaceOnUse">
<stop stop-color="#F9357C"/>
<stop offset="0.85" stop-color="#FF3E79"/>
</linearGradient>
<clipPath id="clip0">
<rect width="85.7766" height="76" fill="white"/>
</clipPath>
</defs>
</svg>
