<svg width="23" height="24" viewBox="0 0 23 24" fill="none" xmlns="http://www.w3.org/2000/svg">
<circle cx="11.2217" cy="13" r="11" fill="#FF3E79"/>
<g clip-path="url(#clip0)">
<path d="M11.222 14.4667C12.0321 14.4667 12.6887 13.81 12.6887 13C12.6887 12.19 12.0321 11.5333 11.222 11.5333C10.412 11.5333 9.75537 12.19 9.75537 13C9.75537 13.81 10.412 14.4667 11.222 14.4667Z" stroke="white" stroke-width="1.5" stroke-linecap="round" stroke-linejoin="round"/>
<path d="M3.88867 13L4.98867 14.4667C5.74538 15.3879 6.69687 16.1299 7.77469 16.6394C8.8525 17.1489 10.0298 17.4131 11.222 17.4131C12.4142 17.4131 13.5915 17.1489 14.6693 16.6394C15.7471 16.1299 16.6986 15.3879 17.4553 14.4667L18.5553 13" stroke="white" stroke-width="1.5" stroke-linecap="round" stroke-linejoin="round"/>
<path d="M3.88867 13L4.98867 11.5334C5.74538 10.6121 6.69687 9.87011 7.77469 9.36063C8.8525 8.85116 10.0298 8.58691 11.222 8.58691C12.4142 8.58691 13.5915 8.85116 14.6693 9.36063C15.7471 9.87011 16.6986 10.6121 17.4553 11.5334L18.5553 13" stroke="white" stroke-width="1.5" stroke-linecap="round" stroke-linejoin="round"/>
</g>
<line x1="0.741929" y1="1.57153" x2="20.1858" y2="23.0875" stroke="white" stroke-width="2"/>
<defs>
<clipPath id="clip0">
<rect width="17.6" height="17.6" fill="white" transform="translate(2.42188 4.20001)"/>
</clipPath>
</defs>
</svg>
