<svg width="16" height="16" viewBox="0 0 16 16" fill="none" xmlns="http://www.w3.org/2000/svg">
<path d="M15.8626 7.30081L8.00004 0L0.137796 7.30081C0.0270445 7.40389 0.0204652 7.57742 0.123541 7.68844C0.226068 7.79919 0.400145 7.8055 0.510896 7.7027L1.42076 6.85781V16H5.80695H10.1931H14.5793V6.85753L15.4892 7.70242C15.5418 7.75149 15.609 7.77562 15.6759 7.77562C15.7496 7.77562 15.8228 7.74629 15.8765 7.68817C15.9799 7.57742 15.9733 7.40389 15.8626 7.30081ZM6.35522 15.4517V11.0655C6.35522 10.1584 7.09292 9.42072 8.00004 9.42072C8.90716 9.42072 9.64486 10.1584 9.64486 11.0655V15.4517H6.35522ZM14.0311 15.4517H10.1931V11.0655C10.1931 9.85632 9.20926 8.87244 8.00004 8.87244C6.79082 8.87244 5.80695 9.85632 5.80695 11.0655V15.4517H1.96903V6.34846L8.00004 0.74812L14.0311 6.34846V15.4517Z" fill="black"/>
</svg>
