<svg width="31" height="31" viewBox="0 0 31 31" fill="none" xmlns="http://www.w3.org/2000/svg">
<path d="M26.4602 4.53987C23.5326 1.61224 19.6402 0 15.5 0C11.3598 0 7.46743 1.61224 4.5398 4.53987C1.6123 7.46743 0 11.3598 0 15.5C0 19.6402 1.6123 23.5326 4.5398 26.4601C7.46743 29.3878 11.3598 31 15.5 31C19.6402 31 23.5326 29.3878 26.4602 26.4601C29.3877 23.5326 31 19.6402 31 15.5C31 11.3598 29.3877 7.46743 26.4602 4.53987ZM15.5 29.7891C7.62098 29.7891 1.21094 23.379 1.21094 15.5C1.21094 7.62098 7.62098 1.21094 15.5 1.21094C23.379 1.21094 29.7891 7.62098 29.7891 15.5C29.7891 23.379 23.379 29.7891 15.5 29.7891Z" fill="url(#paint0_linear)" fill-opacity="0.9"/>
<path d="M28.3423 13.0148C27.5261 8.77379 24.6666 5.21449 20.6929 3.49362C20.3861 3.36072 20.0296 3.5018 19.8967 3.80859C19.7638 4.11544 19.9048 4.47194 20.2117 4.60478C23.8178 6.16646 26.4127 9.39591 27.1532 13.2436C27.2089 13.5333 27.4626 13.7348 27.7471 13.7348C27.785 13.7348 27.8235 13.7312 27.8621 13.7237C28.1904 13.6606 28.4054 13.3431 28.3423 13.0148Z" fill="url(#paint1_linear)" fill-opacity="0.9"/>
<path d="M18.3114 2.72494L18.2956 2.72149C17.9689 2.65101 17.6466 2.85893 17.5762 3.18588C17.5058 3.51277 17.7137 3.83482 18.0406 3.90524L18.0477 3.90681C18.0921 3.91674 18.1364 3.92146 18.1802 3.92146C18.4575 3.92146 18.7076 3.72965 18.7705 3.44775C18.8433 3.12134 18.6378 2.79778 18.3114 2.72494Z" fill="url(#paint2_linear)" fill-opacity="0.9"/>
<path d="M10.925 26.4535C7.24452 24.9145 4.59844 21.6632 3.84663 17.7564C3.78348 17.4281 3.46646 17.2128 3.13769 17.2763C2.80928 17.3395 2.59434 17.6569 2.65749 17.9853C3.06503 20.1027 4.00575 22.1074 5.37817 23.7826C6.73472 25.4384 8.49125 26.7483 10.4578 27.5707C10.5341 27.6026 10.6133 27.6177 10.6912 27.6177C10.928 27.6177 11.1529 27.4779 11.2499 27.2457C11.379 26.9372 11.2335 26.5825 10.925 26.4535Z" fill="url(#paint3_linear)" fill-opacity="0.9"/>
<path d="M12.9609 27.0953L12.9235 27.0871C12.5973 27.0146 12.2736 27.2204 12.2011 27.5468C12.1285 27.8732 12.3343 28.1966 12.6608 28.2692L12.7032 28.2785C12.7466 28.2879 12.7899 28.2925 12.8326 28.2925C13.1112 28.2925 13.3619 28.099 13.4236 27.8158C13.4948 27.489 13.2876 27.1665 12.9609 27.0953Z" fill="url(#paint4_linear)" fill-opacity="0.9"/>
<path d="M27.8149 17.5761C27.4886 17.5048 27.1657 17.7121 27.0945 18.0388C26.0835 22.6782 22.4179 26.2557 17.7559 27.1529C17.4274 27.216 17.2125 27.5335 17.2757 27.8618C17.3314 28.1515 17.5851 28.353 17.8696 28.353C17.9075 28.353 17.9461 28.3494 17.9847 28.3419C20.4975 27.8584 22.7983 26.6526 24.6382 24.855C26.4753 23.0601 27.7339 20.7922 28.2776 18.2965C28.3488 17.9698 28.1416 17.6473 27.8149 17.5761Z" fill="url(#paint5_linear)" fill-opacity="0.9"/>
<path d="M13.724 3.1381C13.6608 2.80975 13.3434 2.59445 13.015 2.65796C10.5022 3.14149 8.20137 4.34728 6.36141 6.14491C4.5243 7.93983 3.26577 10.2077 2.722 12.7034C2.65086 13.0301 2.85799 13.3526 3.1847 13.4238C3.22811 13.4332 3.27152 13.4378 3.31421 13.4378C3.59279 13.4378 3.84351 13.2444 3.90521 12.9611C4.91616 8.32164 8.58179 4.74416 13.2438 3.84704C13.5722 3.78389 13.7871 3.46644 13.724 3.1381Z" fill="url(#paint6_linear)" fill-opacity="0.9"/>
<path d="M15.5 13.4414C14.3649 13.4414 13.4414 14.3649 13.4414 15.5C13.4414 16.6351 14.3649 17.5586 15.5 17.5586C16.6351 17.5586 17.5586 16.6351 17.5586 15.5C17.5586 14.3649 16.6351 13.4414 15.5 13.4414ZM15.5 16.3477C15.0326 16.3477 14.6523 15.9674 14.6523 15.5C14.6523 15.0326 15.0326 14.6523 15.5 14.6523C15.9674 14.6523 16.3477 15.0326 16.3477 15.5C16.3477 15.9674 15.9674 16.3477 15.5 16.3477Z" fill="url(#paint7_linear)" fill-opacity="0.9"/>
<path d="M15.5088 2.42188C15.1745 2.42188 14.9033 2.69294 14.9033 3.02734V4.38408C14.9033 4.71848 15.1745 4.98955 15.5088 4.98955C15.8432 4.98955 16.1143 4.71848 16.1143 4.38408V3.02734C16.1143 2.69294 15.8431 2.42188 15.5088 2.42188Z" fill="url(#paint8_linear)" fill-opacity="0.9"/>
<path d="M15.4912 25.5789C15.1569 25.5789 14.8857 25.8499 14.8857 26.1843V27.9726C14.8857 28.307 15.1569 28.5781 15.4912 28.5781C15.8255 28.5781 16.0967 28.307 16.0967 27.9726V26.1843C16.0967 25.8499 15.8255 25.5789 15.4912 25.5789Z" fill="url(#paint9_linear)" fill-opacity="0.9"/>
<path d="M27.9727 14.9037H26.3379C26.0036 14.9037 25.7324 15.1748 25.7324 15.5092C25.7324 15.8436 26.0036 16.1147 26.3379 16.1147H27.9727C28.307 16.1147 28.5781 15.8436 28.5781 15.5092C28.5781 15.1748 28.307 14.9037 27.9727 14.9037Z" fill="url(#paint10_linear)" fill-opacity="0.9"/>
<path d="M4.7832 14.8853H3.02734C2.693 14.8853 2.42188 15.1564 2.42188 15.4908C2.42188 15.8252 2.693 16.0962 3.02734 16.0962H4.7832C5.11754 16.0962 5.38867 15.8252 5.38867 15.4908C5.38867 15.1564 5.11754 14.8853 4.7832 14.8853Z" fill="url(#paint11_linear)" fill-opacity="0.9"/>
<path d="M14.0462 14.8945H11.2812C10.9469 14.8945 10.6758 15.1656 10.6758 15.5C10.6758 15.8344 10.9469 16.1055 11.2812 16.1055H14.0462C14.3806 16.1055 14.6517 15.8344 14.6517 15.5C14.6517 15.1656 14.3806 14.8945 14.0462 14.8945Z" fill="url(#paint12_linear)" fill-opacity="0.9"/>
<path d="M15.5 7.77002C15.1657 7.77002 14.8945 8.04109 14.8945 8.37549V14.0467C14.8945 14.3811 15.1657 14.6522 15.5 14.6522C15.8343 14.6522 16.1055 14.3811 16.1055 14.0467V8.37549C16.1055 8.04109 15.8343 7.77002 15.5 7.77002Z" fill="url(#paint13_linear)" fill-opacity="0.9"/>
<defs>
<linearGradient id="paint0_linear" x1="47.8933" y1="-9.24807" x2="2.65487" y2="-12.9539" gradientUnits="userSpaceOnUse">
<stop offset="0.145833" stop-color="#FF3E79"/>
<stop offset="1" stop-color="#F9357C"/>
</linearGradient>
<linearGradient id="paint1_linear" x1="32.9889" y1="0.373495" x2="20.5489" y2="-0.468855" gradientUnits="userSpaceOnUse">
<stop offset="0.145833" stop-color="#FF3E79"/>
<stop offset="1" stop-color="#F9357C"/>
</linearGradient>
<linearGradient id="paint2_linear" x1="19.4514" y1="2.34569" x2="17.6674" y2="2.19846" gradientUnits="userSpaceOnUse">
<stop offset="0.145833" stop-color="#FF3E79"/>
<stop offset="1" stop-color="#F9357C"/>
</linearGradient>
<linearGradient id="paint3_linear" x1="16.011" y1="14.1768" x2="3.36188" y2="13.3109" gradientUnits="userSpaceOnUse">
<stop offset="0.145833" stop-color="#FF3E79"/>
<stop offset="1" stop-color="#F9357C"/>
</linearGradient>
<linearGradient id="paint4_linear" x1="14.1194" y1="26.7086" x2="12.2943" y2="26.5553" gradientUnits="userSpaceOnUse">
<stop offset="0.145833" stop-color="#FF3E79"/>
<stop offset="1" stop-color="#F9357C"/>
</linearGradient>
<linearGradient id="paint5_linear" x1="34.3007" y1="14.3429" x2="18.2138" y2="12.9962" gradientUnits="userSpaceOnUse">
<stop offset="0.145833" stop-color="#FF3E79"/>
<stop offset="1" stop-color="#F9357C"/>
</linearGradient>
<linearGradient id="paint6_linear" x1="19.7441" y1="-0.572353" x2="3.65711" y2="-1.91899" gradientUnits="userSpaceOnUse">
<stop offset="0.145833" stop-color="#FF3E79"/>
<stop offset="1" stop-color="#F9357C"/>
</linearGradient>
<linearGradient id="paint7_linear" x1="19.8022" y1="12.2131" x2="13.794" y2="11.721" gradientUnits="userSpaceOnUse">
<stop offset="0.145833" stop-color="#FF3E79"/>
<stop offset="1" stop-color="#F9357C"/>
</linearGradient>
<linearGradient id="paint8_linear" x1="16.7742" y1="1.65587" x2="14.9978" y2="1.58725" gradientUnits="userSpaceOnUse">
<stop offset="0.145833" stop-color="#FF3E79"/>
<stop offset="1" stop-color="#F9357C"/>
</linearGradient>
<linearGradient id="paint9_linear" x1="16.7566" y1="24.6841" x2="14.9795" y2="24.6253" gradientUnits="userSpaceOnUse">
<stop offset="0.145833" stop-color="#FF3E79"/>
<stop offset="1" stop-color="#F9357C"/>
</linearGradient>
<linearGradient id="paint10_linear" x1="30.1289" y1="14.5425" x2="26.0977" y2="13.7665" gradientUnits="userSpaceOnUse">
<stop offset="0.145833" stop-color="#FF3E79"/>
<stop offset="1" stop-color="#F9357C"/>
</linearGradient>
<linearGradient id="paint11_linear" x1="7.00542" y1="14.5241" x2="2.81567" y2="13.6832" gradientUnits="userSpaceOnUse">
<stop offset="0.145833" stop-color="#FF3E79"/>
<stop offset="1" stop-color="#F9357C"/>
</linearGradient>
<linearGradient id="paint12_linear" x1="16.8184" y1="14.5333" x2="11.3714" y2="13.0682" gradientUnits="userSpaceOnUse">
<stop offset="0.145833" stop-color="#FF3E79"/>
<stop offset="1" stop-color="#F9357C"/>
</linearGradient>
<linearGradient id="paint13_linear" x1="16.7654" y1="5.71689" x2="14.9867" y2="5.69126" gradientUnits="userSpaceOnUse">
<stop offset="0.145833" stop-color="#FF3E79"/>
<stop offset="1" stop-color="#F9357C"/>
</linearGradient>
</defs>
</svg>
