<svg width="70" height="70" viewBox="0 0 70 70" fill="none" xmlns="http://www.w3.org/2000/svg">
<path d="M59.7488 10.2513C53.1381 3.64055 44.3488 0 35 0C25.6512 0 16.8619 3.64055 10.2512 10.2513C3.64068 16.8619 0 25.6512 0 35C0 44.3488 3.64068 53.1381 10.2512 59.7487C16.8619 66.3595 25.6512 70 35 70C44.3488 70 53.1381 66.3595 59.7488 59.7487C66.3593 53.1381 70 44.3488 70 35C70 25.6512 66.3593 16.8619 59.7488 10.2513ZM35 67.2656C17.2087 67.2656 2.73438 52.7913 2.73438 35C2.73438 17.2087 17.2087 2.73438 35 2.73438C52.7913 2.73438 67.2656 17.2087 67.2656 35C67.2656 52.7913 52.7913 67.2656 35 67.2656Z" fill="url(#paint0_linear)" fill-opacity="0.9"/>
<path d="M63.9981 29.3883C62.1551 19.8118 55.6982 11.7746 46.7252 7.88882C46.0324 7.58873 45.2274 7.90728 44.9273 8.60003C44.6274 9.29293 44.9458 10.0979 45.6387 10.3979C53.7815 13.9243 59.641 21.2166 61.3129 29.9049C61.4389 30.5591 62.0117 31.014 62.6541 31.014C62.7397 31.014 62.8267 31.0059 62.9138 30.9891C63.6552 30.8465 64.1407 30.1297 63.9981 29.3883Z" fill="url(#paint1_linear)" fill-opacity="0.9"/>
<path d="M41.3474 6.15304L41.3116 6.14525C40.5738 5.98611 39.8461 6.4556 39.6872 7.19388C39.5282 7.93202 39.9977 8.65923 40.7358 8.81823L40.7518 8.82179C40.8522 8.84421 40.9523 8.85487 41.051 8.85487C41.6771 8.85487 42.2421 8.42175 42.384 7.78519C42.5485 7.04814 42.0843 6.31751 41.3474 6.15304Z" fill="url(#paint2_linear)" fill-opacity="0.9"/>
<path d="M24.67 59.7337C16.3592 56.2584 10.3842 48.9169 8.68658 40.0951C8.54398 39.3537 7.82812 38.8675 7.08574 39.0109C6.34418 39.1535 5.85882 39.8703 6.00142 40.6118C6.92168 45.3931 9.04588 49.9199 12.1449 53.7025C15.2081 57.4414 19.1744 60.3992 23.615 62.2563C23.7873 62.3283 23.9661 62.3625 24.1419 62.3625C24.6767 62.3625 25.1846 62.0467 25.4037 61.5224C25.6951 60.8258 25.3665 60.0249 24.67 59.7337Z" fill="url(#paint3_linear)" fill-opacity="0.9"/>
<path d="M29.2681 61.183L29.1836 61.1644C28.4471 61.0007 27.7162 61.4653 27.5524 62.2024C27.3886 62.9394 27.8533 63.6698 28.5905 63.8336L28.6862 63.8546C28.7842 63.8759 28.8821 63.8862 28.9785 63.8862C29.6075 63.8862 30.1737 63.4494 30.313 62.8098C30.4736 62.0719 30.0058 61.3436 29.2681 61.183Z" fill="url(#paint4_linear)" fill-opacity="0.9"/>
<path d="M62.8095 39.6879C62.0726 39.527 61.3436 39.995 61.1827 40.7327C58.8999 51.2088 50.6227 59.2871 40.0955 61.3129C39.3539 61.4555 38.8686 62.1723 39.0112 62.9137C39.1371 63.5679 39.71 64.0228 40.3524 64.0228C40.438 64.0228 40.5251 64.0147 40.6122 63.9979C46.2863 62.9061 51.4816 60.1833 55.6363 56.1241C59.7846 52.0711 62.6265 46.9502 63.8543 41.3147C64.015 40.577 63.5473 39.8487 62.8095 39.6879Z" fill="url(#paint5_linear)" fill-opacity="0.9"/>
<path d="M30.988 7.08607C30.8453 6.34465 30.1286 5.85847 29.3871 6.00189C23.713 7.09373 18.5177 9.81648 14.3629 13.8757C10.2146 17.9287 7.37275 23.0496 6.14488 28.685C5.98423 29.4228 6.45195 30.1511 7.18968 30.3118C7.28771 30.3332 7.38574 30.3434 7.48212 30.3434C8.11117 30.3434 8.67732 29.9068 8.81664 29.267C11.0994 18.7908 19.3767 10.7127 29.9037 8.68691C30.6453 8.54431 31.1306 7.8275 30.988 7.08607Z" fill="url(#paint6_linear)" fill-opacity="0.9"/>
<path d="M35 30.3516C32.4368 30.3516 30.3516 32.4368 30.3516 35C30.3516 37.5632 32.4368 39.6484 35 39.6484C37.5632 39.6484 39.6484 37.5632 39.6484 35C39.6484 32.4368 37.5632 30.3516 35 30.3516ZM35 36.9141C33.9445 36.9141 33.0859 36.0555 33.0859 35C33.0859 33.9445 33.9445 33.0859 35 33.0859C36.0555 33.0859 36.9141 33.9445 36.9141 35C36.9141 36.0555 36.0555 36.9141 35 36.9141Z" fill="url(#paint7_linear)" fill-opacity="0.9"/>
<path d="M35.0215 5.46875C34.2665 5.46875 33.6543 6.08084 33.6543 6.83594V9.89953C33.6543 10.6546 34.2665 11.2667 35.0215 11.2667C35.7766 11.2667 36.3887 10.6546 36.3887 9.89953V6.83594C36.3887 6.08084 35.7765 5.46875 35.0215 5.46875Z" fill="url(#paint8_linear)" fill-opacity="0.9"/>
<path d="M34.9785 57.7588C34.2236 57.7588 33.6113 58.3709 33.6113 59.126V63.1641C33.6113 63.9192 34.2236 64.5313 34.9785 64.5313C35.7335 64.5313 36.3457 63.9192 36.3457 63.1641V59.126C36.3457 58.3709 35.7335 57.7588 34.9785 57.7588Z" fill="url(#paint9_linear)" fill-opacity="0.9"/>
<path d="M63.1641 33.6536H59.4727C58.7177 33.6536 58.1055 34.2657 58.1055 35.0208C58.1055 35.7759 58.7177 36.388 59.4727 36.388H63.1641C63.919 36.388 64.5312 35.7759 64.5312 35.0208C64.5312 34.2657 63.919 33.6536 63.1641 33.6536Z" fill="url(#paint10_linear)" fill-opacity="0.9"/>
<path d="M10.8008 33.6121H6.83594C6.08098 33.6121 5.46875 34.2241 5.46875 34.9792C5.46875 35.7343 6.08098 36.3464 6.83594 36.3464H10.8008C11.5557 36.3464 12.168 35.7343 12.168 34.9792C12.168 34.2241 11.5557 33.6121 10.8008 33.6121Z" fill="url(#paint11_linear)" fill-opacity="0.9"/>
<path d="M31.7181 33.6328H25.4746C24.7196 33.6328 24.1074 34.2449 24.1074 35C24.1074 35.7551 24.7196 36.3672 25.4746 36.3672H31.7181C32.4731 36.3672 33.0853 35.7551 33.0853 35C33.0853 34.2449 32.4731 33.6328 31.7181 33.6328Z" fill="url(#paint12_linear)" fill-opacity="0.9"/>
<path d="M35 17.5452C34.245 17.5452 33.6328 18.1573 33.6328 18.9124V31.7184C33.6328 32.4735 34.245 33.0856 35 33.0856C35.755 33.0856 36.3672 32.4735 36.3672 31.7184V18.9124C36.3672 18.1573 35.755 17.5452 35 17.5452Z" fill="url(#paint13_linear)" fill-opacity="0.9"/>
<defs>
<linearGradient id="paint0_linear" x1="108.146" y1="-20.8827" x2="5.99486" y2="-29.2508" gradientUnits="userSpaceOnUse">
<stop offset="0.145833" stop-color="#FF3E79"/>
<stop offset="1" stop-color="#F9357C"/>
</linearGradient>
<linearGradient id="paint1_linear" x1="74.4905" y1="0.843376" x2="46.4002" y2="-1.05871" gradientUnits="userSpaceOnUse">
<stop offset="0.145833" stop-color="#FF3E79"/>
<stop offset="1" stop-color="#F9357C"/>
</linearGradient>
<linearGradient id="paint2_linear" x1="43.9216" y1="5.29666" x2="39.8931" y2="4.96422" gradientUnits="userSpaceOnUse">
<stop offset="0.145833" stop-color="#FF3E79"/>
<stop offset="1" stop-color="#F9357C"/>
</linearGradient>
<linearGradient id="paint3_linear" x1="36.1546" y1="32.012" x2="7.59196" y2="30.0569" gradientUnits="userSpaceOnUse">
<stop offset="0.145833" stop-color="#FF3E79"/>
<stop offset="1" stop-color="#F9357C"/>
</linearGradient>
<linearGradient id="paint4_linear" x1="31.8841" y1="60.3098" x2="27.7629" y2="59.9636" gradientUnits="userSpaceOnUse">
<stop offset="0.145833" stop-color="#FF3E79"/>
<stop offset="1" stop-color="#F9357C"/>
</linearGradient>
<linearGradient id="paint5_linear" x1="77.4549" y1="32.3871" x2="41.1295" y2="29.3463" gradientUnits="userSpaceOnUse">
<stop offset="0.145833" stop-color="#FF3E79"/>
<stop offset="1" stop-color="#F9357C"/>
</linearGradient>
<linearGradient id="paint6_linear" x1="44.5818" y1="-1.29236" x2="8.25642" y2="-4.33316" gradientUnits="userSpaceOnUse">
<stop offset="0.145833" stop-color="#FF3E79"/>
<stop offset="1" stop-color="#F9357C"/>
</linearGradient>
<linearGradient id="paint7_linear" x1="44.7147" y1="27.5781" x2="31.1478" y2="26.4667" gradientUnits="userSpaceOnUse">
<stop offset="0.145833" stop-color="#FF3E79"/>
<stop offset="1" stop-color="#F9357C"/>
</linearGradient>
<linearGradient id="paint8_linear" x1="37.8788" y1="3.73907" x2="33.8677" y2="3.58411" gradientUnits="userSpaceOnUse">
<stop offset="0.145833" stop-color="#FF3E79"/>
<stop offset="1" stop-color="#F9357C"/>
</linearGradient>
<linearGradient id="paint9_linear" x1="37.8358" y1="55.7384" x2="33.8231" y2="55.6057" gradientUnits="userSpaceOnUse">
<stop offset="0.145833" stop-color="#FF3E79"/>
<stop offset="1" stop-color="#F9357C"/>
</linearGradient>
<linearGradient id="paint10_linear" x1="68.033" y1="32.8378" x2="58.9302" y2="31.0855" gradientUnits="userSpaceOnUse">
<stop offset="0.145833" stop-color="#FF3E79"/>
<stop offset="1" stop-color="#F9357C"/>
</linearGradient>
<linearGradient id="paint11_linear" x1="15.8187" y1="32.7963" x2="6.35796" y2="30.8976" gradientUnits="userSpaceOnUse">
<stop offset="0.145833" stop-color="#FF3E79"/>
<stop offset="1" stop-color="#F9357C"/>
</linearGradient>
<linearGradient id="paint12_linear" x1="37.9778" y1="32.8171" x2="25.6782" y2="29.5089" gradientUnits="userSpaceOnUse">
<stop offset="0.145833" stop-color="#FF3E79"/>
<stop offset="1" stop-color="#F9357C"/>
</linearGradient>
<linearGradient id="paint13_linear" x1="37.8573" y1="12.9091" x2="33.841" y2="12.8512" gradientUnits="userSpaceOnUse">
<stop offset="0.145833" stop-color="#FF3E79"/>
<stop offset="1" stop-color="#F9357C"/>
</linearGradient>
</defs>
</svg>
