<svg width="88" height="88" viewBox="0 0 88 88" fill="none" xmlns="http://www.w3.org/2000/svg">
<g clip-path="url(#clip0)">
<path d="M54.0837 67.2832C55.1837 63.6166 57.3837 60.3166 60.317 57.7498C65.817 53.1665 69.3004 46.1999 69.3004 38.4999C69.3004 24.1999 57.3838 12.4665 42.717 13.1999C29.7003 13.7499 19.0669 24.7499 18.7003 37.7665C18.5169 45.8332 22.0003 52.9832 27.6837 57.7498C30.8003 60.3165 33.0003 63.6165 34.1003 67.2832H54.0837Z" fill="#FF3E79"/>
<path d="M41.6161 67.65H43.2661L35.9327 40.3334C36.1161 40.3334 36.2993 40.3334 36.4827 40.3334C37.3993 40.3334 38.3161 39.9668 39.0493 39.2334C39.4159 38.8668 39.7827 38.6834 40.3327 38.6834C40.8827 38.6834 41.2493 38.8668 41.6161 39.2334C42.8995 40.7 45.0995 40.7 46.3827 39.2334C46.7493 38.8668 47.1161 38.6834 47.6661 38.6834C48.0327 38.6834 48.5827 38.8668 48.9495 39.2334C49.6829 39.9668 50.4161 40.3334 51.5161 40.3334C51.6995 40.3334 51.8827 40.3334 52.0661 40.3334L44.9161 67.65H46.5661L54.0827 39.05C54.0827 38.6834 54.0827 38.3166 53.7161 38.1334C53.3495 37.95 52.9827 38.1334 52.7995 38.3168C52.4329 38.6834 52.0661 38.8668 51.6995 38.8668C51.1495 38.8668 50.7829 38.6834 50.2329 38.3168C49.4995 37.5834 48.7663 37.2168 47.8495 37.2168C46.9327 37.2168 46.1995 37.5834 45.4661 38.3168C44.7327 39.0502 43.6327 39.0502 42.8995 38.3168C42.3495 37.5834 41.4329 37.2168 40.5161 37.2168C39.5995 37.2168 38.6827 37.5834 38.1327 38.3168C37.7661 38.6834 37.2161 38.8668 36.6661 38.8668C36.2995 38.8668 35.7495 38.6834 35.5661 38.3168C35.3827 38.1334 35.0161 37.9502 34.6495 38.1334C34.2829 38.3168 34.0995 38.6834 34.2829 39.05L41.6161 67.65Z" fill="white"/>
<path d="M38.3164 84.1501C39.2332 86.3501 41.4332 88.0001 43.9998 88.0001C46.5664 88.0001 48.7664 86.3501 49.6832 84.1501H38.3164Z" fill="#344A5E"/>
<path d="M50.783 84.3335H37.3996C35.5662 84.3335 34.0996 82.8669 34.0996 81.0335V67.1001H54.083V81.0335C54.083 82.8667 52.6162 84.3335 50.783 84.3335Z" fill="#344A5E"/>
<path d="M53.8986 74.0667H34.0986C32.9986 74.0667 32.082 73.1501 32.082 72.0501C32.082 70.9501 32.9986 70.0334 34.0986 70.0334H53.8986C54.9986 70.0334 55.9152 70.9501 55.9152 72.0501C55.9152 73.1501 54.9986 74.0667 53.8986 74.0667Z" fill="#415A6B"/>
<path d="M53.8986 80.4834H34.0986C32.9986 80.4834 32.082 79.5668 32.082 78.4668C32.082 77.3668 32.9986 76.4502 34.0986 76.4502H53.8986C54.9986 76.4502 55.9152 77.3668 55.9152 78.4668C55.9152 79.5666 54.9986 80.4834 53.8986 80.4834Z" fill="#415A6B"/>
<path d="M43.9994 0C43.0828 0 42.166 0.733391 42.166 1.83339V8.06678C42.166 8.98339 42.8994 9.90017 43.9994 9.90017C45.0994 9.90017 45.8328 9.16678 45.8328 8.06678V1.83339C45.8328 0.733391 44.916 0 43.9994 0Z" fill="#FF3E79"/>
<path d="M19.4349 11.1833C18.7016 10.45 17.6016 10.45 16.8683 11.1833C16.1351 11.9167 16.1349 13.0167 16.8683 13.75L21.2683 18.15C22.0017 18.8833 23.1017 18.8833 23.8349 18.15C24.5682 17.4166 24.5683 16.3166 23.8349 15.5833L19.4349 11.1833Z" fill="#FF3E79"/>
<path d="M13.7504 36.4834H7.51698C6.60037 36.4834 5.68359 37.2168 5.68359 38.3168C5.68359 39.2334 6.41698 40.1502 7.51698 40.1502H13.7504C14.667 40.1502 15.5838 39.4168 15.5838 38.3168C15.5838 37.4 14.667 36.4834 13.7504 36.4834Z" fill="#FF3E79"/>
<path d="M21.2664 58.4833L16.8664 62.8833C16.1331 63.6167 16.1331 64.7167 16.8664 65.4499C17.5998 66.1832 18.6998 66.1833 19.4331 65.4499L23.8331 61.0499C24.5664 60.3165 24.5664 59.2165 23.8331 58.4833C23.0997 57.7501 21.9998 57.7499 21.2664 58.4833Z" fill="#FF3E79"/>
<path d="M66.734 58.4834C66.0006 57.75 64.9006 57.75 64.1672 58.4834C63.4338 59.2168 63.4338 60.3168 64.1672 61.05L68.5672 65.45C69.3006 66.1834 70.4006 66.1834 71.1338 65.45C71.8671 64.7166 71.8672 63.6166 71.1338 62.8834L66.734 58.4834Z" fill="#FF3E79"/>
<path d="M80.4828 36.4834H74.2494C73.3328 36.4834 72.416 37.2168 72.416 38.3168C72.416 39.2334 73.1494 40.1502 74.2494 40.1502H80.4828C81.3994 40.1502 82.3162 39.4168 82.3162 38.3168C82.316 37.4 81.5828 36.4834 80.4828 36.4834Z" fill="#FF3E79"/>
<path d="M68.5672 11.1833L64.1672 15.5833C63.4338 16.3167 63.4338 17.4167 64.1672 18.1499C64.9006 18.8833 66.0006 18.8833 66.7338 18.1499L71.1338 13.7499C71.8672 13.0165 71.8672 11.9165 71.1338 11.1833C70.4004 10.4501 69.3006 10.4499 68.5672 11.1833Z" fill="#FF3E79"/>
</g>
<defs>
<clipPath id="clip0">
<rect width="88" height="88" fill="white"/>
</clipPath>
</defs>
</svg>
