<svg width="20" height="19" viewBox="0 0 20 19" fill="none" xmlns="http://www.w3.org/2000/svg">
<g clip-path="url(#clip0)">
<path d="M4.91712 9.43713C4.91659 8.47058 5.21727 7.52562 5.78107 6.72191C6.34488 5.91821 7.14644 5.29191 8.08426 4.92234C9.02208 4.55277 10.054 4.45654 11.0493 4.64585C12.0445 4.83516 12.9585 5.30148 13.6753 5.98576C14.3921 6.67005 14.8795 7.54152 15.0759 8.48981C15.2722 9.4381 15.1687 10.4206 14.7783 11.3128C14.388 12.205 13.7284 12.9668 12.8831 13.5018C12.0378 14.0367 11.0448 14.3208 10.0298 14.3179C9.35735 14.3181 8.69145 14.1918 8.07028 13.9464C7.44911 13.701 6.88489 13.3413 6.40994 12.8879C5.93499 12.4345 5.55865 11.8963 5.30249 11.3042C5.04632 10.712 4.91536 10.0776 4.91712 9.43713ZM10.0405 6.26638C9.38193 6.26706 8.73837 6.45381 8.19131 6.803C7.64426 7.15219 7.2183 7.64812 6.96737 8.22798C6.71645 8.80785 6.65184 9.44559 6.78172 10.0604C6.91161 10.6753 7.23014 11.2396 7.69701 11.682C8.16387 12.1243 8.75806 12.4248 9.40435 12.5454C10.0506 12.666 10.72 12.6012 11.3276 12.3593C11.9352 12.1174 12.4538 11.7092 12.8177 11.1865C13.1816 10.6637 13.3744 10.0499 13.3718 9.42276C13.3657 8.58465 13.0122 7.78274 12.3883 7.1916C11.7644 6.60045 10.9206 6.26792 10.0405 6.26638Z" fill="white"/>
<path d="M16.5728 4.36353C16.5721 4.58939 16.5012 4.80998 16.3689 4.99746C16.2367 5.18494 16.0491 5.3309 15.8298 5.4169C15.6105 5.50291 15.3693 5.52511 15.1368 5.4807C14.9043 5.43629 14.6908 5.32726 14.5233 5.16738C14.3558 5.0075 14.2417 4.80394 14.1956 4.58239C14.1495 4.36085 14.1734 4.13126 14.2641 3.92261C14.3549 3.71396 14.5086 3.53561 14.7058 3.41008C14.9029 3.28455 15.1347 3.21746 15.3719 3.2173C15.53 3.21662 15.6867 3.24583 15.8329 3.30323C15.9791 3.36062 16.1119 3.44507 16.2236 3.55167C16.3353 3.65828 16.4237 3.78493 16.4836 3.92429C16.5436 4.06364 16.5739 4.21294 16.5728 4.36353Z" fill="white"/>
<path d="M14.3408 0.887695H5.65986C3.04893 0.887695 0.932358 2.90336 0.932358 5.38981V13.6104C0.932358 16.0969 3.04893 18.1125 5.65986 18.1125H14.3408C16.9518 18.1125 19.0683 16.0969 19.0683 13.6104V5.38981C19.0683 2.90336 16.9518 0.887695 14.3408 0.887695Z" stroke="white" stroke-width="2" stroke-miterlimit="10"/>
</g>
<defs>
<clipPath id="clip0">
<rect width="20" height="19" fill="white"/>
</clipPath>
</defs>
</svg>
