<svg width="179" height="171" viewBox="0 0 179 171" fill="none" xmlns="http://www.w3.org/2000/svg">
<path d="M169.971 89.8076C167.618 131.549 129.892 163.78 85.2168 161.261C40.5416 158.743 6.67668 122.478 9.02954 80.7359C11.3824 38.9941 49.1083 6.7638 93.7834 9.28201C138.459 11.8002 172.324 48.0659 169.971 89.8076Z" stroke="#333E57" stroke-width="9"/>
<path d="M74.3626 70.3093H55.2426C55.2693 67.9893 55.8293 65.9627 56.9226 64.2293C58.016 62.496 59.5093 60.9893 61.4026 59.7093C62.3093 59.0427 63.256 58.4027 64.2426 57.7893C65.2293 57.1493 66.136 56.4693 66.9626 55.7493C67.7893 55.0293 68.4693 54.256 69.0026 53.4293C69.536 52.576 69.816 51.6027 69.8426 50.5093C69.8426 50.0027 69.776 49.4693 69.6426 48.9093C69.536 48.3227 69.3093 47.7893 68.9626 47.3093C68.616 46.8027 68.136 46.3893 67.5226 46.0693C66.9093 45.7227 66.1093 45.5493 65.1226 45.5493C64.216 45.5493 63.456 45.736 62.8426 46.1093C62.256 46.456 61.776 46.9493 61.4026 47.5893C61.056 48.2027 60.7893 48.936 60.6026 49.7893C60.4426 50.6427 60.3493 51.5627 60.3226 52.5493H55.7626C55.7626 51.0027 55.9626 49.576 56.3626 48.2693C56.7893 46.936 57.416 45.7893 58.2426 44.8293C59.0693 43.8693 60.0693 43.1227 61.2426 42.5893C62.4426 42.0293 63.8293 41.7493 65.4026 41.7493C67.1093 41.7493 68.536 42.0293 69.6826 42.5893C70.8293 43.1493 71.7493 43.856 72.4426 44.7093C73.1626 45.5627 73.6693 46.496 73.9626 47.5093C74.256 48.496 74.4026 49.4427 74.4026 50.3493C74.4026 51.4693 74.2293 52.4827 73.8826 53.3893C73.536 54.296 73.0693 55.136 72.4826 55.9093C71.896 56.656 71.2293 57.3493 70.4826 57.9893C69.736 58.6293 68.9626 59.2293 68.1626 59.7893C67.3626 60.3493 66.5626 60.8827 65.7626 61.3893C64.9626 61.896 64.216 62.4027 63.5226 62.9093C62.856 63.416 62.2693 63.9493 61.7626 64.5093C61.256 65.0427 60.9093 65.616 60.7226 66.2293H74.3626V70.3093ZM87.0292 53.9093C87.7758 53.936 88.5225 53.8827 89.2692 53.7493C90.0158 53.616 90.6825 53.3893 91.2692 53.0693C91.8558 52.7227 92.3225 52.256 92.6692 51.6693C93.0425 51.0827 93.2292 50.3627 93.2292 49.5093C93.2292 48.3093 92.8158 47.3493 91.9892 46.6293C91.1892 45.9093 90.1492 45.5493 88.8692 45.5493C88.0692 45.5493 87.3758 45.7093 86.7892 46.0293C86.2025 46.3493 85.7092 46.7893 85.3092 47.3493C84.9358 47.8827 84.6558 48.496 84.4692 49.1893C84.2825 49.856 84.2025 50.5493 84.2292 51.2693H79.6692C79.7225 49.9093 79.9758 48.656 80.4292 47.5093C80.8825 46.336 81.4958 45.3227 82.2692 44.4693C83.0692 43.616 84.0292 42.9493 85.1492 42.4693C86.2692 41.9893 87.5358 41.7493 88.9492 41.7493C90.0425 41.7493 91.1092 41.9093 92.1492 42.2293C93.2158 42.5493 94.1625 43.016 94.9892 43.6293C95.8425 44.2427 96.5225 45.0293 97.0292 45.9893C97.5358 46.9227 97.7892 48.0027 97.7892 49.2293C97.7892 50.6427 97.4692 51.8827 96.8292 52.9493C96.1892 53.9893 95.1892 54.7493 93.8292 55.2293V55.3093C95.4292 55.6293 96.6692 56.4293 97.5492 57.7093C98.4558 58.9627 98.9092 60.496 98.9092 62.3093C98.9092 63.6427 98.6425 64.8427 98.1092 65.9093C97.5758 66.9493 96.8558 67.8427 95.9492 68.5893C95.0425 69.3093 93.9892 69.8693 92.7892 70.2693C91.5892 70.6693 90.3225 70.8693 88.9892 70.8693C87.3625 70.8693 85.9358 70.6427 84.7092 70.1893C83.5092 69.7093 82.4958 69.0427 81.6692 68.1893C80.8692 67.336 80.2558 66.3093 79.8292 65.1093C79.4025 63.9093 79.1758 62.576 79.1492 61.1093H83.7092C83.6558 62.816 84.0692 64.2427 84.9492 65.3893C85.8558 66.5093 87.2025 67.0693 88.9892 67.0693C90.5092 67.0693 91.7758 66.6427 92.7892 65.7893C93.8292 64.9093 94.3492 63.6693 94.3492 62.0693C94.3492 60.976 94.1358 60.1093 93.7092 59.4693C93.2825 58.8293 92.7225 58.3493 92.0292 58.0293C91.3358 57.6827 90.5492 57.4693 89.6692 57.3893C88.8158 57.3093 87.9358 57.2827 87.0292 57.3093V53.9093ZM113.256 41.7493C115.256 41.7493 116.882 42.216 118.136 43.1493C119.416 44.056 120.402 45.2293 121.096 46.6693C121.816 48.0827 122.296 49.6427 122.536 51.3493C122.802 53.056 122.936 54.7093 122.936 56.3093C122.936 57.9093 122.802 59.5627 122.536 61.2693C122.296 62.976 121.816 64.5493 121.096 65.9893C120.402 67.4027 119.416 68.576 118.136 69.5093C116.882 70.416 115.256 70.8693 113.256 70.8693C111.256 70.8693 109.616 70.416 108.336 69.5093C107.082 68.576 106.096 67.4027 105.376 65.9893C104.682 64.5493 104.202 62.976 103.936 61.2693C103.696 59.5627 103.576 57.9093 103.576 56.3093C103.576 54.7093 103.696 53.056 103.936 51.3493C104.202 49.6427 104.682 48.0827 105.376 46.6693C106.096 45.2293 107.082 44.056 108.336 43.1493C109.616 42.216 111.256 41.7493 113.256 41.7493ZM113.256 67.0693C114.242 67.0693 115.069 66.7893 115.736 66.2293C116.402 65.6427 116.922 64.8693 117.296 63.9093C117.696 62.9227 117.976 61.776 118.136 60.4693C118.296 59.1627 118.376 57.776 118.376 56.3093C118.376 54.8427 118.296 53.4693 118.136 52.1893C117.976 50.8827 117.696 49.736 117.296 48.7493C116.922 47.7627 116.402 46.9893 115.736 46.4293C115.069 45.8427 114.242 45.5493 113.256 45.5493C112.242 45.5493 111.402 45.8427 110.736 46.4293C110.096 46.9893 109.576 47.7627 109.176 48.7493C108.802 49.736 108.536 50.8827 108.376 52.1893C108.216 53.4693 108.136 54.8427 108.136 56.3093C108.136 57.776 108.216 59.1627 108.376 60.4693C108.536 61.776 108.802 62.9227 109.176 63.9093C109.576 64.8693 110.096 65.6427 110.736 66.2293C111.402 66.7893 112.242 67.0693 113.256 67.0693Z" fill="url(#paint0_linear)" fill-opacity="0.9"/>
<path d="M74.6891 86.0483H80.6741C81.6368 86.0483 82.4221 86.1876 83.0301 86.4663C83.6381 86.7449 84.1068 87.0933 84.4361 87.5113C84.7655 87.9293 84.9871 88.3853 85.1011 88.8793C85.2278 89.3733 85.2911 89.8293 85.2911 90.2473C85.2911 90.6653 85.2278 91.1213 85.1011 91.6153C84.9871 92.0966 84.7655 92.5463 84.4361 92.9643C84.1068 93.3823 83.6381 93.7306 83.0301 94.0093C82.4221 94.2753 81.6368 94.4083 80.6741 94.4083H77.0641V99.6143H74.6891V86.0483ZM77.0641 92.4703H80.5411C80.8071 92.4703 81.0795 92.4323 81.3581 92.3563C81.6368 92.2803 81.8901 92.1599 82.1181 91.9953C82.3588 91.8179 82.5488 91.5899 82.6881 91.3113C82.8401 91.0199 82.9161 90.6589 82.9161 90.2283C82.9161 89.7849 82.8528 89.4176 82.7261 89.1263C82.5995 88.8349 82.4285 88.6069 82.2131 88.4423C81.9978 88.2649 81.7508 88.1446 81.4721 88.0813C81.1935 88.0179 80.8958 87.9863 80.5791 87.9863H77.0641V92.4703ZM91.561 99.8803C90.7756 99.8803 90.0726 99.7536 89.452 99.5003C88.844 99.2343 88.3246 98.8733 87.894 98.4173C87.476 97.9613 87.153 97.4166 86.925 96.7833C86.7096 96.1499 86.602 95.4533 86.602 94.6933C86.602 93.9459 86.7096 93.2556 86.925 92.6223C87.153 91.9889 87.476 91.4443 87.894 90.9883C88.3246 90.5323 88.844 90.1776 89.452 89.9243C90.0726 89.6583 90.7756 89.5253 91.561 89.5253C92.3463 89.5253 93.043 89.6583 93.651 89.9243C94.2716 90.1776 94.791 90.5323 95.209 90.9883C95.6396 91.4443 95.9626 91.9889 96.178 92.6223C96.406 93.2556 96.52 93.9459 96.52 94.6933C96.52 95.4533 96.406 96.1499 96.178 96.7833C95.9626 97.4166 95.6396 97.9613 95.209 98.4173C94.791 98.8733 94.2716 99.2343 93.651 99.5003C93.043 99.7536 92.3463 99.8803 91.561 99.8803ZM91.561 98.1703C92.0423 98.1703 92.4603 98.0689 92.815 97.8663C93.1696 97.6636 93.461 97.3976 93.689 97.0683C93.917 96.7389 94.0816 96.3716 94.183 95.9663C94.297 95.5483 94.354 95.1239 94.354 94.6933C94.354 94.2753 94.297 93.8573 94.183 93.4393C94.0816 93.0213 93.917 92.6539 93.689 92.3373C93.461 92.0079 93.1696 91.7419 92.815 91.5393C92.4603 91.3366 92.0423 91.2353 91.561 91.2353C91.0796 91.2353 90.6616 91.3366 90.307 91.5393C89.9523 91.7419 89.661 92.0079 89.433 92.3373C89.205 92.6539 89.034 93.0213 88.92 93.4393C88.8186 93.8573 88.768 94.2753 88.768 94.6933C88.768 95.1239 88.8186 95.5483 88.92 95.9663C89.034 96.3716 89.205 96.7389 89.433 97.0683C89.661 97.3976 89.9523 97.6636 90.307 97.8663C90.6616 98.0689 91.0796 98.1703 91.561 98.1703ZM98.3777 86.0483H100.544V88.1003H98.3777V86.0483ZM98.3777 89.7913H100.544V99.6143H98.3777V89.7913ZM102.904 89.7913H104.956V91.2353L104.994 91.2733C105.323 90.7286 105.754 90.3043 106.286 90.0003C106.818 89.6836 107.407 89.5253 108.053 89.5253C109.129 89.5253 109.978 89.8039 110.599 90.3613C111.219 90.9186 111.53 91.7546 111.53 92.8693V99.6143H109.364V93.4393C109.338 92.6666 109.174 92.1093 108.87 91.7673C108.566 91.4126 108.091 91.2353 107.445 91.2353C107.077 91.2353 106.748 91.3049 106.457 91.4443C106.165 91.5709 105.918 91.7546 105.716 91.9953C105.513 92.2233 105.355 92.4956 105.241 92.8123C105.127 93.1289 105.07 93.4646 105.07 93.8193V99.6143H102.904V89.7913ZM112.826 89.7913H114.46V86.8463H116.626V89.7913H118.583V91.4063H116.626V96.6503C116.626 96.8783 116.632 97.0746 116.645 97.2393C116.67 97.4039 116.714 97.5433 116.778 97.6573C116.854 97.7713 116.961 97.8599 117.101 97.9233C117.24 97.9739 117.43 97.9993 117.671 97.9993C117.823 97.9993 117.975 97.9993 118.127 97.9993C118.279 97.9866 118.431 97.9613 118.583 97.9233V99.5953C118.342 99.6206 118.108 99.6459 117.88 99.6713C117.652 99.6966 117.417 99.7093 117.177 99.7093C116.607 99.7093 116.144 99.6586 115.79 99.5573C115.448 99.4433 115.175 99.2849 114.973 99.0823C114.783 98.8669 114.65 98.6009 114.574 98.2843C114.51 97.9676 114.472 97.6066 114.46 97.2013V91.4063H112.826V89.7913ZM121.775 96.4603C121.838 97.0936 122.079 97.5369 122.497 97.7903C122.915 98.0436 123.415 98.1703 123.998 98.1703C124.201 98.1703 124.429 98.1576 124.682 98.1323C124.948 98.0943 125.195 98.0309 125.423 97.9423C125.651 97.8536 125.835 97.7269 125.974 97.5623C126.126 97.3849 126.196 97.1569 126.183 96.8783C126.17 96.5996 126.069 96.3716 125.879 96.1943C125.689 96.0169 125.442 95.8776 125.138 95.7763C124.847 95.6623 124.511 95.5673 124.131 95.4913C123.751 95.4153 123.365 95.3329 122.972 95.2443C122.567 95.1556 122.174 95.0479 121.794 94.9213C121.427 94.7946 121.091 94.6236 120.787 94.4083C120.496 94.1929 120.261 93.9206 120.084 93.5913C119.907 93.2493 119.818 92.8313 119.818 92.3373C119.818 91.8053 119.945 91.3619 120.198 91.0073C120.464 90.6399 120.793 90.3486 121.186 90.1333C121.591 89.9053 122.035 89.7469 122.516 89.6583C123.01 89.5696 123.479 89.5253 123.922 89.5253C124.429 89.5253 124.91 89.5823 125.366 89.6963C125.835 89.7976 126.253 89.9686 126.62 90.2093C127 90.4499 127.31 90.7666 127.551 91.1593C127.804 91.5393 127.963 92.0016 128.026 92.5463H125.765C125.664 92.0269 125.423 91.6786 125.043 91.5013C124.676 91.3239 124.251 91.2353 123.77 91.2353C123.618 91.2353 123.434 91.2479 123.219 91.2733C123.016 91.2986 122.82 91.3493 122.63 91.4253C122.453 91.4886 122.301 91.5899 122.174 91.7293C122.047 91.8559 121.984 92.0269 121.984 92.2423C121.984 92.5083 122.073 92.7236 122.25 92.8883C122.44 93.0529 122.681 93.1923 122.972 93.3063C123.276 93.4076 123.618 93.4963 123.998 93.5723C124.378 93.6483 124.771 93.7306 125.176 93.8193C125.569 93.9079 125.955 94.0156 126.335 94.1423C126.715 94.2689 127.051 94.4399 127.342 94.6553C127.646 94.8706 127.887 95.1429 128.064 95.4723C128.254 95.8016 128.349 96.2069 128.349 96.6883C128.349 97.2709 128.216 97.7649 127.95 98.1703C127.684 98.5756 127.336 98.9049 126.905 99.1583C126.487 99.4116 126.018 99.5953 125.499 99.7093C124.98 99.8233 124.467 99.8803 123.96 99.8803C123.339 99.8803 122.763 99.8106 122.231 99.6713C121.712 99.5319 121.256 99.3229 120.863 99.0443C120.483 98.7529 120.179 98.3983 119.951 97.9803C119.736 97.5496 119.622 97.0429 119.609 96.4603H121.775Z" fill="url(#paint1_linear)" fill-opacity="0.9"/>
<g clip-path="url(#clip0)">
<path d="M66.4778 88.9036H63.7788C63.9725 88.7714 64.1388 88.64 64.2548 88.5223C64.9423 87.8305 64.9423 86.7045 64.2548 86.0127C63.5869 85.3406 62.4217 85.3397 61.7529 86.0127C61.3836 86.3838 60.4018 87.8945 60.5374 88.9036H60.476C60.6108 87.8945 59.6298 86.3838 59.2604 86.0127C58.5917 85.3397 57.4265 85.3406 56.7586 86.0127C56.071 86.7045 56.071 87.8305 56.7577 88.5223C56.8746 88.64 57.0409 88.7714 57.2345 88.9036H54.5356C54.0656 88.9036 53.6826 89.2866 53.6826 89.7566V91.8891C53.6826 92.1246 53.8737 92.3156 54.1091 92.3156H54.5356V97.4337C54.5356 97.9037 54.9186 98.2867 55.3886 98.2867H65.6247C66.0948 98.2867 66.4778 97.9037 66.4778 97.4337V92.3156H66.9043C67.1397 92.3156 67.3308 92.1246 67.3308 91.8891V89.7566C67.3308 89.2866 66.9478 88.9036 66.4778 88.9036ZM57.3634 86.6141C57.5365 86.4401 57.766 86.3446 58.0099 86.3446C58.253 86.3446 58.4825 86.4401 58.6557 86.6141C59.2306 87.1925 59.8021 88.6699 59.6034 88.8754C59.6034 88.8754 59.5675 88.9036 59.4455 88.9036C58.8561 88.9036 57.731 88.2911 57.3634 87.9209C57.0059 87.561 57.0059 86.9741 57.3634 86.6141ZM60.0802 97.4337H55.3886V92.3156H60.0802V97.4337ZM60.0802 91.4626H54.5356V89.7566H59.4455H60.0802V91.4626ZM62.3577 86.6141C62.704 86.2669 63.3046 86.2678 63.65 86.6141C64.0074 86.9741 64.0074 87.561 63.65 87.9209C63.2824 88.2911 62.1573 88.9036 61.5678 88.9036C61.4459 88.9036 61.41 88.8763 61.4092 88.8754C61.2113 88.6699 61.7828 87.1925 62.3577 86.6141ZM65.6247 97.4337H60.9332V92.3156H65.6247V97.4337ZM66.4778 91.4626H60.9332V89.7566H61.5678H66.4778V91.4626Z" fill="url(#paint2_linear)" fill-opacity="0.9"/>
</g>
<line x1="25.0215" y1="132.477" x2="14.103" y2="132.477" stroke="#333E57" stroke-width="2"/>
<line x1="162.868" y1="132.022" x2="154.224" y2="132.022" stroke="#333E57" stroke-width="2"/>
<line x1="175.883" y1="60.1029" x2="166.772" y2="62.7244" stroke="#333E57" stroke-width="2"/>
<line x1="158.874" y1="31.3124" x2="151.595" y2="36.1722" stroke="#333E57" stroke-width="2"/>
<line x1="90.623" y1="0.454834" x2="90.623" y2="8.64372" stroke="#333E57" stroke-width="2"/>
<line x1="129.606" y1="9.42119" x2="126.964" y2="17.1724" stroke="#333E57" stroke-width="2"/>
<line x1="178.171" y1="87.3667" x2="170.232" y2="87.0532" stroke="#333E57" stroke-width="2"/>
<line x1="172.476" y1="115.56" x2="165.197" y2="112.376" stroke="#333E57" stroke-width="2"/>
<line x1="4.38846" y1="56.8212" x2="12.9198" y2="59.4428" stroke="#333E57" stroke-width="2"/>
<line y1="-1" x2="8.75222" y2="-1" transform="matrix(0.831671 0.555269 0.555269 -0.831671 20.8027 29.116)" stroke="#333E57" stroke-width="2"/>
<line y1="-1" x2="8.18889" y2="-1" transform="matrix(0.322558 0.94655 0.94655 -0.322558 50.4619 7.73389)" stroke="#333E57" stroke-width="2"/>
<line y1="-1" x2="7.94534" y2="-1" transform="matrix(0.999222 -0.0394512 -0.0394512 -0.999222 0.910156 85.0024)" stroke="#333E57" stroke-width="2"/>
<line y1="-1" x2="7.94534" y2="-1" transform="matrix(0.916162 -0.400809 -0.400809 -0.916162 6.24414 113.28)" stroke="#333E57" stroke-width="2"/>
<path d="M23.308 131.022C13.9679 120.623 -1.53668 91.599 11.1659 58.6925C27.044 17.5594 64.6381 5.54296 89.6228 6.92947" stroke="url(#paint3_linear)" stroke-opacity="0.9" stroke-width="9"/>
<rect x="9" y="131" width="167" height="37" fill="white"/>
<defs>
<linearGradient id="paint0_linear" x1="185.116" y1="34.5733" x2="68.5541" y2="3.24733" gradientUnits="userSpaceOnUse">
<stop offset="0.145833" stop-color="#FF3E79"/>
<stop offset="1" stop-color="#F9357C"/>
</linearGradient>
<linearGradient id="paint1_linear" x1="165.319" y1="71.8783" x2="80.7625" y2="55.959" gradientUnits="userSpaceOnUse">
<stop offset="0.145833" stop-color="#FF3E79"/>
<stop offset="1" stop-color="#F9357C"/>
</linearGradient>
<linearGradient id="paint2_linear" x1="74.7683" y1="81.6962" x2="54.8701" y2="79.9552" gradientUnits="userSpaceOnUse">
<stop offset="0.145833" stop-color="#FF3E79"/>
<stop offset="1" stop-color="#F9357C"/>
</linearGradient>
<linearGradient id="paint3_linear" x1="134.992" y1="-30.2274" x2="13.0515" y2="-36.9234" gradientUnits="userSpaceOnUse">
<stop offset="0.145833" stop-color="#FF3E79"/>
<stop offset="1" stop-color="#F9357C"/>
</linearGradient>
<clipPath id="clip0">
<rect width="13.6481" height="13.6481" fill="white" transform="translate(53.6826 85.0735)"/>
</clipPath>
</defs>
</svg>
