<svg width="310" height="271" viewBox="0 0 310 271" fill="none" xmlns="http://www.w3.org/2000/svg">
<rect width="310" height="271" fill="#F0E3E7"/>
<path d="M279.617 7H207.259V82.3877H279.617V7Z" fill="#E0E0E0"/>
<path d="M274.716 7H202.359V82.3877H274.716V7Z" fill="#EBEBEB"/>
<path d="M264.985 17.1359H212.084V72.2519H264.985V17.1359Z" fill="#FAFAFA"/>
<path d="M212.085 72.6206C211.696 73.1631 211.254 73.6651 210.764 74.1188C209.917 75.0062 208.723 76.2047 207.397 77.5185C206.072 78.8323 204.844 80.0021 203.938 80.8318C203.481 81.3129 202.975 81.7455 202.428 82.1226C202.814 81.5818 203.255 81.0818 203.742 80.6301C204.596 79.7428 205.783 78.5384 207.121 77.2246C208.458 75.9109 209.68 74.7411 210.58 73.9056C211.037 73.4276 211.541 72.9971 212.085 72.6206Z" fill="#E0E0E0"/>
<path d="M264.991 72.4823C265.533 72.874 266.035 73.3179 266.49 73.8076C267.377 74.6547 268.577 75.8417 269.891 77.1728C271.205 78.5039 272.37 79.7255 273.206 80.6301C273.689 81.086 274.122 81.5921 274.497 82.1398C273.956 81.7537 273.456 81.3135 273.004 80.8261C272.116 79.9732 270.911 78.7804 269.597 77.4494C268.283 76.1183 267.107 74.8909 266.276 73.992C265.793 73.5377 265.362 73.0314 264.991 72.4823Z" fill="#E0E0E0"/>
<path d="M264.846 17.2799C265.239 16.7369 265.685 16.2349 266.178 15.7817C267.026 14.9001 268.219 13.6958 269.545 12.382C270.871 11.0682 272.099 9.90423 273.004 9.0687C273.462 8.58759 273.968 8.15504 274.514 7.77795C274.128 8.3187 273.688 8.81875 273.2 9.27038C272.347 10.1578 271.159 11.3621 269.822 12.6759C268.484 13.9897 267.262 15.1652 266.363 15.9949C265.904 16.4756 265.396 16.9063 264.846 17.2799Z" fill="#E0E0E0"/>
<path d="M211.94 17.4182C211.4 17.0275 210.898 16.5856 210.442 16.0986C209.559 15.2458 208.355 14.0588 207.04 12.7277C205.726 11.3966 204.561 10.175 203.725 9.27036C203.243 8.81184 202.81 8.30389 202.434 7.75488C202.97 8.14863 203.467 8.5945 203.915 9.08597C204.803 9.93302 206.008 11.1258 207.323 12.4569C208.637 13.788 209.813 15.0153 210.643 15.9142C211.129 16.3669 211.564 16.8712 211.94 17.4182Z" fill="#E0E0E0"/>
<path d="M264.846 72.2518C264.842 72.1635 264.842 72.075 264.846 71.9867C264.846 71.8023 264.846 71.5488 264.846 71.2204C264.846 70.5346 264.846 69.5378 264.846 68.247C264.846 65.6425 264.818 61.8452 264.8 57.0164C264.8 47.3646 264.748 33.6101 264.714 17.1358L264.887 17.3086H212.131L212.332 17.1127C212.332 37.344 212.332 56.2961 212.332 72.2288L212.159 72.0616L250.37 72.1481L261.099 72.1942H263.936H264.668H264.921H264.685H263.97H261.168L250.48 72.2403L212.159 72.3267H211.992V72.1538C211.992 56.1924 211.992 37.2691 211.963 17.0378V16.9341H212.165H264.921H265.094V17.107C265.054 33.6274 265.025 47.4222 265.002 57.0971C265.002 61.9085 264.968 65.6943 264.962 68.2874C264.962 69.5666 264.962 70.5519 264.962 71.2319C264.962 71.5488 264.962 71.8081 264.962 71.9752C264.962 72.1423 264.846 72.2518 264.846 72.2518Z" fill="#E0E0E0"/>
<path d="M227.091 39.3493H229.933C229.933 39.3493 232.043 32.0427 237.566 33.2586C243.089 34.4744 243.66 39.3493 243.256 41.7867C243.206 41.9168 243.189 42.0574 243.206 42.1959C243.223 42.3343 243.274 42.4665 243.354 42.5805C243.434 42.6945 243.542 42.7869 243.667 42.8495C243.791 42.9121 243.93 42.9429 244.069 42.9392C245.222 43.1005 253.737 42.9392 253.737 42.9392C253.737 42.9392 256.17 57.3909 240.414 56.1924C224.658 54.9938 230.175 44.5007 230.908 43.4462C231.64 42.3918 227.091 39.3493 227.091 39.3493Z" fill="#EBEBEB"/>
<path d="M245.931 47.2322C244.282 48.3097 242.161 48.3846 240.218 48.0562C239.186 47.8718 238.108 47.5894 237.105 47.9121C236.527 48.1154 236.033 48.5045 235.7 49.0187C235.367 49.5328 235.215 50.1427 235.266 50.7529L235.433 51.1736C236.091 52.3639 237.156 53.2778 238.432 53.7484C239.709 54.219 241.112 54.2148 242.386 53.7366C243.66 53.2584 244.719 52.3381 245.37 51.1439C246.021 49.9496 246.22 48.5612 245.931 47.2322Z" fill="#E0E0E0"/>
<path d="M233.686 39.1419C233.687 39.2347 233.661 39.3257 233.61 39.4034C233.559 39.481 233.486 39.5417 233.401 39.5778C233.315 39.6138 233.221 39.6235 233.13 39.6057C233.039 39.5879 232.955 39.5433 232.889 39.4777C232.824 39.4121 232.779 39.3284 232.761 39.2373C232.743 39.1462 232.753 39.0519 232.789 38.9664C232.825 38.8809 232.886 38.808 232.964 38.7572C233.041 38.7064 233.132 38.6798 233.225 38.6809C233.347 38.6809 233.465 38.7295 233.551 38.816C233.638 38.9024 233.686 39.0197 233.686 39.1419Z" fill="#E0E0E0"/>
<path d="M31.9546 187.78H17V202.727H31.9546V187.78Z" fill="#EBEBEB"/>
<path d="M49.2901 187.78H34.3354V202.727H49.2901V187.78Z" fill="#EBEBEB"/>
<path d="M66.6258 187.78H51.6711V202.727H66.6258V187.78Z" fill="#EBEBEB"/>
<path d="M83.9615 187.78H69.0068V202.727H83.9615V187.78Z" fill="#EBEBEB"/>
<path d="M101.297 187.78H86.3423V202.727H101.297V187.78Z" fill="#EBEBEB"/>
<path d="M118.633 187.78H103.678V202.727H118.633V187.78Z" fill="#EBEBEB"/>
<path d="M135.974 187.78H121.019V202.727H135.974V187.78Z" fill="#EBEBEB"/>
<path d="M153.31 187.78H138.355V202.727H153.31V187.78Z" fill="#EBEBEB"/>
<path d="M170.645 187.78H155.69V202.727H170.645V187.78Z" fill="#EBEBEB"/>
<path d="M187.981 187.78H173.026V202.727H187.981V187.78Z" fill="#EBEBEB"/>
<path d="M205.316 187.78H190.362V202.727H205.316V187.78Z" fill="#EBEBEB"/>
<path d="M222.652 187.78H207.697V202.727H222.652V187.78Z" fill="#EBEBEB"/>
<path d="M239.987 187.78H225.033V202.727H239.987V187.78Z" fill="#EBEBEB"/>
<path d="M257.323 187.78H242.368V202.727H257.323V187.78Z" fill="#EBEBEB"/>
<path d="M274.659 187.78H259.704V202.727H274.659V187.78Z" fill="#EBEBEB"/>
<path d="M291.994 187.78H277.04V202.727H291.994V187.78Z" fill="#EBEBEB"/>
<path d="M31.9546 204.657H17V219.604H31.9546V204.657Z" fill="#EBEBEB"/>
<path d="M49.2901 204.657H34.3354V219.604H49.2901V204.657Z" fill="#EBEBEB"/>
<path d="M66.6258 204.657H51.6711V219.604H66.6258V204.657Z" fill="#EBEBEB"/>
<path d="M83.9615 204.657H69.0068V219.604H83.9615V204.657Z" fill="#EBEBEB"/>
<path d="M101.297 204.657H86.3423V219.604H101.297V204.657Z" fill="#EBEBEB"/>
<path d="M118.633 204.657H103.678V219.604H118.633V204.657Z" fill="#EBEBEB"/>
<path d="M135.974 204.657H121.019V219.604H135.974V204.657Z" fill="#EBEBEB"/>
<path d="M153.31 204.657H138.355V219.604H153.31V204.657Z" fill="#EBEBEB"/>
<path d="M170.645 204.657H155.69V219.604H170.645V204.657Z" fill="#EBEBEB"/>
<path d="M187.981 204.657H173.026V219.604H187.981V204.657Z" fill="#EBEBEB"/>
<path d="M205.316 204.657H190.362V219.604H205.316V204.657Z" fill="#EBEBEB"/>
<path d="M222.652 204.657H207.697V219.604H222.652V204.657Z" fill="#EBEBEB"/>
<path d="M239.987 204.657H225.033V219.604H239.987V204.657Z" fill="#EBEBEB"/>
<path d="M257.323 204.657H242.368V219.604H257.323V204.657Z" fill="#EBEBEB"/>
<path d="M274.659 204.657H259.704V219.604H274.659V204.657Z" fill="#EBEBEB"/>
<path d="M291.994 204.657H277.04V219.604H291.994V204.657Z" fill="#EBEBEB"/>
<path d="M31.9546 221.535H17V236.482H31.9546V221.535Z" fill="#EBEBEB"/>
<path d="M49.2901 221.535H34.3354V236.482H49.2901V221.535Z" fill="#EBEBEB"/>
<path d="M66.6258 221.535H51.6711V236.482H66.6258V221.535Z" fill="#EBEBEB"/>
<path d="M83.9615 221.535H69.0068V236.482H83.9615V221.535Z" fill="#EBEBEB"/>
<path d="M101.297 221.535H86.3423V236.482H101.297V221.535Z" fill="#EBEBEB"/>
<path d="M118.633 221.535H103.678V236.482H118.633V221.535Z" fill="#EBEBEB"/>
<path d="M135.974 221.535H121.019V236.482H135.974V221.535Z" fill="#EBEBEB"/>
<path d="M153.31 221.535H138.355V236.482H153.31V221.535Z" fill="#EBEBEB"/>
<path d="M170.645 221.535H155.69V236.482H170.645V221.535Z" fill="#EBEBEB"/>
<path d="M187.981 221.535H173.026V236.482H187.981V221.535Z" fill="#EBEBEB"/>
<path d="M205.316 221.535H190.362V236.482H205.316V221.535Z" fill="#EBEBEB"/>
<path d="M222.652 221.535H207.697V236.482H222.652V221.535Z" fill="#EBEBEB"/>
<path d="M239.987 221.535H225.033V236.482H239.987V221.535Z" fill="#EBEBEB"/>
<path d="M257.323 221.535H242.368V236.482H257.323V221.535Z" fill="#EBEBEB"/>
<path d="M274.659 221.535H259.704V236.482H274.659V221.535Z" fill="#EBEBEB"/>
<path d="M291.994 221.535H277.04V236.482H291.994V221.535Z" fill="#EBEBEB"/>
<path d="M31.9546 238.407H17V253.354H31.9546V238.407Z" fill="#EBEBEB"/>
<path d="M49.2901 238.407H34.3354V253.354H49.2901V238.407Z" fill="#EBEBEB"/>
<path d="M66.6258 238.407H51.6711V253.354H66.6258V238.407Z" fill="#EBEBEB"/>
<path d="M83.9615 238.407H69.0068V253.354H83.9615V238.407Z" fill="#EBEBEB"/>
<path d="M101.297 238.407H86.3423V253.354H101.297V238.407Z" fill="#EBEBEB"/>
<path d="M118.633 238.407H103.678V253.354H118.633V238.407Z" fill="#EBEBEB"/>
<path d="M135.974 238.407H121.019V253.354H135.974V238.407Z" fill="#EBEBEB"/>
<path d="M153.31 238.407H138.355V253.354H153.31V238.407Z" fill="#EBEBEB"/>
<path d="M170.645 238.407H155.69V253.354H170.645V238.407Z" fill="#EBEBEB"/>
<path d="M187.981 238.407H173.026V253.354H187.981V238.407Z" fill="#EBEBEB"/>
<path d="M205.316 238.407H190.362V253.354H205.316V238.407Z" fill="#EBEBEB"/>
<path d="M222.652 238.407H207.697V253.354H222.652V238.407Z" fill="#EBEBEB"/>
<path d="M239.987 238.407H225.033V253.354H239.987V238.407Z" fill="#EBEBEB"/>
<path d="M257.323 238.407H242.368V253.354H257.323V238.407Z" fill="#EBEBEB"/>
<path d="M274.659 238.407H259.704V253.354H274.659V238.407Z" fill="#EBEBEB"/>
<path d="M291.994 238.407H277.04V253.354H291.994V238.407Z" fill="#EBEBEB"/>
<path d="M273.384 149.78C276.359 147.729 277.106 143.656 275.054 140.683C273.002 137.709 268.927 136.962 265.953 139.013C262.978 141.064 262.23 145.137 264.282 148.11C266.334 151.083 270.409 151.831 273.384 149.78Z" fill="#F5F5F5"/>
<path d="M264.051 94.9552C263.903 94.3256 263.6 93.743 263.169 93.2611C262.161 92.2127 260.926 91.4085 259.56 90.9101C257.565 90.1956 251.304 87.7235 249.586 87.0378C249.473 87.0005 249.35 87.0085 249.242 87.06C249.135 87.1116 249.051 87.2028 249.01 87.3144L248.964 87.4354C248.92 87.5394 248.916 87.6559 248.954 87.7624C248.991 87.8688 249.066 87.9577 249.165 88.0117L259.191 93.9468C259.286 94.0045 259.357 94.0945 259.391 94.2004C259.425 94.3063 259.419 94.4209 259.375 94.523L259.139 95.0128C259.114 95.0674 259.079 95.1165 259.035 95.1574C258.991 95.1983 258.939 95.23 258.883 95.2509C258.827 95.2718 258.767 95.2814 258.707 95.2791C258.647 95.2768 258.588 95.2627 258.534 95.2375L248.157 90.6277C248.054 90.585 247.94 90.5801 247.834 90.6139C247.729 90.6477 247.639 90.718 247.58 90.8121L247.436 91.0484C247.404 91.1015 247.384 91.1604 247.375 91.2216C247.367 91.2828 247.371 91.3451 247.387 91.4048C247.403 91.4645 247.431 91.5203 247.469 91.5689C247.507 91.6176 247.555 91.6581 247.609 91.688L257.663 97.3119C257.756 97.3621 257.828 97.4432 257.867 97.5412C257.906 97.6391 257.909 97.7477 257.876 97.8478L257.796 98.1071C257.777 98.169 257.745 98.2261 257.702 98.2748C257.66 98.3235 257.607 98.3628 257.549 98.3899C257.49 98.4171 257.426 98.4316 257.361 98.4325C257.297 98.4335 257.233 98.4208 257.173 98.3953L247.084 93.9122C247.026 93.8863 246.963 93.8726 246.9 93.872C246.836 93.8714 246.773 93.8839 246.715 93.9088C246.657 93.9337 246.604 93.9704 246.56 94.0166C246.517 94.0628 246.483 94.1175 246.462 94.1773L246.427 94.2695C246.384 94.3741 246.381 94.4911 246.419 94.5977C246.458 94.7042 246.534 94.7927 246.635 94.8457L256.672 100.429C256.772 100.482 256.849 100.57 256.888 100.677C256.928 100.783 256.926 100.9 256.885 101.006L256.77 101.34C256.749 101.4 256.717 101.455 256.674 101.502C256.631 101.549 256.579 101.587 256.521 101.613C256.464 101.639 256.401 101.652 256.337 101.653C256.274 101.654 256.211 101.641 256.153 101.616L245.666 97.1909C245.554 97.1425 245.428 97.1402 245.315 97.1844C245.201 97.2287 245.11 97.3159 245.061 97.4272L244.974 97.6346C244.932 97.7388 244.929 97.8548 244.966 97.9609C245.003 98.067 245.078 98.1559 245.176 98.2109L255.357 103.593C255.464 103.648 255.544 103.743 255.581 103.858C255.618 103.972 255.608 104.097 255.553 104.204L255.323 104.67C255.269 104.771 255.182 104.848 255.076 104.889C254.969 104.929 254.852 104.929 254.746 104.889L244.34 100.28C244.284 100.254 244.223 100.24 244.161 100.239C244.1 100.238 244.039 100.249 243.981 100.273C243.924 100.296 243.872 100.33 243.829 100.374C243.786 100.418 243.752 100.47 243.729 100.527C243.686 100.631 243.684 100.747 243.721 100.854C243.758 100.96 243.833 101.049 243.931 101.104L254.152 106.866C254.257 106.924 254.335 107.021 254.37 107.137C254.404 107.252 254.392 107.376 254.337 107.482L254.135 107.874C254.079 107.972 253.99 108.046 253.885 108.084C253.779 108.122 253.663 108.121 253.558 108.082L242.962 103.293C242.903 103.266 242.839 103.253 242.774 103.252C242.71 103.252 242.646 103.265 242.586 103.291C242.527 103.317 242.474 103.356 242.43 103.404C242.387 103.452 242.354 103.508 242.334 103.57C242.3 103.67 242.302 103.779 242.34 103.878C242.378 103.977 242.449 104.059 242.541 104.111L252.596 109.908C252.7 109.969 252.777 110.067 252.81 110.183C252.844 110.299 252.831 110.424 252.774 110.531L252.549 110.934C252.495 111.032 252.405 111.106 252.299 111.142C252.192 111.179 252.076 111.174 251.973 111.13L241.659 106.192C241.552 106.141 241.429 106.133 241.316 106.171C241.203 106.208 241.109 106.288 241.054 106.393L240.967 106.555C240.911 106.66 240.898 106.784 240.932 106.899C240.965 107.014 241.042 107.112 241.146 107.171L251.01 112.882C251.113 112.942 251.189 113.04 251.222 113.154C251.256 113.269 251.244 113.392 251.189 113.498L251.097 113.671C251.042 113.769 250.953 113.844 250.847 113.881C250.74 113.918 250.624 113.915 250.52 113.873L240.045 109.182C239.985 109.156 239.92 109.143 239.854 109.143C239.788 109.144 239.724 109.159 239.664 109.187C239.605 109.215 239.552 109.255 239.509 109.305C239.466 109.355 239.435 109.413 239.417 109.476L239.313 109.81C239.283 109.911 239.288 110.019 239.328 110.117C239.368 110.214 239.44 110.295 239.532 110.346L249.604 115.907C249.71 115.964 249.789 116.061 249.825 116.176C249.86 116.292 249.849 116.416 249.794 116.523L249.621 116.858C249.565 116.963 249.472 117.043 249.359 117.081C249.247 117.12 249.124 117.114 249.016 117.065L238.592 112.265C238.536 112.238 238.476 112.223 238.414 112.221C238.352 112.219 238.291 112.229 238.233 112.251C238.175 112.273 238.123 112.306 238.078 112.35C238.034 112.393 237.999 112.444 237.975 112.501L237.912 112.651C237.868 112.754 237.863 112.87 237.899 112.977C237.936 113.083 238.01 113.172 238.108 113.227L248.024 118.869C248.13 118.928 248.208 119.027 248.241 119.143C248.274 119.26 248.261 119.385 248.203 119.491L248.007 119.848C247.951 119.945 247.862 120.019 247.756 120.056C247.65 120.093 247.534 120.091 247.43 120.05L237.116 115.244C237.057 115.216 236.993 115.202 236.927 115.201C236.862 115.2 236.797 115.213 236.737 115.239C236.677 115.265 236.623 115.304 236.579 115.353C236.535 115.401 236.502 115.458 236.482 115.521L236.413 115.734C236.381 115.836 236.386 115.945 236.426 116.044C236.466 116.143 236.539 116.224 236.632 116.276L246.433 121.721C246.486 121.75 246.533 121.79 246.57 121.837C246.608 121.885 246.636 121.94 246.653 121.998C246.669 122.056 246.674 122.117 246.667 122.178C246.66 122.238 246.641 122.296 246.611 122.349L246.508 122.539C246.451 122.635 246.362 122.708 246.256 122.744C246.15 122.78 246.035 122.777 245.931 122.735L235.496 118.125C235.384 118.078 235.257 118.076 235.143 118.12C235.029 118.164 234.937 118.251 234.885 118.361L234.776 118.609C234.734 118.714 234.732 118.831 234.77 118.937C234.808 119.043 234.884 119.132 234.983 119.186L244.859 124.372C244.967 124.43 245.047 124.529 245.083 124.647C245.119 124.764 245.107 124.891 245.049 125L244.934 125.207C244.881 125.307 244.792 125.384 244.686 125.422C244.579 125.461 244.462 125.458 244.357 125.415L234.315 121.173C234.211 121.131 234.095 121.127 233.989 121.163C233.883 121.199 233.794 121.272 233.738 121.369L233.467 121.836C233.436 121.891 233.417 121.951 233.41 122.013C233.403 122.075 233.409 122.138 233.428 122.198C233.446 122.258 233.476 122.313 233.517 122.361C233.557 122.409 233.607 122.448 233.663 122.476L243.21 127.281C243.265 127.309 243.314 127.347 243.354 127.394C243.394 127.441 243.424 127.495 243.442 127.554C243.461 127.612 243.467 127.674 243.461 127.735C243.454 127.796 243.436 127.856 243.406 127.91L243.268 128.163C243.215 128.263 243.126 128.34 243.02 128.378C242.913 128.417 242.796 128.414 242.691 128.371L232.251 124.02C232.168 123.984 232.077 123.974 231.989 123.99C231.9 124.007 231.819 124.049 231.755 124.112C231.658 124.181 231.577 124.27 231.518 124.374C231.46 124.477 231.425 124.593 231.417 124.711C231.409 124.83 231.427 124.949 231.471 125.059C231.514 125.17 231.582 125.27 231.668 125.351C232.401 126.152 236.471 127.351 237.353 132.375C238.235 137.4 233.974 143.174 232.683 145.219C231.392 147.265 226.405 154.036 224.612 156.369C223.536 157.725 222.363 159 221.101 160.184C220.587 160.665 220.174 161.244 219.887 161.887C219.599 162.529 219.442 163.223 219.426 163.927C219.409 164.63 219.533 165.33 219.79 165.986C220.047 166.641 220.432 167.239 220.922 167.744C221.156 167.98 221.418 168.187 221.701 168.361C223.926 169.732 227.581 171.08 230.884 169.029C234.188 166.978 235.496 163.117 237.226 159.377C238.955 155.638 243.568 143.79 243.568 143.79C243.568 143.79 248.208 132.963 249.506 131.085C250.803 129.206 256.135 118.229 257.773 115.071C259.272 112.19 262.575 104.008 263.18 102.561C263.791 100.959 264.731 97.9688 264.051 94.9552Z" fill="#E0E0E0"/>
<path d="M66.3376 26.707C65.5851 25.7819 64.5434 25.1364 63.3797 24.8741C62.2161 24.6119 60.998 24.748 59.9211 25.2606C60.6936 22.7022 58.8257 19.7692 56.2372 19.0835C53.6487 18.3978 50.7661 19.7577 49.3652 22.0626C48.7827 23.0745 48.4178 24.1967 48.2937 25.3575C48.1696 26.5184 48.2891 27.6923 48.6446 28.8044C47.789 29.4743 47.1201 30.3527 46.7019 31.3553C46.2837 32.358 46.1303 33.4512 46.2565 34.5301C46.3827 35.6091 46.7842 36.6375 47.4224 37.5167C48.0607 38.3959 48.9143 39.0964 49.9014 39.551C53.7813 41.2797 58.9583 38.5023 59.6155 34.3016C60.6486 34.9208 61.8658 35.1591 63.0563 34.9754C64.2467 34.7917 65.3354 34.1975 66.1335 33.2958C66.9316 32.394 67.389 31.2416 67.4263 30.0382C67.4635 28.8348 67.0784 27.6563 66.3376 26.707Z" fill="#F5F5F5"/>
<path d="M179.252 23.6184C179.388 22.8015 179.244 21.9628 178.845 21.2374C178.445 20.512 177.813 19.9421 177.05 19.6194C178.739 18.8472 179.408 16.5308 178.578 14.8713C178.121 14.0592 177.423 13.4096 176.58 13.0129C175.737 12.6163 174.791 12.4925 173.874 12.6586C173.081 12.8207 172.33 13.1462 171.67 13.6145C171.01 14.0828 170.455 14.6836 170.04 15.3784C169.298 15.2389 168.532 15.293 167.817 15.5353C167.102 15.7777 166.462 16.2001 165.958 16.7619C165.454 17.3236 165.103 18.0058 164.94 18.7425C164.776 19.4792 164.805 20.2456 165.024 20.9677C165.895 23.7913 169.729 25.1973 172.213 23.6069C172.373 24.423 172.811 25.1584 173.453 25.6871C174.095 26.2159 174.901 26.505 175.733 26.505C176.565 26.505 177.371 26.2159 178.013 25.6871C178.655 25.1584 179.093 24.423 179.252 23.6069V23.6184Z" fill="#F5F5F5"/>
<path d="M81.5342 102.838C80.8402 103.404 80.3562 104.186 80.1597 105.059C79.9632 105.933 80.0655 106.847 80.4504 107.655C78.5306 107.079 76.3284 108.473 75.8383 110.41C75.6202 111.398 75.7175 112.43 76.1167 113.36C76.5159 114.29 77.1968 115.072 78.0637 115.596C78.8227 116.032 79.6644 116.305 80.535 116.397C81.4057 116.489 82.286 116.399 83.1196 116.131C83.62 116.778 84.2788 117.284 85.0323 117.6C85.7859 117.917 86.6085 118.034 87.4205 117.939C88.2325 117.845 89.0062 117.542 89.6668 117.061C90.3274 116.58 90.8523 115.936 91.1907 115.192C92.5052 112.311 90.4067 108.398 87.2532 107.909C87.717 107.135 87.8958 106.224 87.7585 105.333C87.6212 104.441 87.1765 103.626 86.5014 103.028C85.8262 102.429 84.9631 102.086 84.0613 102.056C83.1595 102.027 82.2758 102.314 81.5631 102.867L81.5342 102.838Z" fill="#F5F5F5"/>
<path d="M103.447 26.4246C105.791 26.4246 107.69 24.5258 107.69 22.1835C107.69 19.8413 105.791 17.9425 103.447 17.9425C101.104 17.9425 99.2041 19.8413 99.2041 22.1835C99.2041 24.5258 101.104 26.4246 103.447 26.4246Z" fill="#F5F5F5"/>
<path d="M282.776 262.85C282.776 262.931 223.719 263 150.883 263C78.0465 263 18.9775 262.931 18.9775 262.85C18.9775 262.77 78.0235 262.7 150.883 262.7C223.742 262.7 282.776 262.77 282.776 262.85Z" fill="#263238"/>
<path d="M254.199 178.485H247.113V188.068H254.199V178.485Z" fill="#E0E0E0"/>
<path d="M254.204 188.067C254.179 187.826 254.168 187.584 254.17 187.341C254.17 186.84 254.17 186.189 254.135 185.359C254.135 183.631 254.095 181.274 254.066 178.485L254.204 178.617H247.113C247.084 178.617 247.401 178.335 247.263 178.468V181.101C247.263 181.954 247.263 182.789 247.263 183.596C247.263 185.204 247.263 186.702 247.263 188.056L247.136 187.935L252.256 187.998L253.697 188.027C254.031 188.027 254.216 188.027 254.227 188.027C254.069 188.05 253.909 188.06 253.749 188.056L252.331 188.085L247.142 188.148H247.021V188.021C247.021 186.667 247.021 185.169 247.021 183.561C247.021 182.755 247.021 181.919 247.021 181.066C247.021 180.634 247.021 180.202 247.021 179.764V178.445L247.171 178.295H254.262H254.4V178.433C254.4 181.262 254.354 183.659 254.337 185.4C254.337 186.206 254.308 186.857 254.297 187.347C254.281 187.589 254.25 187.83 254.204 188.067Z" fill="#263238"/>
<path d="M250.659 209.906C257.32 209.906 262.719 204.509 262.719 197.852C262.719 191.194 257.32 185.797 250.659 185.797C243.998 185.797 238.598 191.194 238.598 197.852C238.598 204.509 243.998 209.906 250.659 209.906Z" fill="#E0E0E0"/>
<path d="M262.719 197.852C262.701 197.788 262.691 197.722 262.69 197.656L262.65 197.079C262.639 196.77 262.602 196.461 262.541 196.158C262.487 195.738 262.4 195.324 262.281 194.919C261.998 193.795 261.547 192.721 260.944 191.732C260.149 190.421 259.112 189.274 257.888 188.35C256.41 187.225 254.688 186.465 252.861 186.131C250.765 185.745 248.603 185.926 246.6 186.656C246.067 186.849 245.547 187.078 245.044 187.341C244.536 187.62 244.048 187.933 243.585 188.281C243.11 188.634 242.66 189.019 242.236 189.433C241.82 189.867 241.435 190.329 241.083 190.816C240.343 191.81 239.769 192.917 239.382 194.095C238.565 196.525 238.565 199.155 239.382 201.586C239.769 202.763 240.343 203.87 241.083 204.864C241.436 205.35 241.821 205.812 242.236 206.247C242.661 206.661 243.114 207.046 243.591 207.4C244.053 207.749 244.54 208.063 245.049 208.339C245.552 208.602 246.072 208.831 246.606 209.025C248.48 209.708 250.496 209.912 252.469 209.616C254.442 209.32 256.309 208.534 257.9 207.331C259.121 206.405 260.155 205.258 260.949 203.948C261.552 202.958 262.005 201.884 262.293 200.762C262.407 200.355 262.492 199.941 262.546 199.523C262.608 199.219 262.644 198.911 262.656 198.601C262.656 198.364 262.685 198.174 262.696 198.025C262.698 197.958 262.707 197.892 262.725 197.829C262.731 197.894 262.731 197.959 262.725 198.025C262.725 198.169 262.725 198.359 262.725 198.601C262.725 198.912 262.698 199.222 262.644 199.528C262.601 199.953 262.524 200.373 262.414 200.785C262.145 201.926 261.704 203.02 261.105 204.029C259.672 206.471 257.428 208.334 254.763 209.293C252.098 210.252 249.181 210.247 246.519 209.278C245.973 209.083 245.442 208.85 244.928 208.581C244.406 208.299 243.905 207.979 243.429 207.624C242.944 207.271 242.482 206.886 242.046 206.472C241.612 206.029 241.212 205.555 240.847 205.054C240.091 204.036 239.507 202.901 239.117 201.695C238.711 200.452 238.497 199.154 238.483 197.846C238.5 196.538 238.713 195.241 239.117 193.997C239.509 192.791 240.093 191.657 240.847 190.637C241.212 190.139 241.613 189.667 242.046 189.226C242.48 188.81 242.942 188.425 243.429 188.073C243.905 187.718 244.406 187.398 244.928 187.117C245.442 186.847 245.973 186.614 246.519 186.419C249.182 185.458 252.096 185.456 254.76 186.414C257.423 187.373 259.667 189.231 261.105 191.669C261.703 192.678 262.144 193.772 262.414 194.913C262.524 195.325 262.601 195.745 262.644 196.169C262.698 196.475 262.725 196.786 262.725 197.097C262.725 197.339 262.725 197.529 262.725 197.673C262.729 197.733 262.727 197.792 262.719 197.852Z" fill="#263238"/>
<path d="M262.633 260.493C253.789 262.683 245.695 262.965 238.685 260.493V198.52H262.633V260.493Z" fill="#FF3E79"/>
<path d="M253.997 184.126C253.997 184.161 253.685 184.166 253.282 183.907C253.016 183.736 252.797 183.5 252.647 183.222C252.497 182.944 252.42 182.632 252.423 182.316C252.427 182 252.511 181.689 252.667 181.414C252.823 181.139 253.047 180.909 253.316 180.744C253.726 180.49 254.037 180.507 254.037 180.536C254.037 180.565 253.772 180.646 253.461 180.916C253.24 181.078 253.06 181.289 252.935 181.532C252.81 181.775 252.743 182.043 252.74 182.317C252.736 182.59 252.797 182.86 252.916 183.106C253.035 183.352 253.21 183.567 253.426 183.734C253.732 184.011 254.008 184.08 253.997 184.126Z" fill="#263238"/>
<path d="M261.053 196.382C261.001 196.382 260.996 195.869 260.852 195.069C260.474 192.97 259.407 191.058 257.819 189.635C257.214 189.093 256.781 188.816 256.81 188.776C257.234 188.935 257.625 189.172 257.963 189.473C259.682 190.855 260.795 192.852 261.065 195.04C261.14 195.484 261.136 195.939 261.053 196.382Z" fill="white"/>
<path d="M246.773 211.387V216.325H246.254V214.049H243.164V216.325H242.645V211.387H243.164V213.588H246.254V211.387H246.773Z" fill="white"/>
<path d="M251.472 215.006H248.722L248.145 216.325H247.603L249.863 211.387H250.376L252.636 216.325H252.06L251.472 215.006ZM251.281 214.585L250.1 211.935L248.912 214.585H251.281Z" fill="white"/>
<path d="M253.432 211.387H253.956V216.325H253.432V211.387Z" fill="white"/>
<path d="M258.932 216.326L257.807 214.741C257.675 214.741 257.548 214.741 257.41 214.741H256.084V216.308H255.559V211.37H257.41C258.666 211.37 259.427 212.01 259.427 213.064C259.443 213.416 259.337 213.762 259.127 214.045C258.917 214.327 258.616 214.528 258.274 214.614L259.479 216.308L258.932 216.326ZM258.903 213.082C258.903 212.292 258.384 211.843 257.398 211.843H256.084V214.315H257.398C258.384 214.315 258.903 213.859 258.903 213.082Z" fill="white"/>
<path d="M246.393 209.987L246.473 209.82C246.655 209.983 246.892 210.072 247.136 210.068C247.511 210.068 247.672 209.906 247.672 209.711C247.672 209.134 246.439 209.497 246.439 208.754C246.439 208.46 246.669 208.207 247.177 208.207C247.398 208.201 247.615 208.264 247.799 208.385L247.73 208.552C247.558 208.443 247.358 208.385 247.154 208.385C246.79 208.385 246.623 208.547 246.623 208.748C246.623 209.324 247.863 208.967 247.863 209.699C247.863 209.993 247.626 210.246 247.113 210.246C246.85 210.248 246.595 210.156 246.393 209.987Z" fill="white"/>
<path d="M249.915 208.91C249.915 209.336 249.609 209.595 249.096 209.595H248.56V210.229H248.347V208.224H249.096C249.609 208.224 249.915 208.477 249.915 208.91ZM249.707 208.91C249.707 208.587 249.494 208.408 249.091 208.408H248.56V209.411H249.091C249.494 209.411 249.707 209.227 249.707 208.91Z" fill="white"/>
<path d="M251.766 210.229L251.31 209.584H250.613V210.223H250.405V208.218H251.154C251.668 208.218 251.973 208.472 251.973 208.904C251.98 209.045 251.939 209.185 251.856 209.3C251.773 209.415 251.654 209.499 251.518 209.538L252.008 210.223L251.766 210.229ZM251.766 208.909C251.766 208.587 251.558 208.408 251.154 208.408H250.613V209.411H251.149C251.523 209.411 251.731 209.226 251.731 208.909H251.766Z" fill="white"/>
<path d="M253.703 209.693H252.584L252.348 210.229H252.123L253.045 208.224H253.253L254.17 210.229H253.945L253.703 209.693ZM253.628 209.52L253.149 208.443L252.665 209.52H253.628Z" fill="white"/>
<path d="M255.069 209.538V210.229H254.861V209.538L254.072 208.224H254.296L254.988 209.348L255.674 208.224H255.888L255.069 209.538Z" fill="white"/>
<path d="M262.633 216.326C262.619 216.445 262.588 216.561 262.541 216.671C262.438 216.997 262.307 217.314 262.149 217.616C261.545 218.725 260.766 219.729 259.843 220.59C258.504 221.889 257.009 223.018 255.392 223.949C253.57 225.027 251.356 225.776 249.143 226.692C247.018 227.462 245.007 228.514 243.164 229.821C241.683 230.918 240.482 232.35 239.659 233.999C239.108 235.111 238.792 236.325 238.731 237.565C238.731 238.441 238.794 238.925 238.731 238.931C238.693 238.817 238.67 238.699 238.662 238.58C238.614 238.242 238.589 237.901 238.587 237.56C238.606 236.295 238.897 235.049 239.44 233.906C240.253 232.209 241.463 230.732 242.968 229.602C244.823 228.267 246.855 227.194 249.004 226.415C251.241 225.493 253.426 224.756 255.225 223.707C256.83 222.799 258.32 221.702 259.664 220.44C260.583 219.6 261.374 218.629 262.01 217.559C262.174 217.265 262.318 216.961 262.443 216.648C262.497 216.536 262.561 216.428 262.633 216.326Z" fill="white"/>
<path d="M262.633 221.154C262.584 221.571 262.455 221.974 262.252 222.341C261.692 223.342 260.902 224.196 259.946 224.831C258.553 225.786 257.034 226.545 255.432 227.084C253.645 227.729 251.633 228.271 249.569 228.956C247.614 229.548 245.759 230.428 244.064 231.567C242.694 232.515 241.52 233.718 240.605 235.11C239.989 236.051 239.544 237.093 239.29 238.188C239.222 238.484 239.17 238.784 239.134 239.086C239.128 239.194 239.109 239.3 239.077 239.403C239.062 239.296 239.062 239.188 239.077 239.081C239.084 238.773 239.119 238.466 239.181 238.164C239.388 237.041 239.809 235.967 240.42 235.001C241.321 233.566 242.497 232.323 243.879 231.342C245.587 230.172 247.466 229.272 249.448 228.674C251.529 227.983 253.541 227.447 255.317 226.824C256.901 226.303 258.409 225.574 259.802 224.658C260.739 224.049 261.527 223.238 262.108 222.284C262.311 221.921 262.486 221.543 262.633 221.154Z" fill="white"/>
<path d="M258.839 247.522C258.832 247.407 258.832 247.292 258.839 247.177C258.839 246.929 258.839 246.6 258.839 246.203C258.839 245.344 258.805 244.134 258.782 242.63L258.88 242.728C255.127 242.763 249.362 242.78 242.916 242.78L243.066 242.63V245.12C243.066 245.938 243.066 246.739 243.066 247.511L242.922 247.367L254.291 247.436L257.646 247.476H258.557H258.885C258.788 247.491 258.689 247.491 258.591 247.476H257.715L254.394 247.517L242.922 247.586H242.778V247.436C242.778 246.664 242.778 245.863 242.778 245.045V242.642C243.078 242.342 242.864 242.561 242.928 242.492C249.373 242.492 255.138 242.492 258.891 242.55H258.989V242.642C258.989 244.169 258.949 245.396 258.937 246.272C258.937 246.664 258.937 246.981 258.937 247.223C258.912 247.325 258.879 247.425 258.839 247.522Z" fill="#263238"/>
<path d="M262.633 260.493C262.633 260.493 262.633 260.39 262.633 260.188C262.633 259.986 262.633 259.681 262.633 259.289C262.633 258.494 262.633 257.336 262.633 255.832C262.633 252.812 262.633 248.427 262.592 242.924C262.592 231.918 262.558 216.418 262.529 198.52L262.673 198.664H238.685L238.834 198.514V198.682C238.834 222.981 238.8 244.924 238.788 260.488L238.719 260.39C241.918 261.481 245.267 262.065 248.647 262.118C251.191 262.171 253.736 262.018 256.257 261.663C258.332 261.381 259.917 261.035 260.995 260.822L262.212 260.551L262.633 260.465L262.229 260.574L261.013 260.879C259.935 261.11 258.349 261.456 256.274 261.778C253.749 262.154 251.199 262.324 248.647 262.285C245.245 262.233 241.872 261.649 238.65 260.557H238.581V260.482C238.581 244.924 238.552 222.975 238.535 198.676V198.388H262.777V198.532C262.777 216.487 262.731 231.993 262.713 243.022C262.713 248.514 262.685 252.887 262.673 255.901C262.673 257.388 262.673 258.54 262.673 259.329C262.673 259.715 262.673 260.009 262.673 260.211C262.665 260.306 262.651 260.4 262.633 260.493Z" fill="#263238"/>
<path d="M262.402 260.182H239.025C238.302 260.182 237.716 260.768 237.716 261.49V261.542C237.716 262.264 238.302 262.85 239.025 262.85H262.402C263.125 262.85 263.711 262.264 263.711 261.542V261.49C263.711 260.768 263.125 260.182 262.402 260.182Z" fill="#E0E0E0"/>
<path d="M262.408 262.85C262.591 262.828 262.769 262.779 262.938 262.706C263.172 262.59 263.365 262.407 263.492 262.179C263.62 261.952 263.676 261.692 263.653 261.433C263.643 261.249 263.592 261.07 263.504 260.909C263.416 260.748 263.294 260.608 263.146 260.499C262.978 260.373 262.778 260.295 262.569 260.274C262.362 260.274 262.108 260.274 261.86 260.274H258.499L239.025 260.32C238.815 260.32 238.608 260.378 238.429 260.487C238.249 260.595 238.102 260.751 238.004 260.937C237.908 261.122 237.86 261.328 237.865 261.537C237.87 261.746 237.928 261.95 238.033 262.13C238.137 262.309 238.287 262.457 238.467 262.559C238.648 262.66 238.852 262.711 239.059 262.706H245.585L254.337 262.741L260.24 262.787L261.849 262.815H262.264H262.408H262.264H261.849L260.24 262.844L254.337 262.89L245.585 262.925H240.397H239.082C238.826 262.93 238.572 262.867 238.347 262.743C238.122 262.618 237.935 262.437 237.803 262.216C237.67 261.992 237.597 261.738 237.59 261.478C237.583 261.218 237.642 260.96 237.762 260.73C237.896 260.517 238.083 260.342 238.304 260.222C238.525 260.102 238.773 260.041 239.025 260.044L258.499 260.09H261.86C262.114 260.09 262.339 260.09 262.587 260.09C262.82 260.12 263.04 260.212 263.227 260.355C263.515 260.582 263.704 260.911 263.756 261.273C263.807 261.636 263.717 262.005 263.503 262.303C263.364 262.49 263.177 262.637 262.961 262.729C262.793 262.824 262.6 262.866 262.408 262.85Z" fill="#263238"/>
<path d="M262.633 198.52H238.598V172.953C238.597 172.586 238.669 172.222 238.809 171.883C238.949 171.544 239.154 171.235 239.413 170.975C239.672 170.715 239.98 170.509 240.319 170.368C240.658 170.226 241.021 170.153 241.388 170.153H259.837C260.577 170.153 261.286 170.446 261.81 170.969C262.333 171.492 262.627 172.202 262.627 172.942L262.633 198.52Z" fill="#F5F5F5"/>
<path d="M262.633 198.52C262.633 198.52 262.633 198.422 262.633 198.249C262.633 198.076 262.633 197.794 262.633 197.46C262.633 196.763 262.633 195.731 262.604 194.464C262.604 191.859 262.604 188.125 262.552 183.515C262.552 181.21 262.552 178.675 262.552 175.961C262.552 175.287 262.552 174.595 262.552 173.892C262.626 173.2 262.54 172.5 262.298 171.847C261.993 171.208 261.448 170.715 260.782 170.475C260.442 170.356 260.082 170.304 259.721 170.32H243.839C242.98 170.32 242.109 170.32 241.244 170.32C240.827 170.343 240.422 170.465 240.061 170.676C239.701 170.886 239.395 171.179 239.169 171.53C238.853 172.038 238.706 172.633 238.748 173.23V178.727C238.748 181.135 238.748 183.481 238.748 185.763C238.748 190.326 238.748 194.613 238.748 198.52L238.621 198.393L256.026 198.463L260.909 198.491H262.206H262.656C262.656 198.491 262.517 198.491 262.235 198.491H260.961L256.107 198.526L238.621 198.589H238.494V198.463C238.494 194.556 238.494 190.269 238.494 185.705V178.727C238.494 177.523 238.494 176.307 238.494 175.079V173.23C238.449 172.573 238.615 171.919 238.967 171.363C239.219 170.973 239.559 170.649 239.959 170.415C240.36 170.182 240.81 170.047 241.273 170.02C242.167 170.02 243.003 170.02 243.885 170.02H248.969H258.58H259.733C260.124 170.008 260.515 170.067 260.886 170.193C261.249 170.325 261.583 170.527 261.868 170.788C262.153 171.049 262.383 171.364 262.546 171.714C262.707 172.056 262.799 172.426 262.817 172.803C262.817 173.172 262.817 173.523 262.817 173.875C262.817 174.584 262.817 175.275 262.817 175.961C262.817 178.692 262.817 181.233 262.817 183.556C262.817 188.165 262.777 191.922 262.76 194.504C262.76 195.783 262.76 196.78 262.76 197.471C262.76 197.8 262.76 198.048 262.76 198.238C262.73 198.337 262.687 198.432 262.633 198.52Z" fill="#263238"/>
<path d="M240.991 197.552C240.904 197.552 240.841 192.28 240.841 185.78C240.841 179.28 240.904 174.002 240.991 174.002C241.077 174.002 241.141 179.274 241.141 185.78C241.141 192.285 241.071 197.552 240.991 197.552Z" fill="white"/>
<path d="M240.068 226.214C239.982 226.214 239.918 221.154 239.918 214.908C239.918 208.662 239.982 203.597 240.068 203.597C240.155 203.597 240.218 208.662 240.218 214.908C240.218 221.154 240.149 226.214 240.068 226.214Z" fill="white"/>
<path d="M239.469 256.771C239.388 256.771 239.319 253.527 239.319 249.528C239.319 245.529 239.388 242.285 239.469 242.285C239.549 242.285 239.619 245.529 239.619 249.528C239.619 253.527 239.555 256.771 239.469 256.771Z" fill="white"/>
<path d="M62.9475 58.9872C63.0455 58.8892 63.1551 58.797 63.2646 58.7048L62.9475 58.9872Z" fill="#F5F5F5"/>
<path d="M122.812 66.7834C124.246 64.9345 125.067 62.6844 125.16 60.3469C125.253 58.0094 124.614 55.7011 123.332 53.7439C122.05 51.7868 120.189 50.2784 118.008 49.4292C115.827 48.5801 113.436 48.4324 111.167 49.0068C110.522 46.563 109.102 44.3938 107.119 42.8244C105.137 41.2551 102.7 40.37 100.172 40.3019C97.6439 40.2337 95.1621 40.9862 93.0981 42.4465C91.0341 43.9067 89.4992 45.9962 88.7233 48.4018C82.5489 46.2467 74.962 50.2284 73.2268 56.5323C69.8311 55.4951 65.6572 54.6942 63.2762 57.9729C61.8292 59.2982 61.8868 61.1191 62.0598 62.7095C60.0536 63.0149 58.0646 62.4675 56.0583 62.7729C56.2133 64.2298 56.914 65.5743 58.0197 66.5362C59.1255 67.4982 60.5543 68.0064 62.0194 67.9589C61.2469 70.6211 60.7338 73.5368 61.7427 76.1125C62.7516 78.6883 65.8186 80.6359 68.361 79.5353C67.969 82.9927 68.0728 86.5768 69.4622 89.7518C70.8515 92.9268 73.7168 95.612 77.1585 96.0442C80.6003 96.4763 84.3764 94.1599 84.9183 90.7371C85.9676 94.6439 88.3485 98.303 91.8364 100.326C95.3243 102.348 100.011 102.498 103.367 100.205C106.722 97.9112 108.203 93.0651 106.249 89.5098C107.64 90.0157 109.131 90.1844 110.6 90.0019C112.069 89.8194 113.474 89.291 114.699 88.4601C115.923 87.6292 116.933 86.5196 117.645 85.2224C118.357 83.9253 118.751 82.4778 118.794 80.9989C118.875 78.0544 117.578 75.0062 118.586 72.2345C119.388 70.0564 121.394 68.6101 122.812 66.7834Z" fill="#F5F5F5"/>
<path d="M64.4811 66.334C64.4811 66.4205 64.1582 66.4838 63.7604 66.4838C63.3626 66.4838 63.0398 66.4205 63.0398 66.334C63.0398 66.2476 63.3626 66.1842 63.7604 66.1842C64.1582 66.1842 64.4811 66.2533 64.4811 66.334Z" fill="#263238"/>
<path d="M70.7422 66.3339C70.2338 66.4836 69.7015 66.5344 69.1741 66.4837C68.6466 66.5344 68.1143 66.4836 67.606 66.3339C68.1149 66.1877 68.6466 66.1369 69.1741 66.1841C69.7015 66.1369 70.2332 66.1877 70.7422 66.3339Z" fill="#263238"/>
<path d="M77.0376 66.334C76.5294 66.4842 75.9969 66.5351 75.4695 66.4838C74.942 66.5345 74.4097 66.4836 73.9014 66.334C74.4103 66.1877 74.942 66.1369 75.4695 66.1842C75.9969 66.1364 76.5287 66.1872 77.0376 66.334Z" fill="#263238"/>
<path d="M83.3214 66.334C82.8112 66.4838 82.2769 66.5347 81.7475 66.4838C81.2201 66.5345 80.6878 66.4836 80.1794 66.334C80.6884 66.1877 81.2201 66.1369 81.7475 66.1842C82.2769 66.1366 82.8105 66.1874 83.3214 66.334Z" fill="#263238"/>
<path d="M89.5995 66.334C89.0892 66.4839 88.555 66.5347 88.0256 66.4838C87.4981 66.5345 86.9658 66.4837 86.4575 66.334C87.4953 66.1343 88.5617 66.1343 89.5995 66.334Z" fill="#263238"/>
<path d="M94.1771 66.334C94.1771 66.4205 93.8543 66.4838 93.4565 66.4838C93.0587 66.4838 92.7358 66.4205 92.7358 66.334C92.7358 66.2476 93.0587 66.1842 93.4565 66.1842C93.8543 66.1842 94.1771 66.2533 94.1771 66.334Z" fill="#263238"/>
<path d="M64.1237 63.6142C64.1237 63.6948 63.8643 63.8619 63.4896 63.9887C63.1149 64.1155 62.7805 64.1558 62.7574 64.0752C62.7344 63.9945 63.0168 63.8274 63.3916 63.7064C63.7663 63.5854 64.0949 63.5508 64.1237 63.6142Z" fill="#263238"/>
<path d="M69.3237 61.8682C68.9524 62.1469 68.5259 62.3433 68.0727 62.4444C67.6496 62.6388 67.1893 62.7391 66.7236 62.7383C67.0933 62.4567 67.5204 62.26 67.9747 62.162C68.3997 61.9734 68.8587 61.8734 69.3237 61.8682Z" fill="#263238"/>
<path d="M74.5239 60.1223C74.1508 60.4018 73.7223 60.5982 73.2671 60.6985C72.8461 60.893 72.3876 60.9933 71.9238 60.9924C72.2935 60.7109 72.7206 60.5141 73.1748 60.4162C73.5998 60.2275 74.0589 60.1275 74.5239 60.1223Z" fill="#263238"/>
<path d="M79.7241 58.3647C79.351 58.6442 78.9225 58.8407 78.4673 58.941C78.0463 59.1354 77.5878 59.2357 77.124 59.2348C77.4936 58.9533 77.9208 58.7566 78.375 58.6586C78.8 58.47 79.2591 58.37 79.7241 58.3647Z" fill="#263238"/>
<path d="M84.9183 56.6361C84.1286 57.1155 83.2427 57.4145 82.324 57.512C82.6936 57.2304 83.1207 57.0337 83.575 56.9357C83.9978 56.7457 84.4548 56.6438 84.9183 56.6361Z" fill="#263238"/>
<path d="M90.1186 54.9075C89.3274 55.3882 88.4394 55.6873 87.5186 55.7833C87.8916 55.5039 88.3201 55.3074 88.7753 55.2071C89.1981 55.0171 89.6551 54.9151 90.1186 54.9075Z" fill="#263238"/>
<path d="M95.3186 53.1384C94.5274 53.6191 93.6394 53.9183 92.7185 54.0143C93.0906 53.7333 93.5195 53.5366 93.9753 53.4381C94.3976 53.2466 94.8549 53.1446 95.3186 53.1384Z" fill="#263238"/>
<path d="M100.519 51.3925C100.149 51.674 99.722 51.8707 99.2677 51.9687C98.8448 52.1634 98.3844 52.2637 97.9187 52.2626C98.2892 51.9825 98.716 51.7859 99.1697 51.6863C99.5946 51.4972 100.054 51.3972 100.519 51.3925Z" fill="#263238"/>
<path d="M104.485 50.0614C104.514 50.1421 104.226 50.3092 103.851 50.4359C103.476 50.5627 103.148 50.603 103.119 50.5224C103.09 50.4417 103.378 50.2746 103.753 50.1478C104.128 50.021 104.462 49.9865 104.485 50.0614Z" fill="#263238"/>
<path d="M64.5676 69.3131C64.533 69.388 64.2159 69.3131 63.8585 69.1287C63.501 68.9443 63.2416 68.7484 63.282 68.6792C63.3223 68.6101 63.6394 68.6792 63.9968 68.8579C64.3543 69.0365 64.6079 69.2382 64.5676 69.3131Z" fill="#263238"/>
<path d="M69.9003 71.9349C69.4031 71.858 68.9266 71.6816 68.4994 71.4163C68.0303 71.2395 67.6011 70.9711 67.2368 70.6268C67.732 70.7041 68.2066 70.8805 68.632 71.1454C69.1011 71.3255 69.5316 71.5934 69.9003 71.9349Z" fill="#263238"/>
<path d="M75.2272 74.5625C74.7321 74.4815 74.2579 74.3032 73.832 74.0381C73.3604 73.863 72.929 73.5945 72.5637 73.2487C73.0605 73.3301 73.5365 73.5083 73.9646 73.773C74.4337 73.9498 74.8629 74.2181 75.2272 74.5625Z" fill="#263238"/>
<path d="M80.5428 77.1844C80.0456 77.1076 79.5691 76.9312 79.1419 76.6658C78.6714 76.4882 78.2405 76.22 77.8735 75.8763C78.3707 75.9532 78.8472 76.1296 79.2745 76.3949C79.7449 76.5725 80.1758 76.8408 80.5428 77.1844Z" fill="#263238"/>
<path d="M85.8868 79.812C85.39 79.7305 84.9141 79.5524 84.4859 79.2876C84.0168 79.1108 83.5876 78.8425 83.2234 78.4982C83.7185 78.5792 84.1927 78.7574 84.6185 79.0225C85.0902 79.1976 85.5216 79.4661 85.8868 79.812Z" fill="#263238"/>
<path d="M89.8418 81.7596C89.8072 81.8345 89.4901 81.7596 89.1327 81.5752C88.7752 81.3908 88.5158 81.1949 88.5561 81.1258C88.5965 81.0566 88.9136 81.1258 89.271 81.3044C89.6285 81.483 89.8821 81.6847 89.8418 81.7596Z" fill="#263238"/>
<path d="M60.4572 61.9143H53.0952V71.8715H60.4572V61.9143Z" fill="#E0E0E0"/>
<path d="M60.4571 71.8715C60.4507 71.8045 60.4507 71.7369 60.4571 71.6699C60.4571 71.5143 60.4571 71.3356 60.4571 71.0936C60.4571 70.5808 60.4571 69.8951 60.4168 69.0423C60.4168 67.2617 60.3764 64.8012 60.3534 61.8971L60.486 62.0296H53.124C53.0894 62.0296 53.4122 61.7472 53.2739 61.8798V64.588C53.2739 65.4754 53.2739 66.3455 53.2739 67.1811C53.2739 68.8521 53.2739 70.4137 53.2739 71.8197L53.1528 71.6929L58.4682 71.7563L59.9671 71.7909C60.1598 71.7834 60.3527 71.7931 60.5436 71.8197C60.3785 71.8307 60.2129 71.8307 60.0478 71.8197L58.5777 71.8543L53.1816 71.9176H53.0605V71.7966C53.0605 70.3906 53.0605 68.8291 53.0605 67.158C53.0605 66.3225 53.0605 65.4293 53.0605 64.565V61.8567L53.2104 61.7069H60.5724H60.7108V61.8452C60.682 64.784 60.6589 67.2732 60.6416 69.0768C60.6416 69.9181 60.6416 70.5981 60.607 71.0994C60.5762 71.3601 60.5261 71.6182 60.4571 71.8715Z" fill="#263238"/>
<path d="M56.7731 94.5518C63.6919 94.5518 69.3006 88.9458 69.3006 82.0304C69.3006 75.1151 63.6919 69.509 56.7731 69.509C49.8544 69.509 44.2456 75.1151 44.2456 82.0304C44.2456 88.9458 49.8544 94.5518 56.7731 94.5518Z" fill="#E0E0E0"/>
<path d="M69.3006 82.0304C69.2947 81.9633 69.2947 81.8958 69.3006 81.8287C69.3006 81.6789 69.3006 81.483 69.2545 81.2525C69.2545 81.12 69.2545 80.9759 69.2545 80.8146C69.2545 80.6532 69.2026 80.4804 69.1738 80.296C69.1147 79.8602 69.0261 79.429 68.9086 79.0052C68.6121 77.839 68.1418 76.724 67.5134 75.6977C65.8652 72.9715 63.2352 70.9795 60.1635 70.1308C57.0919 69.2821 53.8117 69.641 50.9965 71.134C50.446 71.4149 49.9162 71.7345 49.4111 72.0905C48.919 72.4577 48.4511 72.8561 48.0102 73.2833C47.5746 73.7336 47.1701 74.213 46.7995 74.7181C46.0289 75.752 45.4312 76.9041 45.0296 78.1294C44.1764 80.6601 44.1764 83.4007 45.0296 85.9315C45.4299 87.1572 46.0278 88.3095 46.7995 89.3427C47.1701 89.8478 47.5746 90.3272 48.0102 90.7775C48.4511 91.2047 48.919 91.6031 49.4111 91.9703C50.3607 92.6952 51.4192 93.2651 52.5473 93.6586C54.6298 94.4156 56.8763 94.6046 59.0561 94.2061C60.7864 93.8795 62.4283 93.1919 63.8747 92.1881C65.3211 91.1842 66.5394 89.8868 67.45 88.3804C68.0784 87.3541 68.5487 86.2391 68.8452 85.0729C68.9626 84.6511 69.0512 84.2217 69.1104 83.7879C69.1104 83.5977 69.1738 83.4249 69.1911 83.2635C69.2084 83.1022 69.1911 82.9581 69.1911 82.8256C69.1911 82.5778 69.2257 82.3819 69.2372 82.2494C69.2313 82.1823 69.2313 82.1148 69.2372 82.0477C69.2435 82.1148 69.2435 82.1823 69.2372 82.2494C69.2372 82.3992 69.2372 82.6009 69.2372 82.8256C69.2372 82.9581 69.2372 83.1022 69.2372 83.2635C69.2372 83.4249 69.1911 83.6035 69.168 83.7937C69.1201 84.2332 69.0391 84.6685 68.9259 85.0959C68.6479 86.2808 68.189 87.4158 67.5653 88.4611C66.0748 90.9941 63.7444 92.9259 60.9782 93.9216C58.2121 94.9172 55.1845 94.9139 52.4205 93.9122C51.8553 93.7094 51.3044 93.4688 50.7717 93.1919C50.2293 92.8978 49.709 92.5646 49.2151 92.195C48.7072 91.8235 48.2256 91.4172 47.7738 90.9792C47.3268 90.5174 46.9108 90.0265 46.5286 89.5098C45.7542 88.4508 45.1565 87.2736 44.7587 86.0237C43.8822 83.4296 43.8822 80.6197 44.7587 78.0256C45.1715 76.782 45.7849 75.6141 46.5747 74.5683C46.9533 74.0503 47.3674 73.5594 47.8142 73.0989C48.2674 72.6625 48.7489 72.2564 49.2554 71.8831C50.2259 71.1413 51.3078 70.5579 52.4608 70.1544C54.591 69.3855 56.8886 69.2024 59.1137 69.6242C60.8704 69.9643 62.5352 70.672 63.9988 71.7008C65.4624 72.7297 66.6916 74.0565 67.6057 75.594C68.2284 76.6397 68.6872 77.7746 68.9662 78.9591C69.08 79.3884 69.161 79.8256 69.2084 80.2671C69.2084 80.4573 69.266 80.6302 69.2776 80.7915C69.2891 80.9529 69.2776 81.0969 69.2776 81.2294C69.2776 81.483 69.2776 81.6789 69.2776 81.8057C69.2931 81.8796 69.3008 81.9549 69.3006 82.0304Z" fill="#263238"/>
<path d="M69.2142 147.104C60.0304 149.38 51.6192 149.668 44.3379 147.104V82.7277H69.2142V147.104Z" fill="#FF3E79"/>
<path d="M60.2438 67.7746C60.2438 67.8092 59.921 67.815 59.5001 67.5441C59.2247 67.3665 58.9989 67.1218 58.8439 66.8332C58.6888 66.5445 58.6096 66.2212 58.6137 65.8936C58.6177 65.566 58.7048 65.2448 58.8669 64.96C59.029 64.6752 59.2608 64.4363 59.5405 64.2654C59.9671 64.0003 60.2899 64.0176 60.2899 64.0464C60.2899 64.0753 60.0132 64.1617 59.6673 64.4383C59.437 64.6058 59.2489 64.8246 59.118 65.0774C58.9871 65.3302 58.9168 65.61 58.9129 65.8947C58.909 66.1793 58.9715 66.461 59.0954 66.7173C59.2194 66.9736 59.4014 67.1975 59.6269 67.3713C59.9671 67.6594 60.2553 67.7285 60.2438 67.7746Z" fill="#263238"/>
<path d="M67.5711 80.5033C67.5192 80.5033 67.5135 79.9732 67.3693 79.1434C67.1731 78.0608 66.8012 77.0175 66.2682 76.0549C65.7263 75.0955 65.0333 74.2297 64.2158 73.4907C63.5874 72.9144 63.1378 72.6436 63.1666 72.6033C63.6047 72.7761 64.0073 73.0281 64.3542 73.3466C65.2356 74.0596 65.9732 74.9337 66.5276 75.9223C67.079 76.9072 67.4352 77.9892 67.5769 79.1089C67.6619 79.57 67.6599 80.0429 67.5711 80.5033Z" fill="white"/>
<path d="M52.7378 96.0903V101.219H52.2016V98.8562H48.9963V101.219H48.4543V96.0903H48.9963V98.3952H52.2016V96.0903H52.7378Z" fill="white"/>
<path d="M57.6206 99.8531H54.7669L54.15 101.224H53.5735L55.9199 96.0961H56.4503L58.7966 101.224H58.2201L57.6206 99.8531ZM57.4246 99.4151L56.1908 96.6608L54.9629 99.4151H57.4246Z" fill="white"/>
<path d="M59.6558 96.0903H60.1977V101.219H59.6558V96.0903Z" fill="white"/>
<path d="M65.369 101.219L64.216 99.5707C64.0797 99.5796 63.943 99.5796 63.8067 99.5707H62.4115V101.196H61.8696V96.0673H63.7894C65.0923 96.0673 65.8821 96.7299 65.8821 97.8248C65.9022 98.1847 65.7989 98.5407 65.5893 98.834C65.3796 99.1273 65.0762 99.3404 64.7291 99.4382L65.9801 101.196L65.369 101.219ZM65.3402 97.8478C65.3402 97.0296 64.7983 96.5628 63.7721 96.5628H62.4115V99.1328H63.7721C64.7983 99.1328 65.3402 98.6545 65.3402 97.8478Z" fill="white"/>
<path d="M52.3457 94.6325L52.4322 94.4654C52.6214 94.6322 52.866 94.7226 53.1182 94.7189C53.5045 94.7189 53.6947 94.5518 53.6947 94.3501C53.6947 93.7739 52.4091 94.1254 52.4091 93.359C52.4091 93.0536 52.6513 92.7828 53.1816 92.7828C53.4085 92.78 53.6311 92.8442 53.8216 92.9672L53.7524 93.1401C53.5801 93.0298 53.3804 92.9699 53.1759 92.9672C52.7896 92.9672 52.5994 93.1401 52.5994 93.3475C52.5994 93.9237 53.8792 93.5722 53.8792 94.3328C53.8792 94.6382 53.6371 94.9091 53.1067 94.9091C52.8279 94.9119 52.5576 94.8136 52.3457 94.6325Z" fill="white"/>
<path d="M56.0008 93.5146C56.0008 93.9583 55.6838 94.2233 55.1534 94.2233H54.5999V94.8802H54.3809V92.8H55.1764C55.6838 92.8058 56.0008 93.0709 56.0008 93.5146ZM55.7818 93.5146C55.7818 93.1804 55.5627 92.9902 55.1476 92.9902H54.5999V94.0274H55.1764C55.5627 94.0332 55.7818 93.843 55.7818 93.5146Z" fill="white"/>
<path d="M57.9032 94.886L57.4247 94.2176H56.7041V94.8802H56.4792V92.8H57.2575C57.7879 92.8 58.1108 93.0651 58.1108 93.5146C58.1171 93.6613 58.0731 93.8058 57.9861 93.9242C57.8991 94.0426 57.7743 94.1278 57.6323 94.1657L58.1454 94.8802L57.9032 94.886ZM57.9032 93.5203C57.9032 93.1861 57.6841 92.996 57.2633 92.996H56.7156V94.0389H57.2633C57.6726 94.0389 57.8917 93.843 57.8917 93.5146L57.9032 93.5203Z" fill="white"/>
<path d="M59.9382 94.3271H58.7851L58.5372 94.9033H58.3066L59.2579 92.8231H59.477L60.4282 94.9033H60.1918L59.9382 94.3271ZM59.8575 94.1542L59.3559 93.0363L58.8601 94.1542H59.8575Z" fill="white"/>
<path d="M61.3564 94.1657V94.886H61.1431V94.1657L60.3071 92.8058H60.5435L61.2584 93.9582L61.9732 92.8058H62.1923L61.3564 94.1657Z" fill="white"/>
<path d="M69.2143 101.219C69.1961 101.341 69.1632 101.461 69.1163 101.576C69.0122 101.916 68.8771 102.246 68.7127 102.561C68.0837 103.708 67.2783 104.748 66.326 105.644C64.9386 106.984 63.3893 108.145 61.7139 109.102C59.8172 110.254 57.54 111.003 55.2282 111.983C53.0197 112.781 50.9292 113.875 49.0135 115.233C47.4759 116.372 46.2295 117.859 45.3757 119.572C44.8066 120.728 44.4809 121.989 44.4187 123.277C44.4187 124.193 44.4821 124.694 44.4187 124.7C44.3811 124.582 44.3578 124.46 44.3495 124.337C44.2995 123.986 44.2725 123.631 44.2688 123.277C44.2876 121.962 44.5904 120.666 45.1566 119.479C46.0065 117.717 47.2681 116.186 48.8347 115.014C50.7617 113.627 52.8703 112.512 55.1014 111.7C57.4074 110.75 59.7134 109.972 61.564 108.894C63.2306 107.947 64.7788 106.806 66.1761 105.494C67.1307 104.623 67.9506 103.615 68.609 102.504C68.7813 102.197 68.9335 101.879 69.0644 101.553C69.1033 101.437 69.1535 101.325 69.2143 101.219Z" fill="white"/>
<path d="M69.2144 106.232C69.1638 106.665 69.0287 107.084 68.8166 107.465C68.2315 108.504 67.4099 109.39 66.4183 110.052C64.97 111.041 63.393 111.826 61.7313 112.386C59.8749 113.06 57.7822 113.619 55.6376 114.334C53.6056 114.946 51.6776 115.861 49.9186 117.048C48.4987 118.035 47.2814 119.284 46.3328 120.73C45.6971 121.707 45.2367 122.787 44.9722 123.922C44.8988 124.232 44.8411 124.546 44.7993 124.861C44.7937 124.973 44.7743 125.083 44.7416 125.19C44.7264 125.079 44.7264 124.966 44.7416 124.856C44.7514 124.534 44.788 124.214 44.8511 123.899C45.0699 122.725 45.5122 121.604 46.154 120.597C47.0919 119.106 48.3166 117.815 49.7572 116.8C51.5252 115.584 53.4696 114.648 55.5223 114.023C57.6842 113.308 59.7712 112.755 61.6218 112.104C63.2673 111.562 64.8337 110.804 66.2799 109.851C67.2616 109.222 68.0876 108.379 68.6955 107.384C68.9006 107.016 69.0742 106.63 69.2144 106.232Z" fill="white"/>
<path d="M65.2766 133.626C65.2676 133.505 65.2676 133.383 65.2766 133.263C65.2766 133.009 65.2766 132.686 65.2766 132.254C65.2766 131.361 65.2766 130.105 65.2248 128.543L65.3228 128.641C61.4198 128.641 55.4357 128.693 48.7424 128.693L48.8923 128.543V129.834C48.8923 130.266 48.8923 130.698 48.8923 131.119V133.608L48.7482 133.464L60.555 133.528L64.0429 133.568H64.9884H65.3285C65.2269 133.576 65.1247 133.576 65.023 133.568H64.1063L60.6473 133.614L48.7366 133.678H48.5464V128.491L48.6963 128.342C55.3895 128.342 61.3795 128.342 65.2766 128.394H65.3747V128.491C65.3747 130.082 65.3343 131.373 65.3228 132.26C65.3228 132.669 65.3228 132.998 65.3228 133.245C65.3187 133.373 65.3033 133.501 65.2766 133.626Z" fill="#263238"/>
<path d="M69.2143 147.104C69.2143 147.104 69.2143 146.994 69.2143 146.781C69.2143 146.568 69.2143 146.257 69.2143 145.853C69.2143 145.023 69.2143 143.819 69.2143 142.258C69.2143 139.123 69.2143 134.571 69.1739 128.855C69.1739 117.422 69.1393 101.345 69.1105 82.7564L69.2546 82.9005H44.338L44.4879 82.7507V82.9235C44.4879 108.162 44.4533 130.958 44.4417 147.121L44.3726 147.023C47.6971 148.16 51.1789 148.77 54.6921 148.832C57.3351 148.888 59.9784 148.73 62.596 148.36C64.7464 148.066 66.3952 147.709 67.5136 147.484L68.7761 147.207L69.2143 147.115L68.7992 147.23L67.5309 147.542C66.4125 147.784 64.7636 148.164 62.6075 148.475C59.9859 148.866 57.3366 149.042 54.6863 148.999C51.1551 148.95 47.6534 148.347 44.3091 147.213H44.24V147.104C44.24 130.94 44.2111 108.145 44.1938 82.9063V82.5663H69.3584V82.7103C69.3584 101.357 69.3123 117.463 69.295 128.918C69.295 134.623 69.295 139.163 69.2546 142.292C69.2546 143.842 69.2546 145.041 69.2546 145.859C69.2546 146.257 69.2546 146.562 69.2546 146.775C69.2473 146.885 69.2339 146.995 69.2143 147.104Z" fill="#263238"/>
<path d="M68.949 149.541H44.7357C44.3687 149.541 44.0168 149.395 43.7573 149.136C43.4978 148.877 43.3521 148.525 43.3521 148.158C43.3521 147.791 43.4978 147.44 43.7573 147.18C44.0168 146.921 44.3687 146.775 44.7357 146.775H68.949C69.1312 146.774 69.3117 146.81 69.4803 146.879C69.6488 146.948 69.802 147.05 69.9311 147.178C70.0602 147.307 70.1626 147.459 70.2325 147.628C70.3024 147.796 70.3384 147.976 70.3384 148.158C70.3384 148.34 70.3024 148.521 70.2325 148.689C70.1626 148.857 70.0602 149.01 69.9311 149.138C69.802 149.267 69.6488 149.368 69.4803 149.437C69.3117 149.507 69.1312 149.542 68.949 149.541Z" fill="#E0E0E0"/>
<path d="M68.949 149.541C69.1479 149.526 69.3429 149.477 69.5255 149.397C69.7699 149.28 69.9739 149.094 70.1115 148.861C70.2491 148.628 70.3141 148.359 70.298 148.089C70.2864 147.898 70.2328 147.711 70.1412 147.543C70.0495 147.375 69.922 147.229 69.7676 147.115C69.6003 146.984 69.4016 146.898 69.1911 146.867C68.9778 146.867 68.7184 146.867 68.4647 146.867H64.9711L44.7645 146.913C44.595 146.902 44.4249 146.925 44.2649 146.982C44.1048 147.039 43.9581 147.128 43.834 147.244C43.7098 147.36 43.6108 147.5 43.5431 147.656C43.4754 147.812 43.4405 147.98 43.4405 148.149C43.4405 148.319 43.4754 148.487 43.5431 148.643C43.6108 148.799 43.7098 148.939 43.834 149.055C43.9581 149.171 44.1048 149.26 44.2649 149.317C44.4249 149.374 44.595 149.397 44.7645 149.385H51.4923L60.5781 149.42L66.7064 149.466L68.3725 149.495H68.8049H68.949C68.9013 149.503 68.8526 149.503 68.8049 149.495H68.3725H66.7064L60.5781 149.541L51.4923 149.57H46.1251H44.7184C44.4528 149.571 44.1917 149.502 43.961 149.371C43.7303 149.239 43.5382 149.05 43.4039 148.821C43.2693 148.588 43.1985 148.323 43.1985 148.054C43.1985 147.785 43.2693 147.521 43.4039 147.288C43.5387 147.05 43.7338 146.852 43.9696 146.713C44.2054 146.575 44.4736 146.501 44.7472 146.499L64.9538 146.545H68.4474C68.699 146.53 68.9511 146.53 69.2027 146.545C69.4417 146.586 69.6672 146.685 69.8599 146.833C70.0298 146.96 70.1696 147.123 70.2693 147.31C70.369 147.497 70.426 147.704 70.4364 147.916C70.4534 148.252 70.3491 148.584 70.1424 148.85C69.9916 149.042 69.7927 149.191 69.5659 149.282C69.3943 149.433 69.1775 149.525 68.949 149.541Z" fill="#263238"/>
<path d="M73.6245 82.9811C73.6245 82.9811 72.5176 80.002 69.0125 82.2666L67.283 84.7329L68.5109 92.7655L73.6245 82.9811Z" fill="#FFBF9D"/>
<path d="M120.541 109.931L121.319 136.628C121.388 138.892 121.423 141.278 120.333 143.26C118.702 146.228 115.012 147.426 111.628 147.576C108.244 147.726 104.825 147.098 101.476 147.605C104.058 146.326 105.2 143.116 104.894 140.252C104.589 137.388 103.136 134.795 101.677 132.318C100.219 129.84 98.3278 127.345 98.2183 124.469C97.7052 112.184 102.386 110.098 102.041 104.031C101.85 100.573 100.472 97.2831 99.5789 93.9179C98.6853 90.5528 98.4258 86.6863 100.496 83.8743C102.802 80.6763 107.604 79.5411 109.016 75.8533C110.308 72.4708 108.065 68.8521 105.938 65.9191L108.59 63.8505L115.041 77.9968V92.4025L120.541 109.931Z" fill="#263238"/>
<path d="M102.45 102.734C102.248 105.039 101.055 107.402 99.6252 109.326C97.4978 112.207 94.7883 114.754 93.6525 118.137C91.923 123.254 94.229 128.739 95.8721 133.879C97.5151 139.019 98.3395 145.369 94.5173 149.19C92.4765 151.229 89.5132 152.071 87.3109 153.932C83.1659 157.441 82.6585 163.659 83.5118 169.023C84.365 174.388 86.2444 179.689 85.7025 185.088C85.1606 190.488 80.9867 196.135 75.5732 195.749C77.8225 196.859 80.3194 197.374 82.8248 197.244C85.3302 197.114 87.7602 196.343 89.8822 195.005C90.5866 196.582 90.7785 198.339 90.431 200.03C90.0835 201.722 89.2141 203.261 87.9451 204.432C90.8578 205.125 93.8789 205.234 96.8339 204.753C99.789 204.273 102.62 203.212 105.162 201.632C107.705 200.052 109.91 197.984 111.649 195.549C113.388 193.113 114.627 190.357 115.295 187.439L102.45 102.734Z" fill="#263238"/>
<path d="M221.51 172.947C212.863 173.091 205.172 164.304 206.463 155.764C207.328 150.002 211.508 144.505 209.836 138.944C208.729 135.251 205.397 132.871 202.474 130.22C202.157 128.1 201.402 125.991 201.321 123.836C201.142 117.952 206.083 112.38 204.515 106.71C203.938 104.711 202.653 103.045 201.304 101.409C201.194 97.0165 200.042 92.713 197.943 88.8529C198.698 86.1215 199.672 83.3902 199.027 80.6935C198.104 76.7752 194.213 74.4414 191.532 71.4105C190.041 69.6761 188.913 67.6608 188.214 65.4835C187.515 63.3063 187.259 61.0111 187.462 58.7335L186.476 64.8473C185.271 68.2173 184.804 71.8069 185.107 75.373C185.41 78.939 186.477 82.3983 188.234 85.5165C189.191 87.1876 190.362 88.801 191.284 90.4893L174.975 105.425C175.983 124.193 177.004 143.053 180.993 161.417C183.005 170.683 186.372 180.617 194.472 185.555C201.857 190.055 212.257 188.84 218.403 182.749C216.315 182.403 214.36 181.497 212.747 180.127C214.805 180.095 216.791 179.369 218.382 178.065C219.973 176.761 221.076 174.957 221.51 172.947Z" fill="#263238"/>
<path d="M187.502 58.7163L187.877 56.4114C187.694 57.1692 187.569 57.9397 187.502 58.7163Z" fill="#263238"/>
<path d="M109.944 103.005C100.357 94.9955 110.233 90.9043 112.827 79.2645C118.777 52.7581 117.82 31.772 150.634 33.3681C150.634 33.3681 175.349 34.4802 183.04 52.1185C187.173 61.5974 188.522 94.5057 190.154 124.147C190.183 124.63 190.28 125.108 190.442 125.564L192.016 130.03C194.085 135.881 195.325 141.993 195.7 148.187L198.196 189.318C198.238 189.988 198.148 190.659 197.929 191.294C197.711 191.928 197.37 192.513 196.925 193.016C196.479 193.518 195.939 193.927 195.335 194.22C194.731 194.513 194.076 194.684 193.405 194.723C182.354 195.363 157.085 194.187 152.22 192.476C131.944 185.371 115.957 169.553 108.088 149.633C107.563 148.296 99.4116 145.784 99.0599 147.179C98.9216 147.835 136.873 125.507 109.944 103.005Z" fill="#263238"/>
<path d="M157.074 43.9073L154.981 42.0057L133.034 51.4501C131.49 51.5699 130.047 52.2646 128.991 53.3968C127.935 54.529 127.343 56.0161 127.332 57.5638L129.177 129.69C129.258 134.582 127.909 140.258 130.952 144.096L134.538 149.063C141.843 158.282 158.463 154.762 163.842 144.32C164.169 143.727 164.417 143.093 164.58 142.436C164.709 141.902 164.807 141.362 164.874 140.817C165.405 134.997 165.324 129.967 165.324 129.967C165.572 123.582 165.647 120.966 165.647 121.024C165.647 121.081 179.177 119.157 182.446 101.668C184.072 92.9729 183.455 81.0739 182.677 69.365C181.599 53.1384 170.115 43.5961 157.074 43.9073Z" fill="#FFBF9D"/>
<path d="M153.938 81.3562C153.929 81.9437 153.691 82.5045 153.274 82.919C152.857 83.3334 152.295 83.5687 151.707 83.5746C151.419 83.5893 151.131 83.5464 150.86 83.4484C150.589 83.3504 150.341 83.1992 150.129 83.0038C149.918 82.8084 149.747 82.5727 149.628 82.3105C149.509 82.0484 149.443 81.765 149.435 81.4772C149.447 80.8911 149.687 80.3326 150.103 79.9197C150.519 79.5068 151.08 79.2718 151.666 79.2645C151.954 79.249 152.241 79.2912 152.512 79.3885C152.783 79.4859 153.032 79.6365 153.243 79.8315C153.455 80.0264 153.626 80.2618 153.745 80.5236C153.864 80.7855 153.93 81.0686 153.938 81.3562Z" fill="#263238"/>
<path d="M176.577 81.3562C176.567 81.9443 176.327 82.5051 175.909 82.9194C175.492 83.3336 174.929 83.5687 174.34 83.5746C174.053 83.5886 173.766 83.545 173.496 83.4466C173.226 83.3483 172.978 83.197 172.767 83.0017C172.556 82.8063 172.386 82.5709 172.267 82.3091C172.148 82.0473 172.083 81.7645 172.075 81.4772C172.085 80.8906 172.324 80.3313 172.741 79.9181C173.157 79.5049 173.719 79.2704 174.306 79.2645C174.593 79.249 174.881 79.2912 175.152 79.3885C175.423 79.4859 175.671 79.6365 175.883 79.8315C176.095 80.0264 176.265 80.2618 176.384 80.5236C176.504 80.7855 176.569 81.0686 176.577 81.3562Z" fill="#263238"/>
<path d="M180.469 74.0266C180.181 74.3147 178.509 73.0067 176.082 72.9433C173.654 72.88 171.844 74.0497 171.591 73.7443C171.464 73.6118 171.764 73.0874 172.553 72.5457C173.622 71.8479 174.881 71.4977 176.157 71.5431C177.41 71.5764 178.621 72.0061 179.616 72.7705C180.371 73.3467 180.607 73.9229 180.469 74.0266Z" fill="#263238"/>
<path d="M155.887 74.839C155.575 75.0983 154.042 73.6232 151.638 73.3121C149.234 73.0009 147.308 73.9747 147.089 73.6463C146.979 73.5022 147.325 73.0124 148.173 72.5514C149.307 71.9686 150.593 71.7492 151.857 71.9234C153.108 72.0844 154.277 72.637 155.195 73.5022C155.858 74.1706 156.065 74.7296 155.887 74.839Z" fill="#263238"/>
<path d="M164.753 92.2699C164.753 92.1374 166.264 91.9184 168.714 91.6937C169.336 91.6476 169.924 91.5381 170.04 91.1175C170.155 90.6968 169.959 89.9996 169.676 89.2735L167.976 84.5082C165.612 77.7317 163.94 72.1596 164.194 72.0674C164.448 71.9752 166.604 77.3975 168.967 84.1682C169.544 85.8392 170.074 87.4296 170.593 88.9566C170.806 89.6654 171.17 90.4721 170.847 91.3941C170.75 91.6091 170.606 91.7996 170.425 91.9512C170.245 92.1028 170.032 92.2118 169.803 92.2699C169.458 92.3546 169.103 92.3933 168.748 92.3852C166.287 92.4428 164.759 92.4082 164.753 92.2699Z" fill="#263238"/>
<path d="M165.647 121.001C157.368 120.903 149.279 118.509 142.281 114.086C142.281 114.086 147.867 126.406 165.503 125.242L165.647 121.001Z" fill="#FF9A6C"/>
<path d="M163.56 98.0898C163.114 97.4965 162.524 97.0265 161.847 96.724C161.169 96.4216 160.425 96.2967 159.686 96.3611C159.149 96.3953 158.625 96.5374 158.144 96.779C157.664 97.0206 157.237 97.3567 156.89 97.7671C156.554 98.1616 156.348 98.6496 156.3 99.165C156.251 99.6804 156.363 100.198 156.619 100.648C157.247 101.587 158.608 101.835 159.778 101.541C160.933 101.166 162.002 100.566 162.926 99.7781C163.205 99.5893 163.447 99.351 163.64 99.0751C163.729 98.9419 163.776 98.7856 163.776 98.6257C163.776 98.4658 163.729 98.3094 163.64 98.1762" fill="#FF9A6C"/>
<path d="M157.57 93.7566C157.968 93.7566 157.898 96.3726 160.101 98.303C162.303 100.233 165.116 100.032 165.122 100.389C165.157 100.556 164.488 100.879 163.3 100.879C161.757 100.861 160.27 100.297 159.103 99.2884C157.983 98.3197 157.282 96.9542 157.149 95.4795C157.08 94.3789 157.391 93.7335 157.57 93.7566Z" fill="#263238"/>
<path d="M157.991 63.0495C157.668 63.6719 155.31 63.0495 152.445 63.0495C149.58 63.0495 147.193 63.4932 146.893 62.8594C146.766 62.554 147.239 61.995 148.242 61.4764C149.572 60.8597 151.025 60.5542 152.49 60.5832C153.956 60.6121 155.395 60.9748 156.699 61.6435C157.679 62.1737 158.135 62.7557 157.991 63.0495Z" fill="#263238"/>
<path d="M179.881 63.6372C179.437 64.1731 177.782 63.5565 175.776 63.4759C173.77 63.3952 172.057 63.7409 171.677 63.1589C171.515 62.8708 171.798 62.3292 172.553 61.8278C173.569 61.2291 174.741 60.9461 175.918 61.0149C177.096 61.0836 178.226 61.501 179.166 62.2139C179.858 62.7959 180.077 63.3721 179.881 63.6372Z" fill="#263238"/>
<path d="M153.119 39.9256C151.534 40.2598 150.191 41.274 148.905 42.2651C147.619 43.2562 146.282 44.2761 144.696 44.6219C140.044 45.636 135.38 40.5537 130.929 42.2363C129.882 42.693 128.994 43.4507 128.378 44.4131C127.762 45.3755 127.446 46.4991 127.47 47.6413C127.47 47.8833 127.488 48.1253 127.522 48.3673C124.161 47.284 120.696 46.7712 117.364 47.7911C113.248 49.03 110.1 52.4009 107.886 56.0945C106.001 59.2292 104.652 63.2052 106.278 66.4666C107.517 68.9674 110.279 70.5521 111.172 73.1969C111.65 74.8394 111.544 76.5965 110.873 78.1698C107.442 80.9748 104.983 84.7888 103.845 89.0702C102.707 93.3515 102.947 97.8826 104.531 102.02C105.748 105.218 107.777 108.358 107.414 111.735C106.906 116.731 101.441 120.275 101.332 125.294C101.257 128.705 103.712 131.632 106.284 133.862C108.855 136.092 111.778 138.172 113.202 141.261C114.493 143.992 114.43 147.23 113.479 150.1C112.444 152.95 110.837 155.558 108.757 157.764C112.216 158.985 115.946 156.848 118.598 154.307C125.614 147.599 129.033 137.78 129.65 128.094C130.266 118.408 130.468 108.422 128.168 98.9946C128.168 98.9946 126.796 88.4957 129.851 83.1945C132.907 77.8932 137.64 78.7575 140.35 74.8622C144.425 69.0135 143.099 60.0474 143.099 60.0474H142.984C145.359 59.0102 147.366 56.5901 148.346 54.1699C152.039 52.3151 155.032 49.3152 156.878 45.6187L157.253 41.6255C156.607 40.1446 154.705 39.5857 153.119 39.9256Z" fill="#263238"/>
<path d="M163.41 29.4901C163.41 29.4901 153.119 25.6928 150.467 26.1768C147.815 26.6608 124.432 33.8867 124.432 33.8867C124.432 33.8867 115.537 46.9267 115.537 47.4165C115.537 47.9063 118.534 53.4726 118.534 53.4726C120.264 52.5622 121.25 51.5653 120.812 50.4071C120.812 50.4071 124.19 54.141 126.577 52.9367C126.577 52.9367 130.918 56.1924 130.918 55.8179C130.918 55.4433 133.449 55.4548 131.638 52.5622C130.909 51.2822 130.061 50.0727 129.108 48.9492L128.987 44.6103L131.062 42.8067L136.003 40.9973L141.007 43.0314C142.978 43.8334 145.135 44.0679 147.232 43.7084C149.33 43.3489 151.286 42.4098 152.877 40.9973L156.301 38.0009L158.769 36.1974L163.41 29.4901Z" fill="#FFBF9D"/>
<path d="M126.6 52.9252C126.45 52.8274 126.31 52.7134 126.185 52.5852L125.089 51.571C124.396 49.4275 123.819 47.2481 123.36 45.0424C123.302 44.7427 123.256 44.4662 123.227 44.1435C123.207 43.9905 123.207 43.8355 123.227 43.6825C123.237 43.5305 123.262 43.3799 123.302 43.233C123.439 42.6864 123.636 42.1568 123.89 41.6542C124.339 40.8333 124.839 40.0423 125.389 39.2859C125.856 38.6405 126.254 38.1334 126.542 37.7935C126.68 37.6067 126.838 37.4365 127.015 37.2864C126.909 37.4913 126.781 37.6844 126.635 37.8626C126.381 38.2256 126.006 38.75 125.568 39.4069C125.048 40.17 124.572 40.9627 124.144 41.7809C123.896 42.2551 123.703 42.7557 123.568 43.2734C123.468 43.8345 123.492 44.4106 123.637 44.9617C124.173 47.6239 124.87 49.9634 125.28 51.4846V51.4443L126.306 52.5218C126.418 52.6455 126.516 52.7807 126.6 52.9252Z" fill="#FF9A6C"/>
<path d="M119.128 41.8444C119.163 41.8444 118.898 42.3342 118.604 43.1524C118.428 43.6279 118.286 44.115 118.177 44.6102C118.104 44.8909 118.061 45.1789 118.05 45.4688C118.073 45.7775 118.137 46.0818 118.241 46.3735C118.675 47.4122 119.258 48.3827 119.97 49.2546C120.281 49.6184 120.566 50.0035 120.823 50.4071C120.438 50.1261 120.096 49.7902 119.809 49.4102C119.027 48.5511 118.404 47.56 117.97 46.483C117.852 46.1629 117.784 45.8268 117.768 45.4861C117.781 45.1721 117.832 44.8607 117.918 44.5584C118.045 44.0548 118.211 43.5617 118.414 43.0832C118.568 42.6271 118.81 42.206 119.128 41.8444Z" fill="#FF9A6C"/>
<path d="M154.503 40.1331C155.319 40.7859 155.951 41.6398 156.336 42.6108C156.811 43.5436 157.03 44.5854 156.97 45.6303C156.733 44.6501 156.429 43.6874 156.059 42.7491C155.596 41.8454 155.076 40.9717 154.503 40.1331Z" fill="#455A64"/>
<path d="M60.0534 72.9548C60.0534 72.9548 53.7695 68.8406 52.9047 68.6274C52.04 68.4142 44.2571 70.8746 44.2571 70.8746L39.4836 80.0943C39.4836 80.0943 36.4512 82.693 36.2379 85.724C36.0246 88.7549 35.1541 101.524 35.1541 101.524L32.5425 114.086H44.2225L44.4416 92.2238L46.2807 88.7665L49.855 87.4642L53.7522 87.251C53.7522 87.251 56.3523 90.7083 60.0361 90.063V88.5475L54.8476 83.7821L49.659 82.2666L46.298 82.912L49.6532 80.7454L55.3088 81.0393C55.3088 81.0393 59.0618 85.482 62.7573 83.6092V82.6758L58.1106 77.847L53.2045 75.6516L47.647 75.1848L53.2795 73.5483C53.2795 73.5483 57.1767 75.1041 59.1253 74.7008C61.0739 74.2974 60.8548 73.5483 60.8548 73.5483L60.0534 72.9548Z" fill="#FFBF9D"/>
<path d="M54.5364 62.698L47.4453 65.4235L44.2227 70.8747L50.4605 69.3937L51.3137 67.0888C51.3137 67.0888 55.234 66.7489 54.5364 62.698Z" fill="#FFBF9D"/>
<path d="M40.51 79.4489C40.7887 79.1468 41.1113 78.8885 41.467 78.6825C42.2875 78.1422 43.1362 77.646 44.0094 77.1958C45.0241 76.6542 45.9349 76.1644 46.5806 75.7898C46.9157 75.5621 47.273 75.369 47.6472 75.2136C47.3699 75.5148 47.0493 75.7731 46.6959 75.98C45.8742 76.5214 45.0235 77.0177 44.1478 77.4667C43.1331 78.0083 42.2222 78.4981 41.5765 78.8727C41.2432 79.1031 40.8855 79.2963 40.51 79.4489Z" fill="#FF9A6C"/>
<path d="M46.0618 83.0562C45.729 83.3128 45.3648 83.5258 44.9779 83.69C44.0673 84.1578 43.0977 84.5009 42.0954 84.7099C41.0934 84.8343 40.0815 84.8594 39.0745 84.7848C38.3135 84.7848 37.8696 84.975 37.8523 84.9289C38.2127 84.6957 38.6337 84.5735 39.063 84.5774C40.0588 84.5837 41.0542 84.5299 42.0435 84.4161C43.0138 84.2045 43.9602 83.8957 44.8684 83.4941C45.2491 83.3051 45.6492 83.1583 46.0618 83.0562Z" fill="#FF9A6C"/>
<path d="M60.8375 73.5656C60.6126 73.4756 60.398 73.3616 60.1976 73.2257L58.5199 72.1942C57.1017 71.3414 55.1589 70.1083 53.0028 68.8233C52.9521 68.7834 52.8934 68.755 52.8307 68.7401C52.768 68.7251 52.7027 68.724 52.6396 68.7369C52.4905 68.7495 52.3423 68.7707 52.1956 68.8002C51.8959 68.8521 51.6191 68.9213 51.3136 68.9846C50.7371 69.1229 50.1606 69.267 49.6475 69.4053L46.8457 70.1717L44.9547 70.696C44.7257 70.7771 44.4875 70.8294 44.2456 70.8516C44.4605 70.7399 44.6866 70.6511 44.9201 70.5866C45.3583 70.431 45.9924 70.2178 46.7822 69.97C47.5721 69.7222 48.5118 69.4341 49.5783 69.1402C50.1029 68.9904 50.6621 68.8406 51.2444 68.7023C51.5327 68.6331 51.8209 68.564 52.138 68.5064C52.296 68.4741 52.4558 68.451 52.6165 68.4372C52.7099 68.4205 52.8056 68.4205 52.899 68.4372C52.9856 68.4638 53.0688 68.5006 53.1469 68.5467C55.3319 69.849 57.2401 71.0994 58.6295 72.0041C59.3213 72.4593 59.8805 72.8338 60.261 73.0931C60.4715 73.2269 60.665 73.3855 60.8375 73.5656Z" fill="#FF9A6C"/>
<path d="M110.521 138.76C109.823 138.996 103.073 137.607 95.1514 139.912C87.2301 142.217 47.9757 167.479 47.9757 167.479L45.0932 114.074H32.4965C32.4965 114.074 21.9003 167.427 21.5428 174.267C21.1277 182.334 20.8914 200.727 30.6747 203.291C40.4581 205.856 53.9656 200.687 64.1122 194.867C74.2587 189.047 94.2174 178.554 94.2174 178.554L110.521 138.76Z" fill="#FFBF9D"/>
<path d="M85.6218 164.016C85.8219 164.187 86.0018 164.38 86.158 164.592C86.4866 164.967 86.942 165.531 87.4839 166.24C90.3076 169.955 92.6333 174.023 94.402 178.341C94.7364 179.176 94.9786 179.851 95.1457 180.329C95.2446 180.57 95.318 180.821 95.3648 181.078C95.2295 180.854 95.1193 180.617 95.0362 180.369C94.846 179.908 94.5635 179.246 94.206 178.427C93.273 176.298 92.23 174.219 91.0814 172.198C89.9266 170.184 88.6701 168.23 87.3168 166.344C86.7921 165.618 86.3655 165.036 86.0657 164.615C85.9011 164.428 85.7526 164.228 85.6218 164.016Z" fill="#FF9A6C"/>
<path d="M47.6183 161.025C47.663 161.313 47.6861 161.604 47.6874 161.895C47.6874 162.471 47.7566 163.267 47.82 164.269C47.9526 166.275 48.2294 169.035 48.5061 172.094C48.7871 174.703 48.9065 177.326 48.8635 179.948C48.8362 180.745 48.765 181.539 48.6502 182.328C48.616 182.62 48.5542 182.907 48.4657 183.187C48.465 182.893 48.4881 182.601 48.5349 182.311C48.5868 181.735 48.6387 180.945 48.6502 179.943C48.6848 177.937 48.4888 175.166 48.2121 172.112C47.9353 169.058 47.6874 166.286 47.6356 164.275C47.5952 163.267 47.5779 162.454 47.5952 161.889C47.5725 161.601 47.5803 161.312 47.6183 161.025Z" fill="#FF9A6C"/>
<path d="M189.733 115.244C191.074 113.773 192.138 112.073 192.875 110.225C193.884 107.442 208.487 68.201 208.487 68.201L205.166 67.4346L155.938 38.3698C155.938 38.3698 162.649 29.4901 163.433 29.4901C164.217 29.4901 223.776 50.8393 229.731 56.5727C236.701 63.2454 230.239 92.4947 226.186 102.095C222.133 111.695 200.877 155.978 200.877 155.978L189.733 115.244Z" fill="#FFBF9D"/>
<path d="M110.521 138.76L128.491 137.198L166.783 135.619L189.745 115.244L200.877 155.972L198.058 177.932L106.122 182.351C106.122 182.351 103.171 180.15 94.2232 178.565C85.2758 176.981 95.6933 154.249 95.6933 154.249L110.521 138.76Z" fill="#FFBF9D"/>
<path d="M94.2117 178.566C94.2117 178.566 96.904 186.241 99.2042 194.239C101.562 202.439 107.275 239.882 107.275 239.882L98.1492 262.85H198.415L190.777 231.296C190.777 231.296 197.556 205.193 199.384 191.283C200.503 181.94 200.696 172.509 199.96 163.128L175.845 127.575L168.927 133.683C168.927 133.683 175.453 152.566 167.555 162.984C159.657 173.403 146.657 175.978 131.494 166.499C116.332 157.02 122.766 137.688 122.766 137.688L118.119 138.091L94.2117 178.566Z" fill="#FF3E79"/>
<path d="M202.831 124.095C202.805 124.216 202.766 124.333 202.716 124.446L202.347 125.42C202.174 125.835 201.972 126.354 201.771 126.964C201.569 127.575 201.298 128.249 201.079 129.027C200.86 129.805 200.577 130.647 200.347 131.568C200.116 132.49 199.885 133.476 199.655 134.519C198.723 139.066 198.384 143.714 198.646 148.348C198.727 149.408 198.784 150.423 198.905 151.368C199.026 152.313 199.13 153.183 199.257 153.984C199.384 154.785 199.528 155.499 199.649 156.127C199.77 156.755 199.885 157.28 199.989 157.741C200.093 158.202 200.156 158.496 200.22 158.755C200.252 158.873 200.272 158.995 200.277 159.118C200.225 159.008 200.186 158.892 200.162 158.772C200.087 158.513 199.995 158.196 199.88 157.77C199.764 157.343 199.609 156.796 199.482 156.162C199.355 155.528 199.171 154.819 199.049 154.018C198.928 153.217 198.761 152.341 198.657 151.396C198.554 150.451 198.456 149.432 198.375 148.36C198.083 143.706 198.423 139.035 199.384 134.473C199.626 133.43 199.839 132.433 200.104 131.517C200.37 130.6 200.618 129.748 200.877 128.975C201.136 128.203 201.39 127.512 201.609 126.936C201.828 126.359 202.042 125.818 202.232 125.403C202.422 124.988 202.543 124.694 202.658 124.452C202.701 124.326 202.759 124.206 202.831 124.095Z" fill="#FF9A6C"/>
<path d="M177.765 201.084C177.652 201.195 177.53 201.297 177.402 201.39L176.324 202.225C175.857 202.588 175.28 203.026 174.594 203.516C173.908 204.006 173.147 204.582 172.288 205.176C170.559 206.386 168.443 207.769 166.062 209.238C163.681 210.707 161 212.229 158.141 213.733C155.281 215.237 152.485 216.539 149.925 217.674C147.366 218.809 145.019 219.731 143.007 220.463C142.021 220.843 141.111 221.149 140.315 221.431C139.519 221.713 138.839 221.932 138.274 222.111L136.971 222.52C136.821 222.573 136.667 222.614 136.51 222.641C136.652 222.567 136.8 222.507 136.954 222.462L138.234 222.001C138.81 221.806 139.473 221.569 140.263 221.27C141.053 220.97 141.952 220.659 142.932 220.267C144.904 219.512 147.233 218.538 149.787 217.42C152.341 216.303 155.114 214.954 157.973 213.468C160.833 211.981 163.496 210.442 165.895 209.002C168.293 207.561 170.397 206.19 172.144 204.997C173.026 204.421 173.804 203.845 174.49 203.378C175.176 202.911 175.77 202.479 176.22 202.133L177.333 201.344C177.467 201.242 177.612 201.155 177.765 201.084Z" fill="#263238"/>
<path d="M129.459 44.6967C129.717 44.8659 129.958 45.0588 130.18 45.2729C130.636 45.6417 131.299 46.166 132.134 46.7941C134.324 48.4087 136.653 49.826 139.093 51.0294C140.523 51.7324 141.924 52.3259 143.215 52.8099C143.861 53.0519 144.483 53.2594 145.066 53.4495C145.599 53.6379 146.146 53.7825 146.703 53.8817C147.502 54.0429 148.333 53.9055 149.038 53.4956C149.281 53.3312 149.504 53.1377 149.701 52.9194C149.678 52.9949 149.64 53.0653 149.591 53.1268C149.457 53.3136 149.294 53.4771 149.107 53.6109C148.391 54.0846 147.519 54.2641 146.674 54.1122C146.103 54.0281 145.539 53.8951 144.991 53.7146C144.414 53.5302 143.774 53.3285 143.123 53.0923C141.704 52.5793 140.314 51.9887 138.96 51.3233C136.503 50.1138 134.174 48.6601 132.008 46.9843C131.183 46.3331 130.538 45.7857 130.105 45.3881C129.868 45.1786 129.652 44.9471 129.459 44.6967Z" fill="#455A64"/>
<path d="M131.512 87.107C131.541 85.7989 130.117 82.6758 128.825 82.4395C125.366 81.8057 119.163 81.9152 118.863 90.6738C118.46 102.648 130.572 100.585 130.601 100.239C130.63 99.8934 131.396 91.6246 131.512 87.107Z" fill="#FFBF9D"/>
<path d="M127.096 95.5833C127.044 95.5429 126.882 95.7216 126.519 95.8714C126.018 96.0712 125.458 96.0712 124.957 95.8714C123.706 95.3643 122.714 93.3187 122.726 91.1636C122.729 90.1355 122.964 89.1214 123.412 88.196C123.81 87.3317 124.392 86.7382 125.038 86.646C125.279 86.5916 125.532 86.6229 125.752 86.7343C125.973 86.8457 126.149 87.0304 126.248 87.2568C126.398 87.6025 126.312 87.833 126.375 87.833C126.438 87.833 126.64 87.6429 126.56 87.1473C126.504 86.8484 126.347 86.5776 126.116 86.3809C125.792 86.1186 125.377 85.9944 124.963 86.0352C124.04 86.0698 123.175 86.888 122.72 87.8215C122.175 88.8389 121.887 89.9747 121.884 91.129C121.884 93.5492 123.037 95.8483 124.767 96.4073C125.085 96.5115 125.423 96.5428 125.755 96.4989C126.088 96.455 126.406 96.337 126.686 96.1537C127.067 95.8714 127.136 95.6063 127.096 95.5833Z" fill="#FF9A6C"/>
<path d="M131.35 42.8067C131.453 42.7905 131.559 42.7905 131.662 42.8067C131.957 42.8293 132.25 42.8736 132.538 42.9392C133.599 43.2115 134.584 43.7197 135.42 44.4259L137.15 45.8319C137.784 46.3217 138.493 46.8115 139.243 47.3185C140.024 47.8474 140.873 48.2681 141.768 48.569C142.724 48.8898 143.708 49.1194 144.708 49.2547C146.641 49.5259 148.611 49.2401 150.387 48.4307C151.829 47.7508 153.012 46.6229 153.759 45.2153C154.272 44.2721 154.545 43.2174 154.555 42.144C154.555 41.3834 154.434 40.9916 154.468 40.9916C154.51 41.0873 154.539 41.188 154.555 41.2912C154.623 41.5804 154.662 41.8758 154.67 42.1728C154.71 43.2739 154.461 44.3662 153.949 45.3421C153.2 46.8165 151.984 48.0018 150.49 48.713C148.671 49.561 146.644 49.8633 144.656 49.5831C143.634 49.4483 142.628 49.2128 141.653 48.8801C140.746 48.5609 139.888 48.1168 139.104 47.5606C138.355 47.0362 137.652 46.5464 137.012 46.0393C136.372 45.5322 135.824 45.0309 135.282 44.6045C134.473 43.8952 133.519 43.3702 132.486 43.066C131.777 42.8413 131.35 42.8067 131.35 42.8067Z" fill="#455A64"/>
<path d="M130.941 51.4501C130.987 51.404 131.662 52.1646 132.97 53.1154C133.738 53.6655 134.554 54.1439 135.409 54.5444C136.46 55.0221 137.56 55.3853 138.689 55.6278C139.829 55.8486 140.988 55.9528 142.148 55.9389C142.653 55.9315 143.157 55.8988 143.659 55.841C144.137 55.8006 144.57 55.7142 144.967 55.6508C146.559 55.3454 147.498 54.9766 147.521 55.0342C147.317 55.1548 147.098 55.2497 146.87 55.3166C146.262 55.5401 145.64 55.721 145.008 55.8582C144.61 55.9389 144.172 56.0369 143.693 56.0887C143.183 56.1596 142.669 56.2019 142.154 56.2155C140.976 56.2465 139.799 56.1479 138.643 55.9216C137.489 55.6756 136.367 55.2986 135.299 54.798C134.837 54.5757 134.388 54.3255 133.956 54.0489C133.573 53.8171 133.203 53.5632 132.849 53.2883C132.556 53.0649 132.275 52.8264 132.007 52.5737C131.803 52.3941 131.611 52.2016 131.431 51.9975C131.251 51.8307 131.087 51.6475 130.941 51.4501Z" fill="#455A64"/>
<path d="M126.6 52.9252C126.812 53.0964 127.005 53.2896 127.176 53.5014C127.511 53.899 127.966 54.4983 128.491 55.2647C129.056 56.1736 129.745 56.9997 130.537 57.7194C131.553 58.5506 132.678 59.2389 133.881 59.765C136.06 60.7678 138.482 61.12 140.857 60.7791C141.828 60.5819 142.773 60.2765 143.676 59.8687C143.461 60.0321 143.229 60.1712 142.984 60.2836C142.321 60.6048 141.62 60.841 140.897 60.9866C138.477 61.3993 135.989 61.0699 133.76 60.0416C132.533 59.5013 131.388 58.7914 130.359 57.9326C129.556 57.186 128.866 56.326 128.312 55.3799C127.811 54.6078 127.39 53.9912 127.084 53.5763C126.903 53.3746 126.741 53.1566 126.6 52.9252Z" fill="#455A64"/>
<path d="M111.807 117.947C111.807 117.947 111.991 117.751 112.314 117.37C112.779 116.796 113.137 116.142 113.369 115.44C113.73 114.326 113.864 113.15 113.761 111.983C113.636 110.436 113.209 108.929 112.504 107.546C111.646 105.87 110.683 104.249 109.622 102.694C108.37 100.904 107.385 98.9416 106.699 96.8682C106.353 95.7299 106.195 94.5425 106.232 93.3532C106.281 92.1012 106.641 90.8811 107.281 89.8037C107.967 88.7073 108.833 87.7334 109.841 86.9226C110.832 86.087 111.916 85.3495 112.965 84.56C114.021 83.8086 114.978 82.9278 115.813 81.9382C116.607 80.9736 117.142 79.8237 117.37 78.5961C117.474 78.0033 117.474 77.3969 117.37 76.804C117.24 76.2285 117.01 75.6804 116.69 75.1848C116.019 74.2312 115.275 73.3315 114.464 72.4939C113.113 70.9356 112.159 69.0734 111.684 67.0665C111.209 65.0596 111.228 62.9676 111.738 60.9693C112.144 59.4478 112.835 58.0168 113.773 56.7514C114.481 55.8017 115.315 54.9526 116.252 54.2275C116.845 53.7744 117.478 53.3752 118.143 53.0347C118.373 52.9195 118.552 52.8445 118.673 52.7927L118.857 52.7178L118.684 52.8215L118.171 53.0866C117.509 53.4479 116.879 53.8643 116.286 54.3312C115.368 55.061 114.555 55.9143 113.871 56.8666C112.858 58.2512 112.151 59.8342 111.794 61.5115C111.437 63.1889 111.44 64.9227 111.801 66.5991C112.232 68.7143 113.208 70.6805 114.632 72.3037C115.455 73.1491 116.213 74.0564 116.897 75.0177C117.237 75.5467 117.479 76.1322 117.612 76.7464C117.736 77.3713 117.748 78.0132 117.647 78.6422C117.411 79.9118 116.858 81.1012 116.038 82.0996C115.193 83.1073 114.224 84.0055 113.156 84.7732C112.095 85.5742 111.017 86.306 110.037 87.13C109.056 87.9107 108.212 88.8493 107.541 89.9074C106.923 90.9421 106.574 92.1148 106.526 93.3187C106.485 94.4785 106.637 95.6372 106.976 96.7472C107.649 98.7988 108.62 100.74 109.858 102.509C110.922 104.077 111.885 105.711 112.741 107.402C113.442 108.813 113.861 110.347 113.974 111.919C114.066 113.107 113.915 114.301 113.53 115.428C113.278 116.136 112.897 116.79 112.406 117.359C112.226 117.574 112.025 117.771 111.807 117.947Z" fill="#455A64"/>
<path d="M128.889 78.8266C129.015 78.5222 129.163 78.2276 129.332 77.945C129.767 77.163 130.136 76.3457 130.434 75.5018C130.907 74.2725 130.932 72.9155 130.503 71.6699C129.972 70.2812 128.773 69.0942 127.62 67.8265C126.453 66.6608 125.458 65.3357 124.663 63.8908C124.02 62.686 123.736 61.3222 123.844 59.961C123.909 59.0429 124.224 58.1602 124.755 57.4083C124.899 57.1993 125.066 57.0061 125.251 56.8321C125.383 56.7226 125.453 56.665 125.458 56.6765C125.464 56.688 125.205 56.9243 124.882 57.4486C124.401 58.1978 124.127 59.0604 124.086 59.9495C124.009 61.2658 124.303 62.5773 124.934 63.7353C125.734 65.1479 126.721 66.4464 127.868 67.596C129.021 68.8579 130.261 70.0738 130.803 71.5431C131.244 72.8473 131.201 74.267 130.681 75.5421C130.36 76.3891 129.959 77.2034 129.482 77.9738C129.315 78.2504 129.183 78.4578 129.09 78.5961C129.034 78.6821 128.966 78.7597 128.889 78.8266Z" fill="#455A64"/>
<path d="M191.976 127.575C198.727 120.834 187.237 119.03 194.466 104.757C198.629 96.5283 192.852 82.4684 190.356 73.2603C187.548 62.8882 192.662 51.1217 185.796 42.8816C181.46 37.6956 174.329 34.584 166.932 34.584C159.691 34.584 158.164 37.2231 154.624 38.8538L157.143 46.12C162.026 45.8723 172.132 47.3647 175.222 51.1505C177.817 54.337 179.004 58.5492 177.661 62.4272C174.329 72.0444 175.096 78.6422 179.967 86.1274C182.544 90.0573 187.237 90.5471 189.503 94.6671C191.976 99.1847 186.239 110.104 185.986 115.25C185.732 120.396 193.163 122.556 191.976 127.575Z" fill="#263238"/>
<path d="M191.976 127.575C192.128 126.9 192.128 126.199 191.976 125.524C191.761 124.713 191.38 123.956 190.857 123.3C190.147 122.397 189.389 121.534 188.586 120.712C187.543 119.696 186.724 118.473 186.182 117.123C185.926 116.323 185.855 115.476 185.974 114.645C186.087 113.754 186.26 112.872 186.493 112.006C186.96 110.208 187.577 108.318 188.194 106.307C188.885 104.197 189.425 102.04 189.808 99.853C190.024 98.6799 190.055 97.4804 189.9 96.2977C189.673 95.0748 189.08 93.9496 188.2 93.0709C186.47 91.152 183.916 90.1379 181.783 88.317C181.24 87.8636 180.747 87.3537 180.313 86.7957C179.875 86.2195 179.517 85.6087 179.131 84.9979C178.371 83.7444 177.708 82.4344 177.148 81.0796C176.565 79.6824 176.131 78.2282 175.851 76.7406C175.58 75.2062 175.468 73.6479 175.516 72.0905C175.59 70.4937 175.794 68.9057 176.128 67.3424C176.479 65.7452 176.921 64.1695 177.453 62.6231C177.729 61.8484 177.922 61.0468 178.03 60.2317C178.122 59.4103 178.122 58.5811 178.03 57.7597C177.809 56.0851 177.248 54.4733 176.381 53.0231C175.959 52.2796 175.452 51.5874 174.871 50.9603C174.27 50.3446 173.58 49.8222 172.824 49.4102C171.269 48.5896 169.619 47.9608 167.912 47.5375C166.176 47.0855 164.412 46.7506 162.631 46.5348C160.827 46.304 159.007 46.2173 157.189 46.2755H157.074L157.039 46.1718L154.52 38.9114L154.474 38.7788L154.601 38.727C156.071 38.0585 157.483 36.9983 159.04 36.1512C160.85 35.2089 162.837 34.6572 164.874 34.532C166.868 34.3749 168.873 34.4406 170.852 34.728C174.739 35.2767 178.446 36.7142 181.685 38.9286C183.257 40.0116 184.678 41.2982 185.911 42.7548C187.112 44.2003 188.037 45.8549 188.638 47.6354C189.82 51.1677 189.825 54.8555 189.756 58.3475C189.687 61.8394 189.462 65.2622 189.756 68.5812C189.885 70.2067 190.16 71.8172 190.581 73.3927C191.007 74.9485 191.468 76.464 191.924 77.9564C193.751 83.9146 195.446 89.5213 195.959 94.8399C196.26 97.3641 196.112 99.9216 195.521 102.394C195.435 102.682 195.354 102.97 195.262 103.247C195.17 103.524 195.06 103.823 194.945 104.077C194.703 104.607 194.455 105.126 194.213 105.627C193.743 106.607 193.334 107.615 192.99 108.646C192.676 109.61 192.435 110.596 192.27 111.597C192.138 112.524 192.094 113.461 192.137 114.397C192.252 116.037 192.621 117.648 193.233 119.174C193.746 120.557 194.253 121.807 194.293 122.971C194.335 123.949 194.078 124.915 193.555 125.743C193.241 126.249 192.873 126.72 192.46 127.149L192.039 127.581L192.448 127.126C192.844 126.687 193.197 126.213 193.503 125.708C194.008 124.89 194.253 123.938 194.207 122.977C194.035 121.676 193.669 120.408 193.123 119.214C192.493 117.682 192.104 116.06 191.97 114.409C191.922 113.462 191.964 112.512 192.097 111.573C192.258 110.564 192.495 109.568 192.806 108.594C193.149 107.556 193.557 106.539 194.028 105.552C194.27 105.045 194.518 104.526 194.754 104.002C194.864 103.737 194.956 103.46 195.06 103.189C195.164 102.919 195.227 102.613 195.314 102.342C195.89 99.8889 196.029 97.353 195.723 94.8514C195.21 89.5732 193.503 83.978 191.687 78.0256C191.226 76.5332 190.765 75.0119 190.333 73.4561C189.904 71.8664 189.624 70.2402 189.497 68.5985C189.208 65.2679 189.416 61.8336 189.497 58.3359C189.577 54.8382 189.549 51.1907 188.378 47.7219C187.793 45.9728 186.886 44.3487 185.703 42.9334C184.485 41.5003 183.084 40.2333 181.535 39.1649C178.332 36.9793 174.669 35.5597 170.829 35.0161C168.871 34.7364 166.887 34.6726 164.914 34.8259C162.918 34.9497 160.97 35.4895 159.195 36.4105C157.656 37.2288 156.25 38.3063 154.745 38.992L154.82 38.8076C155.685 41.2969 156.549 43.7689 157.339 46.0681L157.189 45.9701C159.027 45.9135 160.866 46.0021 162.689 46.2352C164.482 46.452 166.258 46.7908 168.005 47.2494C169.736 47.6776 171.409 48.3162 172.986 49.1509C173.766 49.5774 174.477 50.1194 175.096 50.7586C175.693 51.3987 176.213 52.1065 176.646 52.8676C177.531 54.3536 178.102 56.0047 178.324 57.7194C178.422 58.5636 178.422 59.4163 178.324 60.2605C178.224 61.0939 178.03 61.9134 177.747 62.7037C177.222 64.2418 176.781 65.8077 176.427 67.3942C176.094 68.9401 175.89 70.5109 175.816 72.0905C175.766 73.6341 175.874 75.1788 176.139 76.7003C176.416 78.1709 176.843 79.6093 177.413 80.9932C177.968 82.3359 178.626 83.6343 179.379 84.8769C179.76 85.4531 180.117 86.1043 180.532 86.6517C180.955 87.1999 181.436 87.7003 181.968 88.1441C184.049 89.9362 186.637 90.9619 188.39 92.9268C188.831 93.4011 189.217 93.9229 189.543 94.4826C189.857 95.0345 190.064 95.6405 190.154 96.2689C190.307 97.473 190.274 98.6935 190.056 99.8876C189.639 102.082 189.069 104.244 188.349 106.359C187.727 108.37 187.098 110.254 186.62 112.046C186.141 113.838 185.755 115.572 186.28 117.082C186.815 118.417 187.617 119.629 188.638 120.643C189.436 121.472 190.19 122.341 190.898 123.248C191.419 123.918 191.796 124.689 192.005 125.512C192.116 126.019 192.138 126.542 192.068 127.057C192.051 127.185 192.026 127.312 191.993 127.437L191.976 127.575Z" fill="#455A64"/>
<path d="M189.543 110.225C189.558 110.14 189.583 110.057 189.618 109.977L189.872 109.274C190.096 108.652 190.448 107.736 190.829 106.555C191.209 105.373 191.682 103.904 192.085 102.175C192.562 100.222 192.784 98.2156 192.748 96.2055C192.73 95.0383 192.571 93.8775 192.276 92.7481C191.963 91.5246 191.48 90.351 190.84 89.262C189.554 86.9571 187.606 84.9172 185.651 82.7103C184.618 81.5878 183.655 80.4024 182.769 79.1607C181.832 77.8629 181.122 76.4151 180.67 74.8794C180.248 73.2666 180.185 71.5809 180.486 69.9411C180.798 68.2714 181.297 66.642 181.973 65.0835C183.294 61.9258 184.919 58.9755 185.68 55.8639C186.059 54.3445 186.162 52.7696 185.986 51.2138C185.767 49.7298 185.23 48.3106 184.412 47.0534C182.841 44.7345 180.641 42.9115 178.07 41.7982C175.84 40.8208 173.437 40.2959 171.002 40.2539C168.993 40.205 166.983 40.3498 165.001 40.6861C163.271 40.9685 161.749 41.3027 160.527 41.5908L157.725 42.2765L156.999 42.4551C156.916 42.4806 156.831 42.4979 156.745 42.507C156.825 42.4718 156.908 42.4447 156.993 42.4263L157.714 42.2189C158.348 42.0402 159.288 41.7809 160.504 41.4755C161.721 41.1701 163.214 40.8186 164.972 40.519C166.964 40.1654 168.985 40.0052 171.008 40.0407C173.475 40.0716 175.911 40.5926 178.174 41.5735C180.791 42.6985 183.031 44.5479 184.631 46.9036C185.476 48.1925 186.031 49.6493 186.257 51.1734C186.445 52.7653 186.342 54.3782 185.951 55.933C185.185 59.1081 183.547 62.0699 182.239 65.2103C181.569 66.7477 181.076 68.3561 180.768 70.0045C180.475 71.6001 180.536 73.2408 180.947 74.8102C181.383 76.3173 182.076 77.7383 182.994 79.0109C183.869 80.2424 184.819 81.4201 185.836 82.5374C187.79 84.7501 189.745 86.8245 191.025 89.1525C191.67 90.2618 192.155 91.4568 192.466 92.702C192.759 93.8453 192.914 95.0196 192.927 96.1997C192.952 98.2257 192.712 100.246 192.212 102.21C191.791 103.938 191.313 105.408 190.903 106.589C190.494 107.77 190.137 108.681 189.895 109.292L189.612 109.989C189.583 110.144 189.543 110.225 189.543 110.225Z" fill="#455A64"/>
<path d="M99.2041 128.296C101.614 131.649 104.058 135.066 105.402 138.973C106.745 142.88 106.854 147.415 104.716 150.947C103.632 152.733 102.041 154.18 101.055 156.024C98.864 160.138 100.213 165.284 102.496 169.352C104.779 173.42 107.944 177.004 109.668 181.343C111.391 185.682 111.219 191.306 107.592 194.239C114.228 193.87 120.235 188.442 121.261 181.879C122.153 183.462 122.673 185.227 122.783 187.041C122.892 188.855 122.589 190.669 121.895 192.349C124.861 189.952 127.133 186.807 128.478 183.24C129.823 179.673 130.191 175.811 129.546 172.054C128.756 167.796 126.663 163.71 126.94 159.377C127.147 156.306 128.554 153.465 129.281 150.475C131.955 139.388 125.003 127.777 127.211 116.587" fill="#263238"/>
<path d="M117.566 149.305C117.889 149.181 118.2 149.027 118.494 148.844C119.297 148.249 119.868 147.393 120.108 146.424C120.303 145.735 120.385 145.018 120.351 144.303C120.293 143.452 120.114 142.614 119.82 141.814C119.526 140.944 119.128 140.039 118.731 139.065C118.284 138.044 117.958 136.975 117.756 135.879C117.552 134.665 117.525 133.429 117.676 132.208C117.851 130.892 118.137 129.593 118.529 128.324C119.307 125.691 120.472 122.994 121.233 120.027C122.021 116.915 122.077 113.662 121.394 110.525C121.047 108.868 120.495 107.262 119.751 105.742C118.964 104.184 118.026 102.708 116.949 101.334C115.865 99.9431 114.9 98.4627 114.067 96.9085C113.252 95.3637 112.941 93.6025 113.179 91.8723C113.512 90.2285 114.26 88.6971 115.352 87.4239C116.368 86.2164 117.445 85.0624 118.581 83.9665C119.646 82.9252 120.588 81.7652 121.388 80.5091C122.151 79.3365 122.598 77.9868 122.685 76.5908C122.687 75.2867 122.302 74.0114 121.578 72.926C120.915 71.8542 120.12 70.9265 119.422 69.9873C118.727 69.1138 118.164 68.1431 117.75 67.1061C117.402 66.181 117.189 65.2107 117.116 64.225C117.002 62.6321 117.245 61.0338 117.825 59.546C118.189 58.6077 118.699 57.7326 119.336 56.953C119.553 56.6807 119.79 56.4245 120.045 56.1866L119.878 56.3941C119.768 56.5324 119.578 56.711 119.382 56.9703C118.771 57.7587 118.284 58.6349 117.935 59.5691C117.383 61.0396 117.161 62.6132 117.283 64.1789C117.361 65.1539 117.578 66.1126 117.929 67.0255C118.34 68.0451 118.9 68.9984 119.59 69.8547C120.287 70.7825 121.094 71.7102 121.774 72.7992C122.524 73.9221 122.925 75.2411 122.927 76.5908C122.84 78.027 122.384 79.4164 121.602 80.6244C120.794 81.9008 119.844 83.0818 118.771 84.1451C117.643 85.2406 116.573 86.3947 115.565 87.6025C114.507 88.8385 113.78 90.3239 113.455 91.9184C113.231 93.5888 113.535 95.2875 114.326 96.776C115.149 98.3153 116.104 99.7805 117.18 101.155C118.267 102.544 119.215 104.036 120.01 105.61C120.762 107.152 121.32 108.782 121.671 110.461C122.357 113.644 122.294 116.942 121.486 120.096C120.714 123.092 119.538 125.783 118.759 128.399C118.362 129.651 118.073 130.935 117.895 132.237C117.74 133.436 117.759 134.651 117.952 135.844C118.145 136.928 118.463 137.985 118.898 138.996C119.284 139.964 119.676 140.88 119.964 141.762C120.259 142.578 120.433 143.432 120.483 144.297C120.508 145.028 120.414 145.757 120.206 146.458C119.952 147.446 119.351 148.309 118.511 148.89C118.296 149.039 118.059 149.154 117.808 149.23L117.566 149.305Z" fill="#455A64"/>
<path d="M112.124 188.897C112.848 188.252 113.436 187.468 113.853 186.592C114.882 184.166 114.919 181.434 113.957 178.98C113.306 177.298 112.449 175.703 111.403 174.232C110.313 172.613 109.016 170.971 107.817 169.115C106.502 167.203 105.581 165.048 105.108 162.777C105 162.174 104.949 161.563 104.958 160.95V160.489L105.01 160.023C105.034 159.713 105.077 159.405 105.136 159.101C105.397 157.86 105.823 156.66 106.405 155.534C107.558 153.229 109.005 151.229 110.158 149.143C110.745 148.137 111.232 147.076 111.611 145.974C111.794 145.442 111.938 144.897 112.043 144.343C112.101 144.073 112.112 143.767 112.147 143.525C112.187 143.256 112.204 142.985 112.199 142.713C112.139 140.64 111.646 138.602 110.752 136.732C109.985 134.939 109.155 133.315 108.544 131.759C107.986 130.36 107.619 128.893 107.454 127.397C107.336 126.263 107.423 125.117 107.713 124.014C107.908 123.32 108.213 122.663 108.619 122.067C108.763 121.871 108.884 121.727 108.964 121.629C109.001 121.578 109.044 121.531 109.091 121.49C108.507 122.25 108.078 123.117 107.829 124.043C107.565 125.134 107.495 126.264 107.621 127.379C107.802 128.857 108.178 130.305 108.74 131.684C109.356 133.217 110.198 134.836 110.982 136.634C111.895 138.53 112.402 140.597 112.47 142.701C112.475 142.983 112.458 143.264 112.418 143.543C112.383 143.819 112.372 144.119 112.314 144.384C112.207 144.95 112.061 145.509 111.876 146.055C111.494 147.175 111.002 148.254 110.406 149.276C109.253 151.379 107.777 153.39 106.664 155.655C106.095 156.757 105.678 157.932 105.425 159.147C105.365 159.444 105.323 159.744 105.298 160.046L105.246 160.495V160.945C105.239 161.539 105.287 162.133 105.39 162.719C105.855 164.957 106.756 167.082 108.042 168.971C109.195 170.81 110.515 172.458 111.605 174.088C112.651 175.583 113.505 177.204 114.147 178.911C115.271 182.098 114.799 184.996 113.951 186.644C113.632 187.284 113.211 187.867 112.706 188.373C112.573 188.503 112.432 188.627 112.285 188.742C112.181 188.863 112.129 188.903 112.124 188.897Z" fill="#455A64"/>
</svg>
