<svg width="53" height="47" viewBox="0 0 53 47" fill="none" xmlns="http://www.w3.org/2000/svg">
<path d="M31.5433 0.00850487V22.1845H41.0473C41.0473 25.7365 40.3753 28.7125 39.0313 31.1125C37.6873 33.6085 35.1913 35.4805 31.5433 36.7285V46.2325C34.5193 45.8485 37.3033 44.9365 39.8953 43.4965C42.3913 42.1525 44.5513 40.4245 46.3753 38.3125C48.1993 36.2005 49.6393 33.7525 50.6953 30.9685C51.6553 28.1845 52.0873 25.2085 51.9913 22.0405L51.9913 0.00850487H31.5433ZM0.871348 0.00850487L0.871348 22.1845H10.3753C10.3753 25.7365 9.70335 28.7125 8.35935 31.1125C7.01535 33.6085 4.51935 35.4805 0.871348 36.7285V46.2325C3.84735 45.8485 6.63135 44.9365 9.22335 43.4965C11.7193 42.1525 13.8793 40.4245 15.7033 38.3125C17.5273 36.2005 18.9673 33.7525 20.0233 30.9685C20.9833 28.1845 21.4153 25.2085 21.3193 22.0405L21.3193 0.00850487H0.871348Z" fill="#54514C"/>
</svg>
