<svg width="33" height="29" viewBox="0 0 33 29" fill="none" xmlns="http://www.w3.org/2000/svg">
<path d="M19.4214 8.33505V5.16753C19.4214 4.32745 19.0877 3.52177 18.4936 2.92775C17.8996 2.33372 17.0939 2 16.2539 2H5.16752C4.32744 2 3.52177 2.33372 2.92775 2.92775C2.33372 3.52177 2 4.32745 2 5.16753V24.1727C2 25.0128 2.33372 25.8184 2.92775 26.4125C3.52177 27.0065 4.32744 27.3402 5.16752 27.3402H16.2539C17.0939 27.3402 17.8996 27.0065 18.4936 26.4125C19.0877 25.8184 19.4214 25.0128 19.4214 24.1727V21.0052" stroke="#FF3E79" stroke-width="3" stroke-linecap="round" stroke-linejoin="round"/>
<path d="M30.5075 14.6079L8.33516 14.7336L17.9816 14.6789L30.5075 14.6079ZM30.5075 14.6079L25.7293 9.88366M30.5075 14.6079L25.7832 19.3861" stroke="#FF3E79" stroke-width="3" stroke-linecap="round" stroke-linejoin="round"/>
</svg>
