<svg width="32" height="29" viewBox="0 0 32 29" fill="none" xmlns="http://www.w3.org/2000/svg">
<path d="M12.5464 20.7232V24.0104C12.5464 24.8822 12.8927 25.7183 13.5092 26.3348C14.1256 26.9513 14.9617 27.2976 15.8335 27.2976H27.3387C28.2105 27.2976 29.0466 26.9513 29.6631 26.3348C30.2796 25.7183 30.6259 24.8822 30.6259 24.0104V4.28731C30.6259 3.41549 30.2796 2.57938 29.6631 1.96292C29.0466 1.34645 28.2105 1.00012 27.3387 1.00012H15.8335C14.9617 1.00012 14.1256 1.34645 13.5092 1.96292C12.8927 2.57938 12.5464 3.41549 12.5464 4.28731V7.57449" stroke="#475168" stroke-width="1.5" stroke-linecap="round" stroke-linejoin="round"/>
<path d="M24.0511 14.0515L1.04163 14.2458L11.0522 14.1613L24.0511 14.0515ZM24.0511 14.0515L19.0789 9.16254M24.0511 14.0515L19.1621 19.0237" stroke="#475168" stroke-width="1.5" stroke-linecap="round" stroke-linejoin="round"/>
</svg>
