<svg width="310" height="271" viewBox="0 0 310 271" fill="none" xmlns="http://www.w3.org/2000/svg">
<rect width="310" height="271" fill="#F0E3E7"/>
<path d="M82.8888 60.1997C82.1954 61.4244 81.5409 62.7722 81.3595 64.295C81.0549 66.8158 82.1954 69.2458 83.7571 70.302C85.3188 71.3518 87.1915 71.2351 88.9281 70.626C92.5764 69.343 95.9136 65.915 97.9807 61.3272C99.2702 58.4695 101.033 54.3677 99.1989 51.8599C93.8853 44.5829 85.3771 55.8127 82.8888 60.1997Z" fill="#D0D1D3"/>
<path d="M21.4777 269.141C21.8147 268.888 16.3326 258.423 34.5608 232.432C37.1788 228.699 40.0818 225.349 42.8423 221.804C46.4322 217.204 50.1129 212.428 51.4931 205.805C52.2642 202.118 52.1087 198.12 50.6572 194.822C47.4496 187.545 40.2503 187.655 34.2239 188.244C27.8476 188.867 20.0456 188.394 17.7193 179.412C16.851 176.075 17.0324 172.407 18.0239 169.135C21.7693 156.804 27.692 142.198 33.6407 131.182C40.8788 117.762 48.6419 104.601 58.3943 94.4335C68.1532 84.2664 80.1736 77.2421 92.5309 77.6827C94.449 77.754 96.4319 78.0262 98.0778 79.3351C100.981 81.6355 102.128 86.6899 101.707 91.1741C101.285 95.6582 99.6071 99.7212 97.9547 103.661C106.307 97.8161 116.099 93.2088 125.235 90.1243C134.372 87.0334 144.183 86.489 153.112 90.5196C157.713 92.5997 162.087 95.9498 165.217 100.907C168.25 105.709 170.012 112.13 169.41 118.351C169.008 122.505 171.069 127.19 174.017 128.596C176.525 129.788 179.318 129.484 181.903 128.609C187.482 126.717 192.394 122.375 197.364 118.494C210.584 108.171 225.027 100.667 239.99 96.3646C246.373 94.5307 253.17 93.306 259.307 96.2803C268.534 100.745 274.159 114.152 274.632 127.274C275.105 140.396 271.288 153.162 266.376 164.534C261.465 175.907 255.412 186.359 250.753 197.926C248.958 202.39 247.325 207.27 248.031 212.408C248.362 214.845 249.302 217.106 250.773 218.616C253.65 221.565 256.663 220.009 259.404 218.5C264.251 215.83 269.104 213.16 273.952 210.49C275.215 209.797 276.544 209.292 277.904 209.123C287.151 207.983 288.888 221.39 286.212 230.287C284.002 237.622 279.829 243.836 278.429 251.515C277.03 259.194 280.295 264.819 286.328 269.147H21.4777V269.141Z" fill="#D0D1D3"/>
<path d="M249.593 78.4538C250.423 77.3198 251.226 76.0498 251.582 74.5658C252.172 72.097 251.317 69.5503 249.885 68.3256C248.453 67.1009 246.58 67.0037 244.785 67.4119C241.02 68.2673 237.307 71.2999 234.728 75.6221C233.121 78.3178 231.916 81.8234 232.441 84.8885C234.145 94.9195 246.619 82.5233 249.593 78.4538Z" fill="#D0D1D3"/>
<path d="M196.606 74.4751C195.122 77.0347 194.163 79.7369 193.956 82.5038C193.399 89.9688 201.823 95.2889 209.696 93.0727C222.902 89.3532 230.574 77.0995 229.907 65.0532C229.544 58.4695 224.042 54.7111 217.128 57.653C209.547 60.8801 200.889 67.0814 196.606 74.4751Z" fill="#D0D1D3"/>
<path d="M16.9937 266.951H291.227" stroke="#DFE0DD" stroke-width="3" stroke-miterlimit="10" stroke-linecap="round" stroke-linejoin="round"/>
<g opacity="0.8">
<path d="M178.034 210.711C178.034 206.775 174.317 203.556 169.771 203.556H89.7403C85.1944 203.556 81.4773 206.775 81.4773 210.711H178.034Z" fill="#FF3E79"/>
<path d="M88.9979 200.099H170.519C170.519 200.099 161.742 172.503 143.513 174.446C143.513 174.446 149.503 182.886 143.513 183.39C143.513 183.39 93.5539 188.622 88.9979 200.099Z" fill="#FF3E79"/>
<path d="M115.785 234.778H115.755C115.592 235.413 115.429 236.176 115.236 236.822L114.392 239.517H117.204L116.344 236.822C116.126 236.156 115.948 235.408 115.785 234.778Z" fill="#FF3E79"/>
<path d="M157.344 234.63C156.79 234.63 156.403 234.681 156.19 234.727V238.434C156.434 238.5 156.759 238.515 157.166 238.515C158.661 238.515 159.571 237.783 159.571 236.501C159.566 235.281 158.722 234.63 157.344 234.63Z" fill="#FF3E79"/>
<path d="M178.965 213.97H80.5519C79.5451 213.97 78.8027 214.916 79.0468 215.892L90.8945 264.031C90.8945 264.031 101.507 267.357 129.682 267.357C157.862 267.357 165.81 264.214 165.81 264.214L180.45 215.969C180.75 214.977 180.002 213.97 178.965 213.97Z" fill="#FF3E79"/>
<path d="M223.773 119H161.183C160.4 119 159.795 119.692 159.907 120.47L176.814 239.349C176.905 239.985 177.449 240.458 178.09 240.458H205.93C206.565 240.458 207.11 239.99 207.206 239.359L225.049 120.48C225.166 119.702 224.561 119 223.773 119ZM212.301 134.789L207.359 168.776C207.277 169.345 206.789 169.767 206.215 169.767H177.546C176.956 169.767 176.458 169.325 176.397 168.735L172.654 134.748C172.578 134.061 173.117 133.461 173.804 133.461H211.152C211.859 133.466 212.403 134.092 212.301 134.789Z" fill="#FF3E79"/>
<path d="M205.355 266.04H179.605C178.421 266.04 177.449 265.068 177.449 263.884V246.29C177.449 245.105 178.421 244.134 179.605 244.134H205.355C206.54 244.134 207.511 245.105 207.511 246.29V263.884C207.511 265.073 206.54 266.04 205.355 266.04Z" fill="#FF3E79"/>
</g>
</svg>
