<svg width="61" height="76" viewBox="0 0 61 76" fill="none" xmlns="http://www.w3.org/2000/svg">
<g clip-path="url(#clip0)">
<path d="M59.3092 13.3064C53.4294 13.5623 48.0609 16.3771 44.9932 21.2391C43.4593 12.7946 38.6021 5.11785 30.9328 0.511784L30.4215 0L29.6546 0.511784C22.2409 5.11785 17.1281 12.7946 15.5942 21.4949C12.2709 16.633 6.90236 13.8182 1.27822 13.5623H0V14.8418C0 28.9158 3.579 39.1515 10.737 45.5488C15.8499 50.1549 22.2409 52.4579 29.1433 52.7138V59.8788C29.1433 60.6465 29.6546 61.1582 30.4215 61.1582C31.1885 61.1582 31.6997 60.6465 31.6997 59.8788V52.7138C38.3465 52.7138 44.9932 50.1549 50.106 45.5488C57.264 39.1515 60.843 28.6599 60.843 14.8418V13.5623L59.3092 13.3064ZM30.4215 3.07071C43.2037 11.5152 46.7827 28.9158 38.3465 41.7104C36.3013 44.7811 33.4892 47.596 30.4215 49.6431C17.6394 41.1987 14.0604 23.798 22.4966 11.0034C24.5417 7.67677 27.0982 5.11785 30.4215 3.07071ZM2.55643 16.1212C8.69186 16.633 13.8047 20.9832 15.3386 27.1246C15.5942 35.8249 19.4289 44.0135 26.0756 49.6431C20.9627 49.1313 16.1055 46.8283 12.2709 43.5017C6.13543 37.8721 2.81207 28.6599 2.55643 16.1212ZM48.3165 43.5017C44.4819 46.8283 39.6247 49.1313 34.5118 49.6431C41.1585 44.0135 45.2488 35.8249 45.5045 27.1246C46.7827 20.9832 52.1512 16.633 58.2866 16.1212C57.7753 28.6599 54.452 37.8721 48.3165 43.5017Z" fill="url(#paint0_linear)"/>
</g>
<defs>
<linearGradient id="paint0_linear" x1="0" y1="30.4512" x2="60.6385" y2="30.4512" gradientUnits="userSpaceOnUse">
<stop stop-color="#F9357C"/>
<stop offset="0.8542" stop-color="#FF3E79"/>
</linearGradient>
<clipPath id="clip0">
<rect width="60.5874" height="76" fill="white"/>
</clipPath>
</defs>
</svg>
