<svg width="49" height="25" viewBox="0 0 49 25" fill="none" xmlns="http://www.w3.org/2000/svg">
<path d="M1.90735e-05 6.86158C0.237827 6.5228 0.609169 6.43327 1.07716 6.43734C2.80669 6.45056 4.53623 6.45768 6.26449 6.43022C6.61548 6.42411 7.04659 6.33153 7.29457 6.15044C8.16951 5.51153 9.09151 4.88381 9.79604 4.13096C11.8906 1.89477 14.7468 0.7543 18.0736 0.23544C20.1707 -0.0911362 22.2665 -0.112502 24.333 0.392115C25.5869 0.698343 26.7391 1.17447 27.4589 2.08197C27.8646 2.59269 28.0871 3.19701 28.4228 3.81455C28.4941 3.81455 28.6823 3.81455 28.8718 3.81455C34.1863 3.81455 39.5008 3.81048 44.8153 3.81659C46.9708 3.81964 48.6825 5.13205 48.736 6.79647C48.7919 8.55245 47.1043 9.95846 44.8788 9.97474C42.5948 9.99102 40.3096 9.97881 38.0256 9.97881C37.8539 9.97881 37.6822 9.97881 37.4469 9.97881C38.3867 11.1986 38.4936 12.4052 37.5042 13.5803C36.5021 14.7706 34.9874 15.0311 33.2325 14.91C34.1405 16.0688 34.2931 17.2174 33.4385 18.3619C32.5826 19.5095 31.2372 19.9419 29.5331 19.8748C30.0634 20.5208 30.3253 21.1668 30.2885 21.8882C30.2096 23.4346 28.6785 24.7683 26.7009 24.8039C22.5463 24.8813 18.4284 24.6605 14.4849 23.4559C12.6676 22.9004 11.0182 22.0947 9.35857 21.3032C6.63074 20.002 6.63074 20.007 3.43619 20.1474C2.5816 20.1851 1.72065 20.2075 0.868599 20.1678C0.572289 20.1535 0.28997 19.9328 0.00128937 19.8056C1.90735e-05 15.493 1.90735e-05 11.1773 1.90735e-05 6.86158ZM26.7175 3.81557C26.6361 3.2611 26.35 2.82465 25.887 2.4584C25.2957 1.99041 24.5683 1.71571 23.7836 1.53462C22.1202 1.15107 20.4314 1.15209 18.7413 1.38507C15.6256 1.81338 12.9079 2.79108 10.9864 4.92247C10.1216 5.88185 9.09151 6.74153 7.81343 7.36111C7.44209 7.54118 6.96266 7.65004 6.52773 7.66123C5.03728 7.69684 3.54556 7.67548 2.05511 7.67548C1.88852 7.67548 1.72192 7.67548 1.55914 7.67548C1.55914 11.4703 1.55914 15.2061 1.55914 18.894C2.93895 18.894 4.2857 18.9073 5.6299 18.89C6.62565 18.8767 7.54638 19.065 8.40478 19.4566C9.30007 19.8646 10.1712 20.3072 11.0779 20.6968C12.3598 21.2482 13.6239 21.8464 14.9681 22.2809C18.7171 23.4915 22.6798 23.6482 26.6603 23.6024C27.7361 23.5902 28.6441 22.8384 28.7586 22.0031C28.8845 21.0783 28.2486 20.2482 27.1804 19.9847C26.8981 19.9155 26.589 19.8931 26.2915 19.89C25.1495 19.8799 24.0075 19.8911 22.8655 19.8829C22.3733 19.8788 22.0605 19.6337 22.0541 19.2847C22.0477 18.9347 22.3606 18.6895 22.8438 18.6682C22.971 18.6631 23.0982 18.6672 23.2241 18.6672C25.5081 18.6672 27.7933 18.6672 30.0773 18.6672C30.9739 18.6672 31.6784 18.3691 32.1452 17.7586C33.0824 16.5307 31.9862 14.9568 30.1689 14.9415C27.8531 14.9222 25.5361 14.9365 23.2203 14.9365C23.0778 14.9365 22.9341 14.9426 22.7917 14.9334C22.3415 14.9039 22.0452 14.6536 22.0528 14.3159C22.0605 13.9954 22.3479 13.7543 22.7726 13.7227C22.9138 13.7126 23.0575 13.7187 23.2012 13.7187C26.8663 13.7187 30.5301 13.7166 34.1952 13.7207C34.7878 13.7217 35.3244 13.6078 35.7912 13.3127C36.5656 12.8224 36.8683 12.0024 36.5542 11.2587C36.2299 10.4895 35.3613 9.99 34.302 9.98898C30.5899 9.98389 26.8777 9.98695 23.1656 9.98695C23.0231 9.98695 22.8782 9.99407 22.737 9.98084C22.3224 9.9432 22.0287 9.68275 22.035 9.36838C22.0414 9.05402 22.339 8.80374 22.7586 8.7722C22.9163 8.76 23.0753 8.76814 23.2343 8.76814C29.7543 8.76814 36.2744 8.76814 42.7945 8.76814C43.5245 8.76814 44.2544 8.7834 44.9831 8.76203C46.4812 8.71828 47.5227 7.56458 47.1285 6.40987C46.8373 5.55833 45.9369 5.03743 44.7351 5.03743C36.9141 5.03642 29.093 5.03642 21.272 5.03642C21.1296 5.03642 20.9859 5.0415 20.8434 5.03438C20.3589 5.012 20.0537 4.76579 20.0639 4.41175C20.0728 4.075 20.3716 3.83185 20.8345 3.82168C21.4373 3.80845 22.0401 3.8176 22.6429 3.8176C23.9884 3.81557 25.3351 3.81557 26.7175 3.81557Z" fill="#FF3E79"/>
</svg>
