<svg width="310" height="271" viewBox="0 0 310 271" fill="none" xmlns="http://www.w3.org/2000/svg">
<rect width="310" height="271" fill="#F0E3E7"/>
<path opacity="0.2" d="M297.245 270.623H22.4586C22.4586 270.623 -14.8252 234.898 8.89728 192.866C32.6198 150.835 64.4665 171.977 62.9239 123.05C61.3813 74.1238 136.181 69.9249 159.99 84.1071C183.799 98.2894 183.655 115.378 232.806 109.724C281.956 104.069 291.346 151.193 278.561 175.207C277.614 176.953 276.845 178.786 276.264 180.679C267.878 208.88 333.221 212.637 297.245 270.623Z" fill="#FF3E79"/>
<path d="M116.991 252.503C118.861 251.297 120.64 249.955 122.314 248.488C125.05 245.855 127.153 242.636 128.466 239.073C129.729 235.941 130.481 232.626 130.694 229.255C130.744 229.009 130.836 228.772 130.966 228.556C131.225 228.964 131.577 229.305 131.994 229.55C132.41 229.796 132.879 229.939 133.362 229.968C137.671 230.624 141.786 232.21 145.42 234.617C147.635 235.992 149.756 237.515 151.766 239.176C152.476 240.084 153.02 241.11 153.372 242.207C155.881 247.134 160.051 251.015 165.145 253.164C167.021 253.993 169.021 254.509 171.064 254.692C172.696 254.977 172.825 255.172 172.139 256.622C170.326 260.378 168.823 264.264 167.088 268.058C166.864 268.631 166.524 269.151 166.09 269.587H113.261C113.06 269.317 112.93 269.002 112.882 268.669C112.835 268.337 112.871 267.998 112.989 267.683C113.857 263.176 114.621 258.617 115.165 254.084C115.307 252.84 116.033 252.62 116.991 252.503Z" fill="#F6B992"/>
<path d="M116.991 252.503C116.084 252.827 115.825 253.397 115.696 254.42C115.398 256.687 115.087 258.966 114.686 261.22C114.193 264.004 113.688 266.789 113.274 269.587H98.0428C97.4211 268.939 97.6931 268.227 97.9521 267.566C99.2473 264.367 100.037 261 101.371 257.827C101.656 257.14 101.889 256.531 101.138 255.897C104.311 254.602 104.078 251.377 105.024 248.955C106.073 246.222 106.915 243.36 107.886 240.575C108.728 238.127 109.039 236.042 106.941 234.099C106.811 233.983 106.798 233.724 106.733 233.529C103.534 227.054 100.879 220.435 97.6672 213.998C96.9392 212.718 96.4974 211.295 96.372 209.828C96.5914 209.545 96.7496 209.219 96.8366 208.871C96.9235 208.523 96.9373 208.161 96.8771 207.808C96.8569 205.98 97.164 204.165 97.7837 202.446C97.3175 202.847 98.0428 203.741 97.0325 203.676C96.8274 203.443 96.6853 203.161 96.6196 202.857C96.5539 202.553 96.5667 202.238 96.6569 201.941C97.3567 199.81 97.4994 197.536 97.0714 195.335C97.0066 195.115 97.1621 194.96 97.4211 194.973C98.2574 196.565 99.455 197.94 100.918 198.988C101.488 199.324 101.397 200.904 101.436 201.915C101.572 204.244 101.572 206.579 101.436 208.908C101.387 209.755 101.551 210.601 101.913 211.368C102.275 212.134 102.824 212.799 103.508 213.299C105.891 215.488 108.3 217.664 110.671 219.866C112.743 221.795 114.763 223.751 116.848 225.707C117.969 226.672 118.79 227.936 119.217 229.351C119.644 230.767 119.658 232.275 119.257 233.698C118.96 234.746 118.829 235.834 118.869 236.923C118.912 236.959 118.947 237.005 118.972 237.056C118.996 237.108 119.008 237.164 119.008 237.221C119.008 237.277 118.996 237.334 118.972 237.385C118.947 237.436 118.912 237.482 118.869 237.519C117.91 238.969 118.04 240.718 117.807 242.285C117.354 245.38 116.745 248.45 116.24 251.532C116.071 252.335 116.369 252.491 116.991 252.503Z" fill="#FFC59F"/>
<path d="M166.09 269.587C166.466 267.385 167.761 265.546 168.551 263.499C169.483 261.064 170.558 258.681 171.724 256.363C172.242 255.34 171.97 254.977 171.063 254.692C171.394 254.741 171.731 254.674 172.017 254.501C172.303 254.329 172.52 254.062 172.63 253.747C173.459 252.05 174.198 250.302 174.962 248.566C175.996 246.693 177.306 244.986 178.847 243.502C179.21 243.955 179.637 243.8 180.142 243.735C182.228 243.437 184.326 243.127 186.437 242.958C192.913 242.492 199.388 242.039 205.864 241.78C206.071 241.78 205.774 241.456 205.864 241.637C205.955 241.818 205.864 241.767 205.787 241.767C201.733 242.103 197.653 242.181 193.586 242.22C192.757 242.22 191.786 242.414 191.294 241.391C191.877 240.575 192.757 240.731 193.547 240.718C197.251 240.718 200.969 240.523 204.66 240.718C205.774 240.905 206.92 240.709 207.908 240.161C208.896 239.613 209.669 238.745 210.099 237.7C211.524 236.081 212.69 234.177 214.555 233.05C215.254 232.636 214.853 231.444 215.85 231.341C215.882 232.188 216.039 233.026 216.316 233.827C216.86 235.122 215.513 236.107 214.956 237.221C213.85 239.471 212.577 241.636 211.148 243.696C210.768 244.251 210.25 244.697 209.646 244.992C205.864 247.064 202.328 249.641 197.99 250.509C197.454 250.655 196.909 250.764 196.358 250.833C197.498 250.833 198.689 250.185 199.751 251.144C197.538 251.54 195.29 251.718 193.042 251.675C190.394 251.946 187.786 252.524 185.271 253.397C183.73 253.876 183.264 256.078 184.209 257.671C183.082 260.922 183.199 264.406 182.279 267.683C182.179 268.35 181.881 268.973 181.425 269.47L166.09 269.587Z" fill="#FFC59F"/>
<path d="M101.189 255.897C101.643 255.975 102.096 255.392 102.485 255.806C102.873 256.221 102.368 256.557 102.251 256.92C100.956 260.495 99.7258 264.056 98.4695 267.631C98.1935 268.245 98.0606 268.914 98.081 269.587H89.6884C90.5043 262.308 94.8431 257.296 101.189 255.897Z" fill="#F6B992"/>
<path d="M181.308 269.587C181.947 265.943 182.573 262.304 183.186 258.668C183.199 258.435 183.299 258.214 183.467 258.051C183.635 257.888 183.859 257.794 184.093 257.788C187.739 260.217 190.312 263.954 191.281 268.227C191.345 268.678 191.345 269.136 191.281 269.587H181.308Z" fill="#F6B992"/>
<path d="M118.533 205.878C117.407 203.773 116.391 201.612 115.489 199.402C115.442 199.199 115.32 199.021 115.146 198.906C114.973 198.79 114.762 198.745 114.556 198.78C114.306 198.808 114.052 198.765 113.823 198.658C113.595 198.551 113.4 198.382 113.261 198.172C113.423 198.097 113.568 197.991 113.686 197.858C113.805 197.726 113.895 197.57 113.951 197.401C114.007 197.232 114.028 197.054 114.011 196.876C113.995 196.699 113.943 196.527 113.857 196.371C113.352 194.908 113.106 193.38 112.64 191.916C112.202 190.648 112.052 189.299 112.199 187.966C112.23 187.347 112.129 186.729 111.901 186.153C111.421 183.662 111.501 181.096 112.135 178.641C113.119 176.957 113.676 175.053 114.725 173.46C117.788 169.209 121.837 165.764 126.524 163.423C129.982 161.685 133.599 160.284 137.325 159.239C139.721 158.475 142.156 157.776 144.552 156.973C145.555 156.705 146.457 156.146 147.143 155.367C148.826 153.709 149.176 153.696 150.691 155.47C152.286 157.169 154.113 158.634 156.118 159.822C157.62 160.806 159.149 161.778 160.625 162.827C163.684 164.886 166.172 167.685 167.859 170.964C169.546 174.243 170.377 177.895 170.274 181.581C170.274 183.756 170.274 185.932 170.274 188.056C170.274 190.893 169.277 193.548 168.603 196.255C168.409 197.045 168.396 197.654 169.122 198.133C168.966 198.405 168.733 198.741 168.435 198.69C166.79 198.418 166.505 199.687 166.091 200.736C164.087 205.508 161.352 209.939 157.983 213.869C155.662 216.552 153.056 218.975 150.212 221.096C149.858 221.343 149.575 221.679 149.391 222.07C149.207 222.461 149.128 222.893 149.163 223.324C149.241 225.085 149.163 226.833 149.228 228.595C148.321 228.517 148.451 227.779 148.386 227.222C148.295 226.289 148.386 225.357 148.386 224.424C148.386 223.492 148.01 223.324 147.233 223.751C146.961 223.906 146.65 223.971 146.391 224.127C142.079 226.717 138.051 225.577 134.126 223.207C133.142 222.624 132.197 222.003 131.199 221.459C130.833 220.391 130.116 219.478 129.166 218.868C126.171 216.287 123.536 213.316 121.33 210.035L119.737 207.782C118.843 207.497 118.597 206.746 118.533 205.878Z" fill="#E9B07B" fill-opacity="0.78"/>
<path d="M169.835 181.296C169.869 177.606 168.964 173.968 167.206 170.724C165.448 167.48 162.894 164.735 159.785 162.749C156.799 161.003 153.962 159.015 151.301 156.804C150.968 156.553 150.675 156.252 150.434 155.911C149.605 154.292 148.621 154.227 147.442 155.548C146.432 156.265 145.279 156.755 144.062 156.986C140.241 157.711 136.433 158.501 132.69 159.576C127.768 160.936 123.067 162.814 119.246 166.375C116.658 168.891 114.728 172.004 113.625 175.442C113.25 176.504 112.939 177.579 112.641 178.654C112.102 181.208 112.001 183.836 112.343 186.424C112.563 186.684 112.473 187.007 112.486 187.305C112.499 187.603 112.486 187.888 112.265 187.992C112.113 188.037 111.95 188.028 111.804 187.967C111.657 187.905 111.537 187.795 111.462 187.655C109.779 184.806 107.577 182.202 107.409 178.589C104.883 171.648 104.327 164.145 105.803 156.908C107.173 149.763 110.904 143.286 116.397 138.517C116.876 138.232 117.07 138.439 117.019 138.918C116.945 139.328 116.73 139.7 116.41 139.967C113.3 143.329 110.918 147.297 109.416 151.624C108.998 152.785 108.707 153.987 108.548 155.211C108.121 157.802 107.253 160.301 107.525 162.982C107.102 165.746 106.912 168.54 106.955 171.336C106.989 172.482 107.154 173.621 107.447 174.729C108.011 172.694 108.677 170.688 109.442 168.72C113.561 158.98 121.098 153.178 130.916 150.005C131.81 149.73 132.739 149.591 133.674 149.59C134.97 149.979 134.413 150.6 133.791 151.054C132.373 152.014 130.894 152.88 129.361 153.644C126.262 155.311 123.288 157.203 120.464 159.304C115.905 162.788 112.201 166.881 111.398 172.592C113.91 165.3 119.764 160.871 126.447 157.245C131.317 154.654 136.524 152.647 141.316 149.849C142.504 149.337 143.791 149.094 145.085 149.137C147.336 149.149 149.553 149.685 151.561 150.704C155.608 154.205 160.066 157.202 164.836 159.628C165.028 159.744 165.203 159.888 165.354 160.055C166.028 161.026 166.834 161.898 167.75 162.645C170.072 165.573 171.781 168.938 172.775 172.54C172.891 173.263 173.132 173.96 173.488 174.6C174.235 171.181 174.191 167.637 173.358 164.238C171.551 156.837 166.897 150.447 160.406 146.456C157.59 144.646 154.54 143.23 151.34 142.247C150.628 142.101 149.967 141.771 149.423 141.288C148.569 139.993 149.048 138.271 148.128 136.962C148.073 136.988 148.025 137.026 147.987 137.073C147.949 137.12 147.922 137.175 147.908 137.234C147.533 139.825 146.056 141.055 143.388 140.731C139.248 140.618 135.107 140.935 131.032 141.677C129.815 140.952 130.721 140.382 131.227 139.902C132.9 138.433 134.713 137.132 136.64 136.017C137.663 135.408 138.713 134.851 139.684 134.359C133.945 135.785 128.7 138.739 124.505 142.907C124.191 143.254 123.914 143.632 123.676 144.034C123.106 144.578 122.523 145.083 121.642 144.772C120.93 143.879 121.448 143.101 121.901 142.363C123.292 140.126 124.887 138.023 126.668 136.082C127.017 135.706 127.639 135.473 127.509 134.787C128.727 133.75 130.1 132.922 131.291 131.885C131.651 131.616 132.09 131.476 132.539 131.488C132.988 131.5 133.42 131.662 133.765 131.95C134.601 132.573 135.628 132.884 136.668 132.829C137.709 132.775 138.698 132.359 139.464 131.652C140.824 130.59 141.575 130.629 142.961 131.652C143.716 132.336 144.68 132.743 145.697 132.806C146.714 132.87 147.722 132.586 148.556 132.002C149.001 131.684 149.543 131.531 150.089 131.568C150.635 131.606 151.15 131.833 151.548 132.209C152.173 132.753 152.84 133.246 153.542 133.686C154.371 134.139 155.316 134.631 156.132 134.113C158.256 132.818 160.018 133.725 161.922 134.709C170.781 140.032 175.042 148.114 175.987 158.203C176.462 164.816 175.823 171.462 174.096 177.863C174.394 180.247 173.073 182.202 172.4 184.339C172.09 185.211 171.691 186.049 171.208 186.839C171.001 187.189 170.729 187.616 170.276 187.525C169.822 187.435 169.965 186.852 169.939 186.489C170.007 184.758 169.972 183.023 169.835 181.296Z" fill="#DA682B"/>
<path d="M191.256 241.274C191.787 241.728 192.435 241.546 193.043 241.546C197.577 241.546 202.11 241.546 206.656 241.702C199.778 242.492 192.901 243.217 185.933 243.424C185.426 242.708 185.076 241.892 184.906 241.03C184.737 240.168 184.751 239.281 184.949 238.425C184.914 236.158 184.672 233.9 184.223 231.677C184.223 231.017 184.055 230.382 184.042 229.683C183.964 226.639 184.457 225.901 187.189 224.774C187.485 224.52 187.834 224.333 188.21 224.228C188.586 224.123 188.98 224.102 189.365 224.165C193.808 224.23 198.263 224.01 202.705 224.308C205.296 224.476 207.886 224.088 210.476 224.165C210.862 224.113 211.255 224.141 211.63 224.248C212.004 224.355 212.352 224.538 212.652 224.787C215.242 225.707 216.706 227.377 215.735 231.341C215.677 231.938 215.466 232.509 215.12 233C214.775 233.49 214.309 233.883 213.766 234.138C212.406 234.915 211.901 236.651 210.515 237.506C209.842 237 209.919 236.21 209.893 235.524C209.893 234.125 209.893 232.726 209.893 231.341C209.893 229.54 209.22 228.854 207.472 228.841C202.446 228.841 197.434 228.776 192.422 228.841C190.712 228.841 190.065 229.527 190.026 231.211C190.026 233.529 190.026 235.861 190.026 238.192C189.935 239.526 190.958 240.251 191.256 241.274Z" fill="#F4A7A4"/>
<path d="M131.264 221.433C131.492 221.271 131.773 221.2 132.05 221.234C132.328 221.267 132.583 221.403 132.767 221.614C134.473 222.87 136.359 223.862 138.362 224.554C139.49 225.01 140.709 225.195 141.921 225.094C143.134 224.992 144.306 224.608 145.343 223.971C146.298 223.631 147.218 223.197 148.088 222.676C148.71 222.171 148.956 222.909 148.969 223.44C148.969 224.632 148.969 225.823 148.969 227.002C148.969 227.559 148.801 228.154 149.293 228.621C149.785 229.087 149.474 229.657 149.629 230.162C150.113 230.888 150.444 231.703 150.604 232.56C150.765 233.417 150.75 234.297 150.562 235.148C150.774 236.553 151.165 237.924 151.728 239.228C150.808 239.643 150.432 238.723 149.953 238.36C145.938 235.459 141.833 232.687 137.002 231.315C135.557 230.779 134.035 230.482 132.495 230.434C131.199 230.499 130.668 229.89 130.914 228.608C131.044 226.186 131.407 223.816 131.264 221.433Z" fill="#FFC49E"/>
<path d="M97.4072 195.011C98.1672 197.137 98.1071 199.469 97.2389 201.552C97.0996 202.255 97.0517 202.973 97.0964 203.689C97.0947 205.785 96.8908 207.875 96.4877 209.932C98.4822 214.27 100.49 218.596 102.458 222.883C103.896 226.043 105.269 229.229 106.668 232.416C106.823 232.765 107.16 233.128 106.668 233.516C105.844 233.007 105.177 232.281 104.738 231.418C103.194 229.291 101.379 227.375 99.337 225.72C96.3618 223.16 94.2757 219.723 93.3793 215.902C92.9617 214.061 92.3315 212.275 91.5013 210.579C90.7631 209.284 91.2811 207.626 91.1257 206.15C91.7733 206.15 91.7992 205.709 91.9158 205.269C92.7965 202.212 93.5995 199.143 94.7133 196.203C94.8558 195.814 94.9205 195.348 95.2184 195.102C95.9882 194.236 96.6136 193.252 97.0705 192.188C97.744 193.069 97.3036 194.079 97.4072 195.011Z" fill="#FFC49E"/>
<path d="M153.346 112.95C155.627 113.712 157.567 115.253 158.825 117.302C160.455 119.886 161.609 122.742 162.231 125.733C162.472 126.955 162.468 128.212 162.222 129.432C161.975 130.652 161.49 131.812 160.794 132.844C158.764 132.489 156.676 132.718 154.771 133.504C154.645 133.539 154.512 133.542 154.383 133.515C154.255 133.488 154.135 133.431 154.033 133.349C152.642 132.584 151.393 131.585 150.342 130.396C150.277 129.71 150.717 129.243 151.015 128.712C152.764 125.72 154.37 122.664 154.447 119.089C154.661 117.281 154.164 115.461 153.062 114.012C152.427 113.274 152.531 113.183 153.346 112.95Z" fill="#DA672B"/>
<path d="M199.623 251.26H195.051V251.027C195.978 250.632 196.935 250.312 197.913 250.069C200.857 249.426 203.641 248.197 206.099 246.455C206.775 246.1 207.471 245.784 208.184 245.51C211.059 244.214 211.901 241.223 213.585 238.956C213.96 238.358 214.394 237.798 214.88 237.285C214.88 237.829 214.789 238.373 214.738 239.099C215.714 238.22 216.491 237.142 217.017 235.938C217.652 234.954 218.17 233.879 218.83 232.908C219.015 232.568 219.28 232.279 219.603 232.066C219.926 231.854 220.297 231.725 220.682 231.69C221.977 231.69 222.483 232.338 221.796 233.4C220.346 235.628 219.452 238.166 217.911 240.381C217.444 241.054 216.615 241.805 217.315 242.842C217.082 243.747 216.665 244.595 216.09 245.333C215.515 246.07 214.795 246.682 213.973 247.129C213.01 247.589 212.014 247.978 210.994 248.294C212.057 248.424 213.365 247.854 214.504 248.773C213.015 249.408 211.474 249.019 209.958 249.045C208.778 248.953 207.596 249.2 206.552 249.758C204.454 251.156 202.045 251.156 199.623 251.26Z" fill="#FFC49E"/>
<path d="M189.092 218.92C190.323 216.071 192.978 215.332 195.568 214.62C198.001 214.165 200.486 214.051 202.951 214.283C204.816 214.283 206.318 213.804 206.992 211.887C207.264 211.084 207.613 211.188 208.041 211.706C209.895 213.664 210.98 216.226 211.097 218.92C210.844 219.176 210.533 219.368 210.19 219.478C209.848 219.589 209.484 219.615 209.129 219.555C203.093 219.555 197.071 219.555 190.996 219.555C190.652 219.602 190.301 219.57 189.97 219.46C189.64 219.349 189.34 219.165 189.092 218.92Z" fill="#FDFEFE"/>
<path d="M120.747 123.545C121.094 120.317 122.609 117.327 125.008 115.139C125.47 114.307 126.157 113.622 126.991 113.164C127.826 112.706 128.772 112.493 129.722 112.549C133.911 111.628 138.229 111.449 142.479 112.018L142.622 112.212C143.71 114.802 143.244 117.393 142.881 119.983C142.518 122.573 141.806 124.93 141.288 127.404C141.225 127.711 141.121 128.007 140.977 128.285C140.718 128.777 140.472 129.502 139.811 129.321C139.151 129.14 139.319 128.363 139.41 127.832C139.901 124.836 140.118 121.801 140.057 118.765C140.028 117.213 139.815 115.67 139.423 114.168C139.19 113.326 138.711 112.795 137.726 113.028C134.825 113.701 131.898 114.155 129.243 115.774C123.816 119.076 122.301 124.464 125.487 130.02C125.888 130.733 126.445 131.419 126.044 132.326C125.799 132.515 125.498 132.617 125.189 132.617C124.88 132.617 124.579 132.515 124.334 132.326C123.417 131.422 122.593 130.428 121.873 129.36C120.745 127.646 120.34 125.556 120.747 123.545Z" fill="#EC7B37"/>
<path d="M169.834 181.296C170.468 183.238 169.834 185.259 170.222 187.525C172.152 184.378 172.955 181.05 174.108 177.889C174.575 178.305 174.95 178.813 175.208 179.382C175.467 179.951 175.604 180.567 175.61 181.192C175.916 184.09 175.613 187.02 174.721 189.795C173.829 192.569 172.367 195.127 170.43 197.304C170.29 197.528 170.1 197.717 169.876 197.856C169.651 197.996 169.397 198.081 169.134 198.107C168.733 198.185 168.331 198.301 167.93 198.34C167.528 198.379 167.269 198.133 167.464 197.666C169.374 192.811 170.162 187.587 169.769 182.384C169.834 182.021 169.834 181.697 169.834 181.296Z" fill="#F7BA92"/>
<path d="M124.503 131.937L126.018 132.313C126.691 132.486 127.398 132.469 128.062 132.263C128.725 132.057 129.318 131.671 129.774 131.147C130.424 130.414 131.327 129.953 132.302 129.857C133.277 129.761 134.252 130.037 135.033 130.629C135.528 130.996 136.138 131.174 136.753 131.131C137.368 131.088 137.947 130.828 138.387 130.396C139.137 129.737 140.095 129.365 141.092 129.343C142.09 129.322 143.063 129.653 143.84 130.279C144.346 130.801 145.037 131.103 145.764 131.12C146.491 131.137 147.195 130.868 147.725 130.37C148.125 130.068 148.61 129.9 149.111 129.891C149.362 129.847 149.62 129.871 149.859 129.959C150.098 130.048 150.309 130.199 150.471 130.396C151.549 130.882 152.532 131.558 153.372 132.391C153.515 132.591 153.7 132.759 153.914 132.882C154.128 133.005 154.366 133.081 154.611 133.104C154.857 133.128 155.105 133.098 155.338 133.017C155.571 132.937 155.784 132.807 155.962 132.637C157.581 131.341 159.161 132.222 160.742 132.818L161.907 134.709C161.091 134.864 160.34 135.033 159.654 134.243C159.373 133.968 159.003 133.802 158.612 133.776C158.22 133.75 157.831 133.865 157.517 134.1C155.341 135.253 153.955 135.033 152.051 133.362C150.147 131.691 150.225 131.782 147.984 132.883C147.188 133.336 146.266 133.521 145.356 133.409C144.446 133.297 143.596 132.894 142.933 132.261C142.725 132.002 142.462 131.791 142.164 131.643C141.865 131.495 141.538 131.414 141.206 131.405C140.873 131.397 140.542 131.461 140.237 131.593C139.931 131.725 139.658 131.922 139.436 132.17C137.442 133.828 135.887 133.854 133.634 132.429C133.444 132.251 133.219 132.117 132.972 132.034C132.725 131.952 132.464 131.924 132.205 131.952C131.947 131.98 131.698 132.064 131.475 132.198C131.252 132.332 131.061 132.512 130.914 132.727C129.974 133.76 128.783 134.532 127.456 134.968C127.295 135.143 127.09 135.271 126.861 135.338C126.633 135.404 126.39 135.406 126.161 135.343C125.93 135.275 125.708 135.18 125.5 135.059C125.12 134.665 124.605 134.432 124.059 134.405C123.512 134.379 122.977 134.561 122.56 134.916C122.003 135.305 121.369 135.628 120.747 134.916C120.643 134.087 121.265 133.504 121.446 132.766C122.249 131.872 123.13 131.186 124.503 131.937Z" fill="#C6DD79"/>
<path d="M107.407 178.524C108.605 181.741 110.16 184.812 112.044 187.681C112.51 187.215 112.199 186.722 112.342 186.308C112.433 186.489 112.614 186.671 112.601 186.839C112.42 190.66 113.754 194.17 114.88 197.718C115.101 198.405 114.738 198.418 114.272 198.366C113.922 198.307 113.577 198.229 113.236 198.133C112.188 197.683 111.319 196.9 110.762 195.905C108.006 192.005 106.514 187.353 106.488 182.578C106.581 181.187 106.891 179.819 107.407 178.524Z" fill="#F7BA92"/>
<path d="M214.542 248.76H209.659L209.465 248.346C211.091 248.024 212.632 247.367 213.99 246.417C215.347 245.467 216.493 244.245 217.353 242.829L222.87 234.073C223.036 233.781 223.265 233.529 223.54 233.336C223.816 233.143 224.131 233.014 224.463 232.959C225.046 232.895 225.758 232.7 226.186 233.309C226.613 233.918 225.991 234.332 225.745 234.799C225.279 235.653 224.8 236.508 224.269 237.324C223.738 238.14 223.129 238.814 224.67 239.202C225.266 239.358 225.24 239.927 224.826 240.303C221.995 243.288 218.881 245.991 215.527 248.372C215.21 248.528 214.88 248.658 214.542 248.76Z" fill="#FFC49E"/>
<path d="M120.735 134.994C120.988 135.041 121.248 135.031 121.496 134.966C121.745 134.901 121.976 134.782 122.173 134.618C123.378 133.323 124.53 133.724 125.67 134.722C122.653 136.184 119.999 138.299 117.899 140.913C115.058 144.465 112.961 148.552 111.734 152.932C111.614 153.326 111.583 153.742 111.643 154.149C111.436 155.444 110.413 156.403 109.882 157.568C109.15 158.936 108.544 160.366 108.069 161.842C107.939 162.347 107.849 163.021 107.059 163.008C106.918 159.148 107.534 155.299 108.872 151.675C109.705 148.644 111.117 145.803 113.029 143.309C114.156 141.949 115.153 140.433 116.423 139.164C116.617 138.97 117.174 138.646 116.423 138.452C117.627 137.014 119.324 136.237 120.735 134.994Z" fill="#EB7937"/>
<path d="M189.093 218.92H211.11C212.509 218.829 212.898 219.568 212.678 220.798C212.562 220.939 212.415 221.052 212.249 221.129C212.083 221.205 211.902 221.242 211.719 221.238C208.429 221.385 205.148 221.61 201.876 221.912C198.547 222.223 195.219 222.339 191.89 222.715C190.362 222.883 188.717 223.285 187.228 222.339V221.73C187.577 220.837 188.458 220.979 189.093 220.992C191.113 220.992 193.082 220.474 194.675 220.604C192.797 220.604 190.517 220.953 188.199 221.083C188.023 221.126 187.839 221.121 187.666 221.069C187.493 221.016 187.337 220.918 187.215 220.785C186.826 219.127 187.798 218.868 189.093 218.92Z" fill="#EE7D7F"/>
<path d="M212.69 224.839H187.24V223.311C187.381 223.16 187.551 223.04 187.741 222.957C187.93 222.875 188.134 222.832 188.341 222.831C193.068 222.767 197.756 222.171 202.471 221.86C205.346 221.666 208.221 221.549 211.071 221.2C211.679 221.122 212.366 220.979 212.664 221.731V222.365C212.301 222.935 211.679 222.909 211.148 222.961C208.947 223.168 206.732 223.246 205.217 223.44C206.615 223.285 208.701 223.142 210.799 223.013C211.485 223.013 212.288 222.65 212.664 223.608L212.69 224.839Z" fill="#EC7B7E"/>
<path d="M150.511 130.422L149.009 130.331C148.75 129.671 149.138 129.127 149.372 128.57C150.502 125.898 151.298 123.096 151.742 120.229C151.833 119.564 151.871 118.893 151.858 118.221C151.742 114.841 149.656 112.834 146.095 112.588C144.89 112.497 143.595 112.95 142.494 112.082C144.264 111.444 146.151 111.194 148.026 111.351C149.901 111.507 151.721 112.066 153.361 112.989C153.102 113.054 152.804 113.144 153.128 113.468C155.86 116.214 155.213 119.452 154.423 122.651C153.606 125.459 152.28 128.093 150.511 130.422Z" fill="#EC7B39"/>
<path d="M97.1235 192.188C97.1939 192.73 97.125 193.28 96.9233 193.788C96.7216 194.296 96.3938 194.743 95.9708 195.089C94.9994 195.944 94.7404 197.679 94.313 199.104C93.5359 201.604 92.8495 204.142 92.1242 206.668C92.0387 206.879 91.9346 207.083 91.8133 207.277L91.1787 206.202C90.475 202.937 89.969 199.632 89.6634 196.307C89.5468 195.115 90.2721 194.765 91.3471 195.374C92.3301 196.001 93.0666 196.948 93.4323 198.055C93.769 196.035 94.0151 194.442 94.326 192.874C94.4684 192.201 94.4166 191.385 95.2196 191.009C96.0226 190.634 96.5148 190.841 96.8645 191.618L97.1235 192.188Z" fill="#F7BA93"/>
<path d="M219.051 108.715C219.711 107.86 218.222 106.423 219.426 105.93C220.631 105.438 221.11 104.247 222.405 104.273C223.403 104.273 226.058 106.435 225.682 106.863C224.814 107.886 226.55 109.453 224.97 110.101C223.959 110.502 223.403 111.655 222.224 111.655C221.473 111.668 218.973 109.311 219.051 108.715Z" fill="#E8F6F6"/>
<path d="M149.422 89.4431C149.422 88.938 148.956 87.9407 149.798 87.5521C150.639 87.1636 151.572 86.257 152.686 86.257C153.8 86.257 156.027 87.9666 155.781 88.6919C155.406 89.741 156.455 90.9714 155.457 91.7744C154.585 92.4765 153.581 92.9962 152.504 93.3026C151.52 93.5746 151.093 92.2536 150.147 92.0075C149.202 91.7614 149.344 91.6578 149.422 89.4431Z" fill="#E9F6F7"/>
<path d="M225.758 200.218C225.667 200.878 226.056 201.876 225.447 202.109C224.385 202.51 223.686 203.572 222.533 203.663C221.626 203.728 219.036 201.552 219.334 201.073C219.917 200.037 218.518 198.716 219.684 198.042C220.642 197.485 221.523 196.371 222.546 196.462C223.623 196.73 224.608 197.285 225.395 198.068C226.069 198.534 225.654 199.48 225.758 200.218Z" fill="#E8F6F7"/>
<path d="M59.0714 92.1629C59.0714 92.9659 56.5459 94.9345 55.6263 94.9345C55.0046 94.9345 52.22 92.953 52.4143 92.6033C52.9583 91.5283 51.8962 90.2331 52.764 89.3913C53.517 88.5551 54.5217 87.9868 55.6263 87.7723C56.6857 87.9519 57.6657 88.4487 58.4368 89.197C59.46 89.9741 58.4497 91.3081 59.0714 92.1629Z" fill="#E9F6F7"/>
<path d="M103.237 238.878C102.939 239.824 103.884 241.041 102.835 241.469C101.786 241.896 100.983 243.114 99.947 242.958C98.8641 242.695 97.8851 242.113 97.1365 241.287C96.2946 240.471 97.2531 239.137 96.6443 238.088C96.4371 237.726 99.4937 235.628 100.064 235.705C101.333 235.913 103.34 237.959 103.237 238.878Z" fill="#E9F6F7"/>
<path d="M100.077 150.847C99.0275 150.847 96.2947 148.748 96.5667 148.256C97.0977 147.207 95.9191 145.899 97.0847 145.083C97.9514 144.46 98.902 143.963 99.9082 143.607C100.504 143.399 103.47 145.886 103.224 146.197C102.265 147.194 103.664 148.787 102.498 149.435C101.742 149.988 100.931 150.461 100.077 150.847Z" fill="#E8F6F6"/>
<path d="M196.527 142.169C197.822 142.169 200.128 144.06 199.882 144.759C199.545 145.757 200.426 147.155 199.48 147.66C198.535 148.166 197.732 149.085 196.605 149.228C195.763 149.331 193.225 147.298 193.471 146.637C193.898 145.588 192.836 144.345 193.82 143.542C194.674 142.993 195.581 142.533 196.527 142.169Z" fill="#E8F6F6"/>
<path d="M52.6744 184.43C53.2831 183.497 51.975 181.93 53.05 181.373C53.9377 180.733 54.9096 180.219 55.9382 179.845C56.534 179.729 59.3445 181.866 59.1502 182.202C58.5156 183.303 59.9143 184.702 58.7487 185.57C57.8396 186.208 56.8074 186.649 55.718 186.865C54.7726 187.046 52.7003 185.285 52.6744 184.43Z" fill="#E9F7F7"/>
<path d="M185.001 238.477C185.464 240.114 185.793 241.786 185.985 243.476C183.498 244.007 180.804 243.671 178.447 244.888C178.175 244.292 178.926 244.007 178.823 243.502C179.405 242.647 180.001 241.818 180.558 240.912C180.962 240.102 181.604 239.434 182.398 238.999C183.192 238.564 184.1 238.382 185.001 238.477Z" fill="#FFC49E"/>
<path d="M212.664 221.718C211.291 221.135 209.931 221.718 208.571 221.808C205.307 221.964 202.095 222.508 198.78 222.611C194.894 222.741 191.112 223.427 187.24 223.298V222.339C191.799 222.469 196.306 221.731 200.8 221.484C204.763 221.264 208.713 220.707 212.69 220.798C213.091 221.122 212.819 221.42 212.664 221.718Z" fill="#F5A29E"/>
<path d="M172.955 111.228C172.969 111.52 172.925 111.813 172.826 112.088C172.726 112.364 172.574 112.617 172.376 112.834C172.179 113.05 171.941 113.226 171.676 113.35C171.411 113.475 171.123 113.546 170.831 113.559C170.226 113.513 169.659 113.243 169.242 112.803C168.824 112.363 168.584 111.783 168.57 111.177C168.555 110.57 168.767 109.98 169.163 109.52C169.559 109.06 170.112 108.764 170.714 108.689C171.724 108.573 172.877 109.881 172.955 111.228Z" fill="#E7F5F5"/>
<path d="M173.227 203.236C173.227 204.453 171.996 205.904 170.999 205.826C170.415 205.679 169.895 205.347 169.514 204.881C169.134 204.414 168.914 203.837 168.888 203.236C168.887 202.635 169.119 202.057 169.534 201.623C169.949 201.188 170.516 200.931 171.116 200.904C171.698 200.95 172.242 201.218 172.634 201.651C173.026 202.084 173.239 202.651 173.227 203.236Z" fill="#E7F6F6"/>
<path d="M76.2976 204.919C76.1551 205.36 76.712 205.968 76.168 206.318C75.5522 206.771 74.8521 207.097 74.1087 207.277C73.1633 207.445 71.9199 205.981 71.9458 204.829C71.9494 204.243 72.1697 203.679 72.5644 203.246C72.959 202.813 73.4999 202.542 74.0829 202.484C74.6897 202.539 75.2539 202.82 75.6639 203.271C76.074 203.722 76.3001 204.31 76.2976 204.919Z" fill="#E7F6F6"/>
<path d="M211.097 165.663C211.097 164.497 212.392 163.073 213.363 163.397C214.14 163.643 215.435 163.578 215.41 165.016C215.41 166.66 214.451 168.111 213.35 168.163C212.249 168.215 211.084 166.712 211.097 165.663Z" fill="#E7F6F6"/>
<path d="M71.8672 112.717C71.945 111.655 73.2401 110.127 74.0302 110.23C74.6896 110.381 75.2758 110.757 75.6873 111.294C76.0988 111.831 76.3098 112.494 76.2837 113.17C76.1113 113.659 75.8156 114.094 75.4253 114.435C75.035 114.775 74.5633 115.009 74.0561 115.113C73.494 114.977 72.9853 114.677 72.5953 114.25C72.2053 113.823 71.9518 113.289 71.8672 112.717Z" fill="#E8F6F6"/>
<path d="M222.935 257.334C222.897 257.936 222.66 258.508 222.262 258.961C221.863 259.413 221.326 259.72 220.733 259.834C220.171 259.706 219.662 259.407 219.277 258.978C218.892 258.549 218.65 258.011 218.583 257.438C218.661 256.858 218.913 256.316 219.306 255.883C219.699 255.45 220.215 255.148 220.785 255.016C221.322 255.167 221.807 255.464 222.186 255.873C222.566 256.282 222.825 256.788 222.935 257.334Z" fill="#E7F6F6"/>
<path d="M124.504 131.937C123.338 131.717 122.561 132.792 121.473 132.844C120.669 131.444 120.189 129.882 120.07 128.272C119.952 126.663 120.196 125.047 120.786 123.545C121.33 124.231 120.968 125.047 121.097 125.798C121.4 127.592 122.251 129.248 123.532 130.538C123.893 130.978 124.217 131.446 124.504 131.937Z" fill="#DB6B2E"/>
<path d="M56.7661 248.152C55.5357 248.152 54.8234 247.31 54.8493 245.911C54.8186 245.626 54.8521 245.338 54.9474 245.068C55.0426 244.798 55.1972 244.553 55.3997 244.35C55.6022 244.148 55.8475 243.993 56.1176 243.898C56.3877 243.803 56.6757 243.769 56.9604 243.8C57.2579 243.769 57.5587 243.803 57.8413 243.901C58.1239 243.999 58.3814 244.159 58.5954 244.368C58.8094 244.577 58.9746 244.83 59.0793 245.111C59.184 245.391 59.2255 245.691 59.201 245.989C59.1881 247.414 58.3462 248.152 56.7661 248.152Z" fill="#EAF7F7"/>
<path d="M160.121 234.553C160.092 234.974 159.945 235.378 159.696 235.719C159.448 236.059 159.107 236.322 158.714 236.477C158.322 236.631 157.894 236.671 157.479 236.592C157.065 236.513 156.681 236.318 156.374 236.029C156.066 235.74 155.847 235.37 155.741 234.962C155.636 234.553 155.648 234.123 155.777 233.721C155.907 233.32 156.147 232.963 156.472 232.693C156.796 232.423 157.19 232.25 157.608 232.195C157.931 232.172 158.255 232.216 158.56 232.324C158.865 232.432 159.144 232.603 159.38 232.824C159.616 233.045 159.804 233.313 159.931 233.611C160.059 233.908 160.123 234.229 160.121 234.553Z" fill="#EAF7F7"/>
<path d="M56.8451 153.359C56.2244 153.339 55.6368 153.074 55.21 152.623C54.7832 152.172 54.5516 151.571 54.5656 150.95C54.599 150.414 54.8391 149.912 55.2353 149.55C55.6315 149.187 56.1529 148.993 56.6897 149.007C57.2873 149.077 57.8471 149.336 58.2875 149.746C58.7278 150.156 59.0256 150.696 59.1375 151.287C59.043 151.839 58.7656 152.344 58.3499 152.72C57.9341 153.095 57.4042 153.321 56.8451 153.359Z" fill="#EBF7F8"/>
<path d="M219.529 144.254C219.543 144.512 219.501 144.77 219.407 145.011C219.313 145.252 219.168 145.47 218.983 145.65C218.798 145.83 218.576 145.969 218.333 146.056C218.09 146.144 217.831 146.179 217.573 146.158C216.563 146.016 215.449 145.795 215.514 144.345C215.579 142.894 216.304 142.143 217.586 142.182C217.858 142.159 218.132 142.199 218.387 142.297C218.642 142.395 218.871 142.55 219.058 142.749C219.245 142.948 219.384 143.187 219.466 143.448C219.547 143.708 219.569 143.984 219.529 144.254Z" fill="#EBF7F8"/>
<path d="M96.3456 95.5563C96.8805 95.6057 97.375 95.8623 97.7234 96.2712C98.0719 96.6801 98.2467 97.209 98.2106 97.7451C98.2066 98.0073 98.1481 98.2659 98.0388 98.5043C97.9295 98.7428 97.7717 98.9558 97.5756 99.13C97.3795 99.3042 97.1493 99.4357 96.8996 99.5161C96.65 99.5965 96.3863 99.6241 96.1254 99.5971C95.8789 99.622 95.63 99.5913 95.3969 99.5073C95.1638 99.4232 94.9525 99.288 94.7786 99.1116C94.6046 98.9352 94.4724 98.722 94.3917 98.4877C94.311 98.2535 94.2838 98.0041 94.3122 97.758C94.2736 97.4742 94.2981 97.1854 94.3842 96.9122C94.4703 96.6391 94.6157 96.3883 94.81 96.1779C95.0043 95.9675 95.2427 95.8026 95.5082 95.6952C95.7737 95.5877 96.0596 95.5403 96.3456 95.5563Z" fill="#EAF7F8"/>
<path d="M193.017 94.002C194.313 94.002 195.025 94.5978 194.973 95.88C194.921 97.1622 194.559 97.9393 193.238 98.0429C192.967 98.0673 192.695 98.0315 192.44 97.9382C192.185 97.8449 191.954 97.6964 191.764 97.5033C191.573 97.3101 191.427 97.0772 191.337 96.8212C191.247 96.5652 191.215 96.2924 191.243 96.0225C191.23 94.7791 191.761 94.0538 193.017 94.002Z" fill="#EAF7F7"/>
<path d="M118.832 237.557V236.962C119.699 236.029 121.733 235.602 122.251 236.34C122.501 236.7 122.661 237.115 122.72 237.549C122.779 237.984 122.733 238.426 122.588 238.84C122.316 239.63 121.668 239.707 120.969 239.759C120.556 239.821 120.135 239.743 119.772 239.539C119.408 239.335 119.123 239.016 118.961 238.632C118.864 238.283 118.82 237.92 118.832 237.557Z" fill="#EAF7F8"/>
<path d="M193.367 190.038C193.101 190.077 192.829 190.057 192.572 189.977C192.315 189.898 192.079 189.762 191.882 189.579C191.684 189.396 191.53 189.172 191.431 188.922C191.331 188.672 191.289 188.403 191.308 188.134C191.23 186.969 192.111 186.321 193.419 186.282C193.664 186.25 193.913 186.273 194.148 186.351C194.383 186.428 194.598 186.558 194.776 186.729C194.954 186.901 195.091 187.111 195.176 187.343C195.262 187.575 195.295 187.823 195.271 188.069C195.3 188.33 195.272 188.593 195.188 188.841C195.103 189.089 194.965 189.315 194.783 189.503C194.601 189.691 194.38 189.837 194.135 189.929C193.89 190.022 193.628 190.059 193.367 190.038Z" fill="#EAF7F7"/>
<path d="M150.601 235.097C150.123 233.47 149.81 231.8 149.669 230.11C150.242 229.964 150.848 230.012 151.392 230.246C151.935 230.48 152.386 230.888 152.674 231.405C152.848 231.684 152.957 231.999 152.993 232.326C153.03 232.652 152.993 232.983 152.885 233.294C152.777 233.604 152.6 233.887 152.369 234.12C152.137 234.354 151.856 234.532 151.547 234.643L150.601 235.097Z" fill="#E6F5F3"/>
<path d="M96.865 191.592L95.2202 190.983C94.7798 190.401 93.925 189.934 94.5855 189.002C94.782 188.579 95.119 188.236 95.5393 188.033C95.9595 187.83 96.4371 187.779 96.8909 187.888C97.297 187.97 97.6631 188.188 97.9291 188.506C98.195 188.823 98.345 189.222 98.3544 189.636C98.4081 189.865 98.4105 190.103 98.3615 190.333C98.3124 190.563 98.2132 190.779 98.0708 190.966C97.9285 191.152 97.7466 191.306 97.5381 191.414C97.3296 191.522 97.0998 191.583 96.865 191.592Z" fill="#EAF7F7"/>
<path d="M129.685 112.575C128.001 113.215 126.414 114.087 124.971 115.165C123.676 113.598 123.792 112.937 125.683 112.095C125.974 111.996 126.246 111.847 126.486 111.655C126.624 111.482 126.805 111.348 127.009 111.265C127.214 111.182 127.437 111.152 127.656 111.18C127.876 111.207 128.085 111.29 128.263 111.421C128.441 111.552 128.583 111.726 128.675 111.927C128.973 112.29 129.426 112.303 129.685 112.575Z" fill="#EBF5F3"/>
<path d="M68.216 142.648C68.216 143.943 67.8016 144.785 66.636 144.928C65.7941 145.018 64.8098 143.762 64.7839 142.842C64.7839 141.457 65.9107 141.185 66.7266 141.146C67.5426 141.107 68.5398 141.547 68.216 142.648Z" fill="#E6F5F5"/>
<path d="M68.5263 234.954C68.5263 235.977 67.2959 237.363 66.6095 237.104C65.9231 236.845 65.0164 236.392 65.0423 235.161C65.0225 234.92 65.0556 234.678 65.1392 234.451C65.2228 234.225 65.355 234.019 65.5265 233.849C65.6981 233.678 65.9047 233.548 66.132 233.466C66.3594 233.384 66.6019 233.352 66.8426 233.374C67.5809 233.4 68.8113 233.75 68.5263 234.954Z" fill="#E4F5F4"/>
<path d="M212.676 223.596C210.578 223.052 208.519 223.686 206.447 223.79C205.086 223.963 203.706 223.901 202.367 223.608C205.734 222.598 209.257 222.883 212.728 222.313C213.169 222.767 212.858 223.142 212.676 223.596Z" fill="#F4A39F"/>
<path d="M229.178 93.2249C229.022 91.9298 229.864 91.6448 230.784 91.6578C231.703 91.6707 232.299 92.3701 232.273 93.4192C232.295 93.6276 232.269 93.8383 232.197 94.0351C232.125 94.2319 232.009 94.4096 231.858 94.5547C231.707 94.6997 231.524 94.8082 231.324 94.8718C231.125 94.9354 230.913 94.9524 230.706 94.9216C229.696 94.9216 229.035 94.3388 229.178 93.2249Z" fill="#EAF7F7"/>
<path d="M232.389 185.298C232.208 186.127 232.091 186.943 230.848 186.955C229.605 186.968 229.281 186.088 229.255 185.155C229.229 184.223 229.799 183.756 230.848 183.782C231.897 183.808 232.35 184.287 232.389 185.298Z" fill="#EAF7F8"/>
<path d="M187.253 220.785C190.655 220.352 194.082 220.157 197.511 220.202V220.63C196.32 220.798 195.115 221.005 193.911 221.096C191.968 221.251 190.025 221.329 188.069 221.459C187.765 221.511 187.47 221.603 187.189 221.73C187.094 221.588 187.049 221.418 187.06 221.247C187.072 221.076 187.14 220.913 187.253 220.785Z" fill="#F1A49D"/>
<path d="M129.217 93.7041C128.997 93.7368 128.772 93.7187 128.56 93.6514C128.348 93.5841 128.154 93.4692 127.993 93.3156C127.832 93.162 127.708 92.9737 127.63 92.7649C127.553 92.5562 127.524 92.3326 127.546 92.1111C127.546 91.0361 128.026 90.6217 129.01 90.5828C129.994 90.544 130.655 91.0232 130.668 92.124C130.697 92.3272 130.68 92.5343 130.62 92.7304C130.559 92.9264 130.456 93.1066 130.317 93.2578C130.178 93.409 130.007 93.5274 129.817 93.6046C129.627 93.6818 129.422 93.7158 129.217 93.7041Z" fill="#E9F7F7"/>
<path d="M215.525 207.445C214.463 207.445 213.945 206.914 213.932 205.917C213.919 204.919 214.372 204.285 215.396 204.362C216.419 204.44 217.066 204.868 217.041 205.994C217.053 206.194 217.022 206.393 216.949 206.579C216.876 206.765 216.764 206.933 216.62 207.071C216.475 207.21 216.303 207.315 216.114 207.379C215.925 207.444 215.724 207.466 215.525 207.445Z" fill="#E9F7F7"/>
<path d="M119.776 115.385C119.944 116.784 118.805 116.797 117.95 116.849C117.095 116.9 116.655 116.331 116.655 115.437C116.655 114.258 117.445 113.947 118.39 113.922C119.336 113.896 119.893 114.349 119.776 115.385Z" fill="#E9F7F7"/>
<path d="M216.732 113.844C216.576 114.673 216.11 115.398 215.177 115.385C214.969 115.385 214.762 115.343 214.571 115.261C214.379 115.178 214.207 115.058 214.063 114.906C213.92 114.754 213.81 114.575 213.738 114.379C213.667 114.183 213.637 113.974 213.649 113.766C213.649 112.73 214.284 112.316 215.268 112.341C215.467 112.327 215.667 112.357 215.854 112.428C216.04 112.499 216.209 112.61 216.349 112.753C216.488 112.896 216.594 113.068 216.661 113.256C216.727 113.445 216.751 113.645 216.732 113.844Z" fill="#EAF6F7"/>
<path d="M118.533 205.878C119.271 206.292 119.258 207.173 119.828 207.756C119.828 208.818 119.219 209.051 118.326 208.973C117.982 208.973 117.653 208.837 117.41 208.594C117.167 208.351 117.031 208.022 117.031 207.678C116.927 206.461 117.342 205.865 118.533 205.878Z" fill="#EAF7F7"/>
<path d="M76.6602 169.846C77.4762 169.976 77.9554 170.377 77.8388 171.206C77.7223 172.035 77.1783 172.32 76.453 172.268C75.7277 172.217 75.2874 171.854 75.378 171.064C75.3977 170.736 75.541 170.428 75.7791 170.202C76.0171 169.976 76.332 169.849 76.6602 169.846Z" fill="#E8F6F6"/>
<path d="M94.0809 131.937C94.7673 132.067 95.2983 132.326 95.2206 133.129C95.2312 133.299 95.2044 133.469 95.1421 133.627C95.0798 133.786 94.9835 133.929 94.86 134.046C94.7366 134.163 94.5889 134.252 94.4275 134.306C94.266 134.36 94.0947 134.378 93.9255 134.359C93.7691 134.363 93.6136 134.335 93.4691 134.275C93.3246 134.215 93.1943 134.125 93.0868 134.011C92.9792 133.898 92.8969 133.763 92.845 133.615C92.7931 133.467 92.7729 133.311 92.7857 133.155C92.8116 132.365 93.3297 131.989 94.0809 131.937Z" fill="#EAF7F7"/>
<path d="M96.489 209.932C95.6601 207.743 96.7351 205.748 97.0977 203.689C97.5899 203.326 97.2661 202.718 97.3827 202.523C97.3827 204.686 97.3827 207.082 97.3827 209.478C97.305 210.022 96.9553 210.191 96.489 209.932Z" fill="#D5E6E0"/>
<path d="M191.256 241.274C190.66 241.081 190.149 240.689 189.809 240.162C189.469 239.636 189.322 239.009 189.391 238.386C189.391 235.951 189.391 233.516 189.391 231.082C189.391 229.1 190.271 228.206 192.214 228.206C197.343 228.206 202.468 228.206 207.588 228.206C209.686 228.206 210.502 229.061 210.528 231.146C210.554 233.232 210.528 235.382 210.528 237.506C210.334 238.575 209.763 239.54 208.92 240.227C208.077 240.913 207.017 241.275 205.93 241.249L191.256 241.274Z" fill="#FEFEFE"/>
<path d="M139.852 166C137.827 165.96 135.812 166.293 133.907 166.984C130.02 168.354 126.229 169.986 122.562 171.867C121.914 172.178 121.15 172.722 120.58 172.048C120.01 171.375 120.671 170.688 121.15 170.157C125.329 165.53 130.955 162.457 137.106 161.441C141.267 160.582 145.572 160.719 149.67 161.842C150.933 162.126 152.133 162.645 153.205 163.371C153.516 163.604 153.944 163.876 153.827 164.355C153.71 164.834 153.218 164.834 152.817 164.912L150.848 165.262C150.77 165.624 151.055 165.689 151.263 165.831C151.47 165.974 151.988 166.233 151.845 166.634C151.703 167.036 151.159 167.036 150.77 166.971C146.327 166.373 141.807 167.15 137.819 169.199C137.353 169.406 136.783 169.834 136.433 169.29C136.083 168.746 136.796 168.525 137.055 168.176C137.875 167.316 138.818 166.583 139.852 166Z" fill="#FEFEFD"/>
<path d="M112.64 178.537C112.853 175.88 113.623 173.297 114.899 170.956C116.176 168.615 117.93 166.569 120.048 164.951C125.229 160.754 131.458 159.097 137.805 157.737C141.03 157.05 144.281 156.506 147.441 155.548C146.918 156.214 146.264 156.767 145.521 157.172C144.777 157.578 143.958 157.827 143.115 157.905C140.227 158.462 137.61 159.783 134.774 160.495C130.752 161.572 126.942 163.324 123.506 165.676C118.857 168.759 114.893 172.514 113.015 178.006C112.923 178.204 112.795 178.384 112.64 178.537Z" fill="#F6BB93"/>
<path d="M156.066 208.701L154.382 209.996C154.136 210.178 153.851 210.411 153.566 210.152C153.281 209.893 153.566 209.582 153.734 209.375C154.499 208.455 155.289 207.574 156.053 206.668C158.235 203.87 160.038 200.795 161.415 197.524C162.088 196.048 163.422 194.934 163.668 193.146C163.673 193.081 163.691 193.018 163.721 192.96C163.752 192.903 163.794 192.852 163.845 192.812C163.897 192.772 163.956 192.743 164.019 192.727C164.082 192.711 164.148 192.708 164.212 192.719C164.536 192.797 164.523 193.095 164.562 193.341C164.771 195.137 164.59 196.957 164.031 198.677C162.714 203.757 159.92 208.332 156.001 211.823C155.777 212.034 155.534 212.224 155.276 212.392C154.978 212.574 154.602 212.898 154.291 212.651C153.98 212.405 154.291 211.913 154.524 211.602C155.068 210.709 155.664 209.841 156.247 209.012L156.066 208.701Z" fill="#FDFDFC"/>
<path d="M122.159 197.848C122.703 198.12 122.897 198.728 123.156 199.246C124.102 201.137 124.956 203.132 125.902 204.971C127.705 208.284 130.047 211.273 132.831 213.817C133.789 214.762 134.748 215.695 135.693 216.653C135.913 216.861 136.224 217.107 136.056 217.431C135.888 217.754 135.434 217.702 135.098 217.586C132.871 216.737 130.84 215.446 129.127 213.791C125.294 210.525 122.614 206.11 121.485 201.202C121.347 200.39 121.312 199.563 121.382 198.741C121.371 198.631 121.383 198.52 121.417 198.414C121.451 198.309 121.506 198.211 121.578 198.128C121.651 198.044 121.74 197.976 121.84 197.928C121.94 197.88 122.048 197.852 122.159 197.848Z" fill="#FCFDFB"/>
<path d="M150.161 187.176C150.505 186.08 151.069 185.067 151.819 184.197C152.006 183.655 152.318 183.165 152.73 182.767C153.141 182.368 153.642 182.073 154.189 181.904C157.432 180.414 161.085 180.067 164.55 180.92C164.8 180.998 165.027 181.136 165.211 181.322L166.506 181.477C163.255 182.461 164.33 185.44 163.009 187.202C162.711 187.266 162.582 187.085 162.465 186.865C162.353 186.473 162.331 186.062 162.401 185.66C162.569 183.523 162.569 183.523 160.367 183.355C160.225 183.51 159.473 182.979 159.94 183.873C160.426 184.652 160.596 185.587 160.416 186.488C160.235 187.388 159.717 188.186 158.968 188.717C158.528 189.102 157.996 189.369 157.423 189.491C156.85 189.612 156.256 189.586 155.697 189.413C155.137 189.241 154.631 188.928 154.227 188.504C153.822 188.081 153.533 187.561 153.386 186.994C153.037 185.816 152.674 185.803 151.897 186.528C151.405 186.852 151.21 187.564 150.537 187.655C150.2 187.59 150.058 187.461 150.161 187.176Z" fill="#5B150E"/>
<path d="M119.465 187.253C119.042 186.661 118.751 185.986 118.61 185.272C118.053 182.953 118.066 182.953 116.279 181.451C119.893 181.283 123.39 180.557 126.835 181.904C128.083 182.323 129.221 183.019 130.161 183.941C131.101 184.863 131.819 185.987 132.261 187.227C132.417 187.525 132.404 187.784 132.054 187.94C131.368 187.94 131.212 187.098 130.629 186.904C130.241 187.02 130.085 187.357 129.878 187.642C128.583 189.52 126.757 190.012 124.97 189.015C124.128 188.548 123.497 187.776 123.208 186.858C122.918 185.939 122.993 184.945 123.415 184.08C123.53 183.873 123.625 183.657 123.7 183.433C123.092 183.355 122.483 183.433 121.9 183.355C119.957 183.575 119.957 183.575 120.074 185.596C120.157 186.023 120.157 186.463 120.074 186.891C119.906 187.163 119.75 187.331 119.465 187.253Z" fill="#5B150F"/>
<path d="M149.318 209.012C147.518 211.602 145.433 213.649 142.143 214.063C140.462 214.249 138.763 213.926 137.267 213.136C135.771 212.347 134.546 211.127 133.751 209.634C134.191 209.103 134.735 209.206 135.305 209.362C139.349 210.398 143.605 210.254 147.57 208.947C148.114 208.792 148.762 208.494 149.318 209.012Z" fill="#ED7C7E"/>
<path d="M149.681 203.275C149.241 203.003 148.826 203.546 148.58 203.171C148.334 202.795 148.813 202.575 148.995 202.303C150.601 199.998 152.492 197.848 152.777 194.869C152.777 194.493 152.841 194.027 153.346 193.872C153.463 194.584 154.486 194.273 154.642 194.998C154.642 195.296 154.642 195.607 154.642 195.944C155.134 195.672 155.03 194.649 155.652 194.934C156.274 195.219 156.027 195.879 155.937 196.462C155.707 198.103 155.088 199.665 154.13 201.017C153.172 202.369 151.904 203.472 150.432 204.233C150.044 204.453 149.565 204.88 149.137 204.44C148.71 204 149.565 203.715 149.681 203.275Z" fill="#FDFDFC"/>
<path d="M133.13 173.667C134.632 171.828 136.704 171.388 138.543 170.896C143.336 169.551 148.387 169.417 153.243 170.507C153.787 170.637 154.849 170.507 154.746 171.219C154.642 171.932 153.619 171.699 153.023 171.634C147.043 171.179 141.03 171.842 135.293 173.589C134.598 173.843 133.841 173.87 133.13 173.667Z" fill="#FCFCFA"/>
<path d="M141.495 183.562C142.246 183.562 142.298 182.85 142.868 182.682C143.373 183.627 142.868 184.572 142.661 185.427C142.4 187.417 142.518 189.439 143.01 191.385C143.088 191.851 144.163 192.68 142.389 192.564C141.262 192.46 141.262 192.848 140.77 191.411C139.6 187.798 139.687 183.895 141.016 180.337C141.145 179.949 141.223 179.275 141.832 179.47C142.44 179.664 142.117 180.169 142.039 180.57C141.871 181.542 141.689 182.526 141.495 183.562Z" fill="#FDFCFA"/>
<path d="M133.452 208.39C134.242 208.144 135.045 207.963 135.809 207.639C137.299 207.03 138.672 206.461 140.174 207.859C140.899 208.533 141.974 208.002 142.764 207.432C143.08 207.178 143.463 207.024 143.866 206.987C144.27 206.95 144.675 207.033 145.031 207.225C146.341 207.667 147.672 208.043 149.02 208.351C149.124 208.805 148.761 208.844 148.489 208.921C144.284 210.361 139.757 210.576 135.434 209.543C134.709 209.349 133.659 209.517 133.452 208.39Z" fill="#EE7C7E"/>
<path d="M133.272 178.744C128.091 175.299 122.703 174.172 116.512 176.866C121.33 171.802 130.293 172.916 133.272 178.744Z" fill="#A64233"/>
<path d="M165.611 176.62C159.718 174.198 154.291 175.247 149.149 178.874C150.276 173.279 160.119 171.932 165.611 176.62Z" fill="#A54132"/>
<path d="M165.157 181.322C163.266 181.244 161.375 181.05 159.497 181.127C156.648 181.177 153.916 182.269 151.817 184.197C151.687 183.86 151.454 183.562 151.7 183.187C152.377 182.135 153.26 181.23 154.294 180.527C155.329 179.824 156.495 179.337 157.722 179.095C158.95 178.854 160.213 178.862 161.437 179.12C162.661 179.378 163.821 179.88 164.846 180.596C165.015 180.778 165.053 181.088 165.157 181.322Z" fill="#F6B993"/>
<path d="M138.439 186.243C138.543 190.183 137.385 194.054 135.136 197.291C134.838 197.692 134.592 198.456 134.074 198.21C133.556 197.964 133.971 197.161 134.139 196.734C135.055 194.496 135.817 192.199 136.418 189.857C136.852 187.723 137.103 185.557 137.17 183.381C137.17 182.928 137.053 182.241 137.61 182.202C138.167 182.163 138.037 182.876 138.167 183.277C138.425 184.243 138.517 185.246 138.439 186.243Z" fill="#FCFBF8"/>
<path d="M133.453 208.39C137.087 210.01 141.157 210.37 145.019 209.414C146.392 209.274 147.735 208.915 148.995 208.352C149.25 208.353 149.503 208.304 149.739 208.206C149.975 208.108 150.189 207.964 150.368 207.782C150.439 207.708 150.525 207.649 150.619 207.609C150.714 207.568 150.815 207.548 150.918 207.548C151.021 207.548 151.123 207.568 151.217 207.609C151.312 207.649 151.397 207.708 151.469 207.782C151.537 207.851 151.59 207.935 151.623 208.026C151.657 208.118 151.67 208.215 151.663 208.313C151.598 208.792 151.171 208.753 150.834 208.818L149.319 209.064C146.144 210.075 142.833 210.591 139.501 210.592C137.533 210.592 135.694 209.789 133.751 209.686C133.105 209.162 132.314 208.85 131.484 208.792C131.135 208.714 130.733 208.688 130.72 208.209C130.712 208.094 130.731 207.979 130.776 207.873C130.821 207.768 130.891 207.674 130.979 207.6C131.132 207.5 131.315 207.455 131.496 207.474C131.678 207.493 131.848 207.574 131.977 207.704C132.361 208.115 132.891 208.361 133.453 208.39Z" fill="#D96361"/>
<path d="M132.508 190.012C129.65 190.608 126.701 190.608 123.843 190.012C123.843 189.507 124.206 189.416 124.555 189.274C125.756 189.416 126.969 189.416 128.169 189.274C129.464 189.274 130.759 188.859 132.054 189.377C132.352 189.468 132.585 189.662 132.508 190.012Z" fill="#62261E"/>
<path d="M158.605 189.986C156.26 190.45 153.859 190.559 151.481 190.31C151.171 190.116 150.445 190.142 151.041 189.468C152.077 188.846 153.217 189.468 154.279 189.17C155.459 189.371 156.658 189.436 157.854 189.365C158.177 189.468 158.618 189.468 158.605 189.986Z" fill="#5E1D18"/>
<path d="M158.605 189.986L158.061 189.649C158.061 189.118 158.463 189.08 158.786 188.95C159.82 188.811 160.775 188.322 161.493 187.564C161.804 187.24 162.076 186.813 162.633 186.865L162.944 187.202C162.488 187.972 161.858 188.625 161.105 189.109C160.351 189.592 159.495 189.893 158.605 189.986Z" fill="#8C584C"/>
<path d="M124.386 189.649L123.842 189.999C122.95 189.912 122.09 189.618 121.33 189.142C120.571 188.665 119.932 188.019 119.465 187.253L119.802 186.917C120.358 186.761 120.617 187.202 120.915 187.512C121.637 188.295 122.607 188.803 123.661 188.95C123.998 189.08 124.503 189.118 124.386 189.649Z" fill="#7E5850"/>
<path d="M138.646 201.837C137.972 201.837 137.48 201.72 137.351 201.099C137.26 200.684 137.61 200.606 137.92 200.594C138.205 200.54 138.5 200.599 138.741 200.758C138.983 200.918 139.153 201.165 139.216 201.448C139.28 201.837 138.827 201.824 138.646 201.837Z" fill="#DA9A67"/>
<path d="M150.872 189.779L151.481 190.31C149.344 190.31 149.137 189.805 150.186 187.176L150.523 187.538C150.95 188.173 150.471 189.08 150.872 189.779Z" fill="#83493C"/>
<path d="M144.889 201.189C144.669 201.694 144.164 201.785 143.594 201.811C143.335 201.811 143.063 201.681 143.192 201.345C143.27 201.13 143.413 200.945 143.601 200.815C143.789 200.685 144.013 200.616 144.241 200.619C144.643 200.619 144.915 200.723 144.889 201.189Z" fill="#D59664"/>
<path d="M132.508 190.012L132.249 189.74C131.718 189.157 131.42 188.549 132.003 187.81C132.08 187.616 132.171 187.422 132.262 187.228C132.611 188.173 133.065 189.028 132.508 190.012Z" fill="#9F7362"/>
<path d="M107.058 163.008C108.102 159.819 109.543 156.773 111.345 153.942C111.345 152.647 112.407 152.064 113.054 151.183C113.417 150.749 113.811 150.343 114.233 149.966C115.889 148.353 117.683 146.888 119.595 145.588C120.156 145.048 120.89 144.722 121.667 144.669L123.571 143.736C125.527 142.01 128.061 141.085 130.669 141.146C134.912 140.166 139.272 139.791 143.62 140.032C144.575 140.224 145.556 140.254 146.521 140.123C147.602 140.006 148.687 140.297 149.565 140.939C152.429 141.802 155.221 142.884 157.919 144.176C166.013 148.593 171.66 155.017 173.875 164.096C174.622 167.437 174.696 170.893 174.095 174.263C174.018 174.781 174.005 175.558 173.331 175.623C172.658 175.688 172.8 174.82 172.697 174.328C171.767 170.093 169.919 166.114 167.283 162.671C166.674 161.752 165.716 161.13 165.094 160.223L164.77 159.9C160.772 156.356 156.283 153.407 151.443 151.144C149.404 150.219 147.205 149.695 144.967 149.603C144.281 149.382 143.548 149.346 142.843 149.5C139.842 149.936 136.806 150.079 133.777 149.927C128.79 150.794 124.091 152.866 120.087 155.962C113.96 160.383 109.731 166.958 108.249 174.367C108.146 174.859 108.042 175.571 107.485 175.571C106.928 175.571 106.89 174.872 106.799 174.38C106.185 170.605 106.273 166.75 107.058 163.008Z" fill="#F4A7A3"/>
<path d="M133.751 149.927C137.44 149.075 141.262 148.965 144.993 149.603C142.287 149.266 140.396 151.08 138.194 152.129C133.959 154.149 129.633 156.014 125.553 158.281C121.124 160.793 117.031 163.746 114.195 168.124C112.905 170.246 111.853 172.505 111.06 174.859C110.681 173.501 110.768 172.056 111.306 170.753C112.679 165.352 116.37 161.687 120.657 158.488C124.865 155.625 129.228 152.996 133.726 150.613C134.101 150.328 134.451 150.16 133.751 149.927Z" fill="#EB7A37"/>
<path d="M121.667 144.694C119.174 146.407 116.783 148.262 114.505 150.251C113.481 149.953 114.077 149.279 114.245 148.813C114.957 147.042 115.879 145.364 116.991 143.814C119.152 140.484 121.936 137.604 125.19 135.33C125.443 135.154 125.729 135.031 126.031 134.968H127.508C128.13 135.771 127.365 136.121 126.951 136.535C125.008 138.597 123.301 140.869 121.861 143.309C121.656 143.74 121.588 144.224 121.667 144.694Z" fill="#D15D2E"/>
<path d="M130.669 141.146L123.572 143.736C123.183 143.192 123.766 143.024 123.999 142.778C128.297 138.262 133.813 135.09 139.878 133.647C140.461 133.491 140.461 133.504 141.341 133.854C137.948 135.507 134.743 137.522 131.783 139.864C131.296 140.174 130.909 140.62 130.669 141.146Z" fill="#D15D2E"/>
<path d="M151.495 151.144C155.631 152.364 159.424 154.538 162.568 157.491C163.371 158.203 164.563 158.643 164.822 159.9C163.216 159.796 162.115 158.669 160.936 157.879C157.621 155.794 154.163 154.033 151.495 151.144Z" fill="#EC7C3A"/>
<path d="M149.618 140.939L143.673 140.032C146.574 139.928 146.574 139.928 147.39 137.157C147.494 136.82 147.559 136.457 147.675 136.121C147.792 135.784 147.753 135.564 148.077 135.525C148.4 135.486 148.556 135.823 148.659 136.121C149.134 137.692 149.455 139.305 149.618 140.939Z" fill="#EB7A39"/>
<path d="M165.146 160.223C166.111 160.794 166.876 161.649 167.335 162.671C166.379 162.091 165.617 161.239 165.146 160.223Z" fill="#EC7C3A"/>
<path d="M142.493 112.082C144.032 111.948 145.582 111.97 147.117 112.147C150.665 112.872 152.504 114.491 152.375 118.701C152.221 122.803 151.065 126.805 149.008 130.357C146.909 131.756 145.018 132.274 142.739 130.357C141.25 129.062 139.372 130.046 138.012 131.328C137.681 131.679 137.23 131.891 136.75 131.923C136.269 131.954 135.794 131.802 135.421 131.497C132.922 129.904 131.639 130.059 129.412 132.17C127.961 133.556 127.456 133.595 126.031 132.39C125.759 130.875 124.633 129.8 124.037 128.401C121.706 123.039 125.034 117.781 128.881 115.45C131.717 113.714 134.826 113.313 137.882 112.497C138.102 112.408 138.339 112.373 138.575 112.394C138.811 112.415 139.038 112.492 139.238 112.619C139.438 112.745 139.605 112.918 139.725 113.122C139.845 113.326 139.915 113.556 139.928 113.792C140.762 117.366 140.933 121.062 140.434 124.697C140.291 126.213 140.032 127.728 139.799 129.528C141.094 127.909 141.094 126.096 141.496 124.49C142.064 122.086 142.497 119.651 142.791 117.198C143.007 115.863 142.859 114.494 142.363 113.235C142.117 112.626 142.078 112.354 142.493 112.082Z" fill="#DA672B"/>
<path d="M126.031 134.968C124.658 136.885 122.43 137.856 120.85 139.63C118.209 142.548 116.026 145.85 114.374 149.422C114.245 149.72 114.115 149.992 114.374 150.251L111.214 153.968C110.593 153.074 111.214 152.193 111.486 151.507C113.351 146.767 115.372 142.143 119.257 138.555C120.449 137.468 121.847 136.613 122.948 135.512C123.29 135.188 123.7 134.946 124.149 134.805C124.598 134.663 125.073 134.626 125.539 134.696L126.031 134.968Z" fill="#DA682B"/>
<path d="M199.066 238.49C198.483 238.088 198.664 237.454 198.328 237.065C197.887 237.259 198.198 237.635 198.12 237.92C198.043 238.205 198.12 238.477 197.719 238.464C197.527 238.429 197.353 238.328 197.227 238.179C195.815 236.728 195.595 232.532 196.773 230.835C197.408 229.903 197.784 230.55 198.159 230.991C198.995 232.032 199.523 233.286 199.684 234.611C199.844 235.936 199.63 237.28 199.066 238.49Z" fill="#C7DE7C"/>
<path d="M200.918 239.384C200.426 239.163 199.752 239.06 199.843 238.088C200.031 237.293 200.405 236.553 200.934 235.929C201.463 235.306 202.132 234.816 202.887 234.501C203.288 234.41 203.69 234.32 203.91 234.851C204.389 235.926 202.213 239.319 200.918 239.384Z" fill="#CCE086"/>
<path d="M158.904 189.377L158.062 189.649C156.796 189.772 155.52 189.772 154.254 189.649C152.117 188.976 151.482 188.186 151.521 186.269C152.017 185.562 152.718 185.024 153.529 184.728C153.412 186.671 153.814 188.251 155.795 188.872C156.437 189.105 157.139 189.11 157.784 188.889C158.43 188.668 158.98 188.232 159.344 187.655C160.562 186.01 159.966 184.469 158.826 183.031C159.036 182.91 159.268 182.833 159.508 182.804C159.749 182.776 159.992 182.795 160.225 182.863C160.602 183.257 160.895 183.724 161.087 184.235C161.278 184.746 161.363 185.29 161.338 185.835C161.313 186.38 161.177 186.914 160.939 187.405C160.7 187.896 160.365 188.334 159.953 188.691C159.634 188.963 159.281 189.194 158.904 189.377Z" fill="#3E9B9C"/>
<path d="M158.903 189.377C160.807 187.512 161.494 185.401 160.198 182.902C163.151 182.785 163.32 182.966 162.789 185.829C162.724 186.178 162.646 186.528 162.581 186.891C162.214 187.571 161.687 188.152 161.047 188.584C160.406 189.017 159.671 189.289 158.903 189.377Z" fill="#F7F7F7"/>
<path d="M158.179 186.956C157.116 186.865 156.508 186.373 156.508 185.401C156.543 185.022 156.718 184.669 157 184.413C157.281 184.156 157.649 184.014 158.03 184.014C158.411 184.014 158.778 184.156 159.059 184.413C159.341 184.669 159.516 185.022 159.551 185.401C159.573 185.789 159.441 186.169 159.184 186.46C158.927 186.751 158.566 186.929 158.179 186.956Z" fill="#F5F2F3"/>
<path d="M151.52 186.295C151.947 187.739 152.93 188.955 154.253 189.675L150.872 189.779C150.251 189.779 149.758 189.624 150.095 188.808C150.251 188.393 150.367 187.966 150.497 187.512C150.833 187.111 151.015 186.567 151.52 186.295Z" fill="#F4F7F6"/>
<path d="M124.385 189.649L123.569 189.377C121.407 188.082 120.759 186.709 121.173 184.378C121.189 184.068 121.284 183.766 121.45 183.503C121.615 183.24 121.846 183.024 122.119 182.876H124.372C124.593 183.42 124.178 183.614 124.023 183.899C123.766 184.302 123.597 184.755 123.526 185.228C123.456 185.701 123.486 186.183 123.614 186.644C123.742 187.104 123.966 187.533 124.271 187.901C124.575 188.269 124.954 188.569 125.383 188.782C125.821 188.976 126.295 189.072 126.774 189.064C127.253 189.056 127.724 188.944 128.155 188.736C128.587 188.528 128.967 188.228 129.271 187.858C129.575 187.488 129.795 187.056 129.916 186.593C130.149 185.881 130.188 185.194 130.887 186.282C130.887 188.095 130.188 189.028 128.193 189.675L124.385 189.649Z" fill="#3D9A9D"/>
<path d="M122.12 182.876C121.565 183.954 121.407 185.193 121.672 186.376C121.937 187.56 122.609 188.613 123.57 189.352C122.787 189.286 122.033 189.027 121.375 188.597C120.717 188.167 120.176 187.581 119.801 186.891C119.711 186.489 119.581 186.101 119.529 185.699C119.141 182.992 119.322 182.811 122.12 182.876Z" fill="#F6F8F8"/>
<path d="M129.683 185.997C129.424 186.8 129.075 187.577 128.064 187.525C127.868 187.531 127.673 187.496 127.492 187.422C127.31 187.348 127.146 187.236 127.011 187.094C126.875 186.953 126.771 186.784 126.705 186.6C126.639 186.415 126.612 186.219 126.627 186.023C126.611 185.816 126.64 185.607 126.713 185.412C126.786 185.217 126.9 185.04 127.048 184.894C127.196 184.747 127.374 184.634 127.569 184.563C127.765 184.492 127.973 184.464 128.181 184.482C129.113 184.469 129.463 185.181 129.683 185.997Z" fill="#F4F2F2"/>
<path d="M128.194 189.675C129.474 188.908 130.432 187.702 130.888 186.282C131.355 186.715 131.733 187.234 132.002 187.81C132.201 188.433 132.284 189.087 132.248 189.74L128.194 189.675Z" fill="#F5F8F8"/>
<path d="M145.847 211.175C144.992 213.48 143.257 213.454 141.34 213.325C141.081 213.325 140.783 213.247 140.809 212.923C140.833 212.829 140.879 212.742 140.945 212.669C141.01 212.597 141.093 212.542 141.184 212.509C142.788 212.259 144.354 211.811 145.847 211.175Z" fill="#F4A29E"/>
</svg>
