<svg width="17" height="16" viewBox="0 0 17 16" fill="none" xmlns="http://www.w3.org/2000/svg">
<g clip-path="url(#clip0_881:907)">
<path d="M16.6598 11.0321C16.6598 11.0321 16.7278 12.1827 15.6398 12.1827C14.5518 12.1827 8.05784 12.1827 8.05784 12.1827L3.73984 14.9914V13.0287C3.73984 13.0287 3.80784 12.318 3.16184 12.2165H1.22384C1.22384 12.2165 0.339844 12.0812 0.339844 11.2013C0.339844 10.3215 0.339844 1.28637 0.339844 1.28637C0.339844 1.28637 0.339844 0.338867 1.46184 0.338867C2.58384 0.338867 15.7418 0.338867 15.7418 0.338867C15.7418 0.338867 16.6598 0.372707 16.6598 1.52325C16.6598 2.67379 16.6598 11.0321 16.6598 11.0321Z" stroke="#1C4060" stroke-miterlimit="10"/>
<path d="M2.85596 3.28223H14.008" stroke="#1C4060" stroke-miterlimit="10"/>
<path d="M2.72021 6.09082H13.8382" stroke="#1C4060" stroke-miterlimit="10"/>
<path d="M2.78809 9.13672H13.9061" stroke="#1C4060" stroke-miterlimit="10"/>
</g>
<defs>
<clipPath id="clip0_881:907">
<rect width="17" height="15.6" fill="white"/>
</clipPath>
</defs>
</svg>
