<svg width="134" height="119" viewBox="0 0 134 119" fill="none" xmlns="http://www.w3.org/2000/svg">
<path d="M130.419 46.0605C132.244 44.2405 133.156 41.9655 133.156 39.6905C133.156 31.5005 120.838 24.6755 105.325 24.6755C103.5 24.6755 101.675 24.6755 100.306 25.1305C99.85 23.7655 99.3937 22.4005 98.4812 21.4905C100.306 19.6705 101.219 17.3955 101.219 15.1205C101.219 6.93047 88.9 0.105469 73.3875 0.105469C57.875 0.105469 45.5563 6.47547 45.5563 15.1205V15.5755C40.9938 13.3005 35.0625 11.9355 28.675 11.9355C13.1625 11.9355 0.84375 18.7605 0.84375 26.9505C0.84375 29.2255 1.75625 31.5005 3.58125 33.3205C1.75625 35.1405 0.84375 37.4155 0.84375 39.6905C0.84375 41.9655 1.75625 44.2405 3.58125 46.0605C1.75625 47.8805 0.84375 50.1555 0.84375 52.4305C0.84375 54.7055 1.75625 56.9805 3.58125 58.8005C1.75625 60.6205 0.84375 62.8955 0.84375 65.1705C0.84375 67.4455 1.75625 69.7205 3.58125 71.5405C1.75625 73.3605 0.84375 75.6355 0.84375 77.9105C0.84375 80.1855 1.75625 82.4605 3.58125 84.2805C1.75625 86.1005 0.84375 88.3755 0.84375 90.6505C0.84375 98.8405 13.1625 105.665 28.675 105.665C37.8 105.665 46.0125 103.39 51.0312 99.7505C56.5062 103.39 65.175 105.665 73.3875 105.665C74.7562 105.665 76.5812 105.665 77.95 105.21C79.775 112.49 91.1813 118.405 105.325 118.405C120.838 118.405 133.156 112.035 133.156 103.39C133.156 101.115 132.244 98.8405 130.419 97.0205C132.244 95.2005 133.156 92.9255 133.156 90.6505C133.156 88.3755 132.244 86.1005 130.419 84.2805C132.244 82.4605 133.156 80.1855 133.156 77.9105C133.156 75.6355 132.244 73.3605 130.419 71.5405C132.244 69.7205 133.156 67.4455 133.156 65.1705C133.156 62.8955 132.244 60.6205 130.419 58.8005C132.244 56.9805 133.156 54.7055 133.156 52.4305C133.156 50.1555 132.244 47.8805 130.419 46.0605ZM128.594 65.1705C128.594 66.9905 127.681 68.3555 125.856 69.7205C125.4 70.1755 124.944 70.6305 124.488 70.6305H124.031C123.119 71.0855 122.206 71.5405 120.837 71.9955C120.381 71.9955 119.925 72.4505 119.469 72.4505C119.012 72.4505 118.556 72.9055 117.644 72.9055C117.188 72.9055 116.275 73.3605 115.819 73.3605C115.363 73.3605 114.45 73.8155 113.994 73.8155C113.081 73.8155 111.713 74.2705 110.8 74.2705C110.344 74.2705 109.887 74.2705 109.431 74.2705C108.062 74.2705 106.694 74.2705 105.325 74.2705C103.956 74.2705 102.588 74.2705 101.219 74.2705C100.762 74.2705 100.306 74.2705 99.85 74.2705C98.9375 74.2705 97.5687 73.8155 96.6562 73.8155C96.2 73.8155 95.2875 73.3605 94.8313 73.3605C94.375 73.3605 93.4625 72.9055 93.0063 72.9055C92.55 72.9055 91.6375 72.4505 91.1812 72.4505C90.725 72.4505 90.725 71.9955 90.2688 71.9955C88.9 71.5405 87.9875 71.0855 86.6187 70.1755C86.1625 69.7205 85.7062 69.2655 84.7937 68.8105C82.9688 67.4455 82.0562 65.6255 82.0562 64.2605C82.0562 62.8955 82.5125 61.9855 83.425 61.0755C86.1625 62.8955 89.3563 64.2605 93.0063 65.1705C94.8313 65.6255 96.6562 66.0805 98.4812 66.0805C98.4812 66.0805 98.4812 66.0805 98.9375 66.0805C100.762 66.5355 103.044 66.5355 105.325 66.5355C107.606 66.5355 109.431 66.5355 111.712 66.0805C111.712 66.0805 111.713 66.0805 112.169 66.0805C113.994 65.6255 115.819 65.6255 117.644 65.1705C121.294 64.2605 124.488 62.8955 127.225 61.0755C128.138 62.8955 128.594 64.2605 128.594 65.1705ZM128.594 77.9105C128.594 79.7305 127.681 81.0955 125.856 82.9155C125.4 83.3705 124.944 83.8255 124.488 83.8255L124.031 84.2805C123.119 84.7355 122.206 85.1905 121.294 85.6455C120.838 85.6455 120.381 86.1005 119.925 86.1005C119.469 86.1005 119.013 86.5555 118.1 86.5555C117.644 86.5555 116.731 87.0105 116.275 87.0105C115.819 87.0105 115.362 87.4655 114.45 87.4655C113.537 87.4655 112.169 87.9205 111.256 87.9205C110.8 87.9205 110.344 87.9205 109.887 87.9205C108.519 87.9205 107.15 87.9205 105.781 87.9205C104.412 87.9205 103.044 87.9205 101.675 87.9205C101.219 87.9205 100.762 87.9205 100.306 87.9205C99.3937 87.9205 98.025 87.4655 97.1125 87.4655C96.6562 87.4655 95.7438 87.0105 95.2875 87.0105C94.8313 87.0105 93.9187 86.5555 93.4625 86.5555C93.0062 86.5555 92.0938 86.1005 91.6375 86.1005C91.1813 86.1005 90.725 85.6455 90.2688 85.6455C89.3563 85.1905 87.9875 84.7355 87.075 84.2805H86.6187C86.1625 83.8255 85.7063 83.3705 85.25 83.3705C83.425 82.0055 82.5125 80.1855 82.5125 78.8205C82.5125 77.4555 82.9688 76.5455 83.8813 75.6355C86.6188 77.4555 89.8125 78.8205 93.4625 79.7305C95.2875 80.1855 97.1125 80.6405 98.9375 80.6405C98.9375 80.6405 98.9375 80.6405 99.3938 80.6405C101.219 81.0955 103.5 81.0955 105.781 81.0955C108.062 81.0955 109.887 81.0955 112.169 80.6405C112.169 80.6405 112.169 80.6405 112.625 80.6405C114.45 80.1855 116.275 80.1855 118.1 79.7305C121.75 78.8205 124.944 77.4555 127.681 75.6355C128.137 75.6355 128.594 76.5455 128.594 77.9105ZM128.594 90.6505C128.594 92.4705 127.681 93.8355 125.4 95.6555C124.944 96.1105 124.488 96.5655 124.031 96.5655C124.031 96.5655 123.575 97.0205 123.119 97.0205C122.206 97.4755 121.294 97.9305 120.381 98.3855C119.925 98.3855 119.469 98.8405 119.012 98.8405C118.556 98.8405 118.1 99.2955 117.188 99.2955C116.731 99.2955 115.819 99.7505 115.363 99.7505C114.906 99.7505 114.45 100.205 113.538 100.205C112.625 100.205 111.256 100.66 110.344 100.66C109.887 100.66 109.431 100.66 108.975 100.66C107.606 100.66 106.237 100.66 104.869 100.66C103.5 100.66 102.131 100.66 100.762 100.66C100.306 100.66 99.85 100.66 99.3938 100.66C98.4813 100.66 97.1125 100.205 96.2 100.205C95.7438 100.205 94.8313 99.7505 94.375 99.7505C93.9187 99.7505 93.0062 99.2955 92.55 99.2955C92.0938 99.2955 91.1813 98.8405 90.725 98.8405C90.2688 98.8405 89.8125 98.3855 89.3562 98.3855C88.4437 97.9305 87.075 97.4755 86.1625 97.0205C86.1625 97.0205 85.7063 97.0205 85.7063 96.5655C85.25 96.1105 84.7937 95.6555 84.3375 95.6555C82.5125 94.2905 81.6 92.4705 81.6 90.6505C81.6 89.2855 82.0563 88.3755 82.9688 87.4655C85.7063 89.2855 88.9 90.6505 92.55 91.5605C94.375 92.0155 96.2 92.4705 98.025 92.4705C98.025 92.4705 98.025 92.4705 98.4812 92.4705C100.306 92.9255 102.587 92.9255 104.869 92.9255C107.15 92.9255 108.975 92.9255 111.256 92.4705C111.256 92.4705 111.256 92.4705 111.712 92.4705C113.537 92.0155 115.363 92.0155 117.188 91.5605C120.838 90.6505 124.031 89.2855 126.769 87.4655C128.138 88.3755 128.594 89.2855 128.594 90.6505ZM73.3875 88.3755C65.6312 88.3755 58.7875 86.1005 54.6813 83.8255C56.05 82.0055 56.9625 80.1855 56.9625 77.9105C56.9625 77.4555 56.9625 77.4555 56.9625 77.0005C61.9813 78.8205 67.9125 80.1855 73.8438 80.1855C75.2125 80.1855 77.0375 80.1855 78.4062 79.7305C78.8625 81.0955 79.775 82.9155 80.6875 84.2805C79.775 85.6455 78.8625 86.5555 78.4062 87.9205C76.5813 87.9205 74.7562 88.3755 73.3875 88.3755ZM47.3812 83.8255C47.3812 83.8255 46.925 83.8255 47.3812 83.8255C46.0125 84.7355 45.1 85.1905 43.7312 85.6455C43.275 85.6455 42.8188 86.1005 42.3625 86.1005C41.9062 86.1005 41.45 86.5555 40.5375 86.5555C40.0812 86.5555 39.1688 87.0105 38.7125 87.0105C38.2563 87.0105 37.3438 87.4655 36.8875 87.4655C35.975 87.4655 34.6063 87.9205 33.6937 87.9205C33.2375 87.9205 32.7812 87.9205 32.325 87.9205C30.9562 87.9205 29.5875 87.9205 28.2188 87.9205C26.85 87.9205 25.4812 87.9205 24.1125 87.9205C23.6562 87.9205 23.2 87.9205 22.7438 87.9205C21.375 87.9205 20.4625 87.4655 19.55 87.4655C19.0938 87.4655 18.6375 87.0105 17.725 87.0105C17.2687 87.0105 16.3563 86.5555 15.9 86.5555C15.4438 86.5555 14.9875 86.1005 14.075 86.1005C13.6188 86.1005 13.1625 85.6455 12.7062 85.6455C11.7937 85.1905 10.8813 84.7355 9.96875 84.2805L9.5125 83.8255C9.05625 83.3705 8.6 82.9155 8.14375 82.9155C6.31875 81.5505 5.40625 79.7305 5.40625 77.9105C5.40625 76.5455 5.8625 75.6355 6.775 74.7255C9.5125 76.5455 12.7063 77.9105 16.3563 78.8205C18.1812 79.2755 20.0063 79.7305 21.8312 79.7305C21.8312 79.7305 21.8312 79.7305 22.2875 79.7305C24.1125 80.1855 26.3937 80.1855 28.675 80.1855C30.9562 80.1855 32.7812 80.1855 35.0625 79.7305C35.0625 79.7305 35.0625 79.7305 35.5188 79.7305C37.3438 79.2755 39.625 79.2755 40.9938 78.8205C44.6437 77.9105 47.8375 76.5455 50.575 74.7255C51.4875 75.6355 51.9437 77.0005 51.9437 77.9105C51.9437 79.7305 51.0312 81.0955 49.2063 82.4605C48.2938 82.9155 47.8375 83.3705 47.3812 83.8255ZM6.775 36.5055C9.5125 38.3255 12.7063 39.6905 16.3563 40.6005C18.1812 41.0555 20.0063 41.5105 21.8312 41.5105C21.8312 41.5105 21.8312 41.5105 22.2875 41.5105C24.1125 41.9655 26.3937 41.9655 28.675 41.9655C30.9562 41.9655 32.7812 41.9655 35.0625 41.5105C35.0625 41.5105 35.0625 41.5105 35.5188 41.5105C37.3438 41.0555 39.625 41.0555 40.9938 40.6005C44.6437 39.6905 47.8375 38.3255 50.575 36.5055C51.4875 37.4155 51.9437 38.7805 51.9437 39.6905C51.9437 41.5105 51.0312 42.8755 49.2063 44.2405C48.75 44.6955 48.2938 45.1505 47.8375 45.1505C47.8375 45.1505 47.8375 45.1505 47.3812 45.1505C46.4688 45.6055 45.5563 46.0605 44.1875 46.9705C43.7313 46.9705 43.275 47.4255 42.8187 47.4255C42.3625 47.4255 41.9062 47.8805 40.9938 47.8805C40.5375 47.8805 39.625 48.3355 39.1687 48.3355C38.7125 48.3355 37.8 48.7905 37.3438 48.7905C36.4313 49.7005 35.0625 49.7005 34.15 49.7005C33.6938 49.7005 33.2375 49.7005 32.7812 49.7005C31.4125 49.7005 30.0437 49.7005 28.675 49.7005C27.3062 49.7005 25.9375 49.7005 24.5687 49.7005C24.1125 49.7005 23.6562 49.7005 23.2 49.7005C21.8313 49.7005 20.9187 49.2455 20.0062 49.2455C19.55 49.2455 19.0938 48.7905 18.1813 48.7905C17.725 48.7905 16.8125 48.3355 16.3563 48.3355C15.9 48.3355 15.4438 47.8805 14.5312 47.8805C14.075 47.8805 13.6187 47.4255 13.1625 47.4255C12.25 46.9705 11.3375 46.5155 10.425 46.0605C10.425 46.0605 9.96875 46.0605 9.96875 45.6055C9.5125 45.1505 9.05625 44.6955 8.6 44.6955C6.775 43.3305 5.8625 41.5105 5.8625 39.6905C5.40625 38.7805 5.8625 37.4155 6.775 36.5055ZM77.95 41.9655C78.4062 43.3305 79.3187 45.1505 80.2312 46.5155C79.3187 47.8805 78.4062 48.7905 77.95 50.1555C76.5812 50.1555 74.7562 50.6105 72.9312 50.6105C65.175 50.6105 58.3312 48.3355 54.225 46.0605C55.5938 44.2405 56.5062 42.4205 56.5062 40.1455C56.5062 39.6905 56.5062 39.2355 56.5062 39.2355C61.525 41.5105 67.9125 42.4205 73.3875 42.4205C74.7562 41.9655 76.5812 41.9655 77.95 41.9655ZM93.4625 53.3405C95.2875 53.7955 97.1125 54.2505 98.9375 54.2505C98.9375 54.2505 98.9375 54.2505 99.3938 54.2505C101.219 54.7055 103.5 54.7055 105.781 54.7055C108.062 54.7055 109.887 54.7055 112.169 54.2505C112.169 54.2505 112.169 54.2505 112.625 54.2505C114.45 53.7955 116.275 53.7955 118.1 53.3405C121.75 52.4305 124.944 51.0655 127.681 49.2455C128.594 50.1555 129.05 51.5205 129.05 52.4305C129.05 54.2505 128.137 55.6155 126.312 56.9805C125.856 57.4355 125.4 57.8905 124.944 57.8905H124.488C123.575 58.3455 122.662 58.8005 121.294 59.7105C120.838 59.7105 120.381 60.1655 120.381 60.1655C119.925 60.1655 119.012 60.6205 118.556 60.6205C118.1 60.6205 117.644 61.0755 116.731 61.0755C116.275 61.0755 115.363 61.5305 114.906 61.5305C113.994 61.5305 112.625 61.9855 111.712 61.9855C111.256 61.9855 110.8 61.9855 110.344 61.9855C108.975 61.9855 107.606 61.9855 106.238 61.9855C104.869 61.9855 103.5 61.9855 102.131 61.9855C101.675 61.9855 101.219 61.9855 100.762 61.9855C99.85 61.9855 98.4813 61.5305 97.5688 61.5305C96.6562 61.5305 96.2 61.0755 95.2875 61.0755C94.8313 61.0755 94.375 60.6205 93.4625 60.6205C93.0062 60.6205 92.0938 60.1655 91.6375 60.1655C91.1813 60.1655 91.1813 59.7105 90.725 59.7105C89.3563 59.2555 88.4437 58.8005 87.075 57.8905C86.6188 57.4355 86.1625 56.9805 85.7063 56.5255C83.8812 55.1605 82.9688 53.3405 82.9688 51.9755C82.9688 50.6105 83.425 49.7005 84.3375 48.7905C86.1625 51.0655 89.3562 52.4305 93.4625 53.3405C93.0062 53.3405 93.4625 53.3405 93.4625 53.3405ZM73.3875 75.6355C65.6312 75.6355 58.7875 73.3605 54.6813 71.0855C56.05 69.2655 56.5062 67.4455 56.5062 65.1705C56.5062 64.7155 56.5062 64.2605 56.5062 64.2605C61.0687 66.0805 67 67.4455 73.3875 67.4455C75.2125 67.4455 76.5812 67.4455 77.95 66.9905C78.4062 68.3555 79.3187 70.1755 80.2312 71.5405C79.3187 72.9055 78.4062 73.8155 77.95 75.1805C76.5812 75.6355 74.7562 75.6355 73.3875 75.6355ZM77.95 54.7055C78.4062 56.0705 79.3187 57.8905 80.2312 59.2555C79.3187 60.6205 78.4062 61.5305 77.95 62.8955C76.125 62.8955 74.7562 63.3505 72.9312 63.3505C65.175 63.3505 58.3312 61.0755 54.225 58.8005C55.5938 56.9805 56.05 55.1605 56.05 53.3405C56.05 52.8855 56.05 52.8855 56.05 52.4305C61.0688 54.2505 67 55.6155 72.9312 55.6155C74.7562 54.7055 76.5812 54.7055 77.95 54.7055ZM6.775 49.2455C9.5125 51.0655 12.7063 52.4305 16.3563 53.3405C18.1812 53.7955 20.0062 54.2505 22.2875 54.2505C22.2875 54.2505 22.2875 54.2505 22.7438 54.2505C24.5688 54.7055 26.85 54.7055 29.1312 54.7055C31.4125 54.7055 33.2375 54.7055 35.5188 54.2505C35.5188 54.2505 35.5187 54.2505 35.975 54.2505C37.8 53.7955 39.625 53.7955 41.45 53.3405C45.1 52.4305 48.2938 51.0655 51.0312 49.2455C51.9437 50.1555 52.4 51.5205 52.4 52.4305C52.4 53.7955 51.4875 55.6155 49.6625 56.9805C49.2062 57.4355 48.75 57.8905 48.2937 58.3455C47.3812 58.8005 46.0125 59.7105 44.6438 60.1655C44.1875 60.1655 44.1875 60.6205 43.7312 60.6205C43.275 60.6205 42.3625 61.0755 41.9062 61.0755C41.45 61.0755 40.9938 61.5305 40.0813 61.5305C39.625 61.5305 38.7125 61.9855 37.8 61.9855C36.8875 61.9855 35.975 62.4405 34.6062 62.4405C34.15 62.4405 33.6938 62.4405 33.2375 62.4405C31.8688 62.4405 30.5 62.4405 29.1312 62.4405C27.7625 62.4405 26.3938 62.4405 25.025 62.4405C24.5688 62.4405 24.1125 62.4405 23.6562 62.4405C22.7437 62.4405 21.375 61.9855 20.4625 61.9855C20.0063 61.9855 19.0938 61.5305 18.6375 61.5305C18.1812 61.5305 17.2687 61.0755 16.8125 61.0755C16.3562 61.0755 15.4437 60.6205 14.9875 60.6205C14.5312 60.6205 14.075 60.1655 14.075 60.1655C12.7063 59.7105 11.7937 59.2555 10.8813 58.3455H10.425C9.96875 57.8905 9.5125 57.4355 9.05625 57.4355C7.23125 56.0705 6.31875 54.2505 6.31875 52.8855C5.40625 51.0655 5.8625 50.1555 6.775 49.2455ZM6.775 61.9855C9.5125 63.8055 12.7063 65.1705 16.3563 66.0805C18.1812 66.5355 20.0063 66.9905 21.8312 66.9905C21.8312 66.9905 21.8312 66.9905 22.2875 66.9905C24.1125 67.4455 26.3937 67.4455 28.675 67.4455C30.9562 67.4455 32.7812 67.4455 35.0625 66.9905C35.0625 66.9905 35.0625 66.9905 35.5188 66.9905C37.3438 66.5355 39.625 66.5355 40.9938 66.0805C44.6437 65.1705 47.8375 63.8055 50.575 61.9855C51.4875 62.8955 51.9437 64.2605 51.9437 65.1705C51.9437 66.5355 51.0312 68.3555 49.2063 69.7205C48.75 70.1755 48.2938 70.6305 47.3812 71.0855C46.4688 71.5405 45.1 72.4505 43.7312 72.9055C43.275 72.9055 43.275 73.3605 42.8187 73.3605C42.3625 73.3605 41.45 73.8155 40.9938 73.8155C40.5375 73.8155 40.0812 74.2705 39.1687 74.2705C38.7125 74.2705 37.8 74.7255 37.3438 74.7255C36.4313 74.7255 35.0625 75.1805 34.15 75.1805C33.6938 75.1805 33.2375 75.1805 32.7812 75.1805C31.4125 75.1805 30.0437 75.1805 28.675 75.1805C27.3062 75.1805 25.9375 75.1805 24.5687 75.1805C24.1125 75.1805 23.6562 75.1805 23.2 75.1805C22.2875 75.1805 20.9187 74.7255 20.0062 74.7255C19.55 74.7255 18.6375 74.2705 18.1813 74.2705C17.725 74.2705 16.8125 73.8155 16.3563 73.8155C15.9 73.8155 14.9875 73.3605 14.5312 73.3605C14.075 73.3605 13.6187 72.9055 13.1625 72.9055C12.25 72.4505 11.3375 71.9955 9.96875 71.0855H9.5125C9.05625 70.6305 8.6 70.1755 8.14375 70.1755C6.31875 68.8105 5.40625 66.9905 5.40625 65.6255C5.40625 64.2605 5.8625 62.8955 6.775 61.9855ZM128.594 39.6905C128.594 41.5105 127.681 42.8755 125.856 44.2405C125.4 44.6955 124.944 45.1505 124.488 45.1505C124.488 45.1505 124.031 45.1505 124.031 45.6055C123.119 46.0605 122.206 46.5155 121.294 46.9705C120.838 46.9705 120.381 47.4255 119.925 47.4255C119.469 47.4255 119.013 47.8805 118.1 47.8805C117.644 47.8805 116.731 48.3355 116.275 48.3355C115.819 48.3355 115.362 48.7905 114.45 48.7905C113.537 48.7905 112.169 49.2455 111.256 49.2455C110.8 49.2455 110.344 49.2455 109.887 49.2455C108.519 49.2455 107.15 49.2455 105.781 49.2455C104.412 49.2455 103.044 49.2455 101.675 49.2455C101.219 49.2455 100.762 49.2455 100.306 49.2455C99.3937 49.2455 98.025 48.7905 97.1125 48.7905C96.6562 48.7905 95.7438 48.3355 95.2875 48.3355C94.8313 48.3355 93.9187 47.8805 93.4625 47.8805C93.0062 47.8805 92.0938 47.4255 91.6375 47.4255C91.1813 47.4255 90.725 46.9705 90.2688 46.9705C88.9 46.5155 87.9875 46.0605 87.075 45.1505C87.075 45.1505 87.075 45.1505 86.6187 45.1505C86.1625 44.6955 85.7063 44.2405 85.25 44.2405C83.425 42.8755 82.5125 41.0555 82.5125 39.6905C82.5125 34.6855 92.0938 29.2255 105.781 29.2255C119.012 29.2255 128.594 34.6855 128.594 39.6905ZM77.95 37.4155C76.5812 37.4155 74.7562 37.8705 72.9312 37.8705C65.6312 37.8705 58.3312 35.5955 54.225 32.8655C55.5938 31.0455 56.05 29.2255 56.05 27.4055V26.9505C60.6125 28.7705 66.5437 30.1355 72.9312 30.1355C81.6 30.1355 89.3562 27.8605 94.375 24.6755C94.8313 25.1305 94.8313 25.5855 95.2875 26.0405C86.6188 27.4055 79.775 31.9555 77.95 37.4155ZM73.3875 4.20047C87.075 4.20047 96.6562 9.66047 96.6562 14.6655C96.6562 19.6705 87.075 25.1305 73.3875 25.1305C59.7 25.1305 50.1188 19.6705 50.1188 14.6655C50.1188 9.66047 59.7 4.20047 73.3875 4.20047ZM28.675 16.4855C42.3625 16.4855 51.9437 21.9455 51.9437 26.9505C51.9437 28.3155 51.0312 30.1355 49.2063 31.5005C48.75 31.9555 48.2938 32.4105 47.3812 32.8655C46.4688 33.3205 45.1 34.2305 43.7312 34.6855C43.275 34.6855 43.275 35.1405 42.8187 35.1405C42.3625 35.1405 41.45 35.5955 40.9938 35.5955C40.5375 36.0505 39.625 36.0505 39.1687 36.0505C38.7125 36.0505 37.8 36.5055 37.3438 36.5055C36.4313 36.5055 35.0625 36.9605 34.15 36.9605C33.6938 36.9605 33.2375 36.9605 32.7812 36.9605C31.4125 36.9605 30.0437 36.9605 28.675 36.9605C27.3062 36.9605 25.9375 36.9605 24.5687 36.9605C24.1125 36.9605 23.6562 36.9605 23.2 36.9605C21.8313 36.9605 20.9187 36.5055 20.0062 36.5055C19.55 36.5055 19.0938 36.0505 18.1813 36.0505C17.2688 36.0505 16.8125 36.0505 16.3563 35.5955C15.9 35.5955 15.4438 35.1405 14.5312 35.1405C14.075 35.1405 13.6187 34.6855 13.1625 34.6855C11.7937 34.2305 10.8813 33.7755 9.96875 33.3205C9.96875 33.3205 9.96875 33.3205 9.5125 33.3205C9.05625 32.8655 8.6 32.4105 8.14375 31.9555C6.31875 30.1355 5.40625 28.7705 5.40625 26.9505C5.40625 21.9455 14.9875 16.4855 28.675 16.4855ZM5.40625 90.6505C5.40625 89.2855 5.8625 88.3755 6.775 87.4655C9.5125 89.2855 12.7063 90.6505 16.3563 91.5605C18.1812 92.0155 20.0063 92.4705 21.8312 92.4705C21.8312 92.4705 21.8312 92.4705 22.2875 92.4705C24.1125 92.9255 26.3937 92.9255 28.675 92.9255C30.9562 92.9255 32.7812 92.9255 35.0625 92.4705C35.0625 92.4705 35.0625 92.4705 35.5188 92.4705C37.3438 92.0155 39.1688 92.0155 40.9938 91.5605C44.6437 90.6505 47.8375 89.2855 50.575 87.4655C51.4875 88.3755 51.9437 89.7405 51.9437 90.6505C51.9437 95.6555 42.3625 101.115 28.675 101.115C14.9875 101.115 5.40625 95.6555 5.40625 90.6505ZM54.225 96.1105C55.5938 94.2905 56.05 92.4705 56.05 90.1955C56.05 89.7405 56.05 89.7405 56.05 89.2855C61.0688 91.1055 67 92.4705 72.9312 92.4705C74.3 92.4705 76.125 92.4705 77.4937 92.0155C77.95 93.3805 78.8625 95.2005 79.775 96.5655C78.8625 97.9305 77.95 98.8405 77.4937 100.205C75.6687 100.205 74.3 100.66 72.475 100.66C65.6313 101.115 58.7875 98.8405 54.225 96.1105ZM105.325 113.855C91.6375 113.855 82.0562 108.395 82.0562 103.39C82.0562 102.48 82.5125 101.115 83.425 100.205C86.1625 102.025 89.3563 103.39 93.0063 104.3C94.8313 104.755 96.6562 105.21 98.4812 105.21C98.4812 105.21 98.4812 105.21 98.9375 105.21C100.762 105.665 103.044 105.665 105.325 105.665C107.606 105.665 109.431 105.665 111.712 105.21C111.712 105.21 111.713 105.21 112.169 105.21C113.994 104.755 115.819 104.755 117.644 104.3C121.294 103.39 124.488 102.025 127.225 100.205C128.138 101.115 128.594 102.48 128.594 103.39C128.594 108.395 119.012 113.855 105.325 113.855Z" fill="#F2C94C"/>
</svg>
