<svg width="52" height="64" viewBox="0 0 52 64" fill="none" xmlns="http://www.w3.org/2000/svg">
<path d="M48.5875 21.1201C49.2375 20.4801 49.5625 19.6801 49.5625 18.8801C49.5625 16.0001 45.175 13.6001 39.65 13.6001C39 13.6001 38.35 13.6001 37.8625 13.7601C37.7 13.2801 37.5375 12.8001 37.2125 12.4801C37.8625 11.8401 38.1875 11.0401 38.1875 10.2401C38.1875 7.36014 33.8 4.96014 28.275 4.96014C22.75 4.96014 18.3625 7.20014 18.3625 10.2401V10.4001C16.7375 9.60014 14.625 9.12014 12.35 9.12014C6.825 9.12014 2.4375 11.5201 2.4375 14.4001C2.4375 15.2001 2.7625 16.0001 3.4125 16.6401C2.7625 17.2801 2.4375 18.0801 2.4375 18.8801C2.4375 19.6801 2.7625 20.4801 3.4125 21.1201C2.7625 21.7601 2.4375 22.5601 2.4375 23.3601C2.4375 24.1601 2.7625 24.9601 3.4125 25.6001C2.7625 26.2401 2.4375 27.0401 2.4375 27.8401C2.4375 28.6401 2.7625 29.4401 3.4125 30.0801C2.7625 30.7201 2.4375 31.5201 2.4375 32.3201C2.4375 33.1201 2.7625 33.9201 3.4125 34.5601C2.7625 35.2001 2.4375 36.0001 2.4375 36.8001C2.4375 39.6801 6.825 42.0801 12.35 42.0801C15.6 42.0801 18.525 41.2801 20.3125 40.0001C22.2625 41.2801 25.35 42.0801 28.275 42.0801C28.7625 42.0801 29.4125 42.0801 29.9 41.9201C30.55 44.4801 34.6125 46.5601 39.65 46.5601C45.175 46.5601 49.5625 44.3201 49.5625 41.2801C49.5625 40.4801 49.2375 39.6801 48.5875 39.0401C49.2375 38.4001 49.5625 37.6001 49.5625 36.8001C49.5625 36.0001 49.2375 35.2001 48.5875 34.5601C49.2375 33.9201 49.5625 33.1201 49.5625 32.3201C49.5625 31.5201 49.2375 30.7201 48.5875 30.0801C49.2375 29.4401 49.5625 28.6401 49.5625 27.8401C49.5625 27.0401 49.2375 26.2401 48.5875 25.6001C49.2375 24.9601 49.5625 24.1601 49.5625 23.3601C49.5625 22.5601 49.2375 21.7601 48.5875 21.1201ZM47.9375 27.8401C47.9375 28.4801 47.6125 28.9601 46.9625 29.4401C46.8 29.6001 46.6375 29.7601 46.475 29.7601H46.3125C45.9875 29.9201 45.6625 30.0801 45.175 30.2401C45.0125 30.2401 44.85 30.4001 44.6875 30.4001C44.525 30.4001 44.3625 30.5601 44.0375 30.5601C43.875 30.5601 43.55 30.7201 43.3875 30.7201C43.225 30.7201 42.9 30.8801 42.7375 30.8801C42.4125 30.8801 41.925 31.0401 41.6 31.0401C41.4375 31.0401 41.275 31.0401 41.1125 31.0401C40.625 31.0401 40.1375 31.0401 39.65 31.0401C39.1625 31.0401 38.675 31.0401 38.1875 31.0401C38.025 31.0401 37.8625 31.0401 37.7 31.0401C37.375 31.0401 36.8875 30.8801 36.5625 30.8801C36.4 30.8801 36.075 30.7201 35.9125 30.7201C35.75 30.7201 35.425 30.5601 35.2625 30.5601C35.1 30.5601 34.775 30.4001 34.6125 30.4001C34.45 30.4001 34.45 30.2401 34.2875 30.2401C33.8 30.0801 33.475 29.9201 32.9875 29.6001C32.825 29.4401 32.6625 29.2801 32.3375 29.1201C31.6875 28.6401 31.3625 28.0001 31.3625 27.5201C31.3625 27.0401 31.525 26.7201 31.85 26.4001C32.825 27.0401 33.9625 27.5201 35.2625 27.8401C35.9125 28.0001 36.5625 28.1601 37.2125 28.1601C37.2125 28.1601 37.2125 28.1601 37.375 28.1601C38.025 28.3201 38.8375 28.3201 39.65 28.3201C40.4625 28.3201 41.1125 28.3201 41.925 28.1601C41.925 28.1601 41.925 28.1601 42.0875 28.1601C42.7375 28.0001 43.3875 28.0001 44.0375 27.8401C45.3375 27.5201 46.475 27.0401 47.45 26.4001C47.775 27.0401 47.9375 27.5201 47.9375 27.8401ZM47.9375 32.3201C47.9375 32.9601 47.6125 33.4401 46.9625 34.0801C46.8 34.2401 46.6375 34.4001 46.475 34.4001L46.3125 34.5601C45.9875 34.7201 45.6625 34.8801 45.3375 35.0401C45.175 35.0401 45.0125 35.2001 44.85 35.2001C44.6875 35.2001 44.525 35.3601 44.2 35.3601C44.0375 35.3601 43.7125 35.5201 43.55 35.5201C43.3875 35.5201 43.225 35.6801 42.9 35.6801C42.575 35.6801 42.0875 35.8401 41.7625 35.8401C41.6 35.8401 41.4375 35.8401 41.275 35.8401C40.7875 35.8401 40.3 35.8401 39.8125 35.8401C39.325 35.8401 38.8375 35.8401 38.35 35.8401C38.1875 35.8401 38.025 35.8401 37.8625 35.8401C37.5375 35.8401 37.05 35.6801 36.725 35.6801C36.5625 35.6801 36.2375 35.5201 36.075 35.5201C35.9125 35.5201 35.5875 35.3601 35.425 35.3601C35.2625 35.3601 34.9375 35.2001 34.775 35.2001C34.6125 35.2001 34.45 35.0401 34.2875 35.0401C33.9625 34.8801 33.475 34.7201 33.15 34.5601H32.9875C32.825 34.4001 32.6625 34.2401 32.5 34.2401C31.85 33.7601 31.525 33.1201 31.525 32.6401C31.525 32.1601 31.6875 31.8401 32.0125 31.5201C32.9875 32.1601 34.125 32.6401 35.425 32.9601C36.075 33.1201 36.725 33.2801 37.375 33.2801C37.375 33.2801 37.375 33.2801 37.5375 33.2801C38.1875 33.4401 39 33.4401 39.8125 33.4401C40.625 33.4401 41.275 33.4401 42.0875 33.2801C42.0875 33.2801 42.0875 33.2801 42.25 33.2801C42.9 33.1201 43.55 33.1201 44.2 32.9601C45.5 32.6401 46.6375 32.1601 47.6125 31.5201C47.775 31.5201 47.9375 31.8401 47.9375 32.3201ZM47.9375 36.8001C47.9375 37.4401 47.6125 37.9201 46.8 38.5601C46.6375 38.7201 46.475 38.8801 46.3125 38.8801C46.3125 38.8801 46.15 39.0401 45.9875 39.0401C45.6625 39.2001 45.3375 39.3601 45.0125 39.5201C44.85 39.5201 44.6875 39.6801 44.525 39.6801C44.3625 39.6801 44.2 39.8401 43.875 39.8401C43.7125 39.8401 43.3875 40.0001 43.225 40.0001C43.0625 40.0001 42.9 40.1601 42.575 40.1601C42.25 40.1601 41.7625 40.3201 41.4375 40.3201C41.275 40.3201 41.1125 40.3201 40.95 40.3201C40.4625 40.3201 39.975 40.3201 39.4875 40.3201C39 40.3201 38.5125 40.3201 38.025 40.3201C37.8625 40.3201 37.7 40.3201 37.5375 40.3201C37.2125 40.3201 36.725 40.1601 36.4 40.1601C36.2375 40.1601 35.9125 40.0001 35.75 40.0001C35.5875 40.0001 35.2625 39.8401 35.1 39.8401C34.9375 39.8401 34.6125 39.6801 34.45 39.6801C34.2875 39.6801 34.125 39.5201 33.9625 39.5201C33.6375 39.3601 33.15 39.2001 32.825 39.0401C32.825 39.0401 32.6625 39.0401 32.6625 38.8801C32.5 38.7201 32.3375 38.5601 32.175 38.5601C31.525 38.0801 31.2 37.4401 31.2 36.8001C31.2 36.3201 31.3625 36.0001 31.6875 35.6801C32.6625 36.3201 33.8 36.8001 35.1 37.1201C35.75 37.2801 36.4 37.4401 37.05 37.4401C37.05 37.4401 37.05 37.4401 37.2125 37.4401C37.8625 37.6001 38.675 37.6001 39.4875 37.6001C40.3 37.6001 40.95 37.6001 41.7625 37.4401C41.7625 37.4401 41.7625 37.4401 41.925 37.4401C42.575 37.2801 43.225 37.2801 43.875 37.1201C45.175 36.8001 46.3125 36.3201 47.2875 35.6801C47.775 36.0001 47.9375 36.3201 47.9375 36.8001ZM28.275 36.0001C25.5125 36.0001 23.075 35.2001 21.6125 34.4001C22.1 33.7601 22.425 33.1201 22.425 32.3201C22.425 32.1601 22.425 32.1601 22.425 32.0001C24.2125 32.6401 26.325 33.1201 28.4375 33.1201C28.925 33.1201 29.575 33.1201 30.0625 32.9601C30.225 33.4401 30.55 34.0801 30.875 34.5601C30.55 35.0401 30.225 35.3601 30.0625 35.8401C29.4125 35.8401 28.7625 36.0001 28.275 36.0001ZM19.0125 34.4001C18.525 34.7201 18.2 34.8801 17.7125 35.0401C17.55 35.0401 17.3875 35.2001 17.225 35.2001C17.0625 35.2001 16.9 35.3601 16.575 35.3601C16.4125 35.3601 16.0875 35.5201 15.925 35.5201C15.7625 35.5201 15.4375 35.6801 15.275 35.6801C14.95 35.6801 14.4625 35.8401 14.1375 35.8401C13.975 35.8401 13.8125 35.8401 13.65 35.8401C13.1625 35.8401 12.675 35.8401 12.1875 35.8401C11.7 35.8401 11.2125 35.8401 10.725 35.8401C10.5625 35.8401 10.4 35.8401 10.2375 35.8401C9.75 35.8401 9.425 35.6801 9.1 35.6801C8.9375 35.6801 8.775 35.5201 8.45 35.5201C8.2875 35.5201 7.9625 35.3601 7.8 35.3601C7.6375 35.3601 7.475 35.2001 7.15 35.2001C6.9875 35.2001 6.825 35.0401 6.6625 35.0401C6.3375 34.8801 6.0125 34.7201 5.6875 34.5601L5.525 34.4001C5.3625 34.2401 5.2 34.0801 5.0375 34.0801C4.3875 33.6001 4.0625 32.9601 4.0625 32.3201C4.0625 31.8401 4.225 31.5201 4.55 31.2001C5.525 31.8401 6.6625 32.3201 7.9625 32.6401C8.6125 32.8001 9.2625 32.9601 9.9125 32.9601C9.9125 32.9601 9.9125 32.9601 10.075 32.9601C10.725 33.1201 11.5375 33.1201 12.35 33.1201C13.1625 33.1201 13.8125 33.1201 14.625 32.9601C14.625 32.9601 14.625 32.9601 14.7875 32.9601C15.4375 32.8001 16.25 32.8001 16.7375 32.6401C18.0375 32.3201 19.175 31.8401 20.15 31.2001C20.475 31.5201 20.6375 32.0001 20.6375 32.3201C20.6375 32.9601 20.3125 33.4401 19.6625 33.9201C19.3375 34.0801 19.175 34.2401 19.0125 34.4001ZM4.55 17.7601C5.525 18.4001 6.6625 18.8801 7.9625 19.2001C8.6125 19.3601 9.2625 19.5201 9.9125 19.5201C9.9125 19.5201 9.9125 19.5201 10.075 19.5201C10.725 19.6801 11.5375 19.6801 12.35 19.6801C13.1625 19.6801 13.8125 19.6801 14.625 19.5201C14.625 19.5201 14.625 19.5201 14.7875 19.5201C15.4375 19.3601 16.25 19.3601 16.7375 19.2001C18.0375 18.8801 19.175 18.4001 20.15 17.7601C20.475 18.0801 20.6375 18.5601 20.6375 18.8801C20.6375 19.5201 20.3125 20.0001 19.6625 20.4801C19.5 20.6401 19.3375 20.8001 19.175 20.8001C19.175 20.8001 19.175 20.8001 19.0125 20.8001C18.6875 20.9601 18.3625 21.1201 17.875 21.4401C17.7125 21.4401 17.55 21.6001 17.3875 21.6001C17.225 21.6001 17.0625 21.7601 16.7375 21.7601C16.575 21.7601 16.25 21.9201 16.0875 21.9201C15.925 21.9201 15.6 22.0801 15.4375 22.0801C15.1125 22.4001 14.625 22.4001 14.3 22.4001C14.1375 22.4001 13.975 22.4001 13.8125 22.4001C13.325 22.4001 12.8375 22.4001 12.35 22.4001C11.8625 22.4001 11.375 22.4001 10.8875 22.4001C10.725 22.4001 10.5625 22.4001 10.4 22.4001C9.9125 22.4001 9.5875 22.2401 9.2625 22.2401C9.1 22.2401 8.9375 22.0801 8.6125 22.0801C8.45 22.0801 8.125 21.9201 7.9625 21.9201C7.8 21.9201 7.6375 21.7601 7.3125 21.7601C7.15 21.7601 6.9875 21.6001 6.825 21.6001C6.5 21.4401 6.175 21.2801 5.85 21.1201C5.85 21.1201 5.6875 21.1201 5.6875 20.9601C5.525 20.8001 5.3625 20.6401 5.2 20.6401C4.55 20.1601 4.225 19.5201 4.225 18.8801C4.0625 18.5601 4.225 18.0801 4.55 17.7601ZM29.9 19.6801C30.0625 20.1601 30.3875 20.8001 30.7125 21.2801C30.3875 21.7601 30.0625 22.0801 29.9 22.5601C29.4125 22.5601 28.7625 22.7201 28.1125 22.7201C25.35 22.7201 22.9125 21.9201 21.45 21.1201C21.9375 20.4801 22.2625 19.8401 22.2625 19.0401C22.2625 18.8801 22.2625 18.7201 22.2625 18.7201C24.05 19.5201 26.325 19.8401 28.275 19.8401C28.7625 19.6801 29.4125 19.6801 29.9 19.6801ZM35.425 23.6801C36.075 23.8401 36.725 24.0001 37.375 24.0001C37.375 24.0001 37.375 24.0001 37.5375 24.0001C38.1875 24.1601 39 24.1601 39.8125 24.1601C40.625 24.1601 41.275 24.1601 42.0875 24.0001C42.0875 24.0001 42.0875 24.0001 42.25 24.0001C42.9 23.8401 43.55 23.8401 44.2 23.6801C45.5 23.3601 46.6375 22.8801 47.6125 22.2401C47.9375 22.5601 48.1 23.0401 48.1 23.3601C48.1 24.0001 47.775 24.4801 47.125 24.9601C46.9625 25.1201 46.8 25.2801 46.6375 25.2801H46.475C46.15 25.4401 45.825 25.6001 45.3375 25.9201C45.175 25.9201 45.0125 26.0801 45.0125 26.0801C44.85 26.0801 44.525 26.2401 44.3625 26.2401C44.2 26.2401 44.0375 26.4001 43.7125 26.4001C43.55 26.4001 43.225 26.5601 43.0625 26.5601C42.7375 26.5601 42.25 26.7201 41.925 26.7201C41.7625 26.7201 41.6 26.7201 41.4375 26.7201C40.95 26.7201 40.4625 26.7201 39.975 26.7201C39.4875 26.7201 39 26.7201 38.5125 26.7201C38.35 26.7201 38.1875 26.7201 38.025 26.7201C37.7 26.7201 37.2125 26.5601 36.8875 26.5601C36.5625 26.5601 36.4 26.4001 36.075 26.4001C35.9125 26.4001 35.75 26.2401 35.425 26.2401C35.2625 26.2401 34.9375 26.0801 34.775 26.0801C34.6125 26.0801 34.6125 25.9201 34.45 25.9201C33.9625 25.7601 33.6375 25.6001 33.15 25.2801C32.9875 25.1201 32.825 24.9601 32.6625 24.8001C32.0125 24.3201 31.6875 23.6801 31.6875 23.2001C31.6875 22.7201 31.85 22.4001 32.175 22.0801C32.825 22.8801 33.9625 23.3601 35.425 23.6801ZM28.275 31.5201C25.5125 31.5201 23.075 30.7201 21.6125 29.9201C22.1 29.2801 22.2625 28.6401 22.2625 27.8401C22.2625 27.6801 22.2625 27.5201 22.2625 27.5201C23.8875 28.1601 26 28.6401 28.275 28.6401C28.925 28.6401 29.4125 28.6401 29.9 28.4801C30.0625 28.9601 30.3875 29.6001 30.7125 30.0801C30.3875 30.5601 30.0625 30.8801 29.9 31.3601C29.4125 31.5201 28.7625 31.5201 28.275 31.5201ZM29.9 24.1601C30.0625 24.6401 30.3875 25.2801 30.7125 25.7601C30.3875 26.2401 30.0625 26.5601 29.9 27.0401C29.25 27.0401 28.7625 27.2001 28.1125 27.2001C25.35 27.2001 22.9125 26.4001 21.45 25.6001C21.9375 24.9601 22.1 24.3201 22.1 23.6801C22.1 23.5201 22.1 23.5201 22.1 23.3601C23.8875 24.0001 26 24.4801 28.1125 24.4801C28.7625 24.1601 29.4125 24.1601 29.9 24.1601ZM4.55 22.2401C5.525 22.8801 6.6625 23.3601 7.9625 23.6801C8.6125 23.8401 9.2625 24.0001 10.075 24.0001C10.075 24.0001 10.075 24.0001 10.2375 24.0001C10.8875 24.1601 11.7 24.1601 12.5125 24.1601C13.325 24.1601 13.975 24.1601 14.7875 24.0001C14.7875 24.0001 14.7875 24.0001 14.95 24.0001C15.6 23.8401 16.25 23.8401 16.9 23.6801C18.2 23.3601 19.3375 22.8801 20.3125 22.2401C20.6375 22.5601 20.8 23.0401 20.8 23.3601C20.8 23.8401 20.475 24.4801 19.825 24.9601C19.6625 25.1201 19.5 25.2801 19.3375 25.4401C19.0125 25.6001 18.525 25.9201 18.0375 26.0801C17.875 26.0801 17.875 26.2401 17.7125 26.2401C17.55 26.2401 17.225 26.4001 17.0625 26.4001C16.9 26.4001 16.7375 26.5601 16.4125 26.5601C16.25 26.5601 15.925 26.7201 15.6 26.7201C15.275 26.7201 14.95 26.8801 14.4625 26.8801C14.3 26.8801 14.1375 26.8801 13.975 26.8801C13.4875 26.8801 13 26.8801 12.5125 26.8801C12.025 26.8801 11.5375 26.8801 11.05 26.8801C10.8875 26.8801 10.725 26.8801 10.5625 26.8801C10.2375 26.8801 9.75 26.7201 9.425 26.7201C9.2625 26.7201 8.9375 26.5601 8.775 26.5601C8.6125 26.5601 8.2875 26.4001 8.125 26.4001C7.9625 26.4001 7.6375 26.2401 7.475 26.2401C7.3125 26.2401 7.15 26.0801 7.15 26.0801C6.6625 25.9201 6.3375 25.7601 6.0125 25.4401H5.85C5.6875 25.2801 5.525 25.1201 5.3625 25.1201C4.7125 24.6401 4.3875 24.0001 4.3875 23.5201C4.0625 22.8801 4.225 22.5601 4.55 22.2401ZM4.55 26.7201C5.525 27.3601 6.6625 27.8401 7.9625 28.1601C8.6125 28.3201 9.2625 28.4801 9.9125 28.4801C9.9125 28.4801 9.9125 28.4801 10.075 28.4801C10.725 28.6401 11.5375 28.6401 12.35 28.6401C13.1625 28.6401 13.8125 28.6401 14.625 28.4801C14.625 28.4801 14.625 28.4801 14.7875 28.4801C15.4375 28.3201 16.25 28.3201 16.7375 28.1601C18.0375 27.8401 19.175 27.3601 20.15 26.7201C20.475 27.0401 20.6375 27.5201 20.6375 27.8401C20.6375 28.3201 20.3125 28.9601 19.6625 29.4401C19.5 29.6001 19.3375 29.7601 19.0125 29.9201C18.6875 30.0801 18.2 30.4001 17.7125 30.5601C17.55 30.5601 17.55 30.7201 17.3875 30.7201C17.225 30.7201 16.9 30.8801 16.7375 30.8801C16.575 30.8801 16.4125 31.0401 16.0875 31.0401C15.925 31.0401 15.6 31.2001 15.4375 31.2001C15.1125 31.2001 14.625 31.3601 14.3 31.3601C14.1375 31.3601 13.975 31.3601 13.8125 31.3601C13.325 31.3601 12.8375 31.3601 12.35 31.3601C11.8625 31.3601 11.375 31.3601 10.8875 31.3601C10.725 31.3601 10.5625 31.3601 10.4 31.3601C10.075 31.3601 9.5875 31.2001 9.2625 31.2001C9.1 31.2001 8.775 31.0401 8.6125 31.0401C8.45 31.0401 8.125 30.8801 7.9625 30.8801C7.8 30.8801 7.475 30.7201 7.3125 30.7201C7.15 30.7201 6.9875 30.5601 6.825 30.5601C6.5 30.4001 6.175 30.2401 5.6875 29.9201H5.525C5.3625 29.7601 5.2 29.6001 5.0375 29.6001C4.3875 29.1201 4.0625 28.4801 4.0625 28.0001C4.0625 27.5201 4.225 27.0401 4.55 26.7201ZM47.9375 18.8801C47.9375 19.5201 47.6125 20.0001 46.9625 20.4801C46.8 20.6401 46.6375 20.8001 46.475 20.8001C46.475 20.8001 46.3125 20.8001 46.3125 20.9601C45.9875 21.1201 45.6625 21.2801 45.3375 21.4401C45.175 21.4401 45.0125 21.6001 44.85 21.6001C44.6875 21.6001 44.525 21.7601 44.2 21.7601C44.0375 21.7601 43.7125 21.9201 43.55 21.9201C43.3875 21.9201 43.225 22.0801 42.9 22.0801C42.575 22.0801 42.0875 22.2401 41.7625 22.2401C41.6 22.2401 41.4375 22.2401 41.275 22.2401C40.7875 22.2401 40.3 22.2401 39.8125 22.2401C39.325 22.2401 38.8375 22.2401 38.35 22.2401C38.1875 22.2401 38.025 22.2401 37.8625 22.2401C37.5375 22.2401 37.05 22.0801 36.725 22.0801C36.5625 22.0801 36.2375 21.9201 36.075 21.9201C35.9125 21.9201 35.5875 21.7601 35.425 21.7601C35.2625 21.7601 34.9375 21.6001 34.775 21.6001C34.6125 21.6001 34.45 21.4401 34.2875 21.4401C33.8 21.2801 33.475 21.1201 33.15 20.8001C33.15 20.8001 33.15 20.8001 32.9875 20.8001C32.825 20.6401 32.6625 20.4801 32.5 20.4801C31.85 20.0001 31.525 19.3601 31.525 18.8801C31.525 17.1201 34.9375 15.2001 39.8125 15.2001C44.525 15.2001 47.9375 17.1201 47.9375 18.8801ZM29.9 18.0801C29.4125 18.0801 28.7625 18.2401 28.1125 18.2401C25.5125 18.2401 22.9125 17.4401 21.45 16.4801C21.9375 15.8401 22.1 15.2001 22.1 14.5601V14.4001C23.725 15.0401 25.8375 15.5201 28.1125 15.5201C31.2 15.5201 33.9625 14.7201 35.75 13.6001C35.9125 13.7601 35.9125 13.9201 36.075 14.0801C32.9875 14.5601 30.55 16.1601 29.9 18.0801ZM28.275 6.40014C33.15 6.40014 36.5625 8.32014 36.5625 10.0801C36.5625 11.8401 33.15 13.7601 28.275 13.7601C23.4 13.7601 19.9875 11.8401 19.9875 10.0801C19.9875 8.32014 23.4 6.40014 28.275 6.40014ZM12.35 10.7201C17.225 10.7201 20.6375 12.6401 20.6375 14.4001C20.6375 14.8801 20.3125 15.5201 19.6625 16.0001C19.5 16.1601 19.3375 16.3201 19.0125 16.4801C18.6875 16.6401 18.2 16.9601 17.7125 17.1201C17.55 17.1201 17.55 17.2801 17.3875 17.2801C17.225 17.2801 16.9 17.4401 16.7375 17.4401C16.575 17.6001 16.25 17.6001 16.0875 17.6001C15.925 17.6001 15.6 17.7601 15.4375 17.7601C15.1125 17.7601 14.625 17.9201 14.3 17.9201C14.1375 17.9201 13.975 17.9201 13.8125 17.9201C13.325 17.9201 12.8375 17.9201 12.35 17.9201C11.8625 17.9201 11.375 17.9201 10.8875 17.9201C10.725 17.9201 10.5625 17.9201 10.4 17.9201C9.9125 17.9201 9.5875 17.7601 9.2625 17.7601C9.1 17.7601 8.9375 17.6001 8.6125 17.6001C8.2875 17.6001 8.125 17.6001 7.9625 17.4401C7.8 17.4401 7.6375 17.2801 7.3125 17.2801C7.15 17.2801 6.9875 17.1201 6.825 17.1201C6.3375 16.9601 6.0125 16.8001 5.6875 16.6401C5.6875 16.6401 5.6875 16.6401 5.525 16.6401C5.3625 16.4801 5.2 16.3201 5.0375 16.1601C4.3875 15.5201 4.0625 15.0401 4.0625 14.4001C4.0625 12.6401 7.475 10.7201 12.35 10.7201ZM4.0625 36.8001C4.0625 36.3201 4.225 36.0001 4.55 35.6801C5.525 36.3201 6.6625 36.8001 7.9625 37.1201C8.6125 37.2801 9.2625 37.4401 9.9125 37.4401C9.9125 37.4401 9.9125 37.4401 10.075 37.4401C10.725 37.6001 11.5375 37.6001 12.35 37.6001C13.1625 37.6001 13.8125 37.6001 14.625 37.4401C14.625 37.4401 14.625 37.4401 14.7875 37.4401C15.4375 37.2801 16.0875 37.2801 16.7375 37.1201C18.0375 36.8001 19.175 36.3201 20.15 35.6801C20.475 36.0001 20.6375 36.4801 20.6375 36.8001C20.6375 38.5601 17.225 40.4801 12.35 40.4801C7.475 40.4801 4.0625 38.5601 4.0625 36.8001ZM21.45 38.7201C21.9375 38.0801 22.1 37.4401 22.1 36.6401C22.1 36.4801 22.1 36.4801 22.1 36.3201C23.8875 36.9601 26 37.4401 28.1125 37.4401C28.6 37.4401 29.25 37.4401 29.7375 37.2801C29.9 37.7601 30.225 38.4001 30.55 38.8801C30.225 39.3601 29.9 39.6801 29.7375 40.1601C29.0875 40.1601 28.6 40.3201 27.95 40.3201C25.5125 40.4801 23.075 39.6801 21.45 38.7201ZM39.65 44.9601C34.775 44.9601 31.3625 43.0401 31.3625 41.2801C31.3625 40.9601 31.525 40.4801 31.85 40.1601C32.825 40.8001 33.9625 41.2801 35.2625 41.6001C35.9125 41.7601 36.5625 41.9201 37.2125 41.9201C37.2125 41.9201 37.2125 41.9201 37.375 41.9201C38.025 42.0801 38.8375 42.0801 39.65 42.0801C40.4625 42.0801 41.1125 42.0801 41.925 41.9201C41.925 41.9201 41.925 41.9201 42.0875 41.9201C42.7375 41.7601 43.3875 41.7601 44.0375 41.6001C45.3375 41.2801 46.475 40.8001 47.45 40.1601C47.775 40.4801 47.9375 40.9601 47.9375 41.2801C47.9375 43.0401 44.525 44.9601 39.65 44.9601Z" fill="url(#paint0_linear)" fill-opacity="0.9"/>
<defs>
<linearGradient id="paint0_linear" x1="75.2431" y1="-7.45017" x2="6.60293" y2="-13.8198" gradientUnits="userSpaceOnUse">
<stop offset="0.145833" stop-color="#FF3E79"/>
<stop offset="1" stop-color="#F9357C"/>
</linearGradient>
</defs>
</svg>
