

<svg width="36" height="36" viewBox="0 0 36 36" fill="none" xmlns="http://www.w3.org/2000/svg">
<g clip-path="url(#clip0)">
<path d="M34.5426 9.94985C34.2649 7.3945 34.2649 1.56163 31.154 0.395056C31.0429 0.228403 30.7652 0.172852 30.5985 0.228403C30.3207 0.172852 30.043 0.172852 29.7652 0.172852C27.5987 0.283954 25.4878 2.45045 24.1546 3.95033C22.4325 5.83907 21.1548 8.00556 20.266 10.4498C20.0438 10.3387 19.766 10.2832 19.4327 10.3387C18.3217 10.3943 17.2107 10.5054 16.0997 10.6165C14.3776 6.78344 11.2112 2.11714 6.65597 1.45053C2.65628 0.895016 2.21188 6.61678 1.93412 9.44989C1.48971 13.2829 1.21195 20.1158 5.7116 21.9489C6.54486 22.2822 7.37813 22.3377 8.2114 22.171C7.43368 24.3376 7.15593 26.504 7.10037 28.8372C7.10037 30.6149 6.87817 32.8925 7.60033 34.5589C7.65589 34.6701 7.87809 34.781 7.98919 34.781C8.4336 34.781 8.48915 34.6144 8.87801 34.4477C9.32242 34.1144 9.76683 33.7811 10.2112 33.4478C11.2112 33.559 12.2111 33.6144 13.211 33.7256C14.0443 34.0035 15.0997 34.8367 15.8775 35.281C16.2108 35.4478 16.5441 35.17 16.4885 34.8367C15.2664 28.726 15.7108 23.1153 17.7106 17.338C19.7105 21.8933 20.8215 26.3927 20.266 31.448C20.2105 31.8924 20.766 32.0035 21.0437 31.7814C22.2658 30.6703 23.488 29.5593 24.599 28.3371C26.21 29.1705 27.7654 30.0037 29.2653 31.0036C29.543 31.2258 29.9874 30.9482 29.9874 30.5592C29.8208 27.3929 28.932 24.4486 27.321 21.7267C28.5431 22.171 29.8208 22.3376 31.0984 22.1155C36.4314 21.2266 34.8759 13.5607 34.5426 9.94985ZM26.3766 3.11706C27.0988 2.506 28.2654 1.45053 29.2653 1.28387C29.5986 1.22832 29.9319 1.22832 30.1541 1.22832C29.7652 3.78367 28.5431 5.83907 26.4322 7.45005C24.7656 8.72773 22.7657 9.39434 20.8771 10.2832C22.3214 7.6167 24.0435 5.1169 26.3766 3.11706ZM6.87817 2.17269C7.60033 2.22824 8.48915 2.67265 9.10021 3.00596C12.1555 4.67249 13.6554 7.78336 15.4886 10.5609C11.1556 10.1721 4.93388 8.50552 4.04506 3.78367C4.43392 2.7282 4.98943 2.06159 6.87817 2.17269ZM6.21156 20.9491C2.26743 19.2269 2.37853 13.6718 2.71184 9.94985C2.87849 8.28332 3.15624 6.56123 3.6562 4.8947C4.60057 9.33879 11.4334 11.6164 15.5997 11.1164C15.5997 11.1164 15.5997 11.1164 15.5997 11.172C15.4886 11.5608 15.3775 12.0608 15.3219 12.5608C15.2108 12.5608 15.0442 12.5608 14.9331 12.5608C14.6553 12.6163 14.4331 12.6719 14.2109 12.6719C13.711 12.6719 13.211 12.6163 12.711 12.5052C12.3222 12.3941 11.9889 13.0052 12.4333 13.2274C12.9888 13.4496 13.5443 13.5607 14.2109 13.5051C14.4887 13.4496 14.822 13.394 15.0997 13.2829C15.2108 13.2274 15.2664 13.2274 15.3219 13.1718C15.3219 13.5607 15.3219 13.894 15.3775 14.2273C14.5998 14.2828 13.9332 14.4495 13.2666 14.8939C13.0443 15.0606 13.211 15.4494 13.4888 15.2828C14.0998 14.9495 14.7664 14.6717 15.433 14.4495C15.4886 14.6717 15.5441 14.8939 15.7108 15.1161C15.7108 15.1161 15.7108 15.1161 15.6552 15.1161C13.4332 17.727 9.93348 22.56 6.21156 20.9491ZM15.5997 34.0036C14.4887 33.2259 12.9888 32.1147 11.8222 32.0036C10.6556 31.9482 10.0446 33.0592 9.04466 33.1147C6.71152 33.2259 8.65581 23.3932 9.10021 22.0601C9.10021 22.0044 9.10021 21.9489 9.10021 21.8934C11.9333 20.8379 14.4331 17.5604 15.9886 15.6161C16.0997 15.6716 16.1552 15.7827 16.2663 15.8383C16.5441 16.0049 16.8774 16.0605 17.2107 16.1716C14.322 21.5045 14.5998 28.1151 15.5997 34.0036ZM17.7106 15.505C17.544 15.505 17.4329 15.4494 17.2662 15.4494C15.433 15.1161 15.7664 12.6719 15.9886 11.2831V11.2275C16.5996 11.2275 17.1551 11.1164 17.7662 11.0609C18.2106 11.0053 19.2661 10.7276 19.5994 10.8942C20.2104 11.172 19.9882 12.1163 19.9882 12.6163C19.9882 13.1163 20.0993 13.7829 19.9882 14.2828C19.766 15.3383 18.9328 15.5605 18.0439 15.5605C18.0439 15.4494 17.8773 15.4494 17.7106 15.505ZM25.9878 21.1712C27.7098 23.7265 28.7098 26.5595 29.0986 29.6149C27.8209 28.8373 26.4876 28.2262 25.0989 27.7818C25.1545 27.393 24.7101 27.0595 24.3768 27.393C23.4324 28.3929 22.4325 29.3373 21.4326 30.226C21.7659 25.3931 20.8771 20.5046 18.1551 16.4493C18.1551 16.3938 18.2106 16.3382 18.2106 16.2271C18.9882 16.2271 19.766 16.116 20.2104 15.6716C20.2659 15.6161 20.3215 15.5605 20.3771 15.505C20.3771 15.5605 20.3771 15.6716 20.4326 15.7272C21.6547 17.727 23.6545 19.7823 25.9321 21.0045C25.9322 21.06 25.9322 21.1157 25.9878 21.1712ZM30.4319 21.5045C29.1542 21.5045 27.8766 21.1157 26.7099 20.5601H26.6544C24.3768 19.449 22.3769 17.4493 21.0437 15.4494C20.9326 15.2272 20.6549 15.2272 20.5437 15.3383C20.7104 15.0606 20.7659 14.7272 20.7659 14.3939C21.3214 14.505 21.8769 14.7828 22.2657 15.1161C22.4879 15.3383 22.8213 15.005 22.599 14.7828C22.0991 14.1717 21.488 13.9495 20.7659 14.0051C20.7659 13.9495 20.7659 13.8384 20.7659 13.7829C20.7659 13.6718 20.7659 13.5051 20.7659 13.3385C21.7659 13.2829 22.7102 12.9496 23.4879 12.283C23.7101 12.1163 23.4324 11.7275 23.2101 11.8941C22.4879 12.4497 21.6546 12.783 20.7658 12.8385C20.7658 12.1719 20.8213 11.4497 20.5991 10.8942C20.6547 10.8942 20.6547 10.8942 20.7103 10.8942C23.4323 10.0054 25.9877 9.39434 28.1542 7.3945C29.8207 5.89462 31.0428 3.83923 31.2095 1.56163C32.0983 2.11714 32.4316 3.28371 32.7093 4.22808C33.2093 6.22792 33.376 8.33887 33.5426 10.3943C33.876 13.6718 35.5981 21.5599 30.4319 21.5045Z" fill="url(#paint0_linear)" fill-opacity="0.9"/>
</g>
<defs>
<linearGradient id="paint0_linear" x1="53.1618" y1="-10.3157" x2="4.52058" y2="-14.0907" gradientUnits="userSpaceOnUse">
<stop offset="0.145833" stop-color="#FF3E79"/>
<stop offset="1" stop-color="#F9357C"/>
</linearGradient>
<clipPath id="clip0">
<rect width="35.1581" height="35.1581" fill="white" transform="translate(0.776367 0.172852)"/>
</clipPath>
</defs>
</svg>
