<svg width="66" height="66" viewBox="0 0 66 66" fill="none" xmlns="http://www.w3.org/2000/svg">
<path d="M28.8086 65.9948C44.7191 65.9948 57.6171 53.0968 57.6171 37.1862C57.6171 21.2757 44.7191 8.37769 28.8086 8.37769C12.898 8.37769 0 21.2757 0 37.1862C0 53.0968 12.898 65.9948 28.8086 65.9948Z" fill="#FF3E79"/>
<path d="M57.6168 37.1861C57.6168 53.0962 44.7183 65.9947 28.8082 65.9947C20.175 65.9947 12.4273 62.1962 7.14844 56.1784C12.2193 60.6291 18.8653 63.3272 26.1407 63.3272C42.0508 63.3272 54.9493 50.4287 54.9493 34.5187C54.9493 27.2432 52.2512 20.5972 47.8005 15.5264C53.8183 20.8053 57.6168 28.5529 57.6168 37.1861Z" fill="#FF3E79"/>
<path d="M28.8081 58.9259C40.8147 58.9259 50.5479 49.1926 50.5479 37.1861C50.5479 25.1795 40.8147 15.4463 28.8081 15.4463C16.8016 15.4463 7.06836 25.1795 7.06836 37.1861C7.06836 49.1926 16.8016 58.9259 28.8081 58.9259Z" fill="#F5F5F5"/>
<path d="M50.5489 37.1861C50.5489 49.1923 40.8153 58.9258 28.8091 58.9258C22.1271 58.9258 16.1493 55.9103 12.1602 51.1675C15.9399 54.3445 20.8174 56.2584 26.1416 56.2584C38.1479 56.2584 47.8814 46.5248 47.8814 34.5186C47.8814 29.1943 45.9675 24.3169 42.7906 20.5371C47.5333 24.5263 50.5489 30.5041 50.5489 37.1861Z" fill="#E6E6E6"/>
<path d="M28.8097 51.8572C36.9123 51.8572 43.4807 45.2887 43.4807 37.1862C43.4807 29.0836 36.9123 22.5151 28.8097 22.5151C20.7071 22.5151 14.1387 29.0836 14.1387 37.1862C14.1387 45.2887 20.7071 51.8572 28.8097 51.8572Z" fill="#FF3E79"/>
<path d="M43.4787 37.1861C43.4787 45.2885 36.9101 51.8571 28.8077 51.8571C24.0769 51.8571 19.8677 49.6178 17.1855 46.1407C19.6623 48.0533 22.7685 49.1897 26.1402 49.1897C34.2426 49.1897 40.8112 42.621 40.8112 34.5186C40.8112 31.147 39.6749 28.0407 37.7623 25.564C41.2394 28.2461 43.4787 32.4553 43.4787 37.1861Z" fill="#FF3E79"/>
<path d="M28.8087 44.6551C32.9337 44.6551 36.2776 41.3111 36.2776 37.1862C36.2776 33.0612 32.9337 29.7173 28.8087 29.7173C24.6838 29.7173 21.3398 33.0612 21.3398 37.1862C21.3398 41.3111 24.6838 44.6551 28.8087 44.6551Z" fill="#F5F5F5"/>
<path d="M56.0664 46.5342C55.4982 48.1906 54.7846 49.7778 53.9391 51.2809L47.5078 48.2813C48.3894 46.8009 49.0989 45.2058 49.6098 43.5239L56.0664 46.5342Z" fill="#FF3E79"/>
<path d="M49.6093 43.5241C49.0985 45.2059 48.389 46.8011 47.5074 48.2815L41.0508 45.2713C42.0031 43.8349 42.7073 42.2224 43.1047 40.4912L49.6093 43.5241Z" fill="#E6E6E6"/>
<path d="M43.1061 40.4911C42.7087 42.2223 42.0045 43.8348 41.0522 45.2712L34.3809 42.1609C35.5359 40.8672 36.2481 39.1694 36.2774 37.3062L43.1061 40.4911Z" fill="#FF3E79"/>
<path d="M36.2759 37.3062C36.2466 39.1694 35.5344 40.8672 34.3793 42.1609L28.1308 39.2467C26.9091 38.6786 26.3383 37.2808 26.7744 36.0351C26.8038 35.9538 26.8358 35.8724 26.8731 35.7911C27.1772 35.1402 27.7147 34.6747 28.3415 34.4467C28.9657 34.2199 29.6793 34.2293 30.3288 34.5333L36.2759 37.3062Z" fill="#E6E6E6"/>
<path d="M65.7757 12.0269C65.9894 12.0625 66.0737 12.3246 65.9209 12.4782L63.0991 15.3129L61.3679 17.0521L56.6374 21.8031C56.3335 22.1084 55.9007 22.2481 55.4755 22.1781L48.4199 21.016L53.7042 15.7744L55.4553 14.0379L58.6763 10.8423L65.7757 12.0269Z" fill="#50758D"/>
<path d="M63.0999 15.3131L61.3687 17.0523L53.7051 15.7746L55.4563 14.0381L63.0999 15.3131Z" fill="#2B597F"/>
<path d="M55.2999 7.76277L52.095 10.8984L50.3518 12.6042L45.0862 17.7564L43.9103 10.6106C43.8405 10.1867 43.9792 9.75523 44.2828 9.45141L49.0327 4.69653L50.7706 2.95601L53.6459 0.0784891C53.7999 -0.07569 54.0637 0.00993541 54.098 0.225066L55.2999 7.76277Z" fill="#50758D"/>
<path d="M52.0954 10.8984L50.3523 12.6043L49.0332 4.69657L50.7711 2.95605L52.0954 10.8984Z" fill="#2B597F"/>
<path d="M61.3966 7.33191C61.3966 7.99611 61.1432 8.66297 60.635 9.16979L31.0676 38.7372C30.1153 39.6909 28.6068 39.7495 27.5852 38.9133C27.5185 38.8586 27.4531 38.7999 27.3905 38.7372C26.8823 38.2291 26.6289 37.5649 26.6289 36.898C26.6289 36.2338 26.8823 35.567 27.3905 35.0601L56.9579 5.4927C57.9729 4.47639 59.62 4.47639 60.635 5.4927C60.6977 5.55538 60.7564 5.62073 60.8111 5.68742C61.2018 6.16489 61.3966 6.74773 61.3966 7.33191Z" fill="#918291"/>
<path d="M61.3973 7.33199C61.3973 7.99619 61.1439 8.66305 60.6358 9.16987L31.0683 38.7373C30.116 39.6909 28.6076 39.7496 27.5859 38.9134L60.8118 5.6875C61.2026 6.16498 61.3973 6.74782 61.3973 7.33199Z" fill="#7A6E79"/>
</svg>
