<svg width="71" height="70" viewBox="0 0 71 70" fill="none" xmlns="http://www.w3.org/2000/svg">
<path d="M30.5569 69.9999C47.4331 69.9999 61.1139 56.3191 61.1139 39.4429C61.1139 22.5668 47.4331 8.88599 30.5569 8.88599C13.6808 8.88599 0 22.5668 0 39.4429C0 56.3191 13.6808 69.9999 30.5569 69.9999Z" fill="#FF3E79"/>
<path d="M61.1152 39.443C61.1152 56.3187 47.4339 70 30.5583 70C21.4011 70 13.1833 65.971 7.58398 59.588C12.9626 64.3087 20.0119 67.1706 27.7289 67.1706C44.6046 67.1706 58.2859 53.4893 58.2859 36.6137C58.2859 28.8967 55.424 21.8473 50.7032 16.4688C57.0862 22.068 61.1152 30.2859 61.1152 39.443Z" fill="#FF3E79"/>
<path d="M30.5572 62.5019C43.2924 62.5019 53.6164 52.1779 53.6164 39.4427C53.6164 26.7075 43.2924 16.3835 30.5572 16.3835C17.822 16.3835 7.49805 26.7075 7.49805 39.4427C7.49805 52.1779 17.822 62.5019 30.5572 62.5019Z" fill="#F5F5F5"/>
<path d="M53.617 39.4428C53.617 52.1777 43.2927 62.502 30.5578 62.502C23.4703 62.502 17.1297 59.3034 12.8984 54.2728C16.9076 57.6426 22.0811 59.6726 27.7285 59.6726C40.4633 59.6726 50.7876 49.3484 50.7876 36.6135C50.7876 30.9661 48.7576 25.7926 45.3878 21.7834C50.4184 26.0147 53.617 32.3553 53.617 39.4428Z" fill="#E6E6E6"/>
<path d="M30.5575 55.0044C39.1518 55.0044 46.1189 48.0373 46.1189 39.443C46.1189 30.8487 39.1518 23.8816 30.5575 23.8816C21.9632 23.8816 14.9961 30.8487 14.9961 39.443C14.9961 48.0373 21.9632 55.0044 30.5575 55.0044Z" fill="#FF3E79"/>
<path d="M46.1174 39.4429C46.1174 48.0371 39.1501 55.0043 30.556 55.0043C25.5381 55.0043 21.0734 52.6291 18.2285 48.9411C20.8556 50.9697 24.1503 52.175 27.7266 52.175C36.3208 52.175 43.288 45.2077 43.288 36.6136C43.288 33.0373 42.0827 29.7425 40.0541 27.1155C43.7421 29.9604 46.1174 34.4251 46.1174 39.4429Z" fill="#FF3E79"/>
<path d="M30.5569 47.3653C34.9322 47.3653 38.4791 43.8185 38.4791 39.4432C38.4791 35.0679 34.9322 31.521 30.5569 31.521C26.1816 31.521 22.6348 35.0679 22.6348 39.4432C22.6348 43.8185 26.1816 47.3653 30.5569 47.3653Z" fill="#F5F5F5"/>
<path d="M59.4686 49.3582C58.8659 51.1152 58.1091 52.7987 57.2122 54.393L50.3906 51.2114C51.3257 49.6411 52.0783 47.9492 52.6201 46.1653L59.4686 49.3582Z" fill="#FF3E79"/>
<path d="M52.6209 46.1657C52.0791 47.9496 51.3265 49.6416 50.3914 51.2118L43.543 48.0189C44.553 46.4953 45.3 44.785 45.7216 42.9487L52.6209 46.1657Z" fill="#E6E6E6"/>
<path d="M45.7235 42.9486C45.302 44.7848 44.555 46.4951 43.5449 48.0187L36.4688 44.7197C37.6939 43.3475 38.4493 41.5466 38.4804 39.5703L45.7235 42.9486Z" fill="#FF3E79"/>
<path d="M38.4786 39.5703C38.4474 41.5466 37.692 43.3475 36.4669 44.7197L29.8392 41.6287C28.5433 41.026 27.9378 39.5434 28.4004 38.2221C28.4316 38.1358 28.4655 38.0495 28.5051 37.9632C28.8277 37.2729 29.3978 36.7792 30.0627 36.5373C30.7247 36.2968 31.4816 36.3067 32.1705 36.6292L38.4786 39.5703Z" fill="#E6E6E6"/>
<path d="M69.7666 12.7568C69.9932 12.7945 70.0826 13.0725 69.9205 13.2355L66.9275 16.2422L65.0912 18.087L60.0736 23.1263C59.7512 23.4501 59.2922 23.5982 58.8412 23.524L51.3574 22.2914L56.9624 16.7317L58.8198 14.8898L62.2363 11.5002L69.7666 12.7568Z" fill="#50758D"/>
<path d="M66.9298 16.2426L65.0936 18.0873L56.9648 16.732L58.8223 14.8901L66.9298 16.2426Z" fill="#2B597F"/>
<path d="M58.6544 8.23389L55.2549 11.5598L53.4059 13.3692L47.8208 18.834L46.5735 11.2545C46.4995 10.8049 46.6466 10.3473 46.9686 10.025L52.0068 4.98156L53.8501 3.13541L56.8999 0.0832526C57.0633 -0.0802836 57.3431 0.0105384 57.3795 0.238725L58.6544 8.23389Z" fill="#50758D"/>
<path d="M55.2559 11.5599L53.4069 13.3692L52.0078 4.98165L53.8511 3.1355L55.2559 11.5599Z" fill="#2B597F"/>
<path d="M65.1218 7.7769C65.1218 8.48141 64.8531 9.18874 64.3141 9.72632L32.9522 41.0882C31.9421 42.0997 30.3421 42.1619 29.2585 41.2749C29.1877 41.2169 29.1184 41.1547 29.0519 41.0882C28.5129 40.5492 28.2441 39.8447 28.2441 39.1374C28.2441 38.4329 28.5129 37.7255 29.0519 37.188L60.4138 5.82606C61.4904 4.74808 63.2375 4.74808 64.3141 5.82606C64.3806 5.89255 64.4428 5.96187 64.5008 6.03261C64.9153 6.53906 65.1218 7.15727 65.1218 7.7769Z" fill="#918291"/>
<path d="M65.1212 7.77676C65.1212 8.48127 64.8524 9.18861 64.3134 9.72618L32.9515 41.0881C31.9414 42.0996 30.3415 42.1618 29.2578 41.2748L64.5002 6.03247C64.9146 6.53892 65.1212 7.15714 65.1212 7.77676Z" fill="#7A6E79"/>
</svg>
