<svg width="53" height="47" viewBox="0 0 53 47" fill="none" xmlns="http://www.w3.org/2000/svg">
<path d="M21.4564 46.8521V24.6761H11.9524C11.9524 21.1241 12.6244 18.1481 13.9684 15.7481C15.3124 13.2521 17.8084 11.3801 21.4564 10.1321V0.628085C18.4804 1.01209 15.6964 1.92409 13.1044 3.36408C10.6084 4.70808 8.44844 6.43608 6.62444 8.54809C4.80044 10.6601 3.36044 13.1081 2.30444 15.8921C1.34444 18.6761 0.912437 21.6521 1.00844 24.8201V46.8521H21.4564ZM52.1284 46.8521V24.6761H42.6244C42.6244 21.1241 43.2964 18.1481 44.6404 15.7481C45.9844 13.2521 48.4804 11.3801 52.1284 10.1321V0.628085C49.1524 1.01209 46.3684 1.92409 43.7764 3.36408C41.2804 4.70808 39.1204 6.43608 37.2964 8.54809C35.4724 10.6601 34.0324 13.1081 32.9764 15.8921C32.0164 18.6761 31.5844 21.6521 31.6804 24.8201V46.8521H52.1284Z" fill="#54514C"/>
</svg>
