<svg width="56" height="56" viewBox="0 0 56 56" fill="none" xmlns="http://www.w3.org/2000/svg">
<path d="M21.0007 49C23.578 49 25.6673 46.9106 25.6673 44.3333C25.6673 41.756 23.578 39.6666 21.0007 39.6666C18.4233 39.6666 16.334 41.756 16.334 44.3333C16.334 46.9106 18.4233 49 21.0007 49Z" stroke="#FF3E79" stroke-width="2" stroke-linecap="round" stroke-linejoin="round"/>
<path d="M39.6667 49C42.244 49 44.3333 46.9106 44.3333 44.3333C44.3333 41.756 42.244 39.6666 39.6667 39.6666C37.0893 39.6666 35 41.756 35 44.3333C35 46.9106 37.0893 49 39.6667 49Z" stroke="#FF3E79" stroke-width="2" stroke-linecap="round" stroke-linejoin="round"/>
<path d="M7 7H11.6667L16.3333 35C16.8367 36.4314 17.7915 37.6606 19.0541 38.5023C20.3166 39.3439 21.8184 39.7526 23.3333 39.6667H39.6667C41.1816 39.7526 42.6834 39.3439 43.9459 38.5023C45.2085 37.6606 46.1633 36.4314 46.6667 35L49 18.6667H13.5333" stroke="#FF3E79" stroke-width="2" stroke-linecap="round" stroke-linejoin="round"/>
</svg>
