<svg width="310" height="271" viewBox="0 0 310 271" fill="none" xmlns="http://www.w3.org/2000/svg">
<rect width="310" height="271" fill="#F0E3E7"/>
<path d="M265.667 111.408C284.062 93.0128 284.062 63.1883 265.667 44.7931C247.271 26.3979 217.447 26.3979 199.052 44.7931C180.657 63.1883 180.657 93.0128 199.052 111.408C217.447 129.803 247.271 129.803 265.667 111.408Z" fill="#F1B299"/>
<path d="M268.704 55.989C268.649 53.4674 268.621 50.2968 266.989 48.1553C266.961 47.8123 266.878 47.4507 266.665 47.1726C266.655 46.3012 266.711 45.3741 266.312 44.5675C266.98 42.973 264.894 42.1386 265.116 40.7202C265.107 40.7573 265.107 40.7851 265.098 40.8222C265.802 38.8197 264.226 37.7258 263.021 36.4835C263.021 35.1207 262.363 34.2122 261.306 33.4242C260.926 32.7103 261.047 31.7462 260.342 31.1899C261.251 31.7647 263.197 33.8321 263.967 34.7499C263.967 34.7499 263.967 34.7406 263.958 34.7406C264.087 35.6306 265.738 38.6992 265.181 36.122C265.181 36.1312 265.191 36.1498 265.191 36.159C265.172 36.0941 265.144 36.0292 265.126 35.9643V35.9736C265.126 35.9551 265.116 35.9458 265.116 35.9273C265.116 35.9365 265.126 35.9458 265.126 35.9551C264.838 35.0466 264.653 34.0824 264.115 33.2851L264.125 33.2944C264.097 33.2573 264.078 33.2202 264.05 33.1831C264.06 33.1924 264.069 33.2017 264.069 33.2202C262.558 30.9211 262.363 30.2073 259.823 29.3266C259.498 28.1863 259.359 25.8037 257.626 26.3507C257.876 25.0157 256.671 24.7654 255.799 24.2369C255.614 23.4119 255.688 22.3365 254.641 22.0954C256.309 20.9922 255.985 24.4038 257.783 23.931C258.989 27.2499 261.445 24.9508 263.559 29.5027C263.958 28.9557 262.919 27.8247 262.623 27.2221C262.168 25.8408 261.176 25.025 259.879 24.4595C259.276 23.6529 258.998 22.3365 257.737 22.3921C257.246 20.6307 255.41 19.7592 253.862 20.8903C253.491 20.0652 252.768 19.1196 251.748 19.5553C250.979 17.5435 248.337 19.2586 247.549 17.6826C249.301 17.1449 251.006 18.3037 252.694 18.0441C252.833 18.3223 253.825 18.9341 253.547 18.2666C252.165 16.8575 249.709 16.3476 247.641 16.2734C245.704 16.1437 243.933 15.847 242.274 17.0522C240.577 16.3754 238.964 16.876 237.647 18.0627C233.782 16.839 230.046 19.9539 227.997 22.9854C226.143 21.2054 223.232 21.5948 221.053 22.4477C220.228 22.1789 219.597 21.4465 218.707 21.3167C217.771 21.1498 217.104 21.8729 216.492 22.4477C214.934 21.7617 212.913 21.4465 211.986 23.2821C210.178 22.6146 209.381 24.135 208.788 25.4978C206.683 25.0342 205.015 26.4341 204.616 28.5015C203.494 27.8154 202.41 28.177 201.761 29.2895C198.896 28.0101 194.854 34.926 198.433 31.7369C198.423 31.7462 198.414 31.7555 198.405 31.7647C200.027 29.3914 201.77 31.3476 203.457 29.3544C205.886 30.9118 205.654 27.5188 207.305 26.8606C206.693 27.4724 206.146 28.2697 206.257 29.1597C205.154 30.7171 200.806 30.8006 201.566 33.248C200.769 35.5842 195.438 36.1868 196.421 38.8383C196.041 39.719 195.188 40.303 194.511 40.9612L194.52 40.952C194.455 41.0076 194.391 41.0725 194.326 41.1281C193.742 41.5267 193.306 42.3148 193.844 42.9266C193.556 44.1318 191.276 45.4853 192.573 46.6813C192.388 49.2956 191.192 52.2158 192.064 54.8023C192.444 55.3771 191.507 56.3413 192.277 56.6194C193.575 56.1744 191.869 51.9377 192.768 50.065C194.307 51.7987 193.083 52.4754 193.482 54.3666C195.605 56.2578 193.25 58.1954 193 60.3277C192.926 61.0971 193.399 61.709 193.825 62.2745C193.816 63.8227 191.684 65.4543 193.473 66.7708C193.463 66.7522 193.463 66.743 193.454 66.7244L193.463 66.7337C193.473 66.743 193.473 66.7522 193.473 66.7522C193.473 66.743 193.463 66.743 193.463 66.7337C193.584 67.7071 192.703 68.8845 193.899 69.5334C194.4 70.2658 193.538 71.4432 194.437 72.0551C195.262 72.4723 194.474 70.3585 194.706 69.8579C194.409 68.8938 193.714 68.2541 194.168 67.1602C194.103 66.094 193.278 65.2504 194.02 64.175C193.658 65.3616 194.548 66.196 194.826 67.225C194.539 69.4222 196.208 70.8962 196.708 72.8709C196.708 72.8524 196.708 72.8338 196.699 72.8152C196.708 72.9172 196.727 73.0192 196.736 73.1212C196.736 73.1026 196.736 73.0841 196.727 73.0656C196.588 74.4747 197.607 75.2627 198.266 76.3288C198.488 77.432 198.701 78.6001 199.768 79.1935C200.287 79.0081 199.489 78.3962 199.35 78.1181C198.822 77.395 199.007 76.3937 198.535 75.6335C197.83 74.6879 197.45 73.6774 197.496 72.4815C197.496 72.4908 197.496 72.5001 197.496 72.5186C197.524 70.9704 196.81 69.6818 196.421 68.2541C196.662 68.3468 196.921 68.3839 197.162 68.4859C197.459 70.5625 197.348 73.6218 200.352 73.3159C200.342 74.5674 200.175 76.4957 201.928 76.5235C202.261 77.6267 202.632 79.4067 204.18 79.1008C204.533 80.2689 204.876 82.6422 206.637 81.6502C206.971 82.466 207.462 83.8288 208.584 83.1428C209.085 83.4487 209.576 84.3016 210.234 83.7917L210.225 83.801C210.234 83.7917 210.243 83.7917 210.243 83.7825C211.013 83.56 211.662 85.0247 212.385 83.6434L212.376 83.6527C212.441 83.5692 212.515 83.4858 212.617 83.5878L212.626 83.597C213.071 84.1625 213.757 84.3109 214.248 83.7083C214.582 84.7188 215.25 86.9067 216.668 86.0167C217.614 88.3993 220.311 88.7515 221.526 86.3782C222.342 86.8418 223.296 87.157 224.224 86.8696C225.262 87.1848 226.217 87.843 227.274 88.047C228.071 87.9265 228.794 87.4444 229.619 87.4814C231.724 88.0562 233.624 88.7515 235.571 87.3239C235.562 87.3239 235.552 87.3239 235.552 87.3239C238.695 89.3078 242.264 85.5902 245.796 86.165C245.759 86.165 245.731 86.1743 245.694 86.1743C245.778 86.165 245.871 86.1557 245.963 86.1465C245.926 86.1465 245.898 86.1557 245.861 86.1557C245.954 86.1465 246.047 86.1372 246.149 86.1187C246.112 86.1187 246.084 86.1279 246.047 86.1279C246.418 86.0816 246.779 86.026 247.141 85.9333C247.178 85.924 247.206 85.9147 247.243 85.9054C247.335 85.8776 247.428 85.8591 247.53 85.8313C249.44 84.7466 252.128 84.6168 253.621 83.0037C254.909 82.2157 257.32 81.6873 257.246 79.8331C258.618 79.3047 261.195 78.3498 260.157 76.4586C262.317 74.3635 263.624 74.3356 262.53 71.2022C263.392 69.9413 265.052 69.1163 265.283 67.4939C265.358 67.5866 265.45 67.6701 265.552 67.7442C265.543 67.7349 265.534 67.7257 265.524 67.7257C265.534 67.7349 265.543 67.7442 265.561 67.7535C266.044 68.8845 264.468 70.2288 265.422 71.2207C263.939 74.7343 265.561 73.5477 266.21 71.0168C266.21 71.026 266.201 71.0353 266.201 71.0353C266.646 69.7838 267.249 68.319 266.646 67.0211C267.008 65.7973 267.508 64.4809 267.11 63.2016C267.545 62.2374 266.85 61.3753 266.674 60.4575C266.748 59.7529 267.184 59.0854 267.035 58.3716C266.674 57.5001 266.294 56.8141 267.073 56.0261C268.204 56.9161 268.417 58.0285 268.574 59.4191C268.574 59.4006 268.565 59.3913 268.565 59.3728C268.482 60.7541 269.14 62.0242 268.491 63.2665C269.27 65.3987 269.807 56.128 268.704 55.989Z" fill="#22251A"/>
<path opacity="0.3" d="M254.131 64.4902C254.094 62.9327 254.075 60.9673 253.074 59.6509C253.055 59.4377 253.009 59.2152 252.87 59.039C252.861 58.5013 252.898 57.9265 252.657 57.4352C253.065 56.4618 251.804 55.9426 251.915 55.0712C252.147 54.3666 251.924 53.8475 251.544 53.3839C250.914 53.0131 250.219 52.735 249.718 52.1787C249.134 51.5298 249.171 50.0928 248.476 49.6386C247.595 49.0545 246.112 52.9482 245.815 53.6621C245.185 55.1546 244.461 56.6008 243.859 58.112C243.099 60.031 242.376 62.0149 241.226 63.7393C238.473 67.8276 233.652 68.3839 229.276 66.6224C226.866 65.649 224.669 64.3511 223.018 62.3116C221.554 60.5038 220.571 58.3159 218.976 56.6194C217.762 55.3215 215.917 54.8487 214.387 54.0329C213.219 53.4117 212.237 52.5959 211.634 51.502C210.531 52.2158 209.02 52.7442 209.446 53.9031C209.214 54.45 208.686 54.8116 208.269 55.2102C208.269 55.2102 208.269 55.2102 208.278 55.201C208.241 55.238 208.195 55.2752 208.158 55.3122C207.796 55.5533 207.527 56.0446 207.861 56.4247C207.685 57.1664 206.276 58.01 207.073 58.7516C206.952 60.3647 206.22 62.1725 206.758 63.7671C206.989 64.1194 206.415 64.722 206.887 64.8888C207.694 64.6107 206.637 61.9964 207.184 60.8375C208.139 61.9129 207.379 62.3301 207.629 63.4982C208.946 64.6663 207.49 65.8623 207.332 67.188C207.286 67.6608 207.583 68.0408 207.842 68.3931C207.833 69.348 206.526 70.3585 207.62 71.1651C207.685 71.7584 207.156 72.4815 207.889 72.8801C208.204 73.3344 207.666 74.0575 208.222 74.4376C208.732 74.6972 208.241 73.39 208.389 73.0748C208.204 72.4815 207.777 72.0829 208.056 71.4061C208.018 70.7479 207.509 70.2287 207.963 69.5612C207.74 70.2936 208.287 70.8128 208.463 71.4432C208.287 72.7967 209.316 73.7145 209.632 74.929C209.632 74.9197 209.632 74.9104 209.632 74.8919C209.641 74.9475 209.641 74.9938 209.65 75.0495C209.557 75.9209 210.197 76.4123 210.605 77.0705C210.744 77.7565 210.874 78.4796 211.532 78.8412C211.847 78.7206 211.365 78.3498 211.272 78.1737C210.948 77.7287 211.059 77.1076 210.772 76.6348C210.336 76.0507 210.104 75.4203 210.123 74.6879C210.123 74.6972 210.123 74.6972 210.123 74.7065C210.141 73.7516 209.696 72.9543 209.455 72.0643C209.604 72.1199 209.771 72.1478 209.91 72.2034C210.086 73.492 210.021 75.374 211.884 75.1885C211.875 75.958 211.773 77.1539 212.858 77.1725C213.071 77.8585 213.293 78.9524 214.248 78.767C214.462 79.4901 214.684 80.9549 215.769 80.343C215.973 80.8529 216.279 81.6966 216.974 81.2701C217.28 81.4555 217.586 81.9839 217.994 81.6687C217.994 81.6687 217.994 81.6687 217.984 81.678L217.994 81.6687C218.467 81.5389 218.865 82.4289 219.31 81.5853C219.347 81.5297 219.394 81.4833 219.458 81.5482C219.458 81.5482 219.468 81.5482 219.468 81.5575C219.746 81.9098 220.163 82.0025 220.469 81.6316C220.673 82.2621 221.09 83.6063 221.962 83.0593C222.546 84.5334 224.214 84.7559 224.965 83.2818C225.466 83.5692 226.059 83.7639 226.634 83.5878C227.274 83.7825 227.867 84.1903 228.516 84.3201C229.007 84.246 229.452 83.9493 229.962 83.9679C231.26 84.3202 232.437 84.7559 233.633 83.8752C235.571 85.0989 237.777 82.7997 239.965 83.1613C239.947 83.1613 239.919 83.1706 239.9 83.1706C239.956 83.1613 240.012 83.1613 240.067 83.152C240.049 83.152 240.021 83.1613 240.002 83.1613C240.058 83.152 240.123 83.152 240.178 83.1428C240.16 83.1428 240.132 83.152 240.114 83.152C240.345 83.1242 240.568 83.0872 240.79 83.0315C240.809 83.0223 240.827 83.0222 240.855 83.013C240.911 82.9944 240.976 82.9852 241.031 82.9666C242.209 82.2991 243.868 82.2157 244.795 81.2145C245.593 80.7324 247.085 80.3986 247.029 79.2491C247.882 78.9246 249.468 78.3313 248.828 77.1632C250.163 75.8746 250.969 75.8467 250.293 73.9184C250.83 73.1397 251.85 72.6298 251.989 71.6286C252.036 71.6842 252.091 71.7398 252.156 71.7862C252.147 71.7862 252.147 71.7769 252.138 71.7769C252.147 71.7862 252.147 71.7862 252.156 71.7955C252.453 72.5001 251.479 73.3251 252.073 73.937C251.155 76.1063 252.156 75.374 252.555 73.8165C252.833 73.047 253.204 72.1478 252.824 71.3505C253.046 70.5903 253.352 69.7745 253.111 68.9865C253.38 68.3839 252.953 67.8554 252.842 67.2899C252.889 66.8542 253.157 66.4463 253.065 66.0013C252.842 65.4636 252.601 65.0372 253.092 64.5551C253.788 65.1021 253.927 65.7973 254.02 66.6502C254.02 66.641 254.02 66.6317 254.01 66.6224C253.955 67.4753 254.363 68.2633 253.964 69.0328C254.483 70.3029 254.817 64.5736 254.131 64.4902ZM207.611 71.1558C207.611 71.1558 207.611 71.1465 207.601 71.1465C207.611 71.1465 207.611 71.1465 207.611 71.1558L207.62 71.1651L207.611 71.1558Z" fill="#4B3F37"/>
<path d="M206.442 38.1244C205.793 38.7826 204.848 39.0422 204.19 39.6633C203.791 40.4421 203.68 41.4804 202.743 41.8419C202.743 41.8419 202.743 41.8419 202.753 41.8419C202.743 41.8419 202.734 41.8512 202.725 41.8512C201.288 42.1664 201.408 43.6312 200.658 44.5675C199.564 44.9291 199.165 45.6893 199.026 46.7832C196.949 46.57 197.997 48.934 197.747 50.0465C195.54 50.1855 197.098 52.6793 197.227 53.9494C195.123 54.4593 197.413 57.0922 197.07 58.4828C194.696 56.9902 196.736 61.2083 197.107 62.1354C197.329 61.4772 196.31 59.8363 196.337 58.7887C198.729 60.2998 197.552 56.2856 197.478 55.1175C199.183 54.7745 198.071 52.735 198.034 51.6039C199.628 51.3073 199.564 49.4624 199.332 48.2109C200.407 47.8864 200.268 46.5792 200.352 45.68C201.529 45.1052 201.631 43.8629 202.039 42.7875L202.03 42.7968C202.039 42.7875 202.039 42.7783 202.048 42.7783L202.039 42.7875C203.346 42.1293 204.134 41.2023 204.496 39.7746C204.839 39.3667 207.045 38.5045 206.442 38.1244ZM200.361 45.6707C200.361 45.6614 200.361 45.6614 200.361 45.6707V45.6707Z" fill="#382F2A"/>
<path d="M210.661 29.0299C209.789 29.4749 209.975 30.9118 209.465 31.6813C209.344 31.876 209.131 32.0428 208.89 31.9779C207.184 31.4495 206.109 33.2017 205.423 34.481C203.096 32.5991 201.381 36.4093 200.926 38.2635C198.748 37.9761 197.496 40.7851 197.793 42.6299C196.412 43.4736 195.837 45.1979 195.837 46.7369C194.854 48.0626 193.603 50.2134 194.205 51.7708C194.706 50.714 194.548 49.073 195.438 48.0162C196.439 47.0428 196.282 45.6893 196.894 44.5212C197.478 43.316 198.98 43.1027 199.007 41.5731C199.007 41.5824 199.007 41.5823 198.998 41.5916C200.556 37.3364 201.538 42.63 202.947 36.5391C202.938 36.5669 202.92 36.5855 202.91 36.6133C202.957 36.5206 203.003 36.4279 203.049 36.3352C203.049 36.3444 203.04 36.3537 203.04 36.363C203.049 36.3537 203.049 36.3444 203.059 36.3259C203.059 36.3352 203.049 36.3444 203.049 36.3537C204.217 33.5261 205.265 37.4106 206.248 35.4915C207.472 30.4205 209.706 34.8704 210.466 29.2802C210.503 29.2153 210.54 29.1226 210.624 29.1133C210.633 29.1133 210.633 29.1133 210.642 29.1226C210.642 29.1226 210.651 29.1226 210.651 29.1318C210.735 29.1967 210.763 29.0391 210.661 29.0299Z" fill="#382F2A"/>
<path d="M255.568 60.3925C255.707 61.301 256.356 62.0334 256.513 62.9049C255.929 64.2398 256.244 65.4172 256.884 66.6409C256.884 66.6317 256.884 66.6316 256.884 66.6224C256.884 66.6316 256.884 66.6409 256.884 66.6502V66.6409C256.634 67.7534 256.022 68.8566 256.689 69.9783C256.263 70.7664 255.419 71.7861 256.143 72.6483C255.253 73.5568 254.186 75.068 255.345 76.199C254.687 77.1168 252.629 78.2014 253.862 79.4344C253.167 80.3615 249.959 83.0593 252.787 83.1242C252.24 84.0142 250.478 84.8207 250.293 85.4882C251.109 84.9227 255.151 82.5308 252.342 82.4659C252.814 81.1217 256.189 80.1946 254.715 78.6001C255.531 77.6174 258.201 76.3937 256.439 75.0587C256.866 74.0018 259.026 72.602 257.181 71.6378C257.663 70.6458 257.756 69.7929 257.042 68.8844C256.931 67.6885 257.839 66.5297 256.819 65.4821C256.819 65.4728 256.81 65.4635 256.81 65.4635C256.81 65.4635 256.81 65.4635 256.81 65.4728C256.235 64.657 256.717 63.7299 256.819 62.8585C256.634 62.4691 255.818 59.9475 255.568 60.3925Z" fill="#382F2A"/>
<path d="M257.31 50.4173C257.793 51.2702 256.838 52.3641 256.838 53.2819C256.828 53.5137 256.921 53.7733 257.153 53.8474C258.868 54.3481 258.794 56.4061 258.655 57.8524C261.631 57.5743 260.963 61.6904 260.305 63.4889C262.28 64.4531 261.77 67.4939 260.5 68.8566C261.186 70.3214 260.713 72.0736 259.86 73.3622C259.943 75.0124 259.804 77.4969 258.432 78.4518C258.599 77.293 259.637 76.0136 259.48 74.6415C259.183 73.2787 260.064 72.2312 260.194 70.924C260.37 69.589 259.239 68.5971 260.064 67.2992C260.064 67.3085 260.064 67.3084 260.055 67.3177C261.111 62.9141 257.366 66.7708 259.563 60.9302C259.563 60.9581 259.554 60.9859 259.554 61.0137C259.563 60.9117 259.582 60.8097 259.591 60.6985C259.591 60.7077 259.591 60.717 259.591 60.7263C259.591 60.717 259.591 60.6985 259.591 60.6892C259.591 60.6985 259.591 60.7077 259.591 60.717C259.906 58.1119 258.525 59.7807 257.459 58.8814C258.924 51.8913 254.863 56.6935 257.32 50.7232C257.32 50.6491 257.348 50.5471 257.283 50.5007C257.273 50.5007 257.273 50.5007 257.264 50.4915H257.255C257.162 50.5285 257.227 50.371 257.31 50.4173Z" fill="#382F2A"/>
<path d="M260.889 39.8394C261.306 40.3771 262.011 40.544 262.65 40.6367C262.901 42.3517 264.56 42.5372 265.339 43.7516C265.728 44.6509 266.674 44.929 267.425 45.4203C268.027 46.4957 268.88 47.5804 268.917 48.8598C268.917 48.8505 268.917 48.8412 268.917 48.8319C268.899 49.5829 269.186 50.2133 269.687 50.751V50.7417C269.687 50.751 269.696 50.751 269.696 50.7603C269.696 50.7603 269.696 50.7602 269.696 50.751C269.798 50.9549 269.826 51.1774 269.845 51.3999C269.845 51.3907 269.845 51.3814 269.845 51.3814C269.789 51.7986 270.252 54.7188 270.391 53.3282C270.132 50.7324 269.233 48.3499 268.454 45.8653C268.259 44.8456 267.258 44.4747 266.683 43.7238C266.303 42.9822 266.108 42.0644 265.302 41.6286L265.311 41.6379C265.283 41.6194 265.256 41.6008 265.237 41.5823C265.246 41.5916 265.265 41.6008 265.274 41.6101C264.152 40.544 264.041 38.8196 262.103 38.7918C261.816 36.845 261.176 35.955 259.146 36.4C259.146 36.4 259.146 36.4 259.155 36.4093C259.415 32.4229 257.422 33.2387 254.548 33.9989C254.548 33.8505 254.298 33.8413 254.288 34.0082C254.381 34.4531 255.03 34.1472 255.336 34.1101C261.112 31.9779 255.929 37.9667 260.296 37.5496C260.565 38.2912 260.351 39.1905 260.889 39.8394Z" fill="#382F2A"/>
<path d="M270.809 60.4203C270.781 60.17 270.744 59.9197 270.725 59.6694C270.725 59.6694 270.725 59.6694 270.725 59.6787V59.6694C270.781 58.7887 270.577 57.9543 270.336 57.12C270.336 57.12 270.336 57.12 270.336 57.1293C270.336 57.12 270.336 57.1107 270.327 57.1014V57.1107C269.668 54.8858 268.982 52.7349 267.332 51.0291C267.462 49.0545 266.025 48.489 264.551 47.8679C264.495 45.4946 264.356 43.3716 261.334 44.0113C260.657 43.9556 261.612 44.4933 261.927 44.3265C264.486 43.8629 263.383 46.709 263.494 48.1553C263.633 49.3234 265.079 49.2492 265.608 49.9908C265.33 52.2529 267.416 52.9482 268.324 54.6354C268.324 54.6354 268.324 54.6354 268.324 54.6262C268.333 54.6632 268.352 54.7003 268.361 54.7467V54.7374C268.5 55.4883 269.075 55.8962 269.631 56.332C269.631 56.332 269.631 56.3227 269.622 56.3227C269.631 56.332 269.631 56.3412 269.641 56.3505L269.631 56.3412C270.364 57.9358 270.595 59.6323 270.697 61.3752V61.3845C270.79 64.4067 270.966 61.3289 270.809 60.4203Z" fill="#382F2A"/>
<path d="M264.634 64.1471C264.403 63.9895 264.134 63.9524 263.865 63.9339C263.893 63.9339 263.921 63.9339 263.948 63.9432C263.744 63.9246 263.522 63.9154 263.327 63.8412C263.939 62.5248 265.821 59.7343 263.262 59.4098C263.262 59.4098 263.262 59.4098 263.272 59.4098C263.262 59.4098 263.262 59.4098 263.253 59.4006C263.114 59.3542 262.966 59.2522 263.012 59.0853C263.012 59.0946 263.012 59.0946 263.012 59.1039C263.012 58.7331 262.678 59.0297 262.771 59.2708C262.864 59.6694 263.355 59.725 263.68 59.8363C263.689 59.8363 263.689 59.8455 263.698 59.8455C265.71 61.4308 260.008 64.4809 263.856 65.1484C263.902 66.2701 262.437 67.1601 263.003 68.3282C263.374 68.8937 263.791 69.5241 263.494 70.2287C263.244 70.9518 262.641 71.5451 262.623 72.3424C262.595 72.8338 263.133 73.2138 262.901 73.7052C262.53 74.623 261.612 75.3832 261.983 76.4493C261.788 77.2095 260.611 77.7565 260.694 78.4889C261.631 78.081 262.419 76.746 262.632 75.6984C263.04 74.7991 263.995 73.9833 263.717 72.9172C263.55 71.7676 265.098 70.8776 264.931 69.589C263.819 67.2343 266.248 65.7324 264.634 64.1471Z" fill="#382F2A"/>
<path d="M203.773 51.5761C203.578 52.2251 202.985 52.6422 202.419 52.9574C202.809 54.6447 201.325 55.4234 201.038 56.8326C201.001 57.8153 200.213 58.4178 199.694 59.1502C199.517 60.374 199.119 61.6904 199.545 62.8956C199.545 62.8863 199.536 62.877 199.536 62.8678C199.833 63.5631 199.786 64.2584 199.508 64.9351V64.9259C199.508 64.9351 199.508 64.9351 199.508 64.9444C199.508 64.9444 199.508 64.9444 199.508 64.9351C199.49 65.1576 199.545 65.3801 199.61 65.5841C199.61 65.5748 199.61 65.5655 199.601 65.5655C199.805 65.9364 200.426 68.8195 199.796 67.5773C199.1 65.0649 199.072 62.5155 198.906 59.9197C198.72 58.8999 199.517 58.1953 199.777 57.2868C199.87 56.4525 199.721 55.5347 200.305 54.8394L200.296 54.8487C200.315 54.8208 200.333 54.793 200.352 54.7745C200.343 54.7837 200.333 54.8023 200.324 54.8116C200.982 53.4117 200.463 51.7615 202.262 51.0384C201.826 49.1194 202.095 48.0532 204.162 47.738V47.7473C202.475 44.1318 204.635 44.1688 207.583 43.8351C207.527 43.696 207.759 43.5941 207.824 43.7517C207.898 44.2059 207.184 44.1503 206.878 44.2244C200.723 44.3172 207.722 48.0347 203.504 49.2214C203.522 50.0186 204.042 50.7788 203.773 51.5761Z" fill="#382F2A"/>
<path d="M201.983 74.3541C201.918 74.1131 201.863 73.8721 201.789 73.631C201.789 73.631 201.789 73.631 201.789 73.6403V73.631C201.418 72.8337 201.306 71.9808 201.232 71.1094C201.232 71.1094 201.232 71.1094 201.232 71.1187C201.232 71.1094 201.232 71.1001 201.232 71.0909V71.1002C201.047 68.7918 200.908 66.5297 201.826 64.3418C200.991 62.5526 202.132 61.4957 203.272 60.3925C202.465 58.1583 201.826 56.1373 204.876 55.6367C205.015 55.3585 205.256 55.7294 205.005 55.8499C201.974 56.6472 203.569 58.3066 204.366 60.2813C204.709 61.4957 203.04 61.9222 203.077 62.9327C204.199 64.861 202.354 66.233 202.215 68.0686V68.0594C202.215 68.0965 202.215 68.1428 202.224 68.1799V68.1706C202.373 68.9215 201.974 69.5149 201.622 70.1082V70.0989C201.622 70.1082 201.622 70.1174 201.612 70.1267V70.1175C201.51 71.8696 201.9 73.5291 202.437 75.1978V75.2071C203.439 78.0624 202.159 75.2534 201.983 74.3541Z" fill="#382F2A"/>
<path d="M209.075 75.5871C209.233 75.3553 209.474 75.2255 209.724 75.1143C209.696 75.1235 209.678 75.1328 209.65 75.1514C209.835 75.0587 210.03 74.9752 210.188 74.8269C209.14 73.8257 206.377 71.9066 208.649 70.6736C208.649 70.6736 208.649 70.6736 208.639 70.6736L208.649 70.6644C208.769 70.5717 208.862 70.4141 208.751 70.2843C208.751 70.2935 208.76 70.2935 208.76 70.2935C208.63 69.9505 209.047 70.1081 209.038 70.3677C209.094 70.7756 208.658 70.9981 208.398 71.2299C208.389 71.2299 208.389 71.2391 208.38 71.2391C207.073 73.4456 213.497 74.2243 210.151 76.2453C210.512 77.3022 212.199 77.6081 212.097 78.906C211.958 79.5642 211.801 80.3059 212.32 80.8528C212.811 81.4276 213.599 81.7706 213.896 82.5123C214.1 82.9573 213.729 83.5042 214.128 83.8843C214.804 84.5982 215.936 84.9876 215.973 86.1093C216.427 86.749 217.725 86.8324 217.919 87.5462C216.9 87.5092 215.676 86.545 215.101 85.6458C214.397 84.9597 213.21 84.5426 213.089 83.4393C212.83 82.3083 211.068 82.0395 210.753 80.7787C210.957 78.1736 208.157 77.6544 209.075 75.5871Z" fill="#382F2A"/>
<path d="M236.748 128.217C224.14 127.577 196.792 128.569 196.736 111.001C196.745 104.447 196.161 96.2052 201.483 91.4493C207.184 84.5519 226.124 80.9457 225.178 72.4352C225.568 71.0446 222.981 60.0588 224.965 62.5527C224.965 62.5434 224.956 62.5341 224.956 62.5248C224.965 62.5527 224.974 62.5805 224.984 62.599C224.984 62.5897 224.984 62.5897 224.974 62.5805C225.197 63.2387 225.438 63.8969 225.549 64.5829C228.72 61.0786 237.397 61.1713 239.789 65.6769C239.854 65.1299 239.9 64.5829 239.937 64.036C239.937 64.0452 239.937 64.0545 239.937 64.0545C239.947 63.934 239.947 63.8135 239.956 63.7022C239.947 63.5261 239.984 63.3128 240.021 63.1274C242.116 69.0236 239.233 75.7912 248.114 79.3882C253.797 82.9945 263.726 82.3084 265.45 90.068C267.508 98.4858 268.89 108.683 265.534 116.86C258.358 124.629 247.094 127.874 236.748 128.217Z" fill="#804F30"/>
<path opacity="0.3" d="M225.188 72.4352C225.243 72.9358 225.225 73.4179 225.151 73.8907C228.025 76.5606 231.473 78.7763 235.274 79.4994C237.314 79.8795 239.687 79.6385 241.384 78.3499C242.274 77.6731 242.821 76.7831 243.127 75.7912C240.466 72.1385 241.56 67.4105 240.039 63.1367C240.002 63.3221 239.965 63.5446 239.975 63.7115C239.965 63.832 239.965 63.9433 239.956 64.0638C239.919 64.6108 239.863 65.1485 239.808 65.6862C237.416 61.1806 228.729 61.0879 225.568 64.5922C225.447 63.9062 225.216 63.2479 224.993 62.5897C224.993 62.599 224.993 62.599 225.002 62.6083C224.993 62.5897 224.993 62.5712 224.984 62.5619C222.991 60.0681 225.577 71.0446 225.188 72.4352Z" fill="#804F30"/>
<g opacity="0.3">
<path opacity="0.3" d="M231.084 92.4784C231.084 92.4877 231.084 92.4877 231.084 92.4784C224.279 88.492 215.37 92.6638 208.065 89.8826C213.396 88.6774 221.183 89.4932 227.311 89.1966C228.544 88.835 234.153 92.3671 231.084 92.4784Z" fill="#804F30"/>
<path opacity="0.3" d="M237.24 92.7009C238.213 86.471 246.575 88.149 251.099 86.5451C251.062 86.5544 251.025 86.5637 250.988 86.5637C251.359 86.4895 251.72 86.4061 252.091 86.3319C252.082 86.3319 252.073 86.3412 252.054 86.3412C253.519 86.0816 254.947 85.6644 256.421 85.4976H256.411C258.859 87.5742 242.783 89.4005 241.031 90.0495C241.059 90.0402 241.096 90.0309 241.124 90.0216C241.003 90.0587 240.883 90.1051 240.762 90.1421C240.79 90.1329 240.827 90.1236 240.855 90.1143C239.492 90.4017 238.704 91.4679 237.768 92.3949C237.777 92.3857 237.787 92.3764 237.796 92.3671C237.685 92.4691 237.564 92.5711 237.471 92.6916C237.518 92.8677 237.221 92.8863 237.24 92.7009Z" fill="#804F30"/>
</g>
<path d="M262.966 98.4116C261.445 94.4715 262.085 89.9289 263.142 85.9425C262.511 85.3492 261.798 84.8486 261.019 84.4128C257.821 87.9357 253.176 90.1328 248.819 91.7645C243.655 93.702 238.213 94.694 232.743 95.241C228.757 95.6396 224.761 95.8992 220.756 95.788C214.647 95.6304 207.054 94.8887 201.946 90.9487C201.798 91.1156 201.64 91.2732 201.501 91.44C200.834 92.0426 200.259 92.6916 199.758 93.3961C202.197 98.736 200.908 106.366 196.745 110.704C196.745 110.797 196.745 110.899 196.745 111.001C196.792 128.569 224.149 127.577 236.758 128.217C247.104 127.874 258.367 124.629 265.562 116.86C267.23 112.772 267.731 108.192 267.545 103.566C265.524 102.472 263.893 100.794 262.966 98.4116Z" fill="#728277"/>
<path d="M248.698 49.9816C248.661 49.8797 248.615 49.7869 248.578 49.685C248.337 48.934 248.337 47.905 247.762 47.3117C247.4 46.9316 246.872 46.7647 246.52 46.3475C246.121 45.8747 246.01 45.3185 245.936 44.7252C245.861 44.0577 245.639 44.206 244.99 44.002C244.36 43.8074 243.785 43.5292 243.377 42.9915C242.96 42.4446 242.923 41.842 242.663 41.2394C242.283 40.3494 241.588 40.8222 240.855 40.3958C240.308 40.0806 240.169 39.515 239.891 39.0144C239.492 38.2913 238.704 38.4489 238.009 38.1615C237.434 37.9298 236.934 37.5311 236.582 37.012C236.517 36.91 236.461 36.7524 236.387 36.6226C236.322 36.6041 236.174 36.5391 236.081 36.5484C235.905 36.5855 235.701 36.5855 235.525 36.5948C234.839 36.6504 234.227 36.5948 233.624 36.2147C232.54 35.5287 232.456 34.1473 231.167 33.7765C230.24 33.5076 229.508 33.1832 229.026 32.4693C228.581 33.0534 227.895 33.3408 227.404 33.8599C226.857 34.4347 227.125 35.0837 226.931 35.779C226.671 36.7153 225.763 37.1788 224.854 37.2437C224.557 37.2623 223.927 37.1325 223.667 37.2993C223.389 37.494 223.575 38.0781 223.528 38.4026C223.371 39.5521 222.49 39.9415 221.572 40.3865C220.877 40.7295 220.84 41.9254 220.349 42.528C220.163 42.7598 219.959 42.973 219.709 43.1306C219.663 43.1584 219.514 43.2418 219.403 43.2975C219.403 43.3994 219.394 43.5292 219.394 43.6127C219.384 43.8352 219.347 44.0391 219.264 44.2431C219.06 44.7344 218.652 45.0682 218.17 45.2721C217.827 45.4205 217.706 45.3556 217.632 45.68C217.549 46.0972 217.66 46.4866 217.456 46.9038C217.261 47.3024 216.946 47.5713 216.557 47.7752C216.075 48.0255 215.287 47.8401 215.185 47.219C215.185 47.1912 215.176 47.1726 215.176 47.1448C215.064 47.2839 214.953 47.4136 214.842 47.5249C214.434 47.9235 213.896 48.248 213.349 48.3407C213.155 48.8228 212.83 49.2492 212.394 49.5644C212.014 49.8426 211.569 50.0002 211.115 50.0651C211.273 52.837 212.533 55.748 215.583 56.4618C215.658 56.9161 217.428 64.2677 221.248 67.6237C226.208 71.9902 232.289 73.4735 238.556 72.5928C242.144 71.9438 245.259 69.3203 246.696 65.6583C246.705 65.6305 246.724 65.6027 246.733 65.5749C246.724 65.5841 246.724 65.6027 246.714 65.612C246.742 65.5563 246.77 65.5007 246.789 65.4451C247.586 63.6929 247.975 61.7554 248.337 59.8456C248.337 59.8549 248.337 59.8642 248.327 59.8827C248.346 59.7993 248.355 59.7066 248.374 59.6231C248.374 59.6324 248.374 59.6417 248.374 59.6417C248.374 59.6231 248.383 59.6046 248.383 59.586C248.93 56.9532 248.976 53.7548 248.698 49.9816Z" fill="#804F30"/>
<path d="M236.229 67.9481C231.909 68.1428 229.74 62.636 232.141 64.0452C232.197 63.6002 232.586 63.2293 233.04 63.2479C233.43 62.8956 234.06 63.0439 234.486 63.2479C235.562 62.7751 236.183 64.3882 236.665 65.0927C236.674 65.0927 236.684 65.102 236.684 65.102C236.786 64.9908 236.888 64.8795 237.008 64.7775C237.982 62.8029 239.836 62.2281 240.04 63.526C240.29 65.102 239.038 67.8276 236.229 67.9481Z" fill="#5E3A23"/>
<path d="M241.615 62.8585C240.577 63.081 239.251 62.2466 238.677 62.1539C237.898 62.0241 237.295 62.2374 236.35 63.8041C235.376 62.0705 233.569 62.6731 232.308 62.9141C231.557 63.0532 230.111 63.0439 229.526 62.6917C229.462 62.7565 230.389 65.3987 236.359 65.3987C240.457 65.0835 241.625 62.8585 241.615 62.8585Z" fill="#4C2F1C"/>
<path d="M238.955 56.7862C238.158 55.5069 236.461 54.9784 236.035 53.421C236.026 53.4024 236.016 53.3839 236.007 53.3653C235.979 53.3375 235.942 53.3283 235.905 53.3375C235.886 53.3468 235.877 53.3468 235.859 53.3653C235.84 53.3839 235.831 53.4024 235.831 53.421C236.174 55.8499 240.095 59.0946 234.774 58.0378C234.514 58.0192 234.264 58.2046 234.171 58.4364C234.431 61.2269 240.318 59.5581 238.955 56.7862Z" fill="#663921"/>
<path d="M226.847 51.5205C226.903 50.853 226.402 50.269 225.735 50.2133C225.067 50.1577 224.483 50.6583 224.428 51.3258C224.372 51.9933 224.873 52.5773 225.54 52.633C226.208 52.6886 226.792 52.188 226.847 51.5205Z" fill="#2A2521"/>
<path d="M243.905 50.2226C243.961 49.5551 243.46 48.971 242.793 48.9154C242.125 48.8598 241.541 49.3604 241.486 50.0279C241.43 50.6954 241.931 51.2795 242.598 51.3351C243.266 51.3907 243.85 50.8901 243.905 50.2226Z" fill="#2A2521"/>
<path d="M220.923 49.3697C220.682 48.934 221.044 48.5168 221.331 48.2109C222.852 46.4866 225.457 45.439 227.737 45.8654C228.108 46.0138 228.331 46.4309 228.229 46.811C228.071 47.4692 227.376 47.4693 226.838 47.3765C226.68 47.3765 226.523 47.3765 226.356 47.3951C226.143 47.4229 225.92 47.4507 225.707 47.497C225.364 47.5805 225.021 47.6825 224.687 47.803C224.02 48.0718 223.362 48.387 222.768 48.7857C222.277 49.1102 221.48 50.0187 220.923 49.3697Z" fill="#38322F"/>
<path d="M245.379 47.6825C244.554 47.4692 243.785 47.0706 242.941 46.913C242.737 46.8759 242.533 46.8481 242.329 46.8295C242.098 46.8203 241.866 46.811 241.625 46.8203C241.402 46.8388 241.189 46.8667 240.976 46.913C240.596 46.9779 240.243 47.1726 239.854 47.1355C239.02 47.0428 238.955 45.8191 239.724 45.5688C241.634 44.9013 244.082 45.1238 245.518 46.6627C245.695 46.913 246.038 47.497 245.685 47.7103C245.583 47.7381 245.481 47.701 245.379 47.6825Z" fill="#38322F"/>
<path d="M64.1043 121.071C90.1192 121.071 111.209 99.9817 111.209 73.9667C111.209 47.9517 90.1192 26.8624 64.1043 26.8624C38.0893 26.8624 17 47.9517 17 73.9667C17 99.9817 38.0893 121.071 64.1043 121.071Z" fill="#CF8C72"/>
<path d="M100.547 83.497C100.325 82.0136 99.9263 80.5582 99.2032 79.2324C99.2032 79.2417 99.2125 79.251 99.2218 79.2603C97.6458 75.7281 94.2712 73.6979 91.5364 71.1948C86.4561 65.6787 98.1649 58.3827 92.1946 51.337C89.7379 47.4341 82.9703 47.9161 81.7744 43.2993C83.5914 34.4829 77.788 21.4391 63.9376 17.9997C55.9927 16.025 50.6991 16.7667 45.248 23.2654C41.688 27.326 39.871 32.1931 37.0342 36.5874C24.0923 51.8747 33.5577 51.6244 35.5416 67.4958C32.4174 75.7745 23.0355 82.505 29.1726 92.4431C35.1986 97.0043 32.4452 102.91 34.3271 108.583C37.5255 122.072 63.0569 122.156 73.9963 120.283C90.7855 117.251 94.6235 112.792 97.0339 96.3461C100.075 93.0272 101.252 87.9469 100.547 83.497Z" fill="#633635"/>
<path d="M86.9382 82.7461C86.7899 82.3938 86.6415 82.0508 86.4654 81.717C86.4654 81.717 86.4654 81.7263 86.4747 81.7263C81.2275 73.086 71.6416 77.9809 78.5204 63.8802C79.9017 59.7363 72.958 58.9575 74.3208 54.6652C74.6546 54.3222 74.4413 55.1936 74.5062 55.3698C74.84 58.0953 78.4092 58.1602 79.6236 60.274C82.8035 64.9649 73.95 71.6769 80.3838 75.1905C80.3653 75.1812 80.3375 75.1719 80.3189 75.1534C83.0909 76.2102 87.4944 80.3171 86.9382 82.7461Z" fill="#4F2B2A"/>
<path d="M47.4357 93.5742C47.4636 93.1941 47.4821 92.8233 47.4821 92.4432V92.4524C46.7034 82.3752 35.9401 82.4123 48.437 72.9469C51.5334 69.8691 45.6929 66.0496 48.8449 62.8326C49.2991 62.675 48.7151 63.3611 48.6966 63.5465C47.7695 66.133 50.9122 67.8017 51.0513 70.2306C51.7744 75.8579 40.8443 77.8511 44.9976 83.8863C44.979 83.8678 44.9697 83.8493 44.9512 83.8214C46.9537 86.0001 49.0303 91.6552 47.4357 93.5742Z" fill="#4F2B2A"/>
<path opacity="0.3" d="M90.2106 78.806C89.914 77.128 89.0333 75.9136 87.9208 74.6713C86.1501 72.7059 83.2206 71.5564 83.2391 68.4878C83.2484 65.8734 86.0759 63.5558 85.3806 60.9507C85.0191 59.5786 83.6007 58.7443 82.5994 57.8543C81.3942 56.7789 80.2354 55.5923 79.401 54.1924C77.6767 51.2999 78.3349 48.0367 77.7045 44.8846C76.7496 40.0546 71.1223 38.9421 67.0989 37.1622C66.9783 37.2456 66.83 37.3012 66.6539 37.3198C64.7627 37.4774 62.8714 37.3198 61.008 37.737C57.7355 38.4693 54.2404 39.7858 51.4407 41.6399C48.6224 43.5126 46.175 46.0342 44.1447 48.732C42.1144 51.4483 39.8987 54.6003 39.3054 58.0026C38.9995 59.7733 39.5186 61.1732 40.0656 62.8141C40.3345 63.6299 41.5582 66.2721 41.8085 66.8839C43.0507 69.832 42.0032 73.4754 40.4828 76.1082C38.7121 79.1676 37.1083 81.9395 36.9043 85.5643C36.7838 87.6595 36.2183 91.0062 38.5267 92.0723C41.6972 93.5371 45.6373 93.1107 49.0303 93.2312C56.8919 93.5186 64.6329 95.0853 72.5129 95.2893C76.0821 95.382 79.6513 95.2985 83.2113 95.1317C86.1408 94.9926 89.8954 94.7423 91.8886 92.2578C92.7972 91.1175 93.2514 89.662 93.2143 88.2157C93.168 86.4729 92.2873 85.073 91.4436 83.6082C90.5907 82.1064 90.5073 80.4747 90.2106 78.806Z" fill="#725746"/>
<path d="M97.4883 91.0896C99.8152 72.1496 80.4766 79.251 90.0996 61.9241C92.0001 56.0836 82.8592 56.4822 82.2751 52.329C80.5693 40.2493 76.9445 36.0033 64.1324 29.7456C64.1602 29.7641 64.188 29.7827 64.2159 29.8012C59.6083 28.0583 58.2456 20.5676 59.3395 23.182V23.1727C59.7196 24.2296 60.2388 25.2493 61.1658 25.9354C61.1473 25.9261 61.138 25.9075 61.1195 25.8983C72.6614 33.3797 81.5057 35.2802 83.0261 51.8191C83.2393 54.1089 88.2084 53.0706 90.2943 55.824C93.1218 58.6516 92.2596 63.0829 89.6824 65.7529C84.5372 72.4278 92.8252 76.0248 96.7374 80.1317C98.9994 82.7924 100.798 88.911 97.4883 91.0896Z" fill="#4F2B2A"/>
<path d="M39.1758 93.4815C38.1838 92.3412 37.4607 90.9877 36.9323 89.5693C36.9416 89.5878 36.9416 89.6063 36.9509 89.6249C31.6388 80.2615 42.7728 76.544 41.7901 67.913C41.7901 67.9222 41.7901 67.9222 41.7901 67.9315C41.1134 64.4179 37.915 61.1732 39.3798 57.4742C40.0194 57.0663 39.3983 58.4754 39.3983 58.8092C39.3983 58.7999 39.3983 58.7906 39.4076 58.7906C39.3334 59.18 39.3149 59.5694 39.3427 59.9587V59.9495C39.3705 60.2832 39.4539 60.5984 39.5652 60.9043C39.5652 60.8951 39.5652 60.8951 39.5559 60.8858C49.3921 78.4537 32.8347 76.1268 38.2951 91.0526C38.2858 91.0433 38.2858 91.0247 38.2766 91.0155C38.2117 91.6459 40.4274 93.7967 39.1758 93.4815Z" fill="#4F2B2A"/>
<path d="M39.3889 32.6659C42.5039 24.9156 51.8765 23.1449 58.468 20.9292C58.1528 21.1146 57.8561 21.3 57.5502 21.504L57.5594 21.4947C53.3969 24.7765 47.7974 25.3606 43.57 28.5775C43.5885 28.5682 43.6071 28.5497 43.6256 28.5404C43.5885 28.559 43.5607 28.5868 43.5236 28.6053C43.5329 28.596 43.5422 28.596 43.5515 28.5868C43.2084 28.8278 42.884 29.0874 42.578 29.3655C42.5873 29.3562 42.6058 29.347 42.6151 29.3284C42.5873 29.347 42.5688 29.3748 42.541 29.3933C42.5502 29.384 42.5688 29.3748 42.578 29.3562C42.439 29.486 42.2906 29.6158 42.1516 29.7456C42.1609 29.7363 42.1701 29.7271 42.1887 29.7178C42.0125 29.8754 41.8364 30.0237 41.6602 30.1813C41.6695 30.1813 41.6695 30.1721 41.6788 30.1721C41.3543 30.4687 41.0391 30.7654 40.7424 31.0899C40.2882 31.3402 39.7505 33.3241 39.3889 32.6659Z" fill="#4F2B2A"/>
<path d="M86.085 47.4062C83.415 46.9056 82.3118 45.2925 81.7741 43.2993C80.6894 39.3037 81.0232 33.8896 73.7828 27.8822C72.8279 27.0942 71.7803 26.4082 70.6864 25.8241C68.3687 24.5819 63.5572 22.5238 62.7136 19.5479V19.5386C62.7136 19.5386 62.7136 19.5479 62.7043 19.5479C62.7507 19.4366 62.899 19.4366 62.9639 19.5293C62.9639 19.5201 62.9546 19.5201 62.9546 19.5108C73.3471 25.7222 81.1437 29.347 82.5621 41.1022C83.0905 45.4409 86.085 47.4062 86.085 47.4062Z" fill="#4F2B2A"/>
<path d="M44.3765 84.4241C43.9778 89.2355 43.2362 94.288 45.0254 98.738C46.9074 103.401 51.6169 104.625 56.2429 104.328C61.0266 104.022 65.6248 102.363 69.5834 99.6928C75.7391 95.5581 80.9771 88.9574 83.2113 81.6429C82.3491 81.1515 81.4962 80.6694 80.634 80.1966C80.6619 80.2152 80.6897 80.2337 80.7175 80.2523C72.1978 75.7745 71.0853 65.8456 70.8442 57.2054C70.5754 55.8797 70.6773 54.3315 70.1767 53.117C69.8801 53.7752 69.9357 54.6096 69.8801 55.3327C69.7318 55.1844 69.5834 55.0453 69.4258 54.9062C63.4926 50.0762 56.4376 58.4847 54.0736 63.6299C54.0458 72.5483 57.1885 78.9265 46.6663 83.4321C46.6941 83.4135 46.7219 83.4043 46.759 83.3857C45.971 83.7102 45.1738 84.0532 44.3765 84.4241Z" fill="#FFC28A"/>
<path opacity="0.4" d="M54.4722 73.633C54.5835 73.633 54.6855 73.6608 54.7967 73.6515C57.5687 73.5496 60.285 71.51 62.1484 69.6188C66.1996 65.5212 70.2787 60.1627 70.4734 54.1739C70.4085 53.803 70.3158 53.4508 70.186 53.1263C69.8894 53.7845 69.945 54.6189 69.8894 55.342C69.741 55.1936 69.5927 55.0546 69.4351 54.9155C63.5019 50.0855 56.4469 58.494 54.0829 63.6392C54.0736 67.4031 54.6298 70.7127 54.4722 73.633Z" fill="#FFC28A"/>
<path d="M59.1818 90.9136C58.5885 90.7004 58.5328 89.8382 57.7819 89.8845C57.819 89.8938 57.8468 89.8938 57.8839 89.9031C53.0446 88.6886 46.5366 89.9031 42.439 87.9748C44.2467 87.641 64.3456 87.159 59.1818 90.9136Z" fill="#EE9A49"/>
<path d="M65.0129 91.4049C64.8275 85.4253 74.4782 88.3456 78.3441 87.6688C81.0141 87.9748 84.8429 86.1948 86.9658 87.8079C83.9251 90.0143 78.0753 88.8647 74.1167 89.1707C71.4096 89.4766 67.0895 88.1695 65.6433 91.1361C65.5413 91.3771 65.2539 91.6367 65.0129 91.4049Z" fill="#EE9A49"/>
<path d="M74.7565 43.5218C70.0191 48.4168 69.6761 43.8371 69.1014 40.5552C68.7491 38.5806 67.5624 36.847 65.8566 35.7901C57.2905 30.4687 55.6496 27.1591 56.0019 25.5924C50.7269 29.4119 46.0916 28.7259 41.7529 33.9545C34.4291 45.7561 36.0143 66.235 53.2114 66.2721C56.039 66.1423 58.8387 65.3079 61.3696 64.0471C64.5587 62.1837 68.4895 59.4767 70.7237 55.1565C70.937 54.9711 71.2336 54.7301 71.4468 54.5447C72.2256 54.3407 72.9579 54.0162 73.5976 53.4322C74.6174 52.5051 75.3869 51.2258 75.8226 49.9371C77.6118 44.6992 74.7843 43.5218 74.7565 43.5218Z" fill="#FFC28A"/>
<path d="M61.4528 64.01C61.425 64.0193 61.4065 64.0286 61.3787 64.0471C61.3694 64.0471 61.3694 64.0564 61.3601 64.0564C61.3879 64.0378 61.4157 64.0286 61.4528 64.01Z" fill="#FFC28A"/>
<path d="M46.6848 50.9755C38.165 48.8525 45.3776 44.727 48.1681 40.889C48.6965 43.1232 45.1088 45.8024 44.0334 47.9903C44.7657 48.8525 49.6328 49.9093 46.6848 50.9755Z" fill="#EE9A49"/>
<path d="M46.5826 55.4068C46.1839 55.5644 45.7667 55.6478 45.3588 55.6293C44.6357 55.583 43.9868 55.2399 43.5696 54.6466C43.4584 54.6373 43.3378 54.6188 43.2266 54.6095C42.7723 54.5724 42.3088 54.5724 41.9009 54.7579C41.9472 54.8135 41.9936 54.8784 42.0399 54.934C42.0399 54.934 41.5671 57.3536 43.8477 58.0582C46.4899 58.8833 47.2779 56.5656 47.2779 56.5656C47.352 56.5471 47.6301 56.0094 47.7043 55.9816C47.5467 55.62 47.1481 55.8054 46.87 55.5922C46.7958 55.5181 46.6938 55.4624 46.5826 55.4068Z" fill="#EE8351"/>
<path d="M42.0492 55.2399C41.1871 54.3036 40.9182 53.3024 40.9182 53.3024C40.9368 53.3024 41.595 53.7474 42.1141 53.8401C43.0319 54.0162 44.3576 54.2016 44.6636 54.9155C46.1469 53.8957 47.8619 55.8518 49.3452 55.5551C49.3452 55.5551 47.4169 57.1775 44.3298 56.3524C43.0041 56.0094 42.0492 55.2399 42.0492 55.2399Z" fill="#D47448"/>
<path d="M42.4294 40.5275C42.4294 39.8692 41.8917 39.3315 41.2335 39.3315C40.5753 39.3315 40.0376 39.8692 40.0376 40.5275C40.0376 41.1857 40.5753 41.7234 41.2335 41.7234C41.8917 41.7234 42.4294 41.1857 42.4294 40.5275Z" fill="#2A2521"/>
<path d="M57.5498 44.2264C57.5498 43.5682 57.0121 43.0305 56.3539 43.0305C55.6957 43.0305 55.158 43.5682 55.158 44.2264C55.158 44.8847 55.6957 45.4224 56.3539 45.4224C57.0214 45.4224 57.5498 44.8847 57.5498 44.2264Z" fill="#2A2521"/>
<path d="M38.3782 38.321C37.7014 36.7079 40.9739 35.5676 42.3553 35.7067C43.7644 35.3266 45.0067 37.1807 43.4307 37.8853C41.762 37.978 40.0469 38.2932 38.3782 38.321Z" fill="#4F2B2A"/>
<path d="M60.3957 44.0225C60.303 43.9297 60.2103 43.8278 60.1269 43.7258C58.6621 42.3908 58.1893 41.7141 54.9817 40.6387C53.4891 40.138 52.766 38.7289 54.583 38.7938C54.5737 38.7938 54.5645 38.7938 54.5552 38.7938C57.1139 38.7753 60.1362 40.444 60.7202 43.0768V43.0676C60.6924 43.3828 60.9056 43.9854 60.5533 44.1244C60.4884 44.1244 60.4328 44.0688 60.3957 44.0225Z" fill="#4F2B2A"/>
<path d="M91.9905 84.2201C89.9046 82.7738 90.2013 80.2615 89.9603 78.0551C85.668 70.2214 78.6408 73.0304 84.7779 61.646C84.5091 58.5774 80.532 57.7616 78.8633 55.5644C75.9986 48.6392 79.5957 43.0583 69.9078 39.2851C69.9449 39.3037 69.982 39.3222 70.0098 39.3408C64.6884 36.3463 54.4814 32.3692 55.8442 24.9805C58.2638 31.2104 64.9943 35.0021 70.9647 37.8111C70.9647 37.8111 70.9554 37.8111 70.9554 37.8018C85.3157 44.3469 73.6161 51.9303 85.1766 58.4754C89.8861 62.5731 81.0697 66.7263 84.2032 71.0464C84.1939 71.0279 84.1846 71.0186 84.1754 71.0001C87.4757 73.9204 91.4621 76.544 90.739 81.5779C90.739 81.5687 90.739 81.5687 90.739 81.5594C90.8503 82.0785 91.082 82.5606 91.3879 82.9963C91.3879 82.9871 91.3787 82.9871 91.3787 82.9778C91.4714 83.3023 92.7785 84.2201 91.9905 84.2201Z" fill="#4F2B2A"/>
<path d="M33.715 88.5217C29.4412 84.4426 32.0277 78.0366 35.2354 74.1336C35.2169 74.1614 35.1983 74.1892 35.1798 74.2263C36.9876 71.6583 38.5357 68.7195 38.202 65.4841C38.202 65.4933 38.202 65.5026 38.202 65.5119C38.1278 64.7702 37.9795 64.0378 37.7292 63.3333V63.3425C36.422 58.5125 32.4727 54.5632 32.2132 49.4644C33.1495 40.8519 38.1464 32.1282 46.9257 29.7364C46.9164 29.7364 46.9164 29.7364 46.9072 29.7456C48.0475 29.5324 49.5957 28.0862 50.3651 28.1418C48.6964 29.245 46.8608 30.0052 45.0438 30.8396C45.053 30.8396 45.053 30.8303 45.0623 30.8303C38.0351 34.0936 35.1798 42.5762 33.9282 49.7147C34.3918 56.3525 39.2867 62.1652 38.9715 69.0069C38.9715 68.9977 38.9715 68.9884 38.9715 68.9884C38.8788 71.612 37.3027 73.8648 35.9678 76.0248L35.9771 76.0156C34.0488 78.7411 32.4913 82.1898 33.1588 85.5829C33.1495 85.5551 33.1495 85.5273 33.1402 85.4994C32.9641 86.3616 35.393 88.8091 33.715 88.5217Z" fill="#4F2B2A"/>
<path d="M80.9954 79.2603C81.0232 79.2788 81.051 79.2974 81.0788 79.3159C80.3835 78.9544 79.7531 78.5464 79.1598 78.1107C78.9095 77.9253 78.5665 78.1107 78.5479 78.4167C78.5016 79.4735 78.4181 80.5304 78.2605 81.578C77.9082 83.8863 77.0275 86.1113 75.8038 88.0952C71.7525 94.6774 63.8539 99.0902 56.0758 97.2268C52.5622 96.3832 49.6049 94.149 48.6037 90.5798C47.7971 87.7244 48.1494 84.8876 48.7798 82.0693C48.854 81.7448 48.5202 81.476 48.2236 81.6336C47.6395 81.9488 46.9998 82.2547 46.2953 82.5606C46.3231 82.5421 46.3602 82.5328 46.388 82.5143C34.846 87.0662 23.9252 97.0043 24.6019 110.354C22.9425 122.202 30.7854 123.166 40.4362 123.889C40.4455 123.889 40.4455 123.889 40.4548 123.889C40.4455 123.889 40.4455 123.889 40.4362 123.889C41.8083 123.973 43.1803 123.982 44.5524 123.991C63.6592 123.704 91.805 123.518 104.979 108.537C104.654 93.8616 92.6301 85.6478 80.9954 79.2603Z" fill="#A34919"/>
<path d="M153.666 256.216C179.364 252.173 196.919 228.064 192.876 202.366C188.833 176.669 164.724 159.114 139.026 163.157C113.329 167.199 95.7741 191.309 99.8168 217.006C103.86 242.704 127.969 260.259 153.666 256.216Z" fill="#F1B299"/>
<path d="M146.931 237.261C144.65 237.038 142.471 235.703 141.424 233.636C139.533 235.935 135.37 236.306 133.794 233.478C131.439 235.972 127.842 233.868 126.813 231.142C125.015 232.199 123.42 230.178 122.892 228.62C121.019 228.537 119.295 227.128 119.638 225.116C116.875 225.654 115.911 222.381 116.745 220.258C113.955 220.388 113.241 217.171 114.761 215.271C112.23 214.733 112.249 211.776 113.232 209.894C110.534 208.763 110.599 205.24 112.49 203.386C110.367 201.958 111.999 199.205 113.361 197.842C111.276 196.025 112.907 193.067 114.52 191.528C111.906 189.647 114.168 186.402 116.041 184.9C113.278 183.426 115.54 180.394 117.348 179.171C115.234 177.91 117.014 175.323 118.497 174.341C117.645 172.616 119.35 170.799 120.648 169.826C118.748 166.266 122.762 162.808 125.719 161.445C124.978 158.358 129.187 156.828 131.337 155.586C133.312 149.606 142.75 149.996 146.912 153.407C153.633 147.113 169.05 147.103 170.358 158.191C172.49 158.831 174.019 161.538 172.87 163.596C176.031 164.44 176.81 168.639 175.011 171.087C177.125 172.394 176.532 175.518 175.095 177.131C178.182 177.901 178.516 181.878 176.968 184.195C178.525 185.484 177.987 187.867 176.995 189.35C179.165 190.342 178.998 193.336 177.839 195.061C180.277 196.396 179.638 199.752 178.154 201.596C179.721 203.321 178.405 205.833 177.042 207.261C179.545 209.569 177.691 213.5 175.781 215.595C177.375 218.525 175.243 222.075 172.805 223.818C173.519 227.146 170.144 229.816 167.252 230.604C164.322 234.248 157.907 236.538 153.513 234.674C151.937 236.538 149.378 237.502 146.931 237.261Z" fill="#22251A"/>
<path d="M137.808 259.464C128.575 259.705 113.491 259.381 113.399 246.986C113.352 240.125 113.102 232.218 117.728 226.637C128.538 216.606 140.923 213.954 136.408 195.997C136.047 195.07 136.381 193.132 137.104 195.116C139.449 190.592 148.776 192.168 152.855 193.457C157.777 197.082 153.8 204.999 157.434 209.588C172.24 214.399 179.211 216.068 180.982 233.404C185.302 249.072 172.351 253.716 159.789 257.202C159.817 257.193 159.835 257.193 159.863 257.183C159.669 257.22 159.483 257.258 159.288 257.304C159.298 257.304 159.316 257.295 159.326 257.295C152.215 258.398 145.002 259.26 137.808 259.464Z" fill="#CC763F"/>
<path opacity="0.4" d="M137.345 202.422C141.545 207.14 152.002 210.496 155.747 204.572C155.404 200.493 156.229 195.96 152.845 193.466C148.766 192.177 139.44 190.592 137.095 195.126C136.362 193.142 136.028 195.079 136.399 196.006C137.011 198.398 137.299 200.512 137.345 202.422Z" fill="#CC763F"/>
<path d="M145.438 224.801C139.857 220.722 132.459 224.801 126.239 222.863C126.09 222.817 125.905 222.483 126.183 222.483C131.134 222.409 136.056 221.528 140.988 221.464C140.979 221.464 140.979 221.464 140.97 221.464C142.203 221.074 148.312 224.273 145.438 224.801Z" fill="#BB520E"/>
<path d="M153.235 224.402C153.504 220.138 160.151 220.434 163.266 219.118C164.749 218.302 171.081 217.023 166.501 219.517C162.2 221.454 156.748 221.408 153.235 224.402Z" fill="#BB520E"/>
<path d="M181.946 242.832C181.937 242.777 181.918 242.73 181.9 242.684C181.9 242.499 181.816 242.295 181.594 242.211C177.598 240.607 173.547 238.077 171.6 234.081C170.432 231.68 170.33 228.954 170.098 226.34L169.347 217.857C169.162 215.808 169.273 211.572 166.204 211.683C165.973 211.692 165.713 211.887 165.741 212.146C166.408 217.718 166.909 223.299 167.243 228.899C167.317 230.094 167.586 231.541 167.178 232.7C166.788 233.784 165.685 234.674 164.832 235.407C163.025 236.964 160.929 238.206 158.732 239.115C153.828 241.154 148.451 241.618 143.195 241.414C140.701 241.321 138.207 241.071 135.787 240.459C133.488 239.875 130.939 238.957 129.159 237.335C128.056 236.324 127.842 235.026 127.787 233.599C127.722 231.976 127.666 230.354 127.601 228.732C127.481 225.543 127.36 222.353 127.249 219.164C127.24 218.849 126.962 218.654 126.665 218.719C125.914 218.877 125.265 219.248 124.746 219.813C124.542 220.036 124.607 220.314 124.783 220.481C125.599 229.084 124.616 239.235 121.668 244.677C120.5 246.837 113.918 248.163 111.952 249.637C111.869 249.702 111.823 249.776 111.795 249.86C111.48 249.581 110.868 249.822 111.035 250.305C112.601 254.801 116.236 258.203 120.444 260.271C125.571 262.792 131.384 263.246 137.011 263.191C140.08 263.163 143.158 263.015 146.217 262.876C149.341 262.737 152.475 262.551 155.58 262.199C161.198 261.578 167.224 260.632 171.98 257.36C174.548 255.589 176.615 253.225 178.553 250.805C180.379 248.543 182.345 245.892 181.946 242.832Z" fill="#6B2300"/>
<path d="M165.295 182.221C164.656 180.571 164.211 178.448 164.776 176.714C163.052 175.472 161.921 173.775 161.411 171.615C159.51 171.115 157.564 169.835 156.84 167.879C155.858 167.545 155.07 166.878 154.421 165.979C153.735 165.024 153.308 164.208 152.307 163.596C150.268 162.344 148.627 160.5 147.523 158.312C146.615 159.823 145.521 161.186 144.01 162.242C143.194 162.817 142.286 163.234 141.479 163.846C140.812 164.356 140.218 164.959 139.56 165.478C138.466 166.34 137.298 166.776 136.028 166.748C135.564 167.851 134.952 168.899 134.09 169.696C133.126 170.595 132.116 170.799 130.975 170.966C130.725 172.505 129.993 173.961 128.945 175.008C128.852 175.722 128.778 176.436 128.713 177.15C128.5 176.853 128.231 176.612 127.879 176.464C127.045 176.102 126.145 176.464 125.839 177.381C125.682 177.845 125.691 178.355 125.691 178.837C125.682 179.458 125.71 180.089 125.858 180.691C125.988 181.229 126.192 181.748 126.377 182.258C126.563 182.758 126.766 183.25 127.063 183.695C127.452 184.288 127.99 184.761 128.611 184.983C128.584 195.552 138.132 200.614 146.912 201.087C153.336 201.448 158.611 200.373 162.653 193.225C164.266 189.508 165.11 187.042 165.555 182.823C165.472 182.619 165.37 182.425 165.295 182.221Z" fill="#CC763F"/>
<path d="M147.588 185.465C146.337 185.401 143.602 183.806 144.946 183.046C145.466 182.758 146.003 183.862 147.69 183.973C149.415 184.093 149.47 183.315 150.147 183.852C150.564 185.104 148.571 185.512 147.588 185.465Z" fill="#BB520E"/>
<path d="M146.105 193.726C143.509 193.577 142.536 190.889 142.434 189.86C142.378 189.341 142.666 189.322 143.352 190.472C143.945 189.971 144.158 190.935 144.631 191.111C145.948 191.148 147.19 191.742 148.441 191.297C149.498 190.397 150.268 190.017 150.296 190.407C150.351 191.074 148.877 193.883 146.105 193.726Z" fill="#BB520E"/>
<path d="M146.281 190.286C145.382 188.21 142.239 189.257 140.96 188.08C140.96 188.08 141.275 188.784 141.488 189.062C142.842 190.88 144.678 191.482 146.661 191.64C148.071 191.593 150.379 191.102 151.362 189.795C151.76 189.359 152.177 188.747 152.15 188.469C150.156 190.092 147.644 188.163 146.281 190.286Z" fill="#AA460E"/>
<path d="M123.253 181.961C123.568 181.98 123.948 181.748 123.921 181.405C123.921 181.414 123.921 181.423 123.921 181.423C123.911 181.396 123.911 181.377 123.902 181.349C123.902 181.359 123.911 181.359 123.911 181.368C123.921 181.377 123.921 181.396 123.921 181.405C123.921 181.396 123.921 181.396 123.921 181.386C123.921 181.386 123.921 181.386 123.921 181.377C123.893 181.303 123.846 181.238 123.781 181.182C123.791 181.192 123.8 181.201 123.809 181.21C123.744 181.155 123.67 181.108 123.587 181.08C123.587 181.08 123.596 181.08 123.596 181.09C123.587 181.09 123.587 181.09 123.577 181.08C123.596 181.08 123.605 181.09 123.624 181.099C123.568 181.08 123.513 181.062 123.457 181.062C123.466 181.062 123.485 181.062 123.503 181.071C123.448 181.062 123.401 181.062 123.346 181.062C123.364 181.062 123.374 181.062 123.392 181.062C122.984 181.09 122.613 181.294 122.28 181.525C122.28 181.525 122.28 181.535 122.289 181.535C122.289 181.535 122.289 181.525 122.28 181.525C122.307 181.572 122.345 181.618 122.382 181.655C122.382 181.655 122.372 181.655 122.372 181.646C122.382 181.655 122.391 181.664 122.4 181.664L122.391 181.655C122.4 181.664 122.409 181.664 122.409 181.674C122.391 181.664 122.372 181.646 122.363 181.627C122.604 181.841 122.929 181.952 123.253 181.961ZM121.974 185.475C122.243 185.447 122.502 185.354 122.734 185.234C122.706 185.224 122.678 185.224 122.66 185.224C122.669 185.224 122.678 185.224 122.697 185.224C122.428 185.206 122.187 185.336 121.974 185.475ZM121.631 188.831C121.9 188.775 122.743 188.821 122.688 188.516C122.706 188.525 122.715 188.534 122.734 188.543C122.688 188.516 122.65 188.497 122.595 188.478C122.613 188.488 122.632 188.488 122.641 188.497C122.576 188.478 122.502 188.469 122.437 188.478C122.456 188.478 122.474 188.478 122.493 188.478C122.168 188.497 121.872 188.655 121.612 188.84C121.621 188.831 121.621 188.831 121.631 188.831ZM121.547 191.881C121.974 191.871 122.4 191.695 122.734 191.436L122.725 191.445C122.817 191.371 122.715 191.297 122.632 191.287C122.641 191.287 122.66 191.287 122.669 191.287C122.623 191.278 122.567 191.278 122.521 191.278C122.53 191.278 122.548 191.278 122.558 191.278C122.122 191.306 121.76 191.593 121.445 191.881C121.473 191.881 121.51 191.881 121.547 191.881ZM121.658 195.895C121.807 195.886 121.955 195.867 122.103 195.821C122.094 195.821 122.076 195.83 122.057 195.83C122.317 195.747 122.567 195.617 122.743 195.413C122.734 195.422 122.725 195.441 122.715 195.45C122.752 195.404 122.789 195.348 122.808 195.292C122.808 195.302 122.799 195.311 122.799 195.32C122.799 195.32 122.799 195.329 122.789 195.329C122.808 195.274 122.808 195.209 122.799 195.144C122.799 195.163 122.799 195.172 122.808 195.19C122.789 195.088 122.706 195.014 122.604 194.996C122.623 194.996 122.641 194.996 122.65 195.005C122.113 194.959 121.705 195.469 121.445 195.876C121.519 195.886 121.594 195.886 121.658 195.895ZM121.937 208.132C122.901 204.025 119.109 203.311 121.149 199.566C119.869 198.926 120.018 197.323 120.453 196.182C119.48 195.237 119.767 193.438 120.351 192.335C119.174 191.797 119.387 190.221 120.036 189.341C119.007 188.33 119.86 186.615 120.546 185.623C119.628 184.399 120.463 182.573 121.353 181.553C121.047 177.66 125.877 177.02 128.213 175.017C128.231 174.999 128.25 174.99 128.268 174.971C128.259 174.971 128.259 174.98 128.25 174.98C128.296 174.943 128.343 174.906 128.389 174.878C128.37 174.897 128.352 174.906 128.333 174.925C128.565 174.749 128.778 174.563 128.992 174.359C128.982 174.378 128.964 174.387 128.945 174.406C129.001 174.35 129.066 174.285 129.121 174.229C129.112 174.239 129.094 174.257 129.075 174.266C129.279 174.063 129.455 173.84 129.622 173.618C129.613 173.627 129.603 173.645 129.594 173.655C130.178 172.978 130.549 172.106 130.818 171.328C130.892 171.318 130.929 171.393 130.92 171.448C131.059 176.732 125.024 177.706 122.335 180.756C126.081 179.198 124.319 184.613 121.64 182.128C121.037 182.888 120.565 183.982 120.852 184.946C120.843 184.937 120.843 184.918 120.833 184.909C120.87 184.983 120.917 185.058 120.972 185.122C123.735 182.554 125.07 186.81 121.297 186.087C120.843 186.726 120.12 187.848 120.667 188.58C123.883 185.66 124.903 190.694 120.759 189.702C120.425 190.175 120.11 190.88 120.425 191.436C120.416 191.426 120.407 191.408 120.398 191.389C120.416 191.427 120.444 191.454 120.463 191.482C120.453 191.473 120.453 191.464 120.444 191.454C120.546 191.575 120.685 191.658 120.824 191.723C123.596 188.905 124.282 193.086 120.861 192.511C120.342 193.383 120.222 194.606 120.667 195.524C120.657 195.515 120.648 195.506 120.639 195.496C120.667 195.524 120.685 195.561 120.713 195.589C122.901 191.871 125.293 196.98 121.139 196.488C120.833 197.295 120.62 198.509 121.603 198.936C123.587 197.063 124.709 200.178 121.927 199.844C121.686 200.215 121.529 200.642 121.408 201.068C121.417 201.049 121.417 201.031 121.427 201.012C121.186 201.698 121.325 202.431 121.723 203.033V203.024C121.964 203.432 122.233 203.821 122.465 204.229C122.465 204.22 122.456 204.22 122.456 204.211C123.058 205.082 123.086 206.241 122.65 207.196C122.66 207.187 122.66 207.168 122.669 207.15C122.465 207.474 122.437 208.225 121.937 208.132Z" fill="#382F2A"/>
<path d="M167.863 175.991C168.058 175.982 168.253 175.972 168.429 175.917C168.216 175.833 167.984 175.889 167.789 175.991C167.817 175.991 167.845 175.991 167.863 175.991ZM169.393 181.581C169.606 181.572 169.857 181.535 169.996 181.359C169.996 181.359 169.996 181.368 169.986 181.368C170.033 181.284 169.894 181.247 169.829 181.247C169.847 181.247 169.866 181.247 169.884 181.257C169.606 181.275 169.337 181.405 169.096 181.553C169.189 181.572 169.291 181.581 169.393 181.581ZM169.708 191.501C169.81 191.51 169.912 191.482 169.996 191.417C169.829 191.352 169.643 191.297 169.458 191.297C169.467 191.297 169.486 191.297 169.495 191.297C169.384 191.297 169.273 191.315 169.161 191.352C169.328 191.427 169.514 191.501 169.708 191.501ZM168.781 196.544C168.818 196.544 168.846 196.544 168.874 196.525C168.92 196.507 168.957 196.47 168.985 196.423C168.772 196.321 168.512 196.321 168.281 196.396C168.438 196.451 168.605 196.535 168.781 196.544ZM168.355 199.446C168.466 199.446 168.577 199.418 168.689 199.381C168.466 199.307 168.216 199.344 167.993 199.409C168.114 199.427 168.234 199.436 168.355 199.446ZM167.947 202.171C168.086 202.171 168.225 202.153 168.336 202.069C168.281 202.051 168.216 202.032 168.151 202.023C168.169 202.023 168.188 202.032 168.206 202.032C167.984 201.995 167.752 202.06 167.548 202.143C167.678 202.171 167.808 202.171 167.947 202.171ZM166.528 210.747C166.287 208.809 164.257 206.77 166.269 204.999C165.36 204.443 165.379 203.237 165.954 202.449C165.203 201.596 165.592 200.28 166.26 199.501C165.37 198.584 165.833 197.063 166.686 196.275C166.102 195.737 165.907 194.903 166.139 194.143C166.139 194.161 166.13 194.171 166.13 194.189C166.408 193.151 167.02 192.205 167.78 191.454C166.028 190.175 166.556 187.755 167.863 186.356C166.491 185.141 166.612 182.99 167.632 181.59C166.167 180.775 165.611 179.022 165.981 177.446C163.719 176.742 160.753 174.202 161.93 171.615C162.366 171.467 161.745 172.366 161.93 172.653C161.93 172.644 161.93 172.644 161.93 172.635C162.579 174.415 164.971 175.435 166.705 175.907C170.023 172.681 171.155 178.513 166.612 177.595C166.176 178.967 166.742 180.487 168.04 181.145C170.376 178.93 172.026 182.777 168.633 182.063C167.928 183.064 167.715 184.668 168.79 185.493C172.211 183.472 171.998 188.673 168.651 186.921C168.512 187.079 168.373 187.236 168.244 187.403L168.253 187.394C167.326 188.478 167.261 190.101 168.531 190.944C171.442 189.795 170.793 193.42 168.299 191.825C168.225 191.89 168.142 191.955 168.067 192.029C168.067 192.029 168.077 192.029 168.077 192.02C167.817 192.298 167.604 192.622 167.4 192.947C167.4 192.947 167.4 192.947 167.4 192.938C166.899 193.791 166.362 195.051 167.289 195.812C168.021 195.246 169.996 195.357 169.662 196.618C169.319 197.629 168.188 197.239 167.483 196.887C167.038 197.313 166.649 197.916 166.751 198.556C166.751 198.546 166.742 198.537 166.742 198.528C166.779 198.648 166.853 198.76 166.927 198.862C169.959 197.008 170.663 201.235 167.066 200.058C166.667 200.465 166.352 201.059 166.528 201.634C166.528 201.624 166.519 201.615 166.519 201.606C166.528 201.634 166.547 201.671 166.566 201.698C169.486 199.622 170.292 203.951 166.723 202.894C166.538 203.172 166.315 203.488 166.371 203.84C166.371 203.831 166.371 203.831 166.371 203.821C166.417 204.016 166.566 204.174 166.723 204.294C166.705 204.285 166.695 204.276 166.677 204.257C166.723 204.294 166.769 204.322 166.825 204.35C166.807 204.341 166.797 204.331 166.779 204.322C166.853 204.359 166.918 204.396 166.992 204.424C169.551 203.154 169.217 206.046 166.862 205.268C165.453 206.269 165.935 208.003 166.844 209.171C167.103 209.56 167.233 211.627 166.528 210.747Z" fill="#382F2A"/>
<path d="M156.989 176.408C155.7 175.787 154.56 177.799 155.867 178.512C157.1 179.18 158.287 177.038 156.989 176.408Z" fill="#2A2521"/>
<path d="M159.965 174.118C157.832 174.257 155.543 173.553 153.438 174.545C152.224 173.923 152.4 173.432 153.225 173.098C155.088 172.357 158.064 172.422 159.965 174.118Z" fill="#22251A"/>
<path d="M139.143 176.111C138.364 174.749 136.371 176.13 136.983 177.419C137.771 179.05 140.024 177.576 139.143 176.111Z" fill="#2A2521"/>
<path d="M134.591 173.59C136.723 173.729 139.013 173.024 141.118 174.016C142.332 173.395 142.156 172.904 141.331 172.57C139.467 171.819 136.492 171.884 134.591 173.59Z" fill="#22251A"/>
</svg>
