<svg width="12" height="18" viewBox="0 0 12 18" fill="none" xmlns="http://www.w3.org/2000/svg">
<path d="M2.53448 1.53634C1.43975 2.57801 0.772203 4.14049 0.665402 5.76425C0.558601 7.47993 1.11933 8.79732 1.89365 10.2066C3.09521 12.4431 4.37684 14.6183 5.65851 16.7936C5.6852 16.8242 5.6852 16.8549 5.71192 16.8855C5.79203 16.9774 5.87213 17.008 5.95224 17.008C6.05904 17.008 6.13915 16.9774 6.21926 16.8855C6.24595 16.8549 6.27267 16.8242 6.27267 16.7936C7.3674 14.9247 8.43546 13.0559 9.5035 11.1563C10.171 9.9615 10.9453 8.76666 11.1589 7.35736C11.426 5.67233 11.0521 3.89537 10.1443 2.51672C8.32861 -0.2406 4.80404 -0.66952 2.53448 1.53634ZM10.4914 7.35736C10.251 8.61349 9.50344 9.74704 8.8893 10.8193C7.92807 12.535 6.94014 14.2507 5.95219 15.9357C5.09775 14.4958 4.27001 13.0865 3.469 11.6159C2.90827 10.6355 2.34755 9.65513 1.84024 8.64412C1.06591 7.05098 1.14602 4.99833 1.97373 3.43582C3.5491 0.433408 7.28726 0.0044882 9.34323 2.54735C10.3846 3.83411 10.8118 5.64167 10.4914 7.35736Z" fill="#97A2BB"/>
<path d="M5.95237 3.80273C4.72412 3.80273 3.70947 4.96695 3.70947 6.37625C3.70947 7.78556 4.72412 8.94977 5.95237 8.94977C7.18062 8.94977 8.19527 7.78556 8.19527 6.37625C8.19527 4.96695 7.20732 3.80273 5.95237 3.80273ZM5.95237 8.21445C5.07125 8.21445 4.377 7.38723 4.377 6.40685C4.377 5.39584 5.09794 4.59925 5.95237 4.59925C6.8335 4.59925 7.52775 5.42647 7.52775 6.40685C7.52775 7.38723 6.8335 8.21445 5.95237 8.21445Z" fill="#97A2BB"/>
</svg>
