<svg width="12" height="14" viewBox="0 0 12 14" fill="none" xmlns="http://www.w3.org/2000/svg">
<path d="M10.5938 1.75H8.1875V1.3125C8.1875 0.587617 7.59988 0 6.875 0H5.125C4.40012 0 3.8125 0.587617 3.8125 1.3125V1.75H1.40625C0.802199 1.75 0.3125 2.2397 0.3125 2.84375V3.71875C0.3125 3.96039 0.508363 4.15625 0.75 4.15625H11.25C11.4916 4.15625 11.6875 3.96039 11.6875 3.71875V2.84375C11.6875 2.2397 11.1978 1.75 10.5938 1.75ZM4.6875 1.3125C4.6875 1.07133 4.88383 0.875 5.125 0.875H6.875C7.11617 0.875 7.3125 1.07133 7.3125 1.3125V1.75H4.6875V1.3125Z" fill="#54514C"/>
<path d="M1.14257 5.03125C1.06451 5.03125 1.0023 5.09649 1.00602 5.17448L1.36696 12.7498C1.40031 13.4509 1.97617 14 2.67781 14H9.3218C10.0234 14 10.5993 13.4509 10.6327 12.7498L10.9936 5.17448C10.9973 5.09649 10.9351 5.03125 10.857 5.03125H1.14257ZM7.74981 6.125C7.74981 5.88328 7.94559 5.6875 8.18731 5.6875C8.42902 5.6875 8.62481 5.88328 8.62481 6.125V11.8125C8.62481 12.0542 8.42902 12.25 8.18731 12.25C7.94559 12.25 7.74981 12.0542 7.74981 11.8125V6.125ZM5.56231 6.125C5.56231 5.88328 5.75809 5.6875 5.99981 5.6875C6.24152 5.6875 6.43731 5.88328 6.43731 6.125V11.8125C6.43731 12.0542 6.24152 12.25 5.99981 12.25C5.75809 12.25 5.56231 12.0542 5.56231 11.8125V6.125ZM3.37481 6.125C3.37481 5.88328 3.57059 5.6875 3.81231 5.6875C4.05403 5.6875 4.24981 5.88328 4.24981 6.125V11.8125C4.24981 12.0542 4.05403 12.25 3.81231 12.25C3.57059 12.25 3.37481 12.0542 3.37481 11.8125V6.125Z" fill="#54514C"/>
</svg>
