<svg width="310" height="271" viewBox="0 0 310 271" fill="none" xmlns="http://www.w3.org/2000/svg">
<rect width="310" height="271" fill="#F0E3E7"/>
<path d="M168.186 80.2936C168.186 80.2936 184.75 69.9427 198.673 88.6799C212.595 107.417 202.766 119.904 215.051 129.176C227.337 138.447 218.362 164.112 232.694 175.788C247.026 187.463 237.568 216.276 222.827 220.369C222.827 220.369 215.751 247.068 200.221 244.493C200.221 244.493 185.851 267.338 157.857 252.835L147.551 246.785L168.186 80.2936Z" fill="black"/>
<path d="M113.648 86.7824C113.648 86.7824 95.0229 90.1087 91.4139 112.961C87.8048 135.813 89.1145 130.411 78.8901 142.049C68.6658 153.687 81.5988 166.843 73.4729 178.482C69.328 184.427 67.3784 189.286 66.9766 194.89C66.2771 204.749 71.2182 213.545 78.1162 216.261C82.8266 218.114 86.6663 224.268 89.4717 232.647C95.0303 249.271 114.906 242.053 114.906 242.053C114.906 242.053 133.68 257.166 145.185 245.944C156.689 234.723 139.351 80.1373 139.351 80.1373L113.648 86.7824Z" fill="black"/>
<path d="M171.966 80.3531C171.966 80.3531 164.874 63 139.321 63C113.768 63 105.857 89.625 105.857 89.625L143.034 111.145L171.966 80.3531Z" fill="black"/>
<path d="M119.036 142.012C121.573 147.682 121.358 156.842 115.978 158.866C110.597 160.89 104.168 153.583 101.631 147.913C99.0932 142.242 100.641 137.309 106.029 135.285C111.409 133.253 116.498 136.341 119.036 142.012Z" fill="#CA927B"/>
<path d="M105.857 142.101C105.857 142.101 112.443 140.352 114.906 149.297" stroke="#995342" stroke-width="0.4819" stroke-miterlimit="10" stroke-linecap="round" stroke-linejoin="round"/>
<path d="M187.414 142.012C184.877 147.682 185.092 156.842 190.472 158.866C195.853 160.89 202.282 153.583 204.819 147.913C207.357 142.242 205.809 137.309 200.422 135.285C195.041 133.253 189.952 136.341 187.414 142.012Z" fill="#CA927B"/>
<path d="M200.593 142.101C200.593 142.101 194.007 140.352 191.544 149.297" stroke="#995342" stroke-width="0.4819" stroke-miterlimit="10" stroke-linecap="round" stroke-linejoin="round"/>
<path d="M153.147 163.696C178.208 163.696 198.524 144.196 198.524 120.142C198.524 96.0877 178.208 76.5879 153.147 76.5879C128.086 76.5879 107.77 96.0877 107.77 120.142C107.77 144.196 128.086 163.696 153.147 163.696Z" fill="black"/>
<path d="M140.087 173.168L134.38 227.527H168.186L162.344 172.61L140.087 173.168Z" fill="#CA927B"/>
<path d="M139.321 182.768L165.589 203.127L162.724 175.788L139.321 182.768Z" fill="#995342"/>
<path d="M153.147 81.6851C132.17 81.6851 113.648 97.9071 113.648 117.924L114.854 141.945C114.854 141.945 115.286 175.996 147.611 186.362C151.19 187.508 155.104 187.508 158.683 186.362C191.008 176.004 191.44 141.945 191.44 141.945L192.645 117.924C192.653 97.9146 174.124 81.6851 153.147 81.6851Z" fill="#CA927B"/>
<path d="M150.885 147.295V152.869L154.985 152.913" stroke="#995342" stroke-width="0.4819" stroke-miterlimit="10" stroke-linecap="round" stroke-linejoin="round"/>
<path d="M144.381 139.124C144.381 139.124 141.657 132.212 135.005 131.892C128.352 131.572 124.379 136.855 124.379 136.855C124.379 136.855 126.068 142.726 134.134 143.113C142.201 143.507 144.381 139.124 144.381 139.124Z" fill="white"/>
<path d="M127.705 137.249C127.526 140.91 130.354 144.021 134.015 144.199C137.676 144.378 140.787 141.55 140.965 137.889C141.144 134.228 138.316 131.118 134.655 130.939C130.994 130.76 127.884 133.588 127.705 137.249Z" fill="black"/>
<path d="M144.381 139.124C144.381 139.124 141.881 131.959 135.005 131.892C128.129 131.825 124.379 136.855 124.379 136.855" stroke="black" stroke-width="0.3755" stroke-miterlimit="10" stroke-linecap="round" stroke-linejoin="round"/>
<path d="M161.585 139.124C161.585 139.124 164.309 132.212 170.961 131.892C177.614 131.572 181.587 136.855 181.587 136.855C181.587 136.855 179.898 142.726 171.832 143.113C163.758 143.507 161.585 139.124 161.585 139.124Z" fill="white"/>
<path d="M178.254 137.249C178.432 140.91 175.605 144.021 171.944 144.199C168.282 144.378 165.172 141.55 164.993 137.889C164.815 134.228 167.642 131.118 171.304 130.939C174.972 130.76 178.083 133.588 178.254 137.249Z" fill="black"/>
<path d="M161.585 139.124C161.585 139.124 164.085 131.959 170.961 131.892C177.837 131.825 181.587 136.855 181.587 136.855" stroke="black" stroke-width="0.3755" stroke-miterlimit="10" stroke-linecap="round" stroke-linejoin="round"/>
<path d="M132.088 111.273C132.088 111.273 125.376 112.136 122.117 114.167C120.115 115.417 120.167 117.724 122.585 118.528C124.81 119.272 129.588 118.781 132.43 118.461C139.388 117.672 144.009 115.083 143.563 112.932C142.982 110.164 135.749 110.61 132.088 111.273Z" fill="black"/>
<path d="M172.829 111.272C172.829 111.272 179.541 112.135 182.801 114.166C184.802 115.417 184.75 117.723 182.332 118.527C180.107 119.271 175.329 118.78 172.487 118.46C165.529 117.671 160.908 115.082 161.355 112.931C161.928 110.163 169.168 110.609 172.829 111.272Z" fill="black"/>
<path d="M141.553 159.633C141.553 159.633 142.722 168.146 151.83 168.146C160.856 168.146 162.106 159.633 162.106 159.633H141.553Z" fill="#DE5A62"/>
<path d="M162.106 159.633C162.106 159.633 152.938 155.339 141.553 159.633C141.553 159.633 152.819 163.011 162.106 159.633Z" fill="#DE5A62"/>
<path d="M141.553 159.573H162.106C162.106 159.573 161.407 165.645 151.83 165.645C143.339 165.645 141.553 159.573 141.553 159.573Z" fill="white"/>
<path d="M171.966 80.3531C171.966 80.3531 170.262 99.3433 150.468 102.35C130.287 105.423 134.655 118.17 110.144 115.111C110.144 115.111 101.281 101.241 114.422 86.9163C123.114 77.4361 140.102 69.5334 152.269 70.858C156.369 71.3044 166.08 79.0732 171.966 80.3531Z" fill="black"/>
<path d="M169.614 82.7046C169.614 82.7046 160.863 95.3622 198.524 120.142C198.524 120.142 204.663 111.413 200.585 103.436C196.522 95.4664 169.614 82.7046 169.614 82.7046Z" fill="black"/>
<path d="M243.045 263.573C240.887 253.066 233.647 244.91 224.412 241.137C223.839 240.788 223.229 240.475 222.574 240.244L150.907 214.118L85.5947 240.542C84.5603 240.899 83.5557 241.309 82.566 241.77L82.4693 241.807C82.4247 241.829 82.38 241.859 82.3354 241.874C73.8746 245.907 67.3263 253.683 65.2948 263.573L64 269.861H244.34L243.045 263.573Z" fill="white"/>
<path d="M103.558 233.265L150.907 214.111L201.619 232.602C201.619 232.602 198.628 255.566 152.44 255.566C106.237 255.566 103.558 233.265 103.558 233.265Z" fill="#CA927B"/>
</svg>
