<svg width="503" height="47" viewBox="0 0 503 47" fill="none" xmlns="http://www.w3.org/2000/svg">
<line x1="47" y1="23" x2="228" y2="23" stroke="#FF3E79" stroke-width="2"/>
<line x1="275" y1="23" x2="456" y2="23" stroke="#FF3E79" stroke-width="2"/>
<circle cx="23.5" cy="23.5" r="22.5" fill="white" stroke="#FF3E79" stroke-width="2"/>
<circle cx="251.5" cy="23.5" r="22.5" fill="white" stroke="#FF3E79" stroke-width="2"/>
<circle cx="479.5" cy="23.5" r="22.5" fill="#FF3E79" stroke="#FF3E79" stroke-width="2"/>
<path d="M26.925 35V14H23.535C23.415 14.8 23.165 15.47 22.785 16.01C22.405 16.55 21.935 16.99 21.375 17.33C20.835 17.65 20.215 17.88 19.515 18.02C18.835 18.14 18.125 18.19 17.385 18.17V21.38H22.665V35H26.925Z" fill="#FF3E79"/>
<path d="M244.275 21.07H248.355C248.355 20.51 248.405 19.95 248.505 19.39C248.625 18.81 248.815 18.29 249.075 17.83C249.335 17.35 249.675 16.97 250.095 16.69C250.535 16.39 251.065 16.24 251.685 16.24C252.605 16.24 253.355 16.53 253.935 17.11C254.535 17.67 254.835 18.46 254.835 19.48C254.835 20.12 254.685 20.69 254.385 21.19C254.105 21.69 253.745 22.14 253.305 22.54C252.885 22.94 252.415 23.31 251.895 23.65C251.375 23.97 250.885 24.29 250.425 24.61C249.525 25.23 248.665 25.84 247.845 26.44C247.045 27.04 246.345 27.7 245.745 28.42C245.145 29.12 244.665 29.92 244.305 30.82C243.965 31.72 243.795 32.78 243.795 34H259.215V30.34H249.285C249.805 29.62 250.405 28.99 251.085 28.45C251.765 27.91 252.465 27.41 253.185 26.95C253.905 26.47 254.615 25.99 255.315 25.51C256.035 25.03 256.675 24.5 257.235 23.92C257.795 23.32 258.245 22.64 258.585 21.88C258.925 21.12 259.095 20.21 259.095 19.15C259.095 18.13 258.895 17.21 258.495 16.39C258.115 15.57 257.595 14.88 256.935 14.32C256.275 13.76 255.505 13.33 254.625 13.03C253.765 12.73 252.855 12.58 251.895 12.58C250.635 12.58 249.515 12.8 248.535 13.24C247.575 13.66 246.775 14.26 246.135 15.04C245.495 15.8 245.015 16.7 244.695 17.74C244.375 18.76 244.235 19.87 244.275 21.07Z" fill="#FF3E79"/>
<path d="M478.005 22.49V25.49C478.525 25.49 479.065 25.51 479.625 25.55C480.205 25.57 480.735 25.68 481.215 25.88C481.695 26.06 482.085 26.36 482.385 26.78C482.705 27.2 482.865 27.81 482.865 28.61C482.865 29.63 482.535 30.44 481.875 31.04C481.215 31.62 480.405 31.91 479.445 31.91C478.825 31.91 478.285 31.8 477.825 31.58C477.385 31.36 477.015 31.07 476.715 30.71C476.415 30.33 476.185 29.89 476.025 29.39C475.865 28.87 475.775 28.33 475.755 27.77H471.705C471.685 28.99 471.855 30.07 472.215 31.01C472.595 31.95 473.125 32.75 473.805 33.41C474.485 34.05 475.305 34.54 476.265 34.88C477.245 35.22 478.325 35.39 479.505 35.39C480.525 35.39 481.505 35.24 482.445 34.94C483.385 34.64 484.215 34.2 484.935 33.62C485.655 33.04 486.225 32.32 486.645 31.46C487.085 30.6 487.305 29.62 487.305 28.52C487.305 27.32 486.975 26.29 486.315 25.43C485.655 24.57 484.745 24.01 483.585 23.75V23.69C484.565 23.41 485.295 22.88 485.775 22.1C486.275 21.32 486.525 20.42 486.525 19.4C486.525 18.46 486.315 17.63 485.895 16.91C485.475 16.19 484.925 15.58 484.245 15.08C483.585 14.58 482.835 14.21 481.995 13.97C481.155 13.71 480.315 13.58 479.475 13.58C478.395 13.58 477.415 13.76 476.535 14.12C475.655 14.46 474.895 14.95 474.255 15.59C473.635 16.23 473.145 17 472.785 17.9C472.445 18.78 472.255 19.76 472.215 20.84H476.265C476.245 19.76 476.505 18.87 477.045 18.17C477.605 17.45 478.425 17.09 479.505 17.09C480.285 17.09 480.975 17.33 481.575 17.81C482.175 18.29 482.475 18.98 482.475 19.88C482.475 20.48 482.325 20.96 482.025 21.32C481.745 21.68 481.375 21.96 480.915 22.16C480.475 22.34 479.995 22.45 479.475 22.49C478.955 22.53 478.465 22.53 478.005 22.49Z" fill="white"/>
</svg>
