<svg width="247" height="23" viewBox="0 0 247 23" fill="none" xmlns="http://www.w3.org/2000/svg">
<line x1="23" y1="11.2451" x2="111.574" y2="11.2451" stroke="#FF3E79"/>
<line x1="134.574" y1="11.2451" x2="223.149" y2="11.2451" stroke="#FF3E79"/>
<circle cx="11.5" cy="11.5" r="11.5" fill="#FF3E79"/>
<circle cx="123.074" cy="11.5" r="10.5" fill="white" stroke="#FF3E79" stroke-width="2"/>
<circle cx="234.648" cy="11.5" r="10.5" fill="white" stroke="#FF3E79" stroke-width="2"/>
<path d="M13.0978 16.4473V6.64726H11.5158C11.4598 7.0206 11.3431 7.33327 11.1658 7.58527C10.9884 7.83727 10.7691 8.0426 10.5078 8.20126C10.2558 8.3506 9.96644 8.45793 9.63977 8.52327C9.32244 8.57927 8.9911 8.6026 8.64577 8.59326V10.0913H11.1098V16.4473H13.0978Z" fill="white"/>
<path d="M119.702 9.92303H121.606C121.606 9.6617 121.629 9.40036 121.676 9.13903C121.732 8.86836 121.821 8.6257 121.942 8.41103C122.063 8.18703 122.222 8.0097 122.418 7.87903C122.623 7.73903 122.871 7.66903 123.16 7.66903C123.589 7.66903 123.939 7.80436 124.21 8.07503C124.49 8.33636 124.63 8.70503 124.63 9.18103C124.63 9.4797 124.56 9.7457 124.42 9.97903C124.289 10.2124 124.121 10.4224 123.916 10.609C123.72 10.7957 123.501 10.9684 123.258 11.127C123.015 11.2764 122.787 11.4257 122.572 11.575C122.152 11.8644 121.751 12.149 121.368 12.429C120.995 12.709 120.668 13.017 120.388 13.353C120.108 13.6797 119.884 14.053 119.716 14.473C119.557 14.893 119.478 15.3877 119.478 15.957H126.674V14.249H122.04C122.283 13.913 122.563 13.619 122.88 13.367C123.197 13.115 123.524 12.8817 123.86 12.667C124.196 12.443 124.527 12.219 124.854 11.995C125.19 11.771 125.489 11.5237 125.75 11.253C126.011 10.973 126.221 10.6557 126.38 10.301C126.539 9.94636 126.618 9.5217 126.618 9.02703C126.618 8.55103 126.525 8.1217 126.338 7.73903C126.161 7.35636 125.918 7.03436 125.61 6.77303C125.302 6.5117 124.943 6.31103 124.532 6.17103C124.131 6.03103 123.706 5.96103 123.258 5.96103C122.67 5.96103 122.147 6.0637 121.69 6.26903C121.242 6.46503 120.869 6.74503 120.57 7.10903C120.271 7.4637 120.047 7.8837 119.898 8.36903C119.749 8.84503 119.683 9.36303 119.702 9.92303Z" fill="#FF3E79"/>
<path d="M233.952 10.6093V12.0093C234.195 12.0093 234.447 12.0186 234.708 12.0373C234.979 12.0466 235.226 12.0979 235.45 12.1913C235.674 12.2753 235.856 12.4153 235.996 12.6113C236.145 12.8073 236.22 13.0919 236.22 13.4653C236.22 13.9413 236.066 14.3193 235.758 14.5993C235.45 14.8699 235.072 15.0053 234.624 15.0053C234.335 15.0053 234.083 14.9539 233.868 14.8513C233.663 14.7486 233.49 14.6133 233.35 14.4453C233.21 14.2679 233.103 14.0626 233.028 13.8293C232.953 13.5866 232.911 13.3346 232.902 13.0733H231.012C231.003 13.6426 231.082 14.1466 231.25 14.5853C231.427 15.0239 231.675 15.3973 231.992 15.7053C232.309 16.0039 232.692 16.2326 233.14 16.3913C233.597 16.5499 234.101 16.6293 234.652 16.6293C235.128 16.6293 235.585 16.5593 236.024 16.4193C236.463 16.2793 236.85 16.0739 237.186 15.8033C237.522 15.5326 237.788 15.1966 237.984 14.7953C238.189 14.3939 238.292 13.9366 238.292 13.4233C238.292 12.8633 238.138 12.3826 237.83 11.9813C237.522 11.5799 237.097 11.3186 236.556 11.1973V11.1693C237.013 11.0386 237.354 10.7913 237.578 10.4273C237.811 10.0633 237.928 9.64327 237.928 9.16727C237.928 8.7286 237.83 8.34127 237.634 8.00526C237.438 7.66926 237.181 7.3846 236.864 7.15127C236.556 6.91793 236.206 6.74527 235.814 6.63327C235.422 6.51193 235.03 6.45126 234.638 6.45126C234.134 6.45126 233.677 6.53527 233.266 6.70327C232.855 6.86193 232.501 7.0906 232.202 7.38927C231.913 7.68793 231.684 8.04727 231.516 8.46726C231.357 8.87793 231.269 9.33527 231.25 9.83927H233.14C233.131 9.33527 233.252 8.91993 233.504 8.59326C233.765 8.25727 234.148 8.08927 234.652 8.08927C235.016 8.08927 235.338 8.20127 235.618 8.42527C235.898 8.64927 236.038 8.97127 236.038 9.39127C236.038 9.67127 235.968 9.89527 235.828 10.0633C235.697 10.2313 235.525 10.3619 235.31 10.4553C235.105 10.5393 234.881 10.5906 234.638 10.6093C234.395 10.6279 234.167 10.6279 233.952 10.6093Z" fill="#FF3E79"/>
</svg>
