<svg width="714" height="476" viewBox="0 0 714 476" fill="none" xmlns="http://www.w3.org/2000/svg">
<path d="M714 0H0V476H714V0Z" fill="white"/>
<path d="M643.283 430.92H92.991C92.991 430.92 18.3257 357.778 65.8328 271.725C113.34 185.671 177.117 228.956 174.028 128.787C170.938 28.6171 320.733 20.0205 368.414 49.0565C416.095 78.0925 415.807 113.079 514.237 101.502C612.666 89.9259 631.471 186.404 605.867 235.57C603.971 239.145 602.43 242.897 601.266 246.773C584.473 304.509 715.33 312.201 643.283 430.92Z" fill="#EBF3FA"/>
<path d="M590.575 152.675H548.709C546.779 152.675 545.215 154.239 545.215 156.168V196.578C545.215 198.508 546.779 200.072 548.709 200.072H590.575C592.505 200.072 594.069 198.508 594.069 196.578V156.168C594.069 154.239 592.505 152.675 590.575 152.675Z" fill="#9FC1F4"/>
<path d="M588.761 154.726H550.522C548.759 154.726 547.33 156.155 547.33 157.918V194.824C547.33 196.587 548.759 198.016 550.522 198.016H588.761C590.524 198.016 591.953 196.587 591.953 194.824V157.918C591.953 156.155 590.524 154.726 588.761 154.726Z" fill="#F0F6FF"/>
<path d="M568.631 159.053C568.631 158.853 568.69 158.657 568.801 158.491C568.913 158.325 569.07 158.195 569.255 158.118C569.44 158.042 569.644 158.022 569.84 158.061C570.036 158.1 570.216 158.196 570.358 158.338C570.499 158.479 570.596 158.659 570.635 158.856C570.674 159.052 570.654 159.255 570.577 159.44C570.5 159.625 570.371 159.783 570.204 159.894C570.038 160.005 569.843 160.064 569.642 160.064C569.374 160.064 569.117 159.958 568.927 159.768C568.737 159.578 568.631 159.321 568.631 159.053Z" fill="#9FC1F4"/>
<path d="M576.795 160.483C576.893 160.309 577.039 160.166 577.217 160.075C577.395 159.984 577.596 159.947 577.795 159.97C577.994 159.993 578.181 160.074 578.334 160.204C578.487 160.333 578.597 160.505 578.652 160.697C578.707 160.89 578.704 161.094 578.643 161.284C578.581 161.475 578.465 161.643 578.308 161.767C578.152 161.892 577.962 161.967 577.762 161.983C577.563 161.999 577.363 161.956 577.188 161.859C577.072 161.794 576.97 161.708 576.887 161.604C576.805 161.5 576.743 161.38 576.707 161.253C576.67 161.125 576.659 160.991 576.675 160.859C576.69 160.727 576.731 160.599 576.795 160.483Z" fill="#9FC1F4"/>
<path d="M583.792 166.041C583.96 165.933 584.157 165.877 584.357 165.88C584.557 165.883 584.751 165.946 584.916 166.06C585.08 166.174 585.207 166.334 585.281 166.52C585.354 166.706 585.371 166.909 585.329 167.105C585.286 167.3 585.187 167.479 585.043 167.618C584.9 167.757 584.718 167.851 584.521 167.886C584.324 167.922 584.122 167.899 583.938 167.82C583.754 167.74 583.599 167.608 583.49 167.44C583.418 167.329 583.368 167.204 583.345 167.073C583.321 166.942 583.323 166.808 583.351 166.678C583.379 166.548 583.432 166.425 583.508 166.315C583.584 166.206 583.68 166.113 583.792 166.041Z" fill="#9FC1F4"/>
<path d="M587.258 174.644C587.458 174.645 587.653 174.705 587.819 174.816C587.986 174.927 588.115 175.086 588.191 175.27C588.267 175.455 588.287 175.659 588.248 175.855C588.208 176.051 588.112 176.231 587.97 176.372C587.829 176.513 587.648 176.609 587.452 176.648C587.256 176.687 587.053 176.667 586.868 176.59C586.683 176.513 586.526 176.384 586.414 176.218C586.303 176.051 586.244 175.856 586.244 175.656C586.244 175.523 586.27 175.391 586.321 175.268C586.372 175.145 586.447 175.034 586.541 174.94C586.635 174.846 586.747 174.771 586.87 174.721C586.993 174.67 587.125 174.644 587.258 174.644Z" fill="#9FC1F4"/>
<path d="M585.48 184.629C585.621 184.77 585.718 184.95 585.757 185.146C585.797 185.343 585.777 185.546 585.7 185.731C585.624 185.916 585.494 186.074 585.328 186.186C585.161 186.297 584.966 186.356 584.765 186.356C584.565 186.356 584.37 186.297 584.203 186.186C584.037 186.074 583.907 185.916 583.831 185.731C583.754 185.546 583.734 185.343 583.774 185.146C583.813 184.95 583.91 184.77 584.051 184.629C584.241 184.44 584.498 184.333 584.765 184.333C585.033 184.333 585.29 184.44 585.48 184.629Z" fill="#9FC1F4"/>
<path d="M579.132 191C579.273 191.141 579.37 191.321 579.409 191.518C579.449 191.714 579.429 191.917 579.352 192.102C579.276 192.288 579.146 192.446 578.98 192.557C578.814 192.668 578.618 192.728 578.418 192.728C578.217 192.728 578.022 192.668 577.855 192.557C577.689 192.446 577.559 192.288 577.483 192.102C577.406 191.917 577.387 191.714 577.426 191.518C577.465 191.321 577.562 191.141 577.704 191C577.893 190.811 578.15 190.705 578.418 190.705C578.685 190.705 578.942 190.811 579.132 191Z" fill="#9FC1F4"/>
<path d="M568.631 194.284C568.631 194.084 568.69 193.888 568.801 193.722C568.913 193.556 569.07 193.426 569.255 193.35C569.44 193.273 569.644 193.253 569.84 193.292C570.036 193.331 570.216 193.427 570.358 193.569C570.499 193.71 570.596 193.891 570.635 194.087C570.674 194.283 570.654 194.486 570.577 194.671C570.5 194.856 570.371 195.014 570.204 195.125C570.038 195.236 569.843 195.296 569.642 195.296C569.374 195.296 569.117 195.189 568.927 194.999C568.737 194.81 568.631 194.552 568.631 194.284Z" fill="#9FC1F4"/>
<path d="M562.456 160.483C562.359 160.309 562.212 160.166 562.034 160.075C561.856 159.984 561.655 159.947 561.456 159.97C561.258 159.993 561.07 160.074 560.918 160.204C560.765 160.333 560.654 160.505 560.599 160.697C560.544 160.89 560.548 161.094 560.609 161.284C560.67 161.475 560.787 161.643 560.943 161.767C561.1 161.892 561.29 161.967 561.489 161.983C561.689 161.999 561.889 161.956 562.064 161.859C562.18 161.794 562.282 161.708 562.364 161.604C562.447 161.5 562.508 161.38 562.545 161.253C562.581 161.125 562.592 160.991 562.577 160.859C562.562 160.727 562.521 160.599 562.456 160.483Z" fill="#9FC1F4"/>
<path d="M555.457 166.041C555.289 165.933 555.093 165.877 554.893 165.88C554.693 165.883 554.498 165.946 554.334 166.06C554.17 166.174 554.043 166.334 553.969 166.52C553.896 166.706 553.879 166.909 553.921 167.105C553.963 167.3 554.063 167.479 554.206 167.618C554.35 167.757 554.532 167.851 554.729 167.886C554.925 167.922 555.128 167.899 555.312 167.82C555.495 167.74 555.651 167.608 555.76 167.44C555.905 167.214 555.955 166.94 555.898 166.678C555.841 166.416 555.683 166.187 555.457 166.041Z" fill="#9FC1F4"/>
<path d="M551.992 174.644C551.792 174.644 551.596 174.704 551.43 174.815C551.264 174.926 551.134 175.084 551.057 175.269C550.981 175.454 550.961 175.657 551 175.853C551.039 176.049 551.135 176.23 551.277 176.371C551.418 176.513 551.599 176.609 551.795 176.648C551.991 176.687 552.194 176.667 552.379 176.59C552.564 176.514 552.722 176.384 552.833 176.218C552.944 176.051 553.004 175.856 553.004 175.656C553.004 175.388 552.897 175.13 552.707 174.941C552.518 174.751 552.26 174.644 551.992 174.644Z" fill="#9FC1F4"/>
<path d="M553.764 184.629C553.622 184.77 553.526 184.95 553.486 185.146C553.447 185.343 553.467 185.546 553.543 185.731C553.62 185.916 553.75 186.074 553.916 186.186C554.082 186.297 554.278 186.356 554.478 186.356C554.679 186.356 554.874 186.297 555.041 186.186C555.207 186.074 555.337 185.916 555.413 185.731C555.49 185.546 555.509 185.343 555.47 185.146C555.431 184.95 555.334 184.77 555.192 184.629C555.003 184.44 554.746 184.333 554.478 184.333C554.211 184.333 553.954 184.44 553.764 184.629Z" fill="#9FC1F4"/>
<path d="M560.12 191C559.978 191.141 559.881 191.321 559.842 191.518C559.803 191.714 559.822 191.917 559.899 192.102C559.975 192.288 560.105 192.446 560.271 192.557C560.438 192.668 560.634 192.728 560.834 192.728C561.034 192.728 561.23 192.668 561.396 192.557C561.562 192.446 561.692 192.288 561.769 192.102C561.845 191.917 561.865 191.714 561.826 191.518C561.786 191.321 561.69 191.141 561.548 191C561.358 190.811 561.101 190.705 560.834 190.705C560.566 190.705 560.309 190.811 560.12 191Z" fill="#9FC1F4"/>
<path d="M569.369 175.656C569.369 175.456 569.428 175.26 569.54 175.094C569.651 174.928 569.809 174.798 569.994 174.721C570.178 174.645 570.382 174.625 570.578 174.664C570.774 174.703 570.955 174.799 571.096 174.941C571.238 175.082 571.334 175.262 571.373 175.459C571.412 175.655 571.392 175.858 571.315 176.043C571.239 176.228 571.109 176.386 570.943 176.497C570.776 176.608 570.581 176.667 570.381 176.667C570.112 176.667 569.855 176.561 569.665 176.371C569.476 176.181 569.369 175.924 569.369 175.656Z" fill="#9FC1F4"/>
<path d="M570.518 163.013H570.242V175.656H570.518V163.013Z" fill="#9FC1F4"/>
<path d="M576.681 170.006L569.98 175.269L570.492 175.92L577.192 170.657L576.681 170.006Z" fill="#9FC1F4"/>
<path d="M590.328 386.595C590.328 386.595 583.364 378.472 589.898 373.312C589.898 373.312 594.672 370.423 598.563 370.656C598.563 370.656 593.049 379.903 594.831 380.824C596.614 381.745 600.234 370.076 600.234 370.076C600.234 370.076 611.094 369.024 614.59 370.704C614.59 370.704 605.308 378.301 607.26 378.753C609.211 379.205 619.245 371.749 619.245 371.749C619.245 371.749 629.353 373.47 628.813 379.636C628.273 385.803 624.791 387.707 623.26 387.542C621.73 387.378 612.774 383.972 612.579 385.215C612.384 386.457 617.775 390.567 621.549 390.76C621.549 390.76 614.423 398.614 609.687 396.351C604.951 394.087 604.546 390.487 601.595 389.139C598.644 387.792 596.121 387.792 597.342 389.168C598.563 390.544 603.904 391.881 605.591 394.868C607.279 397.855 608.797 399.866 603.894 399.131C598.992 398.395 591.028 394.809 590.681 390.701L590.328 386.595Z" fill="#77A4E5"/>
<path d="M623.845 379.803C623.845 379.803 596.389 378.744 590.328 386.595C590.328 386.595 588.985 390.613 584.854 394.268L584.211 396.023C584.211 396.023 588.971 391.005 590.673 390.701C590.677 390.701 588.014 380.974 623.845 379.803Z" fill="#77A4E5"/>
<path d="M584.859 394.268C584.859 394.268 578.966 398.626 578.557 406.406L579.628 406.504C579.628 406.504 581.51 398.45 584.911 395.301C588.312 392.153 584.859 394.268 584.859 394.268Z" fill="#77A4E5"/>
<path d="M565.98 376.378C565.98 376.378 577.057 370.176 571.888 361.758C571.888 361.758 567.754 356.588 563.32 355.258C563.32 355.258 565.683 367.812 563.32 368.11C560.956 368.407 561.694 353.932 561.694 353.932C561.694 353.932 550.032 348.32 545.448 348.763C545.448 348.763 552.686 361.022 550.322 360.725C547.959 360.427 539.836 348.025 539.836 348.025C539.836 348.025 527.872 345.809 525.954 352.897C524.035 359.984 527.144 363.533 528.907 363.976C530.671 364.418 542.052 364.271 541.759 365.746C541.467 367.222 533.784 369.588 529.5 368.257C529.5 368.257 534.227 379.919 540.429 379.336C546.631 378.753 548.552 374.905 552.393 374.61C556.234 374.314 559.038 375.347 557.117 376.38C555.197 377.413 548.699 376.721 545.598 379.358C542.497 381.995 539.986 383.618 545.746 384.801C551.505 385.984 561.844 385.243 563.912 380.812L565.98 376.378Z" fill="#77A4E5"/>
<path d="M531.422 355.11C531.422 355.11 562.436 365.154 565.982 376.378C565.982 376.378 565.834 381.4 568.935 387.162V389.368C568.935 389.368 565.687 381.835 563.914 380.8C563.914 380.8 570.856 371.061 531.422 355.11Z" fill="#77A4E5"/>
<path d="M568.935 387.162C568.935 387.162 573.719 394.426 570.991 403.267L569.772 402.934C569.772 402.934 570.962 393.195 568.463 388.297C565.964 383.399 568.935 387.162 568.935 387.162Z" fill="#77A4E5"/>
<path d="M583.603 367.824C583.603 367.824 569.002 359.647 575.816 348.546C575.816 348.546 581.268 341.73 587.109 339.978C587.109 339.978 583.993 356.526 587.109 356.917C590.224 357.307 589.251 338.227 589.251 338.227C589.251 338.227 604.63 330.827 610.671 331.413C610.671 331.413 601.132 347.573 604.245 347.183C607.358 346.792 618.068 330.439 618.068 330.439C618.068 330.439 633.837 327.519 636.37 336.865C638.902 346.212 634.811 350.883 632.476 351.469C630.141 352.054 615.147 351.857 615.538 353.804C615.928 355.751 626.05 358.866 631.698 357.114C631.698 357.114 625.467 372.494 617.289 371.716C609.112 370.937 606.579 365.875 601.52 365.485C596.46 365.094 592.759 366.458 595.291 367.822C597.823 369.186 606.387 368.269 610.475 371.744C614.564 375.219 617.875 377.361 610.28 378.92C602.686 380.479 589.06 379.503 586.335 373.662L583.603 367.824Z" fill="#9FC1F4"/>
<path d="M629.161 339.788C629.161 339.788 588.277 353.028 583.603 367.824C583.603 367.824 583.798 374.443 579.709 382.038V384.958C579.709 384.958 583.993 375.028 586.33 373.665C586.33 373.66 577.179 360.808 629.161 339.788Z" fill="#9FC1F4"/>
<path d="M579.707 382.038C579.707 382.038 573.403 391.61 576.999 403.267L578.62 402.829C578.62 402.829 577.044 389.994 580.343 383.537C583.641 377.08 579.707 382.038 579.707 382.038Z" fill="#9FC1F4"/>
<path d="M583.111 428.54C590.697 428.54 597.972 425.527 603.336 420.163C608.7 414.799 611.713 407.523 611.713 399.937H554.508C554.508 403.694 555.248 407.413 556.685 410.883C558.122 414.353 560.229 417.507 562.885 420.163C565.541 422.819 568.695 424.926 572.165 426.363C575.635 427.8 579.354 428.54 583.111 428.54Z" fill="#9FC1F4"/>
<path d="M590.15 428.321C586.125 428.822 582.041 428.462 578.166 427.265C574.292 426.067 570.716 424.06 567.675 421.377C564.635 418.693 562.2 415.393 560.531 411.697C558.863 408.001 557.998 403.993 557.996 399.937H565.1C565.101 406.908 567.646 413.639 572.259 418.865C576.871 424.092 583.233 427.454 590.15 428.321Z" fill="#AFCDFB"/>
<path d="M612.364 399.937H553.568V400.816H612.364V399.937Z" fill="#9FC1F4"/>
<path d="M591.534 426.741H573.365V430.007H591.534V426.741Z" fill="#9FC1F4"/>
<path d="M521.833 90.4257H281.662V133.642H521.833V90.4257Z" fill="#FF3E79"/>
<path d="M348.365 104.744H350.85L359.023 115.292V104.744H361.66V120H359.416L351.002 109.147V120H348.365V104.744Z" fill="white"/>
<path d="M370.987 104.634H373.472L380.186 120H377.351L375.804 116.315H368.59L367.022 120H364.275L370.987 104.634ZM374.824 113.94L372.187 107.838L369.569 113.94H374.824Z" fill="white"/>
<path d="M384.587 107.229H379.748V104.744H392.124V107.229H387.286V120H384.582L384.587 107.229Z" fill="white"/>
<path d="M394.721 113.526V104.744H397.401V113.417C397.401 116.251 398.862 117.777 401.259 117.777C403.655 117.777 405.095 116.337 405.095 113.526V104.744H407.775V113.395C407.775 117.95 405.205 120.24 401.216 120.24C397.227 120.24 394.721 117.95 394.721 113.526Z" fill="white"/>
<path d="M411.459 104.744H418.259C421.829 104.744 423.925 106.662 423.925 109.604C423.925 112.11 422.421 113.614 420.284 114.223L424.404 120H421.243L417.452 114.68H414.139V120H411.459V104.744ZM418.061 112.305C419.979 112.305 421.2 111.303 421.2 109.713C421.2 108.078 420.025 107.183 418.04 107.183H414.139V112.305H418.061Z" fill="white"/>
<path d="M432.62 104.634H435.105L441.819 120H438.984L437.437 116.315H430.223L428.655 120H425.908L432.62 104.634ZM436.456 113.94L433.819 107.838L431.201 113.94H436.456Z" fill="white"/>
<path d="M444.431 104.744H447.113V117.558H455.134V120H444.424L444.431 104.744Z" fill="white"/>
<path d="M335.565 116.396C335.565 116.396 322.102 121.699 320.11 116.218C318.118 110.737 335.565 116.396 335.565 116.396Z" fill="white"/>
<path d="M324.578 108.588C326.501 103.875 335.574 116.392 335.574 116.392C335.574 116.392 322.655 113.288 324.578 108.588Z" fill="white"/>
<path d="M465.053 117.22C465.053 117.22 473.968 105.824 478.466 109.539C482.965 113.255 465.053 117.22 465.053 117.22Z" fill="white"/>
<path d="M478.476 118.381C479.205 123.417 465.041 117.227 465.041 117.227C465.041 117.227 477.743 113.343 478.476 118.381Z" fill="white"/>
<path d="M518.122 142.574H283.123V409.11H518.122V142.574Z" fill="#C2DBFF"/>
<path d="M509.061 207.779H292.184V154.519H509.061V207.779Z" fill="#DDE7FE"/>
<path d="M509.061 271.763H292.184V218.503H509.061V271.763Z" fill="#DDE7FE"/>
<path d="M509.061 335.747H292.184V282.485H509.061V335.747Z" fill="#DDE7FE"/>
<path d="M509.061 399.731H292.184V346.469H509.061V399.731Z" fill="#DDE7FE"/>
<path d="M350.056 200.751H343.482V207.883H350.056V200.751Z" fill="#CC6A27"/>
<path d="M343.481 200.753L341.104 174.318H352.292L350.055 200.753H343.481Z" fill="#FF3F3E"/>
<path d="M340.965 172.595L341.115 174.33L352.301 174.318L352.325 172.455L340.965 172.595Z" fill="#CC6A27"/>
<path d="M337.5 167.745H313.16V207.786H337.5V167.745Z" fill="#AEC3FF"/>
<path d="M330.563 172.945H313.191V180.011H330.563V172.945Z" fill="#FF3F3E"/>
<path d="M493.73 200.805H487.156V207.938H493.73V200.805Z" fill="#163560"/>
<path d="M487.155 200.805L484.777 174.373H495.965L493.728 200.805H487.155Z" fill="#8C9DF4"/>
<path d="M484.639 172.647L484.789 174.385L495.974 174.373L495.998 172.507L484.639 172.647Z" fill="#667CD8"/>
<path d="M491.704 182.01H488.812V192.256H491.704V182.01Z" fill="#F9DDBF"/>
<path d="M481.17 167.797H456.83V207.838H481.17V167.797Z" fill="#AEC3FF"/>
<path d="M474.237 172.997H456.865V180.064H474.237V172.997Z" fill="#FF3F3E"/>
<path d="M376.716 271.737L365.266 271.763C364.196 271.763 363.17 271.339 362.412 270.585C361.653 269.83 361.225 268.806 361.22 267.736L361.148 236.282C361.148 235.212 361.572 234.186 362.327 233.427C363.081 232.669 364.106 232.241 365.175 232.236L376.623 232.21C377.693 232.21 378.719 232.633 379.478 233.388C380.236 234.143 380.664 235.167 380.669 236.237L380.741 267.688C380.741 268.758 380.318 269.785 379.564 270.543C378.81 271.302 377.786 271.731 376.716 271.737Z" fill="#FF3E79"/>
<path d="M367.864 228.882L373.924 228.869C374.277 228.868 374.616 229.007 374.867 229.257C375.117 229.506 375.259 229.845 375.259 230.198L375.264 232.214L366.539 232.234L366.534 230.218C366.533 229.865 366.673 229.525 366.922 229.275C367.172 229.024 367.511 228.883 367.864 228.882Z" fill="#163560"/>
<path d="M376.193 241.165L365.857 241.189L365.9 259.912L376.236 259.889L376.193 241.165Z" fill="#F9DDBF"/>
<path d="M370.442 258.385C370.428 258.383 370.416 258.376 370.408 258.365C370.399 258.355 370.395 258.341 370.397 258.328C371.28 251.08 372.325 245.892 373.341 243.714C373.357 243.682 373.371 243.649 373.384 243.614C373.39 243.604 373.399 243.596 373.41 243.592C373.421 243.587 373.433 243.587 373.445 243.59C373.456 243.594 373.466 243.601 373.473 243.611C373.479 243.621 373.482 243.633 373.481 243.645C373.467 243.684 373.45 243.721 373.431 243.757C372.42 245.925 371.38 251.102 370.497 258.339C370.496 258.346 370.494 258.352 370.491 258.358C370.488 258.364 370.484 258.369 370.479 258.373C370.474 258.378 370.468 258.381 370.461 258.383C370.455 258.385 370.449 258.385 370.442 258.385Z" fill="#FFA561"/>
<path d="M374.212 243.198C374.088 243.436 373.352 243.983 373.281 243.948C373.21 243.912 373.2 242.996 373.321 242.758C373.383 242.645 373.486 242.56 373.609 242.521C373.732 242.483 373.864 242.493 373.98 242.55C374.095 242.608 374.183 242.707 374.227 242.829C374.27 242.95 374.264 243.083 374.212 243.2V243.198Z" fill="#FFA561"/>
<path d="M372.771 244.129C372.897 244.381 372.885 245.319 372.814 245.349C372.743 245.38 371.988 244.835 371.862 244.583C371.812 244.464 371.809 244.33 371.854 244.209C371.899 244.088 371.988 243.988 372.104 243.93C372.219 243.872 372.353 243.86 372.477 243.897C372.601 243.934 372.706 244.017 372.771 244.129Z" fill="#FFA561"/>
<path d="M374.006 245.545C373.733 245.611 372.816 245.388 372.816 245.307C372.816 245.226 373.504 244.621 373.768 244.555C373.899 244.523 374.038 244.545 374.152 244.615C374.267 244.685 374.35 244.798 374.381 244.929C374.413 245.06 374.391 245.199 374.321 245.313C374.25 245.428 374.137 245.511 374.006 245.542V245.545Z" fill="#FFA561"/>
<path d="M371.195 249.105C371.45 249.5 371.597 251.062 371.483 251.133C371.369 251.204 370.012 250.419 369.758 250.026C369.663 249.838 369.641 249.621 369.696 249.417C369.751 249.214 369.88 249.038 370.057 248.923C370.235 248.809 370.448 248.764 370.656 248.798C370.865 248.831 371.053 248.941 371.186 249.105H371.195Z" fill="#FFA561"/>
<path d="M373.508 251.245C373.063 251.402 371.511 251.195 371.466 251.069C371.421 250.942 372.49 249.795 372.932 249.641C373.038 249.603 373.15 249.586 373.262 249.592C373.374 249.597 373.484 249.625 373.585 249.673C373.687 249.721 373.778 249.788 373.853 249.871C373.929 249.954 373.987 250.051 374.025 250.157C374.063 250.263 374.079 250.375 374.074 250.487C374.068 250.599 374.041 250.709 373.993 250.81C373.945 250.912 373.877 251.003 373.794 251.078C373.711 251.153 373.614 251.212 373.508 251.25V251.245Z" fill="#FFA561"/>
<path d="M370.281 251.035C370.693 251.44 371.288 253.263 371.174 253.38C371.059 253.496 369.227 252.927 368.815 252.523C368.628 252.326 368.525 252.065 368.527 251.793C368.53 251.522 368.638 251.262 368.828 251.069C369.018 250.876 369.277 250.765 369.548 250.758C369.819 250.752 370.082 250.851 370.281 251.035Z" fill="#FFA561"/>
<path d="M373.542 253.796C372.983 253.934 371.117 253.484 371.079 253.32C371.041 253.156 372.485 251.892 373.045 251.764C373.309 251.71 373.584 251.761 373.811 251.905C374.039 252.05 374.202 252.277 374.266 252.539C374.331 252.801 374.291 253.077 374.156 253.311C374.021 253.544 373.801 253.716 373.542 253.791V253.796Z" fill="#FFA561"/>
<path d="M369.922 253.411C370.334 253.815 370.929 255.638 370.814 255.755C370.7 255.872 368.867 255.303 368.456 254.898C368.269 254.702 368.166 254.44 368.168 254.169C368.17 253.897 368.278 253.638 368.469 253.445C368.659 253.251 368.917 253.14 369.188 253.133C369.46 253.127 369.723 253.226 369.922 253.411Z" fill="#FFA561"/>
<path d="M373.185 256.171C372.626 256.309 370.76 255.859 370.721 255.695C370.683 255.531 372.128 254.267 372.687 254.139C372.823 254.1 372.964 254.088 373.104 254.105C373.244 254.122 373.379 254.168 373.501 254.238C373.623 254.309 373.729 254.403 373.814 254.516C373.898 254.628 373.959 254.757 373.993 254.894C374.026 255.03 374.032 255.172 374.009 255.311C373.986 255.45 373.936 255.583 373.86 255.702C373.785 255.821 373.686 255.923 373.57 256.003C373.454 256.083 373.323 256.139 373.185 256.166V256.171Z" fill="#FFA561"/>
<path d="M368.774 256.516C369.307 256.735 370.552 258.182 370.49 258.344C370.428 258.506 368.519 258.668 367.984 258.451C367.857 258.4 367.741 258.323 367.644 258.227C367.546 258.13 367.469 258.015 367.416 257.889C367.308 257.633 367.307 257.345 367.412 257.089C367.516 256.832 367.719 256.628 367.974 256.52C368.23 256.413 368.517 256.412 368.774 256.516Z" fill="#FFA561"/>
<path d="M372.902 258.508C372.364 258.713 370.457 258.508 370.4 258.349C370.343 258.189 371.616 256.764 372.157 256.557C372.414 256.466 372.696 256.48 372.943 256.594C373.19 256.709 373.383 256.915 373.48 257.17C373.577 257.424 373.571 257.707 373.463 257.957C373.355 258.207 373.154 258.405 372.902 258.508Z" fill="#FFA561"/>
<path d="M372.288 245.678C372.414 245.933 372.402 246.882 372.328 246.918C372.255 246.954 371.491 246.394 371.365 246.14C371.332 246.079 371.311 246.012 371.305 245.943C371.299 245.874 371.306 245.805 371.327 245.739C371.348 245.673 371.382 245.612 371.426 245.559C371.471 245.507 371.526 245.464 371.588 245.433C371.65 245.402 371.717 245.384 371.786 245.379C371.855 245.375 371.925 245.384 371.99 245.407C372.055 245.43 372.115 245.466 372.166 245.512C372.218 245.559 372.259 245.615 372.288 245.678Z" fill="#FFA561"/>
<path d="M373.506 247.139C373.23 247.206 372.316 246.98 372.29 246.901C372.264 246.823 372.987 246.202 373.266 246.135C373.333 246.116 373.403 246.111 373.471 246.121C373.54 246.13 373.607 246.153 373.667 246.188C373.726 246.223 373.778 246.27 373.82 246.326C373.861 246.382 373.89 246.446 373.906 246.513C373.922 246.581 373.925 246.651 373.913 246.72C373.901 246.788 373.876 246.854 373.838 246.912C373.801 246.97 373.752 247.021 373.694 247.06C373.637 247.099 373.572 247.126 373.504 247.139H373.506Z" fill="#FFA561"/>
<path d="M371.681 247.142C371.891 247.489 371.983 248.831 371.884 248.893C371.784 248.955 370.636 248.248 370.427 247.903C370.377 247.821 370.344 247.729 370.329 247.634C370.314 247.539 370.318 247.442 370.341 247.348C370.364 247.255 370.405 247.166 370.462 247.089C370.519 247.011 370.591 246.945 370.673 246.895C370.756 246.845 370.847 246.812 370.942 246.797C371.037 246.783 371.135 246.787 371.228 246.81C371.322 246.833 371.41 246.874 371.488 246.931C371.565 246.988 371.631 247.059 371.681 247.142Z" fill="#FFA561"/>
<path d="M373.596 249.186C373.201 249.281 371.892 248.948 371.866 248.846C371.84 248.743 372.858 247.853 373.253 247.76C373.347 247.738 373.444 247.734 373.54 247.749C373.635 247.764 373.726 247.798 373.808 247.848C373.891 247.899 373.962 247.965 374.019 248.043C374.075 248.121 374.116 248.209 374.139 248.303C374.161 248.397 374.165 248.494 374.15 248.589C374.135 248.685 374.101 248.776 374.051 248.858C374 248.94 373.934 249.012 373.856 249.068C373.778 249.125 373.69 249.166 373.596 249.188V249.186Z" fill="#FFA561"/>
<path d="M419.714 335.72L408.263 335.747C407.194 335.747 406.167 335.323 405.409 334.568C404.651 333.814 404.223 332.789 404.217 331.72L404.148 300.268C404.147 299.738 404.249 299.213 404.451 298.722C404.652 298.232 404.948 297.786 405.322 297.41C405.696 297.035 406.14 296.736 406.629 296.532C407.118 296.328 407.643 296.223 408.173 296.222L419.623 296.196C420.693 296.196 421.718 296.619 422.477 297.373C423.235 298.127 423.664 299.151 423.669 300.22L423.741 331.674C423.741 332.744 423.317 333.77 422.562 334.529C421.808 335.287 420.783 335.715 419.714 335.72Z" fill="#FF3E79"/>
<path d="M410.862 292.868L416.922 292.855C417.275 292.854 417.614 292.994 417.865 293.243C418.115 293.492 418.257 293.831 418.257 294.185L418.262 296.2L409.537 296.22L409.532 294.204C409.532 293.851 409.671 293.511 409.921 293.261C410.17 293.01 410.509 292.869 410.862 292.868Z" fill="#163560"/>
<path d="M419.198 305.137L408.861 305.161L408.904 323.884L419.24 323.861L419.198 305.137Z" fill="#F9DDBF"/>
<path d="M413.438 322.369C413.431 322.368 413.425 322.366 413.419 322.362C413.414 322.359 413.409 322.354 413.405 322.349C413.401 322.344 413.398 322.338 413.396 322.331C413.394 322.325 413.394 322.318 413.395 322.311C414.276 315.064 415.321 309.876 416.337 307.701C416.361 307.651 416.375 307.617 416.382 307.601C416.384 307.594 416.387 307.588 416.391 307.583C416.395 307.578 416.4 307.574 416.406 307.57C416.411 307.567 416.418 307.565 416.425 307.565C416.431 307.564 416.438 307.565 416.444 307.567C416.451 307.569 416.457 307.572 416.462 307.576C416.468 307.58 416.472 307.586 416.475 307.592C416.479 307.598 416.48 307.605 416.481 307.612C416.481 307.618 416.48 307.625 416.477 307.632C416.477 307.653 416.456 307.686 416.43 307.743C415.418 309.909 414.376 315.088 413.495 322.323C413.495 322.33 413.493 322.337 413.489 322.343C413.486 322.349 413.482 322.354 413.476 322.358C413.471 322.363 413.465 322.366 413.458 322.367C413.452 322.369 413.445 322.37 413.438 322.369Z" fill="#FFA561"/>
<path d="M417.213 307.184C417.092 307.422 416.354 307.967 416.285 307.934C416.216 307.901 416.202 306.982 416.323 306.744C416.382 306.626 416.486 306.536 416.611 306.494C416.736 306.453 416.873 306.462 416.991 306.521C417.109 306.58 417.199 306.684 417.24 306.809C417.282 306.934 417.272 307.071 417.213 307.189V307.184Z" fill="#FFA561"/>
<path d="M415.765 308.115C415.892 308.365 415.877 309.305 415.806 309.336C415.734 309.367 414.98 308.819 414.854 308.567C414.824 308.507 414.807 308.442 414.802 308.376C414.797 308.309 414.806 308.243 414.827 308.179C414.848 308.116 414.882 308.058 414.926 308.007C414.969 307.957 415.023 307.916 415.082 307.886C415.142 307.857 415.207 307.839 415.274 307.834C415.34 307.83 415.407 307.838 415.47 307.86C415.533 307.881 415.592 307.914 415.642 307.958C415.692 308.002 415.733 308.055 415.763 308.115H415.765Z" fill="#FFA561"/>
<path d="M417.001 309.531C416.727 309.595 415.811 309.374 415.811 309.293C415.811 309.212 416.498 308.605 416.763 308.538C416.828 308.521 416.897 308.516 416.964 308.526C417.032 308.535 417.096 308.558 417.155 308.593C417.213 308.627 417.264 308.673 417.305 308.728C417.345 308.783 417.374 308.845 417.39 308.911C417.406 308.977 417.408 309.046 417.397 309.113C417.386 309.18 417.362 309.245 417.326 309.302C417.289 309.36 417.242 309.409 417.186 309.448C417.13 309.487 417.067 309.514 417.001 309.529V309.531Z" fill="#FFA561"/>
<path d="M414.188 313.089C414.443 313.486 414.59 315.045 414.476 315.119C414.362 315.193 413.007 314.405 412.753 314.01C412.682 313.917 412.631 313.809 412.604 313.695C412.576 313.581 412.573 313.463 412.593 313.347C412.614 313.232 412.658 313.122 412.722 313.024C412.787 312.927 412.872 312.843 412.97 312.78C413.069 312.716 413.179 312.674 413.295 312.655C413.411 312.636 413.529 312.641 413.643 312.67C413.757 312.699 413.863 312.752 413.956 312.824C414.048 312.896 414.125 312.986 414.181 313.089H414.188Z" fill="#FFA561"/>
<path d="M416.501 315.229C416.058 315.388 414.504 315.179 414.458 315.053C414.413 314.926 415.482 313.779 415.927 313.624C416.032 313.587 416.144 313.57 416.256 313.576C416.368 313.581 416.478 313.609 416.579 313.657C416.68 313.705 416.771 313.772 416.846 313.855C416.921 313.938 416.979 314.035 417.017 314.141C417.055 314.246 417.071 314.358 417.066 314.47C417.06 314.582 417.032 314.692 416.985 314.793C416.937 314.894 416.869 314.985 416.786 315.06C416.703 315.135 416.606 315.193 416.501 315.231V315.229Z" fill="#FFA561"/>
<path d="M413.28 315.019C413.69 315.424 414.287 317.247 414.17 317.364C414.054 317.48 412.226 316.911 411.814 316.507C411.711 316.412 411.629 316.297 411.571 316.169C411.513 316.042 411.482 315.904 411.479 315.764C411.476 315.624 411.5 315.484 411.552 315.354C411.604 315.224 411.681 315.106 411.779 315.006C411.878 314.906 411.995 314.827 412.124 314.774C412.254 314.72 412.393 314.693 412.533 314.694C412.673 314.696 412.811 314.725 412.939 314.781C413.068 314.837 413.184 314.918 413.28 315.019Z" fill="#FFA561"/>
<path d="M416.534 317.78C415.975 317.918 414.112 317.47 414.071 317.304C414.031 317.137 415.478 315.876 416.037 315.747C416.172 315.708 416.314 315.697 416.454 315.714C416.594 315.731 416.729 315.776 416.851 315.847C416.972 315.917 417.079 316.012 417.163 316.124C417.248 316.237 417.309 316.365 417.342 316.502C417.376 316.639 417.381 316.781 417.359 316.92C417.336 317.059 417.285 317.192 417.21 317.311C417.134 317.43 417.036 317.532 416.92 317.612C416.803 317.692 416.673 317.747 416.534 317.775V317.78Z" fill="#FFA561"/>
<path d="M412.931 317.397C413.34 317.801 413.938 319.622 413.821 319.741C413.704 319.86 411.874 319.287 411.465 318.882C411.367 318.786 411.29 318.671 411.236 318.545C411.183 318.419 411.155 318.283 411.154 318.146C411.153 318.009 411.18 317.873 411.231 317.746C411.283 317.619 411.359 317.504 411.455 317.406C411.551 317.309 411.666 317.231 411.792 317.178C411.919 317.125 412.054 317.097 412.191 317.096C412.328 317.095 412.464 317.121 412.591 317.173C412.718 317.224 412.833 317.3 412.931 317.397Z" fill="#FFA561"/>
<path d="M416.175 320.155C415.616 320.293 413.752 319.846 413.712 319.679C413.671 319.513 415.118 318.251 415.678 318.12C415.813 318.081 415.955 318.07 416.095 318.087C416.234 318.104 416.369 318.149 416.491 318.22C416.613 318.29 416.719 318.384 416.804 318.497C416.888 318.61 416.949 318.738 416.983 318.875C417.016 319.012 417.022 319.154 416.999 319.293C416.976 319.432 416.926 319.565 416.85 319.684C416.775 319.803 416.676 319.905 416.56 319.985C416.444 320.065 416.313 320.12 416.175 320.148V320.155Z" fill="#FFA561"/>
<path d="M411.768 320.5C412.304 320.719 413.548 322.166 413.486 322.331C413.425 322.495 411.513 322.652 410.98 322.435C410.85 322.386 410.732 322.311 410.631 322.214C410.531 322.118 410.45 322.003 410.395 321.875C410.34 321.748 410.31 321.61 410.309 321.471C410.307 321.332 410.333 321.194 410.386 321.065C410.438 320.937 410.516 320.819 410.614 320.721C410.712 320.623 410.829 320.545 410.958 320.492C411.087 320.44 411.225 320.413 411.364 320.415C411.503 320.416 411.64 320.445 411.768 320.5Z" fill="#FFA561"/>
<path d="M415.9 322.49C415.362 322.697 413.456 322.49 413.397 322.331C413.337 322.171 414.615 320.745 415.153 320.541C415.282 320.484 415.422 320.455 415.563 320.454C415.704 320.453 415.844 320.481 415.974 320.535C416.104 320.59 416.222 320.67 416.32 320.771C416.418 320.873 416.495 320.993 416.546 321.125C416.596 321.256 416.62 321.397 416.614 321.538C416.609 321.679 416.575 321.818 416.515 321.945C416.454 322.073 416.369 322.187 416.263 322.281C416.158 322.374 416.034 322.445 415.9 322.49Z" fill="#FFA561"/>
<path d="M415.282 309.662C415.411 309.916 415.399 310.866 415.325 310.902C415.251 310.937 414.487 310.378 414.359 310.123C414.326 310.063 414.306 309.996 414.299 309.927C414.293 309.858 414.3 309.789 414.321 309.723C414.342 309.657 414.376 309.596 414.421 309.543C414.465 309.491 414.521 309.448 414.582 309.417C414.644 309.386 414.712 309.367 414.781 309.363C414.85 309.359 414.919 309.368 414.984 309.391C415.049 309.414 415.109 309.45 415.161 309.496C415.212 309.543 415.253 309.599 415.282 309.662Z" fill="#FFA561"/>
<path d="M416.501 311.123C416.222 311.19 415.311 310.964 415.282 310.885C415.254 310.807 415.982 310.185 416.26 310.119C416.391 310.093 416.527 310.119 416.64 310.191C416.752 310.263 416.832 310.376 416.863 310.506C416.894 310.636 416.873 310.773 416.805 310.888C416.737 311.003 416.627 311.087 416.498 311.123H416.501Z" fill="#FFA561"/>
<path d="M414.675 311.125C414.887 311.473 414.977 312.818 414.88 312.877C414.782 312.937 413.63 312.232 413.421 311.887C413.32 311.721 413.289 311.521 413.335 311.332C413.382 311.143 413.501 310.98 413.667 310.879C413.834 310.778 414.033 310.747 414.222 310.794C414.411 310.84 414.574 310.959 414.675 311.125Z" fill="#FFA561"/>
<path d="M416.592 313.172C416.199 313.267 414.89 312.946 414.864 312.834C414.838 312.722 415.856 311.842 416.249 311.747C416.343 311.724 416.44 311.72 416.535 311.735C416.631 311.75 416.722 311.784 416.804 311.835C416.886 311.885 416.958 311.951 417.014 312.029C417.071 312.107 417.112 312.195 417.134 312.289C417.157 312.383 417.161 312.48 417.146 312.576C417.131 312.671 417.097 312.762 417.046 312.844C416.996 312.926 416.93 312.998 416.852 313.055C416.774 313.111 416.685 313.152 416.592 313.175V313.172Z" fill="#FFA561"/>
<path d="M465.052 271.737L453.602 271.763C452.532 271.763 451.506 271.339 450.748 270.585C449.989 269.83 449.561 268.806 449.556 267.736L449.484 236.282C449.484 235.212 449.908 234.186 450.663 233.427C451.417 232.669 452.442 232.241 453.511 232.236L464.962 232.21C466.031 232.21 467.058 232.633 467.816 233.388C468.574 234.143 469.002 235.167 469.008 236.237L469.079 267.688C469.08 268.758 468.656 269.785 467.901 270.544C467.147 271.303 466.122 271.732 465.052 271.737Z" fill="#8C9DF4"/>
<path d="M456.19 228.882L462.25 228.868C462.603 228.867 462.942 229.007 463.193 229.256C463.443 229.506 463.585 229.844 463.585 230.198L463.59 232.214L454.865 232.234L454.86 230.218C454.86 229.864 454.999 229.525 455.249 229.274C455.498 229.024 455.837 228.883 456.19 228.882Z" fill="#163560"/>
<path d="M464.518 241.165L454.182 241.189L454.224 259.912L464.561 259.889L464.518 241.165Z" fill="#AEC3FF"/>
<path d="M458.766 258.385C458.759 258.384 458.753 258.382 458.747 258.378C458.742 258.375 458.737 258.371 458.733 258.365C458.729 258.36 458.726 258.354 458.724 258.347C458.723 258.341 458.722 258.334 458.723 258.328C459.604 251.081 460.649 245.892 461.665 243.714C461.686 243.667 461.703 243.634 461.71 243.614C461.712 243.608 461.715 243.602 461.72 243.597C461.724 243.592 461.729 243.588 461.735 243.585C461.741 243.582 461.747 243.581 461.754 243.58C461.76 243.58 461.767 243.58 461.773 243.582C461.779 243.584 461.785 243.588 461.79 243.592C461.795 243.596 461.799 243.601 461.802 243.607C461.805 243.613 461.807 243.619 461.808 243.626C461.808 243.633 461.807 243.639 461.805 243.645C461.805 243.669 461.782 243.703 461.758 243.757C460.746 245.925 459.704 251.102 458.823 258.34C458.821 258.353 458.814 258.365 458.804 258.374C458.793 258.382 458.78 258.386 458.766 258.385Z" fill="#8C9DF4"/>
<path d="M462.537 243.198C462.416 243.436 461.678 243.983 461.609 243.948C461.54 243.912 461.526 242.996 461.647 242.758C461.675 242.697 461.714 242.642 461.764 242.596C461.813 242.551 461.871 242.516 461.934 242.494C461.997 242.471 462.064 242.462 462.13 242.465C462.197 242.469 462.262 242.487 462.322 242.517C462.382 242.546 462.436 242.588 462.479 242.639C462.522 242.69 462.555 242.749 462.575 242.813C462.595 242.877 462.602 242.944 462.596 243.01C462.589 243.077 462.57 243.142 462.537 243.2V243.198Z" fill="#8C9DF4"/>
<path d="M461.096 244.129C461.219 244.381 461.208 245.319 461.136 245.349C461.065 245.38 460.311 244.835 460.184 244.583C460.134 244.464 460.131 244.33 460.176 244.209C460.221 244.088 460.31 243.988 460.426 243.93C460.542 243.872 460.675 243.86 460.799 243.897C460.923 243.934 461.028 244.017 461.093 244.129H461.096Z" fill="#8C9DF4"/>
<path d="M462.329 245.545C462.055 245.611 461.139 245.388 461.139 245.307C461.139 245.226 461.829 244.621 462.091 244.555C462.155 244.539 462.223 244.536 462.289 244.547C462.355 244.557 462.418 244.58 462.475 244.615C462.532 244.65 462.581 244.696 462.62 244.749C462.66 244.803 462.688 244.865 462.703 244.929C462.719 244.994 462.722 245.062 462.711 245.128C462.701 245.193 462.678 245.257 462.643 245.314C462.608 245.37 462.562 245.42 462.509 245.459C462.455 245.498 462.393 245.527 462.329 245.542V245.545Z" fill="#8C9DF4"/>
<path d="M459.519 249.105C459.774 249.5 459.921 251.062 459.807 251.133C459.693 251.204 458.339 250.419 458.084 250.026C457.981 249.837 457.954 249.617 458.007 249.409C458.06 249.2 458.19 249.02 458.371 248.903C458.551 248.787 458.769 248.743 458.981 248.78C459.193 248.818 459.382 248.934 459.512 249.105H459.519Z" fill="#8C9DF4"/>
<path d="M461.83 251.245C461.388 251.402 459.834 251.195 459.789 251.069C459.743 250.943 460.812 249.795 461.257 249.641C461.468 249.572 461.698 249.589 461.897 249.687C462.096 249.786 462.25 249.958 462.324 250.167C462.399 250.376 462.389 250.606 462.297 250.808C462.205 251.01 462.037 251.169 461.83 251.25V251.245Z" fill="#8C9DF4"/>
<path d="M458.609 251.035C459.018 251.44 459.615 253.263 459.499 253.38C459.382 253.496 457.552 252.927 457.142 252.523C457.04 252.428 456.957 252.313 456.899 252.185C456.842 252.058 456.81 251.92 456.807 251.78C456.804 251.64 456.829 251.501 456.88 251.37C456.932 251.24 457.009 251.122 457.107 251.022C457.206 250.922 457.323 250.843 457.452 250.79C457.582 250.736 457.721 250.709 457.861 250.711C458.001 250.712 458.139 250.741 458.268 250.797C458.396 250.853 458.512 250.934 458.609 251.035Z" fill="#8C9DF4"/>
<path d="M461.866 253.796C461.307 253.934 459.444 253.484 459.403 253.32C459.363 253.156 460.81 251.892 461.369 251.764C461.504 251.724 461.646 251.713 461.786 251.73C461.926 251.747 462.06 251.792 462.182 251.863C462.304 251.933 462.411 252.028 462.495 252.14C462.58 252.253 462.64 252.381 462.674 252.518C462.708 252.655 462.713 252.797 462.69 252.936C462.668 253.075 462.617 253.208 462.541 253.327C462.466 253.446 462.367 253.548 462.251 253.628C462.135 253.708 462.004 253.763 461.866 253.791V253.796Z" fill="#8C9DF4"/>
<path d="M458.249 253.41C458.658 253.815 459.256 255.638 459.139 255.755C459.022 255.871 457.192 255.303 456.783 254.898C456.68 254.803 456.597 254.688 456.54 254.561C456.482 254.433 456.451 254.295 456.448 254.155C456.444 254.015 456.469 253.876 456.521 253.746C456.572 253.615 456.65 253.497 456.748 253.397C456.846 253.297 456.964 253.218 457.093 253.165C457.222 253.111 457.361 253.085 457.501 253.086C457.641 253.087 457.78 253.116 457.908 253.172C458.037 253.228 458.153 253.309 458.249 253.41Z" fill="#8C9DF4"/>
<path d="M461.507 256.171C460.948 256.309 459.084 255.859 459.044 255.695C459.003 255.531 460.45 254.267 461.01 254.139C461.145 254.1 461.287 254.088 461.427 254.105C461.566 254.122 461.701 254.168 461.823 254.238C461.945 254.309 462.052 254.403 462.136 254.516C462.221 254.628 462.281 254.757 462.315 254.894C462.349 255.03 462.354 255.172 462.331 255.311C462.309 255.45 462.258 255.583 462.182 255.702C462.107 255.821 462.008 255.923 461.892 256.003C461.776 256.083 461.645 256.139 461.507 256.166V256.171Z" fill="#8C9DF4"/>
<path d="M457.1 256.516C457.635 256.735 458.88 258.182 458.818 258.344C458.756 258.506 456.845 258.668 456.312 258.451C456.061 258.343 455.863 258.141 455.759 257.888C455.656 257.635 455.656 257.351 455.759 257.098C455.862 256.845 456.06 256.643 456.311 256.534C456.561 256.425 456.844 256.419 457.1 256.516Z" fill="#8C9DF4"/>
<path d="M461.228 258.509C460.688 258.713 458.784 258.509 458.725 258.349C458.665 258.19 459.943 256.764 460.481 256.557C460.609 256.508 460.746 256.484 460.883 256.488C461.02 256.492 461.155 256.522 461.281 256.578C461.406 256.634 461.519 256.714 461.613 256.814C461.708 256.914 461.781 257.031 461.831 257.159C461.88 257.287 461.903 257.424 461.899 257.561C461.896 257.698 461.865 257.833 461.809 257.959C461.753 258.084 461.673 258.197 461.573 258.291C461.474 258.386 461.357 258.46 461.228 258.509Z" fill="#8C9DF4"/>
<path d="M460.61 245.678C460.739 245.933 460.724 246.882 460.653 246.918C460.582 246.954 459.815 246.394 459.687 246.14C459.654 246.079 459.634 246.012 459.627 245.943C459.621 245.874 459.628 245.805 459.649 245.739C459.67 245.673 459.704 245.612 459.749 245.559C459.794 245.507 459.849 245.464 459.91 245.433C459.972 245.402 460.04 245.384 460.109 245.379C460.178 245.375 460.247 245.384 460.312 245.407C460.377 245.43 460.437 245.466 460.489 245.512C460.54 245.559 460.581 245.615 460.61 245.678Z" fill="#8C9DF4"/>
<path d="M461.833 247.139C461.554 247.206 460.643 246.98 460.614 246.901C460.586 246.823 461.314 246.202 461.59 246.135C461.657 246.116 461.727 246.111 461.796 246.121C461.865 246.13 461.931 246.153 461.991 246.188C462.051 246.223 462.103 246.27 462.144 246.326C462.185 246.382 462.215 246.446 462.231 246.513C462.247 246.581 462.249 246.651 462.237 246.72C462.226 246.788 462.2 246.854 462.163 246.912C462.125 246.97 462.076 247.021 462.018 247.06C461.961 247.099 461.896 247.126 461.828 247.139H461.833Z" fill="#8C9DF4"/>
<path d="M460.007 247.142C460.217 247.489 460.31 248.831 460.212 248.893C460.114 248.955 458.962 248.248 458.753 247.903C458.703 247.821 458.67 247.729 458.655 247.634C458.64 247.539 458.645 247.442 458.667 247.348C458.69 247.255 458.731 247.166 458.788 247.089C458.845 247.011 458.917 246.945 458.999 246.895C459.082 246.845 459.173 246.812 459.268 246.797C459.364 246.783 459.461 246.787 459.554 246.81C459.648 246.833 459.736 246.874 459.814 246.931C459.892 246.988 459.957 247.059 460.007 247.142Z" fill="#8C9DF4"/>
<path d="M461.918 249.186C461.526 249.281 460.217 248.948 460.188 248.846C460.16 248.743 461.183 247.853 461.576 247.76C461.669 247.738 461.767 247.734 461.862 247.749C461.957 247.764 462.049 247.798 462.131 247.848C462.213 247.899 462.284 247.965 462.341 248.043C462.398 248.121 462.439 248.209 462.461 248.303C462.484 248.397 462.487 248.494 462.472 248.589C462.457 248.685 462.423 248.776 462.373 248.858C462.323 248.94 462.257 249.012 462.179 249.068C462.101 249.125 462.012 249.166 461.918 249.188V249.186Z" fill="#8C9DF4"/>
<path d="M447.153 335.847L435.703 335.873C434.634 335.873 433.608 335.449 432.85 334.695C432.092 333.941 431.663 332.917 431.657 331.848L431.586 300.394C431.586 299.325 432.009 298.299 432.763 297.541C433.518 296.783 434.541 296.354 435.61 296.348L447.061 296.322C448.13 296.322 449.156 296.746 449.915 297.5C450.673 298.255 451.101 299.279 451.106 300.349L451.175 331.801C451.177 332.33 451.075 332.855 450.874 333.346C450.672 333.836 450.377 334.281 450.003 334.657C449.629 335.033 449.186 335.331 448.697 335.536C448.208 335.74 447.683 335.845 447.153 335.847Z" fill="#8C9DF4"/>
<path d="M438.302 292.994L444.362 292.981C444.716 292.98 445.055 293.119 445.305 293.369C445.556 293.618 445.697 293.957 445.698 294.31L445.703 296.326L436.972 296.346L436.968 294.33C436.967 294.155 437.002 293.981 437.069 293.819C437.136 293.657 437.234 293.509 437.358 293.385C437.482 293.261 437.629 293.163 437.791 293.096C437.953 293.028 438.127 292.994 438.302 292.994Z" fill="#163560"/>
<path d="M446.639 305.266L436.303 305.289L436.345 324.013L446.682 323.989L446.639 305.266Z" fill="#AEC3FF"/>
<path d="M440.881 322.49C440.875 322.49 440.868 322.488 440.863 322.485C440.857 322.481 440.852 322.477 440.847 322.472C440.843 322.467 440.84 322.461 440.838 322.455C440.836 322.449 440.836 322.442 440.836 322.435C441.719 315.188 442.764 309.997 443.78 307.822C443.802 307.774 443.818 307.739 443.823 307.722C443.829 307.712 443.838 307.704 443.849 307.699C443.861 307.695 443.873 307.695 443.884 307.698C443.896 307.702 443.906 307.709 443.912 307.719C443.919 307.729 443.922 307.741 443.921 307.753C443.921 307.777 443.897 307.81 443.871 307.865C442.859 310.031 441.817 315.21 440.936 322.447C440.936 322.454 440.934 322.46 440.931 322.466C440.928 322.472 440.924 322.477 440.919 322.482C440.914 322.486 440.908 322.489 440.901 322.49C440.895 322.491 440.888 322.492 440.881 322.49Z" fill="#8C9DF4"/>
<path d="M444.65 307.31C444.526 307.548 443.791 308.096 443.719 308.06C443.648 308.024 443.636 307.108 443.76 306.87C443.787 306.809 443.827 306.754 443.876 306.709C443.925 306.663 443.983 306.628 444.046 306.606C444.109 306.583 444.176 306.574 444.243 306.578C444.31 306.582 444.375 306.599 444.435 306.629C444.495 306.659 444.548 306.7 444.591 306.751C444.635 306.802 444.668 306.861 444.688 306.925C444.708 306.989 444.715 307.056 444.708 307.123C444.702 307.189 444.682 307.254 444.65 307.313V307.31Z" fill="#8C9DF4"/>
<path d="M443.207 308.241C443.333 308.493 443.322 309.431 443.248 309.462C443.174 309.493 442.424 308.948 442.296 308.696C442.246 308.576 442.243 308.443 442.288 308.321C442.332 308.2 442.422 308.1 442.537 308.042C442.653 307.985 442.786 307.973 442.91 308.01C443.034 308.047 443.14 308.129 443.205 308.241H443.207Z" fill="#8C9DF4"/>
<path d="M444.44 309.657C444.169 309.724 443.25 309.5 443.25 309.419C443.25 309.338 443.938 308.731 444.202 308.667C444.267 308.651 444.334 308.649 444.4 308.659C444.466 308.669 444.529 308.693 444.586 308.727C444.643 308.762 444.692 308.808 444.732 308.862C444.771 308.916 444.799 308.977 444.815 309.042C444.83 309.107 444.833 309.174 444.823 309.24C444.812 309.306 444.789 309.369 444.754 309.426C444.719 309.483 444.674 309.532 444.62 309.572C444.566 309.611 444.505 309.639 444.44 309.655V309.657Z" fill="#8C9DF4"/>
<path d="M441.631 313.208C441.888 313.603 442.034 315.164 441.922 315.236C441.81 315.307 440.451 314.522 440.196 314.129C440.125 314.036 440.075 313.928 440.047 313.814C440.02 313.7 440.016 313.582 440.036 313.466C440.057 313.351 440.101 313.241 440.166 313.143C440.231 313.046 440.315 312.962 440.414 312.899C440.512 312.835 440.623 312.793 440.739 312.774C440.854 312.755 440.973 312.76 441.086 312.789C441.2 312.818 441.306 312.87 441.399 312.942C441.492 313.015 441.568 313.105 441.624 313.208H441.631Z" fill="#8C9DF4"/>
<path d="M443.946 315.35C443.501 315.509 441.949 315.302 441.904 315.176C441.859 315.05 442.927 313.903 443.37 313.748C443.58 313.685 443.806 313.705 444.001 313.803C444.197 313.902 444.347 314.072 444.421 314.278C444.495 314.484 444.487 314.711 444.398 314.911C444.31 315.112 444.148 315.27 443.946 315.355V315.35Z" fill="#8C9DF4"/>
<path d="M440.723 315.148C441.134 315.552 441.729 317.375 441.615 317.492C441.501 317.609 439.668 317.04 439.257 316.635C439.07 316.439 438.966 316.177 438.969 315.906C438.971 315.635 439.079 315.375 439.269 315.182C439.46 314.988 439.718 314.877 439.989 314.871C440.26 314.864 440.523 314.964 440.723 315.148Z" fill="#8C9DF4"/>
<path d="M443.98 317.909C443.42 318.047 441.554 317.597 441.516 317.433C441.478 317.268 442.923 316.004 443.482 315.876C443.747 315.823 444.021 315.873 444.249 316.018C444.477 316.162 444.64 316.389 444.704 316.651C444.769 316.913 444.729 317.19 444.594 317.423C444.459 317.657 444.239 317.829 443.98 317.904V317.909Z" fill="#8C9DF4"/>
<path d="M440.363 317.523C440.775 317.927 441.37 319.75 441.256 319.867C441.141 319.984 439.309 319.415 438.897 319.01C438.71 318.814 438.607 318.552 438.609 318.281C438.612 318.01 438.72 317.75 438.91 317.557C439.1 317.364 439.358 317.252 439.63 317.246C439.901 317.239 440.164 317.339 440.363 317.523Z" fill="#8C9DF4"/>
<path d="M443.632 320.284C443.07 320.422 441.207 319.972 441.169 319.808C441.131 319.644 442.573 318.38 443.134 318.251C443.399 318.198 443.674 318.249 443.901 318.393C444.129 318.538 444.292 318.764 444.356 319.026C444.42 319.288 444.381 319.565 444.246 319.798C444.111 320.032 443.891 320.204 443.632 320.279V320.284Z" fill="#8C9DF4"/>
<path d="M439.212 320.629C439.745 320.848 440.99 322.295 440.928 322.457C440.866 322.618 438.958 322.78 438.422 322.561C438.29 322.514 438.168 322.439 438.065 322.343C437.962 322.247 437.88 322.132 437.822 322.003C437.765 321.874 437.735 321.735 437.733 321.594C437.73 321.454 437.757 321.314 437.81 321.183C437.863 321.053 437.943 320.935 438.043 320.836C438.143 320.737 438.262 320.659 438.393 320.607C438.524 320.555 438.664 320.531 438.805 320.534C438.946 320.538 439.084 320.57 439.212 320.629Z" fill="#8C9DF4"/>
<path d="M443.341 322.621C442.803 322.826 440.897 322.621 440.84 322.461C440.783 322.302 442.056 320.876 442.594 320.669C442.722 320.62 442.858 320.597 442.996 320.601C443.133 320.604 443.268 320.635 443.393 320.691C443.518 320.747 443.632 320.827 443.726 320.926C443.82 321.026 443.894 321.143 443.943 321.271C443.992 321.4 444.016 321.536 444.012 321.673C444.008 321.81 443.977 321.946 443.922 322.071C443.866 322.196 443.786 322.309 443.686 322.404C443.586 322.498 443.469 322.572 443.341 322.621Z" fill="#8C9DF4"/>
<path d="M442.726 309.79C442.852 310.045 442.84 310.98 442.766 311.03C442.692 311.08 441.928 310.507 441.8 310.25C441.739 310.127 441.729 309.985 441.773 309.855C441.817 309.725 441.91 309.618 442.033 309.557C442.156 309.496 442.298 309.487 442.428 309.53C442.557 309.574 442.665 309.668 442.726 309.79Z" fill="#8C9DF4"/>
<path d="M443.944 311.252C443.667 311.318 442.753 311.092 442.727 311.014C442.701 310.935 443.425 310.316 443.703 310.25C443.77 310.231 443.84 310.226 443.909 310.235C443.978 310.244 444.044 310.267 444.104 310.303C444.164 310.338 444.216 310.385 444.257 310.441C444.298 310.497 444.328 310.561 444.344 310.628C444.36 310.696 444.362 310.766 444.35 310.834C444.339 310.903 444.313 310.968 444.276 311.027C444.238 311.085 444.189 311.135 444.131 311.174C444.074 311.213 444.009 311.241 443.941 311.254L443.944 311.252Z" fill="#8C9DF4"/>
<path d="M442.12 311.254C442.33 311.599 442.423 312.944 442.323 313.003C442.223 313.063 441.075 312.361 440.864 312.013C440.763 311.847 440.733 311.647 440.779 311.458C440.826 311.269 440.946 311.106 441.112 311.005C441.279 310.905 441.479 310.874 441.668 310.921C441.857 310.968 442.02 311.087 442.12 311.254Z" fill="#8C9DF4"/>
<path d="M444.034 313.301C443.638 313.396 442.329 313.063 442.303 312.96C442.277 312.858 443.296 311.968 443.691 311.873C443.876 311.839 444.067 311.878 444.224 311.98C444.381 312.083 444.494 312.242 444.537 312.425C444.581 312.608 444.554 312.8 444.46 312.963C444.366 313.126 444.214 313.247 444.034 313.301Z" fill="#8C9DF4"/>
<path d="M346.302 255.338H315.119C312.894 255.338 311.09 257.142 311.09 259.368V267.731C311.09 269.956 312.894 271.76 315.119 271.76H346.302C348.527 271.76 350.331 269.956 350.331 267.731V259.368C350.331 257.142 348.527 255.338 346.302 255.338Z" fill="#FF3E79"/>
<path d="M340.968 255.307L320.457 255.353V253.377C320.456 252.764 320.699 252.176 321.132 251.741C321.565 251.307 322.153 251.063 322.766 251.061L338.65 251.026C338.954 251.024 339.255 251.083 339.536 251.198C339.817 251.314 340.072 251.483 340.287 251.698C340.503 251.912 340.674 252.167 340.791 252.447C340.907 252.727 340.968 253.028 340.968 253.332V255.307Z" fill="#163560"/>
<path d="M343.04 260.41H318.379V264.911H343.04V260.41Z" fill="#F9DDBF"/>
<path d="M436.204 255.338H405.022C402.796 255.338 400.992 257.142 400.992 259.368V267.731C400.992 269.956 402.796 271.76 405.022 271.76H436.204C438.43 271.76 440.234 269.956 440.234 267.731V259.368C440.234 257.142 438.43 255.338 436.204 255.338Z" fill="#8C9DF4"/>
<path d="M430.872 255.307L410.361 255.353V253.377C410.361 253.074 410.42 252.773 410.535 252.492C410.651 252.212 410.821 251.957 411.035 251.742C411.249 251.527 411.503 251.356 411.784 251.239C412.064 251.123 412.364 251.062 412.668 251.061L428.554 251.026C428.858 251.025 429.159 251.084 429.44 251.199C429.72 251.315 429.976 251.484 430.191 251.698C430.406 251.913 430.577 252.167 430.694 252.447C430.811 252.728 430.872 253.028 430.872 253.332V255.307Z" fill="#163560"/>
<path d="M432.943 260.41H408.281V264.911H432.943V260.41Z" fill="#F9DDBF"/>
<path d="M406.503 399.704L395.053 399.731C393.983 399.731 392.957 399.307 392.199 398.552C391.44 397.798 391.012 396.773 391.007 395.704L390.936 364.252C390.936 363.183 391.359 362.157 392.113 361.398C392.867 360.64 393.891 360.212 394.96 360.206L406.41 360.18C407.48 360.18 408.506 360.603 409.264 361.357C410.022 362.111 410.451 363.135 410.456 364.204L410.528 395.658C410.528 396.728 410.105 397.754 409.35 398.512C408.596 399.27 407.573 399.699 406.503 399.704Z" fill="#8C9DF4"/>
<path d="M397.641 356.854L403.701 356.84C404.054 356.839 404.394 356.979 404.644 357.228C404.895 357.478 405.036 357.816 405.037 358.17L405.041 360.186L396.316 360.205L396.312 358.199C396.31 358.023 396.343 357.849 396.409 357.686C396.475 357.523 396.573 357.375 396.697 357.25C396.82 357.124 396.967 357.025 397.129 356.957C397.292 356.889 397.466 356.854 397.641 356.854Z" fill="#163560"/>
<path d="M405.981 369.123L395.645 369.146L395.687 387.87L406.023 387.846L405.981 369.123Z" fill="#AEC3FF"/>
<path d="M400.221 386.352C400.215 386.351 400.208 386.349 400.202 386.346C400.197 386.343 400.192 386.338 400.188 386.333C400.184 386.327 400.181 386.321 400.179 386.315C400.178 386.308 400.177 386.302 400.178 386.295C401.061 379.048 402.106 373.86 403.12 371.685C403.137 371.652 403.152 371.619 403.165 371.585C403.167 371.578 403.17 371.572 403.175 371.567C403.179 371.562 403.184 371.557 403.19 371.554C403.196 371.551 403.203 371.549 403.209 371.549C403.216 371.548 403.223 371.549 403.229 371.551C403.236 371.553 403.242 371.556 403.247 371.561C403.252 371.565 403.256 371.57 403.259 371.576C403.262 371.583 403.264 371.589 403.264 371.596C403.264 371.603 403.263 371.609 403.26 371.616C403.26 371.637 403.239 371.67 403.213 371.727C402.201 373.893 401.159 379.072 400.278 386.307C400.278 386.314 400.276 386.321 400.273 386.327C400.27 386.333 400.266 386.339 400.26 386.343C400.255 386.347 400.248 386.35 400.242 386.352C400.235 386.354 400.228 386.354 400.221 386.352Z" fill="#8C9DF4"/>
<path d="M403.987 371.168C403.866 371.406 403.131 371.951 403.059 371.918C402.988 371.884 402.976 370.966 403.1 370.728C403.126 370.665 403.166 370.609 403.215 370.563C403.264 370.516 403.322 370.48 403.386 370.457C403.45 370.433 403.517 370.423 403.585 370.427C403.653 370.431 403.719 370.449 403.78 370.479C403.84 370.509 403.894 370.552 403.938 370.604C403.981 370.656 404.014 370.716 404.033 370.781C404.053 370.846 404.059 370.914 404.051 370.982C404.043 371.049 404.021 371.114 403.987 371.173V371.168Z" fill="#8C9DF4"/>
<path d="M402.549 372.099C402.675 372.337 402.66 373.289 402.589 373.32C402.518 373.351 401.763 372.803 401.637 372.551C401.577 372.43 401.568 372.291 401.61 372.163C401.653 372.036 401.745 371.93 401.866 371.87C401.986 371.81 402.126 371.801 402.253 371.844C402.381 371.886 402.486 371.978 402.546 372.099H402.549Z" fill="#8C9DF4"/>
<path d="M403.782 373.515C403.51 373.579 402.592 373.358 402.592 373.277C402.592 373.196 403.28 372.589 403.544 372.522C403.609 372.505 403.678 372.5 403.745 372.51C403.813 372.519 403.878 372.542 403.936 372.576C403.995 372.611 404.045 372.657 404.086 372.712C404.126 372.767 404.155 372.829 404.171 372.895C404.187 372.961 404.189 373.03 404.178 373.097C404.167 373.164 404.143 373.228 404.107 373.286C404.07 373.343 404.023 373.393 403.967 373.432C403.911 373.471 403.848 373.498 403.782 373.512V373.515Z" fill="#8C9DF4"/>
<path d="M400.971 377.073C401.226 377.47 401.373 379.029 401.261 379.103C401.149 379.177 399.791 378.389 399.536 377.994C399.465 377.9 399.414 377.793 399.387 377.679C399.36 377.565 399.356 377.447 399.376 377.331C399.397 377.216 399.441 377.106 399.506 377.008C399.571 376.911 399.655 376.827 399.753 376.764C399.852 376.7 399.963 376.658 400.078 376.639C400.194 376.62 400.312 376.625 400.426 376.654C400.54 376.683 400.646 376.735 400.739 376.807C400.831 376.879 400.908 376.97 400.964 377.073H400.971Z" fill="#8C9DF4"/>
<path d="M403.284 379.213C402.841 379.372 401.287 379.163 401.242 379.036C401.196 378.91 402.267 377.765 402.71 377.608C402.816 377.571 402.927 377.554 403.039 377.56C403.151 377.565 403.261 377.593 403.362 377.641C403.463 377.689 403.554 377.756 403.629 377.839C403.704 377.922 403.763 378.019 403.8 378.125C403.838 378.23 403.854 378.342 403.849 378.454C403.843 378.566 403.816 378.676 403.768 378.777C403.72 378.878 403.652 378.969 403.569 379.044C403.486 379.119 403.389 379.177 403.284 379.215V379.213Z" fill="#8C9DF4"/>
<path d="M400.062 379.003C400.474 379.41 401.069 381.231 400.953 381.347C400.836 381.464 399.008 380.895 398.596 380.491C398.409 380.294 398.306 380.032 398.309 379.761C398.311 379.49 398.419 379.23 398.609 379.037C398.8 378.844 399.058 378.732 399.329 378.726C399.6 378.72 399.863 378.819 400.062 379.003Z" fill="#8C9DF4"/>
<path d="M403.32 381.764C402.758 381.902 400.895 381.455 400.854 381.288C400.814 381.121 402.261 379.86 402.823 379.729C403.087 379.676 403.362 379.726 403.589 379.871C403.817 380.015 403.98 380.242 404.044 380.504C404.109 380.766 404.069 381.043 403.934 381.276C403.799 381.51 403.579 381.682 403.32 381.757V381.764Z" fill="#8C9DF4"/>
<path d="M399.702 381.381C400.114 381.785 400.709 383.606 400.595 383.725C400.48 383.844 398.648 383.27 398.236 382.866C398.139 382.77 398.061 382.655 398.008 382.529C397.955 382.403 397.927 382.267 397.926 382.13C397.925 381.993 397.951 381.857 398.003 381.73C398.054 381.603 398.13 381.488 398.227 381.39C398.323 381.293 398.437 381.215 398.564 381.162C398.69 381.109 398.825 381.081 398.962 381.08C399.099 381.079 399.235 381.105 399.362 381.157C399.489 381.208 399.605 381.284 399.702 381.381Z" fill="#8C9DF4"/>
<path d="M402.961 384.132C402.399 384.268 400.535 383.82 400.495 383.656C400.455 383.492 401.902 382.228 402.463 382.097C402.732 382.031 403.017 382.075 403.254 382.218C403.491 382.362 403.661 382.594 403.727 382.863C403.793 383.133 403.749 383.417 403.606 383.654C403.462 383.891 403.23 384.061 402.961 384.127V384.132Z" fill="#8C9DF4"/>
<path d="M398.551 384.487C399.086 384.703 400.331 386.153 400.269 386.315C400.207 386.476 398.296 386.636 397.763 386.419C397.507 386.315 397.302 386.113 397.195 385.858C397.088 385.603 397.086 385.315 397.19 385.059C397.295 384.803 397.497 384.598 397.752 384.491C398.007 384.384 398.294 384.382 398.551 384.487Z" fill="#8C9DF4"/>
<path d="M402.682 386.476C402.144 386.683 400.237 386.476 400.178 386.317C400.118 386.157 401.396 384.732 401.934 384.527C402.064 384.471 402.203 384.441 402.344 384.44C402.485 384.439 402.625 384.467 402.755 384.521C402.885 384.576 403.003 384.656 403.101 384.758C403.2 384.859 403.276 384.979 403.327 385.111C403.377 385.243 403.401 385.383 403.395 385.524C403.39 385.665 403.356 385.804 403.296 385.931C403.236 386.059 403.15 386.173 403.044 386.267C402.939 386.36 402.815 386.432 402.682 386.476Z" fill="#8C9DF4"/>
<path d="M402.066 373.646C402.192 373.9 402.18 374.85 402.107 374.886C402.033 374.921 401.269 374.362 401.14 374.107C401.11 374.047 401.092 373.98 401.087 373.913C401.082 373.845 401.091 373.777 401.113 373.712C401.134 373.648 401.168 373.588 401.213 373.537C401.257 373.486 401.312 373.444 401.372 373.414C401.433 373.383 401.499 373.365 401.567 373.361C401.635 373.356 401.703 373.364 401.767 373.386C401.832 373.408 401.891 373.442 401.942 373.486C401.994 373.531 402.036 373.585 402.066 373.646Z" fill="#8C9DF4"/>
<path d="M403.286 375.107C403.007 375.174 402.096 374.948 402.067 374.869C402.039 374.791 402.767 374.169 403.045 374.103C403.176 374.077 403.312 374.103 403.425 374.175C403.537 374.247 403.617 374.36 403.648 374.49C403.679 374.62 403.658 374.757 403.59 374.872C403.522 374.987 403.412 375.071 403.283 375.107H403.286Z" fill="#8C9DF4"/>
<path d="M401.458 375.109C401.67 375.457 401.761 376.802 401.663 376.861C401.566 376.921 400.414 376.216 400.204 375.871C400.154 375.789 400.121 375.697 400.106 375.602C400.092 375.507 400.096 375.41 400.119 375.316C400.142 375.222 400.183 375.134 400.24 375.057C400.296 374.979 400.368 374.913 400.451 374.863C400.533 374.813 400.624 374.78 400.72 374.765C400.815 374.75 400.912 374.755 401.006 374.778C401.099 374.8 401.187 374.842 401.265 374.898C401.343 374.955 401.408 375.027 401.458 375.109Z" fill="#8C9DF4"/>
<path d="M403.371 377.156C402.978 377.251 401.669 376.918 401.643 376.818C401.617 376.718 402.636 375.826 403.028 375.73C403.122 375.708 403.219 375.704 403.315 375.719C403.41 375.734 403.501 375.768 403.583 375.818C403.665 375.869 403.737 375.935 403.794 376.013C403.85 376.091 403.891 376.179 403.914 376.273C403.936 376.367 403.94 376.464 403.925 376.559C403.91 376.655 403.876 376.746 403.826 376.828C403.775 376.91 403.709 376.982 403.631 377.039C403.553 377.095 403.465 377.136 403.371 377.159V377.156Z" fill="#8C9DF4"/>
<path d="M377.656 383.309H346.473C344.247 383.309 342.443 385.113 342.443 387.338V395.701C342.443 397.927 344.247 399.731 346.473 399.731H377.656C379.881 399.731 381.685 397.927 381.685 395.701V387.338C381.685 385.113 379.881 383.309 377.656 383.309Z" fill="#8C9DF4"/>
<path d="M372.323 383.275L351.813 383.323V381.345C351.812 381.042 351.871 380.741 351.986 380.46C352.101 380.179 352.271 379.924 352.485 379.709C352.7 379.494 352.954 379.323 353.234 379.206C353.515 379.09 353.815 379.03 354.119 379.029L370.003 378.994C370.616 378.992 371.205 379.235 371.639 379.667C372.074 380.099 372.319 380.687 372.321 381.3L372.323 383.275Z" fill="#163560"/>
<path d="M374.394 388.378H349.732V392.879H374.394V388.378Z" fill="#F9DDBF"/>
<path d="M342.745 317.071H312.719V335.747H342.745V317.071Z" fill="#8C9DF4"/>
<path d="M343.9 316.371H311.441V319.177H343.9V316.371Z" fill="#163560"/>
<path d="M337.464 323.575H317.184V328.678H337.464V323.575Z" fill="#F9DDBF"/>
<path d="M388.303 317.071H358.277V335.747H388.303V317.071Z" fill="#FF3E79"/>
<path d="M389.458 316.371H357V319.177H389.458V316.371Z" fill="#163560"/>
<path d="M383.022 323.575H362.742V328.678H383.022V323.575Z" fill="#F9DDBF"/>
<path d="M365.403 297.695H335.377V316.371H365.403V297.695Z" fill="#FF3E79"/>
<path d="M366.562 296.993H334.104V299.799H366.562V296.993Z" fill="#163560"/>
<path d="M360.12 304.2H339.84V309.302H360.12V304.2Z" fill="#F9DDBF"/>
<path d="M454.098 381.055H424.072V399.728H454.098V381.055Z" fill="#8C9DF4"/>
<path d="M455.255 380.355H422.797V383.161H455.255V380.355Z" fill="#163560"/>
<path d="M448.815 387.559H428.535V392.662H448.815V387.559Z" fill="#F9DDBF"/>
<path d="M499.655 381.055H469.629V399.728H499.655V381.055Z" fill="#FF3E79"/>
<path d="M500.812 380.355H468.354V383.161H500.812V380.355Z" fill="#163560"/>
<path d="M494.374 387.559H474.094V392.662H494.374V387.559Z" fill="#F9DDBF"/>
<path d="M476.759 361.679H446.732V380.353H476.759V361.679Z" fill="#FF3E79"/>
<path d="M477.913 360.977H445.455V363.783H477.913V360.977Z" fill="#163560"/>
<path d="M471.477 368.184H451.197V373.286H471.477V368.184Z" fill="#F9DDBF"/>
<path d="M468.622 305.697H472.818C473.318 305.697 473.799 305.896 474.152 306.25C474.506 306.603 474.705 307.084 474.705 307.584V330.432H466.732V307.584C466.732 307.336 466.781 307.09 466.876 306.861C466.971 306.632 467.111 306.424 467.286 306.249C467.462 306.073 467.67 305.934 467.899 305.84C468.128 305.745 468.374 305.696 468.622 305.697Z" fill="#FF3E79"/>
<path d="M466.732 330.432H474.705V333.888C474.705 334.381 474.509 334.854 474.161 335.202C473.812 335.551 473.339 335.747 472.847 335.747H468.591C468.098 335.747 467.625 335.551 467.277 335.202C466.928 334.854 466.732 334.381 466.732 333.888V330.432Z" fill="#163560"/>
<path d="M472.148 313.456H469.287V321.429H472.148V313.456Z" fill="white"/>
<path d="M486.169 305.697H490.365C490.866 305.697 491.346 305.896 491.7 306.25C492.054 306.603 492.252 307.084 492.252 307.584V330.432H484.279V307.584C484.279 307.336 484.328 307.09 484.423 306.861C484.518 306.632 484.657 306.424 484.833 306.249C485.008 306.073 485.217 305.934 485.446 305.84C485.675 305.745 485.921 305.696 486.169 305.697Z" fill="#8C9DF4"/>
<path d="M484.279 330.432H492.252V333.888C492.252 334.381 492.057 334.854 491.708 335.202C491.359 335.551 490.887 335.747 490.394 335.747H486.138C485.645 335.747 485.172 335.551 484.824 335.202C484.475 334.854 484.279 334.381 484.279 333.888V330.432Z" fill="#163560"/>
<path d="M489.697 313.456H486.834V321.429H489.697V313.456Z" fill="white"/>
<path d="M305.685 369.719H309.877C310.377 369.719 310.857 369.918 311.211 370.272C311.565 370.626 311.764 371.106 311.764 371.606V394.454H303.791V371.606C303.791 371.358 303.84 371.112 303.935 370.882C304.031 370.653 304.17 370.444 304.346 370.269C304.522 370.094 304.731 369.955 304.961 369.86C305.191 369.766 305.437 369.718 305.685 369.719Z" fill="#FF3E79"/>
<path d="M303.795 394.454H311.78V397.91C311.78 398.403 311.584 398.876 311.235 399.224C310.887 399.573 310.414 399.769 309.921 399.769H305.666C305.173 399.769 304.7 399.573 304.351 399.224C304.003 398.876 303.807 398.403 303.807 397.91V394.454H303.795Z" fill="#163560"/>
<path d="M309.212 377.478H306.352V385.451H309.212V377.478Z" fill="white"/>
<path d="M323.23 369.719H327.425C327.673 369.719 327.919 369.768 328.148 369.862C328.377 369.957 328.585 370.096 328.76 370.272C328.935 370.447 329.074 370.655 329.169 370.884C329.264 371.113 329.313 371.358 329.313 371.606V394.454H321.34V371.606C321.34 371.358 321.389 371.112 321.484 370.883C321.579 370.654 321.718 370.446 321.893 370.271C322.069 370.095 322.277 369.956 322.507 369.862C322.736 369.767 322.981 369.718 323.23 369.719Z" fill="#8C9DF4"/>
<path d="M321.344 394.454H329.317V397.91C329.317 398.403 329.121 398.876 328.772 399.224C328.424 399.573 327.951 399.769 327.458 399.769H323.205C322.712 399.769 322.239 399.573 321.891 399.224C321.542 398.876 321.346 398.403 321.346 397.91V394.454H321.344Z" fill="#163560"/>
<path d="M326.757 377.478H323.896V385.451H326.757V377.478Z" fill="white"/>
<path d="M394.1 196.21C394.098 198.549 393.485 200.847 392.321 202.875C391.156 204.904 389.481 206.593 387.462 207.774H373.994C371.965 206.593 370.282 204.899 369.115 202.863C367.947 200.826 367.336 198.518 367.342 196.171C367.348 193.823 367.971 191.518 369.15 189.488C370.328 187.457 372.019 185.773 374.054 184.602C376.089 183.432 378.396 182.817 380.744 182.82C383.091 182.823 385.397 183.444 387.429 184.619C389.461 185.795 391.148 187.484 392.321 189.517C393.494 191.551 394.112 193.857 394.112 196.205L394.1 196.21Z" fill="#FF3E79"/>
<path d="M390.036 205.689H371.27V207.776H390.036V205.689Z" fill="#E58848"/>
<path d="M377.052 179.907H384.43C384.952 179.907 385.452 180.114 385.822 180.483C386.191 180.852 386.398 181.353 386.398 181.875V184.117H374.945V182.006C374.945 181.729 374.999 181.456 375.105 181.2C375.211 180.945 375.366 180.713 375.562 180.518C375.758 180.323 375.99 180.169 376.246 180.064C376.501 179.959 376.775 179.905 377.052 179.907Z" fill="#163560"/>
<path d="M387.279 192.256H374.049V195.303H387.279V192.256Z" fill="#F9DDBF"/>
<path d="M439.292 196.21C439.294 198.002 438.935 199.776 438.236 201.426C437.538 203.076 436.514 204.569 435.227 205.815C434.449 206.574 433.581 207.233 432.642 207.779H419.174C417.145 206.598 415.462 204.904 414.294 202.867C413.127 200.831 412.515 198.523 412.522 196.175C412.528 193.828 413.151 191.523 414.329 189.493C415.507 187.462 417.199 185.777 419.234 184.607C421.269 183.437 423.576 182.822 425.924 182.825C428.271 182.828 430.577 183.449 432.609 184.624C434.641 185.799 436.328 187.489 437.501 189.522C438.674 191.556 439.291 193.862 439.292 196.21Z" fill="#8C9DF4"/>
<path d="M435.225 205.689H416.459V207.776H435.225V205.689Z" fill="#707FE5"/>
<path d="M422.24 179.907H429.618C430.14 179.907 430.641 180.114 431.01 180.483C431.379 180.852 431.586 181.353 431.586 181.875V184.117H420.141V182.006C420.14 181.73 420.194 181.457 420.3 181.202C420.405 180.947 420.56 180.716 420.755 180.521C420.95 180.326 421.181 180.171 421.436 180.066C421.691 179.96 421.964 179.906 422.24 179.907Z" fill="#163560"/>
<path d="M432.473 192.256H419.242V195.303H432.473V192.256Z" fill="#F9DDBF"/>
<path d="M302.514 409.122L298.971 428.476C298.936 428.665 298.943 428.858 298.992 429.044C299.041 429.229 299.129 429.401 299.252 429.548C299.375 429.695 299.528 429.814 299.702 429.895C299.875 429.976 300.064 430.018 300.256 430.018C300.774 430.018 301.281 429.865 301.713 429.578C302.145 429.291 302.483 428.883 302.683 428.405L310.804 409.127L302.514 409.122Z" fill="#77A4E5"/>
<path d="M108.307 409.122L104.764 428.476C104.729 428.665 104.736 428.858 104.785 429.044C104.834 429.229 104.922 429.401 105.045 429.548C105.168 429.695 105.321 429.814 105.495 429.895C105.668 429.976 105.857 430.018 106.049 430.018C106.567 430.018 107.074 429.865 107.506 429.578C107.938 429.291 108.275 428.883 108.476 428.405L116.597 409.127L108.307 409.122Z" fill="#77A4E5"/>
<path d="M492.522 409.122L496.068 428.476C496.103 428.665 496.095 428.858 496.047 429.044C495.998 429.229 495.909 429.401 495.787 429.548C495.664 429.695 495.511 429.814 495.337 429.895C495.164 429.976 494.974 430.018 494.783 430.018C494.264 430.018 493.757 429.865 493.325 429.578C492.892 429.291 492.554 428.883 492.353 428.405L484.232 409.127L492.522 409.122Z" fill="#77A4E5"/>
<path d="M255.797 409.122L259.341 428.476C259.375 428.664 259.368 428.858 259.32 429.043C259.271 429.228 259.183 429.4 259.06 429.547C258.938 429.695 258.785 429.813 258.612 429.894C258.438 429.976 258.249 430.018 258.058 430.018C257.539 430.019 257.032 429.866 256.599 429.579C256.167 429.292 255.829 428.883 255.628 428.405L247.52 409.122H255.797Z" fill="#77A4E5"/>
<path d="M269.357 275.842H95.3223V409.8H269.357V275.842Z" fill="#C2DBFF"/>
<path d="M671.667 430.006H42.3333C41.9205 430.006 41.5859 430.341 41.5859 430.754V431.089C41.5859 431.502 41.9205 431.837 42.3333 431.837H671.667C672.08 431.837 672.414 431.502 672.414 431.089V430.754C672.414 430.341 672.08 430.006 671.667 430.006Z" fill="#2E3552"/>
<path d="M261.464 282.485H103.211V335.747H261.464V282.485Z" fill="#DDE7FE"/>
<path d="M261.464 345.797H103.211V399.059H261.464V345.797Z" fill="#DDE7FE"/>
<path d="M196.56 303.041H191.826H195.434V301.375C195.434 301.23 195.406 301.086 195.35 300.953C195.294 300.819 195.213 300.698 195.11 300.595C195.008 300.493 194.886 300.412 194.752 300.357C194.618 300.302 194.475 300.274 194.33 300.275H189.318C189.025 300.276 188.745 300.394 188.539 300.601C188.333 300.809 188.217 301.089 188.218 301.382V303.048H187.09C186.651 303.048 186.217 303.134 185.812 303.303C185.407 303.471 185.039 303.717 184.73 304.028C184.42 304.339 184.175 304.707 184.008 305.113C183.841 305.519 183.756 305.953 183.758 306.392L183.817 332.408C183.817 333.291 184.168 334.139 184.793 334.764C185.418 335.388 186.266 335.74 187.149 335.74L196.619 335.718C197.058 335.718 197.492 335.632 197.897 335.463C198.302 335.295 198.67 335.049 198.98 334.738C199.289 334.427 199.534 334.059 199.701 333.653C199.868 333.247 199.953 332.813 199.951 332.374L199.892 306.358C199.888 305.477 199.535 304.633 198.911 304.012C198.286 303.39 197.441 303.041 196.56 303.041Z" fill="#BED1F4"/>
<path d="M219.259 303.145H218.133V301.479C218.133 301.335 218.105 301.191 218.049 301.057C217.994 300.924 217.912 300.802 217.81 300.7C217.707 300.598 217.585 300.517 217.451 300.462C217.317 300.407 217.174 300.379 217.029 300.38L212.017 300.392C211.872 300.392 211.729 300.421 211.595 300.476C211.462 300.532 211.34 300.614 211.238 300.716C211.136 300.819 211.055 300.94 211 301.074C210.945 301.208 210.917 301.351 210.917 301.496V303.162H214.525H209.789C209.35 303.162 208.916 303.249 208.511 303.417C208.105 303.585 207.738 303.832 207.428 304.143C207.118 304.454 206.873 304.823 206.707 305.229C206.54 305.635 206.455 306.069 206.457 306.508L206.517 332.524C206.517 333.408 206.868 334.255 207.492 334.88C208.117 335.505 208.965 335.856 209.849 335.856L219.321 335.835C219.76 335.835 220.194 335.748 220.599 335.58C221.005 335.411 221.373 335.165 221.682 334.854C221.992 334.543 222.237 334.174 222.403 333.768C222.57 333.362 222.655 332.927 222.653 332.488L222.593 306.473C222.592 305.589 222.24 304.743 221.615 304.119C220.99 303.495 220.142 303.145 219.259 303.145Z" fill="#BED1F4"/>
<path d="M151.714 306.02H152.673V303.7H125.825V306.02H126.879V319.727H107.082V322.047H108.139V335.751H132.974V322.047H133.931V319.727H144.765V322.047H145.819V335.751H170.654V322.047H171.613V319.727H151.714V306.02Z" fill="#BED1F4"/>
<path d="M240.559 310.897H237.089C236.883 310.897 236.68 310.937 236.491 311.016C236.301 311.095 236.129 311.21 235.984 311.355C235.839 311.5 235.724 311.673 235.646 311.862C235.567 312.052 235.527 312.255 235.527 312.461V334.216C235.527 334.623 235.689 335.014 235.977 335.302C236.265 335.59 236.655 335.751 237.062 335.751H240.582C240.99 335.751 241.38 335.59 241.669 335.302C241.957 335.014 242.119 334.624 242.12 334.216V312.461C242.12 312.046 241.955 311.649 241.663 311.356C241.37 311.063 240.973 310.898 240.559 310.897Z" fill="#BED1F4"/>
<path d="M255.072 310.897H251.602C251.397 310.897 251.194 310.937 251.004 311.016C250.815 311.095 250.642 311.21 250.497 311.355C250.352 311.5 250.237 311.673 250.159 311.862C250.081 312.052 250.041 312.255 250.041 312.461V334.216C250.041 334.623 250.203 335.014 250.491 335.302C250.779 335.59 251.169 335.751 251.576 335.751H255.096C255.504 335.751 255.894 335.59 256.182 335.302C256.471 335.014 256.633 334.624 256.634 334.216V312.461C256.634 312.046 256.469 311.649 256.177 311.356C255.884 311.063 255.487 310.898 255.072 310.897Z" fill="#BED1F4"/>
<path d="M167.155 366.353H171.892H168.283V364.687C168.285 364.396 168.402 364.116 168.609 363.91C168.816 363.705 169.096 363.59 169.388 363.59H174.4C174.545 363.591 174.688 363.619 174.822 363.675C174.955 363.731 175.076 363.812 175.179 363.915C175.281 364.017 175.362 364.139 175.417 364.273C175.472 364.406 175.5 364.55 175.5 364.695V366.361H176.625C177.509 366.361 178.357 366.712 178.981 367.336C179.606 367.961 179.957 368.809 179.957 369.693L179.9 395.708C179.9 396.147 179.814 396.582 179.645 396.987C179.477 397.392 179.23 397.76 178.919 398.069C178.608 398.379 178.239 398.624 177.833 398.791C177.428 398.957 176.993 399.042 176.554 399.04L167.084 399.019C166.645 399.019 166.211 398.932 165.806 398.764C165.401 398.596 165.033 398.349 164.724 398.039C164.414 397.728 164.169 397.359 164.002 396.954C163.835 396.548 163.75 396.114 163.752 395.675L163.811 369.659C163.818 368.778 164.174 367.935 164.801 367.316C165.428 366.696 166.274 366.35 167.155 366.353Z" fill="#BED1F4"/>
<path d="M144.466 366.458H145.594V364.792C145.594 364.647 145.623 364.504 145.679 364.371C145.734 364.237 145.816 364.116 145.918 364.014C146.021 363.912 146.143 363.831 146.276 363.776C146.41 363.721 146.554 363.692 146.698 363.693H151.711C151.855 363.693 151.999 363.721 152.133 363.777C152.266 363.832 152.388 363.914 152.49 364.016C152.592 364.119 152.673 364.241 152.728 364.375C152.783 364.509 152.811 364.652 152.81 364.797V366.463H149.202H153.936C154.374 366.463 154.809 366.55 155.214 366.718C155.619 366.886 155.987 367.132 156.296 367.443C156.606 367.754 156.851 368.122 157.018 368.528C157.184 368.934 157.269 369.368 157.268 369.807L157.211 395.823C157.211 396.261 157.124 396.696 156.956 397.101C156.787 397.506 156.541 397.874 156.23 398.184C155.919 398.493 155.55 398.739 155.144 398.905C154.738 399.072 154.303 399.157 153.865 399.155L144.395 399.133C143.956 399.133 143.521 399.047 143.116 398.878C142.711 398.71 142.343 398.463 142.033 398.152C141.724 397.841 141.479 397.472 141.312 397.066C141.145 396.661 141.061 396.226 141.063 395.787L141.122 369.771C141.127 368.889 141.482 368.044 142.109 367.423C142.736 366.802 143.583 366.455 144.466 366.458Z" fill="#BED1F4"/>
<path d="M212 369.333H211.044V367.013H237.892V369.333H236.836V383.037H256.632V385.358H255.578V399.064H230.743V385.358H229.784V383.037H218.952V385.358H217.896V399.064H193.06V385.358H192.104V383.037H212V369.333Z" fill="#BED1F4"/>
<path d="M123.157 374.21H126.627C127.042 374.21 127.439 374.375 127.732 374.669C128.024 374.962 128.189 375.359 128.189 375.773V397.527C128.189 397.934 128.027 398.325 127.738 398.614C127.45 398.902 127.059 399.064 126.651 399.064H123.131C122.723 399.064 122.332 398.902 122.044 398.614C121.756 398.325 121.594 397.934 121.594 397.527V375.773C121.594 375.359 121.758 374.961 122.052 374.668C122.345 374.375 122.743 374.21 123.157 374.21Z" fill="#BED1F4"/>
<path d="M108.646 374.21H112.116C112.53 374.21 112.927 374.375 113.22 374.669C113.513 374.962 113.677 375.359 113.677 375.773V397.527C113.677 397.934 113.515 398.325 113.227 398.614C112.938 398.902 112.547 399.064 112.14 399.064H108.62C108.212 399.064 107.821 398.902 107.532 398.614C107.244 398.325 107.082 397.934 107.082 397.527V375.773C107.082 375.359 107.247 374.961 107.54 374.668C107.833 374.375 108.231 374.21 108.646 374.21Z" fill="#BED1F4"/>
<path d="M255.324 230.324C255.324 230.324 256.686 226.874 258.045 225.622C259.404 224.37 264.233 221.733 267.127 222.585C270.021 223.437 269.066 226.174 267.127 228.297C265.187 230.42 259.325 234.054 259.325 234.054L255.324 230.324Z" fill="#FFB27D"/>
<path d="M187.918 216.951C186.909 215.007 209.911 208.005 210.275 227.185C210.275 227.185 253.353 226.126 232.79 202.107C225.669 193.794 226.402 186.918 226.602 180.518C226.802 174.118 222.166 155.528 206.217 157.392C206.217 157.392 202.041 155.693 196.828 158.396C184.986 164.556 158.429 224.027 187.918 216.951Z" fill="#163560"/>
<path d="M157.284 408.425C157.284 408.425 152.455 412.83 153.397 415.962C154.34 419.094 158.698 421.179 159.285 425.006C159.873 428.833 162.23 430.92 164.35 430.92H174.453C174.453 430.92 176.014 428.229 172.247 427.417C168.479 426.605 167.056 422.107 167.292 417.933C167.527 413.758 166.94 408.194 166.94 408.194L158.931 406.337L157.284 408.425Z" fill="#325284"/>
<path d="M198.153 410.295C198.153 410.295 196.421 429.19 198.541 430.232H225.911C225.911 430.232 225.673 426.82 221.313 426.125C216.953 425.43 209.301 422.876 208.006 417.195C206.712 411.514 198.153 410.295 198.153 410.295Z" fill="#325284"/>
<path d="M211.025 187.975C211.434 188.438 211.944 188.8 212.516 189.032C213.088 189.265 213.706 189.363 214.322 189.317C214.837 189.287 215.335 189.122 215.766 188.837C216.196 188.552 216.544 188.159 216.773 187.696C216.773 187.696 213.522 186.916 211.025 187.975Z" fill="#EBF3FA"/>
<path d="M221.308 254.053L205.514 258.768L200.516 257.542L195.756 256.374L186.284 254.053C186.284 254.053 184.442 253.437 182.812 249.671C182.5 248.957 181.945 246.787 181.362 244.221C180.72 241.365 180.051 238.033 179.675 235.67C179.123 232.198 178.009 227.873 177.057 223.213C176.285 219.729 175.733 216.199 175.405 212.646C175.221 210.325 175.948 208.023 177.432 206.229C178.916 204.434 181.04 203.288 183.354 203.033L188.64 202.447C202.708 201.115 218.193 204.589 218.193 204.589C218.193 204.589 222.715 211.368 225.609 222.677C228.503 233.987 221.308 254.053 221.308 254.053Z" fill="#8C9DF4"/>
<path d="M195.736 256.374L186.264 254.053C186.264 254.053 184.422 253.437 182.791 249.672C182.479 248.958 181.925 246.787 181.342 244.221C181.342 244.221 184.291 232.474 185.626 232.714C186.961 232.954 187.132 240.639 189.853 245.133C192.573 249.626 198.392 254.788 195.736 256.374Z" fill="#707FE5"/>
<path d="M220.305 257.1C220.305 257.1 228.125 281.445 228.635 289.732C229.144 298.019 213.683 407.48 213.062 411.3C212.477 414.901 208.007 417.195 208.007 417.195C208.007 417.195 205.951 418.409 203.009 417.581C198.937 416.429 197.649 415.053 197.649 415.053C197.649 415.053 191.564 336.989 195.329 309.1C199.094 281.211 199.137 257.1 199.137 257.1H220.305Z" fill="#FF1E63"/>
<path d="M187.17 256.374C187.17 256.374 175.239 272.382 174.125 283.203C173.011 294.025 172.38 332.034 170.012 342.584C167.644 353.135 158.936 373.434 158.936 406.337C158.936 406.337 159.84 408.222 162.634 409.227C163.701 409.586 164.787 409.887 165.888 410.126C167.006 410.38 168.178 410.25 169.214 409.757C170.25 409.265 171.09 408.438 171.6 407.411C177.485 395.561 196.233 357.338 197.194 349.403C197.875 343.789 203.796 306.627 216.71 284.822C219.804 279.586 214.806 258.768 214.806 258.768L187.17 256.374Z" fill="#FF3E79"/>
<path d="M221.555 253.341C221.555 253.341 218.415 255.824 212.177 255.959C204.726 256.109 186.264 254.055 186.264 254.055C185.756 255.575 185.491 257.166 185.479 258.768C185.479 258.768 208.027 264.454 221.09 259.599C221.102 259.594 222.768 256.424 221.555 253.341Z" fill="#233862"/>
<path d="M210.562 258.523C210.562 256.402 212.088 254.674 213.964 254.674C215.839 254.674 217.362 256.402 217.362 258.523C217.362 260.643 215.839 262.371 213.964 262.371C212.088 262.371 210.562 260.646 210.562 258.523ZM211.691 258.523C211.691 260.025 212.709 261.243 213.964 261.243C215.218 261.243 216.236 260.025 216.236 258.523C216.236 257.021 215.215 255.802 213.964 255.802C212.712 255.802 211.691 257.023 211.691 258.523Z" fill="white"/>
<path d="M259.374 238.359C259.374 238.359 251.07 252.401 242.238 252.342C241.568 252.339 240.901 252.259 240.25 252.104C235.014 250.888 228.864 245.44 224.828 241.341C222.21 238.671 220.468 236.581 220.468 236.581L208.223 202.071C208.223 202.071 219.397 202.988 225.209 208.131C231.021 213.274 242.752 237.814 243.823 236.584C244.104 236.263 255.102 228.035 256.011 228.316C256.004 228.29 260.426 231.491 259.374 238.359Z" fill="#8C9DF4"/>
<path d="M201.483 302.362L169.574 297.2C168.825 297.079 168.108 296.811 167.462 296.413C166.817 296.014 166.256 295.492 165.812 294.877C165.368 294.262 165.05 293.565 164.876 292.827C164.701 292.089 164.674 291.323 164.795 290.574L167.568 273.438C167.689 272.689 167.957 271.972 168.355 271.326C168.754 270.681 169.276 270.12 169.891 269.676C170.506 269.232 171.203 268.914 171.941 268.74C172.679 268.565 173.445 268.538 174.194 268.659L206.107 273.814C206.856 273.935 207.574 274.202 208.219 274.601C208.864 274.999 209.425 275.521 209.869 276.136C210.313 276.751 210.631 277.448 210.806 278.186C210.98 278.924 211.007 279.689 210.886 280.438L208.113 297.574C207.993 298.324 207.727 299.043 207.328 299.69C206.93 300.337 206.408 300.899 205.792 301.344C205.176 301.789 204.478 302.108 203.739 302.282C202.999 302.457 202.233 302.484 201.483 302.362Z" fill="#163560"/>
<path d="M187.812 285.678L187.774 285.662L166.984 276.792L167.118 276.482L187.866 285.336L210.35 283.477L210.377 283.813L187.812 285.678Z" fill="#8C9DF4"/>
<path d="M189.111 283.634L186.971 283.287L186.113 288.59L188.253 288.936L189.111 283.634Z" fill="#FFA561"/>
<path d="M174.477 270.963C174.355 270.963 174.233 270.953 174.113 270.934C173.671 270.862 173.261 270.66 172.934 270.354C172.607 270.048 172.378 269.652 172.276 269.216C172.174 268.78 172.204 268.324 172.361 267.905C172.519 267.486 172.797 267.123 173.161 266.862C173.523 266.597 173.957 266.445 174.407 266.427C174.856 266.409 175.301 266.525 175.684 266.761C176.067 266.996 176.371 267.341 176.557 267.75C176.744 268.16 176.804 268.615 176.73 269.059C176.643 269.593 176.368 270.078 175.955 270.427C175.542 270.776 175.018 270.966 174.477 270.963ZM174.477 267.107C174.071 267.111 173.683 267.271 173.393 267.554C173.102 267.837 172.933 268.221 172.92 268.626C172.906 269.032 173.05 269.426 173.321 269.728C173.592 270.03 173.969 270.215 174.373 270.245C174.778 270.275 175.178 270.147 175.491 269.889C175.803 269.63 176.003 269.261 176.05 268.858C176.096 268.456 175.985 268.05 175.74 267.728C175.495 267.405 175.134 267.189 174.734 267.126C174.647 267.114 174.559 267.108 174.472 267.107H174.477Z" fill="#163560"/>
<path d="M204.986 275.899C204.863 275.899 204.74 275.889 204.619 275.868C204.326 275.821 204.044 275.716 203.791 275.56C203.538 275.404 203.318 275.199 203.145 274.958C202.971 274.717 202.846 274.444 202.777 274.154C202.709 273.865 202.698 273.565 202.746 273.272C202.814 272.845 203.002 272.446 203.289 272.123C203.577 271.8 203.95 271.565 204.366 271.448C204.782 271.33 205.223 271.335 205.637 271.46C206.051 271.585 206.42 271.826 206.701 272.155C206.982 272.483 207.163 272.886 207.223 273.314C207.283 273.742 207.219 274.178 207.038 274.571C206.858 274.964 206.568 275.297 206.205 275.531C205.841 275.764 205.418 275.889 204.986 275.89V275.899ZM203.41 273.379C203.359 273.689 203.402 274.008 203.532 274.295C203.663 274.582 203.876 274.823 204.144 274.988C204.412 275.154 204.723 275.236 205.037 275.224C205.352 275.213 205.656 275.108 205.911 274.923C206.082 274.802 206.226 274.648 206.336 274.47C206.446 274.292 206.519 274.094 206.552 273.888C206.593 273.678 206.592 273.463 206.548 273.254C206.504 273.044 206.418 272.846 206.296 272.671C206.175 272.496 206.018 272.347 205.838 272.233C205.657 272.119 205.455 272.043 205.244 272.008C205.033 271.974 204.818 271.983 204.61 272.034C204.403 272.085 204.208 272.177 204.037 272.305C203.865 272.432 203.722 272.593 203.614 272.778C203.506 272.962 203.437 273.167 203.41 273.379Z" fill="#163560"/>
<path d="M197.892 205.644C196.649 204.877 195.343 203.25 196.133 201.041C197.085 198.38 197.837 194.451 197.82 189.526L198.534 189.667L210.558 192.047C210.558 192.047 210.284 195.831 210.277 199.396V199.484C210.263 202.578 210.844 205.563 209.442 206.515C208.133 207.403 203.937 209.38 197.892 205.644Z" fill="#FFB27D"/>
<path d="M210.559 192.049C210.559 192.049 210.285 195.834 210.278 199.399C203.55 199.208 199.994 193.07 198.535 189.667L210.559 192.049Z" fill="#E8945B"/>
<path d="M212.808 195.424C212.808 195.424 196.888 195.686 196.876 185.771C196.865 175.856 194.803 169.209 204.968 168.635C215.133 168.061 217.106 171.829 217.918 175.137C218.73 178.445 216.947 195.101 212.808 195.424Z" fill="#FFB27D"/>
<path d="M212.218 168.38C212.218 168.38 207.86 180.014 201.17 181.734C194.479 183.455 191.578 181.661 191.578 181.661C191.578 181.661 196.709 177.586 197.766 170.475C197.778 170.47 208.928 162.842 212.218 168.38Z" fill="#163560"/>
<path d="M211.137 169.323C211.137 169.323 214.369 170.532 215.699 172.893C217.303 175.647 218.049 178.816 217.841 181.996C217.841 181.996 221.126 174.087 217.434 169.62C213.531 164.87 211.137 169.323 211.137 169.323Z" fill="#163560"/>
<path d="M209.697 189.538C209.697 189.538 209.971 190.707 212.879 190.526C212.879 190.526 215.321 190.376 215.245 189.098C215.245 189.091 212.879 188.177 209.697 189.538Z" fill="white"/>
<path d="M196.441 276.658C196.441 276.658 200.74 276.725 204.057 275.792C207.375 274.859 211.464 277.306 211.731 279.555C212.016 281.968 206.911 280.255 202.944 282.887C201.111 284.105 197.584 281.49 197.584 281.49L196.441 276.658Z" fill="#FFB27D"/>
<path d="M200.686 276.423C200.686 276.423 203.903 273.914 204.432 274.281C205.291 274.861 203.166 276.423 203.166 276.423H200.686Z" fill="#FFB27D"/>
<path d="M204.159 271.915C204.078 271.422 196.079 222.823 187.763 202.657C187.692 202.478 187.694 202.278 187.768 202.1C187.842 201.922 187.983 201.78 188.161 201.705C188.347 201.625 188.548 201.583 188.751 201.581C188.954 201.58 189.155 201.619 189.343 201.697C189.531 201.774 189.701 201.889 189.844 202.033C189.986 202.178 190.099 202.349 190.174 202.538C193.597 211.106 197.314 225.012 201.241 243.95C204.335 258.839 206.394 271.437 206.415 271.558L204.159 271.915Z" fill="#0C2442"/>
<path d="M176.734 207.208C176.734 207.208 158.57 234.792 162.728 260.41C164.394 270.625 196.336 284.055 196.336 284.055C196.336 284.055 197.697 283.875 198.002 280.485C198.226 277.934 196.974 276.644 196.974 276.644C196.974 276.644 177.786 259.746 177.872 254.681C177.898 253.07 190.108 220.788 190.108 220.788L176.734 207.208Z" fill="#8C9DF4"/>
<path d="M272.458 241.201L264.026 240.156C263.239 240.058 262.524 239.652 262.036 239.028C261.548 238.404 261.327 237.611 261.422 236.824L264.295 213.66C264.392 212.873 264.798 212.157 265.422 211.669C266.047 211.181 266.84 210.961 267.627 211.056L276.059 212.101C276.845 212.199 277.561 212.605 278.049 213.229C278.537 213.854 278.757 214.646 278.663 215.433L275.79 238.595C275.694 239.382 275.288 240.099 274.664 240.588C274.039 241.077 273.245 241.297 272.458 241.201Z" fill="#6385DB"/>
<path d="M269.904 208.848L274.366 209.402C274.626 209.434 274.862 209.568 275.024 209.775C275.185 209.981 275.257 210.243 275.225 210.503L275.04 211.989L268.616 211.192L268.8 209.709C268.816 209.58 268.857 209.455 268.921 209.342C268.985 209.228 269.071 209.129 269.173 209.049C269.276 208.969 269.393 208.91 269.519 208.876C269.644 208.841 269.775 208.832 269.904 208.848Z" fill="#163560"/>
<path d="M274.937 218.624L267.324 217.681L265.616 231.47L273.229 232.413L274.937 218.624Z" fill="#DDE7FE"/>
<path d="M269.079 230.789C269.074 230.788 269.069 230.786 269.065 230.783C269.061 230.78 269.057 230.777 269.054 230.772C269.052 230.768 269.05 230.763 269.049 230.758C269.048 230.753 269.049 230.748 269.05 230.743C270.374 225.491 271.625 221.766 272.575 220.271L272.618 220.202C272.622 220.193 272.63 220.186 272.639 220.183C272.648 220.179 272.659 220.179 272.668 220.183C272.672 220.185 272.676 220.188 272.68 220.192C272.683 220.196 272.686 220.2 272.687 220.205C272.689 220.209 272.689 220.214 272.689 220.219C272.688 220.224 272.687 220.229 272.685 220.233C272.671 220.26 272.656 220.287 272.639 220.312C271.687 221.811 270.445 225.529 269.124 230.784C269.118 230.789 269.11 230.792 269.102 230.793C269.094 230.794 269.086 230.792 269.079 230.789Z" fill="#163560"/>
<path d="M273.266 219.957C273.056 220.175 272.798 220.338 272.511 220.433C272.489 220.135 272.537 219.836 272.652 219.56C272.708 219.484 272.791 219.433 272.884 219.417C272.977 219.401 273.073 219.421 273.151 219.473C273.23 219.525 273.285 219.605 273.307 219.697C273.328 219.789 273.313 219.885 273.266 219.967V219.957Z" fill="#163560"/>
<path d="M272.12 220.509C272.163 220.812 272.135 221.121 272.036 221.411C271.777 221.248 271.562 221.024 271.408 220.759C271.392 220.712 271.386 220.663 271.39 220.614C271.393 220.564 271.406 220.516 271.428 220.472C271.451 220.428 271.481 220.388 271.518 220.356C271.556 220.324 271.599 220.299 271.646 220.283C271.693 220.268 271.742 220.261 271.792 220.265C271.841 220.268 271.889 220.282 271.933 220.304C271.977 220.326 272.017 220.356 272.049 220.394C272.082 220.431 272.106 220.474 272.122 220.521L272.12 220.509Z" fill="#163560"/>
<path d="M272.896 221.666C272.591 221.642 272.297 221.545 272.037 221.383C272.254 221.165 272.52 221.001 272.813 220.907C272.862 220.901 272.912 220.906 272.96 220.919C273.007 220.933 273.052 220.956 273.09 220.987C273.129 221.018 273.161 221.056 273.185 221.1C273.209 221.143 273.224 221.191 273.23 221.24C273.235 221.289 273.231 221.339 273.217 221.387C273.203 221.434 273.18 221.479 273.149 221.517C273.118 221.556 273.08 221.588 273.037 221.612C272.993 221.636 272.946 221.651 272.896 221.657V221.666Z" fill="#163560"/>
<path d="M270.497 224.025C270.647 224.341 270.611 225.503 270.521 225.545C270.431 225.588 269.505 224.886 269.352 224.572C269.291 224.422 269.289 224.254 269.347 224.102C269.405 223.951 269.52 223.827 269.666 223.757C269.813 223.687 269.98 223.676 270.135 223.725C270.289 223.775 270.419 223.882 270.497 224.025Z" fill="#163560"/>
<path d="M272 225.817C271.657 225.891 270.534 225.596 270.512 225.498C270.491 225.4 271.383 224.655 271.726 224.579C271.89 224.543 272.062 224.573 272.203 224.664C272.345 224.754 272.445 224.897 272.481 225.061C272.518 225.225 272.487 225.397 272.397 225.539C272.307 225.681 272.164 225.781 272 225.817Z" fill="#163560"/>
<path d="M269.656 225.362C269.92 225.7 270.189 227.097 270.094 227.171C269.998 227.245 268.701 226.657 268.428 226.321C268.321 226.159 268.279 225.962 268.311 225.77C268.343 225.578 268.446 225.405 268.599 225.285C268.752 225.165 268.945 225.107 269.139 225.123C269.333 225.139 269.514 225.227 269.646 225.369L269.656 225.362Z" fill="#163560"/>
<path d="M271.796 227.697C271.37 227.747 270.04 227.245 270.026 227.123C270.011 227.002 271.192 226.207 271.618 226.171C271.719 226.16 271.821 226.168 271.919 226.196C272.016 226.224 272.108 226.27 272.187 226.333C272.267 226.397 272.333 226.475 272.383 226.564C272.432 226.652 272.464 226.75 272.476 226.851C272.487 226.952 272.479 227.054 272.451 227.152C272.423 227.25 272.377 227.341 272.314 227.421C272.25 227.5 272.172 227.567 272.083 227.616C271.995 227.666 271.897 227.697 271.796 227.709V227.697Z" fill="#163560"/>
<path d="M269.162 227.078C269.426 227.414 269.695 228.811 269.599 228.887C269.504 228.963 268.209 228.373 267.933 228.037C267.827 227.874 267.785 227.678 267.817 227.486C267.849 227.294 267.952 227.121 268.105 227.001C268.258 226.881 268.451 226.823 268.645 226.839C268.839 226.855 269.02 226.942 269.152 227.085L269.162 227.078Z" fill="#163560"/>
<path d="M271.302 229.413C270.876 229.463 269.546 228.958 269.531 228.837C269.517 228.716 270.698 227.923 271.124 227.885C271.225 227.873 271.327 227.882 271.425 227.909C271.522 227.937 271.614 227.984 271.693 228.047C271.773 228.11 271.839 228.188 271.889 228.277C271.938 228.366 271.97 228.464 271.982 228.565C271.993 228.665 271.985 228.768 271.957 228.865C271.929 228.963 271.883 229.055 271.82 229.134C271.756 229.214 271.678 229.28 271.589 229.33C271.501 229.379 271.403 229.411 271.302 229.422V229.413Z" fill="#163560"/>
<path d="M268.025 229.258C268.396 229.468 269.179 230.658 269.117 230.765C269.055 230.872 267.637 230.817 267.263 230.608C267.169 230.561 267.085 230.495 267.017 230.415C266.948 230.335 266.897 230.241 266.866 230.141C266.835 230.04 266.825 229.934 266.837 229.829C266.848 229.724 266.88 229.623 266.932 229.531C266.984 229.44 267.054 229.359 267.138 229.295C267.222 229.232 267.318 229.185 267.42 229.16C267.522 229.134 267.628 229.13 267.732 229.147C267.836 229.164 267.936 229.202 268.025 229.258Z" fill="#163560"/>
<path d="M270.884 231.098C270.467 231.2 269.084 230.86 269.053 230.748C269.022 230.636 270.098 229.696 270.515 229.594C270.613 229.57 270.716 229.565 270.817 229.58C270.917 229.596 271.014 229.631 271.101 229.684C271.187 229.736 271.263 229.806 271.323 229.888C271.384 229.97 271.427 230.063 271.451 230.161C271.475 230.26 271.48 230.363 271.465 230.463C271.449 230.564 271.414 230.66 271.361 230.747C271.309 230.834 271.239 230.91 271.157 230.97C271.075 231.03 270.982 231.074 270.884 231.098Z" fill="#163560"/>
<path d="M271.62 221.604C271.664 221.912 271.635 222.226 271.534 222.521C271.272 222.354 271.053 222.128 270.897 221.859C270.871 221.81 270.856 221.757 270.852 221.702C270.849 221.647 270.857 221.592 270.877 221.54C270.897 221.489 270.928 221.442 270.967 221.404C271.007 221.366 271.054 221.336 271.106 221.318C271.158 221.299 271.213 221.292 271.268 221.297C271.323 221.302 271.376 221.318 271.424 221.345C271.472 221.373 271.513 221.41 271.546 221.454C271.578 221.499 271.6 221.55 271.611 221.604H271.62Z" fill="#163560"/>
<path d="M272.381 222.794C272.071 222.77 271.771 222.67 271.508 222.504C271.729 222.284 271.999 222.121 272.296 222.028C272.397 222.017 272.498 222.046 272.577 222.109C272.657 222.173 272.708 222.265 272.719 222.366C272.731 222.467 272.701 222.568 272.638 222.648C272.575 222.727 272.482 222.778 272.381 222.789V222.794Z" fill="#163560"/>
<path d="M271.036 222.625C271.16 222.901 271.103 223.898 271.036 223.934C270.97 223.97 270.177 223.344 270.053 223.07C269.997 222.939 269.995 222.791 270.047 222.658C270.1 222.525 270.202 222.418 270.332 222.359C270.463 222.301 270.611 222.296 270.745 222.346C270.878 222.396 270.987 222.496 271.048 222.625H271.036Z" fill="#163560"/>
<path d="M272.256 224.31C271.959 224.344 271.023 223.987 271.014 223.901C271.004 223.815 271.837 223.261 272.137 223.23C272.28 223.214 272.424 223.256 272.537 223.346C272.649 223.436 272.721 223.567 272.737 223.71C272.753 223.854 272.711 223.997 272.621 224.11C272.531 224.222 272.399 224.294 272.256 224.31Z" fill="#163560"/>
<path d="M240.243 252.092C235.007 250.876 228.857 245.428 224.82 241.33C224.82 241.33 226.608 230.382 226.296 227.871C225.996 225.403 232.213 247.965 240.243 252.092Z" fill="#707FE5"/>
<path d="M258.043 225.624C258.043 225.624 262.977 221.842 263.676 220.885C264.376 219.929 264.314 221.925 263.676 223.265C263.039 224.605 261.827 226.179 261.701 228.639C261.575 231.1 258.831 230.336 258.831 230.336L258.043 225.624Z" fill="#FFB27D"/>
<path d="M348.433 182.01H345.027V192.256H348.433V182.01Z" fill="#F9DDBF"/>
</svg>
