<svg width="717" height="452" viewBox="0 0 717 452" fill="none" xmlns="http://www.w3.org/2000/svg">
<path opacity="0.2" d="M691.562 452H50.0936C50.0936 452 -36.9429 368.602 18.4356 270.482C73.8141 172.362 148.158 221.716 144.557 107.501C140.956 -6.71434 315.57 -16.5163 371.151 16.5911C426.732 49.6986 426.396 89.5903 541.134 76.3908C655.872 63.1912 677.792 173.197 647.946 229.258C645.736 233.334 643.94 237.612 642.583 242.031C623.008 307.863 775.546 316.634 691.562 452Z" fill="#FF3E79"/>
<path d="M270.772 409.7C275.138 406.884 279.291 403.752 283.198 400.328C289.585 394.18 294.495 386.665 297.56 378.347C300.508 371.035 302.264 363.298 302.76 355.429C302.878 354.853 303.093 354.301 303.395 353.797C304 354.749 304.823 355.544 305.795 356.117C306.767 356.69 307.862 357.024 308.988 357.092C319.048 358.624 328.653 362.328 337.137 367.946C342.309 371.156 347.259 374.712 351.951 378.589C353.609 380.707 354.879 383.103 355.701 385.664C361.557 397.166 371.292 406.226 383.184 411.242C387.564 413.177 392.232 414.382 397.001 414.81C400.811 415.475 401.113 415.929 399.51 419.315C395.278 428.083 391.77 437.153 387.719 446.012C387.197 447.349 386.404 448.563 385.391 449.58H262.064C261.595 448.951 261.291 448.215 261.18 447.438C261.069 446.662 261.155 445.87 261.429 445.135C263.455 434.614 265.239 423.971 266.509 413.389C266.841 410.486 268.534 409.972 270.772 409.7Z" fill="#F6B992"/>
<path d="M270.772 409.7C268.656 410.456 268.051 411.786 267.749 414.175C267.053 419.466 266.328 424.787 265.39 430.048C264.241 436.549 263.062 443.049 262.095 449.58H226.539C225.088 448.068 225.723 446.405 226.327 444.863C229.351 437.395 231.195 429.534 234.309 422.127C234.974 420.524 235.519 419.103 233.765 417.622C241.172 414.598 240.628 407.07 242.835 401.416C245.284 395.037 247.25 388.355 249.517 381.854C251.482 376.14 252.208 371.272 247.31 366.737C247.008 366.465 246.977 365.86 246.826 365.407C239.358 350.289 233.16 334.84 225.662 319.813C223.963 316.824 222.931 313.503 222.639 310.078C223.151 309.416 223.52 308.655 223.723 307.843C223.926 307.031 223.958 306.186 223.818 305.361C223.771 301.096 224.487 296.856 225.934 292.844C224.846 293.781 226.539 295.867 224.181 295.716C223.702 295.171 223.37 294.513 223.217 293.804C223.063 293.095 223.093 292.359 223.304 291.665C224.937 286.692 225.27 281.383 224.271 276.245C224.12 275.731 224.483 275.368 225.088 275.398C227.04 279.117 229.836 282.327 233.251 284.771C234.581 285.557 234.37 289.246 234.46 291.604C234.778 297.042 234.778 302.493 234.46 307.931C234.346 309.907 234.73 311.881 235.575 313.671C236.42 315.462 237.7 317.012 239.298 318.18C244.861 323.29 250.485 328.369 256.018 333.509C260.855 338.014 265.572 342.58 270.439 347.145C273.054 349.398 274.972 352.349 275.968 355.653C276.964 358.958 276.997 362.477 276.063 365.8C275.37 368.246 275.064 370.787 275.156 373.328C275.258 373.413 275.339 373.52 275.396 373.64C275.452 373.76 275.481 373.891 275.481 374.024C275.481 374.156 275.452 374.287 275.396 374.407C275.339 374.527 275.258 374.634 275.156 374.719C272.919 378.105 273.221 382.187 272.677 385.845C271.619 393.071 270.198 400.237 269.018 407.433C268.625 409.307 269.321 409.67 270.772 409.7Z" fill="#FFC59F"/>
<path d="M385.391 449.58C386.267 444.44 389.291 440.146 391.135 435.369C393.312 429.685 395.822 424.122 398.543 418.71C399.752 416.322 399.117 415.475 397.001 414.81C397.772 414.924 398.559 414.767 399.227 414.364C399.894 413.961 400.401 413.338 400.659 412.603C402.594 408.642 404.317 404.56 406.101 400.509C408.515 396.136 411.573 392.151 415.172 388.687C416.018 389.745 417.016 389.383 418.195 389.231C423.063 388.536 427.961 387.81 432.889 387.417C448.006 386.329 463.124 385.271 478.241 384.666C478.725 384.666 478.029 383.91 478.241 384.333C478.453 384.757 478.241 384.636 478.06 384.636C468.596 385.422 459.072 385.603 449.579 385.694C447.644 385.694 445.376 386.148 444.227 383.759C445.588 381.854 447.644 382.217 449.488 382.187C458.135 382.187 466.812 381.733 475.429 382.187C478.031 382.626 480.704 382.167 483.012 380.887C485.319 379.608 487.123 377.582 488.128 375.142C491.453 371.363 494.175 366.918 498.528 364.288C500.161 363.32 499.224 360.539 501.552 360.297C501.626 362.275 501.993 364.231 502.64 366.102C503.91 369.126 500.766 371.423 499.466 374.024C496.883 379.277 493.912 384.33 490.577 389.141C489.689 390.435 488.48 391.477 487.069 392.164C478.241 397.002 469.987 403.018 459.858 405.044C458.608 405.386 457.335 405.639 456.049 405.8C458.709 405.8 461.491 404.288 463.97 406.526C458.803 407.451 453.557 407.866 448.309 407.765C442.127 408.399 436.039 409.748 430.168 411.786C426.57 412.905 425.482 418.045 427.689 421.764C425.058 429.353 425.33 437.486 423.184 445.135C422.948 446.694 422.254 448.146 421.188 449.307L385.391 449.58Z" fill="#FFC59F"/>
<path d="M233.885 417.622C234.944 417.803 236.002 416.443 236.909 417.41C237.816 418.378 236.637 419.164 236.365 420.01C233.341 428.355 230.469 436.67 227.536 445.014C226.892 446.448 226.582 448.009 226.629 449.58H207.037C208.942 432.588 219.07 420.887 233.885 417.622Z" fill="#F6B992"/>
<path d="M420.916 449.58C422.408 441.074 423.869 432.578 425.3 424.092C425.33 423.546 425.565 423.032 425.957 422.651C426.349 422.27 426.87 422.05 427.417 422.036C435.928 427.707 441.935 436.431 444.197 446.405C444.347 447.458 444.347 448.527 444.197 449.58H420.916Z" fill="#F6B992"/>
<path d="M274.372 300.856C271.744 295.943 269.372 290.897 267.267 285.739C267.158 285.265 266.872 284.85 266.467 284.58C266.062 284.31 265.569 284.206 265.09 284.287C264.504 284.351 263.912 284.253 263.378 284.002C262.845 283.751 262.391 283.358 262.066 282.866C262.444 282.693 262.782 282.444 263.059 282.135C263.336 281.825 263.546 281.462 263.677 281.068C263.807 280.674 263.855 280.257 263.817 279.843C263.78 279.429 263.657 279.028 263.457 278.664C262.278 275.247 261.704 271.68 260.615 268.263C259.595 265.303 259.244 262.154 259.587 259.042C259.659 257.597 259.422 256.154 258.892 254.809C257.771 248.995 257.957 243.005 259.436 237.273C261.734 233.342 263.034 228.898 265.483 225.179C272.633 215.255 282.085 207.214 293.027 201.747C301.099 197.691 309.543 194.42 318.242 191.981C323.836 190.198 329.52 188.565 335.113 186.69C337.455 186.065 339.559 184.76 341.16 182.941C345.09 179.071 345.907 179.041 349.444 183.183C353.167 187.149 357.432 190.569 362.113 193.342C365.62 195.64 369.187 197.907 372.634 200.356C379.774 205.164 385.583 211.698 389.521 219.352C393.459 227.006 395.398 235.532 395.159 244.136C395.159 249.215 395.159 254.295 395.159 259.253C395.159 265.875 392.831 272.073 391.259 278.392C390.805 280.236 390.775 281.657 392.468 282.776C392.105 283.411 391.561 284.197 390.866 284.076C387.026 283.441 386.361 286.404 385.393 288.853C380.715 299.993 374.33 310.337 366.466 319.511C361.047 325.773 354.964 331.43 348.326 336.382C347.499 336.959 346.838 337.743 346.408 338.655C345.978 339.568 345.795 340.577 345.877 341.582C346.058 345.694 345.877 349.775 346.028 353.887C343.911 353.706 344.214 351.982 344.063 350.682C343.851 348.506 344.063 346.329 344.063 344.152C344.063 341.975 343.186 341.582 341.372 342.58C340.737 342.942 340.011 343.094 339.406 343.456C329.338 349.503 319.935 346.843 310.774 341.31C308.476 339.949 306.269 338.498 303.941 337.228C303.085 334.735 301.413 332.605 299.194 331.181C292.204 325.155 286.052 318.22 280.903 310.561L277.184 305.3C275.098 304.635 274.523 302.882 274.372 300.856Z" fill="#E9B07B" fill-opacity="0.78"/>
<path d="M394.134 243.471C394.213 234.857 392.101 226.365 387.997 218.792C383.893 211.218 377.932 204.812 370.672 200.175C363.702 196.099 357.079 191.458 350.869 186.297C350.09 185.711 349.406 185.007 348.843 184.211C346.908 180.432 344.61 180.281 341.859 183.365C339.501 185.038 336.809 186.183 333.968 186.721C325.049 188.414 316.16 190.258 307.422 192.767C295.933 195.942 284.958 200.326 276.038 208.641C269.996 214.513 265.49 221.781 262.917 229.805C262.04 232.284 261.314 234.793 260.619 237.303C259.36 243.267 259.125 249.401 259.923 255.444C260.437 256.048 260.226 256.804 260.256 257.5C260.286 258.195 260.256 258.86 259.742 259.102C259.387 259.208 259.006 259.188 258.664 259.044C258.322 258.901 258.041 258.644 257.867 258.316C253.937 251.664 248.797 245.587 248.404 237.152C242.508 220.95 241.21 203.433 244.655 186.539C247.854 169.861 256.564 154.741 269.387 143.606C270.505 142.941 270.959 143.425 270.838 144.543C270.667 145.501 270.164 146.368 269.417 146.992C262.156 154.839 256.597 164.104 253.09 174.203C252.114 176.914 251.435 179.722 251.065 182.578C250.067 188.625 248.041 194.461 248.676 200.719C247.689 207.171 247.244 213.694 247.346 220.22C247.424 222.896 247.809 225.554 248.495 228.142C249.81 223.39 251.364 218.708 253.151 214.113C262.765 191.377 280.362 177.832 303.28 170.424C305.366 169.784 307.537 169.458 309.72 169.457C312.743 170.364 311.443 171.815 309.992 172.873C306.683 175.115 303.228 177.135 299.651 178.92C292.415 182.812 285.473 187.228 278.88 192.133C268.238 200.266 259.591 209.82 257.716 223.153C263.582 206.131 277.248 195.791 292.849 187.325C304.217 181.278 316.371 176.592 327.558 170.061C330.333 168.866 333.337 168.299 336.356 168.398C341.611 168.426 346.787 169.679 351.474 172.057C360.922 180.23 371.328 187.226 382.464 192.888C382.913 193.161 383.32 193.497 383.673 193.886C385.246 196.153 387.129 198.189 389.267 199.933C394.687 206.768 398.676 214.624 400.998 223.032C401.269 224.719 401.832 226.346 402.661 227.84C404.405 219.859 404.302 211.586 402.358 203.652C398.139 186.373 387.274 171.457 372.124 162.14C365.55 157.915 358.429 154.609 350.96 152.314C349.297 151.974 347.754 151.203 346.485 150.076C344.489 147.053 345.608 143.032 343.461 139.978C343.333 140.038 343.221 140.127 343.132 140.236C343.043 140.346 342.98 140.475 342.947 140.613C342.071 146.66 338.624 149.532 332.396 148.776C322.73 148.512 313.064 149.252 303.552 150.983C300.71 149.29 302.826 147.96 304.005 146.841C307.911 143.411 312.144 140.373 316.643 137.771C319.032 136.35 321.481 135.05 323.748 133.901C310.352 137.23 298.106 144.126 288.314 153.856C287.582 154.666 286.934 155.547 286.379 156.486C285.048 157.756 283.688 158.935 281.632 158.209C279.969 156.123 281.178 154.309 282.236 152.586C285.482 147.363 289.207 142.454 293.363 137.922C294.179 137.045 295.63 136.501 295.328 134.899C298.17 132.48 301.375 130.545 304.156 128.126C304.995 127.497 306.022 127.17 307.07 127.198C308.118 127.225 309.126 127.606 309.931 128.277C311.882 129.731 314.279 130.457 316.708 130.33C319.138 130.203 321.446 129.231 323.234 127.582C326.409 125.103 328.163 125.193 331.398 127.582C333.16 129.178 335.412 130.128 337.786 130.276C340.159 130.424 342.512 129.762 344.459 128.398C345.498 127.656 346.764 127.298 348.038 127.386C349.312 127.474 350.516 128.003 351.443 128.882C352.903 130.15 354.46 131.303 356.099 132.329C358.034 133.387 360.242 134.536 362.146 133.326C367.105 130.303 371.217 132.419 375.661 134.717C396.342 147.144 406.289 166.01 408.496 189.563C409.604 205.001 408.112 220.515 404.082 235.459C404.777 241.022 401.693 245.587 400.121 250.576C399.398 252.612 398.466 254.568 397.339 256.411C396.856 257.227 396.221 258.225 395.162 258.014C394.104 257.802 394.437 256.441 394.376 255.595C394.535 251.552 394.454 247.504 394.134 243.471Z" fill="#DA682B"/>
<path d="M444.139 383.487C445.379 384.545 446.891 384.122 448.312 384.122C458.894 384.122 469.476 384.122 480.088 384.485C464.034 386.329 447.979 388.022 431.713 388.506C430.529 386.832 429.712 384.928 429.316 382.916C428.92 380.905 428.954 378.833 429.415 376.835C429.335 371.544 428.768 366.271 427.722 361.083C427.722 359.541 427.329 358.06 427.299 356.427C427.117 349.322 428.266 347.599 434.646 344.968C435.337 344.374 436.15 343.939 437.028 343.693C437.905 343.448 438.826 343.398 439.725 343.547C450.096 343.698 460.496 343.184 470.867 343.88C476.914 344.273 482.961 343.366 489.007 343.547C489.908 343.424 490.825 343.489 491.7 343.739C492.574 343.989 493.387 344.418 494.087 344.998C500.134 347.145 503.55 351.045 501.283 360.297C501.149 361.691 500.655 363.025 499.849 364.17C499.043 365.315 497.954 366.231 496.687 366.828C493.512 368.642 492.333 372.693 489.098 374.689C487.526 373.51 487.707 371.665 487.647 370.063C487.647 366.797 487.647 363.532 487.647 360.297C487.647 356.094 486.075 354.492 481.993 354.462C470.262 354.462 458.561 354.311 446.86 354.462C442.87 354.462 441.358 356.064 441.267 359.995C441.267 365.407 441.267 370.849 441.267 376.291C441.055 379.405 443.444 381.098 444.139 383.487Z" fill="#F4A7A4"/>
<path d="M304.092 337.167C304.624 336.79 305.279 336.625 305.927 336.703C306.575 336.781 307.171 337.098 307.599 337.591C311.582 340.524 315.985 342.838 320.66 344.454C323.293 345.519 326.14 345.951 328.97 345.714C331.801 345.478 334.536 344.58 336.956 343.093C339.188 342.299 341.335 341.287 343.366 340.07C344.817 338.891 345.392 340.614 345.422 341.854C345.422 344.635 345.422 347.417 345.422 350.168C345.422 351.468 345.029 352.859 346.178 353.948C347.327 355.036 346.601 356.366 346.964 357.546C348.092 359.239 348.866 361.144 349.24 363.144C349.614 365.144 349.58 367.199 349.141 369.186C349.635 372.464 350.55 375.665 351.862 378.71C349.715 379.677 348.839 377.531 347.72 376.684C338.347 369.911 328.763 363.441 317.485 360.236C314.112 358.987 310.559 358.292 306.964 358.18C303.94 358.332 302.701 356.911 303.275 353.917C303.578 348.264 304.424 342.731 304.092 337.167Z" fill="#FFC49E"/>
<path d="M225.055 275.489C226.829 280.45 226.689 285.894 224.662 290.758C224.337 292.399 224.225 294.076 224.329 295.746C224.325 300.638 223.849 305.519 222.908 310.319C227.564 320.448 232.251 330.546 236.846 340.554C240.202 347.931 243.407 355.369 246.673 362.806C247.035 363.623 247.821 364.469 246.673 365.376C244.751 364.187 243.192 362.493 242.168 360.478C238.565 355.512 234.326 351.039 229.56 347.175C222.614 341.201 217.745 333.176 215.652 324.257C214.677 319.959 213.206 315.789 211.268 311.831C209.545 308.808 210.754 304.938 210.391 301.491C211.903 301.491 211.963 300.463 212.235 299.435C214.291 292.3 216.166 285.134 218.766 278.271C219.099 277.364 219.25 276.275 219.945 275.701C221.742 273.68 223.202 271.383 224.269 268.898C225.841 270.954 224.813 273.312 225.055 275.489Z" fill="#FFC49E"/>
<path d="M355.643 83.9231C360.967 85.7013 365.495 89.298 368.432 94.0819C372.237 100.115 374.93 106.781 376.384 113.765C376.944 116.616 376.937 119.55 376.361 122.399C375.785 125.247 374.652 127.954 373.027 130.363C368.29 129.536 363.414 130.07 358.968 131.905C358.673 131.985 358.363 131.994 358.063 131.931C357.763 131.868 357.483 131.735 357.245 131.542C353.997 129.758 351.082 127.426 348.628 124.649C348.477 123.047 349.505 121.958 350.2 120.719C354.282 113.734 358.031 106.599 358.213 98.2543C358.712 94.0336 357.552 89.784 354.977 86.4023C353.496 84.679 353.738 84.4673 355.643 83.9231Z" fill="#DA672B"/>
<path d="M463.671 406.798H452.998V406.253C455.163 405.332 457.397 404.584 459.68 404.016C466.551 402.517 473.05 399.648 478.788 395.581C480.367 394.752 481.992 394.015 483.656 393.373C490.368 390.35 492.333 383.366 496.264 378.075C497.139 376.678 498.152 375.371 499.287 374.175C499.287 375.444 499.076 376.714 498.955 378.407C501.234 376.355 503.048 373.84 504.276 371.03C505.757 368.732 506.967 366.223 508.509 363.955C508.939 363.162 509.559 362.487 510.313 361.991C511.068 361.495 511.933 361.194 512.832 361.113C515.856 361.113 517.035 362.625 515.432 365.104C512.046 370.305 509.96 376.231 506.362 381.401C505.274 382.973 503.339 384.726 504.971 387.145C504.427 389.259 503.454 391.239 502.112 392.961C500.77 394.682 499.088 396.109 497.171 397.153C494.922 398.227 492.598 399.137 490.217 399.874C492.696 400.176 495.75 398.846 498.41 400.993C494.933 402.474 491.335 401.567 487.798 401.628C485.043 401.412 482.284 401.989 479.846 403.29C474.948 406.556 469.325 406.556 463.671 406.798Z" fill="#FFC49E"/>
<path d="M439.088 331.302C441.96 324.65 448.158 322.927 454.205 321.264C459.885 320.201 465.686 319.937 471.439 320.478C475.793 320.478 479.3 319.359 480.872 314.885C481.507 313.01 482.323 313.252 483.321 314.461C487.649 319.033 490.182 325.013 490.456 331.302C489.866 331.9 489.14 332.347 488.34 332.605C487.54 332.863 486.689 332.924 485.861 332.784C471.771 332.784 457.712 332.784 443.532 332.784C442.728 332.894 441.908 332.818 441.137 332.562C440.367 332.305 439.665 331.874 439.088 331.302Z" fill="#FDFEFE"/>
<path d="M279.54 108.655C280.35 101.12 283.888 94.1404 289.487 89.0328C290.566 87.0905 292.171 85.4924 294.118 84.4225C296.065 83.3527 298.275 82.8547 300.493 82.9859C310.271 80.8372 320.35 80.4177 330.274 81.7463L330.606 82.1998C333.146 88.2467 332.057 94.2936 331.211 100.341C330.364 106.387 328.701 111.89 327.492 117.665C327.346 118.38 327.102 119.072 326.766 119.721C326.162 120.87 325.587 122.563 324.045 122.14C322.503 121.716 322.896 119.902 323.108 118.663C324.254 111.669 324.76 104.585 324.62 97.4985C324.551 93.8748 324.054 90.272 323.138 86.7652C322.594 84.8 321.475 83.5603 319.177 84.1046C312.405 85.6768 305.572 86.735 299.374 90.5143C286.706 98.2241 283.168 110.802 290.606 123.772C291.543 125.435 292.843 127.038 291.906 129.154C291.334 129.595 290.633 129.835 289.91 129.835C289.188 129.835 288.487 129.595 287.915 129.154C285.774 127.043 283.85 124.724 282.17 122.23C279.536 118.23 278.59 113.35 279.54 108.655Z" fill="#EC7B37"/>
<path d="M394.13 243.471C395.612 248.006 394.13 252.723 395.037 258.014C399.542 250.667 401.417 242.896 404.107 235.519C405.197 236.489 406.072 237.675 406.676 239.003C407.28 240.331 407.6 241.77 407.615 243.229C408.329 249.995 407.622 256.835 405.539 263.312C403.456 269.788 400.044 275.759 395.521 280.841C395.194 281.364 394.752 281.805 394.228 282.13C393.703 282.455 393.111 282.656 392.497 282.715C391.56 282.897 390.623 283.169 389.686 283.259C388.748 283.35 388.144 282.776 388.597 281.687C393.057 270.352 394.896 258.156 393.979 246.01C394.13 245.164 394.13 244.408 394.13 243.471Z" fill="#F7BA92"/>
<path d="M288.309 128.247L291.846 129.124C293.416 129.528 295.068 129.488 296.616 129.008C298.165 128.527 299.549 127.625 300.614 126.403C302.131 124.691 304.238 123.615 306.515 123.39C308.791 123.166 311.068 123.81 312.889 125.193C314.046 126.049 315.47 126.464 316.905 126.365C318.34 126.265 319.693 125.657 320.72 124.649C322.47 123.112 324.706 122.241 327.035 122.191C329.364 122.142 331.635 122.916 333.449 124.377C334.631 125.595 336.244 126.299 337.941 126.339C339.637 126.379 341.282 125.75 342.519 124.589C343.452 123.883 344.585 123.491 345.754 123.47C346.34 123.367 346.943 123.423 347.501 123.63C348.059 123.837 348.552 124.189 348.929 124.649C351.446 125.784 353.74 127.361 355.701 129.305C356.036 129.774 356.468 130.165 356.967 130.453C357.466 130.74 358.02 130.917 358.594 130.972C359.167 131.026 359.746 130.957 360.29 130.769C360.834 130.58 361.331 130.277 361.748 129.88C365.528 126.856 369.216 128.912 372.905 130.303L375.626 134.717C373.721 135.08 371.968 135.473 370.365 133.629C369.71 132.987 368.847 132.6 367.932 132.539C367.017 132.478 366.111 132.747 365.376 133.296C360.297 135.987 357.062 135.473 352.618 131.573C348.173 127.673 348.354 127.884 343.124 130.454C341.264 131.513 339.112 131.944 336.988 131.682C334.863 131.421 332.88 130.481 331.332 129.003C330.846 128.397 330.233 127.905 329.536 127.56C328.84 127.215 328.077 127.026 327.3 127.006C326.523 126.985 325.751 127.135 325.038 127.443C324.324 127.751 323.687 128.211 323.169 128.791C318.513 132.661 314.885 132.722 309.624 129.396C309.182 128.98 308.654 128.666 308.079 128.473C307.503 128.281 306.893 128.215 306.289 128.282C305.686 128.348 305.104 128.544 304.584 128.856C304.063 129.168 303.617 129.59 303.275 130.091C301.08 132.502 298.299 134.304 295.202 135.322C294.827 135.732 294.347 136.03 293.814 136.185C293.28 136.339 292.715 136.344 292.179 136.199C291.64 136.04 291.122 135.816 290.637 135.534C289.75 134.616 288.546 134.07 287.271 134.009C285.996 133.947 284.745 134.373 283.773 135.201C282.473 136.108 280.992 136.864 279.541 135.201C279.299 133.266 280.75 131.905 281.173 130.182C283.048 128.096 285.104 126.493 288.309 128.247Z" fill="#C6DD79"/>
<path d="M248.401 237.001C251.195 244.509 254.826 251.68 259.225 258.376C260.313 257.288 259.587 256.139 259.92 255.172C260.132 255.595 260.555 256.018 260.525 256.411C260.101 265.33 263.216 273.524 265.846 281.808C266.36 283.411 265.513 283.441 264.425 283.32C263.609 283.182 262.802 283 262.006 282.776C259.562 281.725 257.532 279.897 256.231 277.575C249.798 268.472 246.315 257.612 246.254 246.464C246.471 243.217 247.195 240.024 248.401 237.001Z" fill="#F7BA92"/>
<path d="M498.498 400.962H487.1L486.646 399.995C490.441 399.243 494.038 397.71 497.208 395.492C500.378 393.275 503.052 390.422 505.059 387.115L517.939 366.676C518.326 365.993 518.86 365.405 519.504 364.955C520.147 364.505 520.883 364.205 521.658 364.076C523.019 363.925 524.682 363.472 525.679 364.893C526.677 366.314 525.226 367.281 524.651 368.37C523.563 370.365 522.444 372.361 521.205 374.265C519.965 376.17 518.544 377.742 522.142 378.649C523.533 379.012 523.472 380.342 522.505 381.219C515.897 388.188 508.627 394.496 500.796 400.055C500.056 400.42 499.288 400.723 498.498 400.962Z" fill="#FFC49E"/>
<path d="M279.514 135.382C280.104 135.492 280.71 135.47 281.29 135.318C281.87 135.167 282.41 134.889 282.87 134.505C285.682 131.482 288.373 132.419 291.034 134.747C283.991 138.161 277.794 143.097 272.893 149.199C266.261 157.491 261.367 167.033 258.501 177.257C258.221 178.177 258.149 179.148 258.29 180.099C257.806 183.123 255.417 185.36 254.178 188.081C252.47 191.273 251.053 194.612 249.945 198.058C249.643 199.238 249.431 200.81 247.587 200.78C247.259 191.77 248.697 182.782 251.819 174.324C253.764 167.249 257.06 160.616 261.525 154.793C264.155 151.618 266.483 148.081 269.446 145.118C269.9 144.664 271.2 143.908 269.446 143.455C272.258 140.099 276.219 138.285 279.514 135.382Z" fill="#EB7937"/>
<path d="M439.09 331.302H490.489C493.754 331.09 494.661 332.814 494.147 335.686C493.876 336.016 493.535 336.28 493.147 336.458C492.759 336.636 492.336 336.724 491.91 336.714C484.23 337.057 476.571 337.581 468.931 338.286C461.161 339.012 453.391 339.284 445.621 340.161C442.053 340.554 438.213 341.491 434.736 339.284V337.863C435.552 335.777 437.608 336.109 439.09 336.139C443.807 336.139 448.402 334.93 452.121 335.232C447.737 335.232 442.416 336.049 437.004 336.351C436.594 336.452 436.164 336.44 435.76 336.318C435.356 336.195 434.992 335.967 434.706 335.656C433.799 331.786 436.066 331.181 439.09 331.302Z" fill="#EE7D7F"/>
<path d="M494.175 345.119H434.764V341.552C435.093 341.2 435.491 340.919 435.933 340.727C436.375 340.535 436.852 340.435 437.334 340.433C448.369 340.282 459.314 338.891 470.32 338.165C477.032 337.712 483.744 337.44 490.395 336.623C491.816 336.442 493.419 336.109 494.114 337.863V339.345C493.268 340.675 491.816 340.614 490.577 340.735C485.437 341.219 480.267 341.401 476.729 341.854C479.995 341.491 484.862 341.159 489.76 340.856C491.363 340.856 493.237 340.01 494.114 342.247L494.175 345.119Z" fill="#EC7B7E"/>
<path d="M349.024 124.71L345.517 124.498C344.912 122.956 345.819 121.686 346.363 120.386C349.001 114.148 350.86 107.608 351.896 100.915C352.108 99.3623 352.199 97.7954 352.168 96.2286C351.896 88.3374 347.028 83.6511 338.714 83.0766C335.902 82.865 332.879 83.9232 330.309 81.8975C334.441 80.4068 338.845 79.8243 343.223 80.1895C347.6 80.5547 351.848 81.8591 355.675 84.0139C355.071 84.165 354.375 84.3767 355.131 85.1326C361.511 91.5423 359.999 99.1009 358.155 106.569C356.248 113.124 353.153 119.273 349.024 124.71Z" fill="#EC7B39"/>
<path d="M224.393 268.898C224.557 270.163 224.396 271.448 223.926 272.633C223.455 273.818 222.689 274.864 221.702 275.671C219.434 277.666 218.83 281.717 217.832 285.043C216.018 290.878 214.416 296.804 212.722 302.7C212.523 303.194 212.28 303.67 211.997 304.121L210.515 301.612C208.873 293.99 207.691 286.276 206.978 278.513C206.706 275.731 208.399 274.915 210.908 276.336C213.203 277.799 214.922 280.01 215.776 282.594C216.562 277.878 217.137 274.159 217.862 270.5C218.195 268.928 218.074 267.023 219.948 266.147C221.823 265.27 222.972 265.754 223.788 267.568L224.393 268.898Z" fill="#F7BA93"/>
<path d="M509.024 74.0364C510.566 72.0409 507.089 68.6849 509.901 67.536C512.712 66.3871 513.831 63.6055 516.854 63.6659C519.182 63.6659 525.381 68.7151 524.504 69.7129C522.478 72.1014 526.53 75.7598 522.841 77.2715C520.483 78.2088 519.183 80.8996 516.431 80.8996C514.678 80.9299 508.842 75.4272 509.024 74.0364Z" fill="#E8F6F6"/>
<path d="M346.48 29.0475C346.48 27.8683 345.392 25.5402 347.357 24.6332C349.322 23.7262 351.499 21.6097 354.099 21.6097C356.7 21.6097 361.9 25.6007 361.325 27.2938C360.449 29.7428 362.898 32.6151 360.57 34.4897C358.534 36.1288 356.19 37.342 353.676 38.0573C351.378 38.6923 350.381 35.6083 348.173 35.0339C345.966 34.4594 346.299 34.2176 346.48 29.0475Z" fill="#E9F6F7"/>
<path d="M524.682 287.643C524.47 289.185 525.377 291.514 523.956 292.058C521.477 292.995 519.844 295.474 517.154 295.686C515.037 295.837 508.99 290.758 509.686 289.639C511.046 287.22 507.781 284.136 510.502 282.564C512.739 281.264 514.795 278.664 517.184 278.875C519.699 279.502 521.997 280.798 523.835 282.625C525.408 283.713 524.44 285.92 524.682 287.643Z" fill="#E8F6F7"/>
<path d="M135.563 35.3967C135.563 37.2713 129.667 41.8669 127.521 41.8669C126.07 41.8669 119.569 37.2411 120.023 36.4247C121.292 33.9153 118.813 30.8918 120.839 28.9265C122.597 26.9745 124.942 25.6479 127.521 25.1472C129.994 25.5665 132.282 26.7262 134.082 28.473C136.47 30.2871 134.112 33.4012 135.563 35.3967Z" fill="#E9F6F7"/>
<path d="M238.665 377.894C237.969 380.101 240.177 382.943 237.728 383.94C235.279 384.938 233.404 387.78 230.985 387.417C228.457 386.803 226.172 385.444 224.424 383.517C222.459 381.612 224.696 378.498 223.275 376.049C222.792 375.203 229.927 370.305 231.257 370.486C234.22 370.97 238.907 375.747 238.665 377.894Z" fill="#E9F6F7"/>
<path d="M231.287 172.389C228.838 172.389 222.458 167.491 223.093 166.343C224.333 163.894 221.581 160.84 224.302 158.935C226.326 157.48 228.545 156.32 230.894 155.488C232.284 155.005 239.208 160.81 238.634 161.535C236.396 163.863 239.662 167.582 236.94 169.094C235.176 170.386 233.281 171.491 231.287 172.389Z" fill="#E8F6F6"/>
<path d="M456.444 152.132C459.467 152.132 464.849 156.546 464.275 158.179C463.489 160.507 465.545 163.773 463.337 164.952C461.13 166.131 459.256 168.277 456.625 168.61C454.66 168.852 448.734 164.105 449.308 162.563C450.306 160.114 447.827 157.212 450.125 155.337C452.116 154.056 454.234 152.982 456.444 152.132Z" fill="#E8F6F6"/>
<path d="M120.631 250.788C122.052 248.611 118.998 244.952 121.508 243.652C123.58 242.158 125.849 240.957 128.25 240.085C129.641 239.812 136.202 244.801 135.748 245.587C134.267 248.157 137.532 251.422 134.811 253.448C132.689 254.937 130.279 255.967 127.736 256.472C125.529 256.895 120.691 252.783 120.631 250.788Z" fill="#E9F7F7"/>
<path d="M429.536 376.956C430.618 380.778 431.386 384.681 431.834 388.627C426.029 389.866 419.74 389.08 414.237 391.922C413.602 390.532 415.356 389.866 415.114 388.687C416.474 386.692 417.865 384.757 419.165 382.64C420.109 380.749 421.607 379.191 423.461 378.175C425.314 377.159 427.434 376.734 429.536 376.956Z" fill="#FFC49E"/>
<path d="M494.114 337.833C490.909 336.472 487.735 337.833 484.56 338.044C476.941 338.407 469.443 339.677 461.703 339.919C452.632 340.221 443.804 341.824 434.764 341.521V339.284C445.406 339.586 455.928 337.863 466.419 337.289C475.671 336.775 484.893 335.475 494.175 335.686C495.112 336.442 494.477 337.137 494.114 337.833Z" fill="#F5A29E"/>
<path d="M401.416 79.9019C401.448 80.5849 401.346 81.2678 401.114 81.9112C400.882 82.5546 400.526 83.1459 400.065 83.6515C399.605 84.157 399.049 84.5667 398.43 84.8571C397.811 85.1476 397.14 85.313 396.457 85.3441C395.045 85.2363 393.723 84.6076 392.747 83.58C391.772 82.5525 391.213 81.1993 391.179 79.7831C391.145 78.3668 391.639 76.9884 392.564 75.9154C393.489 74.8424 394.779 74.1512 396.185 73.9759C398.543 73.7038 401.234 76.7575 401.416 79.9019Z" fill="#E7F5F5"/>
<path d="M402.05 294.688C402.05 297.53 399.178 300.916 396.85 300.735C395.487 300.391 394.272 299.618 393.384 298.528C392.496 297.439 391.983 296.092 391.922 294.688C391.92 293.286 392.461 291.937 393.429 290.923C394.398 289.909 395.721 289.308 397.122 289.246C398.483 289.353 399.751 289.977 400.667 290.989C401.583 292 402.078 293.324 402.05 294.688Z" fill="#E7F6F6"/>
<path d="M175.777 298.618C175.444 299.646 176.744 301.068 175.475 301.884C174.037 302.942 172.403 303.702 170.667 304.121C168.46 304.514 165.558 301.098 165.618 298.407C165.626 297.039 166.141 295.724 167.062 294.713C167.983 293.703 169.246 293.069 170.607 292.934C172.024 293.063 173.341 293.718 174.298 294.771C175.255 295.823 175.783 297.196 175.777 298.618Z" fill="#E7F6F6"/>
<path d="M490.455 206.978C490.455 204.257 493.479 200.931 495.746 201.687C497.56 202.261 500.584 202.11 500.523 205.466C500.523 209.306 498.286 212.692 495.716 212.813C493.146 212.934 490.425 209.427 490.455 206.978Z" fill="#E7F6F6"/>
<path d="M165.436 83.379C165.617 80.8997 168.64 77.3321 170.485 77.5739C172.024 77.9252 173.392 78.8034 174.353 80.0566C175.314 81.3098 175.806 82.8593 175.746 84.4371C175.343 85.5771 174.653 86.5938 173.742 87.3884C172.83 88.183 171.729 88.7286 170.545 88.9723C169.233 88.6554 168.046 87.9535 167.135 86.9569C166.225 85.9603 165.633 84.7143 165.436 83.379Z" fill="#E8F6F6"/>
<path d="M518.092 420.978C518.004 422.382 517.451 423.718 516.52 424.774C515.59 425.831 514.335 426.548 512.952 426.813C511.64 426.515 510.452 425.817 509.553 424.815C508.654 423.813 508.088 422.557 507.934 421.22C508.114 419.866 508.702 418.6 509.62 417.59C510.539 416.58 511.743 415.874 513.073 415.566C514.327 415.918 515.459 416.61 516.345 417.565C517.23 418.52 517.835 419.701 518.092 420.978Z" fill="#E7F6F6"/>
<path d="M288.31 128.247C285.589 127.733 283.775 130.242 281.235 130.363C279.357 127.097 278.238 123.449 277.961 119.692C277.683 115.934 278.255 112.162 279.633 108.655C280.902 110.257 280.056 112.162 280.358 113.916C281.065 118.103 283.05 121.968 286.042 124.982C286.883 126.008 287.642 127.1 288.31 128.247Z" fill="#DB6B2E"/>
<path d="M130.182 399.541C127.31 399.541 125.647 397.576 125.707 394.311C125.636 393.646 125.714 392.974 125.936 392.343C126.159 391.713 126.52 391.14 126.992 390.668C127.465 390.195 128.038 389.834 128.668 389.612C129.299 389.389 129.971 389.311 130.636 389.383C131.33 389.309 132.032 389.39 132.692 389.619C133.352 389.848 133.953 390.22 134.452 390.708C134.952 391.196 135.338 391.788 135.582 392.442C135.826 393.096 135.923 393.796 135.866 394.492C135.836 397.818 133.871 399.541 130.182 399.541Z" fill="#EAF7F7"/>
<path d="M371.456 367.795C371.39 368.778 371.046 369.722 370.465 370.517C369.884 371.312 369.089 371.926 368.173 372.287C367.257 372.648 366.257 372.742 365.289 372.556C364.322 372.371 363.427 371.915 362.709 371.241C361.99 370.568 361.478 369.704 361.232 368.75C360.985 367.796 361.015 366.793 361.317 365.855C361.619 364.918 362.18 364.085 362.937 363.454C363.693 362.824 364.613 362.421 365.59 362.293C366.344 362.238 367.1 362.341 367.812 362.593C368.524 362.846 369.176 363.243 369.727 363.76C370.278 364.277 370.716 364.902 371.014 365.597C371.311 366.291 371.462 367.04 371.456 367.795Z" fill="#EAF7F7"/>
<path d="M130.366 178.255C128.917 178.207 127.545 177.59 126.549 176.537C125.552 175.484 125.012 174.08 125.044 172.631C125.122 171.38 125.683 170.208 126.608 169.362C127.533 168.516 128.75 168.062 130.003 168.096C131.398 168.258 132.705 168.862 133.733 169.819C134.761 170.777 135.456 172.037 135.717 173.417C135.497 174.707 134.849 175.885 133.878 176.762C132.908 177.639 131.671 178.165 130.366 178.255Z" fill="#EBF7F8"/>
<path d="M510.141 157C510.173 157.603 510.076 158.205 509.856 158.767C509.636 159.329 509.299 159.837 508.866 160.258C508.434 160.679 507.917 161.003 507.349 161.207C506.782 161.412 506.177 161.493 505.575 161.444C503.217 161.112 500.617 160.598 500.768 157.212C500.919 153.825 502.612 152.072 505.606 152.163C506.241 152.11 506.88 152.202 507.475 152.431C508.07 152.66 508.605 153.021 509.041 153.486C509.477 153.951 509.803 154.509 509.993 155.117C510.184 155.726 510.234 156.369 510.141 157Z" fill="#EBF7F8"/>
<path d="M222.577 43.3182C223.826 43.4337 224.98 44.0326 225.794 44.9872C226.607 45.9418 227.015 47.1765 226.931 48.4278C226.922 49.0401 226.785 49.6437 226.53 50.2003C226.275 50.7569 225.907 51.2543 225.449 51.6609C224.991 52.0675 224.454 52.3745 223.871 52.5622C223.288 52.7499 222.672 52.8144 222.063 52.7514C221.488 52.8094 220.907 52.7377 220.363 52.5416C219.819 52.3454 219.325 52.0298 218.919 51.6179C218.513 51.206 218.205 50.7084 218.016 50.1616C217.828 49.6148 217.764 49.0327 217.831 48.4581C217.74 47.7956 217.798 47.1214 217.999 46.4837C218.2 45.846 218.539 45.2606 218.993 44.7694C219.446 44.2782 220.003 43.8934 220.622 43.6425C221.242 43.3916 221.91 43.2809 222.577 43.3182Z" fill="#EAF7F8"/>
<path d="M448.251 39.6899C451.274 39.6899 452.937 41.0808 452.816 44.074C452.695 47.0672 451.849 48.8813 448.765 49.1231C448.134 49.18 447.498 49.0966 446.903 48.8788C446.308 48.661 445.769 48.3142 445.324 47.8634C444.879 47.4125 444.539 46.8688 444.329 46.2711C444.119 45.6735 444.044 45.0367 444.109 44.4066C444.078 41.5041 445.318 39.8109 448.251 39.6899Z" fill="#EAF7F7"/>
<path d="M275.068 374.81V373.419C277.094 371.242 281.841 370.244 283.05 371.967C283.634 372.809 284.009 373.776 284.146 374.79C284.282 375.805 284.176 376.837 283.837 377.803C283.202 379.647 281.69 379.828 280.057 379.949C279.095 380.093 278.112 379.913 277.264 379.436C276.415 378.96 275.749 378.215 275.371 377.319C275.144 376.502 275.042 375.656 275.068 374.81Z" fill="#EAF7F8"/>
<path d="M449.067 263.879C448.445 263.971 447.811 263.922 447.211 263.737C446.611 263.552 446.06 263.234 445.599 262.808C445.138 262.381 444.778 261.857 444.546 261.273C444.314 260.69 444.216 260.061 444.259 259.435C444.078 256.714 446.134 255.202 449.187 255.111C449.76 255.036 450.342 255.091 450.891 255.271C451.439 255.452 451.939 255.754 452.355 256.155C452.77 256.556 453.09 257.046 453.29 257.587C453.491 258.129 453.566 258.709 453.511 259.284C453.58 259.891 453.513 260.506 453.317 261.084C453.12 261.663 452.798 262.19 452.373 262.63C451.948 263.069 451.431 263.409 450.86 263.625C450.288 263.841 449.676 263.928 449.067 263.879Z" fill="#EAF7F7"/>
<path d="M349.234 369.065C348.116 365.268 347.387 361.368 347.057 357.425C348.396 357.084 349.81 357.195 351.079 357.742C352.347 358.289 353.4 359.241 354.071 360.448C354.477 361.1 354.732 361.834 354.817 362.596C354.903 363.359 354.816 364.132 354.564 364.857C354.311 365.581 353.9 366.241 353.359 366.786C352.819 367.331 352.163 367.748 351.441 368.007L349.234 369.065Z" fill="#E6F5F3"/>
<path d="M223.79 267.507L219.95 266.086C218.922 264.726 216.927 263.637 218.469 261.46C218.927 260.472 219.714 259.673 220.695 259.199C221.676 258.725 222.791 258.605 223.851 258.86C224.799 259.052 225.653 259.56 226.274 260.302C226.895 261.044 227.245 261.975 227.267 262.942C227.392 263.476 227.398 264.031 227.284 264.567C227.169 265.104 226.937 265.608 226.605 266.044C226.273 266.481 225.848 266.838 225.361 267.091C224.875 267.344 224.338 267.486 223.79 267.507Z" fill="#EAF7F7"/>
<path d="M300.407 83.0463C296.476 84.5418 292.772 86.577 289.402 89.0932C286.378 85.4348 286.65 83.8928 291.065 81.9276C291.744 81.6955 292.378 81.3477 292.939 80.8996C293.262 80.4968 293.682 80.1833 294.161 79.9891C294.639 79.7949 295.159 79.7263 295.671 79.79C296.183 79.8536 296.671 80.0474 297.087 80.3527C297.503 80.6581 297.834 81.065 298.049 81.5346C298.744 82.3811 299.802 82.4114 300.407 83.0463Z" fill="#EBF5F3"/>
<path d="M156.911 153.251C156.911 156.274 155.943 158.24 153.222 158.572C151.257 158.784 148.959 155.851 148.898 153.704C148.898 150.469 151.529 149.834 153.434 149.744C155.338 149.653 157.666 150.681 156.911 153.251Z" fill="#E6F5F5"/>
<path d="M157.634 368.732C157.634 371.121 154.762 374.356 153.16 373.751C151.557 373.147 149.441 372.088 149.501 369.216C149.455 368.654 149.532 368.088 149.727 367.559C149.923 367.03 150.231 366.55 150.632 366.152C151.032 365.755 151.514 365.449 152.045 365.258C152.576 365.067 153.142 364.993 153.704 365.044C155.427 365.104 158.3 365.921 157.634 368.732Z" fill="#E4F5F4"/>
<path d="M494.143 342.217C489.245 340.947 484.438 342.428 479.6 342.67C476.425 343.073 473.203 342.93 470.076 342.247C477.937 339.889 486.161 340.554 494.264 339.224C495.292 340.282 494.566 341.159 494.143 342.217Z" fill="#F4A39F"/>
<path d="M532.664 37.8759C532.301 34.8525 534.267 34.1873 536.413 34.2175C538.56 34.2478 539.951 35.8804 539.89 38.3294C539.942 38.8159 539.881 39.3077 539.713 39.7672C539.545 40.2267 539.274 40.6416 538.921 40.9801C538.568 41.3187 538.142 41.5719 537.676 41.7203C537.21 41.8688 536.716 41.9086 536.232 41.8366C533.874 41.8366 532.332 40.4761 532.664 37.8759Z" fill="#EAF7F7"/>
<path d="M540.162 252.813C539.739 254.748 539.467 256.653 536.565 256.683C533.662 256.713 532.906 254.658 532.846 252.481C532.785 250.304 534.116 249.215 536.565 249.276C539.014 249.336 540.072 250.455 540.162 252.813Z" fill="#EAF7F8"/>
<path d="M434.795 335.656C442.736 334.644 450.737 334.19 458.741 334.295V335.293C455.959 335.686 453.147 336.17 450.336 336.381C445.8 336.744 441.265 336.926 436.7 337.228C435.99 337.352 435.3 337.565 434.644 337.863C434.422 337.53 434.317 337.133 434.344 336.734C434.371 336.334 434.53 335.955 434.795 335.656Z" fill="#F1A49D"/>
<path d="M299.314 38.9946C298.8 39.0707 298.275 39.0286 297.78 38.8714C297.284 38.7143 296.831 38.4462 296.455 38.0876C296.079 37.729 295.79 37.2893 295.609 36.8021C295.429 36.3148 295.362 35.7928 295.413 35.2757C295.413 32.7663 296.532 31.7987 298.83 31.708C301.128 31.6173 302.67 32.736 302.7 35.3059C302.768 35.7802 302.73 36.2637 302.588 36.7214C302.446 37.1791 302.205 37.5996 301.881 37.9525C301.557 38.3055 301.158 38.582 300.714 38.7622C300.27 38.9424 299.792 39.0218 299.314 38.9946Z" fill="#E9F7F7"/>
<path d="M500.794 304.514C498.315 304.514 497.105 303.275 497.075 300.947C497.045 298.619 498.103 297.137 500.491 297.319C502.88 297.5 504.392 298.498 504.331 301.128C504.36 301.593 504.287 302.059 504.118 302.494C503.948 302.928 503.686 303.32 503.349 303.642C503.012 303.965 502.609 304.21 502.168 304.361C501.726 304.511 501.257 304.564 500.794 304.514Z" fill="#E9F7F7"/>
<path d="M277.275 89.6072C277.668 92.8725 275.007 92.9027 273.012 93.0237C271.016 93.1446 269.988 91.8143 269.988 89.7281C269.988 86.9768 271.833 86.2511 274.04 86.1907C276.247 86.1302 277.547 87.1884 277.275 89.6072Z" fill="#E9F7F7"/>
<path d="M503.61 86.0093C503.247 87.9443 502.159 89.6374 499.982 89.6072C499.495 89.608 499.013 89.5092 498.566 89.3169C498.119 89.1245 497.716 88.8426 497.382 88.4886C497.047 88.1345 496.789 87.7158 496.623 87.2582C496.457 86.8006 496.386 86.3139 496.414 85.8279C496.414 83.4091 497.896 82.4416 500.194 82.502C500.659 82.4691 501.125 82.5379 501.561 82.7038C501.997 82.8697 502.391 83.1287 502.716 83.4626C503.042 83.7965 503.29 84.1974 503.444 84.6372C503.599 85.0771 503.655 85.5453 503.61 86.0093Z" fill="#EAF6F7"/>
<path d="M274.373 300.856C276.096 301.824 276.066 303.879 277.396 305.24C277.396 307.719 275.975 308.263 273.889 308.082C273.087 308.082 272.318 307.764 271.751 307.197C271.184 306.629 270.866 305.86 270.866 305.059C270.624 302.217 271.591 300.826 274.373 300.856Z" fill="#EAF7F7"/>
<path d="M176.624 216.743C178.529 217.046 179.648 217.983 179.376 219.918C179.103 221.853 177.834 222.518 176.14 222.397C174.447 222.276 173.419 221.43 173.631 219.585C173.677 218.821 174.012 218.102 174.567 217.574C175.123 217.047 175.858 216.75 176.624 216.743Z" fill="#E8F6F6"/>
<path d="M217.29 128.247C218.892 128.549 220.132 129.154 219.951 131.029C219.975 131.425 219.913 131.823 219.767 132.193C219.622 132.563 219.397 132.896 219.109 133.17C218.821 133.444 218.476 133.651 218.099 133.777C217.722 133.904 217.322 133.946 216.927 133.901C216.562 133.911 216.199 133.843 215.862 133.703C215.524 133.563 215.22 133.354 214.969 133.089C214.718 132.823 214.526 132.508 214.405 132.164C214.284 131.819 214.237 131.453 214.267 131.089C214.327 129.245 215.536 128.368 217.29 128.247Z" fill="#EAF7F7"/>
<path d="M222.913 310.319C220.978 305.21 223.487 300.553 224.334 295.746C225.483 294.9 224.727 293.479 224.999 293.025C224.999 298.074 224.999 303.668 224.999 309.261C224.818 310.531 224.001 310.924 222.913 310.319Z" fill="#D5E6E0"/>
<path d="M444.139 383.487C442.748 383.036 441.555 382.119 440.762 380.891C439.968 379.663 439.623 378.198 439.785 376.745C439.785 371.061 439.785 365.377 439.785 359.692C439.785 355.067 441.841 352.98 446.376 352.98C458.349 352.98 470.312 352.98 482.265 352.98C487.163 352.98 489.067 354.976 489.128 359.844C489.188 364.711 489.128 369.73 489.128 374.689C488.674 377.186 487.344 379.438 485.375 381.041C483.407 382.643 480.932 383.489 478.394 383.427L444.139 383.487Z" fill="#FEFEFE"/>
<path d="M324.14 207.764C319.412 207.67 314.708 208.449 310.262 210.062C301.187 213.26 292.339 217.069 283.777 221.46C282.265 222.186 280.481 223.455 279.151 221.883C277.821 220.311 279.363 218.709 280.481 217.469C290.237 206.666 303.369 199.493 317.73 197.121C327.443 195.116 337.493 195.437 347.058 198.058C350.008 198.721 352.808 199.931 355.312 201.626C356.038 202.17 357.035 202.805 356.763 203.924C356.491 205.043 355.342 205.043 354.405 205.224L349.809 206.04C349.628 206.887 350.293 207.038 350.777 207.371C351.26 207.703 352.47 208.308 352.137 209.245C351.805 210.183 350.535 210.183 349.628 210.031C339.255 208.635 328.703 210.45 319.393 215.232C318.305 215.715 316.975 216.713 316.158 215.443C315.342 214.173 317.005 213.659 317.609 212.843C319.524 210.837 321.725 209.126 324.14 207.764Z" fill="#FEFEFD"/>
<path d="M260.615 237.031C261.113 230.827 262.91 224.798 265.89 219.334C268.869 213.87 272.964 209.093 277.909 205.315C290.003 195.519 304.546 191.649 319.361 188.474C326.889 186.872 334.478 185.602 341.855 183.365C340.635 184.92 339.11 186.21 337.373 187.156C335.637 188.103 333.726 188.685 331.757 188.867C325.015 190.167 318.907 193.251 312.286 194.914C302.897 197.428 294.003 201.517 285.982 207.008C275.128 214.204 265.876 222.972 261.492 235.791C261.275 236.253 260.978 236.673 260.615 237.031Z" fill="#F6BB93"/>
<path d="M361.989 307.447L358.059 310.471C357.484 310.894 356.819 311.438 356.154 310.833C355.489 310.229 356.154 309.503 356.547 309.019C358.331 306.873 360.175 304.817 361.959 302.7C367.055 296.168 371.263 288.991 374.476 281.355C376.048 277.908 379.162 275.308 379.737 271.135C379.747 270.984 379.79 270.836 379.861 270.701C379.932 270.567 380.031 270.449 380.15 270.355C380.27 270.261 380.408 270.193 380.555 270.155C380.703 270.118 380.857 270.112 381.007 270.138C381.763 270.319 381.732 271.014 381.823 271.589C382.311 275.782 381.888 280.031 380.583 284.045C377.51 295.905 370.986 306.585 361.838 314.734C361.314 315.227 360.748 315.672 360.145 316.064C359.45 316.487 358.573 317.243 357.847 316.669C357.121 316.094 357.847 314.945 358.391 314.22C359.661 312.133 361.052 310.108 362.412 308.173L361.989 307.447Z" fill="#FDFDFC"/>
<path d="M282.836 282.11C284.106 282.745 284.56 284.166 285.164 285.376C287.372 289.79 289.367 294.446 291.574 298.739C295.784 306.472 301.25 313.451 307.75 319.39C309.987 321.597 312.224 323.774 314.431 326.011C314.945 326.495 315.671 327.069 315.278 327.825C314.885 328.581 313.827 328.46 313.041 328.188C307.844 326.206 303.103 323.193 299.103 319.329C290.154 311.704 283.899 301.399 281.264 289.941C280.942 288.044 280.86 286.114 281.022 284.197C280.997 283.939 281.025 283.679 281.104 283.433C281.183 283.187 281.311 282.959 281.481 282.764C281.651 282.568 281.858 282.41 282.091 282.297C282.324 282.185 282.578 282.122 282.836 282.11Z" fill="#FCFDFB"/>
<path d="M348.206 257.197C349.009 254.64 350.326 252.274 352.076 250.243C352.512 248.979 353.241 247.835 354.202 246.905C355.164 245.975 356.331 245.285 357.609 244.892C365.18 241.412 373.707 240.602 381.797 242.594C382.38 242.775 382.91 243.097 383.339 243.531L386.362 243.894C378.774 246.192 381.283 253.146 378.199 257.258C377.504 257.409 377.201 256.986 376.929 256.472C376.667 255.558 376.615 254.597 376.778 253.66C377.171 248.671 377.171 248.671 372.031 248.278C371.699 248.641 369.945 247.401 371.033 249.488C372.169 251.306 372.567 253.49 372.145 255.592C371.724 257.694 370.515 259.555 368.766 260.795C367.737 261.695 366.495 262.317 365.159 262.601C363.822 262.886 362.434 262.824 361.128 262.421C359.822 262.017 358.641 261.287 357.697 260.299C356.753 259.31 356.078 258.097 355.735 256.774C354.918 254.023 354.072 253.993 352.258 255.686C351.109 256.442 350.655 258.104 349.083 258.316C348.297 258.165 347.965 257.863 348.206 257.197Z" fill="#5B150E"/>
<path d="M276.549 257.379C275.562 255.997 274.881 254.419 274.554 252.753C273.253 247.341 273.284 247.341 269.111 243.833C277.547 243.44 285.71 241.747 293.752 244.892C296.668 245.868 299.323 247.494 301.517 249.646C303.712 251.799 305.389 254.422 306.421 257.318C306.784 258.013 306.753 258.618 305.937 258.981C304.335 258.981 303.972 257.016 302.611 256.562C301.704 256.834 301.341 257.62 300.858 258.286C297.834 262.67 293.571 263.818 289.399 261.49C287.433 260.401 285.96 258.599 285.285 256.455C284.61 254.311 284.784 251.99 285.771 249.971C286.037 249.488 286.26 248.982 286.436 248.459C285.015 248.278 283.594 248.459 282.233 248.278C277.698 248.792 277.698 248.792 277.97 253.509C278.165 254.507 278.165 255.534 277.97 256.532C277.577 257.167 277.214 257.56 276.549 257.379Z" fill="#5B150F"/>
<path d="M346.238 308.173C342.036 314.22 337.168 318.997 329.488 319.964C325.563 320.398 321.598 319.644 318.106 317.801C314.613 315.958 311.753 313.109 309.896 309.624C310.924 308.384 312.194 308.626 313.525 308.989C322.965 311.408 332.901 311.073 342.157 308.022C343.427 307.659 344.938 306.963 346.238 308.173Z" fill="#ED7C7E"/>
<path d="M347.086 294.779C346.058 294.144 345.091 295.414 344.516 294.537C343.942 293.66 345.06 293.146 345.484 292.511C349.233 287.129 353.647 282.111 354.312 275.157C354.312 274.28 354.463 273.191 355.642 272.828C355.914 274.491 358.303 273.766 358.666 275.459C358.666 276.154 358.666 276.88 358.666 277.666C359.815 277.031 359.573 274.643 361.024 275.308C362.475 275.973 361.901 277.515 361.689 278.875C361.154 282.706 359.708 286.353 357.472 289.509C355.236 292.666 352.276 295.24 348.84 297.016C347.933 297.53 346.814 298.528 345.816 297.5C344.818 296.472 346.814 295.807 347.086 294.779Z" fill="#FDFDFC"/>
<path d="M308.447 225.663C311.954 221.369 316.792 220.341 321.085 219.193C332.272 216.053 344.064 215.741 355.401 218.285C356.671 218.588 359.151 218.285 358.909 219.948C358.667 221.611 356.278 221.067 354.887 220.916C340.927 219.854 326.89 221.403 313.496 225.481C311.874 226.072 310.107 226.136 308.447 225.663Z" fill="#FCFCFA"/>
<path d="M327.975 248.762C329.729 248.762 329.85 247.099 331.18 246.706C332.359 248.913 331.18 251.12 330.696 253.116C330.087 257.762 330.364 262.481 331.513 267.024C331.694 268.112 334.204 270.047 330.061 269.775C327.431 269.533 327.431 270.44 326.282 267.084C323.553 258.649 323.755 249.539 326.857 241.233C327.159 240.326 327.34 238.754 328.761 239.208C330.182 239.661 329.426 240.84 329.245 241.778C328.852 244.045 328.429 246.343 327.975 248.762Z" fill="#FDFCFA"/>
<path d="M309.199 306.721C311.044 306.147 312.918 305.724 314.702 304.968C318.179 303.547 321.384 302.217 324.891 305.482C326.584 307.054 329.094 305.814 330.938 304.484C331.675 303.892 332.569 303.531 333.51 303.445C334.451 303.359 335.397 303.552 336.229 304C339.287 305.032 342.395 305.91 345.541 306.631C345.783 307.689 344.936 307.78 344.301 307.961C334.485 311.321 323.916 311.824 313.825 309.412C312.132 308.959 309.683 309.352 309.199 306.721Z" fill="#EE7C7E"/>
<path d="M308.78 237.515C296.686 229.472 284.108 226.842 269.656 233.131C280.903 221.309 301.826 223.909 308.78 237.515Z" fill="#A64233"/>
<path d="M384.272 232.556C370.515 226.902 357.847 229.351 345.844 237.817C348.474 224.756 371.452 221.611 384.272 232.556Z" fill="#A54132"/>
<path d="M383.213 243.531C378.799 243.35 374.384 242.896 370 243.078C363.349 243.194 356.971 245.743 352.071 250.243C351.769 249.457 351.225 248.762 351.799 247.885C353.38 245.429 355.439 243.318 357.855 241.677C360.27 240.036 362.992 238.899 365.857 238.334C368.722 237.77 371.672 237.789 374.529 238.391C377.387 238.993 380.094 240.166 382.487 241.838C382.88 242.261 382.971 242.987 383.213 243.531Z" fill="#F6B993"/>
<path d="M320.842 255.02C321.084 264.219 318.382 273.254 313.132 280.81C312.436 281.748 311.862 283.531 310.653 282.957C309.443 282.383 310.411 280.508 310.804 279.51C312.943 274.287 314.721 268.923 316.125 263.456C317.136 258.475 317.723 253.418 317.879 248.338C317.879 247.28 317.607 245.678 318.907 245.587C320.207 245.496 319.904 247.159 320.207 248.097C320.809 250.352 321.024 252.693 320.842 255.02Z" fill="#FCFBF8"/>
<path d="M309.202 306.721C317.685 310.502 327.187 311.343 336.202 309.11C339.408 308.783 342.542 307.946 345.484 306.631C346.08 306.635 346.671 306.52 347.221 306.291C347.772 306.063 348.271 305.726 348.688 305.3C348.855 305.128 349.054 304.99 349.275 304.896C349.496 304.802 349.733 304.754 349.973 304.754C350.213 304.754 350.451 304.802 350.672 304.896C350.892 304.99 351.092 305.128 351.258 305.3C351.418 305.463 351.541 305.658 351.619 305.871C351.697 306.085 351.729 306.313 351.712 306.54C351.561 307.659 350.563 307.568 349.777 307.719L346.239 308.294C338.829 310.655 331.099 311.858 323.322 311.861C318.726 311.861 314.433 309.987 309.898 309.745C308.389 308.523 306.542 307.795 304.606 307.659C303.79 307.477 302.853 307.417 302.823 306.298C302.804 306.03 302.848 305.762 302.954 305.515C303.059 305.268 303.221 305.049 303.427 304.877C303.783 304.642 304.21 304.537 304.635 304.581C305.059 304.625 305.455 304.815 305.755 305.119C306.654 306.079 307.889 306.653 309.202 306.721Z" fill="#D96361"/>
<path d="M306.994 263.819C300.324 265.209 293.438 265.209 286.768 263.819C286.768 262.64 287.614 262.428 288.43 262.095C291.232 262.428 294.064 262.428 296.866 262.095C299.889 262.095 302.913 261.128 305.936 262.337C306.632 262.549 307.176 263.002 306.994 263.819Z" fill="#62261E"/>
<path d="M367.917 263.758C362.443 264.84 356.838 265.095 351.288 264.514C350.563 264.061 348.87 264.121 350.261 262.549C352.679 261.098 355.34 262.549 357.819 261.853C360.574 262.322 363.374 262.474 366.164 262.307C366.92 262.549 367.948 262.549 367.917 263.758Z" fill="#5E1D18"/>
<path d="M367.918 263.758L366.648 262.972C366.648 261.732 367.586 261.642 368.342 261.339C370.755 261.014 372.985 259.872 374.661 258.104C375.386 257.348 376.021 256.351 377.321 256.472L378.047 257.258C376.983 259.056 375.512 260.581 373.754 261.71C371.995 262.838 369.997 263.54 367.918 263.758Z" fill="#8C584C"/>
<path d="M288.036 262.972L286.766 263.788C284.683 263.584 282.675 262.899 280.902 261.787C279.128 260.675 277.637 259.166 276.547 257.379L277.333 256.593C278.633 256.23 279.238 257.258 279.933 257.983C281.617 259.81 283.882 260.996 286.343 261.339C287.129 261.642 288.308 261.732 288.036 262.972Z" fill="#7E5850"/>
<path d="M321.325 291.423C319.753 291.423 318.604 291.151 318.302 289.699C318.09 288.732 318.906 288.55 319.632 288.52C320.296 288.394 320.984 288.532 321.548 288.905C322.113 289.277 322.51 289.855 322.655 290.516C322.807 291.423 321.748 291.392 321.325 291.423Z" fill="#DA9A67"/>
<path d="M349.866 263.274L351.287 264.514C346.298 264.514 345.814 263.335 348.263 257.197L349.049 258.044C350.047 259.525 348.928 261.642 349.866 263.274Z" fill="#83493C"/>
<path d="M335.898 289.911C335.384 291.09 334.205 291.302 332.874 291.362C332.27 291.362 331.635 291.06 331.937 290.274C332.119 289.772 332.453 289.34 332.892 289.036C333.33 288.733 333.853 288.574 334.386 288.581C335.323 288.581 335.958 288.823 335.898 289.911Z" fill="#D59664"/>
<path d="M306.995 263.819L306.39 263.184C305.151 261.823 304.455 260.402 305.816 258.679C305.997 258.225 306.209 257.772 306.42 257.318C307.237 259.525 308.295 261.521 306.995 263.819Z" fill="#9F7362"/>
<path d="M247.585 200.78C250.023 193.334 253.385 186.224 257.592 179.615C257.592 176.592 260.072 175.231 261.583 173.175C262.43 172.163 263.35 171.213 264.335 170.333C268.2 166.568 272.389 163.148 276.852 160.114C278.162 158.852 279.875 158.092 281.689 157.968L286.134 155.791C290.699 151.761 296.615 149.602 302.702 149.744C312.608 147.457 322.787 146.581 332.937 147.144C335.167 147.591 337.456 147.662 339.709 147.355C342.232 147.083 344.766 147.762 346.815 149.26C353.499 151.275 360.019 153.802 366.316 156.819C385.212 167.129 398.395 182.125 403.565 203.319C405.307 211.118 405.482 219.186 404.079 227.053C403.897 228.263 403.867 230.077 402.295 230.228C400.723 230.379 401.055 228.354 400.813 227.205C398.643 217.319 394.329 208.03 388.175 199.994C386.754 197.847 384.517 196.396 383.066 194.279L382.31 193.523C372.976 185.25 362.498 178.366 351.199 173.085C346.438 170.923 341.305 169.702 336.081 169.487C334.479 168.971 332.768 168.887 331.123 169.245C324.117 170.264 317.029 170.598 309.959 170.243C298.318 172.267 287.347 177.104 278.001 184.332C263.697 194.652 253.825 210 250.366 227.295C250.124 228.444 249.883 230.107 248.583 230.107C247.282 230.107 247.192 228.474 246.98 227.326C245.547 218.515 245.752 209.516 247.585 200.78Z" fill="#F4A7A3"/>
<path d="M309.898 170.243C318.509 168.255 327.43 167.998 336.142 169.487C329.823 168.701 325.408 172.934 320.268 175.383C310.382 180.099 300.283 184.453 290.76 189.744C280.419 195.609 270.865 202.503 264.244 212.722C261.233 217.677 258.779 222.95 256.927 228.444C256.042 225.275 256.245 221.901 257.502 218.86C260.706 206.252 269.323 197.696 279.331 190.228C289.154 183.543 299.338 177.406 309.838 171.845C310.714 171.18 311.531 170.787 309.898 170.243Z" fill="#EB7A37"/>
<path d="M281.688 158.028C275.869 162.025 270.287 166.356 264.968 170.999C262.58 170.303 263.971 168.731 264.364 167.643C266.024 163.509 268.176 159.591 270.773 155.972C275.817 148.199 282.316 141.475 289.912 136.168C290.504 135.757 291.172 135.47 291.877 135.322H295.324C296.775 137.196 294.991 138.013 294.024 138.98C289.488 143.793 285.503 149.097 282.142 154.793C281.663 155.799 281.504 156.929 281.688 158.028Z" fill="#D15D2E"/>
<path d="M302.702 149.744L286.134 155.791C285.227 154.521 286.587 154.128 287.132 153.553C297.164 143.011 310.041 135.606 324.199 132.238C325.56 131.875 325.56 131.905 327.616 132.722C319.694 136.58 312.213 141.283 305.303 146.75C304.165 147.476 303.262 148.516 302.702 149.744Z" fill="#D15D2E"/>
<path d="M351.318 173.085C360.976 175.932 369.83 181.007 377.169 187.9C379.043 189.563 381.825 190.591 382.43 193.523C378.681 193.281 376.111 190.651 373.359 188.807C365.619 183.939 357.547 179.827 351.318 173.085Z" fill="#EC7C3A"/>
<path d="M346.938 149.26L333.061 147.144C339.833 146.902 339.833 146.902 341.738 140.431C341.98 139.645 342.131 138.799 342.403 138.013C342.675 137.227 342.584 136.713 343.34 136.622C344.096 136.531 344.459 137.317 344.701 138.013C345.808 141.681 346.558 145.447 346.938 149.26Z" fill="#EB7A39"/>
<path d="M383.188 194.279C385.44 195.611 387.225 197.607 388.297 199.994C386.064 198.638 384.286 196.649 383.188 194.279Z" fill="#EC7C3A"/>
<path d="M330.305 81.8973C333.898 81.5838 337.515 81.6345 341.098 82.0485C349.383 83.7417 353.676 87.521 353.373 97.3472C353.014 106.923 350.315 116.266 345.513 124.558C340.615 127.824 336.2 129.033 330.879 124.558C327.402 121.535 323.018 123.833 319.843 126.826C319.072 127.644 318.019 128.14 316.897 128.213C315.775 128.286 314.667 127.93 313.796 127.219C307.961 123.5 304.968 123.863 299.768 128.791C296.381 132.026 295.202 132.117 291.876 129.305C291.242 125.768 288.611 123.258 287.22 119.993C281.778 107.476 289.548 95.2005 298.528 89.7583C305.149 85.7069 312.406 84.7696 319.541 82.8649C320.053 82.6573 320.608 82.5748 321.158 82.6243C321.709 82.6737 322.239 82.8537 322.706 83.1493C323.173 83.4449 323.563 83.8476 323.843 84.3239C324.124 84.8002 324.287 85.3365 324.318 85.8883C326.264 94.2308 326.663 102.859 325.497 111.346C325.165 114.883 324.56 118.421 324.016 122.623C327.039 118.844 327.039 114.611 327.976 110.862C329.304 105.25 330.314 99.5664 331 93.84C331.504 90.7224 331.159 87.5267 330.002 84.5882C329.428 83.1672 329.337 82.5323 330.305 81.8973Z" fill="#DA672B"/>
<path d="M291.876 135.322C288.671 139.797 283.471 142.064 279.782 146.206C273.617 153.018 268.52 160.724 264.665 169.064C264.363 169.759 264.06 170.394 264.665 170.999L257.288 179.676C255.837 177.59 257.288 175.534 257.923 173.931C262.276 162.865 266.993 152.072 276.063 143.697C278.845 141.157 282.11 139.162 284.68 136.592C285.477 135.835 286.436 135.271 287.484 134.941C288.531 134.611 289.641 134.524 290.727 134.687L291.876 135.322Z" fill="#DA682B"/>
<path d="M462.37 376.986C461.01 376.049 461.433 374.568 460.647 373.661C459.619 374.114 460.345 374.991 460.163 375.656C459.982 376.321 460.163 376.956 459.226 376.926C458.777 376.844 458.371 376.609 458.077 376.261C454.782 372.874 454.268 363.079 457.019 359.118C458.5 356.941 459.377 358.453 460.254 359.481C462.206 361.91 463.439 364.837 463.813 367.931C464.187 371.025 463.687 374.162 462.37 376.986Z" fill="#C7DE7C"/>
<path d="M466.695 379.073C465.546 378.559 463.974 378.317 464.185 376.049C464.625 374.192 465.497 372.464 466.732 371.009C467.967 369.553 469.529 368.41 471.29 367.674C472.228 367.463 473.165 367.251 473.679 368.491C474.798 371 469.718 378.922 466.695 379.073Z" fill="#CCE086"/>
<path d="M368.615 262.337L366.649 262.972C363.693 263.259 360.716 263.259 357.76 262.972C352.772 261.4 351.29 259.555 351.381 255.081C352.538 253.43 354.174 252.175 356.067 251.483C355.795 256.018 356.732 259.707 361.358 261.158C362.856 261.7 364.494 261.714 366.001 261.197C367.508 260.68 368.793 259.663 369.643 258.316C372.485 254.476 371.094 250.878 368.433 247.522C368.923 247.24 369.465 247.06 370.026 246.993C370.587 246.925 371.156 246.972 371.698 247.129C372.579 248.049 373.263 249.139 373.71 250.332C374.157 251.524 374.357 252.796 374.297 254.068C374.238 255.34 373.921 256.587 373.365 257.733C372.809 258.879 372.026 259.9 371.064 260.735C370.319 261.371 369.496 261.909 368.615 262.337Z" fill="#3E9B9C"/>
<path d="M368.613 262.337C373.058 257.983 374.66 253.055 371.637 247.22C378.53 246.948 378.923 247.371 377.684 254.053C377.532 254.869 377.351 255.685 377.2 256.532C376.341 258.119 375.112 259.475 373.617 260.486C372.122 261.496 370.406 262.131 368.613 262.337Z" fill="#F7F7F7"/>
<path d="M366.922 256.683C364.443 256.472 363.021 255.323 363.021 253.055C363.103 252.169 363.513 251.346 364.17 250.747C364.827 250.148 365.685 249.816 366.574 249.816C367.464 249.816 368.321 250.148 368.978 250.747C369.635 251.346 370.045 252.169 370.127 253.055C370.176 253.96 369.868 254.848 369.268 255.526C368.669 256.205 367.826 256.621 366.922 256.683Z" fill="#F5F2F3"/>
<path d="M351.378 255.141C352.375 258.513 354.67 261.351 357.757 263.033L349.866 263.274C348.415 263.274 347.266 262.912 348.052 261.007C348.415 260.039 348.687 259.042 348.989 257.983C349.776 257.046 350.199 255.776 351.378 255.141Z" fill="#F4F7F6"/>
<path d="M288.034 262.972L286.129 262.337C281.08 259.314 279.568 256.109 280.536 250.667C280.572 249.942 280.794 249.239 281.181 248.624C281.567 248.01 282.105 247.506 282.743 247.159H288.003C288.517 248.429 287.55 248.883 287.187 249.548C286.587 250.489 286.192 251.546 286.028 252.65C285.863 253.754 285.933 254.88 286.233 255.955C286.532 257.03 287.054 258.03 287.766 258.89C288.477 259.75 289.362 260.451 290.362 260.946C291.384 261.399 292.492 261.623 293.61 261.605C294.728 261.586 295.828 261.325 296.835 260.839C297.841 260.353 298.73 259.654 299.44 258.79C300.149 257.926 300.662 256.919 300.944 255.837C301.488 254.174 301.579 252.571 303.211 255.111C303.211 259.344 301.579 261.521 296.923 263.033L288.034 262.972Z" fill="#3D9A9D"/>
<path d="M282.746 247.159C281.452 249.677 281.082 252.569 281.701 255.331C282.319 258.094 283.888 260.552 286.132 262.277C284.304 262.123 282.543 261.518 281.008 260.515C279.472 259.512 278.209 258.144 277.334 256.532C277.122 255.595 276.82 254.688 276.699 253.75C275.792 247.431 276.215 247.008 282.746 247.159Z" fill="#F6F8F8"/>
<path d="M300.403 254.446C299.798 256.321 298.982 258.135 296.623 258.014C296.166 258.028 295.711 257.945 295.287 257.772C294.863 257.599 294.481 257.338 294.164 257.007C293.848 256.677 293.605 256.283 293.45 255.852C293.296 255.421 293.233 254.963 293.267 254.506C293.231 254.022 293.3 253.535 293.469 253.08C293.639 252.625 293.906 252.212 294.251 251.87C294.596 251.528 295.011 251.264 295.468 251.098C295.924 250.933 296.411 250.868 296.896 250.909C299.072 250.878 299.889 252.541 300.403 254.446Z" fill="#F4F2F2"/>
<path d="M296.926 263.033C299.913 261.242 302.148 258.427 303.215 255.111C304.303 256.122 305.186 257.333 305.815 258.679C306.278 260.133 306.473 261.66 306.389 263.184L296.926 263.033Z" fill="#F5F8F8"/>
<path d="M338.134 313.222C336.139 318.603 332.087 318.543 327.612 318.241C327.008 318.241 326.312 318.059 326.373 317.303C326.429 317.083 326.538 316.879 326.691 316.71C326.844 316.542 327.035 316.413 327.25 316.336C330.993 315.753 334.649 314.707 338.134 313.222Z" fill="#F4A29E"/>
</svg>
