<svg width="596" height="530" viewBox="0 0 596 530" fill="none" xmlns="http://www.w3.org/2000/svg">
<path fill-rule="evenodd" clip-rule="evenodd" d="M470.452 364.826C478.271 355.954 483.564 345.08 482.679 332.896C480.131 297.789 429.578 305.512 419.745 323.231C409.911 340.95 411.079 385.895 423.788 389.061C428.857 390.324 439.654 387.231 450.643 380.828L443.745 428H484.473L470.452 364.826Z" fill="#B28B67"/>
<path fill-rule="evenodd" clip-rule="evenodd" d="M500.435 321.21C501.75 319.949 502.468 318.151 503.088 316.443C503.733 314.669 504.359 312.876 504.787 311.029C505.642 307.34 505.65 303.096 502.928 300.231C500.744 297.934 497.467 296.903 494.443 296.679C492.428 296.53 490.359 296.803 488.428 297.417C486.512 298.025 484.86 299.239 483.002 299.992C482.931 296.016 482.227 291.855 480.14 288.46C478.132 285.194 474.931 283.36 471.285 282.875C467.542 282.378 463.847 283.224 460.497 284.976C459.658 285.414 458.827 285.874 458.032 286.394C457.366 286.829 456.674 287.354 455.893 287.531C455.022 287.729 454.59 287.242 454.024 286.628C453.36 285.908 452.613 285.274 451.821 284.711C448.323 282.225 443.732 281.203 439.679 282.693C437.811 283.38 435.995 284.546 434.728 286.152C433.599 287.585 432.793 289.857 431.234 290.854C430.573 291.278 430.106 290.717 429.503 290.302C428.599 289.679 427.736 288.991 426.82 288.385C425.534 287.533 424.142 286.896 422.651 286.562C420.468 286.074 417.451 286.189 416.827 288.953C416.592 289.991 416.772 291.101 416.848 292.147C416.952 293.583 417.06 295.019 417.189 296.453C417.287 297.542 417.411 298.594 417.623 299.663C417.737 300.233 418.092 301.296 417.839 301.867C417.523 302.58 416.065 302.175 415.441 302.199C414.211 302.249 412.975 302.457 411.837 302.966C410.955 303.36 410.028 303.939 409.656 304.916C409.427 305.516 409.487 306.133 409.596 306.75C409.725 307.492 409.577 307.885 409.48 308.632C407.827 307.846 402.1 306.097 401.379 308.961C401.139 309.914 401.685 310.992 402.102 311.796C402.833 313.206 403.792 314.495 404.772 315.725C406.816 318.289 409.256 320.501 411.882 322.393C408.806 323.715 408.003 327.614 410.666 329.938C411.842 330.963 413.423 331.192 414.907 331.126C415.45 331.102 416.232 330.9 416.659 330.992C416.889 331.041 417.136 331.229 417.454 331.25C419.547 331.389 421.911 330.901 423.957 330.452C427.604 329.652 431.056 327.982 433.875 325.439C434.598 324.786 435.195 324.411 436.169 324.42C437.022 324.429 437.859 324.655 438.711 324.675C440.966 324.731 442.999 323.666 445.092 322.956C445.221 325.691 446.026 328.702 447.183 331.162C448.127 333.168 450.097 333.46 452.033 333.636C458.225 334.199 464.438 333.57 470.637 333.579C464.636 334.89 458.435 335.43 452.487 336.973C449.799 337.671 451.852 339.422 453.001 340.637C454.894 342.636 456.302 345.114 457.278 347.724C460.214 344.025 465.402 341.587 470 342.724C475.079 343.979 478.656 350.619 475.408 355.393C473.522 358.164 470.117 359.234 467.283 360.425C469.493 362.646 470.028 365.928 471.359 368.692C472.015 370.055 472.936 371.596 474.403 372.071C474.946 372.246 475.583 372.261 476.011 372.689C476.542 373.219 476.668 373.811 477.346 374.266C480.049 376.084 484.273 375.944 486.669 373.572C488.836 371.428 488.272 368.034 486.462 365.86C489.343 364.699 494.592 363.206 493.447 358.867C499.69 358.466 514.848 348.678 506.469 341.526C511.068 339.013 515.292 332.874 512.339 327.461C510.064 323.294 504.775 321.431 500.435 321.21Z" fill="#191847"/>
<path fill-rule="evenodd" clip-rule="evenodd" d="M143.155 385.815C124.882 385.815 118.236 363.863 107.855 351.816C100.427 343.196 87.7505 345.767 83.9982 333.7C74.5626 303.356 99.8168 282 132.763 282C165.708 282 187.922 300.73 192.719 328.886C197.515 357.043 176.101 385.815 143.155 385.815Z" fill="#191847"/>
<path fill-rule="evenodd" clip-rule="evenodd" d="M141.136 366.215C148.503 357.537 153.489 346.902 152.656 334.986C150.255 300.651 102.626 308.204 93.3609 325.534C84.096 342.863 85.1969 386.82 97.171 389.917C101.946 391.152 112.119 388.127 122.472 381.865L115.974 428H154.346L141.136 366.215Z" fill="#B28B67"/>
<path fill-rule="evenodd" clip-rule="evenodd" d="M124.96 344.128C126.355 343.387 127.952 342.967 129.65 342.967C135.086 342.967 139.493 347.277 139.493 352.593C139.493 354.763 138.759 356.766 137.521 358.375C139.853 362.233 141.445 366.286 141.966 370.453C150.05 370.453 179.554 339.758 150.163 310.879C120.771 282 78.2966 323.226 91.0598 325.631C98.398 327.013 113.177 334.043 124.96 344.128Z" fill="#191847"/>
<path fill-rule="evenodd" clip-rule="evenodd" d="M309.416 176.439C318.58 165.686 324.782 152.507 323.746 137.741C320.76 95.1949 261.514 104.554 249.99 126.028C238.465 147.502 239.834 201.972 254.729 205.809C260.669 207.34 273.322 203.591 286.201 195.831L278.117 253H325.848L309.416 176.439Z" fill="#E9B07B"/>
<path fill-rule="evenodd" clip-rule="evenodd" d="M292.897 173.447C298.816 184.804 307.002 193.357 315.18 193.357C330.714 193.357 341.759 172.596 341.759 150.274C341.759 149.49 341.743 148.711 341.712 147.938C358.144 159.21 370.808 181.429 392.55 181.429C422.13 181.429 433.877 121.786 392.55 121.786C364.444 121.786 350.619 125.882 338.705 131.94C336.355 125.317 332.772 119.749 328.39 115.861C327.336 114.675 325.72 113.54 323.635 112.488C322.36 111.791 321.041 111.223 319.686 110.796C312.5 108.156 302.093 106.294 290.467 105.888C288.296 105.812 286.164 105.79 284.084 105.818C284.05 94.8671 275.159 86 264.197 86C253.213 86 244.309 94.901 244.309 105.881C244.309 116.5 252.637 125.174 263.119 125.733C269.116 127.583 276.82 128.941 285.365 129.514C284.535 132.632 284.084 136.175 284.084 140.179C284.084 143.714 284.475 147.463 285.193 151.27C287.047 149.068 289.524 147.631 292.039 147.631C299.075 147.631 303.972 153.417 303.972 159.56C303.972 167.356 299.47 172.996 292.897 173.447Z" fill="#191847"/>
<ellipse opacity="0.3" cx="298" cy="260.5" rx="298" ry="260.5" fill="#C4C4C4"/>
<circle cx="426" cy="477" r="20" fill="white"/>
<circle cx="317" cy="488" r="42" fill="white"/>
</svg>
