<svg width="380" height="400" viewBox="0 0 380 400" fill="none" xmlns="http://www.w3.org/2000/svg">
<path fill-rule="evenodd" clip-rule="evenodd" d="M195.738 89.4901C200.346 84.0814 203.464 77.4529 202.943 70.0255C201.442 48.625 171.651 53.3328 165.857 64.1339C160.062 74.9351 160.75 102.333 168.24 104.263C171.226 105.033 177.589 103.147 184.065 99.2443L180 128H204L195.738 89.4901Z" fill="#B28B67"/>
<path fill-rule="evenodd" clip-rule="evenodd" d="M213.407 62.9017C214.182 62.1335 214.605 61.0371 214.97 59.9959C215.35 58.9144 215.719 57.8217 215.972 56.696C216.475 54.4468 216.48 51.8602 214.876 50.1136C213.589 48.7131 211.658 48.0849 209.876 47.9484C208.689 47.8573 207.469 48.0236 206.331 48.3978C205.202 48.7689 204.229 49.5086 203.134 49.9678C203.092 47.5439 202.677 45.0077 201.447 42.9381C200.264 40.9468 198.378 39.8293 196.229 39.5337C194.024 39.2303 191.846 39.7463 189.872 40.8139C189.378 41.0813 188.888 41.3614 188.419 41.6784C188.027 41.9439 187.619 42.2636 187.159 42.3716C186.645 42.4921 186.391 42.1957 186.058 41.8212C185.666 41.3822 185.226 40.9955 184.76 40.6527C182.698 39.1373 179.993 38.5142 177.604 39.4225C176.504 39.8411 175.433 40.5518 174.687 41.5313C174.021 42.4043 173.546 43.7892 172.628 44.3975C172.238 44.6557 171.963 44.3136 171.608 44.0608C171.075 43.6809 170.566 43.2617 170.027 42.8921C169.269 42.3729 168.448 41.9845 167.57 41.7812C166.283 41.4836 164.506 41.5534 164.138 43.2382C164 43.871 164.106 44.5479 164.15 45.1855C164.211 46.0611 164.275 46.9363 164.351 47.8106C164.409 48.4744 164.482 49.1155 164.607 49.7674C164.674 50.1148 164.883 50.7626 164.734 51.1106C164.548 51.5455 163.689 51.2982 163.321 51.3134C162.596 51.3433 161.868 51.4705 161.197 51.7804C160.678 52.0206 160.131 52.3738 159.912 52.9694C159.777 53.3353 159.813 53.7112 159.876 54.0876C159.953 54.5393 159.865 54.779 159.808 55.2348C158.834 54.7552 155.459 53.6896 155.035 55.4351C154.893 56.0163 155.215 56.673 155.461 57.1632C155.892 58.0229 156.457 58.8087 157.034 59.5581C158.239 61.1214 159.677 62.4698 161.224 63.623C159.411 64.4289 158.938 66.806 160.507 68.2223C161.2 68.8476 162.132 68.9868 163.006 68.9468C163.326 68.9321 163.787 68.8092 164.039 68.8649C164.175 68.8948 164.32 69.0097 164.507 69.0225C165.741 69.107 167.134 68.8098 168.34 68.536C170.488 68.0482 172.523 67.0302 174.184 65.4797C174.61 65.082 174.962 64.853 175.536 64.8589C176.038 64.864 176.532 65.0018 177.034 65.0145C178.362 65.0484 179.56 64.3989 180.794 63.9665C180.87 65.6333 181.345 67.4691 182.026 68.9687C182.582 70.1915 183.743 70.3692 184.884 70.4765C188.533 70.8198 192.194 70.4367 195.848 70.4417C192.311 71.2411 188.657 71.5705 185.152 72.5112C183.568 72.9362 184.778 74.004 185.455 74.7443C186.57 75.9632 187.4 77.4735 187.975 79.0646C189.705 76.8096 192.763 75.3238 195.472 76.0165C198.465 76.7818 200.573 80.8296 198.659 83.7397C197.547 85.429 195.541 86.0811 193.871 86.8069C195.173 88.1612 195.489 90.1614 196.273 91.8462C196.659 92.6771 197.202 93.6165 198.067 93.9061C198.387 94.0132 198.762 94.0224 199.014 94.2832C199.327 94.6061 199.401 94.9671 199.801 95.2446C201.394 96.3523 203.883 96.2669 205.295 94.8214C206.572 93.5141 206.24 91.4454 205.173 90.12C206.871 89.4123 209.964 88.5021 209.289 85.8571C212.968 85.6128 221.9 79.6462 216.963 75.2863C219.673 73.7548 222.162 70.012 220.422 66.7127C219.081 64.1721 215.964 63.0364 213.407 62.9017Z" fill="#191847"/>
<path fill-rule="evenodd" clip-rule="evenodd" d="M247.377 253H170.123L160 377H275L247.377 253Z" fill="#C5CFD6"/>
<path fill-rule="evenodd" clip-rule="evenodd" d="M247.377 253H223.617L209.396 377H275L247.377 253Z" fill="black" fill-opacity="0.1"/>
<path fill-rule="evenodd" clip-rule="evenodd" d="M82.0471 231.756C73.8103 226.81 59.9909 233.165 60.0004 240.238C60.0288 261.403 79.3437 361.151 80.3522 367.457C81.3606 373.762 92.1637 375.428 92.7928 367.477C93.7939 354.827 95.6536 311.033 93.7928 290.763C93.0248 282.395 92.1976 274.427 91.3833 267.318C101.519 285.621 117.193 311.826 138.407 345.934L149.924 340.672C140.88 310.876 133.465 289.841 127.677 277.566C117.767 256.55 108.475 238.552 104.564 232.212C98.4128 222.24 87.7049 225.719 82.0471 231.756Z" fill="#B28B67"/>
<path fill-rule="evenodd" clip-rule="evenodd" d="M149.1 324.125L109.572 230.487C100.103 215.255 73.5532 233.587 76.7824 242.422C84.1138 262.479 121.4 327.414 123.584 333.39L149.1 324.125Z" fill="#FF3E79"/>
<path fill-rule="evenodd" clip-rule="evenodd" d="M151.295 334.767C153.757 336.794 155.358 338.45 156.1 339.734C157.001 341.296 158.057 343.725 159.266 347.021C157.455 348.067 141.173 357.467 110.421 375.222C106.729 371.759 106.154 369.07 108.695 367.157C111.237 365.243 113.334 363.629 114.987 362.315L131.847 339.087C132.171 338.64 132.797 338.54 133.244 338.865C133.251 338.87 133.259 338.876 133.266 338.882L136.769 341.579C139.983 341.299 142.381 340.702 143.964 339.788C145.25 339.045 146.726 337.501 148.393 335.154L148.393 335.154C149.032 334.253 150.28 334.041 151.181 334.681C151.22 334.708 151.258 334.737 151.295 334.767Z" fill="#E4E4E4"/>
<path fill-rule="evenodd" clip-rule="evenodd" d="M95.3219 362.402C96.4406 365.388 97 367.623 97 369.106C97 370.909 96.6996 373.54 96.0988 377C94.0068 377 75.2062 377 39.6969 377C38.2313 372.155 39.0773 369.539 42.2352 369.152C45.393 368.766 48.0163 368.417 50.105 368.106L76.32 356.419C76.8244 356.194 77.4157 356.421 77.6405 356.925C77.6444 356.934 77.6481 356.942 77.6517 356.951L79.3368 361.039C82.2601 362.403 84.6356 363.085 86.4633 363.085C87.9483 363.085 89.999 362.485 92.6155 361.286L92.6155 361.285C93.6196 360.825 94.8067 361.266 95.267 362.27C95.2869 362.313 95.3052 362.357 95.3219 362.402Z" fill="#E4E4E4"/>
<path fill-rule="evenodd" clip-rule="evenodd" d="M57.2296 247.433C57.2296 274 69.8464 335.97 69.8544 341.82L97 341.841C93.0267 286.545 91.6178 258.6 92.7733 258.004C94.5065 257.111 163.824 264.925 184.614 264.925C214.592 264.925 226.994 246.02 228 211H168.614C156.522 212.294 93.4512 225.015 70.0279 229.388C60 231.261 57.2296 240.115 57.2296 247.433Z" fill="#FF3E79"/>
<path fill-rule="evenodd" clip-rule="evenodd" d="M159.361 148.7L124.652 129.69C118.88 122.836 113.192 117.512 107.59 113.72C105.879 113.005 102.885 112.573 105.685 117.542C108.484 122.51 111.205 127.863 109.779 129.394C108.353 130.924 104.796 128.786 103.095 131.329C101.961 133.025 108.036 135.704 121.323 139.365L146.544 162.458L159.361 148.7ZM104.999 164.74L89.7529 156.364C87.6135 148.224 85.0563 144.128 82.081 144.077C79.7954 143.014 83.7758 153.3 79.443 152.408C75.1102 151.516 64.5351 143.651 62.7129 145.248C60.0172 147.61 62.4209 154.864 65.253 158.473C70.5462 165.218 74.9288 167.524 85.761 170.544C91.4246 172.123 97.548 175.289 104.131 180.04L104.999 164.74Z" fill="#997659"/>
<path fill-rule="evenodd" clip-rule="evenodd" d="M176.265 144.465C164.107 144.337 147.895 141.769 130.596 130.789L123.803 145.939C135.735 157.78 152.513 167.51 167.183 167.098C178.743 166.773 184.652 152.789 176.265 144.465Z" fill="#475168"/>
<path fill-rule="evenodd" clip-rule="evenodd" d="M159.895 168.761C146.988 171.98 125.344 168.184 94.9633 157.373C87.4276 172.964 83.944 184.078 84.5126 190.717C110.575 204.331 132.913 210.401 151.316 210.802C150.731 221.721 152.06 232.112 156.525 241.606C165.705 261.124 219.454 243.048 237.526 246.606C248.844 209.851 226.961 194.914 226.944 171.397C226.924 145.642 206.245 106 203.202 106H175.456C173.925 125.669 166.219 147.346 159.895 168.761Z" fill="#475168"/>
<ellipse cx="171.5" cy="385.5" rx="138.5" ry="6.5" fill="#C5CFD6" fill-opacity="0.38"/>
<path d="M310 92C333.196 92 352 73.196 352 50C352 26.804 333.196 8 310 8C286.804 8 268 26.804 268 50C268 73.196 286.804 92 310 92Z" fill="#F2F2F2"/>
<path d="M310 19.0943C311.313 19.0943 312.378 18.0299 312.378 16.717C312.378 15.404 311.313 14.3396 310 14.3396C308.687 14.3396 307.623 15.404 307.623 16.717C307.623 18.0299 308.687 19.0943 310 19.0943Z" fill="black" fill-opacity="0.1"/>
<path d="M276.717 52.3773C278.03 52.3773 279.095 51.313 279.095 50C279.095 48.687 278.03 47.6226 276.717 47.6226C275.404 47.6226 274.34 48.687 274.34 50C274.34 51.313 275.404 52.3773 276.717 52.3773Z" fill="black" fill-opacity="0.1"/>
<path d="M343.284 52.3773C344.597 52.3773 345.661 51.313 345.661 50C345.661 48.687 344.597 47.6226 343.284 47.6226C341.971 47.6226 340.906 48.687 340.906 50C340.906 51.313 341.971 52.3773 343.284 52.3773Z" fill="black" fill-opacity="0.1"/>
<path d="M310 85.6604C311.313 85.6604 312.378 84.596 312.378 83.283C312.378 81.97 311.313 80.9056 310 80.9056C308.687 80.9056 307.623 81.97 307.623 83.283C307.623 84.596 308.687 85.6604 310 85.6604Z" fill="black" fill-opacity="0.1"/>
<path fill-rule="evenodd" clip-rule="evenodd" d="M310.001 21.4717L311.586 49.2075H308.416L310.001 21.4717Z" fill="#AFB9C5"/>
<path fill-rule="evenodd" clip-rule="evenodd" d="M324.026 64.0252L309.457 51.6975L311.698 49.4561L324.026 64.0252Z" fill="#AFB9C5"/>
<path d="M310 53.1698C311.751 53.1698 313.17 51.7506 313.17 50C313.17 48.2494 311.751 46.8302 310 46.8302C308.249 46.8302 306.83 48.2494 306.83 50C306.83 51.7506 308.249 53.1698 310 53.1698Z" fill="#C5CFD6"/>
</svg>
