<svg width="248" height="558" viewBox="0 0 248 558" fill="none" xmlns="http://www.w3.org/2000/svg">
<path d="M51.1034 144.291C35.0642 160.688 23.9107 182.649 22.5165 205.906C21.1347 229.027 29.216 252.37 25.4036 275.195C21.986 295.578 9.47545 313.073 3.73835 332.887C-3.20786 356.884 0.246722 383.041 8.1923 406.803C16.5944 431.911 31.2394 456.537 54.4963 468.135C70.0913 475.908 87.9565 477.055 105.254 476.858C121.441 476.673 137.789 475.402 153.199 470.417C190.102 458.487 218.269 425.705 231.816 388.494C245.35 351.283 245.671 310.099 239.823 270.705C233.087 225.363 217.64 179.935 187.239 146.191C170.324 127.413 148.572 107.253 122.416 105.525C94.7053 103.712 69.4744 125.513 51.1034 144.291Z" fill="#F3F8F5"/>
<path d="M50.7824 460.597C50.7824 460.597 45.5265 527.369 51.3253 557.806H197.603C197.603 557.806 202.995 503.063 191.125 462.756L50.7824 460.597Z" fill="#0B2E4A"/>
<path d="M137.653 83.5886C58.8885 76.7411 59.6904 146.721 58.5923 170.324C57.4943 193.926 17.458 222.303 56.3962 264.745C95.3345 307.188 180.466 293.295 198.59 254.863C216.702 216.43 187.066 192.828 190.361 163.18C193.643 133.557 188.152 87.9809 137.653 83.5886Z" fill="#70313A"/>
<path d="M164.155 244.635C176.777 246.276 188.313 252.864 196.542 258.354C204.771 263.845 241.008 312.703 246.498 339.056C251.988 365.41 217.109 432.849 212.458 437.87C207.806 442.904 191.594 427.987 188.3 421.399C188.3 421.399 208.065 364.855 208.065 351.678C208.065 338.501 185.179 324.559 185.179 324.559C185.179 324.559 168.992 402.288 198.676 464.359C198.676 464.359 135.938 511.046 47.55 462.743C47.55 462.743 63.7373 401.313 63.7373 362.893C63.7373 324.473 62.0347 309.964 62.0347 309.964C62.0347 309.964 76.8524 262.204 76.8524 260.55C76.8524 258.897 88.9312 241.34 88.9312 241.34C88.9312 241.34 122.416 249.027 126.266 246.831C130.115 244.635 164.155 244.635 164.155 244.635Z" fill="#FF3E79"/>
<path d="M190.509 428C190.509 428 177.887 428.555 171.842 433.49C165.808 438.425 179.553 439.98 185.561 437.882C191.57 435.785 190.509 428 190.509 428Z" fill="#E4AD8B"/>
<path d="M193.248 416.476C193.248 416.476 191.051 424.163 187.214 429.098C183.377 434.033 173.495 441.72 170.743 444.471C168.004 447.21 170.164 450.911 173.482 451.602C173.482 451.602 172.384 457.635 178.418 457.635C178.418 457.635 179.799 460.14 185.549 461.472C185.549 461.472 189.176 464.397 193.778 462.028C198.38 459.659 204.623 452.54 206.955 448.308C209.274 444.076 212.445 433.49 213.543 426.902C214.654 420.313 193.248 416.476 193.248 416.476Z" fill="#E4AD8B"/>
<path d="M138.899 205.104C138.899 205.104 137.258 223.216 143.292 232.556C149.325 241.883 164.155 244.635 164.155 244.635C164.155 244.635 153.174 266.041 120.787 264.4C88.4005 262.759 78.5178 245.19 78.5178 245.19C78.5178 245.19 93.3356 240.255 98.2831 230.372C103.218 220.489 103.773 208.966 103.773 207.313C103.773 205.659 138.899 205.104 138.899 205.104Z" fill="#E4AD8B"/>
<path d="M195.789 399.055C191.767 411.529 188.312 421.411 188.312 421.411C191.607 428 207.819 442.916 212.47 437.882C214.222 435.982 220.305 425.162 226.881 411.023C217.714 405.606 205.548 401.547 195.789 399.055Z" fill="#FF2366"/>
<path d="M79.6652 62.7871C77.1113 55.4338 69.6346 51.2142 62.0962 51.1155C55.6681 51.0291 45.7485 54.4221 45.4648 61.9975C45.3907 63.9592 47.5375 65.2423 49.2401 65.193C51.9174 65.119 54.2739 63.2066 56.7415 62.2813C59.0117 61.4299 61.4299 61.1585 63.8111 61.689C68.5859 62.7501 70.9547 66.5872 69.5605 71.2879C68.1417 76.038 61.689 79.3692 58.2468 82.5277C53.4967 86.8829 50.0421 93.0889 50.2888 99.665C50.5603 107.08 61.1092 106.907 62.7377 100.257C63.7124 96.2597 64.576 93.6194 67.6235 90.6707C70.3872 87.9933 73.6814 85.7725 75.9269 82.6017C79.838 77.1237 81.9231 69.3138 79.6652 62.7871Z" fill="#3F3D56"/>
<path d="M59.6532 120.084C59.8383 119.245 59.8012 118.418 59.5545 117.616C59.4434 116.79 59.1473 116.025 58.6415 115.346C58.296 114.84 57.9011 114.372 57.4323 113.964C56.7784 113.348 56.0135 112.94 55.1622 112.755C54.3726 112.422 53.5336 112.299 52.6699 112.41L51.0537 112.755C50.2394 113.014 49.5361 113.446 48.9562 114.051C48.475 114.384 48.105 114.803 47.8582 115.334C47.3153 116.025 46.9822 116.815 46.8465 117.703L46.7725 119.381C46.8712 120.504 47.229 121.528 47.8582 122.465C48.5244 123.452 48.8698 123.674 49.7212 124.242C49.9556 124.39 50.2517 124.612 50.5355 124.772L52.1764 125.303C53.0154 125.488 53.8421 125.451 54.644 125.204C55.1992 125.155 55.7174 124.97 56.1862 124.661C56.9635 124.341 57.6298 123.859 58.1726 123.181C58.4934 122.7 58.8019 122.218 59.1227 121.737C59.2954 121.182 59.4681 120.627 59.6532 120.084Z" fill="#3F3D56"/>
<path d="M128.782 3.78742C122.811 -1.20941 114.236 -0.974996 107.722 2.81273C102.17 6.04524 95.3962 14.0525 99.0482 20.6903C99.9982 22.4052 102.503 22.4052 103.934 21.4922C106.192 20.0487 107.228 17.1987 108.881 15.1382C110.387 13.2506 112.324 11.77 114.643 10.9927C119.282 9.43815 123.292 11.5232 124.501 16.2733C125.723 21.0851 121.91 27.254 120.578 31.7327C118.739 37.9139 118.974 45.0082 122.564 50.5232C126.611 56.7415 135.568 51.1771 133.545 44.6257C132.323 40.6899 131.719 37.9879 132.817 33.8918C133.816 30.1781 135.494 26.5754 135.79 22.7013C136.296 16.0019 134.063 8.21671 128.782 3.78742Z" fill="#3F3D56"/>
<path d="M141.071 63.2189C140.8 62.4046 140.343 61.7137 139.714 61.1462C139.196 60.4922 138.542 59.9987 137.764 59.6656C137.209 59.4065 136.617 59.2091 136.012 59.0981C135.136 58.913 134.273 58.95 133.434 59.2214C132.583 59.3448 131.805 59.6656 131.114 60.2085L129.905 61.3312C129.338 61.9728 128.955 62.7007 128.77 63.5274C128.523 64.0579 128.437 64.6131 128.486 65.193C128.375 66.069 128.499 66.9203 128.844 67.7469L129.634 69.2151C130.3 70.1281 131.139 70.819 132.151 71.3002C133.237 71.8061 133.644 71.8184 134.668 71.8677C134.939 71.8801 135.322 71.9171 135.642 71.9048L137.32 71.5099C138.135 71.2385 138.826 70.782 139.393 70.1528C139.85 69.8197 140.195 69.4002 140.429 68.8943C140.935 68.2281 141.256 67.4631 141.367 66.6118C141.392 66.0319 141.416 65.4644 141.441 64.8845C141.33 64.3417 141.194 63.7741 141.071 63.2189Z" fill="#3F3D56"/>
<path d="M212.335 62.9844C206.955 57.346 198.417 56.6181 191.508 59.6532C185.623 62.2441 177.998 69.4371 180.885 76.445C181.638 78.2586 184.118 78.5424 185.648 77.7898C188.054 76.6177 189.411 73.9034 191.274 72.028C192.976 70.3131 195.074 69.0669 197.455 68.5611C202.242 67.5371 205.993 70.054 206.659 74.9151C207.338 79.8379 202.847 85.5256 201.021 89.8315C198.504 95.7661 197.936 102.848 200.885 108.733C204.216 115.371 213.741 110.843 212.458 104.106C211.693 100.06 211.385 97.3083 212.939 93.3602C214.346 89.7822 216.418 86.3893 217.146 82.5769C218.442 75.9638 217.097 67.9689 212.335 62.9844Z" fill="#3F3D56"/>
<path d="M217.874 123.415C217.689 122.576 217.319 121.836 216.764 121.207C216.32 120.503 215.727 119.936 214.987 119.516C214.469 119.195 213.901 118.936 213.309 118.764C212.458 118.48 211.594 118.418 210.743 118.603C209.879 118.628 209.077 118.862 208.325 119.319L207.005 120.306C206.363 120.873 205.907 121.564 205.635 122.354C205.339 122.847 205.179 123.39 205.166 123.97C204.957 124.822 204.981 125.685 205.228 126.549L205.845 128.103C206.4 129.078 207.153 129.868 208.115 130.46C209.139 131.077 209.534 131.151 210.546 131.299C210.817 131.336 211.187 131.422 211.508 131.435L213.223 131.237C214.062 131.052 214.802 130.682 215.431 130.127C215.925 129.855 216.307 129.473 216.603 128.992C217.183 128.387 217.578 127.659 217.8 126.82C217.887 126.253 217.973 125.685 218.059 125.118C218.01 124.562 217.948 123.983 217.874 123.415Z" fill="#3F3D56"/>
<path d="M68.7711 160.268C68.623 159.997 68.2283 160.071 68.1419 160.355C67.34 162.872 67.2165 165.463 66.9328 168.066C66.649 170.805 66.0322 173.495 65.2919 176.135C63.799 181.428 61.6892 186.511 59.4684 191.533C55.1378 201.341 50.6592 211.199 49.9065 222.056C49.7091 224.906 49.8325 227.756 50.2767 230.594C50.5111 232.075 50.7949 233.555 51.4118 234.937C52.0287 236.319 52.9047 236.812 54.0891 237.651C54.3729 237.861 54.6813 237.565 54.706 237.294C54.8787 235.961 55.1995 235.073 54.9528 233.703C54.7307 232.47 54.3852 231.273 54.1755 230.027C53.756 227.571 53.6943 225.042 53.8423 222.562C54.1508 217.306 55.5079 212.149 57.2229 207.189C60.7268 197.048 65.9951 187.498 68.6354 177.06C69.3386 174.284 69.8445 171.447 70.0912 168.584C70.3503 165.709 70.2393 162.822 68.7711 160.268Z" fill="#54252B"/>
<path d="M73.3606 180.28C73.3359 180.132 73.1261 180.157 73.0891 180.28C72.5586 182.02 71.9664 183.673 71.5592 185.462C71.1274 187.325 70.6215 189.164 70.0787 190.99C69.0299 194.518 67.6235 197.924 66.217 201.317C64.8845 204.537 63.4903 207.745 62.5402 211.1C61.6396 214.296 60.9487 217.714 63.1818 220.465C63.3299 220.65 63.6137 220.564 63.7247 220.391C65.489 217.578 65.637 214.296 66.55 211.137C67.5494 207.708 68.9559 204.401 70.2514 201.07C71.5469 197.714 72.4722 194.222 73.1014 190.681C73.4099 188.966 73.595 187.214 73.7307 185.475C73.8787 183.636 73.632 182.069 73.3606 180.28Z" fill="#54252B"/>
<path d="M76.2231 205.45C76.0873 205.227 75.8406 205.141 75.6062 205.19C74.9152 205.326 74.4587 205.906 74.0639 206.461C73.6938 206.992 73.3977 207.621 73.1509 208.213C72.8919 208.83 72.7068 209.472 72.5217 210.113C72.2996 210.878 72.2009 211.68 72.3613 212.482C72.4107 212.741 72.534 212.988 72.6327 213.235C72.7314 213.482 72.8054 213.827 73.0152 213.987C73.4593 214.333 73.8665 213.741 74.138 213.457C74.6438 212.939 75.0632 212.346 75.3223 211.656C75.5444 211.051 75.6678 210.385 75.8652 209.768C76.075 209.102 76.2107 208.411 76.3588 207.72C76.4575 207.3 76.4698 206.881 76.5068 206.461C76.5191 206.091 76.4205 205.783 76.2231 205.45Z" fill="#54252B"/>
<path d="M193.753 217.257C192.174 211.841 189.854 206.696 188.028 201.366C186.153 195.863 184.944 190.237 184.105 184.488C183.624 181.181 183.365 177.85 183.291 174.506C183.217 171.422 183.649 167.98 182.748 165.019C182.637 164.661 182.143 164.587 181.946 164.92C180.638 167.165 180.465 170.003 180.268 172.569C180.046 175.407 180.058 178.282 180.182 181.132C180.404 186.733 181.304 192.285 182.723 197.714C185.388 207.905 190.632 217.602 190.681 228.349C190.693 230.853 190.385 233.321 189.645 235.714C189.25 236.973 188.732 238.182 188.325 239.44C187.93 240.637 187.745 241.883 187.412 243.092C187.227 243.783 187.954 244.215 188.522 243.944C193.21 241.822 194.642 237.059 195.271 232.284C195.937 227.226 195.184 222.155 193.753 217.257Z" fill="#54252B"/>
<path d="M179.898 229.521C179.528 224.758 177.295 220.514 175.678 216.097C172.372 207.066 170.706 197.368 170.558 187.757C170.521 185.105 170.608 182.452 170.817 179.812C170.928 178.417 171.027 177.011 171.175 175.617C171.323 174.198 171.187 172.865 171.224 171.459C171.224 171.311 170.99 171.224 170.928 171.372C170.509 172.285 169.917 173.112 169.596 174.074C169.226 175.148 168.991 176.295 168.732 177.406C168.202 179.676 167.869 181.995 167.597 184.315C167.042 188.954 166.795 193.716 167.165 198.38C167.548 203.068 168.288 207.757 169.448 212.322C170.595 216.85 172.471 221.119 173.704 225.597C174.297 227.756 174.556 229.916 174.358 232.161C174.272 233.21 174.309 234.259 174.284 235.307C174.272 236.245 174 237.183 173.926 238.133C173.914 238.355 174.136 238.601 174.358 238.564C175.974 238.367 177.443 237.183 178.38 235.887C179.701 234.049 180.071 231.754 179.898 229.521Z" fill="#54252B"/>
<path d="M165.241 230.162C164.932 228.09 164.217 226.103 163.551 224.129C162.847 222.056 162.095 220.021 161.293 217.985C160.614 216.257 160.01 213.839 158.344 212.815C158.245 212.754 158.147 212.815 158.11 212.914C157.431 214.543 158.171 216.665 158.578 218.281C159.097 220.329 159.627 222.352 160.232 224.376C160.799 226.251 161.416 228.139 161.737 230.076C162.008 231.704 161.786 233.95 162.699 235.381C162.897 235.69 163.254 235.764 163.575 235.616C165.463 234.715 165.5 231.902 165.241 230.162Z" fill="#54252B"/>
<path d="M155.605 224.623C155.457 224.228 155.222 223.882 154.988 223.537C154.741 223.179 154.445 222.969 154.075 222.76C153.73 222.562 153.174 222.722 153.088 223.154C153.014 223.549 152.952 223.882 153.002 224.289C153.026 224.487 153.051 224.993 153.113 225.289C153.174 225.597 153.248 225.893 153.298 226.202C153.31 226.251 153.359 226.609 153.322 226.374C153.359 226.634 153.384 226.88 153.433 227.139C153.458 227.287 153.495 227.448 153.52 227.596C153.532 227.645 153.594 228.065 153.557 227.843C153.606 228.225 153.693 228.571 153.779 228.941C153.853 229.274 153.927 229.57 154.063 229.891C154.186 230.162 154.285 230.434 154.383 230.717C154.445 230.902 154.729 231.038 154.877 230.853C155.321 230.298 155.728 229.767 155.913 229.076C156.111 228.336 156.16 227.621 156.111 226.856C156.086 226.091 155.876 225.326 155.605 224.623Z" fill="#54252B"/>
<path d="M121.7 111.978C121.54 111.682 121.059 111.744 120.985 112.077C119.998 116.136 117.518 119.998 114.84 123.156C111.756 126.796 108.523 130.546 104.736 133.458C97.6661 138.899 89.4122 141.12 80.714 142.341C78.197 142.699 75.6554 142.909 73.1262 143.156C70.9917 143.366 68.2157 143.18 66.328 144.316C66.2293 144.377 66.2169 144.538 66.328 144.599C68.154 145.574 70.6339 145.29 72.645 145.327C75.0508 145.364 77.469 145.278 79.8749 145.13C84.6867 144.846 89.4738 144.106 94.1252 142.847C98.6038 141.638 103.082 139.8 106.808 137.012C110.979 133.89 114.668 129.954 117.962 125.932C121.133 122.058 124.464 117.012 121.7 111.978Z" fill="#54252B"/>
<path d="M117.296 99.8376C117.135 99.5045 116.691 99.6402 116.58 99.9363C114.791 104.686 112.978 109.609 109.523 113.434C106.118 117.209 101.799 120.269 97.5059 122.934C93.0396 125.698 88.1785 127.758 83.2433 129.523C80.8251 130.386 78.3698 131.126 75.8776 131.743C74.5574 132.064 73.2373 132.41 71.9172 132.767C70.8931 133.039 69.7703 133.224 68.9314 133.915C68.7957 134.026 68.8327 134.273 68.9931 134.347C70.5847 135.124 73.0029 134.68 74.7178 134.482C76.9386 134.223 79.1718 133.717 81.3433 133.187C85.6492 132.138 89.7947 130.645 93.8292 128.807C101.787 125.204 109.955 120.602 115.063 113.286C117.765 109.387 119.529 104.378 117.296 99.8376Z" fill="#54252B"/>
<path d="M108.339 97.7896C108.24 97.4811 107.82 97.4811 107.722 97.7896C107.265 99.1591 105.834 100.109 104.946 101.219C104.193 102.169 103.342 103.045 102.478 103.897C100.64 105.71 98.5177 107.216 96.2722 108.486C94.039 109.745 91.6948 110.757 89.2889 111.645C88.1045 112.089 86.9571 112.595 85.748 112.965C84.4155 113.36 83.12 113.237 81.7752 113.422C81.3434 113.483 81.1089 114.125 81.3557 114.47C83.083 116.852 87.2408 115.457 89.5234 114.779C92.4598 113.903 95.3715 112.595 98.0489 111.114C100.64 109.671 103.144 107.919 105.217 105.784C107.265 103.662 109.387 100.862 108.339 97.7896Z" fill="#54252B"/>
<path d="M179.923 140.54C175.938 139.775 171.829 139.763 167.832 138.961C164.278 138.245 160.725 137.197 157.418 135.704C150.596 132.619 144.624 127.857 139.973 121.996C138.653 120.331 137.48 118.542 136.321 116.765C135.173 115.001 134.26 113.236 132.743 111.768C132.385 111.423 131.83 111.682 131.805 112.163C131.558 116.012 133.977 119.998 136.074 123.107C138.369 126.512 141.071 129.633 144.131 132.36C150.287 137.838 157.924 142.169 166.03 143.871C170.373 144.784 177.591 145.981 180.194 141.194C180.33 140.972 180.231 140.602 179.923 140.54Z" fill="#54252B"/>
<path d="M178.973 127.129C177.628 127.857 175.79 126.969 174.408 126.598C172.335 126.056 170.336 125.303 168.301 124.624C163.945 123.156 159.689 121.392 155.728 119.023C152.064 116.827 148.609 114.149 145.772 110.942C144.328 109.301 143.07 107.512 142.033 105.587C141.058 103.773 139.985 101.873 139.183 99.9856C139.121 99.8499 138.924 99.9363 138.924 100.06C138.862 102.527 139.134 104.588 140.072 106.907C140.985 109.153 142.132 111.275 143.526 113.249C146.537 117.53 150.349 120.923 154.766 123.711C159.417 126.66 164.587 129.017 169.818 130.744C172.027 131.472 174.272 132.064 176.567 131.324C178.27 130.769 179.429 129.239 179.602 127.487C179.627 127.154 179.219 126.993 178.973 127.129Z" fill="#54252B"/>
<path d="M169.016 113.175C166.487 110.831 163.477 109.128 160.799 106.981C159.454 105.896 158.147 104.76 156.925 103.539C156.308 102.934 155.667 102.367 155.038 101.775C154.408 101.195 153.693 100.775 153.002 100.294C152.866 100.208 152.681 100.356 152.73 100.504C152.989 101.368 153.236 102.182 153.717 102.959C154.186 103.699 154.667 104.39 155.235 105.057C156.456 106.463 157.776 107.759 159.22 108.943C162.008 111.25 165.105 113.323 168.794 113.73C169.066 113.755 169.201 113.36 169.016 113.175Z" fill="#54252B"/>
<path d="M143.427 232.753C143.378 232.692 143.328 232.618 143.291 232.556C137.258 223.228 138.899 205.104 138.899 205.104C138.899 205.104 103.761 205.647 103.761 207.3C103.761 208.719 103.341 217.454 100.084 226.165C111.558 236.467 129.436 239.465 143.427 232.753Z" fill="#D7825F"/>
<path d="M78.9497 156.579C78.9497 156.579 112.003 155.962 126.845 128.819C126.845 128.819 133.656 152.31 163.427 159.775C163.427 159.775 163.427 228.102 115.309 226.387C74.2736 224.906 78.9497 156.579 78.9497 156.579Z" fill="#E4AD8B"/>
<path d="M63.7249 250.508C66.3898 242.673 63.7249 229.447 67.7347 222.932C71.7445 216.418 90.3746 212.544 99.8254 214.913C107.845 216.924 110.35 226.449 110.855 230.458C111.361 234.468 106.846 235.468 106.846 235.468C106.846 235.468 105.785 237.528 101.331 238.972C96.8766 240.415 94.8163 235.961 94.8163 235.961C94.8163 235.961 94.0513 240.539 91.8058 245.486C89.5603 250.433 90.8064 252.506 85.2914 258.527C79.7764 264.548 63.7249 250.508 63.7249 250.508Z" fill="#E4AD8B"/>
<path d="M60.7391 246.202C65.6742 248.398 87.2901 251.778 92.2376 258.922C92.2376 258.922 64.7859 357.736 46.1187 370.913C27.4515 384.089 -0.000183582 368.716 2.75116 342.363C5.49016 316.009 60.7391 246.202 60.7391 246.202Z" fill="#FF3E79"/>
<path d="M184.389 157.097C183.303 156.851 182.649 156.234 181.44 156.234C180.132 156.234 178.862 156.567 177.579 156.74C175.136 157.06 172.68 157.233 170.213 157.196C165.401 157.135 160.626 156.296 156.086 154.753C147.45 151.829 140.318 146.117 135.087 138.924C133.619 136.9 132.311 134.778 131.201 132.558C130.399 130.941 129.905 128.844 128.844 127.265C128.881 126.648 128.795 126.006 128.733 125.278C128.696 124.957 128.388 124.748 128.079 124.908C127.141 125.402 126.216 125.661 125.451 126.45C124.661 127.24 124.106 128.313 123.465 129.226C122.206 131.015 120.837 132.718 119.344 134.334C116.346 137.591 112.965 140.515 109.264 143.008C105.562 145.488 101.565 147.61 97.3825 149.238C93.1383 150.892 88.7707 151.916 84.3044 152.804C79.2582 153.816 74.2244 153.692 69.1165 154.087C68.4133 154.136 68.2775 155.037 68.9561 155.271C73.3854 156.814 78.4686 156.814 83.1199 156.53C87.8947 156.234 92.5831 155.111 97.074 153.532C106.142 150.361 114.47 145.142 121.096 138.356C122.922 136.493 124.6 134.495 126.142 132.409C126.364 132.113 126.574 131.83 126.796 131.533C127.018 132.101 127.24 132.644 127.45 133.162C128.326 135.334 129.35 137.468 130.547 139.491C132.965 143.6 136.234 147.301 139.899 150.41C147.733 157.048 157.616 160.91 168.004 161.551C170.978 161.737 173.964 161.65 176.912 161.255C178.368 161.058 179.91 160.861 181.317 160.416C181.996 160.194 182.748 159.874 183.291 159.417C183.883 158.923 184.044 158.245 184.562 157.702C184.735 157.505 184.673 157.159 184.389 157.097Z" fill="#54252B"/>
<path d="M112.225 229.854C111.867 227.929 110.72 226.091 109.77 224.4C108.844 222.735 107.833 221.143 106.648 219.65C104.452 216.874 101.466 214.431 97.9499 213.629C95.6181 213.099 93.1999 213.222 90.8557 213.543C89.5109 213.728 88.1537 213.95 86.8212 214.197C85.7848 214.394 84.5757 214.518 83.7985 215.27C83.6998 215.369 83.7244 215.542 83.8478 215.616C85.5257 216.578 88.5361 215.752 90.3745 215.616C92.8667 215.418 95.396 215.233 97.8142 215.998C101.565 217.183 103.909 220.354 105.821 223.598C106.809 225.264 107.722 226.979 108.536 228.731C109.585 230.952 109.017 232.741 107.611 234.653C106.352 236.368 104.785 238.095 103.132 239.44C102.281 240.131 101.331 240.723 100.282 241.032C99.1961 241.365 98.0363 241.316 96.9382 241.587C96.7038 241.649 96.5188 241.797 96.3707 241.982C97.3084 239.601 98.0733 237.133 98.4188 234.591C98.5792 233.419 98.6902 232.161 98.6409 230.915C98.7149 231.05 98.8136 231.174 98.8876 231.31C99.4182 232.235 99.8007 233.284 100.381 234.172C100.726 234.69 101.873 236.183 102.256 234.888C102.589 233.777 102.095 232.58 101.627 231.581C100.701 229.607 99.3194 227.781 97.7032 226.313C96.8025 225.498 95.8278 224.783 94.7668 224.191C94.2979 223.932 93.8661 223.722 93.3109 223.783C92.8914 223.82 92.435 224.03 92.3609 224.487C92.3116 224.783 92.5953 225.054 92.8915 224.894C93.1259 224.758 93.5577 225.178 93.7181 225.301C94.1376 225.634 94.5323 225.992 94.9148 226.362C95.5934 227.016 96.235 227.695 96.8395 228.398C96.6421 230.31 96.6175 232.223 96.1733 234.123C95.5934 236.627 94.7298 239.033 93.6687 241.377C92.62 243.697 91.4725 245.955 90.2881 248.212C89.7082 249.323 89.1037 250.421 88.5485 251.531C88.2647 252.099 87.907 252.703 87.7219 253.32C87.6972 253.419 87.4998 254.677 87.6108 254.357C87.4998 254.677 87.6972 254.974 87.944 255.159C89.9674 256.689 91.6946 251.803 92.2992 250.606C93.6317 248.015 94.9888 245.424 96.0869 242.734C96.0746 243.031 96.1733 243.327 96.4324 243.536C99.8377 246.263 104.575 242.71 106.969 240.217C109.597 237.515 112.99 233.987 112.225 229.854Z" fill="#D7825F"/>
<path d="M103.946 153.372C103.588 153.446 103.255 153.606 102.91 153.766C102.799 153.816 102.688 153.865 102.577 153.927C103.218 153.618 102.293 154.038 102.243 154.075C102.021 154.174 101.812 154.297 101.602 154.408C101.602 154.408 101.602 154.408 101.59 154.408C101.441 154.47 101.293 154.519 101.145 154.568C100.689 154.729 100.22 154.852 99.7388 154.938C99.6154 154.963 99.5044 154.975 99.381 155C100.084 154.864 99.1836 155.025 99.1466 155.025C99.1343 155.025 99.1096 155.025 99.0972 155.037C99.0972 155.037 99.0726 155.037 99.0109 155.05C98.8628 155.062 98.7024 155.087 98.5544 155.087C97.481 155.161 96.3583 155.074 95.2849 154.938C95.2232 154.926 95.0998 154.901 95.0505 154.901C94.8037 154.852 94.5569 154.815 94.3101 154.778C93.903 154.729 94.1374 154.778 93.718 154.704C93.0764 154.581 92.1141 154.334 91.7439 155.099C91.1887 156.222 92.5582 157.505 93.4095 158.109C94.3595 158.776 95.4699 159.281 96.605 159.466C99.1712 159.886 101.614 159.553 103.983 158.479C105.266 157.9 106.722 156.764 106.697 155.222C106.685 153.729 105.291 153.088 103.946 153.372Z" fill="#70313A"/>
<path d="M147.351 158.603C145.784 157.641 144.019 158.085 142.329 158.368C142.255 158.381 142.206 158.381 142.169 158.393C141.984 158.418 141.799 158.43 141.614 158.455C141.231 158.492 140.861 158.504 140.479 158.516C139.886 158.529 139.319 158.479 138.739 158.43C138.443 158.405 138.147 158.393 137.851 158.368C137.801 158.368 137.776 158.368 137.739 158.356C137.702 158.344 137.665 158.344 137.591 158.319C137.012 158.196 136.444 158.048 135.889 157.85C134.988 157.542 134.149 157.036 133.076 156.826C132.447 156.703 131.891 157.098 131.854 157.752C131.719 160.713 135.346 162.563 137.739 163.254C139.269 163.698 141.034 163.661 142.601 163.513C144.661 163.328 146.82 163.057 148.042 161.181C148.597 160.33 148.202 159.121 147.351 158.603Z" fill="#70313A"/>
<path d="M101.306 168.054C100.664 167.412 99.6156 166.931 98.6902 166.968C97.7402 167.005 96.7409 167.326 96.0746 168.054C95.8772 168.3 95.6922 168.547 95.4948 168.806C95.1617 169.386 94.9889 170.003 94.9889 170.669C94.9149 171.459 94.8285 172.236 94.7545 173.026C94.7298 173.285 94.7051 173.532 94.6804 173.791C94.6558 173.951 94.6311 174.099 94.5941 174.259C94.6065 174.259 94.6188 174.259 94.6188 174.272C94.4584 174.864 94.4214 175.481 94.5941 176.085C94.8162 176.875 95.4207 177.739 96.161 178.134C96.9506 178.553 97.913 178.763 98.8013 178.479C99.2455 178.331 99.665 178.121 100.035 177.837C100.726 177.652 101.244 177.258 101.565 176.616C101.688 176.32 101.812 176.024 101.935 175.74C102.108 175.259 102.17 174.741 102.207 174.222C102.231 173.828 102.244 173.433 102.256 173.05C102.293 172.261 102.33 171.483 102.367 170.694C102.416 169.731 101.96 168.707 101.306 168.054Z" fill="#54252B"/>
<path d="M138.727 171.298C138.085 170.657 137.036 170.176 136.111 170.213C135.161 170.25 134.162 170.57 133.495 171.298C133.298 171.545 133.113 171.792 132.915 172.051C132.582 172.631 132.41 173.248 132.41 173.914C132.336 174.704 132.249 175.481 132.175 176.271C132.15 176.53 132.126 176.776 132.101 177.036C132.076 177.196 132.052 177.344 132.015 177.504C132.027 177.504 132.039 177.504 132.039 177.517C131.879 178.109 131.842 178.726 132.015 179.33C132.237 180.12 132.841 180.984 133.582 181.378C134.371 181.798 135.334 182.008 136.222 181.724C136.666 181.576 137.086 181.366 137.456 181.082C138.147 180.897 138.665 180.502 138.986 179.861C139.109 179.565 139.232 179.269 139.356 178.985C139.529 178.504 139.59 177.973 139.627 177.467C139.652 177.073 139.664 176.678 139.677 176.295C139.714 175.506 139.751 174.728 139.788 173.939C139.837 172.976 139.38 171.94 138.727 171.298Z" fill="#54252B"/>
<path d="M119.319 188.152C119.122 188.189 118.937 188.238 118.739 188.275C118.53 188.312 118.53 188.312 118.431 188.312C118.073 188.3 117.765 188.325 117.407 188.386C117.382 188.386 117.37 188.399 117.357 188.399C117.345 188.399 117.333 188.399 117.32 188.399C117.222 188.411 117.123 188.411 117.012 188.423C116.704 188.436 116.407 188.473 116.099 188.534C115.988 188.559 115.889 188.584 115.778 188.596C115.778 188.596 115.643 188.621 115.569 188.633C115.507 188.633 115.433 188.645 115.408 188.645C115.272 188.658 115.149 188.67 115.013 188.682C114.791 188.707 114.581 188.719 114.359 188.732C114.137 188.732 113.928 188.732 113.706 188.719C113.594 188.707 113.483 188.695 113.385 188.695C113.372 188.695 113.372 188.695 113.372 188.695C113.36 188.695 113.36 188.695 113.323 188.682C112.891 188.596 112.484 188.473 112.052 188.374C111.682 188.288 111.189 188.152 110.929 188.029C110.485 187.831 109.992 187.621 109.498 187.745C109.313 187.794 109.141 187.954 109.091 188.152C108.807 189.275 110.152 190.274 110.942 190.829C111.892 191.495 113.224 191.718 114.347 191.816C115.445 191.915 116.852 191.767 117.777 191.101C118.32 190.718 118.912 190.299 119.171 189.669C119.295 189.373 119.554 188.917 119.652 188.522C119.751 188.288 119.541 188.115 119.319 188.152Z" fill="#D7825F"/>
<path d="M117.653 203.216C117.592 203.019 117.579 202.809 117.481 202.612C117.394 202.439 117.296 202.279 117.197 202.118C116.864 201.6 116.444 201.255 115.938 200.934C115.038 200.354 113.89 200.194 112.842 200.083C111.879 199.984 110.917 200.046 109.967 200.194C109.486 200.268 108.881 200.477 108.462 200.737C108.042 200.996 107.721 201.39 107.401 201.761C106.919 202.316 107.24 203.192 108.005 203.216C108.499 203.229 108.585 203.328 109.091 203.34C109.486 203.352 109.905 203.29 110.3 203.241C110.683 203.192 111.065 203.167 111.46 203.167C111.657 203.167 111.842 203.167 112.04 203.179C112.138 203.179 112.237 203.192 112.336 203.204C112.36 203.204 112.422 203.216 112.472 203.216C113.224 203.34 113.927 203.611 114.668 203.759C115.136 203.846 115.581 203.981 116.074 203.981C116.247 203.981 116.407 203.994 116.58 203.994C116.765 203.994 116.938 203.957 117.123 203.957C117.468 203.944 117.752 203.587 117.653 203.216Z" fill="#D7825F"/>
<path d="M153.409 185.216C153.014 184.685 152.705 184.352 152.175 183.969C152.039 183.871 151.903 183.784 151.768 183.698C151.299 183.439 150.781 183.254 150.262 183.143C149.411 182.97 148.498 182.847 147.634 182.908C145.907 183.019 144.167 183.488 142.736 184.488C141.774 185.166 141.132 186.067 141.132 187.288C141.132 188.436 141.749 189.509 142.736 190.089C143.933 190.792 145.253 191.323 146.623 191.532C147.437 191.656 148.264 191.767 149.09 191.742C150.028 191.718 151.027 191.607 151.817 191.064C152.681 190.471 153.384 189.694 153.631 188.645C153.717 188.275 153.729 187.917 153.705 187.56C153.927 186.782 153.877 185.845 153.409 185.216Z" fill="#D78381"/>
<path d="M92.9532 183.056C92.5584 182.526 92.2499 182.193 91.7194 181.81C91.5837 181.712 91.4479 181.625 91.3122 181.539C90.8434 181.28 90.3252 181.095 89.807 180.984C88.9557 180.811 88.0427 180.687 87.1791 180.749C85.4518 180.86 83.7121 181.329 82.2809 182.328C81.3186 183.007 80.677 183.908 80.677 185.129C80.677 186.277 81.2939 187.35 82.2809 187.93C83.4777 188.633 84.7979 189.164 86.1674 189.373C86.9817 189.497 87.8083 189.608 88.6349 189.583C89.5726 189.558 90.5719 189.447 91.3615 188.904C92.2252 188.312 92.9285 187.535 93.1753 186.486C93.2616 186.116 93.274 185.758 93.2493 185.401C93.4714 184.623 93.4344 183.686 92.9532 183.056Z" fill="#D78381"/>
<path d="M93.0519 258.379C92.398 257.614 91.5837 257.01 90.7324 256.38C89.5233 255.467 88.2525 254.641 86.9323 253.9C84.255 252.395 81.3926 251.211 78.4932 250.187C75.6185 249.175 72.7067 248.324 69.7827 247.485C68.2775 247.053 66.7846 246.584 65.2547 246.251C64.5021 246.091 63.7618 245.905 62.9969 245.819C61.9605 245.708 61.7384 245.955 60.8871 246.51C60.8008 246.572 60.739 246.683 60.7761 246.794C61.0105 247.472 61.0352 247.941 61.6274 248.398C62.1579 248.805 62.8242 249.052 63.4411 249.311C64.8229 249.878 66.2171 250.347 67.6482 250.779C70.56 251.667 73.4841 252.543 76.3588 253.567C79.0854 254.542 81.7628 255.652 84.3043 257.047C85.5628 257.737 86.7843 258.502 87.9564 259.341C89.0545 260.143 90.0168 261.229 91.2506 261.797C91.1025 262.278 90.9545 262.747 90.7941 263.228C90.2882 264.807 89.77 266.386 89.2395 267.953C88.2525 270.927 87.2407 273.888 86.2044 276.849C85.131 279.896 83.8972 282.882 82.8114 285.929C81.7627 288.878 80.7017 291.827 79.6036 294.763C75.1743 306.608 70.523 318.341 65.3164 329.865C63.8728 333.048 62.4047 336.219 60.8995 339.377C60.1099 341.03 59.1721 342.844 58.8514 344.658C58.5552 346.36 58.6539 348.063 58.6169 349.778C58.6046 350.197 59.0858 350.308 59.3572 350.086C60.5417 349.149 61.7508 348.334 62.8242 347.261C64.0086 346.089 64.8352 344.534 65.5755 343.066C67.019 340.191 68.3268 337.243 69.6593 334.306C72.312 328.458 74.8536 322.573 77.2965 316.638C79.7147 310.766 82.0218 304.856 84.2056 298.884C86.4141 292.863 88.5856 286.744 90.2019 280.538C91.0779 277.157 92.0895 273.814 93.0149 270.433C93.496 268.657 93.9773 266.88 94.4338 265.103C94.8903 263.351 95.4825 261.599 95.4948 259.786C95.5441 258.428 94.0636 257.824 93.0519 258.379Z" fill="#B53446"/>
<path d="M174.506 344.892C173.544 344.288 171.878 345.213 171.089 345.78C169.522 346.891 168.411 348.544 167.03 349.852C165.783 351.024 164.389 351.986 162.884 352.801C155.913 356.601 147.684 355.91 140.38 353.344C136.259 351.9 132.693 349.543 128.93 347.409C125.167 345.262 120.96 343.954 116.666 345.287C109.609 347.471 105.328 354.96 97.4811 355.058C89.0913 355.17 82.0957 349.149 76.7905 343.288C75.3469 341.684 73.9158 340.031 72.2501 338.649C71.0534 337.662 69.5235 338.859 70.1528 340.265C71.8924 344.164 74.8411 347.742 77.6788 350.888C80.5906 354.108 83.9341 356.921 87.9316 358.661C91.8797 360.376 96.1486 361.227 100.455 360.648C104.514 360.092 107.845 358.094 111.04 355.663C113.533 353.775 116.383 351.16 119.59 350.79C123.415 350.358 126.969 353.43 130.078 355.244C137.715 359.698 146.647 362.942 155.605 361.844C159.602 361.351 163.476 360.142 166.956 358.094C170.163 356.206 174.136 353.208 175.284 349.482C175.678 348.248 175.814 345.719 174.506 344.892Z" fill="#B53446"/>
<path d="M167.005 245.005C166.857 244.45 166.623 244.079 166.586 243.487C166.561 243.166 166.203 243.006 165.956 243.228C165.586 243.574 165.364 243.623 164.92 243.82C164.365 244.067 164.019 244.4 163.538 244.758C163.193 245.017 162.798 245.19 162.452 245.461C161.836 245.942 161.391 246.646 160.96 247.3C159.75 249.101 158.48 250.767 156.95 252.321C153.853 255.48 150.189 257.959 146.203 259.86C136.74 264.388 126.352 264.4 116.148 263.203C112.941 262.821 109.832 262.241 106.685 261.513C103.712 260.822 100.43 259.489 97.3579 259.662C96.5066 259.711 96.0008 260.748 96.6423 261.389C98.6904 263.437 101.824 264.4 104.489 265.412C107.364 266.497 110.35 267.336 113.323 268.126C119.208 269.693 125.661 270.199 131.719 269.668C142.194 268.767 152.36 264.832 160.108 257.589C162.156 255.677 163.97 253.518 165.549 251.211C166.475 249.854 167.042 248.657 167.03 246.991C167.017 246.3 167.178 245.671 167.005 245.005Z" fill="#B53446"/>
<path d="M165.956 422.226C160.392 425.631 155.025 429.406 149.312 432.565C143.353 435.859 137.123 439.906 130.337 441.164C123.366 442.46 116.136 440.547 109.547 438.388C103.625 436.451 97.8882 433.947 92.5829 430.677C89.6835 428.888 86.8828 426.877 84.3289 424.619C83.0704 423.509 81.8613 422.324 80.7262 421.091C79.6528 419.918 78.7892 418.45 77.2223 417.994C77.0866 417.957 76.9632 418.068 76.9632 418.191C76.8644 419.635 77.7158 420.646 78.5794 421.769C79.5911 423.077 80.6521 424.348 81.7996 425.545C83.9957 427.864 86.4016 429.962 88.9926 431.812C94.3472 435.649 100.306 438.598 106.451 440.955C113.323 443.595 120.738 445.84 128.178 445.359C135.654 444.866 142.453 441.325 148.955 437.858C155.827 434.193 163.291 430.344 166.696 422.966C166.894 422.509 166.45 421.93 165.956 422.226Z" fill="#B53446"/>
<path d="M93.5206 446.975C91.053 445.742 88.6471 444.36 86.2783 442.953C83.8477 441.522 81.4419 440.066 79.2334 438.314C77.099 436.624 75.0756 434.786 73.2372 432.775C71.3125 430.665 69.758 428.296 67.9936 426.063C67.5001 425.434 66.291 426.112 66.6117 426.865C67.7098 429.468 69.4248 431.775 71.2138 433.947C73.1138 436.266 75.2236 438.401 77.5678 440.264C79.8256 442.065 82.2315 443.78 84.8471 445.001C87.5614 446.272 90.3374 447.049 93.3109 447.469C93.5946 447.518 93.829 447.136 93.5206 446.975Z" fill="#B53446"/>
<path d="M74.6934 479.115C74.4466 478.61 74.3973 478.474 74.533 478.708C74.2986 477.919 73.3856 477.277 72.5343 477.573C71.8557 477.808 71.3252 478.054 70.8316 478.597C70.3751 479.115 70.005 479.683 69.6472 480.263C69.0796 481.188 68.4751 482.089 67.8212 482.94C66.501 484.643 64.8971 486.271 63.2562 487.727C61.6399 489.158 59.8632 490.405 57.9755 491.466C56.9885 492.021 56.0139 492.564 55.0392 493.144C54.7308 493.316 54.4223 493.514 54.1879 493.773C54.1385 493.822 54.1139 493.859 54.1015 493.884C54.0522 493.896 53.9658 493.933 53.7931 494.044C53.2132 494.39 52.9664 495.019 53.0775 495.661C53.3365 497.116 55.3476 497.129 56.4457 496.857C57.7165 496.537 58.9503 496.031 60.11 495.426C62.3432 494.266 64.4036 492.835 66.353 491.244C68.216 489.714 69.8693 487.949 71.3498 486.037C72.1394 485.025 72.8797 483.989 73.5583 482.891C73.9284 482.299 74.2615 481.706 74.4836 481.04C74.607 480.682 74.7057 480.312 74.7304 479.93C74.7921 479.658 74.7798 479.387 74.6934 479.115Z" fill="#182232"/>
<path d="M192.458 498.794C190.669 497.585 188.473 497.203 186.536 496.277C184.512 495.315 182.6 494.131 180.799 492.811C179.121 491.577 177.591 490.109 176.221 488.542C175.493 487.703 174.741 486.876 174.025 486.025C173.408 485.297 172.754 484.594 171.903 484.199C171.878 484.174 171.854 484.149 171.817 484.137C171.669 484.088 171.508 484.026 171.36 483.977C170.793 483.779 170.176 484.199 170.015 484.742C169.3 487.135 171.471 489.899 172.89 491.651C174.432 493.563 176.197 495.278 178.134 496.796C180.145 498.375 182.316 499.72 184.648 500.781C186.622 501.681 190.385 503.73 192.458 502.175C193.655 501.287 193.753 499.683 192.458 498.794Z" fill="#182232"/>
<path d="M122.366 536.968C122.058 534.143 121.663 531.329 121.392 528.504C121.256 527.048 121.17 525.605 120.997 524.149C120.874 523.038 120.75 521.854 120.047 520.966C119.8 520.67 119.356 520.756 119.109 520.966C117.37 522.385 117.382 525.901 117.271 527.961C117.123 530.787 117.16 533.6 117.283 536.425C117.518 541.829 117.925 547.381 116.95 552.736C116.679 554.229 117.357 555.758 118.912 556.19C120.257 556.56 122.107 555.734 122.366 554.229C123.317 548.454 123.008 542.754 122.366 536.968Z" fill="#182232"/>
</svg>
