<svg width="37" height="44" viewBox="0 0 37 44" fill="none" xmlns="http://www.w3.org/2000/svg">
<g clip-path="url(#clip0)">
<path d="M18.4994 0.0217896C14.0065 0.0217896 10.3065 3.50085 10.3065 7.84969V7.95202H5.44365C5.39079 7.95202 5.39079 7.95202 5.33794 7.95202C5.12651 8.00318 4.91508 8.15667 4.91508 8.36132L-0.000635256 43.4078C-0.0534924 43.6636 0.157936 43.9706 0.422222 43.9706C0.475079 43.9706 0.475079 43.9706 0.527936 43.9706H36.4708C36.7879 43.9706 36.9994 43.766 36.9994 43.459C36.9994 43.4078 36.9994 43.4078 36.9994 43.3566L32.0837 8.25899C32.0308 8.00317 31.8194 7.84969 31.5551 7.84969H29.4408C29.1237 7.84969 28.9122 8.05434 28.9122 8.36132C28.9122 8.66829 29.1237 8.87294 29.4408 8.87294H31.0794L35.8894 42.9474H1.16222L5.97222 8.87294H10.3594V14.1427C10.3594 14.4497 10.5708 14.6543 10.8879 14.6543C11.2051 14.6543 11.4165 14.4497 11.4165 14.1427V7.84969C11.4165 4.06364 14.5879 1.04505 18.5522 1.04505C22.5165 1.04505 25.6879 4.06364 25.6879 7.84969V7.95202H14.4294C14.3765 7.95202 14.3765 7.95202 14.3237 7.95202C14.0065 8.00318 13.7951 8.20782 13.8479 8.5148C13.9008 8.82178 14.1122 9.02644 14.4294 8.97528H25.6351V14.1427C25.6351 14.4497 25.8465 14.6543 26.1637 14.6543C26.4808 14.6543 26.6922 14.4497 26.6922 14.1427V7.84969C26.6922 3.50085 23.0451 0.0217896 18.4994 0.0217896ZM9.46079 24.3753C9.14365 24.4264 8.93222 24.6822 8.98508 24.938C9.03794 25.1939 9.30222 25.4497 9.56651 25.3985H27.4851C27.8022 25.3985 28.0137 25.1939 28.0137 24.8869C28.0137 24.5799 27.8022 24.3753 27.4851 24.3753H9.56651C9.51365 24.3241 9.46079 24.3241 9.46079 24.3753ZM13.8479 31.3334C13.5308 31.3846 13.3194 31.5892 13.3722 31.8962C13.4251 32.2032 13.6365 32.4078 13.9537 32.3566H23.0979C23.4151 32.3566 23.6265 32.152 23.6265 31.845C23.6265 31.538 23.4151 31.3334 23.0979 31.3334H13.9537C13.9008 31.3334 13.8479 31.3334 13.8479 31.3334Z" fill="url(#paint0_linear)"/>
<path d="M18.4994 0.0217896C14.0065 0.0217896 10.3065 3.50085 10.3065 7.84969V7.95202H5.44365C5.39079 7.95202 5.39079 7.95202 5.33794 7.95202C5.12651 8.00318 4.91508 8.15667 4.91508 8.36132L-0.000635256 43.4078C-0.0534924 43.6636 0.157936 43.9706 0.422222 43.9706C0.475079 43.9706 0.475079 43.9706 0.527936 43.9706H36.4708C36.7879 43.9706 36.9994 43.766 36.9994 43.459C36.9994 43.4078 36.9994 43.4078 36.9994 43.3566L32.0837 8.25899C32.0308 8.00317 31.8194 7.84969 31.5551 7.84969H29.4408C29.1237 7.84969 28.9122 8.05434 28.9122 8.36132C28.9122 8.66829 29.1237 8.87294 29.4408 8.87294H31.0794L35.8894 42.9474H1.16222L5.97222 8.87294H10.3594V14.1427C10.3594 14.4497 10.5708 14.6543 10.8879 14.6543C11.2051 14.6543 11.4165 14.4497 11.4165 14.1427V7.84969C11.4165 4.06364 14.5879 1.04505 18.5522 1.04505C22.5165 1.04505 25.6879 4.06364 25.6879 7.84969V7.95202H14.4294C14.3765 7.95202 14.3765 7.95202 14.3237 7.95202C14.0065 8.00318 13.7951 8.20782 13.8479 8.5148C13.9008 8.82178 14.1122 9.02644 14.4294 8.97528H25.6351V14.1427C25.6351 14.4497 25.8465 14.6543 26.1637 14.6543C26.4808 14.6543 26.6922 14.4497 26.6922 14.1427V7.84969C26.6922 3.50085 23.0451 0.0217896 18.4994 0.0217896ZM9.46079 24.3753C9.14365 24.4264 8.93222 24.6822 8.98508 24.938C9.03794 25.1939 9.30222 25.4497 9.56651 25.3985H27.4851C27.8022 25.3985 28.0137 25.1939 28.0137 24.8869C28.0137 24.5799 27.8022 24.3753 27.4851 24.3753H9.56651C9.51365 24.3241 9.46079 24.3241 9.46079 24.3753ZM13.8479 31.3334C13.5308 31.3846 13.3194 31.5892 13.3722 31.8962C13.4251 32.2032 13.6365 32.4078 13.9537 32.3566H23.0979C23.4151 32.3566 23.6265 32.152 23.6265 31.845C23.6265 31.538 23.4151 31.3334 23.0979 31.3334H13.9537C13.9008 31.3334 13.8479 31.3334 13.8479 31.3334Z" fill="url(#paint1_linear)" fill-opacity="0.9"/>
</g>
<defs>
<linearGradient id="paint0_linear" x1="18.4953" y1="0.0217896" x2="18.4953" y2="43.9706" gradientUnits="userSpaceOnUse">
<stop stop-color="white"/>
<stop offset="1" stop-color="white" stop-opacity="0"/>
</linearGradient>
<linearGradient id="paint1_linear" x1="57.1668" y1="-13.0892" x2="3.05569" y2="-16.8219" gradientUnits="userSpaceOnUse">
<stop offset="0.145833" stop-color="#FF3E79"/>
<stop offset="1" stop-color="#F9357C"/>
</linearGradient>
<clipPath id="clip0">
<rect width="37" height="44" fill="white"/>
</clipPath>
</defs>
</svg>
