<svg width="69" height="76" viewBox="0 0 69 76" fill="none" xmlns="http://www.w3.org/2000/svg">
<path d="M55.4991 23.9999C61.2981 23.9999 65.9991 19.2989 65.9991 13.5C65.9991 7.701 61.2981 3 55.4991 3C49.7002 3 44.9992 7.701 44.9992 13.5C44.9992 19.2989 49.7002 23.9999 55.4991 23.9999Z" stroke="#FF3E79" stroke-width="5" stroke-linecap="round" stroke-linejoin="round"/>
<path d="M13.5 48.4999C19.2989 48.4999 23.9999 43.7989 23.9999 38C23.9999 32.201 19.2989 27.5 13.5 27.5C7.701 27.5 3 32.201 3 38C3 43.7989 7.701 48.4999 13.5 48.4999Z" stroke="#FF3E79" stroke-width="5" stroke-linecap="round" stroke-linejoin="round"/>
<path d="M55.4991 72.9999C61.2981 72.9999 65.9991 68.2989 65.9991 62.5C65.9991 56.701 61.2981 52 55.4991 52C49.7002 52 44.9992 56.701 44.9992 62.5C44.9992 68.2989 49.7002 72.9999 55.4991 72.9999Z" stroke="#FF3E79" stroke-width="5" stroke-linecap="round" stroke-linejoin="round"/>
<path d="M22.5652 43.2849L46.4702 57.2149" stroke="#FF3E79" stroke-width="5" stroke-linecap="round" stroke-linejoin="round"/>
<path d="M46.4352 18.7852L22.5652 32.7151" stroke="#FF3E79" stroke-width="5" stroke-linecap="round" stroke-linejoin="round"/>
</svg>
