<svg width="33" height="33" viewBox="0 0 33 33" fill="none" xmlns="http://www.w3.org/2000/svg">
<path d="M29.7773 24.8789C30.1331 24.8789 30.4219 24.5901 30.4219 24.2344C30.4219 23.8786 30.1331 23.5898 29.7773 23.5898C29.4216 23.5898 29.1328 23.8786 29.1328 24.2344C29.1328 24.5901 29.4216 24.8789 29.7773 24.8789Z" fill="url(#paint0_linear)" fill-opacity="0.9"/>
<path d="M29.7773 22.3008C30.1333 22.3008 30.4219 22.0123 30.4219 21.6562V16.5C30.4219 16.144 30.1333 15.8555 29.7773 15.8555C29.4213 15.8555 29.1328 16.144 29.1328 16.5V21.6562C29.1328 22.0123 29.4213 22.3008 29.7773 22.3008Z" fill="url(#paint1_linear)" fill-opacity="0.9"/>
<path d="M0.644531 23.5898H1.28906V32.3555C1.28906 32.7115 1.57759 33 1.93359 33H31.0664C32.1327 33 33 32.1327 33 31.0664V7.08984C33 6.73384 32.7115 6.44531 32.3555 6.44531H27.457V5.80078C27.457 2.60229 24.8547 0 21.6562 0C18.4638 0 15.8555 2.58291 15.8555 5.80078V6.44531H10.957C10.601 6.44531 10.3125 6.73384 10.3125 7.08984V13.9231C9.68106 14.3985 9.2455 15.0906 9.08839 15.8595C9.06674 15.8572 9.04509 15.8555 9.02344 15.8555C9.00179 15.8555 8.98038 15.857 8.95898 15.8575C8.66039 14.3874 7.35773 13.2773 5.80078 13.2773C4.02379 13.2773 2.57812 14.723 2.57812 16.5C2.57812 17.2248 2.81882 17.8946 3.22442 18.4336H0.644531C0.288528 18.4336 0 18.7221 0 19.0781V22.9453C0 23.3013 0.288528 23.5898 0.644531 23.5898ZM2.57812 23.5898H5.80078V31.7109H2.57812V23.5898ZM7.08984 23.5898H10.957V31.7109H7.08984V23.5898ZM15.4688 31.7109C14.0863 31.7109 13.7567 31.7109 12.2461 31.7109V23.5898H15.4688V31.7109ZM12.2461 22.3008V19.7227H16.7578V22.3008H12.2461ZM12.2461 18.4336C12.2239 18.4336 12.202 18.4323 12.1801 18.4316C12.0852 17.965 11.8886 17.5262 11.6016 17.1445V14.6774C11.8078 14.6047 12.0255 14.5664 12.2461 14.5664C13.3123 14.5664 14.1797 15.4338 14.1797 16.5C14.1797 17.5662 13.3123 18.4336 12.2461 18.4336ZM8.98592 17.1448L9.54385 17.2153C10.139 17.3812 10.6338 17.8324 10.8468 18.4336H7.20213C7.46775 17.6891 8.16541 17.1604 8.98592 17.1448ZM10.957 19.7227V22.3008H7.08984V19.7227H10.957ZM31.0664 31.7109H16.7578V29.1328H31.7109V31.0664C31.7109 31.4219 31.4219 31.7109 31.0664 31.7109ZM17.1445 5.80078C17.1445 3.31229 19.1584 1.28906 21.6562 1.28906C24.144 1.28906 26.168 3.31304 26.168 5.80078V6.44531H17.1445V5.80078ZM15.8555 7.73438V10.6992H15.2109C14.8549 10.6992 14.5664 10.9877 14.5664 11.3438C14.5664 11.6998 14.8549 11.9883 15.2109 11.9883H17.7891C18.1451 11.9883 18.4336 11.6998 18.4336 11.3438C18.4336 10.9877 18.1451 10.6992 17.7891 10.6992H17.1445V7.73438H26.168V10.6992H25.5234C25.1674 10.6992 24.8789 10.9877 24.8789 11.3438C24.8789 11.6998 25.1674 11.9883 25.5234 11.9883H28.1016C28.4576 11.9883 28.7461 11.6998 28.7461 11.3438C28.7461 10.9877 28.4576 10.6992 28.1016 10.6992H27.457V7.73438H31.7109V27.8438H16.7578V23.5898H17.4023C17.7583 23.5898 18.0469 23.3013 18.0469 22.9453V19.0781C18.0469 18.7221 17.7583 18.4336 17.4023 18.4336H14.8225C15.2281 17.8946 15.4688 17.2248 15.4688 16.5C15.4688 14.723 14.0231 13.2773 12.2461 13.2773C12.0288 13.2773 11.813 13.2998 11.6016 13.3428V7.73438H15.8555ZM3.86719 16.5C3.86719 15.4338 4.73454 14.5664 5.80078 14.5664C6.74391 14.5664 7.5312 15.2454 7.70039 16.1402C6.7633 16.5645 6.07672 17.4225 5.8675 18.4316C5.84534 18.4323 5.82319 18.4336 5.80078 18.4336C4.73454 18.4336 3.86719 17.5662 3.86719 16.5ZM1.28906 19.7227H5.80078V22.3008H1.28906V19.7227Z" fill="url(#paint2_linear)" fill-opacity="0.9"/>
<defs>
<linearGradient id="paint0_linear" x1="31.1243" y1="23.2053" x2="29.2432" y2="23.0512" gradientUnits="userSpaceOnUse">
<stop offset="0.145833" stop-color="#FF3E79"/>
<stop offset="1" stop-color="#F9357C"/>
</linearGradient>
<linearGradient id="paint1_linear" x1="31.1243" y1="13.9327" x2="29.2311" y2="13.9017" gradientUnits="userSpaceOnUse">
<stop offset="0.145833" stop-color="#FF3E79"/>
<stop offset="1" stop-color="#F9357C"/>
</linearGradient>
<linearGradient id="paint2_linear" x1="50.9832" y1="-9.84472" x2="2.82615" y2="-13.7897" gradientUnits="userSpaceOnUse">
<stop offset="0.145833" stop-color="#FF3E79"/>
<stop offset="1" stop-color="#F9357C"/>
</linearGradient>
</defs>
</svg>
