<svg width="310" height="287" viewBox="0 0 310 287" fill="none" xmlns="http://www.w3.org/2000/svg">
<rect width="310" height="271" fill="#F0E3E7"/>
<path d="M221.922 217.922C259.647 180.197 259.647 119.033 221.922 81.3074C184.197 43.5823 123.033 43.5823 85.3074 81.3074C47.5823 119.033 47.5823 180.197 85.3074 217.922C123.033 255.647 184.197 255.647 221.922 217.922Z" fill="#F1B299"/>
<path d="M228.152 104.268C228.038 99.0967 227.981 92.5945 224.635 88.2026C224.577 87.4991 224.406 86.7577 223.969 86.1873C223.95 84.4001 224.064 82.4989 223.247 80.8448C224.615 77.5746 220.338 75.8635 220.794 72.9546C220.775 73.0306 220.775 73.0877 220.756 73.1637C222.201 69.0571 218.969 66.8136 216.497 64.2659C216.497 61.4711 215.147 59.6079 212.98 57.9918C212.2 56.5278 212.448 54.5505 211.003 53.4098C212.866 54.5886 216.858 58.8283 218.436 60.7106C218.436 60.7106 218.436 60.6916 218.417 60.6916C218.684 62.5168 222.068 68.8099 220.927 63.5244C220.927 63.5434 220.946 63.5815 220.946 63.6005C220.908 63.4674 220.851 63.3343 220.813 63.2012V63.2202C220.813 63.1822 220.794 63.1632 220.794 63.1252C220.794 63.1442 220.813 63.1632 220.813 63.1822C220.224 61.319 219.843 59.3417 218.741 57.7066L218.76 57.7256C218.703 57.6496 218.665 57.5735 218.608 57.4975C218.627 57.5165 218.646 57.5355 218.646 57.5735C215.547 52.8584 215.147 51.3945 209.938 49.5883C209.272 47.2498 208.987 42.3636 205.432 43.4853C205.945 40.7475 203.474 40.2342 201.686 39.1505C201.306 37.4583 201.458 35.2529 199.31 34.7586C202.732 32.4961 202.067 39.4927 205.755 38.5231C208.227 45.3295 213.265 40.6145 217.6 49.9496C218.417 48.8278 216.288 46.5083 215.68 45.2725C214.748 42.4396 212.714 40.7666 210.052 39.6068C208.816 37.9527 208.246 35.2529 205.66 35.367C204.652 31.7546 200.888 29.9675 197.713 32.287C196.952 30.5949 195.469 28.6556 193.378 29.5492C191.8 25.4235 186.381 28.9408 184.765 25.7087C188.359 24.606 191.857 26.9825 195.317 26.4502C195.602 27.0205 197.637 28.2753 197.066 26.9064C194.234 24.0165 189.195 22.9709 184.956 22.8188C180.982 22.5526 177.351 21.9442 173.947 24.4158C170.468 23.0279 167.16 24.0546 164.46 26.4882C156.532 23.9785 148.87 30.3667 144.668 36.5838C140.866 32.9334 134.896 33.7319 130.428 35.4811C128.736 34.9297 127.443 33.4277 125.618 33.1615C123.697 32.8193 122.329 34.3023 121.074 35.4811C117.88 34.0741 113.735 33.4277 111.834 37.1922C108.126 35.8233 106.491 38.9413 105.274 41.7362C100.959 40.7856 97.5363 43.6564 96.7188 47.8962C94.4183 46.4893 92.1938 47.2308 90.8629 49.5123C84.9881 46.8885 76.6987 61.0718 84.0375 54.5315C84.0185 54.5505 83.9995 54.5695 83.9804 54.5885C87.3076 49.7214 90.882 53.733 94.3422 49.6454C99.3235 52.8395 98.8482 45.8809 102.232 44.531C100.978 45.7858 99.8558 47.4209 100.084 49.2461C97.8215 52.4401 88.9047 52.6113 90.4637 57.6306C88.8286 62.4217 77.8965 63.6575 79.9118 69.0951C79.1323 70.9012 77.3831 72.099 75.9952 73.4489L76.0142 73.4299C75.8811 73.544 75.7481 73.6771 75.615 73.7911C74.4172 74.6087 73.5236 76.2247 74.6263 77.4795C74.0369 79.9512 69.3599 82.727 72.0216 85.1796C71.6414 90.5411 69.1888 96.53 70.9759 101.834C71.7555 103.013 69.8352 104.991 71.4132 105.561C74.075 104.648 70.5767 95.9597 72.4209 92.1192C75.5769 95.6745 73.0673 97.0624 73.8848 100.941C78.2387 104.819 73.4095 108.793 72.8962 113.166C72.7441 114.744 73.7137 115.999 74.5883 117.159C74.5693 120.334 70.1964 123.68 73.8658 126.38C73.8468 126.342 73.8468 126.323 73.8278 126.285L73.8468 126.303C73.8658 126.323 73.8658 126.342 73.8658 126.342C73.8658 126.323 73.8468 126.323 73.8468 126.303C74.094 128.3 72.2878 130.714 74.7404 132.045C75.7671 133.547 73.9989 135.962 75.8431 137.217C77.5352 138.072 75.9192 133.737 76.3945 132.711C75.7861 130.733 74.3602 129.422 75.2918 127.178C75.1587 124.992 73.4666 123.262 74.9876 121.056C74.2461 123.49 76.0713 125.201 76.6416 127.311C76.0523 131.817 79.4745 134.84 80.5012 138.89C80.5012 138.852 80.5012 138.814 80.4822 138.776C80.5012 138.985 80.5392 139.194 80.5582 139.403C80.5582 139.365 80.5582 139.327 80.5392 139.289C80.254 142.179 82.3454 143.795 83.6953 145.981C84.1516 148.244 84.5888 150.639 86.7753 151.856C87.84 151.476 86.2049 150.221 85.9197 149.651C84.836 148.168 85.2163 146.114 84.2466 144.555C82.8017 142.616 82.0222 140.544 82.1172 138.091C82.1172 138.11 82.1172 138.129 82.1172 138.167C82.1743 134.992 80.7103 132.349 79.9118 129.422C80.4061 129.612 80.9385 129.688 81.4328 129.897C82.0412 134.156 81.813 140.43 87.9731 139.802C87.9541 142.369 87.6118 146.324 91.2052 146.381C91.8896 148.643 92.6501 152.294 95.8252 151.666C96.5477 154.062 97.2511 158.929 100.864 156.895C101.548 158.568 102.556 161.362 104.856 159.956C105.883 160.583 106.89 162.332 108.24 161.286L108.221 161.305C108.24 161.286 108.259 161.286 108.259 161.267C109.837 160.811 111.168 163.815 112.651 160.982L112.632 161.001C112.765 160.83 112.917 160.659 113.127 160.868L113.146 160.887C114.058 162.047 115.465 162.351 116.473 161.115C117.157 163.188 118.526 167.675 121.435 165.849C123.374 170.736 128.907 171.458 131.397 166.591C133.071 167.541 135.029 168.188 136.93 167.599C139.06 168.245 141.018 169.595 143.185 170.013C144.82 169.766 146.303 168.777 147.995 168.853C152.311 170.032 156.209 171.458 160.201 168.53C160.182 168.53 160.163 168.53 160.163 168.53C166.609 172.599 173.928 164.975 181.172 166.154C181.096 166.154 181.039 166.173 180.963 166.173C181.134 166.154 181.324 166.135 181.514 166.116C181.438 166.116 181.381 166.135 181.305 166.135C181.495 166.116 181.685 166.097 181.895 166.059C181.818 166.059 181.761 166.078 181.685 166.078C182.446 165.982 183.187 165.868 183.929 165.678C184.005 165.659 184.062 165.64 184.138 165.621C184.328 165.564 184.518 165.526 184.727 165.469C188.644 163.245 194.158 162.979 197.219 159.67C199.861 158.054 204.805 156.971 204.652 153.168C207.466 152.084 212.752 150.126 210.622 146.248C215.052 141.951 217.733 141.894 215.49 135.468C217.258 132.882 220.661 131.19 221.136 127.863C221.288 128.053 221.478 128.224 221.688 128.376C221.669 128.357 221.65 128.338 221.631 128.338C221.65 128.357 221.669 128.376 221.707 128.395C222.695 130.714 219.463 133.471 221.421 135.506C218.379 142.711 221.707 140.278 223.037 135.087C223.037 135.106 223.018 135.125 223.018 135.125C223.931 132.559 225.167 129.555 223.931 126.893C224.673 124.383 225.699 121.683 224.882 119.06C225.775 117.082 224.349 115.314 223.988 113.432C224.14 111.987 225.034 110.618 224.73 109.154C223.988 107.367 223.209 105.96 224.806 104.344C227.125 106.169 227.562 108.451 227.886 111.303C227.886 111.265 227.867 111.246 227.867 111.208C227.695 114.04 229.045 116.645 227.715 119.193C229.312 123.566 230.414 104.553 228.152 104.268Z" fill="#22251A"/>
<path opacity="0.3" d="M198.264 121.702C198.188 118.508 198.15 114.478 196.097 111.778C196.059 111.341 195.964 110.884 195.679 110.523C195.66 109.42 195.736 108.242 195.241 107.234C196.078 105.238 193.492 104.173 193.72 102.386C194.196 100.941 193.739 99.8762 192.96 98.9255C191.667 98.165 190.241 97.5947 189.214 96.4539C188.017 95.1231 188.093 92.1761 186.667 91.2445C184.861 90.0467 181.819 98.032 181.21 99.496C179.917 102.557 178.434 105.523 177.198 108.622C175.639 112.557 174.157 116.626 171.799 120.162C166.152 128.547 156.266 129.688 147.292 126.075C142.349 124.079 137.843 121.417 134.459 117.235C131.455 113.527 129.439 109.04 126.169 105.561C123.678 102.899 119.895 101.93 116.758 100.256C114.362 98.9826 112.347 97.3095 111.111 95.066C108.849 96.53 105.75 97.6137 106.624 99.9902C106.149 101.112 105.065 101.853 104.21 102.671C104.21 102.671 104.21 102.671 104.229 102.652C104.153 102.728 104.058 102.804 103.982 102.88C103.24 103.374 102.689 104.382 103.373 105.162C103.012 106.683 100.122 108.413 101.757 109.934C101.51 113.242 100.008 116.949 101.111 120.22C101.586 120.942 100.407 122.178 101.377 122.52C103.031 121.95 100.864 116.588 101.985 114.212C103.944 116.417 102.385 117.273 102.898 119.668C105.598 122.064 102.613 124.516 102.289 127.235C102.194 128.205 102.803 128.984 103.335 129.707C103.316 131.665 100.635 133.737 102.879 135.391C103.012 136.608 101.928 138.091 103.43 138.909C104.077 139.84 102.974 141.323 104.115 142.103C105.16 142.635 104.153 139.954 104.457 139.308C104.077 138.091 103.202 137.274 103.772 135.886C103.696 134.536 102.651 133.471 103.582 132.102C103.126 133.604 104.248 134.669 104.609 135.962C104.248 138.738 106.358 140.62 107.005 143.11C107.005 143.091 107.005 143.072 107.005 143.034C107.024 143.149 107.024 143.244 107.043 143.358C106.852 145.145 108.164 146.152 109.001 147.502C109.286 148.909 109.552 150.392 110.902 151.134C111.549 150.887 110.56 150.126 110.37 149.765C109.704 148.852 109.932 147.578 109.343 146.609C108.45 145.411 107.974 144.118 108.012 142.616C108.012 142.635 108.012 142.635 108.012 142.654C108.05 140.696 107.138 139.061 106.643 137.236C106.948 137.35 107.29 137.407 107.575 137.521C107.936 140.164 107.803 144.023 111.625 143.643C111.606 145.221 111.396 147.673 113.621 147.711C114.058 149.118 114.514 151.362 116.473 150.982C116.91 152.465 117.366 155.469 119.591 154.214C120.009 155.259 120.636 156.99 122.062 156.115C122.69 156.495 123.317 157.579 124.154 156.933C124.154 156.933 124.154 156.933 124.135 156.952L124.154 156.933C125.123 156.666 125.941 158.492 126.854 156.761C126.93 156.647 127.025 156.552 127.158 156.685C127.158 156.685 127.177 156.685 127.177 156.704C127.747 157.427 128.603 157.617 129.23 156.856C129.648 158.149 130.504 160.906 132.291 159.784C133.489 162.807 136.911 163.264 138.451 160.241C139.478 160.83 140.695 161.229 141.873 160.868C143.185 161.267 144.402 162.104 145.733 162.37C146.741 162.218 147.653 161.61 148.699 161.648C151.361 162.37 153.775 163.264 156.228 161.457C160.201 163.967 164.726 159.252 169.213 159.993C169.175 159.993 169.118 160.013 169.08 160.013C169.194 159.994 169.308 159.994 169.422 159.975C169.384 159.975 169.327 159.993 169.289 159.993C169.403 159.974 169.536 159.975 169.651 159.955C169.613 159.955 169.555 159.975 169.517 159.975C169.993 159.917 170.449 159.841 170.905 159.727C170.943 159.708 170.981 159.708 171.038 159.689C171.153 159.651 171.286 159.632 171.4 159.594C173.814 158.225 177.218 158.054 179.119 156.001C180.754 155.012 183.815 154.328 183.701 151.97C185.45 151.305 188.701 150.088 187.389 147.692C190.127 145.05 191.781 144.993 190.393 141.038C191.496 139.441 193.587 138.395 193.872 136.342C193.967 136.456 194.082 136.57 194.215 136.665C194.196 136.665 194.196 136.646 194.177 136.646C194.196 136.665 194.196 136.665 194.215 136.684C194.823 138.129 192.827 139.821 194.044 141.076C192.161 145.525 194.215 144.023 195.032 140.829C195.603 139.251 196.363 137.407 195.584 135.772C196.04 134.213 196.667 132.54 196.173 130.924C196.724 129.688 195.85 128.604 195.622 127.444C195.717 126.551 196.268 125.714 196.078 124.802C195.622 123.699 195.127 122.824 196.135 121.836C197.561 122.957 197.846 124.383 198.036 126.132C198.036 126.113 198.036 126.094 198.017 126.075C197.903 127.824 198.74 129.441 197.922 131.019C198.987 133.623 199.671 121.874 198.264 121.702ZM102.86 135.372C102.86 135.372 102.86 135.353 102.841 135.353C102.86 135.353 102.86 135.353 102.86 135.372L102.879 135.391L102.86 135.372Z" fill="#4B3F37"/>
<path d="M100.464 67.631C99.1333 68.9809 97.1941 69.5132 95.8442 70.7871C95.0267 72.3841 94.7985 74.5135 92.8783 75.255C92.8783 75.255 92.8782 75.255 92.8973 75.255C92.8782 75.255 92.8592 75.274 92.8402 75.274C89.8933 75.9204 90.1405 78.9244 88.6005 80.8447C86.357 81.5861 85.5394 83.1451 85.2543 85.3886C80.9955 84.9513 83.1439 89.7995 82.6306 92.081C78.1056 92.3661 81.2997 97.4805 81.5658 100.085C77.25 101.131 81.9461 106.53 81.2426 109.382C76.3754 106.321 80.5582 114.972 81.3187 116.873C81.775 115.523 79.6836 112.158 79.7407 110.01C84.6459 113.109 82.2313 104.876 82.0792 102.481C85.5775 101.777 83.296 97.5946 83.2199 95.2751C86.4901 94.6667 86.357 90.8832 85.8817 88.3165C88.0871 87.6511 87.8019 84.9703 87.973 83.1261C90.3876 81.9473 90.5967 79.3997 91.4333 77.1942L91.4143 77.2133C91.4333 77.1943 91.4333 77.1752 91.4523 77.1752L91.4333 77.1942C94.114 75.8444 95.7301 73.9431 96.4716 71.0152C97.1751 70.1786 101.7 68.4105 100.464 67.631ZM87.992 83.1071C87.992 83.0881 87.992 83.0881 87.992 83.1071V83.1071Z" fill="#382F2A"/>
<path d="M109.115 48.98C107.328 49.8926 107.708 52.8395 106.662 54.4175C106.415 54.8168 105.978 55.159 105.484 55.0259C101.985 53.9422 99.7798 57.5356 98.3729 60.1593C93.6008 56.2998 90.0835 64.1139 89.1518 67.9164C84.6839 67.327 82.1172 73.0877 82.7256 76.8712C79.8928 78.6013 78.714 82.1377 78.714 85.2938C76.6987 88.0125 74.132 92.4234 75.3678 95.6175C76.3945 93.4501 76.0713 90.0848 77.8965 87.9174C79.9498 85.9211 79.6266 83.1453 80.8814 80.7498C82.0792 78.2781 85.1592 77.8409 85.2163 74.7038C85.2163 74.7228 85.2163 74.7228 85.1972 74.7418C88.3913 66.0151 90.4066 76.8712 93.2965 64.3801C93.2775 64.4371 93.2395 64.4751 93.2205 64.5321C93.3156 64.342 93.4106 64.1519 93.5057 63.9618C93.5057 63.9808 93.4867 63.9998 93.4867 64.0188C93.5057 63.9998 93.5057 63.9808 93.5247 63.9428C93.5247 63.9618 93.5057 63.9808 93.5057 63.9998C95.9012 58.201 98.0497 66.1672 100.065 62.2317C102.575 51.8318 107.157 60.9578 108.716 49.4933C108.792 49.3602 108.868 49.1701 109.039 49.1511C109.058 49.1511 109.058 49.1511 109.077 49.1701C109.077 49.1701 109.096 49.1701 109.096 49.1891C109.267 49.3222 109.324 48.999 109.115 48.98Z" fill="#382F2A"/>
<path d="M201.211 113.299C201.496 115.162 202.827 116.664 203.15 118.451C201.953 121.189 202.599 123.604 203.911 126.113C203.911 126.094 203.911 126.094 203.911 126.075C203.911 126.094 203.911 126.113 203.911 126.132V126.113C203.398 128.395 202.143 130.657 203.512 132.958C202.637 134.574 200.907 136.665 202.39 138.433C200.565 140.297 198.378 143.396 200.755 145.715C199.405 147.597 195.184 149.822 197.713 152.351C196.287 154.252 189.709 159.784 195.507 159.918C194.386 161.743 190.773 163.397 190.393 164.766C192.066 163.606 200.356 158.701 194.595 158.568C195.564 155.811 202.485 153.91 199.462 150.639C201.135 148.624 206.611 146.114 202.998 143.377C203.873 141.209 208.303 138.338 204.519 136.361C205.508 134.327 205.698 132.578 204.234 130.714C204.006 128.262 205.869 125.885 203.778 123.737C203.778 123.718 203.759 123.699 203.759 123.699C203.759 123.699 203.759 123.699 203.759 123.718C202.58 122.045 203.569 120.143 203.778 118.356C203.398 117.558 201.724 112.386 201.211 113.299Z" fill="#382F2A"/>
<path d="M204.785 92.8415C205.774 94.5907 203.816 96.8341 203.816 98.7164C203.797 99.1917 203.987 99.724 204.462 99.8761C207.979 100.903 207.827 105.124 207.542 108.089C213.645 107.519 212.276 115.961 210.926 119.649C214.976 121.626 213.93 127.862 211.326 130.657C212.733 133.661 211.763 137.255 210.014 139.897C210.185 143.282 209.9 148.377 207.086 150.335C207.428 147.959 209.558 145.335 209.234 142.521C208.626 139.726 210.432 137.578 210.698 134.897C211.059 132.159 208.74 130.125 210.432 127.463C210.432 127.482 210.432 127.482 210.413 127.501C212.58 118.47 204.899 126.379 209.405 114.402C209.405 114.459 209.386 114.516 209.386 114.573C209.405 114.364 209.443 114.154 209.462 113.926C209.462 113.945 209.462 113.964 209.462 113.983C209.462 113.964 209.462 113.926 209.462 113.907C209.462 113.926 209.462 113.945 209.462 113.964C210.109 108.622 207.276 112.044 205.09 110.2C208.094 95.8644 199.766 105.713 204.804 93.4689C204.804 93.3168 204.861 93.1077 204.728 93.0126C204.709 93.0126 204.709 93.0126 204.69 92.9936H204.671C204.481 93.0696 204.614 92.7465 204.785 92.8415Z" fill="#382F2A"/>
<path d="M212.124 71.1483C212.98 72.251 214.425 72.5932 215.737 72.7833C216.25 76.3006 219.653 76.6809 221.25 79.1715C222.049 81.0158 223.988 81.5861 225.528 82.5938C226.764 84.7992 228.513 87.0236 228.589 89.6474C228.589 89.6283 228.589 89.6093 228.589 89.5903C228.551 91.1303 229.14 92.4232 230.167 93.5259V93.5069C230.167 93.5259 230.186 93.5259 230.186 93.5449C230.186 93.5449 230.186 93.5449 230.186 93.5259C230.395 93.9442 230.452 94.4005 230.49 94.8568C230.49 94.8378 230.49 94.8187 230.49 94.8187C230.376 95.6743 231.327 101.663 231.612 98.8114C231.08 93.4879 229.235 88.6017 227.638 83.5064C227.239 81.415 225.186 80.6545 224.007 79.1145C223.228 77.5935 222.828 75.7113 221.174 74.8177L221.193 74.8367C221.136 74.7987 221.079 74.7607 221.041 74.7226C221.06 74.7417 221.098 74.7607 221.117 74.7797C218.817 72.5932 218.588 69.0569 214.615 68.9999C214.025 65.0073 212.714 63.182 208.55 64.0946C208.55 64.0946 208.55 64.0947 208.569 64.1137C209.101 55.9383 205.014 57.6114 199.12 59.1704C199.12 58.8662 198.606 58.8472 198.587 59.1895C198.778 60.102 200.108 59.4746 200.736 59.3986C212.581 55.0257 201.953 67.3078 210.907 66.4522C211.459 67.9732 211.022 69.8174 212.124 71.1483Z" fill="#382F2A"/>
<path d="M232.468 113.356C232.411 112.843 232.334 112.329 232.296 111.816C232.296 111.816 232.296 111.816 232.296 111.835V111.816C232.411 110.01 231.992 108.299 231.498 106.588C231.498 106.588 231.498 106.588 231.498 106.607C231.498 106.588 231.498 106.569 231.479 106.55V106.569C230.129 102.006 228.722 97.5947 225.338 94.0964C225.604 90.0468 222.657 88.8871 219.634 87.6132C219.52 82.746 219.235 78.3922 213.037 79.704C211.649 79.59 213.607 80.6927 214.254 80.3505C219.501 79.3998 217.239 85.2367 217.467 88.2026C217.752 90.5982 220.718 90.446 221.802 91.967C221.231 96.6061 225.509 98.032 227.372 101.492C227.372 101.492 227.372 101.492 227.372 101.473C227.391 101.549 227.429 101.625 227.448 101.72V101.701C227.733 103.241 228.912 104.078 230.053 104.972C230.053 104.972 230.053 104.953 230.034 104.953C230.053 104.972 230.053 104.991 230.072 105.01L230.053 104.991C231.555 108.261 232.03 111.74 232.239 115.314V115.333C232.43 121.531 232.791 115.219 232.468 113.356Z" fill="#382F2A"/>
<path d="M219.806 120.999C219.33 120.676 218.779 120.6 218.228 120.562C218.285 120.562 218.342 120.562 218.399 120.581C217.98 120.543 217.524 120.524 217.125 120.371C218.38 117.672 222.239 111.949 216.992 111.284C216.992 111.284 216.992 111.284 217.011 111.284C216.992 111.284 216.992 111.284 216.973 111.265C216.687 111.169 216.383 110.96 216.478 110.618C216.478 110.637 216.478 110.637 216.478 110.656C216.478 109.896 215.794 110.504 215.984 110.998C216.174 111.816 217.182 111.93 217.847 112.158C217.866 112.158 217.866 112.177 217.885 112.177C222.011 115.428 210.318 121.683 218.208 123.052C218.304 125.353 215.3 127.178 216.459 129.573C217.22 130.733 218.075 132.026 217.467 133.471C216.954 134.954 215.718 136.171 215.68 137.806C215.623 138.814 216.726 139.593 216.25 140.601C215.49 142.483 213.607 144.042 214.368 146.228C213.969 147.787 211.554 148.909 211.725 150.411C213.645 149.575 215.262 146.837 215.699 144.688C216.535 142.844 218.494 141.171 217.923 138.985C217.581 136.627 220.756 134.802 220.414 132.159C218.132 127.33 223.114 124.25 219.806 120.999Z" fill="#382F2A"/>
<path d="M94.9892 95.2181C94.59 96.5489 93.3732 97.4045 92.2134 98.0509C93.0119 101.511 89.9699 103.108 89.3805 105.998C89.3045 108.013 87.6884 109.249 86.6237 110.751C86.2625 113.261 85.445 115.961 86.3195 118.432C86.3195 118.413 86.3005 118.394 86.3005 118.375C86.9089 119.801 86.8139 121.227 86.2435 122.615V122.596C86.2435 122.615 86.2435 122.615 86.2435 122.634C86.2435 122.634 86.2435 122.634 86.2435 122.615C86.2055 123.071 86.3195 123.528 86.4526 123.946C86.4526 123.927 86.4526 123.908 86.4336 123.908C86.8519 124.668 88.1257 130.581 86.8329 128.034C85.4069 122.881 85.3499 117.653 85.0077 112.329C84.6274 110.238 86.2625 108.793 86.7948 106.93C86.985 105.219 86.6808 103.336 87.8786 101.91L87.8596 101.929C87.8976 101.872 87.9356 101.815 87.9736 101.777C87.9546 101.796 87.9356 101.834 87.9166 101.853C89.2665 98.9825 88.2018 95.5983 91.8902 94.1153C90.9966 90.1797 91.548 87.9933 95.7877 87.3469V87.3659C92.3275 79.9511 96.7574 80.0271 102.803 79.3427C102.689 79.0575 103.165 78.8484 103.298 79.1716C103.45 80.1032 101.986 79.9891 101.358 80.1412C88.7341 80.3313 103.089 87.9553 94.4378 90.3889C94.4759 92.024 95.5406 93.583 94.9892 95.2181Z" fill="#382F2A"/>
<path d="M91.3191 141.932C91.1861 141.437 91.072 140.943 90.9199 140.449C90.9199 140.449 90.9199 140.449 90.9199 140.468V140.449C90.1594 138.814 89.9312 137.064 89.7791 135.277C89.7791 135.277 89.7791 135.277 89.7791 135.296C89.7791 135.277 89.7791 135.258 89.7791 135.239V135.258C89.3989 130.524 89.1137 125.885 90.9959 121.398C89.2848 117.729 91.6233 115.561 93.9619 113.299C92.3078 108.717 90.9959 104.572 97.251 103.546C97.5362 102.975 98.0305 103.736 97.5172 103.983C91.3001 105.618 94.5703 109.021 96.2054 113.071C96.9088 115.561 93.4866 116.436 93.5626 118.508C95.8631 122.463 92.0796 125.277 91.7945 129.041V129.022C91.7945 129.098 91.7944 129.193 91.8135 129.269V129.25C92.1177 130.79 91.3001 132.007 90.5777 133.224V133.205C90.5777 133.224 90.5777 133.243 90.5587 133.262V133.243C90.3495 136.836 91.148 140.24 92.2508 143.662V143.681C94.3041 149.537 91.6804 143.776 91.3191 141.932Z" fill="#382F2A"/>
<path d="M105.864 144.46C106.187 143.985 106.681 143.719 107.195 143.491C107.137 143.51 107.099 143.529 107.042 143.567C107.423 143.377 107.822 143.205 108.145 142.901C105.997 140.848 100.331 136.912 104.989 134.384C104.989 134.384 104.989 134.384 104.97 134.384L104.989 134.365C105.236 134.175 105.426 133.851 105.198 133.585C105.198 133.604 105.217 133.604 105.217 133.604C104.951 132.901 105.807 133.224 105.788 133.756C105.902 134.593 105.008 135.049 104.476 135.524C104.457 135.524 104.457 135.543 104.438 135.543C101.757 140.068 114.933 141.665 108.069 145.81C108.811 147.978 112.271 148.605 112.062 151.267C111.777 152.617 111.453 154.138 112.518 155.259C113.526 156.438 115.142 157.142 115.75 158.663C116.168 159.575 115.408 160.697 116.225 161.476C117.613 162.94 119.933 163.739 120.009 166.039C120.94 167.351 123.602 167.522 124.002 168.986C121.91 168.91 119.4 166.933 118.222 165.089C116.777 163.682 114.343 162.826 114.096 160.564C113.564 158.244 109.951 157.693 109.305 155.107C109.723 149.765 103.981 148.7 105.864 144.46Z" fill="#382F2A"/>
<path d="M162.616 252.394C136.759 251.082 80.6723 253.117 80.5582 217.088C80.5772 203.646 79.3795 186.744 90.2926 176.991C101.985 162.846 140.828 155.45 138.888 137.996C139.687 135.144 134.382 112.615 138.451 117.729C138.451 117.71 138.432 117.691 138.432 117.672C138.451 117.729 138.47 117.786 138.489 117.824C138.489 117.805 138.489 117.805 138.47 117.786C138.926 119.136 139.421 120.486 139.649 121.893C146.151 114.706 163.947 114.896 168.852 124.136C168.985 123.014 169.08 121.893 169.156 120.771C169.156 120.79 169.156 120.809 169.156 120.809C169.175 120.562 169.175 120.315 169.194 120.087C169.175 119.725 169.251 119.288 169.327 118.908C173.624 131 167.711 144.879 185.925 152.256C197.58 159.651 217.942 158.245 221.478 174.158C225.699 191.421 228.532 212.335 221.65 229.104C206.934 245.036 183.834 251.691 162.616 252.394Z" fill="#804F30"/>
<path opacity="0.3" d="M138.908 137.996C139.022 139.023 138.984 140.012 138.832 140.981C144.725 146.457 151.798 151.001 159.593 152.484C163.776 153.263 168.643 152.769 172.122 150.126C173.948 148.738 175.069 146.913 175.697 144.879C170.24 137.388 172.484 127.692 169.366 118.927C169.29 119.307 169.213 119.763 169.232 120.106C169.213 120.353 169.213 120.581 169.194 120.828C169.118 121.95 169.004 123.053 168.89 124.155C163.985 114.915 146.17 114.725 139.687 121.912C139.44 120.505 138.965 119.155 138.508 117.805C138.508 117.824 138.508 117.824 138.527 117.843C138.508 117.805 138.508 117.767 138.489 117.748C134.402 112.634 139.706 135.144 138.908 137.996Z" fill="#804F30"/>
<g opacity="0.3">
<path opacity="0.3" d="M151 179.101C151 179.12 151 179.12 151 179.101C137.045 170.926 118.774 179.481 103.792 173.778C114.724 171.306 130.694 172.979 143.262 172.371C145.79 171.629 157.293 178.873 151 179.101Z" fill="#804F30"/>
<path opacity="0.3" d="M163.624 179.557C165.62 166.781 182.769 170.222 192.047 166.933C191.971 166.952 191.895 166.971 191.819 166.971C192.579 166.819 193.321 166.648 194.081 166.496C194.062 166.496 194.043 166.515 194.005 166.515C197.009 165.982 199.937 165.127 202.96 164.785H202.941C207.961 169.043 174.993 172.789 171.4 174.12C171.457 174.101 171.533 174.082 171.59 174.063C171.343 174.139 171.095 174.234 170.848 174.31C170.905 174.291 170.981 174.272 171.038 174.253C168.244 174.842 166.627 177.029 164.707 178.93C164.726 178.911 164.745 178.892 164.764 178.873C164.536 179.082 164.289 179.291 164.099 179.538C164.194 179.9 163.586 179.938 163.624 179.557Z" fill="#804F30"/>
</g>
<path d="M216.383 191.269C213.265 183.189 214.577 173.873 216.744 165.697C215.452 164.48 213.988 163.454 212.391 162.56C205.831 169.785 196.306 174.291 187.37 177.637C176.78 181.611 165.62 183.645 154.403 184.767C146.227 185.584 138.033 186.117 129.82 185.888C117.29 185.565 101.719 184.044 91.2434 175.964C90.9392 176.306 90.6159 176.629 90.3308 176.972C88.9619 178.207 87.7831 179.538 86.7564 180.983C91.7567 191.934 89.114 207.582 80.5774 216.479C80.5774 216.67 80.5774 216.879 80.5774 217.088C80.6725 253.116 136.778 251.082 162.635 252.394C183.853 251.691 206.953 245.036 221.707 229.104C225.129 220.719 226.156 211.327 225.775 201.84C221.631 199.596 218.285 196.155 216.383 191.269Z" fill="#728277"/>
<path d="M187.123 91.9481C187.047 91.739 186.952 91.5488 186.876 91.3397C186.382 89.7997 186.382 87.6893 185.203 86.4725C184.462 85.693 183.378 85.3508 182.655 84.4952C181.838 83.5256 181.61 82.3848 181.458 81.168C181.305 79.7991 180.849 80.1033 179.518 79.685C178.225 79.2858 177.047 78.7154 176.21 77.6127C175.355 76.491 175.279 75.2551 174.746 74.0193C173.967 72.1941 172.541 73.1638 171.039 72.2892C169.917 71.6428 169.632 70.483 169.061 69.4563C168.244 67.9734 166.628 68.2966 165.202 67.7072C164.023 67.2319 162.997 66.4144 162.274 65.3497C162.141 65.1405 162.027 64.8173 161.875 64.5512C161.742 64.5131 161.437 64.38 161.247 64.399C160.886 64.4751 160.468 64.4751 160.107 64.4941C158.7 64.6082 157.445 64.4941 156.209 63.7146C153.985 62.3077 153.813 59.4748 151.171 58.7143C149.27 58.163 147.768 57.4975 146.779 56.0336C145.866 57.2314 144.459 57.8207 143.452 58.8854C142.33 60.0642 142.881 61.3951 142.482 62.821C141.95 64.7413 140.087 65.6919 138.223 65.825C137.615 65.863 136.322 65.5968 135.79 65.939C135.219 66.3383 135.6 67.5361 135.505 68.2015C135.181 70.5591 133.375 71.3576 131.493 72.2702C130.067 72.9737 129.991 75.4263 128.983 76.6621C128.603 77.1374 128.185 77.5747 127.671 77.8979C127.576 77.9549 127.272 78.126 127.044 78.2401C127.044 78.4492 127.025 78.7154 127.025 78.8865C127.006 79.3428 126.93 79.7611 126.759 80.1794C126.341 81.1871 125.504 81.8715 124.515 82.2897C123.812 82.5939 123.565 82.4609 123.413 83.1263C123.242 83.9819 123.47 84.7804 123.051 85.636C122.652 86.4535 122.006 87.0049 121.207 87.4231C120.219 87.9365 118.602 87.5562 118.393 86.2824C118.393 86.2253 118.374 86.1873 118.374 86.1303C118.146 86.4155 117.918 86.6816 117.69 86.9098C116.853 87.7273 115.751 88.3927 114.629 88.5829C114.23 89.5715 113.564 90.4461 112.671 91.0925C111.891 91.6629 110.978 91.9861 110.047 92.1192C110.37 97.8039 112.956 103.774 119.211 105.238C119.363 106.169 122.994 121.246 130.827 128.129C140.999 137.084 153.471 140.126 166.324 138.319C173.681 136.989 180.07 131.608 183.017 124.098C183.036 124.041 183.074 123.984 183.093 123.927C183.074 123.946 183.074 123.984 183.055 124.003C183.112 123.889 183.169 123.775 183.207 123.661C184.842 120.067 185.64 116.094 186.382 112.177C186.382 112.196 186.382 112.215 186.363 112.253C186.401 112.082 186.42 111.892 186.458 111.721C186.458 111.74 186.458 111.759 186.458 111.759C186.458 111.721 186.477 111.683 186.477 111.645C187.599 106.245 187.694 99.6862 187.123 91.9481Z" fill="#804F30"/>
<path d="M161.552 128.794C152.692 129.193 148.243 117.9 153.167 120.79C153.281 119.877 154.08 119.117 155.012 119.155C155.81 118.432 157.103 118.737 157.977 119.155C160.183 118.185 161.457 121.493 162.445 122.938C162.464 122.938 162.483 122.957 162.483 122.957C162.693 122.729 162.902 122.501 163.149 122.292C165.145 118.242 168.948 117.063 169.366 119.725C169.879 122.957 167.313 128.547 161.552 128.794Z" fill="#5E3A23"/>
<path d="M172.598 118.356C170.468 118.812 167.749 117.101 166.571 116.911C164.974 116.645 163.738 117.082 161.798 120.295C159.802 116.74 156.095 117.976 153.509 118.47C151.969 118.755 149.003 118.736 147.805 118.014C147.672 118.147 149.573 123.566 161.817 123.566C170.221 122.919 172.617 118.356 172.598 118.356Z" fill="#4C2F1C"/>
<path d="M167.142 105.903C165.507 103.279 162.027 102.196 161.153 99.0016C161.134 98.9636 161.115 98.9256 161.096 98.8875C161.039 98.8305 160.963 98.8115 160.887 98.8305C160.849 98.8495 160.83 98.8495 160.792 98.8875C160.754 98.9256 160.735 98.9636 160.735 99.0016C161.438 103.983 169.48 110.637 158.567 108.47C158.035 108.432 157.521 108.812 157.331 109.287C157.864 115.01 169.937 111.588 167.142 105.903Z" fill="#663921"/>
<path d="M142.311 95.1042C142.425 93.7353 141.399 92.5375 140.03 92.4235C138.661 92.3094 137.463 93.336 137.349 94.7049C137.235 96.0738 138.262 97.2716 139.63 97.3857C140.999 97.4997 142.197 96.4731 142.311 95.1042Z" fill="#2A2521"/>
<path d="M177.294 92.4423C177.408 91.0735 176.381 89.8757 175.012 89.7616C173.643 89.6475 172.445 90.6742 172.331 92.0431C172.217 93.412 173.244 94.6098 174.613 94.7239C175.982 94.8379 177.18 93.8112 177.294 92.4423Z" fill="#2A2521"/>
<path d="M130.162 90.6933C129.668 89.7997 130.409 88.9441 130.999 88.3167C134.117 84.7804 139.459 82.632 144.136 83.5066C144.897 83.8108 145.353 84.6663 145.144 85.4458C144.821 86.7957 143.395 86.7957 142.292 86.6056C141.969 86.6056 141.646 86.6056 141.303 86.6436C140.866 86.7006 140.41 86.7576 139.972 86.8527C139.269 87.0238 138.566 87.233 137.881 87.4801C136.512 88.0315 135.162 88.6779 133.946 89.4955C132.938 90.1609 131.303 92.0241 130.162 90.6933Z" fill="#38322F"/>
<path d="M180.317 87.233C178.625 86.7957 177.047 85.9782 175.316 85.6549C174.898 85.5789 174.48 85.5218 174.062 85.4838C173.586 85.4648 173.111 85.4458 172.617 85.4648C172.16 85.5028 171.723 85.5599 171.286 85.6549C170.506 85.788 169.784 86.1873 168.985 86.1112C167.274 85.9211 167.141 83.4115 168.719 82.8981C172.636 81.5292 177.655 81.9855 180.602 85.1416C180.963 85.6549 181.667 86.8527 180.944 87.29C180.735 87.347 180.526 87.271 180.317 87.233Z" fill="#38322F"/>
</svg>
