<svg width="28" height="30" viewBox="0 0 28 30" fill="none" xmlns="http://www.w3.org/2000/svg">
<path d="M16.8869 7.54799L20.335 9.90056C21.5595 10.736 22.3259 11.996 22.5743 13.3536C22.8169 14.6801 22.5613 16.0981 21.7488 17.2891L16.1998 25.4223C15.3873 26.6132 14.1601 27.3684 12.8365 27.6263C11.4819 27.8901 10.0291 27.6361 8.80462 26.8007L5.35645 24.4481C4.13197 23.6127 3.36563 22.3527 3.11723 20.9951C2.8746 19.6687 3.13016 18.2506 3.9427 17.0596L9.49172 8.92645C10.3043 7.73551 11.5314 6.98034 12.855 6.72244C14.2081 6.45756 15.6609 6.71152 16.8869 7.54799ZM19.7585 10.7456L16.3104 8.393C15.3832 7.76042 14.2709 7.57038 13.2272 7.77352C12.1516 7.98392 11.1472 8.6067 10.4734 9.5943L4.92441 17.7275C4.2506 18.7151 4.03614 19.8787 4.23344 20.9556C4.42406 22.0028 5.0076 22.9679 5.93477 23.6005L9.38294 25.9531C10.3101 26.5857 11.4224 26.7757 12.467 26.5712C13.5426 26.3608 14.547 25.738 15.2208 24.7504L20.768 16.6199C21.4418 15.6323 21.6563 14.4687 21.459 13.3917C21.2668 12.3435 20.6857 11.3782 19.7585 10.7456Z" fill="url(#paint0_linear)" fill-opacity="0.9"/>
<path d="M9.71015 10.1568C10.8475 12.0647 12.3174 13.6268 14.1153 14.8495C15.9255 16.0807 18.0747 16.9762 20.5578 17.5404L20.4414 18.5833C17.7953 17.9814 15.4942 17.019 13.5415 15.6906C11.578 14.3549 9.97437 12.6532 8.73954 10.582L9.71015 10.1568Z" fill="url(#paint1_linear)" fill-opacity="0.9"/>
<path d="M17.3713 11.5941C17.5307 11.3604 17.4404 11.0221 17.1691 10.837C16.8979 10.652 16.5499 10.6912 16.3905 10.9249L14.9491 13.0375C14.7897 13.2712 14.88 13.6095 15.1513 13.7946C15.4225 13.9796 15.7705 13.9403 15.93 13.7066L17.3713 11.5941Z" fill="url(#paint2_linear)" fill-opacity="0.9"/>
<path d="M17.7938 8.87908C17.676 9.13732 17.8177 9.46619 18.1093 9.61484C18.4009 9.76349 18.7317 9.67375 18.8495 9.4155C19.3969 8.20819 19.969 8.13994 20.5624 8.4422C20.9262 8.62656 21.3215 8.91949 21.7238 9.21527C22.1124 9.50165 22.5046 9.79249 22.9232 10.0316C24.286 10.8124 25.6487 10.9876 26.8636 8.72636C26.9967 8.47858 26.8763 8.14487 26.5937 7.98302C26.3111 7.82116 25.9722 7.88989 25.8391 8.13767C25.0239 9.65184 24.2048 9.58834 23.4072 9.13123C23.0652 8.93466 22.7003 8.66633 22.3408 8.39982C21.8867 8.0648 21.4401 7.735 20.9864 7.50473C19.7878 6.89791 18.6851 6.91761 17.7938 8.87908Z" fill="url(#paint3_linear)" fill-opacity="0.9"/>
<defs>
<linearGradient id="paint0_linear" x1="34.8588" y1="12.421" x2="17.6426" y2="-0.887329" gradientUnits="userSpaceOnUse">
<stop offset="0.145833" stop-color="#FF3E79"/>
<stop offset="1" stop-color="#F9357C"/>
</linearGradient>
<linearGradient id="paint1_linear" x1="27.7531" y1="21.5733" x2="18.3268" y2="5.32465" gradientUnits="userSpaceOnUse">
<stop offset="0.145833" stop-color="#FF3E79"/>
<stop offset="1" stop-color="#F9357C"/>
</linearGradient>
<linearGradient id="paint2_linear" x1="18.796" y1="10.654" x2="17.3828" y2="9.6325" gradientUnits="userSpaceOnUse">
<stop offset="0.145833" stop-color="#FF3E79"/>
<stop offset="1" stop-color="#F9357C"/>
</linearGradient>
<linearGradient id="paint3_linear" x1="31.5766" y1="9.16359" x2="23.1531" y2="2.0851" gradientUnits="userSpaceOnUse">
<stop offset="0.145833" stop-color="#FF3E79"/>
<stop offset="1" stop-color="#F9357C"/>
</linearGradient>
</defs>
</svg>
