<svg width="80" height="76" viewBox="0 0 80 76" fill="none" xmlns="http://www.w3.org/2000/svg">
<g clip-path="url(#clip0)">
<path d="M16.3405 76.0001C16.0747 76.004 15.8112 75.9492 15.5689 75.8397C15.3266 75.7302 15.1114 75.5686 14.9386 75.3665C14.7658 75.1644 14.6398 74.9266 14.5693 74.6702C14.4989 74.4138 14.4858 74.145 14.531 73.883L18.8558 48.6311L0.552443 30.762C0.311166 30.5268 0.140364 30.2289 0.0592769 29.9018C-0.0218105 29.5748 -0.00996192 29.2316 0.093488 28.9109C0.196938 28.5902 0.387879 28.3047 0.644804 28.0867C0.901728 27.8687 1.21443 27.7267 1.54768 27.6768L26.881 23.9944L38.2448 1.00443C38.3949 0.703313 38.626 0.449999 38.912 0.272936C39.1981 0.0958734 39.5279 0.0020752 39.8643 0.0020752C40.2008 0.0020752 40.5306 0.0958734 40.8167 0.272936C41.1027 0.449999 41.3338 0.703313 41.4839 1.00443L52.8205 23.9854L78.1539 27.6678C78.4912 27.7122 78.8092 27.8508 79.0714 28.0677C79.3335 28.2846 79.5292 28.571 79.6359 28.8941C79.7427 29.2172 79.7562 29.5638 79.6749 29.8942C79.5936 30.2246 79.4207 30.5254 79.1762 30.762L60.8367 48.6311L65.1977 73.883C65.2623 74.2222 65.2285 74.5729 65.1002 74.8935C64.9719 75.2142 64.7546 75.4914 64.4739 75.6925C64.2002 75.8913 63.8762 76.0094 63.5387 76.0334C63.2013 76.0574 62.8639 75.9863 62.5648 75.8282L39.8643 63.8673L17.191 75.792C16.9288 75.93 16.6368 76.0014 16.3405 76.0001ZM39.8643 60.013C40.1575 60.0132 40.4463 60.0846 40.7058 60.2211L60.9815 70.8792L57.1091 48.2601C57.059 47.9714 57.0797 47.6748 57.1695 47.3958C57.2594 47.1169 57.4156 46.8639 57.6248 46.6587L74.0282 30.762L51.3639 27.4235C51.0732 27.3822 50.797 27.2709 50.559 27.0991C50.321 26.9273 50.1283 26.7002 49.9977 26.4373L39.8643 5.89919L29.731 26.4373C29.6004 26.7002 29.4077 26.9273 29.1697 27.0991C28.9317 27.2709 28.6555 27.3822 28.3648 27.4235L5.70054 30.762L22.1039 46.704C22.3131 46.9092 22.4693 47.1621 22.5592 47.4411C22.649 47.72 22.6697 48.0166 22.6196 48.3054L18.7472 70.9244L39.0229 60.2211C39.2824 60.0846 39.5712 60.0132 39.8643 60.013Z" fill="url(#paint0_linear)"/>
</g>
<defs>
<linearGradient id="paint0_linear" x1="0.000538071" y1="38.0001" x2="79.7282" y2="38.0001" gradientUnits="userSpaceOnUse">
<stop stop-color="#F9357C"/>
<stop offset="0.85" stop-color="#FF3E79"/>
</linearGradient>
<clipPath id="clip0">
<rect width="79.7276" height="76" fill="white"/>
</clipPath>
</defs>
</svg>
