<svg width="33" height="33" viewBox="0 0 33 33" fill="none" xmlns="http://www.w3.org/2000/svg">
<g clip-path="url(#clip0)">
<path d="M32.9548 12.6529C32.8464 12.321 32.5619 12.0839 32.2165 12.0298L21.9214 10.5668L17.2886 1.25377C17.1328 0.942208 16.8145 0.745789 16.469 0.745789C16.1236 0.745789 15.8053 0.942208 15.6495 1.26054L11.0777 10.6006L0.782559 12.1314C0.437131 12.1855 0.152661 12.4226 0.0442916 12.7545C-0.0640779 13.0864 0.0307454 13.4521 0.28135 13.6892L7.75207 20.9296L6.02493 31.1841C5.96398 31.5295 6.10621 31.8749 6.39068 32.0781C6.54646 32.1933 6.73611 32.2542 6.92575 32.2542C7.07476 32.2542 7.217 32.2204 7.35246 32.1458L16.5435 27.276L25.7617 32.0917C25.8972 32.1594 26.0394 32.1933 26.1817 32.1933C26.6829 32.1933 27.096 31.7801 27.096 31.2789C27.096 31.2044 27.0893 31.1367 27.0689 31.0689L25.2876 20.8754L32.7109 13.5943C32.9751 13.3505 33.0631 12.9848 32.9548 12.6529ZM23.6756 19.9069C23.4589 20.1168 23.3641 20.4216 23.4182 20.7196L24.9693 29.6127L16.9635 25.4337C16.6993 25.2915 16.381 25.2983 16.1101 25.4337L8.13137 29.6601L9.62822 20.7535C9.67563 20.4555 9.58081 20.1575 9.36407 19.9475L2.88899 13.6621L11.8227 12.3346C12.1207 12.2871 12.3781 12.1043 12.5068 11.8333L16.4758 3.72595L20.499 11.813C20.6345 12.0839 20.8919 12.2668 21.1899 12.3142L30.1304 13.5876L23.6756 19.9069Z" fill="url(#paint0_linear)" fill-opacity="0.9"/>
</g>
<defs>
<linearGradient id="paint0_linear" x1="50.9833" y1="-8.65396" x2="2.85725" y2="-12.783" gradientUnits="userSpaceOnUse">
<stop offset="0.145833" stop-color="#FF3E79"/>
<stop offset="1" stop-color="#F9357C"/>
</linearGradient>
<clipPath id="clip0">
<rect width="33" height="33" fill="white"/>
</clipPath>
</defs>
</svg>
