<svg width="211" height="87" viewBox="0 0 211 87" fill="none" xmlns="http://www.w3.org/2000/svg">
<path d="M207.193 3.72876V9.43922" stroke="#F2F2F2" stroke-miterlimit="10"/>
<path d="M203.941 6.57959H210.455" stroke="#F2F2F2" stroke-miterlimit="10"/>
<g clip-path="url(#clip0_300:511)">
<g opacity="0.9">
<path opacity="0.05" d="M169.803 21.9874C169.804 22.651 169.675 23.3084 169.422 23.9219C169.169 24.5354 168.799 25.093 168.331 25.5627C167.863 26.0324 167.307 26.4051 166.695 26.6593C166.083 26.9136 165.428 27.0445 164.765 27.0445H130.492C129.803 27.0511 129.12 26.9211 128.481 26.6621C127.843 26.4032 127.262 26.0203 126.771 25.5354C126.281 25.0506 125.891 24.4734 125.624 23.837C125.357 23.2007 125.218 22.5177 125.216 21.8275C125.25 20.5401 125.779 19.3156 126.692 18.4094C127.372 17.7313 128.229 17.26 129.166 17.0502C129.526 16.9692 129.894 16.929 130.263 16.9303H130.642C131.327 16.753 131.934 16.3524 132.368 15.7915C132.801 15.2306 133.036 14.5414 133.036 13.8321V13.7121C133.04 13.1379 132.885 12.5737 132.587 12.0831C132.291 11.6157 131.879 11.2336 131.391 10.9742C130.903 10.7149 130.356 10.5872 129.804 10.6039H126.273C125.901 10.6047 125.529 10.5644 125.166 10.484C123.883 10.218 122.746 9.48363 121.974 8.42377C121.201 7.36392 120.85 6.05428 120.988 4.74945C121.126 3.44462 121.744 2.23785 122.721 1.36376C123.697 0.489667 124.963 0.0107107 126.273 0.0200043H150.432C151.152 0.0134151 151.866 0.149158 152.533 0.419448C153.201 0.689739 153.809 1.08927 154.322 1.59519C154.835 2.10112 155.244 2.70349 155.525 3.36784C155.805 4.03219 155.952 4.74547 155.958 5.46687C155.916 6.84208 155.342 8.14718 154.357 9.10595C153.373 10.0647 152.054 10.6019 150.681 10.6039H142.991C142.184 10.6494 141.425 11.0024 140.87 11.5907C140.315 12.1789 140.006 12.9576 140.006 13.7671C140.006 14.5766 140.315 15.3553 140.87 15.9435C141.425 16.5318 142.184 16.8848 142.991 16.9303H164.765C165.428 16.9303 166.083 17.0612 166.695 17.3154C167.307 17.5697 167.863 17.9424 168.331 18.4121C168.799 18.8818 169.169 19.4394 169.422 20.0529C169.675 20.6664 169.804 21.3237 169.803 21.9874Z" fill="#21A621"/>
<path opacity="0.05" d="M186.241 42.1056C186.186 43.4747 185.606 44.7697 184.621 45.7198C183.635 46.6698 182.321 47.2012 180.954 47.2027H149.264C148.579 47.1859 147.908 47.3962 147.354 47.801C146.8 48.2058 146.395 48.7824 146.202 49.4414C146.133 49.7091 146.1 49.9846 146.102 50.2609V50.5008C146.1 50.7771 146.133 51.0526 146.202 51.3203C146.395 51.9793 146.8 52.5559 147.354 52.9607C147.908 53.3655 148.579 53.5758 149.264 53.559H170.75C171.257 53.5589 171.762 53.6364 172.246 53.7889C173.403 54.1426 174.394 54.9015 175.038 55.9269C175.683 56.9523 175.937 58.1757 175.756 59.3738C175.574 60.5718 174.969 61.6644 174.05 62.4519C173.13 63.2395 171.959 63.6694 170.75 63.6632H111.969C110.77 63.683 109.602 63.2853 108.663 62.538C107.724 61.7907 107.074 60.7401 106.822 59.5656C106.662 58.7549 106.704 57.917 106.946 57.1269C107.188 56.3367 107.622 55.6191 108.209 55.0382C108.782 54.4551 109.492 54.0256 110.273 53.7889C110.761 53.6354 111.269 53.5579 111.78 53.559H113.276C113.961 53.5758 114.633 53.3655 115.186 52.9607C115.74 52.5559 116.145 51.9793 116.338 51.3203C116.407 51.0526 116.44 50.7771 116.438 50.5008V50.2209C116.396 49.4026 116.039 48.6325 115.442 48.073C114.844 47.5136 114.053 47.2087 113.236 47.2227H77.6861C76.9607 47.2293 76.2412 47.0912 75.5697 46.8165C74.8981 46.5417 74.2878 46.1357 73.7744 45.6223C73.261 45.1088 72.8547 44.4981 72.5793 43.8257C72.3039 43.1533 72.1647 42.4327 72.1701 41.7058C72.2292 40.3412 72.8122 39.0523 73.7973 38.1081C74.7824 37.1639 76.0934 36.6375 77.4566 36.6388H180.705C181.427 36.6308 182.144 36.7663 182.814 37.0372C183.484 37.3081 184.094 37.7093 184.608 38.2174C185.123 38.7256 185.532 39.3308 185.812 39.9981C186.092 40.6654 186.238 41.3817 186.241 42.1056Z" fill="#21A621"/>
<path opacity="0.05" d="M0.941406 61.045C0.981378 62.6804 1.521 64.2641 2.48748 65.5824C3.4817 66.5728 4.82608 67.1295 6.22799 67.1316H37.9175C38.6037 67.1171 39.2755 67.3295 39.829 67.7359C40.3825 68.1424 40.787 68.7203 40.9798 69.3803C41.0436 69.6454 41.0771 69.917 41.0795 70.1898V70.4297C41.0777 70.7058 41.0442 70.9807 40.9798 71.2492C40.7867 71.9081 40.3818 72.4848 39.8281 72.8896C39.2744 73.2944 38.6028 73.5047 37.9175 73.4879H16.4321C15.9246 73.4878 15.42 73.5653 14.9359 73.7178C12.8811 74.3574 11.3949 77.2657 11.3949 79.5344C11.3936 80.1981 11.5229 80.8554 11.7754 81.4689C12.028 82.0824 12.3988 82.64 12.8667 83.1097C13.3346 83.5794 13.8903 83.9521 14.5021 84.2064C15.1139 84.4606 15.7697 84.5915 16.4321 84.5915H115.102C116.302 84.6118 117.471 84.2144 118.412 83.4672C119.352 82.72 120.005 81.6692 120.259 80.4939C120.412 79.5266 120.368 78.5382 120.13 77.5884C119.891 76.6385 119.463 75.7468 118.872 74.9671C118.299 74.384 117.589 73.9544 116.807 73.7178C116.32 73.5643 115.812 73.4868 115.301 73.4879H113.795C113.384 73.51 112.972 73.4468 112.586 73.3023C112.201 73.1577 111.849 72.9349 111.553 72.6478C111.257 72.3608 111.024 72.0156 110.867 71.6339C110.71 71.2522 110.634 70.8422 110.643 70.4297V70.1498C110.684 69.3315 111.041 68.5613 111.639 68.0019C112.236 67.4424 113.027 67.1375 113.845 67.1515H149.395C152.387 67.1515 155.03 63.6735 154.901 60.6453C154.849 59.2789 154.27 57.9861 153.286 57.039C152.301 56.0919 150.989 55.5646 149.624 55.5682H6.4574C5.73612 55.5643 5.02115 55.7028 4.35339 55.9761C3.68563 56.2493 3.0782 56.6518 2.56586 57.1605C2.05352 57.6692 1.64633 58.2741 1.36759 58.9407C1.08884 59.6073 0.944018 60.3223 0.941406 61.045Z" fill="#21A621"/>
</g>
<path opacity="0.5" d="M108.14 87C124.182 87 137.186 73.7865 137.186 57.4869C137.186 41.1873 124.182 27.9739 108.14 27.9739C92.0982 27.9739 79.0938 41.1873 79.0938 57.4869C79.0938 73.7865 92.0982 87 108.14 87Z" fill="#E0E0E0"/>
<path d="M80.0293 51.2106C80.2222 50.0554 80.4887 48.9137 80.8273 47.7926C82.3241 42.7924 85.1598 38.2988 89.0265 34.8" stroke="#21A621" stroke-width="2" stroke-miterlimit="10" stroke-linecap="round"/>
<path d="M95.7601 30.3325C97.5415 29.4671 99.411 28.7969 101.336 28.3337C107.098 26.9156 113.157 27.3334 118.671 29.5288C124.184 31.7241 128.877 35.5878 132.095 40.5815C135.314 45.5753 136.898 51.4505 136.626 57.3888C136.355 63.3271 134.242 69.0328 130.582 73.7111C126.922 78.3894 121.896 81.8073 116.206 83.4889C110.515 85.1704 104.443 85.0319 98.8346 83.0924C93.2264 81.153 88.3615 77.5093 84.9176 72.6688C81.4737 67.8284 79.6222 62.0322 79.6211 56.0877" stroke="#21A621" stroke-width="2" stroke-miterlimit="10" stroke-linecap="round"/>
<path d="M94.4736 54.9683L104.149 64.6628L120.996 47.7925" stroke="white" stroke-width="2" stroke-linecap="round" stroke-linejoin="round"/>
<path d="M94.4736 55.4681L104.149 65.1626L120.996 48.2922" stroke="#21A621" stroke-width="2" stroke-linecap="round" stroke-linejoin="round"/>
<path d="M206.479 29.4531V35.9794" stroke="#54514C" stroke-opacity="0.75" stroke-miterlimit="10"/>
<path d="M203.228 32.7112H209.741" stroke="#54514C" stroke-opacity="0.75" stroke-miterlimit="10"/>
<path d="M83.6714 23.9763C86.3597 23.9763 88.539 21.7927 88.539 19.0991C88.539 16.4055 86.3597 14.2219 83.6714 14.2219C80.983 14.2219 78.8037 16.4055 78.8037 19.0991C78.8037 21.7927 80.983 23.9763 83.6714 23.9763Z" stroke="#21A621" stroke-miterlimit="10"/>
</g>
<defs>
<clipPath id="clip0_300:511">
<rect width="208.8" height="87" fill="white" transform="translate(0.941406)"/>
</clipPath>
</defs>
</svg>
