<svg width="310" height="271" viewBox="0 0 310 271" fill="none" xmlns="http://www.w3.org/2000/svg">
<rect width="310" height="271" fill="#F0E3E7"/>
<g clip-path="url(#clip0_263:186)">
<path d="M68.8255 154.032C64.2083 154.122 59.6048 153.5 55.1757 152.187C50.8705 150.814 47.0763 148.757 44.8209 144.607C44.1984 143.457 43.8048 143.646 43.1999 144.636C41.2499 147.831 39.3176 151.05 36.2223 153.325C35.9908 153.508 35.8114 153.748 35.7021 154.022C35.5928 154.297 35.5575 154.595 35.5997 154.887C35.8523 161.218 36.5042 167.473 39.2412 173.315C39.8697 174.647 40.5334 176.026 41.6963 176.928C43.1294 178.042 42.871 178.779 41.5847 179.717C40.3236 180.733 38.9428 181.59 37.4733 182.269C34.1196 183.666 30.7718 183.018 28.2462 180.359C25.5386 177.53 24.1348 173.999 22.9602 170.338C22.8175 170.038 22.7907 169.696 22.8852 169.378C22.9796 169.06 23.1884 168.789 23.4711 168.616C25.9204 166.954 26.2493 164.696 25.38 162.032C22.7269 153.942 21.043 145.563 20.3641 137.073C19.7768 129.722 19.8884 122.395 21.3567 115.156C23.4594 104.798 31.6528 97.9131 42.3424 97.471C43.059 97.4647 43.7666 97.3096 44.4207 97.0153C45.0747 96.7211 45.6609 96.2942 46.1425 95.7615C53.3256 88.3987 62.8346 86.9486 71.8268 91.9357C82.7866 98.0015 90.1988 106.744 92.278 119.494C93.1003 124.529 91.8492 129.262 90.6158 134.013C88.8538 140.905 87.0624 147.79 86.2166 154.875C85.8701 157.823 85.7291 160.723 86.5338 163.612C87.1211 165.775 88.3369 167.296 90.745 167.467C91.6671 167.526 92.4248 167.661 91.9197 168.87C89.8875 173.556 87.5558 178.06 83.1742 181.008C78.5342 184.132 74.4346 182.576 70.6228 179.734C69.8886 179.192 70.288 178.756 70.6228 178.266C75.1746 171.417 76.085 163.718 75.9382 155.742C75.9088 154.186 75.2569 153.926 73.906 154.021C72.2027 154.121 70.5347 154.032 68.8255 154.032ZM49.5197 119.382C52.4564 116.818 56.2153 116.081 59.4692 114.301C57.1786 113.782 55.0172 114.531 52.7676 114.436C56.6441 111.418 61.0726 109.385 65.1018 106.62C59.3106 107.622 54.283 110.534 49.0615 112.998C51.4109 110.098 54.4768 107.982 57.0963 105.382C53.9599 105.712 51.4403 107.498 48.4683 108.329L53.9364 103.826C51.4285 103.667 49.502 105.134 46.8884 105.482C48.6266 103.212 50.9859 101.5 53.678 100.554C54.2654 100.336 55.6162 100.601 55.0172 99.2571C54.5179 98.1312 53.678 98.5556 52.8146 99.0095C51.666 99.6547 50.4509 100.173 49.1907 100.554C46.6652 101.238 44.0926 101.733 41.432 102.322C41.6199 102.67 41.755 102.912 41.8725 103.16C43.4877 106.478 42.6654 108.642 39.3234 110.18C38.0959 110.74 36.7274 111.112 35.5997 112.379C37.2912 113.216 39.2236 112.851 40.7624 114.148C39.2765 115.044 37.4205 114.991 36.3104 116.364C37.1503 117.172 38.2956 116.276 39.0826 117.195C38.0607 118.256 36.3867 118.575 35.6702 120.143C36.8038 120.449 37.9784 119.347 38.8888 120.603C37.7141 121.687 36.2517 122.495 35.8581 124.139C36.7744 124.682 37.5321 123.391 38.4483 124.175C37.5614 125.501 36.0989 126.533 35.8581 128.301C36.9976 128.348 37.7259 127.329 38.8712 127.812C38.2427 129.386 36.3867 130.27 36.2986 132.386C37.0387 132.027 37.5438 131.797 38.0607 131.532C38.5775 131.266 38.9358 130.765 39.4174 131.261C39.899 131.756 39.4174 132.204 39.1766 132.64C38.7126 133.577 37.8492 134.408 38.1429 135.77C38.7302 135.469 39.1707 135.269 39.5936 135.01C42.4833 133.241 42.5303 133.241 43.705 136.424C43.8342 136.766 43.9164 137.126 44.0398 137.474C44.1631 137.822 44.492 138.328 44.7622 138.063C45.9369 136.937 45.9369 138.352 46.4244 138.723C46.9119 139.095 47.0117 139.938 47.9632 139.743C48.0161 138.965 47.4405 138.175 47.9632 137.35C49.4374 137.71 50.154 139.337 52.0217 139.914C51.0761 137.68 50.2597 135.835 49.3141 133.53L59.3752 135.841C58.0067 133.707 55.6573 133.064 53.7896 131.42C56.139 130.606 58.412 131.42 60.9787 130.577C57.7365 128.92 54.606 128.855 51.0644 128.372L54.1303 127.022C51.6399 127.152 53.772 125.377 52.5914 124.994C52.8969 124.31 53.6017 124.552 54.1068 124.322C55.4224 123.733 57.0141 124.163 58.5118 123.173C55.9569 122.035 53.4137 123.243 50.7178 122.554C54.0363 120.921 57.4076 120.685 60.4207 119.329C56.8071 118.768 53.1276 118.786 49.5197 119.382Z" fill="#42210B"/>
<path d="M144.081 97.0583C146.941 93.2682 151.037 90.6065 155.653 89.5378C160.268 88.469 165.112 89.061 169.337 91.2105C181.143 97.1054 189.095 106.142 191.28 119.612C192.096 124.646 190.787 129.374 189.553 134.131C187.756 141.087 185.97 148.055 185.148 155.211C184.831 157.988 184.737 160.776 185.489 163.523C186.076 165.687 187.251 167.278 189.659 167.426C191.045 167.514 191.28 168.015 190.751 169.194C189.089 172.979 187.104 176.563 184.079 179.451C179.786 183.578 174.564 183.701 169.983 179.988C169.155 179.316 169.167 178.868 169.719 178.019C174.194 171.134 175.111 163.423 174.887 155.441C174.835 153.632 173.672 153.962 172.597 154.021C166.488 154.345 160.439 154.021 154.536 152.252C150.066 150.92 146.108 148.827 143.782 144.5C143.271 143.545 142.836 143.492 142.267 144.447C140.27 147.79 138.243 151.109 135.013 153.472C134.508 153.844 134.567 154.534 134.596 155.123C134.848 160.865 135.448 166.547 137.632 171.929C138.461 173.981 139.488 175.944 141.198 177.417C141.955 178.072 141.855 178.443 141.198 179.133C135.647 184.839 129.028 184.108 124.94 177.288C123.774 175.266 122.804 173.136 122.044 170.927C121.645 169.825 121.763 169.064 122.808 168.304C124.658 166.954 125.187 165.079 124.488 162.845C121.773 154.457 120.027 145.784 119.284 136.996C118.697 129.645 118.814 122.312 120.306 115.073C122.414 104.84 130.62 97.9779 141.156 97.4238C142.161 97.3707 143.23 97.6124 144.123 96.8991C143.816 97.5657 143.331 98.1334 142.721 98.5385C142.111 98.9435 141.4 99.1699 140.669 99.1922C139.838 99.2127 139.019 99.3983 138.26 99.7383C137.501 100.078 136.817 100.566 136.246 101.173C136.793 101.762 138.008 101.273 137.938 102.393C137.861 103.218 136.998 103.189 136.405 103.401C135.718 103.655 135.019 103.867 134.056 104.191C135.953 105.246 135.13 105.96 134.014 106.773C133.233 107.363 132.364 107.993 132.164 109.131C132.335 109.178 132.481 109.272 132.605 109.243C133.732 108.984 135.213 108.335 135.776 109.632C136.364 111.053 134.602 111.171 133.791 111.737C131.471 113.364 130.009 115.521 128.711 118.557C130.984 117.82 132.317 116.606 134.408 116.323C132.293 118.61 130.261 120.449 128.629 123.22C130.467 122.848 131.624 121.581 133.38 121.888C131.454 124.717 129.656 127.411 128.629 130.936C130.326 129.922 131.213 128.454 132.822 128.024C133.116 129.144 131.788 129.793 132.37 130.795C133.198 130.795 133.592 129.704 134.684 130.04C133.175 132.186 131.888 134.302 131.882 137.379C133.345 135.953 134.373 134.715 136.287 134.432C135.389 137.067 133.885 139.189 133.28 142.243C134.778 141.022 135.859 140.097 136.992 139.236C137.421 138.906 137.879 138.193 138.472 138.647C138.966 139.012 138.695 139.749 138.613 140.309C138.531 140.869 138.32 141.294 138.202 141.789C137.644 144.117 135.923 145.756 134.196 148.138C137.914 146.906 140.311 144.99 141.914 142.195C142.76 140.722 143.306 140.91 144.263 141.983C146.342 144.264 148.68 146.292 151.229 148.026C153.414 149.529 155.999 149.087 158.459 149.205C156.339 147.672 154.025 146.611 152.157 144.27C155.018 144.701 157.391 145.815 160.086 145.721C159.258 144.66 157.837 144.624 157.297 143.363C158.571 143.363 159.734 143.422 160.879 143.363C162.025 143.304 163.229 143.693 164.403 142.773C162.442 141.936 160.38 141.907 158.53 140.415C163.71 139.649 168.444 141.005 173.801 141.512C171.393 139.006 168.479 138.747 165.766 137.179L169.613 136.99C168.521 135.546 166.676 135.87 165.414 134.632C168.45 134.302 170.882 135.688 173.472 136.218C171.675 134.391 169.12 133.99 166.905 132.487C170.095 132.098 172.955 132.893 176.479 132.929C174.13 131.125 171.692 131.101 169.731 130.152C170.065 129.115 171.451 129.639 171.528 128.278H164.715C167.387 125.873 170.4 126.132 173.331 125.147C170.664 123.88 168.209 125.183 165.537 124.723C167.505 123.19 169.689 123.173 171.962 122.318C168.985 121.605 166.465 122.489 163.922 122.471C166.453 120.974 169.39 120.938 172.056 119.936C168.873 118.964 165.748 119.801 162.377 120.284C163.164 118.404 165.044 117.926 165.901 116.665C165.49 115.769 164.333 116.73 164.098 115.71C165.337 114.855 166.806 114.649 168.286 114.018C167.04 113.14 165.584 113.428 164.292 112.78C167.005 111.884 169.578 112.055 172.197 112.19C169.525 109.891 166.248 110.782 162.923 110.558C165.02 108.789 167.692 109.379 170.153 107.993C167.176 107.404 164.797 107.887 161.872 108.094C164.721 106.372 167.381 106.048 170.177 105.736C169.308 104.857 168.309 104.952 167.399 104.952C165.126 104.952 162.859 105.081 160.586 105.134C160.11 105.134 159.47 105.364 159.293 104.68C159.164 104.215 159.634 103.926 159.916 103.596C160.962 102.352 162.729 102.11 163.969 100.813C162.753 100.542 161.784 101.373 160.644 100.872C161.966 99.8525 163.669 99.8878 165.014 99.0684C164.151 97.8246 162.782 98.308 161.737 97.7833C162.612 97.1939 163.822 97.6124 164.674 96.569C163.076 95.9795 161.461 96.4216 159.746 96.0738C161.508 94.4233 163.928 94.5353 165.349 92.7373L161.478 93.0733L161.426 92.8434L163.863 91.8177C159.511 91.1634 155.728 92.9967 151.364 94.606C153.126 92.531 155.264 91.9297 157.079 90.3499C154.783 90.1789 153.209 91.1516 151.605 91.9533C148.886 93.203 146.63 95.3429 144.081 97.0583Z" fill="#42210B"/>
<path d="M242.185 143.445C244.769 146.687 247.5 149.682 251.717 150.519C255.13 151.203 258.565 151.28 261.702 149.37C262.765 148.727 263.787 148.945 264.85 149.37C265.572 149.653 266.113 150.389 267.017 150.277C267.446 149.458 266.336 148.986 266.647 148.179C267.681 147.684 268.656 148.869 269.772 148.444C270.06 147.442 268.803 147.265 268.685 146.452C269.273 145.732 270.042 146.623 270.841 146.175C270.471 144.088 268.45 142.885 267.657 140.869C270.236 140.197 272.427 141.294 274.882 142.113C274.706 140.392 273.331 139.755 272.456 138.576C273.989 137.886 275.076 139.289 276.52 139.213C276.485 137.768 274.999 137.191 274.535 135.976C275.71 135.788 276.297 136.861 277.501 136.855C277.073 134.697 275.152 133.66 274.095 132.08C274.594 131.49 275.099 132.263 275.651 131.897C275.422 130.565 273.889 130.129 273.302 128.69C275.54 129.215 277.061 130.647 279.21 131.797C278.3 128.472 275.757 127.246 273.478 125.26C275.998 124.8 277.724 126.185 279.862 126.881C279.463 124.31 277.231 123.521 275.933 121.941C276.814 121.351 277.589 122.459 278.547 121.941C278.065 120.249 276.233 119.989 275.07 118.775C277.125 117.95 278.858 119.471 280.943 119.365C279.416 117.007 275.657 116.694 276.362 112.957C277.125 112.574 278.124 113.888 279.733 113.647C277.813 110.222 274.841 108.536 271.663 106.814C272.579 106.991 273.507 107.121 274.418 107.351C275.328 107.581 276.333 107.94 277.666 108.329C277.108 106.926 276.197 106.355 275.399 105.706C274.6 105.058 273.801 104.468 272.732 103.643C275.011 103.525 276.485 104.999 278.793 105.47C276.814 103.036 274.471 102.028 271.91 100.589C274.553 100.666 276.397 101.969 279.005 102.947C277.178 99.8938 274.394 99.0862 271.563 97.5063H275.181C270.994 93.7985 266.677 91.4994 261.573 90.5798C256.469 89.6602 251.764 91.0338 247.165 93.0439C249.487 91.2292 252.198 89.9833 255.083 89.4051C257.969 88.8269 260.949 88.9324 263.787 89.7133C278.47 93.3917 290.805 109.892 289.935 124.965C289.653 129.887 287.844 134.544 286.728 139.319C285.19 145.892 283.539 152.435 283.445 159.244C283.42 160.712 283.604 162.177 283.991 163.594C284.579 165.763 285.795 167.314 288.191 167.467C289.366 167.544 289.835 167.885 289.307 169.076C287.357 173.468 285.125 177.677 281.178 180.642C279.294 182.097 276.949 182.821 274.576 182.682C272.202 182.542 269.959 181.548 268.257 179.882C267.593 179.263 267.669 178.856 268.092 178.219C272.556 171.505 273.449 163.942 273.378 156.119C273.378 154.274 272.691 153.956 271.029 154.044C263.511 154.433 256.075 154.044 249.086 150.82C245.292 149.028 242.948 146.522 242.185 143.445Z" fill="#42210B"/>
<path d="M237.562 98.0074C236.176 99.5873 234.256 99.4989 232.934 100.513C232.4 100.931 230.55 101.002 232.071 102.446C231.882 102.709 231.672 102.956 231.442 103.183C230.773 103.843 229.909 104.321 229.486 105.252C229.968 106.083 230.732 104.899 231.248 105.706C231.285 105.835 231.285 105.972 231.248 106.101C230.961 106.773 230.614 107.422 230.32 108.088C229.017 111.035 229.022 111.035 232.182 111.336C230.643 113.352 228.658 114.908 227.531 117.231C228.323 117.632 228.981 116.971 229.674 117.107C229.674 117.85 228.999 118.08 228.711 118.557C228.423 119.035 228.271 119.536 228.911 119.541C231.431 119.577 229.945 120.88 229.657 121.776C229.205 123.155 228.711 124.517 228.2 126.002C229.222 126.327 229.563 125.289 230.55 125.277L226.99 132.174L229.592 131.373C229.222 132.781 228.876 133.99 228.594 135.216C228.312 136.442 228.335 137.385 230.168 135.806C229.616 137.574 229.21 138.841 228.799 140.132L229.158 140.327L230.873 138.824C231.46 139.413 230.696 140.203 231.354 140.775C232.276 140.439 232.852 139.401 234.079 139.254C234.179 141.465 232.317 142.697 231.56 144.624C233.14 144.754 234.05 143.711 235.131 143.121C235.877 142.714 236.628 141.842 237.48 142.443C238.208 142.956 237.762 143.94 237.721 144.724C237.721 144.996 237.721 145.267 237.721 145.815L240.47 144.129C239.013 147.501 237.122 150.537 234.285 152.865C233.563 153.455 232.993 153.997 233.04 155.017C233.339 161.195 233.944 167.314 236.564 173.038C237.274 174.739 238.337 176.268 239.683 177.524C240.27 178.048 240.493 178.432 239.759 179.074C237.75 180.843 235.648 182.405 232.94 182.87C231.748 183.109 230.515 183.055 229.348 182.715C228.18 182.374 227.112 181.756 226.233 180.913C223.102 178.013 221.616 174.193 220.359 170.255C220.237 169.984 220.218 169.677 220.306 169.393C220.393 169.108 220.582 168.866 220.835 168.711C223.742 166.789 223.484 164.225 222.568 161.319C218.922 150.132 217.221 138.399 217.54 126.633C217.716 121.428 218.039 116.205 219.948 111.265C222.873 103.725 230.397 98.0428 237.562 98.0074Z" fill="#42210B"/>
</g>
<defs>
<clipPath id="clip0_263:186">
<rect width="270" height="94" fill="white" transform="translate(20 89)"/>
</clipPath>
</defs>
</svg>
