<svg width="310" height="271" viewBox="0 0 310 271" fill="none" xmlns="http://www.w3.org/2000/svg">
<rect width="310" height="271" fill="#F0E3E7"/>
<path d="M216.055 263.585C213.897 253.078 206.656 244.922 197.421 241.149C196.848 240.799 196.238 240.486 195.583 240.256L123.912 214.128L58.5959 240.553C57.5615 240.91 56.5568 241.32 55.5671 241.781L55.4703 241.818C55.4257 241.841 55.381 241.87 55.3364 241.885C46.8752 245.919 40.3265 253.695 38.2949 263.585L37 269.874H217.35L216.055 263.585Z" fill="white"/>
<path d="M76.502 233.283L123.854 214.128L174.569 232.62C174.569 232.62 171.577 255.586 125.387 255.586C79.181 255.586 76.502 233.283 76.502 233.283Z" fill="#CA927B"/>
<path d="M141.168 79.439C141.168 79.439 157.734 72.1983 171.657 85.3031C185.581 98.408 175.75 107.137 188.036 113.626C200.323 120.108 191.348 138.057 205.681 146.221C220.013 154.385 210.555 174.529 195.813 177.394C195.813 177.394 188.736 196.066 173.205 194.265C173.205 194.265 158.835 210.242 130.839 200.099L120.532 195.872L141.168 79.439Z" fill="black"/>
<path d="M86.6337 84.9518C86.6337 84.9518 68.0071 87.3555 64.3979 103.898C60.7887 120.441 62.0984 116.534 51.8735 124.951C41.6486 133.375 54.5823 142.9 46.4559 151.324C42.3109 155.626 40.3611 159.146 39.9593 163.201C39.2598 170.338 44.2011 176.708 51.0995 178.665C55.8101 180.005 59.6501 184.462 62.4556 190.527C68.0146 202.561 87.8914 197.337 87.8914 197.337C87.8914 197.337 106.667 208.276 118.172 200.157C129.677 192.038 112.337 80.1445 112.337 80.1445L86.6337 84.9518Z" fill="black"/>
<path d="M145.004 80.3541C145.004 80.3541 137.912 63 112.358 63C86.8027 63 78.8921 89.6265 78.8921 89.6265L116.071 111.148L145.004 80.3541Z" fill="black"/>
<path d="M92.0782 142.023C94.6158 147.694 94.4 156.854 89.0197 158.879C83.6393 160.903 77.2097 153.595 74.672 147.924C72.1344 142.254 73.6823 137.32 79.0701 135.296C84.4579 133.272 89.5406 136.345 92.0782 142.023Z" fill="#CA927B"/>
<path d="M78.8918 142.114C78.8918 142.114 85.4778 140.366 87.941 149.311" stroke="#995342" stroke-width="0.4819" stroke-miterlimit="10" stroke-linecap="round" stroke-linejoin="round"/>
<path d="M160.472 142.022C157.934 147.693 158.15 156.853 163.53 158.878C168.911 160.902 175.34 153.594 177.878 147.923C180.416 142.253 178.868 137.319 173.48 135.295C168.1 133.263 163.009 136.344 160.472 142.022Z" fill="#CA927B"/>
<path d="M173.612 142.114C173.612 142.114 167.026 140.366 164.563 149.311" stroke="#995342" stroke-width="0.4819" stroke-miterlimit="10" stroke-linecap="round" stroke-linejoin="round"/>
<path d="M126.159 163.707C151.221 163.707 171.538 144.206 171.538 120.151C171.538 96.0953 151.221 76.5945 126.159 76.5945C101.096 76.5945 80.7791 96.0953 80.7791 120.151C80.7791 144.206 101.096 163.707 126.159 163.707Z" fill="black"/>
<path d="M113.031 173.183L107.323 227.537H141.131L135.289 172.625L113.031 173.183Z" fill="#CA927B"/>
<path d="M112.355 182.781L138.624 203.134L135.759 175.793L112.355 182.781Z" fill="#995342"/>
<path d="M126.192 81.6934C105.214 81.6934 86.6917 97.9164 86.6917 117.935L87.8972 141.956C87.8972 141.956 88.3288 176.01 120.656 186.376C124.235 187.522 128.149 187.522 131.729 186.376C164.056 176.017 164.487 141.956 164.487 141.956L165.693 117.935C165.7 97.9164 147.17 81.6934 126.192 81.6934Z" fill="#CA927B"/>
<path d="M123.929 147.299V152.881L128.029 152.925" stroke="#995342" stroke-width="0.4819" stroke-miterlimit="10" stroke-linecap="round" stroke-linejoin="round"/>
<path d="M117.388 139.136C117.388 139.136 114.664 132.222 108.012 131.902C101.359 131.582 97.3848 136.866 97.3848 136.866C97.3848 136.866 99.074 142.738 107.141 143.125C115.208 143.512 117.388 139.136 117.388 139.136Z" fill="white"/>
<path d="M100.664 137.26C100.485 140.921 103.313 144.032 106.974 144.21C110.636 144.389 113.746 141.561 113.925 137.9C114.103 134.238 111.276 131.128 107.614 130.949C103.953 130.77 100.842 133.591 100.664 137.26Z" fill="black"/>
<path d="M117.388 139.134C117.388 139.134 114.888 131.968 108.012 131.901C101.135 131.834 97.3848 136.865 97.3848 136.865" stroke="black" stroke-width="0.3755" stroke-miterlimit="10" stroke-linecap="round" stroke-linejoin="round"/>
<path d="M134.622 139.136C134.622 139.136 137.346 132.222 143.999 131.902C150.652 131.582 154.626 136.866 154.626 136.866C154.626 136.866 152.936 142.738 144.87 143.125C136.795 143.512 134.622 139.136 134.622 139.136Z" fill="white"/>
<path d="M151.288 137.26C151.467 140.921 148.639 144.032 144.977 144.21C141.316 144.389 138.205 141.561 138.027 137.9C137.848 134.238 140.676 131.128 144.337 130.949C148.006 130.77 151.117 133.591 151.288 137.26Z" fill="black"/>
<path d="M134.622 139.134C134.622 139.134 137.123 131.968 143.999 131.901C150.875 131.834 154.626 136.865 154.626 136.865" stroke="black" stroke-width="0.3755" stroke-miterlimit="10" stroke-linecap="round" stroke-linejoin="round"/>
<path d="M105.137 111.273C105.137 111.273 98.425 112.137 95.1656 114.168C93.1637 115.418 93.2158 117.725 95.6344 118.529C97.8595 119.273 102.637 118.782 105.48 118.462C112.438 117.673 117.059 115.084 116.613 112.933C116.032 110.165 108.799 110.619 105.137 111.273Z" fill="black"/>
<path d="M145.875 111.273C145.875 111.273 152.588 112.137 155.847 114.168C157.849 115.418 157.797 117.725 155.379 118.529C153.153 119.273 148.376 118.782 145.533 118.462C138.575 117.673 133.954 115.084 134.4 112.933C134.973 110.165 142.214 110.619 145.875 111.273Z" fill="black"/>
<path d="M114.494 159.64C114.494 159.64 115.662 168.153 124.771 168.153C133.798 168.153 135.048 159.64 135.048 159.64H114.494Z" fill="#DE5A62"/>
<path d="M135.048 159.637C135.048 159.637 125.88 155.344 114.494 159.637C114.494 159.637 125.761 163.023 135.048 159.637Z" fill="#DE5A62"/>
<path d="M114.494 159.577H135.048C135.048 159.577 134.348 165.649 124.771 165.649C116.28 165.649 114.494 159.577 114.494 159.577Z" fill="white"/>
<path d="M145.024 80.3545C145.024 80.3545 143.32 99.3457 123.525 102.352C103.343 105.426 107.712 118.173 83.1986 115.115C83.1986 115.115 74.3355 101.243 87.4776 86.918C96.1695 77.4373 113.159 69.5342 125.326 70.8588C129.419 71.3053 139.138 79.0819 145.024 80.3545Z" fill="black"/>
<path d="M142.674 82.7116C142.674 82.7116 133.923 95.37 171.585 120.151C171.585 120.151 177.724 111.422 173.646 103.444C169.583 95.4742 142.674 82.7116 142.674 82.7116Z" fill="black"/>
<path d="M205.332 270.147H230.983C233.417 270.147 235.391 268.098 235.391 265.571V224.409C235.391 215.356 228.324 208.018 219.606 208.018H215.785C207.067 208.018 200 215.357 200 224.409V264.611C200 267.668 202.388 270.147 205.332 270.147Z" fill="#AEC3FF"/>
<path d="M211.594 208.932H223.796C224.324 208.932 224.752 208.487 224.752 207.939V203.733C224.752 203.185 224.324 202.74 223.796 202.74H211.594C211.066 202.74 210.638 203.185 210.638 203.733V207.939C210.638 208.487 211.067 208.932 211.594 208.932Z" fill="#FF3E79"/>
<path d="M212.246 202.74H222.514V195.112H212.246V202.74Z" fill="#2B478B"/>
<path d="M215.168 195.112H219.592V190.517H215.168V195.112Z" fill="#2A4E96"/>
<path d="M201.162 193.858C200.873 193.858 200.587 193.728 200.388 193.479C200.036 193.036 200.098 192.378 200.525 192.013C200.674 191.884 204.263 188.883 211.511 189.48C218.223 190.033 223.274 189.03 223.324 189.019C223.867 188.909 224.393 189.277 224.499 189.841C224.605 190.405 224.252 190.951 223.708 191.062C223.492 191.105 218.336 192.129 211.353 191.555C209.51 191.403 206.765 191.425 204.15 192.39C202.59 192.966 201.805 193.615 201.797 193.621C201.61 193.78 201.385 193.858 201.162 193.858Z" fill="#2B478B"/>
<path d="M268.278 258.881C269.069 251.897 271.095 247.202 277.652 247.004C282.827 246.847 286.515 251.772 287.025 259.474C287.458 266.011 285 272.127 277.224 270.382C272.143 269.241 267.543 265.374 268.278 258.881Z" fill="#AEC3FF"/>
<path d="M250.905 247.004H278.104V270.453H251.906L250.905 247.004Z" fill="#AEC3FF"/>
<path d="M241.082 258.881C241.911 251.897 244.034 247.202 250.905 247.004C256.329 246.847 260.193 251.772 260.728 259.474C261.182 266.011 256.326 271.122 250.457 270.382C245.06 269.701 240.312 265.374 241.082 258.881Z" fill="#D2E0FF"/>
<path d="M252.365 266.846C252.332 266.846 252.3 266.846 252.267 266.845C250.146 266.817 248.516 266.444 247.281 265.705C245.811 264.824 244.9 263.394 244.574 261.455C244.131 258.82 244.327 256.754 245.156 255.315C245.879 254.059 247.084 253.292 248.736 253.034C250.958 252.688 252.628 253.219 253.567 254.572C254.437 255.826 254.648 257.697 254.159 259.842C253.926 260.864 253.342 261.761 252.513 262.366C251.757 262.919 250.848 263.192 250.02 263.116C248.678 262.993 247.783 262.014 247.626 260.497C247.482 259.103 247.696 258.104 248.264 257.529C249.239 256.54 250.87 257.21 250.939 257.24C251.038 257.281 251.09 257.414 251.057 257.536C251.023 257.659 250.916 257.724 250.817 257.683C250.802 257.677 249.313 257.067 248.501 257.892C248.042 258.358 247.874 259.215 248 260.437C248.064 261.052 248.391 262.497 250.046 262.649C251.498 262.782 253.344 261.698 253.795 259.715C254.242 257.755 254.054 255.992 253.281 254.877C252.428 253.649 250.873 253.171 248.783 253.498C247.24 253.739 246.123 254.441 245.463 255.586C244.697 256.914 244.523 258.857 244.943 261.359C245.248 263.174 246.066 264.457 247.445 265.282C248.629 265.991 250.207 266.348 252.27 266.376C252.301 266.376 252.333 266.376 252.364 266.376C254.106 266.376 255.457 265.729 256.38 264.453C257.441 262.985 257.882 260.71 257.622 258.047C257.424 256.01 256.877 254.315 255.999 253.01C254.882 251.352 253.198 250.272 250.992 249.801C249.094 249.397 247.054 249.757 245.393 250.791C243.994 251.663 242.19 253.448 241.54 257.005C241.517 257.131 241.415 257.21 241.314 257.182C241.212 257.153 241.149 257.028 241.172 256.902C241.854 253.166 243.752 251.29 245.223 250.374C246.954 249.295 249.08 248.918 251.056 249.341C255.188 250.222 257.524 253.133 257.997 257.991C258.27 260.79 257.795 263.196 256.661 264.766C255.664 266.147 254.219 266.846 252.365 266.846Z" fill="#AEC3FF"/>
<path d="M292.038 216.807L288.986 261.821H276.488L274 216.807H292.038Z" fill="#FF3E79"/>
<path d="M288.986 268.334V261.82H276.489V268.334C276.489 269.388 277.305 270.242 278.312 270.242H287.163C288.17 270.243 288.986 269.388 288.986 268.334Z" fill="#2B478B"/>
<path d="M292.039 214H274V216.807H292.039V214Z" fill="#FF0B55"/>
<path opacity="0.3" d="M282.745 252.782C280.152 252.782 277.988 250.709 277.761 248.006C277.019 239.189 275.527 221.164 275.648 220.211C275.809 218.946 276.977 218.315 278.064 218.609C279.151 218.904 282.614 219.578 285.553 218.778C288.493 217.977 290.144 218.104 290.385 219.326C290.57 220.261 288.975 239.355 288.216 248.27C287.999 250.824 285.953 252.782 283.502 252.782H282.745Z" fill="#FFB3CA"/>
<path d="M214.048 218.99C214.048 218.99 214.159 215.486 217.518 213.641C220.876 211.797 220.988 214.431 220.316 215.289C219.645 216.148 218.301 218.344 217.573 220.438C216.846 222.533 213.569 220.98 214.048 218.99Z" fill="#C5D7FF"/>
</svg>
