<svg width="26" height="26" viewBox="0 0 26 26" fill="none" xmlns="http://www.w3.org/2000/svg">
<path d="M21.5312 3.25H17.0625V2.4375C17.0625 1.09129 15.9712 0 14.625 0H11.375C10.0288 0 8.9375 1.09129 8.9375 2.4375V3.25H4.46875C3.34694 3.25 2.4375 4.15944 2.4375 5.28125V6.90625C2.4375 7.355 2.80125 7.71875 3.25 7.71875H22.75C23.1988 7.71875 23.5625 7.355 23.5625 6.90625V5.28125C23.5625 4.15944 22.6531 3.25 21.5312 3.25ZM10.5625 2.4375C10.5625 1.98961 10.9271 1.625 11.375 1.625H14.625C15.0729 1.625 15.4375 1.98961 15.4375 2.4375V3.25H10.5625V2.4375Z" fill="#FF0505"/>
<path d="M3.97997 9.34375C3.83499 9.34375 3.71946 9.46491 3.72637 9.60974L4.39668 23.6783C4.45863 24.9803 5.52809 26 6.83113 26H19.17C20.473 26 21.5425 24.9803 21.6044 23.6783L22.2747 9.60974C22.2816 9.46491 22.1661 9.34375 22.0211 9.34375H3.97997ZM16.2505 11.375C16.2505 10.9261 16.6141 10.5625 17.063 10.5625C17.512 10.5625 17.8755 10.9261 17.8755 11.375V21.9375C17.8755 22.3864 17.512 22.75 17.063 22.75C16.6141 22.75 16.2505 22.3864 16.2505 21.9375V11.375ZM12.188 11.375C12.188 10.9261 12.5516 10.5625 13.0005 10.5625C13.4495 10.5625 13.813 10.9261 13.813 11.375V21.9375C13.813 22.3864 13.4495 22.75 13.0005 22.75C12.5516 22.75 12.188 22.3864 12.188 21.9375V11.375ZM8.12555 11.375C8.12555 10.9261 8.48914 10.5625 8.93805 10.5625C9.38695 10.5625 9.75055 10.9261 9.75055 11.375V21.9375C9.75055 22.3864 9.38695 22.75 8.93805 22.75C8.48914 22.75 8.12555 22.3864 8.12555 21.9375V11.375Z" fill="#FF0505"/>
</svg>
