<svg width="12" height="12" viewBox="0 0 12 12" fill="none" xmlns="http://www.w3.org/2000/svg">
<path d="M12 0.568651C11.7299 1.48194 11.1046 2.19359 10.609 2.97501C8.89517 5.67616 7.15538 8.36071 5.42579 11.0512C4.92512 11.8301 3.94846 11.9113 3.34229 11.2116C2.3333 10.0465 1.33068 8.87542 0.331897 7.70138C-0.268735 6.99525 -0.0237183 5.99732 0.821507 5.66255C1.3226 5.46432 1.87772 5.62299 2.27289 6.08282C2.88416 6.79362 3.4933 7.50656 4.10372 8.21821C4.142 8.26245 4.18156 8.30584 4.23388 8.36412C4.2777 8.31648 4.31768 8.27692 4.35342 8.23395C6.40288 5.76293 8.4515 3.29107 10.5031 0.821751C10.6809 0.607361 10.8655 0.393821 11.0748 0.21261C11.1939 0.109669 11.3645 0.0513926 11.5215 0.0118325C11.7261 -0.0400636 11.8979 0.083721 11.9596 0.285775C11.9706 0.321932 11.9864 0.356388 12 0.39212C12 0.450822 12 0.509524 12 0.568651Z" fill="#08B74E"/>
</svg>
