<svg width="28" height="28" viewBox="0 0 28 28" fill="none" xmlns="http://www.w3.org/2000/svg">
<path d="M9.71854 12.4821C12.9287 12.4821 15.531 9.87979 15.531 6.66965C15.531 3.45951 12.9287 0.857178 9.71854 0.857178C6.5084 0.857178 3.90607 3.45951 3.90607 6.66965C3.90607 9.87979 6.5084 12.4821 9.71854 12.4821Z" stroke="#475168" stroke-width="1.5" stroke-linecap="round" stroke-linejoin="round"/>
<path d="M1.00003 27.0134V24.1071C1.00003 22.5656 1.61241 21.0872 2.70246 19.9971C3.79251 18.9071 5.27094 18.2947 6.8125 18.2947H12.625C14.1665 18.2947 15.645 18.9071 16.735 19.9971C17.8251 21.0872 18.4374 22.5656 18.4374 24.1071V27.0134" stroke="#475168" stroke-width="1.5" stroke-linecap="round" stroke-linejoin="round"/>
<path d="M19.8907 1.0459C21.1409 1.36602 22.2491 2.09316 23.0405 3.11268C23.8319 4.1322 24.2614 5.38611 24.2614 6.67673C24.2614 7.96734 23.8319 9.22125 23.0405 10.2408C22.2491 11.2603 21.1409 11.9874 19.8907 12.3076" stroke="#475168" stroke-width="1.5" stroke-linecap="round" stroke-linejoin="round"/>
<path d="M27.156 27.0129V24.1067C27.1487 22.8238 26.7171 21.5794 25.9285 20.5675C25.14 19.5556 24.0389 18.8329 22.7967 18.5122" stroke="#475168" stroke-width="1.5" stroke-linecap="round" stroke-linejoin="round"/>
</svg>
