<svg width="55" height="57" viewBox="0 0 55 57" fill="none" xmlns="http://www.w3.org/2000/svg">
<path d="M10.2871 49.4318C10.2871 49.4318 19.9585 45.6697 20.0722 43.1973C20.186 40.7249 20.2999 40.5099 20.0722 40.1874C19.8447 39.865 17.2279 35.7804 17.0002 34.1679C17.0002 34.1679 14.497 30.0831 16.5452 25.7835C16.5452 25.7835 16.09 19.5488 17.114 17.7214C18.138 15.8942 21.0964 12.2394 27.9231 12.5619C34.75 12.8844 37.1394 16.0017 37.4807 16.8617C37.822 17.7214 38.3909 18.9039 38.3909 21.6987C38.277 24.4936 37.9357 25.5685 38.6184 26.106C39.3012 26.536 40.4389 32.7705 37.3669 34.3829C37.3669 34.3829 35.4327 38.8975 33.9535 40.2949C33.9535 40.2949 33.0432 43.9498 35.205 45.1322C37.3669 46.3146 44.5351 49.8618 44.5351 49.8618" stroke="#F9357C" stroke-width="1.5" stroke-miterlimit="10"/>
<path d="M27.2845 55.3817C41.801 55.3817 53.569 43.2079 53.569 28.1909C53.569 13.1737 41.801 1 27.2845 1C12.768 1 1 13.1737 1 28.1909C1 43.2079 12.768 55.3817 27.2845 55.3817Z" stroke="#F9357C" stroke-width="1.5" stroke-miterlimit="10"/>
</svg>
