<svg width="310" height="271" viewBox="0 0 310 271" fill="none" xmlns="http://www.w3.org/2000/svg">
<rect width="310" height="271" fill="#F0E3E7"/>
<path d="M100.517 153.52C99.5704 153.873 98.6271 154.226 97.6802 154.579C97.2085 154.757 96.7333 154.932 96.2616 155.11C95.7969 155.284 95.3322 155.452 94.8466 155.536C94.4063 155.613 93.9766 155.609 93.5363 155.672C93.0542 155.746 92.5755 155.906 92.1038 156.057C91.129 156.368 90.1577 156.679 89.1828 156.99C88.0718 157.342 86.9642 157.699 85.8531 158.052C85.3465 158.212 85.2242 157.716 85.7308 157.556C87.6769 156.934 89.6231 156.315 91.5692 155.693C92.0304 155.547 92.4951 155.386 92.9633 155.27C93.442 155.152 93.8892 155.103 94.3574 155.064C95.3218 154.987 96.2337 154.579 97.1561 154.233C98.2357 153.831 99.3119 153.426 100.392 153.024C100.601 152.947 100.814 153.034 100.849 153.157C100.891 153.303 100.727 153.443 100.517 153.52Z" fill="#5E5E60"/>
<path d="M101.625 160.211C101.206 160.847 100.395 161.476 99.3328 161.602C98.7528 161.671 98.2287 161.546 97.6522 161.609C97.0722 161.671 96.5201 161.933 95.996 162.14C95.4684 162.346 94.9338 162.517 94.3573 162.58C93.8123 162.636 93.2917 162.604 92.7711 162.573C92.2644 162.541 91.7299 162.499 91.1988 162.573C90.6852 162.643 90.196 162.817 89.7208 162.992C88.5783 163.408 87.4393 163.799 86.3387 163.46C85.9089 163.328 86.419 162.859 86.8488 162.992C87.6734 163.244 88.6377 162.831 89.4693 162.531C89.927 162.363 90.4022 162.199 90.8913 162.105C91.3805 162.01 91.8731 161.996 92.3448 162.014C93.3161 162.049 94.2735 162.202 95.2763 161.853C95.7899 161.675 96.2685 161.444 96.7891 161.284C97.3097 161.123 97.8094 161.049 98.3335 161.07C98.8506 161.091 99.3537 161.154 99.8743 160.938C100.353 160.742 100.674 160.41 100.888 160.089C101.104 159.76 101.845 159.875 101.625 160.211Z" fill="#5E5E60"/>
<path d="M100.563 156.259C95.8353 157.804 91.0905 159.264 86.3317 160.665C85.8251 160.815 85.6819 160.326 86.192 160.176C90.9508 158.771 95.6956 157.311 100.423 155.77C100.926 155.606 101.069 156.095 100.563 156.259Z" fill="#5E5E60"/>
<path d="M100.349 164.355C99.6856 164.198 98.9589 164.715 98.3369 164.935C97.46 165.246 96.4851 165.193 95.5977 165.218C94.5914 165.249 93.5852 165.277 92.5789 165.309C92.1352 165.323 91.6565 165.323 91.2197 165.476C90.8389 165.613 90.5244 165.84 90.2135 166.035C89.4168 166.542 88.5084 166.87 87.4882 166.94C86.9711 166.975 87.1038 166.448 87.6209 166.413C88.5573 166.35 89.2666 165.976 89.9724 165.529C90.2903 165.326 90.6362 165.12 91.0311 164.994C91.4888 164.847 91.9674 164.806 92.4356 164.788C93.4384 164.75 94.4342 164.729 95.437 164.697C95.9261 164.683 96.4188 164.669 96.9079 164.652C97.3691 164.638 97.7779 164.596 98.2112 164.425C99.0078 164.11 99.8149 163.635 100.685 163.838C101.132 163.943 100.8 164.46 100.349 164.355Z" fill="#5E5E60"/>
<path d="M102.261 166.895C101.429 166.643 100.388 166.629 99.4306 166.979C98.889 167.174 98.4243 167.471 97.8758 167.657C97.3831 167.824 96.8695 167.894 96.3594 167.912C95.3881 167.947 94.4447 167.807 93.4559 168.09C92.5789 168.341 91.7963 168.768 90.9822 169.11C90.0423 169.505 89.0465 169.777 88.0507 169.659C87.5651 169.599 87.9005 169.082 88.3862 169.142C89.2282 169.243 90.0738 168.932 90.8459 168.597C91.6845 168.233 92.4881 167.821 93.4035 167.576C94.4307 167.3 95.3916 167.409 96.3978 167.384C96.9429 167.37 97.4321 167.29 97.9352 167.073C98.4278 166.86 98.8786 166.605 99.4131 166.441C100.598 166.081 101.779 166.123 102.778 166.423C103.204 166.56 102.69 167.024 102.261 166.895Z" fill="#5E5E60"/>
<path d="M101.328 170.476C100.563 170.7 99.8849 170.62 99.1581 170.571C98.8402 170.55 98.4908 170.536 98.1588 170.613C97.7815 170.7 97.467 170.913 97.1735 171.098C96.4503 171.556 95.7096 171.888 94.7872 172.087C93.8787 172.283 92.9388 172.391 92.0269 172.468C90.9123 172.562 89.8082 172.58 88.7286 172.538C88.229 172.517 88.3582 171.989 88.8614 172.01C90.0528 172.059 91.2687 172.031 92.4986 171.909C93.5747 171.804 94.8151 171.668 95.8109 171.241C96.7158 170.85 97.3063 170.183 98.3999 170.057C98.8786 170.001 99.3258 170.043 99.7766 170.078C100.168 170.106 100.622 170.151 101.034 170.033C101.248 169.97 101.471 169.984 101.558 170.113C101.632 170.218 101.541 170.413 101.328 170.476Z" fill="#5E5E60"/>
<mask id="mask0" style="mask-type:alpha" maskUnits="userSpaceOnUse" x="35" y="27" width="236" height="236">
<path d="M168.836 246.466C224.957 237.637 263.295 184.984 254.466 128.863C245.637 72.7424 192.984 34.4046 136.863 43.2335C80.7424 52.0624 42.4046 104.715 51.2335 160.836C60.0624 216.957 112.715 255.295 168.836 246.466Z" fill="#F1B299"/>
</mask>
<g mask="url(#mask0)">
<path d="M165.443 97.2373C164.749 91.7139 169.21 86.8091 174.771 87.1652C179.388 87.4589 184.949 89.6645 190.073 96.5625C201.763 112.295 199.907 111.096 210.223 118.881C220.539 126.666 218.539 135.151 230.573 144.954C240.852 153.333 247.243 160.2 241.17 164.167C238.79 165.729 237.415 168.441 237.353 171.29C237.278 174.527 236.528 178.388 233.691 180.256C230.786 182.168 229.118 185.461 229.567 188.904C230.273 194.284 228.624 199.482 216.577 193.284C215.403 192.678 206.574 194.284 203.856 193.921C203.419 193.865 194.397 196.445 193.959 196.427L185.399 196.108C181.007 195.946 177.377 192.622 176.833 188.26L165.443 97.2373Z" fill="black"/>
<path d="M118.688 94.9691C118.688 94.9691 103.048 97.762 100.018 116.95C96.9877 136.138 98.0874 131.602 89.5024 141.374C80.9175 151.146 102.567 162.53 95.7443 172.302C92.2641 177.295 102.436 182.862 102.105 187.567C101.518 195.846 113.483 195.464 119.275 197.745C123.23 199.301 159.95 185.624 162.3 192.659C166.967 206.617 185.418 190.116 185.418 190.116C185.418 190.116 194.203 191.903 203.862 182.487C213.522 173.065 140.269 89.3895 140.269 89.3895L118.688 94.9691Z" fill="black"/>
<path d="M167.654 89.5707C167.654 89.5707 161.7 75.0001 140.244 75.0001C118.788 75.0001 112.146 97.3559 112.146 97.3559L143.362 115.426L167.654 89.5707Z" fill="black"/>
<path d="M123.211 141.343C125.342 146.104 125.161 153.795 120.643 155.495C116.126 157.194 110.727 151.059 108.597 146.298C106.466 141.537 107.766 137.394 112.289 135.695C116.807 133.989 121.081 136.582 123.211 141.343Z" fill="#CA927B"/>
<path d="M112.146 141.418C112.146 141.418 117.675 139.95 119.744 147.46" stroke="#995342" stroke-width="0.4819" stroke-miterlimit="10" stroke-linecap="round" stroke-linejoin="round"/>
<path d="M180.626 141.343C178.495 146.104 178.676 153.795 183.194 155.495C187.711 157.194 193.109 151.059 195.24 146.298C197.371 141.537 196.071 137.394 191.547 135.695C187.03 133.989 182.756 136.582 180.626 141.343Z" fill="#CA927B"/>
<path d="M191.691 141.418C191.691 141.418 186.161 139.95 184.093 147.46" stroke="#995342" stroke-width="0.4819" stroke-miterlimit="10" stroke-linecap="round" stroke-linejoin="round"/>
<path d="M151.853 159.55C172.895 159.55 189.954 143.177 189.954 122.98C189.954 102.782 172.895 86.4092 151.853 86.4092C130.81 86.4092 113.751 102.782 113.751 122.98C113.751 143.177 130.81 159.55 151.853 159.55Z" fill="black"/>
<path d="M140.887 167.504L136.095 213.147H164.48L159.576 167.035L140.887 167.504Z" fill="#CA927B"/>
<path d="M140.244 175.564L162.3 192.659L159.894 169.703L140.244 175.564Z" fill="#995342"/>
<path d="M151.853 90.6891C134.239 90.6891 118.688 104.31 118.688 121.118L119.7 141.287C119.7 141.287 120.062 169.878 147.204 178.582C150.209 179.544 153.496 179.544 156.501 178.582C183.643 169.884 184.006 141.287 184.006 141.287L185.018 121.118C185.024 104.316 169.466 90.6891 151.853 90.6891Z" fill="#CA927B"/>
<path d="M149.953 145.779V150.459L153.396 150.497" stroke="#995342" stroke-width="0.4819" stroke-miterlimit="10" stroke-linecap="round" stroke-linejoin="round"/>
<path d="M144.492 138.919C144.492 138.919 142.205 133.114 136.62 132.845C131.034 132.577 127.697 137.013 127.697 137.013C127.697 137.013 129.116 141.943 135.889 142.268C142.662 142.599 144.492 138.919 144.492 138.919Z" fill="white"/>
<path d="M130.49 137.344C130.34 140.418 132.715 143.03 135.789 143.18C138.863 143.33 141.475 140.956 141.625 137.882C141.775 134.807 139.4 132.196 136.326 132.046C133.252 131.896 130.64 134.27 130.49 137.344Z" fill="black"/>
<path d="M144.492 138.919C144.492 138.919 142.393 132.902 136.62 132.845C130.846 132.789 127.697 137.013 127.697 137.013" stroke="black" stroke-width="0.3755" stroke-miterlimit="10" stroke-linecap="round" stroke-linejoin="round"/>
<path d="M158.938 138.919C158.938 138.919 161.225 133.114 166.811 132.845C172.397 132.577 175.733 137.013 175.733 137.013C175.733 137.013 174.315 141.943 167.542 142.268C160.762 142.599 158.938 138.919 158.938 138.919Z" fill="white"/>
<path d="M172.934 137.344C173.084 140.418 170.71 143.03 167.635 143.18C164.561 143.33 161.95 140.956 161.8 137.882C161.65 134.807 164.024 132.196 167.098 132.046C170.178 131.896 172.79 134.27 172.934 137.344Z" fill="black"/>
<path d="M158.938 138.919C158.938 138.919 161.037 132.902 166.811 132.845C172.584 132.789 175.733 137.013 175.733 137.013" stroke="black" stroke-width="0.3755" stroke-miterlimit="10" stroke-linecap="round" stroke-linejoin="round"/>
<path d="M134.17 115.532C134.17 115.532 128.535 116.257 125.798 117.962C124.117 119.012 124.161 120.949 126.192 121.624C128.06 122.249 132.071 121.836 134.458 121.568C140.3 120.905 144.18 118.731 143.805 116.925C143.318 114.601 137.245 114.976 134.17 115.532Z" fill="black"/>
<path d="M168.379 115.532C168.379 115.532 174.015 116.257 176.752 117.962C178.432 119.012 178.389 120.949 176.358 121.624C174.49 122.249 170.478 121.836 168.092 121.568C162.25 120.905 158.37 118.731 158.744 116.925C159.226 114.601 165.305 114.976 168.379 115.532Z" fill="black"/>
<path d="M142.118 156.139C142.118 156.139 143.099 163.286 150.747 163.286C158.326 163.286 159.376 156.139 159.376 156.139H142.118Z" fill="#DE5A62"/>
<path d="M159.376 156.139C159.376 156.139 151.678 152.533 142.118 156.139C142.118 156.139 151.578 158.975 159.376 156.139Z" fill="#DE5A62"/>
<path d="M142.118 156.089H159.376C159.376 156.089 158.788 161.187 150.747 161.187C143.618 161.187 142.118 156.089 142.118 156.089Z" fill="white"/>
<path d="M167.654 89.5707C167.654 89.5707 166.224 105.516 149.603 108.04C132.658 110.621 136.326 121.324 115.745 118.756C115.745 118.756 108.303 107.109 119.337 95.0816C126.635 87.1214 140.9 80.4859 151.116 81.5981C154.558 81.9729 162.712 88.496 167.654 89.5707Z" fill="black"/>
<path d="M165.68 91.5452C165.68 91.5452 158.332 102.173 189.954 122.98C189.954 122.98 195.109 115.651 191.685 108.953C188.273 102.261 165.68 91.5452 165.68 91.5452Z" fill="black"/>
<path d="M227.337 243.412C225.525 234.59 219.445 227.742 211.691 224.574C211.21 224.28 210.698 224.018 210.148 223.824L149.972 201.887L95.1321 224.074C94.2636 224.374 93.4201 224.718 92.5891 225.105L92.5079 225.136C92.4704 225.155 92.4329 225.18 92.3954 225.192C85.2913 228.579 79.7929 235.108 78.0872 243.412L77 248.692H228.424L227.337 243.412Z" fill="white"/>
<path d="M110.215 217.964L149.972 201.881L192.553 217.408C192.553 217.408 190.041 236.69 151.259 236.69C112.464 236.69 110.215 217.964 110.215 217.964Z" fill="#CA927B"/>
</g>
<path d="M57.5628 210.616C57.2828 210.789 57.0258 211.015 56.8686 211.31C56.7113 211.606 56.6614 211.982 56.7919 212.304C56.976 212.76 57.4554 213.017 57.9118 213.167C58.4987 213.359 59.1124 213.443 59.7184 213.412C59.9524 213.401 60.1902 213.37 60.3935 213.259C60.5239 213.19 60.6351 213.086 60.7694 213.029C60.9036 212.971 61.0839 212.971 61.1874 213.082C61.2757 213.178 61.2872 213.332 61.245 213.451C61.1989 213.57 61.1069 213.662 61.011 213.738C60.4894 214.149 59.7759 214.145 59.1047 214.107C57.5321 214.014 56.5962 213.42 56.0554 212.657C55.8215 212.327 55.9557 211.671 56.1168 211.314C56.2779 210.958 56.5464 210.666 56.8225 210.398C57.0987 210.129 57.3864 209.876 57.6855 209.634C57.7929 209.55 57.9003 209.465 58.0307 209.431C58.1612 209.396 58.3184 209.416 58.4143 209.519C58.8746 210.014 57.8275 210.455 57.5628 210.616Z" fill="#404041"/>
<path d="M63.4998 213.126C63.64 213.295 63.758 213.477 63.8244 213.667C63.9092 213.915 63.9018 214.169 63.9203 214.423C63.9461 214.766 64.0162 215.112 64.2006 215.435C64.385 215.758 64.6838 216.055 65.0932 216.247C65.1337 216.265 65.1743 216.283 65.1964 216.314C65.237 216.37 83.0552 233.753 82.9999 233.799C82.797 233.974 82.5646 234.043 82.2511 233.974C82.1552 233.951 64.1453 216.708 64.0641 216.662C63.1384 216.116 62.5777 215.258 62.5925 214.415C62.5962 214.21 62.6331 213.997 62.5298 213.803C62.456 213.659 62.3159 213.539 62.1683 213.426C61.9618 213.27 61.7368 213.124 61.4971 212.993C61.2831 212.878 61.036 212.747 61.0028 212.558C60.9844 212.44 61.0582 212.327 61.1577 212.237C61.9581 211.512 63.0978 212.634 63.4998 213.126Z" fill="#404041"/>
<path d="M61.8357 213.892L63.6691 212.265C63.9759 211.993 64.0296 211.556 63.7957 211.291L59.7261 206.712C59.4883 206.443 59.0472 206.447 58.7404 206.719L56.907 208.345C56.6001 208.618 56.5464 209.055 56.7804 209.32L60.8499 213.899C61.0877 214.168 61.5288 214.164 61.8357 213.892Z" fill="#404041"/>
<path d="M61.5941 213.194C61.7629 213.044 61.7936 212.802 61.6631 212.653C61.5327 212.503 61.2873 212.507 61.1185 212.657L60.3514 213.336L59.776 212.687L60.478 212.062C60.6467 211.913 60.6774 211.671 60.547 211.521C60.4166 211.372 60.1711 211.376 60.0023 211.525L59.3004 212.15L58.844 211.636L59.5459 211.011C59.7147 210.862 59.7454 210.62 59.6149 210.47C59.4845 210.321 59.2391 210.325 59.0703 210.474L58.3684 211.099L57.8544 210.52L58.5563 209.895C58.7251 209.746 58.7558 209.504 58.6254 209.354C58.495 209.205 58.2495 209.209 58.0807 209.358L57.3788 209.983L56.7881 209.316C56.5503 209.047 56.6079 208.614 56.9147 208.342L58.7481 206.715C59.055 206.443 59.496 206.439 59.7338 206.708L60.2593 207.298L59.4577 208.012C59.2889 208.161 59.2582 208.403 59.3886 208.553C59.5191 208.702 59.7645 208.698 59.9333 208.549L60.7349 207.835L61.2489 208.415L60.4473 209.128C60.2785 209.278 60.2478 209.519 60.3782 209.669C60.5086 209.818 60.7541 209.815 60.9229 209.665L61.7245 208.952L62.181 209.466L61.3793 210.179C61.2106 210.329 61.1799 210.57 61.3103 210.72C61.4407 210.869 61.6862 210.866 61.8549 210.716L62.6566 210.002L63.2319 210.651L62.4916 211.307C62.3229 211.456 62.2922 211.698 62.4226 211.847C62.553 211.997 62.7985 211.993 62.9672 211.844L63.7075 211.188L63.7996 211.291C64.0374 211.56 63.9798 211.993 63.673 212.265L61.8396 213.892C61.5327 214.164 61.0916 214.168 60.8538 213.899L60.827 213.873L61.5941 213.194Z" fill="#5E5E60"/>
<path d="M48.9711 206.635C48.8944 206.689 48.8023 206.742 48.7103 206.719C48.6221 206.7 48.5607 206.619 48.507 206.547C47.8319 205.58 47.1914 204.587 46.5854 203.574C46.5317 203.482 46.4741 203.386 46.478 203.279C46.4856 203.118 46.6276 202.999 46.7618 202.907C47.0955 202.676 47.4484 202.469 47.8166 202.297C47.9355 202.239 48.0621 202.186 48.1925 202.212C48.2999 202.235 48.3881 202.316 48.4686 202.393C49.1897 203.072 49.9262 203.773 50.3366 204.671C50.5782 205.212 49.4199 206.324 48.9711 206.635Z" fill="#5E5E60"/>
<path d="M41.5417 195.772C41.3422 195.596 41.1159 195.416 41.0622 195.155C41.0008 194.879 41.1581 194.591 41.3806 194.418C41.603 194.242 41.8792 194.158 42.1477 194.073C42.2973 194.027 42.4545 193.981 42.6079 194.008C42.7844 194.039 42.9301 194.165 43.0644 194.288C44.192 195.362 46.8079 198.519 45.0474 200.038C44.0578 200.893 43.7318 199.689 43.5055 198.898C43.1564 197.694 42.489 196.597 41.5417 195.772Z" fill="#5E5E60"/>
<path d="M55.5951 199.758C57.1255 200.824 58.7556 201.863 59.7375 203.359C60.7194 204.855 60.8652 206.972 59.4882 208.303C59.0548 208.721 58.5063 209.032 57.9616 209.331C57.2674 209.711 56.5463 210.087 55.7562 210.202C53.8729 210.474 52.2466 209.228 51.0384 207.973C46.7119 203.478 36.8582 185.938 36.2522 182.164C36.0528 180.925 36.1487 179.433 37.3185 178.677C38.0166 178.225 38.9295 178.167 39.7618 178.263C40.8818 178.393 42.0516 178.865 42.4467 179.797C42.9913 181.078 42.0248 182.463 42.4429 183.809C42.93 185.378 43.6741 186.901 44.5141 188.331C46.1902 191.197 48.4149 193.774 50.9463 196.068C52.4 197.387 53.9611 198.618 55.5951 199.758Z" fill="#C55B55"/>
<path d="M40.2797 182.904C40.9586 182.847 41.6643 182.873 42.3394 183.004C42.3355 183.272 42.3624 183.545 42.4468 183.809C42.7536 184.791 43.1563 185.75 43.6204 186.682C43.5169 186.836 43.421 186.997 43.3366 187.162C42.7574 188.335 42.8572 189.754 43.3213 190.974C43.7854 192.198 44.5793 193.264 45.381 194.296C48.2001 197.92 51.3185 201.418 55.2308 203.823C55.9365 204.257 56.6883 204.663 57.5129 204.778C58.1995 204.874 58.9743 204.74 59.5151 204.284C59.7337 204.103 59.8603 203.912 59.9447 203.712C60.731 205.173 60.7578 207.076 59.4883 208.303C59.0548 208.721 58.5063 209.032 57.9617 209.331C57.2675 209.711 56.5464 210.087 55.7562 210.202C53.873 210.474 52.2467 209.228 51.0385 207.973C47.2834 204.073 39.3745 190.36 36.9465 184.327C37.7328 183.433 39.0484 183.008 40.2797 182.904Z" fill="#B65451"/>
<path d="M51.0422 207.973C48.3189 205.143 43.4055 197.146 39.988 190.667C40.5787 190.353 41.2921 190.303 42.0477 190.717C42.9184 191.189 43.4554 192.09 43.9502 192.949C45.285 195.266 46.6236 197.583 47.9584 199.903C48.4493 200.755 48.948 201.614 49.6537 202.297C50.6663 203.279 52.143 203.954 52.5151 205.315C52.6915 205.967 52.5688 206.662 52.3578 207.302C52.2005 207.774 51.9973 208.227 51.7479 208.656C51.4986 208.434 51.2608 208.204 51.0422 207.973Z" fill="#EDE4C8"/>
<path d="M30.0694 167.286C30.0694 167.286 39.4743 165.314 48.9712 163.876C58.4719 162.437 71.8543 161.455 71.8543 161.455L74.1288 174.071C74.1288 174.071 63.4198 180.039 54.9432 182.931C49.4583 184.803 33.6749 187.269 33.6749 187.269C33.6749 187.269 29.3675 182.367 28.2552 176.894C27.1429 171.416 30.0694 167.286 30.0694 167.286Z" fill="#C55B55"/>
<path d="M74.1324 174.071C74.1324 174.071 72.6902 174.872 70.4502 176.031L67.8804 161.774C70.3045 161.567 71.8579 161.452 71.8579 161.452L74.1324 174.071Z" fill="#EDE4C8"/>
<path d="M30.0655 167.251C30.0655 167.251 30.9362 167.067 32.4091 166.775C32.06 167.543 31.7647 168.333 31.5422 169.146C30.6524 172.36 30.8748 175.942 32.5011 178.854C33.0918 179.908 33.8666 180.879 34.8753 181.546C36.4287 182.578 38.3772 182.804 40.2413 182.762C43.9695 182.678 47.6095 181.634 51.1536 180.461C53.4089 179.721 55.6412 178.907 57.8543 178.048C61.851 176.495 65.7786 174.761 69.6142 172.847C70.412 172.452 72.1841 171.152 73.5265 170.707L74.1287 174.04C74.1287 174.04 63.4198 180.008 54.9431 182.9C49.4582 184.772 33.6748 187.238 33.6748 187.238C33.6748 187.238 29.3674 182.34 28.2551 176.863C27.1351 171.386 30.0655 167.251 30.0655 167.251Z" fill="#B65451"/>
<path d="M69.8481 172.698C70.7227 172.195 72.2952 171.075 73.5188 170.665L74.1287 174.048C74.1287 174.048 72.6903 174.857 70.4503 176.027L69.8481 172.698Z" fill="#DBD3BC"/>
<path opacity="0.18" d="M70.834 163.638C70.7266 164.11 70.2894 164.455 69.8253 164.597C69.3612 164.739 68.8626 164.716 68.3793 164.697C60.6391 164.401 52.941 165.694 45.2737 166.798C45.0666 166.829 44.848 166.856 44.6485 166.783C44.4529 166.71 44.2918 166.492 44.357 166.292C44.4107 166.12 44.5987 166.031 44.7713 165.966C45.826 165.579 46.9575 165.441 48.0737 165.306C54.5558 164.52 61.0303 163.68 67.5009 162.794C68.2642 162.691 71.2291 161.912 70.834 163.638Z" fill="white"/>
<path opacity="0.18" d="M42.5542 166.983C42.4085 167.255 42.0403 167.293 41.7296 167.309C40.8359 167.351 39.946 167.477 39.0792 167.684C38.8682 167.734 38.6496 167.792 38.4348 167.765C38.22 167.742 37.9976 167.615 37.9285 167.408C37.8365 167.14 38.0398 166.841 38.3006 166.722C38.5614 166.603 38.8567 166.614 39.1406 166.618C39.8885 166.63 40.6403 166.564 41.3767 166.43C41.6951 166.377 43.003 166.154 42.5542 166.983Z" fill="white"/>
<path d="M81.4814 156.362C81.0557 156.488 80.6299 156.619 80.2042 156.745C79.9932 156.811 79.7784 156.872 79.5675 156.937C79.3565 156.999 79.1494 157.06 78.9269 157.06C78.7275 157.06 78.5319 157.002 78.3324 156.995C78.1138 156.987 77.899 157.037 77.6842 157.083C77.2469 157.179 76.8059 157.275 76.3686 157.371C75.87 157.478 75.3675 157.589 74.8689 157.697C74.6426 157.746 74.5774 157.39 74.8037 157.34C75.682 157.148 76.5604 156.96 77.4387 156.768C77.6458 156.722 77.8568 156.669 78.0678 156.646C78.2826 156.623 78.4858 156.642 78.7006 156.673C79.1379 156.738 79.5483 156.565 79.9625 156.442C80.4497 156.297 80.9329 156.151 81.4162 156.005C81.5121 155.978 81.608 156.063 81.6272 156.151C81.6464 156.258 81.5735 156.335 81.4814 156.362Z" fill="#5E5E60"/>
<path d="M81.7767 158.015C80.7257 158.119 79.671 158.203 78.6238 158.337C77.5844 158.468 76.5488 158.663 75.563 159.028C75.3444 159.108 75.1872 158.782 75.4058 158.702C77.4156 157.957 79.5981 157.865 81.7077 157.662C81.9455 157.639 82.0107 157.996 81.7767 158.015Z" fill="#5E5E60"/>
<path d="M82.0798 159.687C81.5582 159.714 81.0365 159.741 80.5149 159.764C80.2502 159.776 79.9856 159.791 79.7209 159.802C79.5061 159.814 79.2146 159.779 79.0305 159.914C78.9385 159.983 78.8656 160.067 78.7735 160.132C78.6777 160.197 78.5741 160.24 78.4629 160.27C78.2251 160.336 77.9719 160.362 77.7264 160.405C77.4771 160.447 77.224 160.493 76.9747 160.535C76.7292 160.577 76.4799 160.639 76.2344 160.654C75.7281 160.692 75.3369 160.378 75.2218 159.891C75.1681 159.664 75.5248 159.599 75.5785 159.825C75.6169 159.99 75.7089 160.144 75.8585 160.232C76.0388 160.339 76.2536 160.293 76.4453 160.259C76.9133 160.178 77.3774 160.098 77.8453 160.013C78.0525 159.979 78.2864 159.963 78.482 159.879C78.6777 159.795 78.7966 159.595 78.9998 159.519C79.207 159.438 79.4448 159.453 79.6634 159.442C79.9012 159.43 80.139 159.419 80.3768 159.407C80.9253 159.38 81.4738 159.354 82.0185 159.327C82.1182 159.323 82.2102 159.369 82.2294 159.473C82.2409 159.561 82.1757 159.68 82.0798 159.687Z" fill="#5E5E60"/>
<path d="M82.2101 160.918C81.7537 160.704 81.2359 160.8 80.7488 160.842C80.2003 160.892 79.6556 160.945 79.1148 161.037C78.5893 161.126 78.0831 161.271 77.5729 161.413C77.0705 161.551 76.5642 161.628 76.0502 161.498C75.8239 161.44 75.9505 161.099 76.1729 161.156C76.6831 161.287 77.2009 161.145 77.6918 161.003C78.2096 160.853 78.7236 160.731 79.2567 160.646C79.8014 160.562 80.346 160.512 80.8945 160.466C81.3778 160.424 81.8764 160.362 82.3329 160.577C82.5438 160.677 82.4211 161.018 82.2101 160.918Z" fill="#5E5E60"/>
<path d="M82.5937 161.659C82.4365 162.077 82.1028 162.468 81.6272 162.499C81.3664 162.514 81.1247 162.399 80.8677 162.411C80.6069 162.422 80.3729 162.572 80.1466 162.687C79.9165 162.802 79.6864 162.89 79.4255 162.898C79.1801 162.905 78.9423 162.855 78.7083 162.806C78.4782 162.756 78.2327 162.694 77.9949 162.717C77.7647 162.737 77.5538 162.832 77.3467 162.925C76.8519 163.151 76.3571 163.358 75.8393 163.059C75.636 162.944 75.8431 162.645 76.0464 162.76C76.4338 162.982 76.848 162.748 77.2086 162.587C77.408 162.495 77.6152 162.411 77.8299 162.372C78.0486 162.334 78.2672 162.353 78.482 162.391C78.9231 162.472 79.3642 162.633 79.8014 162.445C80.0239 162.349 80.231 162.219 80.4573 162.134C80.6836 162.05 80.9061 162.027 81.1439 162.073C81.3779 162.115 81.6118 162.188 81.8343 162.069C82.0414 161.958 82.168 161.747 82.2485 161.536C82.3368 161.317 82.6743 161.44 82.5937 161.659Z" fill="#5E5E60"/>
<path d="M82.7819 163.584C80.6263 163.937 78.4631 164.232 76.2921 164.486C76.062 164.512 75.9968 164.156 76.2269 164.129C78.3979 163.876 80.5611 163.58 82.7167 163.228C82.9469 163.193 83.0121 163.546 82.7819 163.584Z" fill="#5E5E60"/>
<path d="M83.0503 164.8C82.8394 164.934 82.6246 165.072 82.4136 165.207C82.218 165.329 82.0377 165.36 81.8306 165.241C81.6542 165.141 81.5238 165 81.309 164.984C81.1134 164.969 80.9216 165.038 80.7375 165.092C79.7632 165.391 78.7737 165.514 77.7572 165.51C77.6307 165.51 77.4964 165.514 77.3813 165.571C77.2893 165.617 77.2087 165.69 77.132 165.755C76.9556 165.905 76.7715 166.027 76.5337 166.02C76.2997 166.012 76.3342 165.652 76.5682 165.659C76.7331 165.663 76.875 165.498 76.994 165.402C77.1589 165.268 77.3392 165.18 77.5539 165.161C77.7956 165.138 78.0449 165.157 78.2904 165.149C78.5359 165.141 78.7813 165.122 79.0268 165.092C79.5139 165.034 79.9934 164.938 80.4652 164.8C80.8487 164.689 81.263 164.524 81.6542 164.697C81.7577 164.743 81.8498 164.812 81.9419 164.877C82.0262 164.938 82.0838 164.98 82.1835 164.927C82.429 164.789 82.6629 164.624 82.9046 164.47C82.989 164.417 83.1079 164.474 83.1462 164.555C83.1846 164.654 83.1309 164.746 83.0503 164.8Z" fill="#5E5E60"/>
<path d="M83.1653 166.591C82.8392 166.25 82.4288 166.565 82.1143 166.752C81.9302 166.864 81.7346 166.952 81.516 166.963C81.3242 166.975 81.1362 166.94 80.956 166.887C80.5916 166.775 80.2502 166.572 79.8743 166.503C79.4256 166.423 79.042 166.714 78.6048 166.749C78.1867 166.783 77.6689 166.687 77.4042 167.09C77.2776 167.286 76.9785 167.078 77.105 166.883C77.3735 166.476 77.807 166.415 78.2596 166.4C78.4897 166.392 78.716 166.384 78.9346 166.308C79.1801 166.223 79.4179 166.12 79.6826 166.116C80.1006 166.116 80.488 166.323 80.8716 166.465C81.0519 166.534 81.2398 166.595 81.4354 166.599C81.6809 166.603 81.8842 166.469 82.0836 166.342C82.3061 166.204 82.5324 166.077 82.797 166.07C83.0502 166.062 83.2688 166.169 83.4414 166.35C83.6025 166.526 83.3264 166.76 83.1653 166.591Z" fill="#5E5E60"/>
<path d="M83.4531 167.807C83.1424 167.661 82.8433 167.98 82.5709 168.099C82.1912 168.264 81.7463 168.172 81.3474 168.141C80.8948 168.106 80.4384 168.068 79.9858 168.034C79.7863 168.018 79.5677 167.991 79.3797 168.072C79.2148 168.145 79.0844 168.287 78.954 168.406C78.6203 168.712 78.2252 168.893 77.7688 168.881C77.5348 168.877 77.5693 168.517 77.8033 168.521C78.2252 168.528 78.5244 168.31 78.8197 168.037C78.954 167.915 79.0997 167.792 79.2723 167.727C79.4718 167.65 79.6866 167.65 79.8975 167.661C80.3501 167.692 80.7989 167.734 81.2515 167.769C81.474 167.788 81.6926 167.803 81.9151 167.823C82.1222 167.838 82.3063 167.834 82.4942 167.738C82.8394 167.562 83.1808 167.278 83.5835 167.47C83.783 167.569 83.6641 167.911 83.4531 167.807Z" fill="#5E5E60"/>
<path d="M83.5068 168.835C83.6563 168.663 83.8711 168.755 83.9287 168.958C83.99 169.177 83.8328 169.326 83.6372 169.376C83.1194 169.503 82.5824 169.591 82.0531 169.66C81.5353 169.729 81.0098 169.763 80.4881 169.733C80.235 169.717 79.9857 169.683 79.7402 169.625C79.5216 169.575 79.2646 169.434 79.069 169.602C78.8772 169.767 78.7391 169.963 78.509 170.082C78.2827 170.201 78.0219 170.239 77.7687 170.197C77.5386 170.162 77.5693 169.802 77.8032 169.836C78.0334 169.871 78.2558 169.832 78.4476 169.698C78.6471 169.564 78.766 169.338 78.9808 169.223C79.1956 169.104 79.4257 169.161 79.6482 169.223C79.9128 169.295 80.1775 169.341 80.4498 169.361C80.9906 169.403 81.5353 169.361 82.0722 169.288C82.3522 169.249 82.6284 169.2 82.9046 169.15C83.0426 169.123 83.1807 169.096 83.3188 169.069C83.3879 169.054 83.4569 169.042 83.5259 169.027C83.5489 169.023 83.572 169.015 83.595 169.015C83.5681 169.077 83.6065 169.104 83.7062 169.1C83.7446 169.077 83.7829 169.05 83.8213 169.023C83.8174 169.027 83.8136 169.035 83.8059 169.038C83.6525 169.215 83.3533 169.012 83.5068 168.835Z" fill="#5E5E60"/>
<path d="M83.9516 170.791C83.664 170.6 83.3149 170.492 82.9736 170.6C82.6015 170.718 82.3062 171.002 81.9303 171.121C81.5544 171.236 81.1632 171.16 80.8218 170.975C80.6607 170.887 80.5034 170.753 80.3193 170.722C80.1314 170.688 79.9281 170.745 79.7478 170.784C79.2646 170.887 78.8004 171.052 78.3555 171.263C78.1446 171.363 77.9873 171.037 78.1983 170.937C78.6087 170.741 79.0383 170.584 79.4832 170.473C79.9013 170.369 80.3155 170.274 80.7106 170.488C80.8908 170.584 81.0519 170.703 81.2475 170.768C81.4317 170.826 81.6349 170.834 81.8229 170.78C82.218 170.661 82.5248 170.354 82.9275 170.243C83.3533 170.124 83.7982 170.258 84.1549 170.496C84.3544 170.626 84.1472 170.922 83.9516 170.791Z" fill="#5E5E60"/>
<path d="M84.1627 171.957C83.7753 171.735 83.2997 171.666 82.8854 171.854C82.6514 171.961 82.4558 172.138 82.218 172.237C82.0032 172.326 81.7731 172.345 81.543 172.329C81.1057 172.299 80.6723 172.149 80.2389 172.291C79.8553 172.418 79.5216 172.667 79.1726 172.863C78.766 173.085 78.3326 173.219 77.8761 173.077C77.6537 173.008 77.7764 172.667 77.9989 172.736C78.3863 172.855 78.7507 172.686 79.0844 172.494C79.4449 172.287 79.7863 172.046 80.189 171.927C80.6416 171.792 81.0789 171.923 81.5353 171.961C81.7808 171.984 81.9994 171.953 82.2142 171.831C82.4251 171.712 82.6169 171.558 82.8509 171.474C83.3687 171.29 83.9057 171.386 84.3736 171.654C84.5731 171.773 84.3621 172.072 84.1627 171.957Z" fill="#5E5E60"/>
<path d="M84.5767 173.25C84.2431 173.361 83.9324 173.269 83.5987 173.192C83.4529 173.162 83.2957 173.131 83.1461 173.166C82.9811 173.204 82.8469 173.338 82.7242 173.449C82.4211 173.729 82.1028 173.917 81.6962 174.006C81.2973 174.09 80.8754 174.113 80.465 174.113C79.9664 174.117 79.4677 174.067 78.9768 173.975C78.7505 173.933 78.7812 173.572 79.0113 173.614C79.5521 173.714 80.1006 173.764 80.6529 173.749C81.1362 173.737 81.6886 173.714 82.1181 173.469C82.5094 173.246 82.7395 172.817 83.2266 172.79C83.4414 172.778 83.6447 172.832 83.8518 172.882C84.0283 172.924 84.2392 172.981 84.4195 172.92C84.5115 172.889 84.6151 172.909 84.6611 173.004C84.6995 173.089 84.6688 173.219 84.5767 173.25Z" fill="#5E5E60"/>
<path d="M84.8301 174.926C84.3354 175.026 83.8367 175.126 83.3304 175.16C83.0773 175.175 82.8241 175.179 82.571 175.156C82.3217 175.133 82.0724 175.072 81.8231 175.083C81.5699 175.095 81.3474 175.225 81.1096 175.287C80.8603 175.352 80.5995 175.344 80.3463 175.344C79.8017 175.344 79.257 175.348 78.7124 175.348C78.4784 175.348 78.5129 174.987 78.7469 174.987C79.2839 174.987 79.8209 174.984 80.354 174.984C80.611 174.984 80.8757 174.991 81.125 174.911C81.3551 174.834 81.5661 174.734 81.8154 174.727C82.0493 174.719 82.2795 174.761 82.5096 174.788C82.7628 174.819 83.0198 174.823 83.2767 174.807C83.783 174.776 84.2817 174.673 84.7764 174.573C84.9912 174.523 85.0564 174.88 84.8301 174.926Z" fill="#5E5E60"/>
<path d="M85.0449 176.391C84.5616 176.338 84.0706 176.284 83.5835 176.299C83.0887 176.315 82.6246 176.453 82.1413 176.552C81.9035 176.602 81.6619 176.637 81.4164 176.629C81.1824 176.621 80.9523 176.579 80.7222 176.552C80.2504 176.495 79.7825 176.518 79.3184 176.629C79.0921 176.683 79.0268 176.326 79.2531 176.272C79.7288 176.157 80.2197 176.13 80.7068 176.184C80.937 176.211 81.1671 176.253 81.4011 176.265C81.6466 176.276 81.8882 176.238 82.1298 176.184C82.6093 176.077 83.0696 175.958 83.5643 175.939C84.0706 175.919 84.5769 175.977 85.0794 176.031C85.3057 176.054 85.275 176.414 85.0449 176.391Z" fill="#5E5E60"/>
<path d="M73.3539 158.368C74.612 156.999 76.1999 156.293 76.1999 156.293L78.0794 166.706L78.1446 167.063L80.024 177.477C80.024 177.477 78.2903 177.369 76.6333 176.525C74.9764 175.682 74.1402 174.075 74.1402 174.075L73.0432 167.984L72.978 167.627L71.8811 161.536C71.8734 161.536 72.092 159.737 73.3539 158.368Z" fill="#5E5E60"/>
<path d="M72.9628 163.043C73.3617 165.257 73.9754 167.435 74.7962 169.545C75.0532 170.208 75.3409 170.876 75.8625 171.413C76.5069 172.076 77.4505 172.483 78.371 172.874C78.6203 172.981 78.931 173.07 79.2417 173.169L80.0165 177.473C80.0165 177.473 78.2828 177.365 76.6258 176.522C74.9689 175.678 74.1327 174.071 74.1327 174.071L73.0357 167.98L72.9705 167.623L71.8735 161.532C71.8735 161.532 72.0385 160.205 72.8785 158.962C72.5678 160.312 72.7212 161.709 72.9628 163.043Z" fill="#484849"/>
<path d="M38.4348 176.806L70.7534 170.975C72.2608 170.703 73.2619 169.261 72.9895 167.754C72.7172 166.246 71.275 165.245 69.7677 165.517L37.449 171.347C35.9416 171.62 34.9406 173.062 35.2129 174.569C35.4852 176.073 36.9274 177.078 38.4348 176.806Z" fill="#EDE4C8"/>
</svg>
