<svg width="11" height="15" viewBox="0 0 11 15" fill="none" xmlns="http://www.w3.org/2000/svg">
<path d="M10.2517 10.7463C10.0539 9.7559 9.12489 9.58733 9.12196 9.58598V9.58601C9.11197 9.58308 9.20718 9.60695 6.85611 9.02418V8.94441H8.58682C8.94357 8.94441 9.23378 8.65416 9.23378 8.29744V4.99668C9.26287 4.87396 9.26293 4.74637 9.23378 4.62338V3.41872C9.23378 3.29731 9.13538 3.19897 9.01403 3.19897C8.89262 3.19897 8.79427 3.29731 8.79427 3.41872V4.0494C8.67826 3.98014 8.54575 3.93048 8.40295 3.9059C8.35139 3.67689 8.16119 3.49583 7.91999 3.46416C7.66857 3.43111 7.47802 3.28454 7.35366 3.02855C7.29544 2.90869 7.18142 2.82997 7.04871 2.8179C6.91587 2.80589 6.7901 2.86264 6.71138 2.96981C6.33363 3.48391 5.28348 4.637 3.47009 4.63694C3.33214 4.63694 3.23859 4.63041 3.20601 4.62895C2.87279 4.60888 2.59104 4.87513 2.59104 5.20902V5.71396C2.59104 6.521 2.92585 7.3034 3.50956 7.86051C3.70315 8.04528 3.9167 8.19942 4.14442 8.32232V8.50495H2.42162C2.30721 8.50495 2.21414 8.41188 2.21414 8.2975V3.35951C2.21414 1.75864 3.5194 0.439522 5.0961 0.439522C5.1012 0.439522 5.10629 0.439551 5.11136 0.43958C5.67627 0.442598 6.3285 0.603057 6.77296 0.848242C7.05465 1.00372 7.22865 0.880147 7.50682 0.880147C8.18577 0.880147 8.72988 1.57829 8.79509 2.20621C8.7955 2.21541 8.79647 2.25224 8.79659 2.39333C8.79673 2.60547 9.03632 2.62176 9.01652 2.61291C9.13792 2.61282 9.23619 2.51433 9.2361 2.39298C9.23607 2.35396 9.23639 2.20094 9.23273 2.16543C9.14437 1.2913 8.39873 0.440635 7.50685 0.440635C7.15851 0.440635 7.10422 0.528936 6.98531 0.463428C6.48131 0.185371 5.74667 0.00346677 5.11374 6.83274e-05C3.28936 -0.0117383 1.7746 1.5081 1.7746 3.35948V8.29747C1.7746 8.65422 2.06484 8.94443 2.42159 8.94443H4.14442V9.02421L1.88745 9.58358C1.88446 9.58431 1.88153 9.58516 1.87857 9.58601L1.71369 9.63464C1.70874 9.6361 1.70387 9.63772 1.69904 9.6395C1.40478 9.74931 0.890067 10.0391 0.748827 10.7464C0.0799794 14.1062 0.108134 13.9628 0.106522 13.9743C0.0259561 14.5441 0.31122 15 0.99744 15H3.37385C3.49526 15 3.59361 14.9016 3.59361 14.7802C3.59361 14.6588 3.49523 14.5604 3.37385 14.5604H2.54689V12.4877C2.54689 12.3663 2.44851 12.2679 2.32714 12.2679C2.20576 12.2679 2.10738 12.3663 2.10738 12.4877V14.5604H0.99744C0.705526 14.5604 0.536014 14.4665 0.533202 14.1598C0.531971 14.0102 0.526083 14.156 1.17987 10.8323C1.27828 10.3395 1.63617 10.1336 1.84585 10.0539L1.99825 10.0089L3.29434 9.6877C4.73613 11.3862 4.65076 11.2962 4.73408 11.3775C5.21531 11.8469 5.90197 11.8138 6.3539 11.283L7.71108 9.6889L9.00222 10.0089C9.03957 10.0261 9.68229 10.1391 9.82066 10.8322C10.4688 14.1272 10.4686 14.0095 10.4674 14.1596C10.4651 14.46 10.3026 14.5605 10.0031 14.5605H8.90106V12.4877C8.90106 12.3663 8.80271 12.2679 8.6813 12.2679C8.5599 12.2679 8.46155 12.3663 8.46155 12.4877V14.5604H4.39939C4.27798 14.5604 4.17964 14.6588 4.17964 14.7802C4.17964 14.9016 4.27801 15 4.39939 15H10.0031C10.5461 15 10.9019 14.7012 10.9069 14.1631C10.9087 13.9119 10.8938 14.0319 10.2517 10.7463ZM8.41734 4.35927C8.60085 4.41385 8.74239 4.53479 8.7943 4.68414V4.93592C8.74239 5.0853 8.60085 5.20624 8.41734 5.26079V4.35927ZM8.41734 5.75222V5.71164C8.55468 5.68627 8.68221 5.63764 8.7943 5.57069V8.29747C8.7943 8.41188 8.70122 8.50489 8.58685 8.50489H6.85611V8.33506C7.78787 7.84794 8.41734 6.87262 8.41734 5.75222ZM3.81304 7.54252C3.31579 7.06788 3.03061 6.40141 3.03061 5.7139C3.04368 5.23542 2.99894 5.17744 3.07529 5.10555C3.10233 5.08006 3.13869 5.06526 3.17962 5.06761C4.75532 5.16247 6.11059 4.46978 7.00538 3.30997C7.24664 3.7336 7.60045 3.8655 7.86278 3.89998C7.92834 3.90859 7.97783 3.96455 7.97783 4.03021C7.97783 4.63814 7.97783 5.14867 7.97783 5.75225C7.97783 7.93885 5.36009 9.01905 3.81304 7.54252ZM6.01919 10.9981C5.713 11.3578 5.28439 11.3568 4.97894 10.9963L4.52042 10.4551H6.48149L6.01919 10.9981ZM6.85573 10.0155H4.14808L3.77042 9.56975L4.41712 9.40943C4.5152 9.38515 4.58399 9.29497 4.58399 9.19396L4.58402 8.51409C5.18871 8.71566 5.82729 8.71346 6.4166 8.52036C6.42073 9.22276 6.40716 9.20667 6.42884 9.26863C6.45281 9.33713 6.50991 9.39118 6.58344 9.4094L7.23439 9.57074L6.85573 10.0155Z" fill="#333E57"/>
</svg>
