<svg width="25" height="24" viewBox="0 0 25 24" fill="none" xmlns="http://www.w3.org/2000/svg">
<path d="M10.0753 8.97693L1.19854 10.7402C0.483162 10.8913 -0.000476837 11.4959 -0.000476837 12.2113V22.4886C-0.000476837 23.3249 0.674602 23.9999 1.51089 23.9999H10.5791C10.297 23.9999 10.0753 23.7783 10.0753 23.4961V22.9924H1.51089C1.23885 22.9924 1.0071 22.7707 1.0071 22.4886V12.2113C1.0071 11.9795 1.16831 11.7679 1.40006 11.7175L10.0753 10.0047V8.97693Z" fill="#475168"/>
<path d="M4.53379 13.9241C4.25166 13.9241 4.03 14.1458 4.03 14.4279C4.03 14.71 4.25166 14.9317 4.53379 14.9317H6.54894C6.83107 14.9317 7.05273 14.71 7.05273 14.4279C7.05273 14.1458 6.83107 13.9241 6.54894 13.9241H4.53379Z" fill="#475168"/>
<path d="M4.53379 16.947C4.25166 16.947 4.03 17.1687 4.03 17.4508C4.03 17.7329 4.25166 17.9546 4.53379 17.9546H6.54894C6.83107 17.9546 7.05273 17.7329 7.05273 17.4508C7.05273 17.1687 6.83107 16.947 6.54894 16.947H4.53379Z" fill="#475168"/>
<path d="M4.53379 19.9697C4.25166 19.9697 4.03 20.1913 4.03 20.4735C4.03 20.7556 4.25166 20.9772 4.53379 20.9772H6.54894C6.83107 20.9772 7.05273 20.7556 7.05273 20.4735C7.05273 20.1913 6.83107 19.9697 6.54894 19.9697H4.53379Z" fill="#475168"/>
<path d="M10.0754 23.4962C10.0754 23.7783 10.2971 23.9999 10.5792 23.9999C10.8613 23.9999 11.083 23.7783 11.083 23.4962V22.9924V9.39005C11.083 9.23891 11.0125 9.09785 10.9016 8.99709C10.7807 8.90641 10.6296 8.86611 10.4785 8.89634L10.0754 8.97694V10.0047V22.9924V23.4962Z" fill="#475168"/>
<path d="M11.0828 22.9924V23.4962C11.0828 23.7783 10.8612 23.9999 10.5791 23.9999H14.6094C14.3273 23.9999 14.1056 23.7783 14.1056 23.4962V22.9924H11.0828Z" fill="#475168"/>
<path d="M13.6021 4.8559C13.32 4.8559 13.0984 5.07756 13.0984 5.35969C13.0984 5.64181 13.32 5.86347 13.6021 5.86347H15.6173C15.8994 5.86347 16.1211 5.64181 16.1211 5.35969C16.1211 5.07756 15.8994 4.8559 15.6173 4.8559H13.6021Z" fill="#475168"/>
<path d="M13.0984 8.38257C13.0984 8.6647 13.32 8.88636 13.6021 8.88636H15.6173C15.8994 8.88636 16.1211 8.6647 16.1211 8.38257C16.1211 8.10045 15.8994 7.87878 15.6173 7.87878H13.6021C13.32 7.87878 13.0984 8.10045 13.0984 8.38257Z" fill="#475168"/>
<path d="M13.6021 10.9015C13.32 10.9015 13.0984 11.1232 13.0984 11.4053C13.0984 11.6874 13.32 11.9091 13.6021 11.9091H15.6173C15.8994 11.9091 16.1211 11.6874 16.1211 11.4053C16.1211 11.1232 15.8994 10.9015 15.6173 10.9015H13.6021Z" fill="#475168"/>
<path d="M13.6021 13.9241C13.32 13.9241 13.0984 14.1458 13.0984 14.4279C13.0984 14.71 13.32 14.9317 13.6021 14.9317H15.6173C15.8994 14.9317 16.1211 14.71 16.1211 14.4279C16.1211 14.1458 15.8994 13.9241 15.6173 13.9241H13.6021Z" fill="#475168"/>
<path d="M18.1364 14.4279C18.1364 14.71 18.3581 14.9317 18.6402 14.9317H20.6554C20.9375 14.9317 21.1592 14.71 21.1592 14.4279C21.1592 14.1458 20.9375 13.9241 20.6554 13.9241H18.6402C18.3581 13.9241 18.1364 14.1458 18.1364 14.4279Z" fill="#475168"/>
<path d="M18.6402 4.8559C18.3581 4.8559 18.1364 5.07756 18.1364 5.35969C18.1364 5.64181 18.3581 5.86347 18.6402 5.86347H20.6554C20.9375 5.86347 21.1592 5.64181 21.1592 5.35969C21.1592 5.07756 20.9375 4.8559 20.6554 4.8559H18.6402Z" fill="#475168"/>
<path d="M18.6402 7.87878C18.3581 7.87878 18.1364 8.10045 18.1364 8.38257C18.1364 8.6647 18.3581 8.88636 18.6402 8.88636H20.6554C20.9375 8.88636 21.1592 8.6647 21.1592 8.38257C21.1592 8.10045 20.9375 7.87878 20.6554 7.87878H18.6402Z" fill="#475168"/>
<path d="M18.6402 10.9015C18.3581 10.9015 18.1364 11.1232 18.1364 11.4053C18.1364 11.6874 18.3581 11.9091 18.6402 11.9091H20.6554C20.9375 11.9091 21.1592 11.6874 21.1592 11.4053C21.1592 11.1232 20.9375 10.9015 20.6554 10.9015H18.6402Z" fill="#475168"/>
<path d="M15.1135 18.4584C15.1135 18.1763 15.3452 17.9546 15.6173 17.9546H18.64C18.9221 17.9546 19.1438 18.1763 19.1438 18.4584V22.9925H20.1514V18.4584C20.1514 17.6221 19.4763 16.947 18.64 16.947H15.6173C14.781 16.947 14.1059 17.6221 14.1059 18.4584V22.9925H15.1135V18.4584Z" fill="#475168"/>
<path d="M19.1438 22.9924H15.1135H14.1059V23.4962C14.1059 23.7783 14.3276 23.9999 14.6097 23.9999H19.6476C19.9297 23.9999 20.1514 23.7783 20.1514 23.4962V22.9924H19.1438Z" fill="#475168"/>
<path d="M22.4184 0.0196165L11.3451 1.70227C10.6096 1.82318 10.0755 2.44788 10.0755 3.19349V8.97699L10.4786 8.89639C10.6297 8.86616 10.7808 8.90646 10.9017 8.99714C11.0126 9.0979 11.0831 9.23896 11.0831 9.3901V3.19349C11.0831 2.9416 11.2645 2.73 11.5063 2.6897L22.5796 1.01712C22.6098 1.00704 22.64 1.00704 22.6703 1.00704C22.7912 1.00704 22.902 1.04735 22.9927 1.12795C23.1136 1.22871 23.1741 1.3597 23.1741 1.51083V22.4886C23.1741 22.7708 22.9423 22.9924 22.6703 22.9924H20.1513V23.4962C20.1513 23.7783 19.9297 24 19.6475 24H22.6703C23.5066 24 24.1816 23.3249 24.1816 22.4886V1.51083C24.1816 1.0675 23.9902 0.644316 23.6476 0.362193C23.305 0.0699955 22.8617 -0.050914 22.4184 0.0196165Z" fill="#475168"/>
</svg>
