<svg width="15" height="15" viewBox="0 0 15 15" fill="none" xmlns="http://www.w3.org/2000/svg">
<g clip-path="url(#clip0_481:2645)">
<path d="M12.2517 10.7463C12.0539 9.7559 11.1249 9.58733 11.122 9.58598V9.58601C11.112 9.58308 11.2072 9.60695 8.85611 9.02418V8.94441H10.5868C10.9436 8.94441 11.2338 8.65416 11.2338 8.29744V4.99668C11.2629 4.87396 11.2629 4.74637 11.2338 4.62338V3.41872C11.2338 3.29731 11.1354 3.19897 11.014 3.19897C10.8926 3.19897 10.7943 3.29731 10.7943 3.41872V4.0494C10.6783 3.98014 10.5457 3.93048 10.403 3.9059C10.3514 3.67689 10.1612 3.49583 9.91999 3.46416C9.66857 3.43111 9.47802 3.28454 9.35366 3.02855C9.29544 2.90869 9.18142 2.82997 9.04871 2.8179C8.91587 2.80589 8.7901 2.86264 8.71138 2.96981C8.33363 3.48391 7.28348 4.637 5.47009 4.63694C5.33214 4.63694 5.23859 4.63041 5.20601 4.62895C4.87279 4.60888 4.59104 4.87513 4.59104 5.20902V5.71396C4.59104 6.521 4.92585 7.3034 5.50956 7.86051C5.70315 8.04528 5.9167 8.19942 6.14442 8.32232V8.50495H4.42162C4.30721 8.50495 4.21414 8.41188 4.21414 8.2975V3.35951C4.21414 1.75864 5.5194 0.439522 7.0961 0.439522C7.1012 0.439522 7.10629 0.439551 7.11136 0.43958C7.67627 0.442598 8.3285 0.603057 8.77296 0.848242C9.05465 1.00372 9.22865 0.880147 9.50682 0.880147C10.1858 0.880147 10.7299 1.57829 10.7951 2.20621C10.7955 2.21541 10.7965 2.25224 10.7966 2.39333C10.7967 2.60547 11.0363 2.62176 11.0165 2.61291C11.1379 2.61282 11.2362 2.51433 11.2361 2.39298C11.2361 2.35396 11.2364 2.20094 11.2327 2.16543C11.1444 1.2913 10.3987 0.440635 9.50685 0.440635C9.15851 0.440635 9.10422 0.528936 8.98531 0.463428C8.48131 0.185371 7.74667 0.00346677 7.11374 6.83274e-05C5.28936 -0.0117383 3.7746 1.5081 3.7746 3.35948V8.29747C3.7746 8.65422 4.06484 8.94443 4.42159 8.94443H6.14442V9.02421L3.88745 9.58358C3.88446 9.58431 3.88153 9.58516 3.87857 9.58601L3.71369 9.63464C3.70874 9.6361 3.70387 9.63772 3.69904 9.6395C3.40478 9.74931 2.89007 10.0391 2.74883 10.7464C2.07998 14.1062 2.10813 13.9628 2.10652 13.9743C2.02596 14.5441 2.31122 15 2.99744 15H5.37385C5.49526 15 5.59361 14.9016 5.59361 14.7802C5.59361 14.6588 5.49523 14.5604 5.37385 14.5604H4.54689V12.4877C4.54689 12.3663 4.44851 12.2679 4.32714 12.2679C4.20576 12.2679 4.10738 12.3663 4.10738 12.4877V14.5604H2.99744C2.70553 14.5604 2.53601 14.4665 2.5332 14.1598C2.53197 14.0102 2.52608 14.156 3.17987 10.8323C3.27828 10.3395 3.63617 10.1336 3.84585 10.0539L3.99825 10.0089L5.29434 9.6877C6.73613 11.3862 6.65076 11.2962 6.73408 11.3775C7.21531 11.8469 7.90197 11.8138 8.3539 11.283L9.71108 9.6889L11.0022 10.0089C11.0396 10.0261 11.6823 10.1391 11.8207 10.8322C12.4688 14.1272 12.4686 14.0095 12.4674 14.1596C12.4651 14.46 12.3026 14.5605 12.0031 14.5605H10.9011V12.4877C10.9011 12.3663 10.8027 12.2679 10.6813 12.2679C10.5599 12.2679 10.4615 12.3663 10.4615 12.4877V14.5604H6.39939C6.27798 14.5604 6.17964 14.6588 6.17964 14.7802C6.17964 14.9016 6.27801 15 6.39939 15H12.0031C12.5461 15 12.9019 14.7012 12.9069 14.1631C12.9087 13.9119 12.8938 14.0319 12.2517 10.7463ZM10.4173 4.35927C10.6009 4.41385 10.7424 4.53479 10.7943 4.68414V4.93592C10.7424 5.0853 10.6009 5.20624 10.4173 5.26079V4.35927ZM10.4173 5.75222V5.71164C10.5547 5.68627 10.6822 5.63764 10.7943 5.57069V8.29747C10.7943 8.41188 10.7012 8.50489 10.5868 8.50489H8.85611V8.33506C9.78787 7.84794 10.4173 6.87262 10.4173 5.75222ZM5.81304 7.54252C5.31579 7.06788 5.03061 6.40141 5.03061 5.7139C5.04368 5.23542 4.99894 5.17744 5.07529 5.10555C5.10233 5.08006 5.13869 5.06526 5.17962 5.06761C6.75532 5.16247 8.11059 4.46978 9.00538 3.30997C9.24664 3.7336 9.60045 3.8655 9.86278 3.89998C9.92834 3.90859 9.97783 3.96455 9.97783 4.03021C9.97783 4.63814 9.97783 5.14867 9.97783 5.75225C9.97783 7.93885 7.36009 9.01905 5.81304 7.54252ZM8.01919 10.9981C7.713 11.3578 7.28439 11.3568 6.97894 10.9963L6.52042 10.4551H8.48149L8.01919 10.9981ZM8.85573 10.0155H6.14808L5.77042 9.56975L6.41712 9.40943C6.5152 9.38515 6.58399 9.29497 6.58399 9.19396L6.58402 8.51409C7.18871 8.71566 7.82729 8.71346 8.4166 8.52036C8.42073 9.22276 8.40716 9.20667 8.42884 9.26863C8.45281 9.33713 8.50991 9.39118 8.58344 9.4094L9.23439 9.57074L8.85573 10.0155Z" fill="black"/>
</g>
<defs>
<clipPath id="clip0_481:2645">
<rect width="15" height="15" fill="white"/>
</clipPath>
</defs>
</svg>
