<?xml version="1.0" encoding="utf-8"?>
<!-- Generator: Adobe Illustrator 24.0.0, SVG Export Plug-In . SVG Version: 6.00 Build 0)  -->
<svg version="1.1" id="Calque_1" xmlns="http://www.w3.org/2000/svg" xmlns:xlink="http://www.w3.org/1999/xlink" x="0px" y="0px"
	 viewBox="0 0 32 32" style="enable-background:new 0 0 32 32;" xml:space="preserve">
<style type="text/css">
	.st0{fill:#FFFFFF;}
	.st1{fill:#FF3E79;}
</style>
<g>
	<path class="st0" d="M28.56,31.94H3.38C1.52,31.94,0,30.43,0,28.57V3.47C0,1.61,1.52,0.1,3.38,0.1h25.18
		c1.86,0,3.38,1.51,3.38,3.38v25.09C31.93,30.43,30.42,31.94,28.56,31.94z"/>
	<path class="st1" d="M1.87,16.16C1.77,8.7,7.98,2.12,16.07,2.23c7.47,0.1,13.89,6.12,13.8,14.12c-0.09,7.75-6.46,13.75-14.02,13.74
		C8.02,30.08,1.77,23.66,1.87,16.16z M15.86,2.55C8.55,2.48,2.31,8.37,2.16,15.88c-0.15,7.66,5.98,13.91,13.7,13.91
		c7.74-0.01,13.57-6.2,13.69-13.37C29.69,8.59,23.25,2.46,15.86,2.55z"/>
	<path class="st1" d="M19.85,16.22c0.2,0.08,0.4,0.16,0.6,0.25c0.93,0.38,1.61,1.01,1.79,2.02c0.28,1.58-0.26,2.88-1.48,3.91
		c-1.01,0.86-2.23,1.26-3.5,1.54c-1.57,0.34-3.16,0.41-4.76,0.28c-0.28-0.02-0.43,0.02-0.5,0.35c-0.13,0.54-0.63,0.68-1.11,0.75
		c-0.33,0.05-0.68,0.01-1.01-0.05c-0.42-0.07-0.63-0.34-0.6-0.76c0.05-1.01,0.09-2.02,0.21-3.02c0.17-1.35,0.36-2.71,0.63-4.05
		c0.36-1.78,0.79-3.55,1.21-5.32c0.08-0.35,0.33-0.59,0.68-0.7c0.52-0.16,1.06-0.17,1.59-0.06c0.46,0.1,0.61,0.36,0.49,0.82
		c-0.31,1.21-0.68,2.41-0.92,3.63c-0.35,1.77-0.6,3.56-0.88,5.34c-0.04,0.23-0.04,0.46-0.07,0.69c-0.02,0.17,0.04,0.27,0.22,0.28
		c1.72,0.07,3.45,0.16,5.1-0.51c0.77-0.32,1.42-0.8,1.75-1.61c0.42-1.01,0.02-2.07-0.95-2.58c-0.57-0.3-1.19-0.41-1.83-0.46
		c-0.09-0.01-0.19,0-0.29-0.01c-0.75-0.08-0.98-0.39-0.81-1.14c0.14-0.64,0.43-0.87,1.11-0.89c1.08-0.04,2.15-0.18,3.15-0.64
		c0.86-0.4,1.62-0.93,1.91-1.91c0.28-0.93-0.02-1.79-0.81-2.37c-0.71-0.53-1.55-0.73-2.4-0.81c-2.92-0.28-5.71,0.2-8.36,1.45
		c-0.35,0.17-0.68,0.4-1.04,0.54c-0.31,0.13-0.66,0.21-0.99,0.26c-0.24,0.03-0.42-0.13-0.51-0.36C7.21,10.51,7.38,9.85,7.9,9.46
		c1.08-0.81,2.32-1.29,3.6-1.67c1.45-0.43,2.94-0.68,4.45-0.78c1.67-0.1,3.32-0.06,4.94,0.34c0.84,0.21,1.61,0.58,2.28,1.13
		c1.95,1.61,1.69,4.52-0.03,6.02c-0.83,0.72-1.8,1.18-2.85,1.47c-0.15,0.04-0.3,0.09-0.44,0.14C19.86,16.14,19.85,16.18,19.85,16.22
		z"/>
</g>
</svg>
